<svg xmlns="http://www.w3.org/2000/svg" viewBox="0 0 486.71 307.8"><defs><style>.cls-1{fill:#fff;}</style></defs><title>OELP_vague_Fichier 1</title><g id="Calque_2" data-name="Calque 2"><g id="Layer_3" data-name="Layer 3"><path d="M218,0c5.78-.3,22.48,26.52,46.11,43.23C288.92,30.55,317,3.87,325.24,4.61c6.34.58,4.61,32.28,14.41,42.66,19.6-6.92,58.22-45,66.86-43.23s0,70.32,0,70.32c25.94,4,51.88,1.73,55.34,4.61,5.63,4.7-16.14,22.48-28.82,45,26.51,13.26,51.87,13.83,53.6,19.6,2,6.7-37.46,24.78-65.13,35.16,7.49,25.36,23.63,36.31,17.87,39.19-12.4,6.2-70.9-1.72-80.12-3.45-1.16,19,9.22,35.16,6.34,39.77-3.89,6.22-55.34-4-84.16-18.45-7.49,9.8-9.8,30-14.41,30s-26.51-9.23-31.13-16.14c-9.22,15.56-49.57,52.45-117,58.21-15.56-1.15,25.37-21.9,39.78-57.06-7.5,4-17.3,8.07-17.3,8.07s2.31-13.83-.57-23.06c-18.45,8.07-45,22.48-53.61,21.91s5.19-29.4,4.61-41.5c-12.68-3.46-47.26,5.76-50.14-1.16-2.48-5.95,13.83-18.44,23.05-40.92C47.41,164.86-3,150.77.14,141.22c2.31-6.91,41.51-9.8,65.14-21.32C63,103.18,34.15,81.85,36.46,76.09c3-7.44,56.49,2.88,70.9-2.88C105.63,54.76,93,42.29,95.25,37.47c3.46-7.49,57.64,19.6,85.89,12.1C199,33.43,207.07.58,218,0Z"/><path class="cls-1" d="M220.41,17S199.6,52.19,184.13,63.39c-13.87,0-54.41-7.47-73.08-14.41,10.67,15.47,12.8,34.15,12.8,34.15a352.19,352.19,0,0,1-67.21,1.6c15.47,12.8,26.14,38.94,26.14,38.94-9.61,8.53-54.42,19.15-61.89,19.2C51.8,152.52,65,157.29,84.38,165.81c-2.67,8.54-22.82,38.37-29.34,40,24.24-3.49,34.52-4.17,50.14-3.2a136.92,136.92,0,0,1-9.07,40c16.8-6.9,31.88-14,52.81-18.14,3.74,8,2.14,19.21,2.14,19.21s21.87-9.61,26.67-13.87c0,24.53-38.94,61.34-41.61,65.61C166,290.11,214,265.57,237.48,227.16c6.93,13.87,27.74,25.07,27.74,25.07s7.47-25.61,11.2-31.47c30.41,15.47,76.82,21.87,76.82,21.87-9.61-21.87-8-40.54-8-40.54,14.4-.54,68.81,3.2,78.41,2.66-9.07-12.27-19.2-34.14-17.07-34.14,19.21-5.87,58.15-25.07,58.15-25.07-21.87-6.4-52.28-16-52.28-16S431.12,101.8,445,88.46c-17.07-1.07-45.88-2.67-52.81-5.33,1.6-18.68,7.47-62.42,7.47-62.42C381,38.32,341.5,59.12,335.1,59.65c-13.34-12.8-17.6-38.4-17.6-38.4s-30.41,22.93-53.88,33.6C241.74,39.38,220.41,17,220.41,17Z"/></g></g></svg>