<?xml version="1.0" encoding="utf-8"?>
<!-- Generator: Adobe Illustrator 23.0.3, SVG Export Plug-In . SVG Version: 6.00 Build 0)  -->
<svg version="1.1" id="Calque_1" xmlns="http://www.w3.org/2000/svg" xmlns:xlink="http://www.w3.org/1999/xlink" x="0px" y="0px"
	 viewBox="0 0 486.7 307.8" style="enable-background:new 0 0 486.7 307.8;" xml:space="preserve">
<style type="text/css">
	.st0{display:none;stroke:#000000;stroke-width:2;stroke-miterlimit:10;}
	.st1{fill:#FFFFFF;stroke:#000000;stroke-width:5;stroke-miterlimit:10;}
</style>
<title>OELP_vague_Fichier 1</title>
<g>
	<g id="Layer_3">
		<path class="st0" d="M218,0c5.8-0.3,22.5,26.5,46.1,43.2C288.9,30.5,317,3.9,325.2,4.6c6.3,0.6,4.6,32.3,14.4,42.7
			c19.6-6.9,58.2-45,66.9-43.2s0,70.3,0,70.3c25.9,4,51.9,1.7,55.3,4.6c5.6,4.7-16.1,22.5-28.8,45c26.5,13.3,51.9,13.8,53.6,19.6
			c2,6.7-37.5,24.8-65.1,35.2c7.5,25.4,23.6,36.3,17.9,39.2c-12.4,6.2-70.9-1.7-80.1-3.4c-1.2,19,9.2,35.2,6.3,39.8
			c-3.9,6.2-55.3-4-84.2-18.4c-7.5,9.8-9.8,30-14.4,30s-26.5-9.2-31.1-16.1c-9.2,15.6-49.6,52.4-117,58.2
			c-15.6-1.1,25.4-21.9,39.8-57.1c-7.5,4-17.3,8.1-17.3,8.1s2.3-13.8-0.6-23.1c-18.4,8.1-45,22.5-53.6,21.9s5.2-29.4,4.6-41.5
			c-12.7-3.5-47.3,5.8-50.1-1.2c-2.5-5.9,13.8-18.4,23.1-40.9C47.4,164.9-3,150.8,0.1,141.2c2.3-6.9,41.5-9.8,65.1-21.3
			C63,103.2,34.2,81.8,36.5,76.1c3-7.4,56.5,2.9,70.9-2.9C105.6,54.8,93,42.3,95.2,37.5c3.5-7.5,57.6,19.6,85.9,12.1
			C199,33.4,207.1,0.6,218,0z"/>
		<path class="st1" d="M220.4,17c0,0-20.8,35.2-36.3,46.4c-13.9,0-54.4-7.5-73.1-14.4c10.7,15.5,12.8,34.2,12.8,34.2
			c-22.3,2.7-44.8,3.2-67.2,1.6c15.5,12.8,26.1,38.9,26.1,38.9c-9.6,8.5-54.4,19.1-61.9,19.2c30.9,9.7,44.1,14.4,63.5,22.9
			c-2.7,8.5-22.8,38.4-29.3,40c24.2-3.5,34.5-4.2,50.1-3.2c-1,13.7-4.1,27.2-9.1,40c16.8-6.9,31.9-14,52.8-18.1
			c3.7,8,2.1,19.2,2.1,19.2s21.9-9.6,26.7-13.9c0,24.5-38.9,61.3-41.6,65.6c29.9-5.3,77.9-29.8,101.4-68.3
			c6.9,13.9,27.7,25.1,27.7,25.1s7.5-25.6,11.2-31.5c30.4,15.5,76.8,21.9,76.8,21.9c-9.6-21.9-8-40.5-8-40.5
			c14.4-0.5,68.8,3.2,78.4,2.7c-9.1-12.3-19.2-34.1-17.1-34.1c19.2-5.9,58.1-25.1,58.1-25.1c-21.9-6.4-52.3-16-52.3-16
			s18.7-27.7,32.5-41.1c-17.1-1.1-45.9-2.7-52.8-5.3c1.6-18.7,7.5-62.4,7.5-62.4c-18.7,17.6-58.2,38.4-64.6,38.9
			c-13.3-12.8-17.6-38.4-17.6-38.4s-30.4,22.9-53.9,33.6C241.7,39.4,220.4,17,220.4,17z"/>
	</g>
</g>
</svg>
