<?xml version="1.0" encoding="utf-8"?>
<!-- Generator: Adobe Illustrator 23.0.3, SVG Export Plug-In . SVG Version: 6.00 Build 0)  -->
<svg version="1.1" id="Calque_1" xmlns="http://www.w3.org/2000/svg" xmlns:xlink="http://www.w3.org/1999/xlink" x="0px" y="0px"
	 viewBox="0 0 200 200" style="enable-background:new 0 0 200 200;" xml:space="preserve">
<style type="text/css">
	.st0{fill:#FF868B;stroke:#000000;stroke-width:2;stroke-miterlimit:10;}
	.st1{fill:#FFC1C2;stroke:#000000;stroke-width:2;stroke-miterlimit:10;}
	.st2{fill:none;stroke:#000000;stroke-width:2;stroke-miterlimit:10;}
</style>
<g>
	<path class="st0" d="M97.3,78.6c-2,0.8-3.9,1.7-5.6,3.1c-1.5,1.3-3.2,2.5-4.9,3.6c-2.4,1.6-4.5,3.5-6.9,5
		c-3.5,2.3-6.7,4.4-10.4,6.2c-4,1.9-7.7,4.2-11.2,7c-2.2,1.7-3.8,3.9-6.3,5.3c-2.7,1.5-5.4,2.9-8.2,4.3c-2.4,1.2-5.3,2.5-7.1,4.5
		c-0.6,0.6-1.2,1.2-1.9,1.7c-0.6-0.3-1.3-0.6-1.9-0.9c-4.1-1.6-7.9-3.5-11.7-5.6c-0.6-0.3-1.2-0.7-1.8-1.1c2.3-1.4,4.5-2.9,6.7-4.3
		c3.1-1.9,6.4-3.2,9.4-5.1c3.4-2,6.6-4.3,9.9-6.4c1.8-1.1,3.7-2,5.2-3.5c0.8-0.8,1.6-1.6,2.4-2.4c2.2-1.9,5.1-3.3,7.7-4.6
		c3.3-1.8,6.7-3.4,10-5.2c3.9-2.2,7.6-4.4,11.3-6.8c0.1,0.1,0.3,0.1,0.4,0.1c3.5,1.2,7,2.1,10.4,3.5h0.1
		C94.5,77.4,95.9,77.9,97.3,78.6z"/>
	<path class="st0" d="M126.7,92.8c-3.5,2.3-6.9,4.8-10.1,7.4c-2.9,2.4-5.9,4.6-8.9,7c-3.3,2.6-6.3,5.3-10,7.5
		c-3.3,1.9-6.8,3.2-9.6,5.8c-2.4,2.3-3.9,5.2-6.7,7.2c-2.9,2.1-5.9,3.9-8.9,5.8c-1.8,1.1-3.6,2.3-5.4,3.5c-0.8-0.4-1.7-0.8-2.5-1.2
		c-2.8-1.5-5.7-2.9-8.7-4c-2.4-0.9-4.8-1.5-7-2.7c3.2-2.3,6.4-4.7,9.9-6.7c4-2.3,7.5-5,11-8c2.6-2.2,5.5-3.4,8.3-5.3
		c3-2.1,6.2-4,9-6.5c1.1-0.9,1.9-2.1,2.9-3c1.4-1.4,3-1.9,4.7-2.8c2.7-1.4,5.5-2.7,8-4.4c1.3-0.9,2.4-1.9,3.6-2.9
		c1.4-1.2,2.9-2.4,4.4-3.5c2.2,1,4.4,2.1,6.6,3.2c0.8,0.4,1.6,0.7,2.4,0.9C122.1,90.8,124.4,91.8,126.7,92.8z"/>
	<path class="st0" d="M158.3,106.4c-4.1,3-8.2,5.8-12.6,8.3c-3.8,2.1-7.7,4-11.3,6.6c-3.1,2.2-5.7,4.9-8.6,7.3
		c-2.9,2.5-6.2,4.6-9.4,6.7c-3.8,2.5-7.6,5.2-11.5,7.6c-3.3,2-6.7,3.8-10.2,5.5c-1.3,0.6-2.6,1.3-3.9,1.9l0,0
		c-0.7-0.6-1.4-1.2-2.2-1.6c-0.5-0.3-1.1-0.6-1.6-1c-0.7-0.4-1.4-0.8-2-1.2c-0.3-0.2-0.6-0.3-0.8-0.5c-0.1-0.1-0.3-0.1-0.4-0.2
		c-0.1-0.1-0.2-0.1-0.3-0.2l-0.1-0.1c-0.1-0.1-0.3-0.1-0.4-0.2c-0.1-0.1-0.3-0.1-0.4-0.2c-0.1-0.1-0.3-0.1-0.5-0.2
		c-0.1-0.1-0.3-0.1-0.4-0.2c-0.1-0.1-0.3-0.1-0.4-0.2c-0.3-0.1-0.5-0.3-0.8-0.4c-0.1-0.1-0.3-0.2-0.4-0.2c-0.2-0.1-0.4-0.2-0.6-0.4
		c1.1-0.6,2.2-1.1,3.4-1.8c3.1-1.8,5.2-4.6,8-6.8c2.7-2.1,5.8-3.3,8.6-5.1c2.9-1.8,5.8-3.8,8.8-5.4c6.8-3.7,11.7-9.7,18.3-13.7
		c5.4-3.3,10.8-6.7,16.4-9.8c0.4,0.1,0.8,0.3,1.1,0.4c1.2,0.4,2.5,0.8,3.7,1.2c0.4,0.1,0.8,0.3,1.2,0.4c0.8,0.3,1.5,0.5,2.3,0.8
		c0.6,0.2,1.1,0.4,1.7,0.6c0.2,0.1,0.4,0.1,0.6,0.2c1.5,0.6,3,1.1,4.5,1.6C158.2,106.4,158.3,106.4,158.3,106.4z"/>
	<path class="st0" d="M192.6,119.2c-0.2,0.5-0.6,1-1.2,1.1c-1.1,0.2-1.9,0.9-2.8,1.6c-0.5,0.4-0.9,0.8-1.5,1.1l0,0l0,0
		c0,0-0.1,0-0.1,0.1c-1,0.6-2,1.1-3,1.7s-2,1.2-3,1.8c-1,0.6-2,1.2-3,1.8s-2,1.2-2.9,1.8c-0.5,0.3-1.1,0.7-1.6,1
		c-0.6,0.3-1.1,0.7-1.6,1c-0.6,0.3-1.1,0.7-1.6,1c-0.2,0.2-0.5,0.3-0.7,0.5c-0.1,0.1-0.1,0.1-0.2,0.2c-0.1,0-0.1,0.1-0.2,0.1
		l-0.1,0.1c-0.1,0.1-0.2,0.2-0.4,0.2c-1,0.7-2,1.4-2.9,2.1c-0.1,0-0.1,0.1-0.2,0.1c-0.9,0.7-1.9,1.4-2.8,2.1
		c-0.1,0.1-0.2,0.1-0.3,0.2c-0.8,0.6-1.7,1.2-2.5,1.8c-0.5,0.3-0.9,0.7-1.4,1c0,0-0.1,0-0.1,0.1c-0.5,0.3-1,0.7-1.5,1
		c-0.3,0.2-0.5,0.3-0.8,0.5c-1.3,0.8-2.6,1.6-3.9,2.4c-1.9,1.2-3.9,2.5-5.8,3.7c-0.6,0.4-1.3,0.8-1.9,1.2c-1.3,0.8-2.6,1.6-3.9,2.4
		c-0.6,0.3-1.2,0.7-1.8,1l0,0c-0.4,0.2-0.8,0.4-1.2,0.7l0,0c-0.4,0.2-0.8,0.4-1.2,0.6c-0.2,0.1-0.4,0.2-0.6,0.3
		c-0.4,0.2-0.9,0.3-1.3,0.6c-0.4,0.2-0.8,0.4-1.2,0.7c-0.8,0.5-1.5,1-2.3,1.6c-0.1,0.1-0.3,0.2-0.4,0.3c-0.1,0.1-0.3,0.2-0.4,0.3
		c-0.2,0.2-0.4,0.3-0.7,0.5c-0.1,0.1-0.3,0.2-0.4,0.3c-0.2,0.1-0.4,0.3-0.6,0.4c-0.3,0.2-0.5,0.3-0.8,0.5c-0.2,0.1-0.4,0.2-0.7,0.3
		c-0.2,0.1-0.4,0.2-0.7,0.3c-0.2,0.1-0.5,0.2-0.7,0.3l0,0c-0.1,0-0.2,0.1-0.3,0.1c-0.1,0-0.2,0.1-0.3,0.1c-0.3,0.1-0.6,0.2-1,0.3
		c-0.2,0.1-0.4,0.1-0.6,0.2c-0.4,0.1-0.8,0.3-1.2,0.4c-0.4,0.2-0.8,0.3-1.2,0.5c-0.2,0.1-0.4,0.2-0.6,0.3s-0.4,0.2-0.6,0.3
		s-0.4,0.2-0.6,0.3c0,0,0,0-0.1,0l0,0c-0.2,0.1-0.3,0.2-0.5,0.3c-0.1,0-0.1,0.1-0.2,0.1s-0.1,0-0.2,0c-0.4,0.1-0.9,0-1.4-0.2
		c-0.1-0.1-0.3-0.1-0.4-0.2c-0.1-0.1-0.3-0.1-0.4-0.2c-0.2-0.1-0.4-0.2-0.6-0.2c-0.2-0.1-0.4-0.2-0.6-0.2c-0.2-0.1-0.4-0.2-0.6-0.2
		c-0.6-0.2-1.2-0.5-1.8-0.7c-0.4-0.2-0.8-0.3-1.2-0.5c-1.2-0.6-2.5-1.2-3.7-1.8s-2.4-1.2-3.7-1.9c1.6-1.2,3.1-2.4,4.7-3.6
		c4.4-3.2,9.2-5.5,13.7-8.4c4.2-2.7,8.4-5.5,12.5-8.4c3.2-2.2,6.6-4.6,10.1-6.2c2.5-1.2,5.2-2.2,7.7-3.6c2.4-1.4,4.5-3,6.7-4.7
		c2.6-2.1,5.4-4.1,8.2-5.9c1.4-0.9,2.8-1.8,4.2-2.7c1.1-0.7,2.2-1.6,3.2-2.6l0,0c0.4,0.1,0.9,0.2,1.3,0.3c0.4,0.1,0.8,0.2,1.1,0.3
		h0.1h0.1c0.4,0.1,0.8,0.2,1.3,0.3c0.4,0.1,0.9,0.2,1.3,0.2c0.3,0.1,0.6,0.1,0.8,0.1c0.1,0,0.2,0,0.3,0.1c0.3,0,0.6,0.1,0.9,0.1h0.1
		c0.4,0.1,0.7,0.1,1.1,0.2c0.1,0,0.2,0,0.3,0.1c0.1,0,0.3,0.1,0.4,0.1c0.2,0.1,0.4,0.1,0.6,0.2c0.2,0.1,0.4,0.1,0.6,0.2
		c0.4,0.1,0.8,0.3,1.3,0.4c0.4,0.1,0.8,0.3,1.2,0.5c0.2,0.1,0.4,0.2,0.6,0.2c0.2,0.1,0.4,0.2,0.6,0.3c0.6,0.3,1.2,0.5,1.8,0.8
		c0.2,0.1,0.4,0.2,0.6,0.3c0.2,0.1,0.4,0.2,0.6,0.3C192.8,117.8,193,118.3,192.6,119.2z"/>
	<path class="st1" d="M82,73.4c-3.7,2.4-7.4,4.6-11.3,6.8c-3.3,1.8-6.7,3.4-10,5.2c-2.6,1.4-5.5,2.7-7.7,4.6
		c-0.9,0.7-1.6,1.6-2.4,2.4c-1.5,1.4-3.4,2.4-5.2,3.5c-3.3,2.1-6.5,4.4-9.9,6.4c-3.1,1.8-6.4,3.2-9.4,5.1c-2.3,1.4-4.5,2.9-6.7,4.3
		c-0.7-0.5-1.4-1.1-2-1.7c-1.3-1.3-2.6-2.4-4.2-3.3c-0.5-0.2-0.9-0.6-1.2-0.9c-0.6-0.7-1.3-1.4-1.5-2.3c-0.2-0.8,0.2-1.3,0.7-1.7
		c1.8-1.5,3.8-2.7,6-3.7c1.9-0.9,3.9-1.7,5.8-2.5s3.6-1.8,5.2-3.1c2.7-2.1,5.7-3.9,8.8-5.4c1.4-0.7,2.9-1.4,4.3-2.2
		c3.7-2.2,7.5-4.4,11.2-6.6c2.3-1.3,4.5-2.5,6.7-4c1.4-1,2.9-1.8,4.4-2.6c1.4-0.7,2.9-1.4,4.2-2.4c2.1-1.6,4.2-1.7,6.4-0.3
		c0.5,0.3,1,0.5,1.5,0.8c1.4,0.6,2.7,1.3,3.9,2.3C80.3,72.6,81.2,73,82,73.4z"/>
	<path class="st1" d="M110.7,86c-1.5,1.1-2.9,2.3-4.4,3.5c-1.2,1-2.3,2-3.6,2.9c-2.5,1.7-5.3,3-8,4.4c-1.7,0.9-3.3,1.5-4.7,2.8
		c-1,1-1.9,2.1-2.9,3c-2.7,2.4-5.9,4.4-9,6.5c-2.8,1.9-5.7,3-8.3,5.3c-3.5,3-7,5.7-11,8c-3.4,2-6.6,4.4-9.9,6.7
		c-0.3-0.1-0.5-0.3-0.8-0.5c-2.8-1.7-5.6-3.3-8-5.5c-1.6-1.5-3.3-2.8-5.2-3.8c0.7-0.5,1.3-1.1,1.9-1.7c1.8-2,4.7-3.3,7.1-4.5
		c2.8-1.4,5.5-2.8,8.2-4.3c2.5-1.4,4.1-3.5,6.3-5.3c3.5-2.7,7.2-5,11.2-7c3.8-1.8,7-3.9,10.4-6.2c2.4-1.6,4.5-3.5,6.9-5
		c1.6-1.1,3.4-2.3,4.9-3.6c1.8-1.5,3.6-2.3,5.6-3.1c2,0.9,3.8,2,5.6,3.3c1.3,1,2.8,1.8,4.3,2.5C108.3,84.9,109.5,85.4,110.7,86z"/>
	<path class="st2" d="M52,108.7c-2.7,1.5-5.4,2.9-8.2,4.3c-2.4,1.2-5.3,2.5-7.1,4.5c-0.6,0.6-1.2,1.2-1.9,1.7
		c-0.6-0.3-1.3-0.6-1.9-0.9c-4.1-1.6-7.9-3.5-11.7-5.6c-0.6-0.3-1.2-0.7-1.8-1.1c2.3-1.4,4.5-2.9,6.7-4.3c3.1-1.9,6.4-3.2,9.4-5.1
		c3.4-2,6.6-4.3,9.9-6.4c1.8-1.1,3.7-2,5.2-3.5c0.8-0.8,1.6-1.6,2.4-2.4c2.2-1.9,5.1-3.3,7.7-4.6c3.3-1.8,6.7-3.4,10-5.2
		c3.9-2.2,7.6-4.4,11.3-6.8c0.1,0.1,0.3,0.1,0.4,0.1c3.5,1.2,7,2.1,10.4,3.5h0.1c1.5,0.4,2.9,0.9,4.3,1.6c-2,0.8-3.9,1.7-5.6,3.1
		c-1.5,1.3-3.2,2.5-4.9,3.6c-2.4,1.6-4.5,3.5-6.9,5c-3.5,2.3-6.7,4.4-10.4,6.2c-4,1.9-7.7,4.2-11.2,7
		C56.1,105.2,54.5,107.3,52,108.7z"/>
	<path class="st1" d="M147.8,102.6c-1.2-0.4-2.5-0.8-3.7-1.2c-0.4-0.1-0.8-0.3-1.1-0.4c-5.6,3.1-11,6.5-16.4,9.8
		c-6.6,4-11.6,10-18.3,13.7c-3,1.6-5.9,3.6-8.8,5.4c-2.9,1.8-5.9,3-8.6,5.1c-2.8,2.2-4.9,4.9-8,6.8c-1.1,0.7-2.2,1.2-3.4,1.8l0,0
		c-2.5-1.4-5.2-2.7-7.6-4.3c-1.4-0.9-3-1.7-4.5-2.4c1.8-1.2,3.6-2.4,5.4-3.5c3-1.9,6.1-3.7,8.9-5.8c2.8-2,4.3-4.9,6.7-7.2
		c2.8-2.6,6.3-3.9,9.6-5.8c3.7-2.1,6.7-4.8,10-7.5c3-2.4,6-4.5,8.9-7c3.1-2.7,6.6-5.1,10.1-7.4c1.6,0.8,3.2,1.6,4.8,2.4
		c2.4,1.2,4.7,2.6,7.1,3.8c1.4,0.8,2.9,1.5,4.4,2c0.4,0.1,0.8,0.3,1.1,0.4C145.3,101.8,146.6,102.2,147.8,102.6z"/>
	<path class="st2" d="M81.5,127.7c-2.9,2.1-5.9,3.9-8.9,5.8c-1.8,1.1-3.6,2.3-5.4,3.5c-0.8-0.4-1.7-0.8-2.5-1.2
		c-2.8-1.5-5.7-2.9-8.7-4c-2.4-0.9-4.8-1.5-7-2.7c3.2-2.3,6.4-4.7,9.9-6.7c4-2.3,7.5-5,11-8c2.6-2.2,5.5-3.4,8.3-5.3
		c3-2.1,6.2-4,9-6.5c1.1-0.9,1.9-2.1,2.9-3c1.4-1.4,3-1.9,4.7-2.8c2.7-1.4,5.5-2.7,8-4.4c1.3-0.9,2.4-1.9,3.6-2.9
		c1.4-1.2,2.9-2.4,4.4-3.5c2.2,1,4.4,2.1,6.6,3.2c0.8,0.4,1.6,0.7,2.4,0.9c2.4,0.7,4.7,1.7,7,2.8c-3.5,2.3-6.9,4.8-10.1,7.4
		c-2.9,2.4-5.9,4.6-8.9,7c-3.3,2.6-6.3,5.3-10,7.5c-3.3,1.9-6.8,3.2-9.6,5.8C85.8,122.8,84.3,125.7,81.5,127.7z"/>
	<path class="st1" d="M174.7,112.4c-1,1-2.1,1.9-3.2,2.6c-1.4,0.9-2.8,1.8-4.2,2.7c-2.8,1.8-5.5,3.8-8.2,5.9
		c-2.2,1.7-4.3,3.3-6.7,4.7c-2.4,1.4-5.1,2.4-7.7,3.6c-3.6,1.7-6.9,4-10.1,6.2c-4.1,2.9-8.3,5.7-12.5,8.4c-4.5,2.9-9.4,5.2-13.7,8.4
		c-1.6,1.2-3.2,2.4-4.7,3.6c-1.1-0.6-2.2-1.2-3.4-1.8c-2.7-1.4-5.3-2.9-7.6-4.8c-0.6-0.5-1.2-1-1.8-1.6c1.3-0.6,2.6-1.3,3.9-1.9
		c3.5-1.7,6.9-3.5,10.2-5.5c3.9-2.3,7.7-5.1,11.5-7.6c3.2-2.1,6.5-4.2,9.4-6.7c2.8-2.5,5.5-5.2,8.6-7.3c3.6-2.5,7.5-4.4,11.3-6.6
		c4.5-2.5,8.6-5.3,12.6-8.3c3.5,1.1,6.8,2.5,10.2,3.9C170.5,111.1,172.6,111.8,174.7,112.4z"/>
	<path class="st2" d="M104.9,142.9c-3.3,2-6.7,3.8-10.2,5.5c-1.3,0.6-2.6,1.3-3.9,1.9l0,0l0,0c-0.7-0.6-1.4-1.2-2.2-1.6
		c-0.5-0.3-1.1-0.6-1.6-1c-0.7-0.4-1.4-0.8-2-1.2c-0.3-0.2-0.6-0.3-0.8-0.5c-0.1-0.1-0.3-0.1-0.4-0.2c-0.1-0.1-0.2-0.1-0.3-0.2
		l-0.1-0.1c-0.1-0.1-0.3-0.1-0.4-0.2c-0.1-0.1-0.3-0.1-0.4-0.2c-0.1-0.1-0.3-0.1-0.5-0.2c-0.1-0.1-0.3-0.1-0.4-0.2
		c-0.1-0.1-0.3-0.1-0.4-0.2c-0.3-0.1-0.5-0.3-0.8-0.5c-0.1-0.1-0.3-0.2-0.4-0.2c-0.2-0.1-0.4-0.2-0.6-0.4c1.1-0.6,2.2-1.1,3.4-1.8
		c3.1-1.8,5.2-4.6,8-6.8c2.7-2.1,5.8-3.3,8.6-5.1c2.9-1.8,5.8-3.8,8.8-5.4c6.8-3.7,11.7-9.7,18.3-13.7c5.4-3.3,10.8-6.7,16.4-9.8
		c0.4,0.1,0.8,0.3,1.1,0.4c1.2,0.4,2.5,0.8,3.7,1.2c0.4,0.1,0.8,0.3,1.2,0.4c0.8,0.3,1.5,0.5,2.3,0.8c0.6,0.2,1.1,0.4,1.7,0.6
		c0.2,0.1,0.4,0.1,0.6,0.2c1.5,0.6,3,1.1,4.5,1.6c0.1,0,0.2,0.1,0.3,0.1c-4.1,3-8.2,5.8-12.6,8.3c-3.8,2.1-7.7,4-11.3,6.6
		c-3.1,2.2-5.7,4.9-8.6,7.3c-2.9,2.5-6.2,4.6-9.4,6.7C112.6,137.9,108.9,140.6,104.9,142.9z"/>
	<path class="st2" d="M193.7,119c0,1-2.6,2.1-3.9,2.7c-0.6,0.3-2,1-2.7,1.4l0,0l0,0H187c-1,0.6-2,1.1-3,1.7s-2,1.2-3,1.8
		c-1,0.6-2,1.2-3,1.8c-1,0.6-2,1.2-2.9,1.8c-0.5,0.3-1.1,0.7-1.6,1c-0.6,0.3-1.1,0.7-1.6,1c-0.6,0.3-1.1,0.7-1.6,1
		c-0.2,0.2-0.5,0.3-0.7,0.5c-0.1,0.1-0.1,0.1-0.2,0.2c-0.1,0-0.1,0.1-0.2,0.1l-0.1,0.1c-0.1,0.1-0.2,0.2-0.4,0.2
		c-1,0.7-2,1.4-2.9,2.1c-0.1,0-0.1,0.1-0.2,0.1c-0.9,0.7-1.9,1.4-2.8,2.1c-0.1,0.1-0.2,0.1-0.3,0.2c-0.8,0.6-1.7,1.2-2.5,1.8
		c-0.5,0.3-0.9,0.6-1.4,1c0,0-0.1,0-0.1,0.1c-0.5,0.3-1,0.7-1.5,1c-0.3,0.2-0.5,0.3-0.8,0.5c-1.3,0.8-2.6,1.6-3.9,2.4
		c-1.9,1.2-3.9,2.5-5.8,3.7c-0.6,0.4-1.3,0.8-1.9,1.2c-1.3,0.8-2.6,1.6-3.9,2.4c-0.6,0.3-1.2,0.7-1.8,1l0,0
		c-0.4,0.2-0.8,0.4-1.2,0.7l0,0c-0.4,0.2-0.8,0.4-1.2,0.6c-0.2,0.1-0.4,0.2-0.6,0.3c-0.4,0.2-0.9,0.3-1.3,0.6
		c-0.4,0.2-0.8,0.4-1.2,0.7c-0.8,0.5-1.5,1-2.3,1.6c-0.1,0.1-0.3,0.2-0.4,0.3c-0.1,0.1-0.3,0.2-0.4,0.3c-0.2,0.2-0.4,0.3-0.7,0.5
		c-0.1,0.1-0.3,0.2-0.4,0.3c-0.2,0.1-0.4,0.3-0.6,0.4c-0.3,0.2-0.5,0.3-0.8,0.5c-0.2,0.1-0.4,0.2-0.7,0.3c-0.2,0.1-0.4,0.2-0.7,0.3
		c-0.2,0.1-0.5,0.2-0.7,0.3l0,0c-0.1,0-0.2,0.1-0.3,0.1c-0.1,0-0.2,0.1-0.3,0.1c-0.3,0.1-0.6,0.2-1,0.3c-0.2,0.1-0.4,0.1-0.6,0.2
		c-0.4,0.1-0.8,0.3-1.2,0.4c-0.4,0.2-0.8,0.3-1.2,0.5c-0.2,0.1-0.4,0.2-0.6,0.3s-0.4,0.2-0.6,0.3s-0.4,0.2-0.6,0.3c0,0,0,0-0.1,0
		l0,0c-0.2,0.1-0.3,0.2-0.5,0.3c-0.1,0-0.1,0.1-0.2,0.1s-0.1,0-0.2,0c-0.4,0.1-0.9,0-1.4-0.2c-0.1-0.1-0.3-0.1-0.4-0.2
		c-0.1-0.1-0.3-0.1-0.4-0.2c-0.2-0.1-0.4-0.2-0.6-0.2c-0.2-0.1-0.4-0.2-0.6-0.2c-0.2-0.1-0.4-0.2-0.6-0.2c-0.6-0.2-1.2-0.5-1.8-0.7
		c-0.4-0.2-0.8-0.3-1.2-0.5c-1.2-0.6-2.5-1.2-3.7-1.8s-2.4-1.2-3.7-1.9c1.6-1.2,3.1-2.4,4.7-3.6c4.4-3.2,9.2-5.5,13.7-8.4
		c4.2-2.7,8.4-5.5,12.5-8.4c3.2-2.2,6.6-4.6,10.1-6.2c2.5-1.2,5.2-2.2,7.7-3.6c2.4-1.4,4.5-3,6.7-4.7c2.6-2.1,5.4-4.1,8.2-5.9
		c1.4-0.9,2.8-1.8,4.2-2.7c1.1-0.7,2.2-1.6,3.2-2.6l0,0l0,0c0.4,0.1,0.9,0.2,1.3,0.4c0.4,0.1,0.8,0.2,1.1,0.3h0.1h0.1
		c0.4,0.1,0.8,0.2,1.3,0.3c0.4,0.1,0.9,0.2,1.3,0.2c0.3,0.1,0.6,0.1,0.8,0.1c0.1,0,0.2,0,0.3,0.1c0.3,0,0.6,0.1,0.9,0.1h0.1
		c0.4,0.1,0.7,0.1,1.1,0.2c0.1,0,0.2,0,0.3,0.1c0.1,0,0.3,0.1,0.4,0.1c0.2,0.1,0.4,0.1,0.6,0.2c0.2,0.1,0.4,0.1,0.6,0.2
		c0.4,0.1,0.8,0.3,1.3,0.4c0.4,0.1,0.8,0.3,1.2,0.5c0.2,0.1,0.4,0.2,0.6,0.2c0.2,0.1,0.4,0.2,0.6,0.3c0.6,0.3,1.2,0.5,1.8,0.8
		c0.2,0.1,0.4,0.2,0.6,0.3c0.2,0.1,0.4,0.2,0.6,0.3C192.8,117.8,193.7,118,193.7,119z"/>
</g>
</svg>
