<?xml version="1.0" encoding="utf-8"?>
<!-- Generator: Adobe Illustrator 23.0.3, SVG Export Plug-In . SVG Version: 6.00 Build 0)  -->
<svg version="1.1" id="Calque_1" xmlns="http://www.w3.org/2000/svg" xmlns:xlink="http://www.w3.org/1999/xlink" x="0px" y="0px"
	 viewBox="0 0 295.5 268.3" style="enable-background:new 0 0 295.5 268.3;" xml:space="preserve">
<style type="text/css">
	.st0{opacity:0.5;}
	.st1{stroke:#000000;stroke-width:3;stroke-linecap:round;stroke-linejoin:round;}
	.st2{fill:#FFE6B4;stroke:#000000;stroke-width:3;stroke-linecap:round;stroke-linejoin:round;}
	.st3{fill:#F1F1F1;stroke:#000000;stroke-width:3;stroke-linecap:round;stroke-linejoin:round;}
	.st4{fill:none;stroke:#000000;stroke-width:3;stroke-linecap:round;stroke-linejoin:round;}
</style>
<title>OELP_umbrella_mouette_ombreFichier 9</title>
<g>
	<g id="Calque_1-2">
		<g class="st0">
			<path class="st1" d="M250.1,220.3c13.5-1,21.9-0.1,40.7-2.7c1.7-0.3,3,0.9,1.9,1.7c-13.1,9.8-23.6,11.8-35.8,19
				c-0.9,0.5-1.6,1.2-2.2,2c-1.7,2.9,2.3,4.5,5.9,5.8l7,2.4c3.9,1.3,2.6,4.6-1.9,4.9c-23.5,1.5-47,4.1-70.2,7.9
				c-10.1,1.7-20.1,3.6-30.4,4.8c-34.2,3.9-69.7-0.7-103.6-4.7c-6.2-0.6-12.3-2.2-18-4.8c-35.4-16.6,46.9-31.2,64.9-33.7
				C154.7,216.4,202.9,223.6,250.1,220.3z"/>
		</g>
		<path class="st2" d="M226.5,241.3c-0.4,0.7-1.2,1.1-2,0.8c-1.2-0.3-2.4-0.8-3.4-1.4c-1.4-0.6-2.8-2.2-4.3,0c-0.4,0.6-1,0.4-1.6,0
			c-1.4-0.7-2.8-1.5-4.1-2.4c-5.8-4.9-13.3-7.3-20.9-6.7c-2,0.2-2.6-1.2-2.6-3c0-3.2,1.2-6.3,2.2-9.3c2.8-8.1,1.2-15.8-1.4-23.5
			c-1.2-3.4-1.8-7.3-4.9-9.7c-1-0.8-0.6-2.2,0-3.2c0.2-0.4,0.6-0.8,0.8-1.2c1.4-2.4,1.4-4.3-0.2-5.1c5,0.2,9.9-0.2,14.8-1.2
			c-0.6,3.2-0.2,7.1,1.4,9.5c1.2,1.6,1.4,3.2,0,4.5c-2.2,1.8-1.8,3.9-1.8,6.5c0,6.9,2.2,13.4,2.2,20.3c0,3.4,2,5.9,4.3,7.9
			c5.1,4.5,11.4,7.3,16.6,11.6c1.6,1.3,3.1,2.7,4.5,4.3C226.6,240.1,226.7,240.7,226.5,241.3z"/>
		<path class="st2" d="M295,32c-9.2-5.5-19.8-8.1-30.4-7.5c2.5-1.7,4.5-4.1,5.7-6.9c1.6-0.1,3.2-0.1,4.9,0c5.7,0.4,11,1.4,15.2,5.5
			c2.5,2.2,4.1,5.1,4.7,8.3C294.8,31.6,295,31.9,295,32z"/>
		<path class="st2" d="M291.8,34.1c-5.1-1.3-10.3-2.1-15.6-2.4c-3,0-5.7-0.2-8.3-0.2c-0.8-2.4-2.2-4.6-4.1-6.4
			c0.2-0.2,0.4-0.2,0.6-0.4l0,0c10.7-0.7,21.3,1.9,30.4,7.5C295,34.3,294,34.7,291.8,34.1z"/>
		<path class="st3" d="M251,40.4c-1.5,1.5-2,3.7-1.2,5.6c1.8,5.1,5.1,9.3,6.5,14.4c2.4,7.9,5.9,15.6,6.1,24.1
			c0.2,7.1,0.8,14.2-0.6,21.3c-1.4,7.5-3.5,15-7.3,21.5c-3.5,5.9-7.9,11.3-13,16c-8.7,7.9-19.1,13.4-29.2,19.7
			c-4.2,2.6-9.7,4-12.4,9.1c-0.5,1-0.9,2.1-1.2,3.2c-4.9,1-9.8,1.4-14.8,1.2l0,0c-0.8-0.4-1.6-0.7-2.4-0.8c-1-0.2-1.8-0.2-2.8-0.4
			c-0.9-0.1-1.9-0.1-2.8,0c-2,0-3.9,0.2-5.9,0.6c-4.5,1-8.9,0-13.4-0.8c-7.9-1.8-15.8-1.6-23.5-3.6c-6.4-1.8-12.9-2.9-19.5-3.4
			c-2-0.2-4,0-5.9,0.4c-12.4,3-24.9,5.9-37.3,9.1c-10.8,2.8-21.7,5.5-32.6,7.9c-5.7,1.2-11.4,3.2-17.2,3.9c-1.2,0.2-2.5,0-3.6-0.4
			c-1.4-0.6-3.4-0.8-3.6-2.8c-0.2-1.8,1.6-2,2.6-3l-6.5-1.2c-1.6-0.4-3.2-1-3.8-2.8s1.5-2.6,2.7-4c-1.6-0.2-3-0.4-4.5-0.6
			c-1.4-0.1-2.6-1.1-3-2.4c-0.4-1.4,0.2-2.4,1.2-3.4c1.4-1.6,3.4-2.2,5.3-3.2c7.9-3.5,16-6.4,24.3-8.7c9.1-2.6,18-6.1,27.6-7.7
			c4.6-0.8,9.1-2.5,13-5.1c-0.5,1-0.5,2.2-0.2,3.2c1.2,2.6,4.9,2.4,7.7,1.8c8-2,15.9-4.7,23.3-8.3c-1.4,1.8-3.9,2.6-5.9,3.9
			s-3.7,3.9-2.4,5.9s4.3,1.8,6.5,1.2c10.3-2.7,20.3-6.8,29.4-12.4c14.6-9.1,25.1-16.4,36.1-27h-0.8c-3.6-0.4-8.1-2.2-8.5-6.1
			c-4.4,3.5-10,5.2-15.6,4.9c-3.3-0.2-6.4-1.1-9.3-2.6c0.4-0.2,0.6-0.4,1-0.6c9.9-6.9,20.3-13.8,32.6-16.4
			c5.9-1.2,11.4-4.1,16.6-6.7c7.3-3.6,14.2-8,20.7-13c6.1-4.7,7.5-10.3,6.1-17.4c-1-4.9-2.2-9.9-2.4-15c-0.4-8.5,0-17,5.3-24.1
			c4.9-6.5,10.5-12.7,19.2-14.2c8.1-1.2,15.2,1,21.7,5.7c4.5,3.2,8.7,6.9,13.4,9.9c1.1,0.7,2.4,1.1,3.6,1c-1.2,2.8-3.2,5.1-5.7,6.9
			l0,0c-0.2,0.2-0.4,0.2-0.6,0.4c1.8,1.9,3.1,4.1,4,6.5c-3.3-0.1-6.5,0.9-9.1,2.8C256.1,36.1,253,37.7,251,40.4z"/>
		<path class="st1" d="M166.9,112.3c-11.1,10.6-21.7,17.8-36.1,27c-9.1,5.7-19,9.9-29.4,12.4c-2.2,0.6-5.3,0.8-6.5-1.2
			s0.4-4.7,2.4-5.9s4.5-2,5.9-3.9c-7.5,3.4-15.3,6.2-23.3,8.3c-2.8,0.6-6.5,0.8-7.7-1.8c-0.4-1-0.3-2.2,0.2-3.2
			c1.4-0.8,2.8-1.8,4.2-2.8c9.5-6.7,19.9-11.8,30-17.2c9-4.6,17.6-9.8,26-15.4c2.9,1.6,6.1,2.5,9.3,2.6c5.6,0.4,11.2-1.3,15.6-4.9
			c0.4,3.7,4.7,5.7,8.5,6.1L166.9,112.3z"/>
		<path class="st4" d="M166.9,112.3c8.1,0.6,15.9-2.6,21.3-8.7c1.2-1.2,2.6-2.8,4.3-2.4c1.2,0.2,1.8,1.4,2.8,2
			c1.6,1.2,3.9,1.2,5.9,1c8.7-1.6,15.9-9.5,16.2-18.2"/>
		<path class="st4" d="M246.1,16.2c-1.2-1.6-2.9-2.7-4.9-3c-1.9-0.4-3.9-0.2-5.7,0.8"/>
		<path class="st4" d="M242.7,15.2c0.1,0.9-0.4,1.7-1.2,2c-0.9,0.3-1.9-0.1-2.2-1c-0.3-0.9,0.3-1.9,1.2-2.2c0.8-0.2,1.7,0.4,1.8,1.2
			c0,0.1,0,0.3,0,0.4"/>
		<path class="st2" d="M189.8,219.4c-1,3-2.2,6.1-2.2,9.3c-5.5-3.2-7.3-7.9-6.5-14.4s2.6-13.2,0.4-19.3c-1-2.6-2.8-4.9-3.6-7.5
			c-1-2.7-1.6-5.6-1.8-8.6c-0.1-1.3-0.1-2.6,0.2-3.9h2.8c1,0,1.9,0.2,2.8,0.4c0.9,0.1,1.7,0.4,2.4,0.8l0,0c1.6,1,1.8,2.6,0.2,5.1
			c-0.2,0.4-0.6,0.8-0.8,1.2c-0.6,1-1,2.4,0,3.2c3.2,2.4,3.6,6.3,4.9,9.7C191,203.6,192.6,211.3,189.8,219.4z"/>
	</g>
</g>
</svg>
