<?xml version="1.0" encoding="utf-8"?>
<!-- Generator: Adobe Illustrator 27.5.0, SVG Export Plug-In . SVG Version: 6.00 Build 0)  -->
<svg version="1.1" id="Calque_1" xmlns="http://www.w3.org/2000/svg" xmlns:xlink="http://www.w3.org/1999/xlink" x="0px" y="0px"
	 viewBox="0 0 295.1 200" style="enable-background:new 0 0 295.1 200;" xml:space="preserve">
<style type="text/css">
	.st0{fill:#F1F1F1;stroke:#000000;stroke-width:1.3145;stroke-linecap:round;stroke-linejoin:round;stroke-miterlimit:10;}
	.st1{fill:none;stroke:#000000;stroke-width:1.3145;stroke-linecap:round;stroke-linejoin:round;stroke-miterlimit:10;}
	.st2{stroke:#000000;stroke-width:1.3145;stroke-linecap:round;stroke-linejoin:round;stroke-miterlimit:10;}
	.st3{fill:#FF868B;stroke:#000000;stroke-width:1.3145;stroke-linecap:round;stroke-linejoin:round;stroke-miterlimit:10;}
</style>
<g>
	<path class="st0" d="M80.4,114.4c-1.5-0.5-3-1-4.5-1.6C77.4,113.3,78.9,113.9,80.4,114.4z"/>
	<path class="st0" d="M117.5,127.2c-1.8-0.5-3.6-1-5.4-1.6c-1.1-0.4-2.2-0.9-3.3-1.3C112,125.3,115.6,126.5,117.5,127.2z"/>
	<path class="st0" d="M142.6,135.6c-0.2-0.1-0.3-0.1-0.4-0.2c-1.4-0.5-2.8-1.1-4.1-1.7C139.6,134.3,141.1,135,142.6,135.6z"/>
	<path class="st0" d="M215.3,159c-0.5-0.2-1-0.4-1.5-0.5C214.3,158.6,214.8,158.8,215.3,159z"/>
	<path class="st1" d="M19.2,91.1C19.2,91.1,19.1,91.1,19.2,91.1"/>
	<path class="st1" d="M64.6,83.3c-0.8,0.1-1.6,0.2-2.4,0.3"/>
	<path class="st1" d="M21.9,95.2c0,0-0.1,0-0.1,0"/>
	<path class="st1" d="M26.3,94.5c0,0-0.1,0-0.1,0"/>
	<path class="st0" d="M189.6,134.4c-0.1,0-0.2,0.1-0.2,0.1c-0.4-0.4-1-0.9-1.7-1.2c0,0,0.1,0,0.1,0
		C188.4,133.5,189.1,133.9,189.6,134.4z"/>
	<path class="st2" d="M216.6,119.7C216.6,119.7,216.7,119.7,216.6,119.7C216.7,119.7,216.6,119.7,216.6,119.7c0,0-0.1,0.2-0.1,0.2
		c0,0.1-0.1,0.2-0.3,0.3c-0.2,0.2-0.3,0.3-0.4,0.4c-0.5,0.4-1.1,0.7-1.7,1c-0.4,0.2-1.4,0.9-1.4,0.9l-12.8-1.4
		c3.2-0.6,3.8-0.6,7.2-1.2c1.7-0.2,3.3-0.6,5.2-0.7c0.8,0,3.2-0.2,4.1,0.1C216.5,119.4,216.6,119.6,216.6,119.7z"/>
	<path class="st3" d="M80.4,114.4c-1.5-0.5-3-1-4.5-1.6C77.4,113.3,78.9,113.9,80.4,114.4z"/>
	<path class="st3" d="M117.5,127.2c-1.8-0.5-3.6-1-5.4-1.6c-1.1-0.4-2.2-0.9-3.3-1.3C112,125.3,115.6,126.5,117.5,127.2z"/>
	<path class="st3" d="M142.6,135.6c-0.2-0.1-0.3-0.1-0.4-0.2c-1.4-0.5-2.8-1.1-4.1-1.7C139.6,134.3,141.1,135,142.6,135.6z"/>
	<path class="st3" d="M189.6,134.4c-0.1,0-0.2,0.1-0.2,0.1c-0.4-0.4-1-0.9-1.7-1.2c0,0,0.1,0,0.1,0
		C188.4,133.5,189.1,133.9,189.6,134.4z"/>
	<path class="st3" d="M196,121.7c-1.3,0.2-2.7,0.1-4,0.2c-1.3,0.1-2.7,0.2-4,0.2c0,0,0,0-0.1,0c0.1,0,0.2,0,0.3,0
		c1.3,0,2.7-0.2,4-0.2C193.5,121.8,194.8,121.8,196,121.7z"/>
	<path class="st2" d="M133.2,135.5c-1.3-0.1-2.4-0.2-3.3-0.3c-1.2-0.1-2.6-0.2-3.9-0.3c-1.7-0.2-3.4-0.3-5.2-0.5
		c-2-0.2-4.3-0.8-6.7-1.4l0,0c-1.8-0.5-3.6-1-5.2-1.5c-3.9-1.3-8-2.1-12-3.3c-8.1-2.4-15.8-5.5-23.3-8.6c-1.7-0.7-3.3-1.4-4.9-2.1
		c-0.4-0.2-0.7-0.3-1.1-0.5l0,0c-0.4-0.3-0.7-0.7-1.1-1c-0.4-0.4-0.6-0.8-0.9-1.2c-0.3-0.3-0.5-0.5-0.5-0.8c0-0.2,0-0.3-0.1-0.5
		c0.2,0.1,0.4,0.1,0.7,0.2c2,0.6,4.1,1.1,6.1,1.7c2.3,0.7,4.5,1.6,6.9,2.2c2.1,0.6,4,1.2,6,1.9c2.5,0.8,5.3,1.5,7.7,2.4
		c3.4,1.3,7,2.3,10.4,3.5c2,0.7,4.1,1.2,5.9,1.9c1.3,0.5,2.6,1,4,1.5c2.3,0.7,4.5,1.6,6.9,2.3c1.5,0.5,2.9,0.9,4.4,1.5
		c1.7,0.6,3.5,1,5.2,1.5C130.5,134.5,131.8,135,133.2,135.5z"/>
	<path class="st2" d="M267.6,142.8c-1.7-0.8-3.9-1.4-5.8-2c-2.4-0.9-17.7-4.1-20.1-5c-2.7-0.9-5.5-1.6-8.2-2.6c-3-1-6-2-9.1-2.9
		c-1.9-0.6-3.8-1.3-5.7-1.9c-0.9-0.3-1.7-0.4-2.6-0.7c-1.5-0.4-3.1-1.1-4.5-1.6c-1.2-0.4-2.5-0.8-3.7-1.1c-0.9,0.6-1.5,1.3-2.6,1.9
		c0,0,0,0,0,0c2.3,0.9,4.8,1.9,6,2.2c3.1,0.9,5.9,2.2,9,3.2c2.1,0.7,4.4,1.4,6.4,2.1c0.9,0.3,1.9,0.7,2.8,1c1,0.4,2.3,1,3.5,1.4
		c0,0,0,0,0,0c-0.7,1-2.6,1.6-3.8,2.4c-1.8,1.1-2.9,2.6-4.4,3.8c-1.1,0.8-2.3,1.7-3.5,2.4c-1.4,0.9-2.4,1.9-3.3,2.9
		c-0.9,1.1-2.5,1.9-3.9,2.8c-1.4,0.9-2.2,2.1-3.4,3.1c-0.5,0.4-1,0.7-1.6,1c-0.6,0.3-1.1,0.6-1.6,1c-7.6-2.4-14.8-4.5-22.3-7.2
		c-8.1-2.9-16.2-5.7-24.6-8.1c-0.7-0.2-1.3-0.4-2-0.6c3.4-0.4,6.8-0.7,10.2-1c4.7-0.4,8.8-1.4,13.8-1.6c2.6-0.1,5.4-0.4,7-1.2
		c0.6-0.3,1-0.8,0.9-1.3c0-0.2-0.2-0.4-0.4-0.6c-0.1-0.1-0.2-0.2-0.3-0.3c-0.1,0-0.2,0.1-0.2,0.1c-0.4-0.4-1-0.9-1.7-1.2
		c0,0,0.1,0,0.1,0c0.7,0.2,1.4,0.7,1.9,1.1c2.1-0.9,4.7-2,5.9-2.7c1.1-0.7,2.3-1.4,3.6-2c1.1-0.5,1.9-1.2,3.2-1.6
		c0.9-0.3,1.4-0.8,2.2-1.2c0,0,0.1-0.1,0.2-0.1c0,0,0.1-0.1,0.1-0.1c0,0,0,0,0,0c1.1-0.5,1.7-1.3,2.6-1.9l0,0
		c0.3-0.2,0.7-0.4,1.1-0.6c1.1-0.5,3.8-1.5,4.2-1.8l-12.8-1.4c-0.1,0-0.1,0-0.2,0c-0.2,0-2.1,0.3-3,0.5c-0.1,0-0.2,0-0.3,0.1
		c-0.1,0-0.1,0-0.2,0l-0.1,0c-1.3,0.2-2.7,0.1-4,0.2c-1.3,0.1-2.7,0.2-4,0.2c0,0,0,0-0.1,0c0,0-0.1,0-0.1,0
		c-2.7,0.1-5.7-0.1-8.4-0.1c-2.1,0-4.3-0.1-6.4-0.2c-2.7,0-5.4-0.2-8.3-0.5c-2.5-0.2-5-0.4-7.6-0.9c-2.6-0.5-5.4-1.1-7.9-1.5
		c-2.3-0.3-4.8-0.7-7.1-1.5c-2.4-0.9-5-1.6-7.5-2.5c-2.2-0.8-4.3-1.7-6.5-2.5c-1.7-0.7-3.4-1.1-5.2-1.8c-1.2-0.5-2.1-1.1-3.2-1.6
		c-0.3-0.1-0.6-0.3-0.9-0.4c0,0-0.1,0-0.1,0c-0.7-0.3-1.4-0.5-2-0.8c-1.2-0.6-2.4-1.1-3.6-1.6c0,0-0.1,0-0.1,0
		c-0.2-0.1-0.4-0.2-0.6-0.3c-3.1-1.3-5.9-2.7-9-4c-3.1-1.3-5.9-2.8-9.1-4.1c-1.8-0.7-3.5-1.4-5.2-2.2c-1.2-0.6-2.8-1.1-3.9-1.7
		c-2.4-1.3-4.6-2.7-7-4.1c-2.4-1.4-5.1-2.7-8-3.7c0,0,0,0,0,0c0,0,0,0-0.1,0c-0.1,0-0.3-0.1-0.4-0.1c-0.2-0.1-0.3-0.1-0.4-0.2
		c-0.3-0.1-0.6-0.2-0.9-0.3c-0.3-0.1-0.6-0.2-0.8-0.3c-0.3-0.1-0.6-0.2-0.9-0.3c0,0-0.1,0-0.1,0c-0.1,0-0.1,0-0.2-0.1
		c-0.1,0-0.2-0.1-0.3-0.1c-0.2-0.1-0.3-0.1-0.5-0.2c0,0-0.1,0-0.1,0c-0.9-0.3-1.9-0.6-2.9-0.8c-0.3-0.1-0.5-0.1-0.8-0.2
		c-7.6,0.9-14.9,1.9-22.1,3.1c-3.3,0.5-6.3,1.2-9.2,1.9c-1.9,0.4-3.9,0.8-5.7,1.2c-1.8,0.5-3.4,1-5.5,1.3c-0.1,0-0.2,0-0.3,0
		c0.2,0.1,0.3,0.1,0.5,0.2c-0.6,0.1-1.2,0.1-1.7,0.1c-1.2,0.1-3.6,0.6-5.3,1c-1.4-0.4-2.7-0.8-3.4-1c-0.8-0.2-2.8-0.7-3.4-0.5
		c-0.4,0.1-0.5,0.3-0.6,0.5c-0.3,0.7,0,1,1,1.8c0.8,0.7,1.4,0.9,2.5,1.5c0.9,0.5,1.9,0.9,3.1,1.3c3.1,1.1,6.3,2.4,9.4,3.4
		c3.8,1.2,7.8,2.3,11.6,3.6c4.4,1.5,8.7,3,13,4.5c2.5,0.8,8,1.8,9.9,3.1c0.1,0.1,0.2,0.2,0.3,0.3c0.8,0.7,1.4,1.3,2,2
		c0.6,0.6,1.2,1.3,1.7,1.9c0.6,0.7,1.5,1.4,2.1,2c0.6,0.7,0.9,1.4,1.6,2.1c0.6,0.6,1.3,1.2,1.9,1.8c0.7,0.6,1.3,1.2,2,1.8
		c0.9,0.8,1.2,1.5,1.7,2.2c1,1.4,2.6,2.9,4,4.2c0.6,0.6,1.2,1.2,1.8,1.8c0.8,0.9,1.4,1.8,2.2,2.7c1.3,1.5,2.9,3.1,4.4,4.7
		c0.7,0.7,1.4,1.4,2.3,2.1c0.8,0.6,1.8,1.2,2.2,1.9c0.4,0.5,0.6,1,1.1,1.5c0,0.1,0.1,0.1,0.1,0.2c0.4,0.5,1.1,1.4,1.4,1.7
		c0,0,0,0,0,0.1c0.5,0.6,1.1,1.9,2.7,2.3c1,0.3,2.4-0.1,2.7-0.4c0.5-0.4,0.1-1.1,0-1.7c0,0,0,0,0,0c1.6-0.2,3.2-0.4,4.9-0.5
		c1,0,2,0,2.9,0c1.1,0,2-0.2,3.1-0.3c2.4-0.1,4.9-0.3,7.3-0.4c2.2-0.1,8.2-0.7,10.5-0.8c4.9-0.2,5.9-0.3,10.8-0.6
		c6.1-0.4,12.3-0.7,17.9-1.4c-0.7-0.2-1.4-0.5-2.1-0.7c-1.3-0.5-2.7-1-4-1.5c-0.5-0.2-0.9-0.3-1.4-0.5c3.5,1.1,6.6,2,14.3,4.6
		c18.3,6.4,21.7,7.3,26.7,9.1c8.3,3,17.9,5.9,26.2,8.8c3.3,1.2,8.1,3,11.8,4c3.4,1,5.5-0.5,2.7-1.9c-1.9-1-8.8-4-9.9-4.4
		c-0.5-0.2-1-0.4-1.5-0.5c0.5,0.2,1,0.4,1.5,0.5c0.2-0.2,0.5-0.3,0.8-0.5c0.5-0.2,0.9-0.5,1.4-0.7c0.8-0.4,1-1,1.5-1.6
		c0.3-0.4,0.9-0.7,1.3-1.1c0.9-0.8,2.1-1.4,2.9-2.3c1-1.1,2.5-2.1,3.7-3.1c1.3-1.1,3.3-1.8,4.5-2.9c0.9-0.8,1.5-1.6,2.5-2.4
		c0.5-0.4,1.1-0.8,1.6-1.2c1-0.8,2.5-1.3,3.3-2.2c0.4-0.4,0.8-0.8,1.1-1.2c1.5,0.5,15.8,3.5,17.3,4c1.4,0.5,3.1,0.7,4.5,1.1
		c3,0.8,5.3,1.5,7.7,1C271.7,145.6,269.9,143.9,267.6,142.8z M34.3,99.2c-1.6-0.6-4.3-1.4-6-1.9c-2.2-0.6-4.3-1.4-6.4-2.1
		c1.4-0.2,2.9-0.4,4.3-0.7c0.4,0.2,0.8,0.4,1.2,0.6c1.4,0.8,2.9,1.6,4.3,2.4c1,0.6,1.9,1.1,2.8,1.7c0.7,0.3,1.5,0.5,2.2,0.7
		c1.7,0.6,3.4,1,5.1,1.6c2.2,0.7,4.4,1.6,6.6,2.2c4.2,1.1,8.2,2.5,12.1,4c2.5,0.9,5.1,1.7,7.7,2.5c2.5,0.7,4.9,1.6,7.3,2.5
		c0.1,0,0.2,0.1,0.4,0.1c1.6,0.5,3,1,4.5,1.6c0.8,0.3,1.6,0.5,2.4,0.8c1.1,0.4,2.3,0.8,3.4,1.2c1.2,0.4,2.5,0.7,3.6,1.1
		c4,1.4,7.8,2.9,11.8,4.3c1.8,0.6,3.7,1.1,5.5,1.8c0.6,0.2,1.1,0.4,1.7,0.7c3.2,1.1,6.8,2.3,8.7,2.9c-1.8-0.5-3.6-1-5.4-1.6
		c-1.1-0.4-2.2-0.9-3.3-1.3c-3.1-1-5.9-2-6.7-2.2c-4-1.3-7.8-2.9-11.8-4.3c-1.1-0.4-2.4-0.7-3.6-1.1c-2.2-0.7-4.2-1.5-6.3-2.3
		c-1.5-0.5-3-1-4.5-1.6c-0.1,0-0.3-0.1-0.5-0.1c-4.8-1.5-9.5-3-14.2-4.5C52.1,105.3,43.1,102.4,34.3,99.2z M140.5,138.5
		c-2.1,0.3-4.4,0.5-6.6,0.6c-2.1,0.2-4,0.5-6.2,0.6c-9.8,0.5-19.2,1.4-28.2,2.6c-1.1,0.1-2.2,0.3-3.3,0.5c5.7-3,13.1-6.8,17.9-9.8
		c-1.8-0.5-3.6-1-5.2-1.5c-5.8,2.9-13.3,6.8-19.1,9.7c-1-0.9-2-1.9-2.9-2.8c-1.5-1.6-2.7-3.3-4.4-4.9c-1.7-1.6-2.9-3.3-4.6-4.9
		c-0.8-0.7-1.4-1.4-2.1-2.1c-0.9-1-2.1-2-2.6-2.9c-0.7-1.2-2.1-2.4-3.1-3.6c-0.5-0.6-1.2-1.1-1.5-1.6c-0.3-0.4-0.6-0.8-1.1-1.2l0,0
		c-0.4-0.3-0.7-0.7-1.1-1c-0.4-0.4-0.6-0.8-0.9-1.2c-0.3-0.3-0.5-0.5-0.5-0.8c0-0.2,0-0.3-0.1-0.5c0.2,0.1,0.4,0.1,0.7,0.2
		c2,0.6,4.1,1.1,6.1,1.7c2.3,0.7,4.5,1.6,6.9,2.2c2.1,0.6,4,1.2,6,1.9c2.5,0.8,5.3,1.5,7.7,2.4c3.4,1.3,7,2.3,10.4,3.5
		c2,0.7,4.1,1.2,5.9,1.9c1.3,0.5,2.6,1,4,1.5c2.3,0.7,4.5,1.6,6.9,2.3c1.5,0.5,2.9,0.9,4.4,1.5c1.7,0.6,3.5,1,5.2,1.5
		c1.4,0.4,2.7,0.9,4.1,1.3c0.1,0,0.3,0.1,0.4,0.1c1.8,0.6,3.4,1.2,5.2,1.7c1,0.3,2.1,0.7,3.1,1C141.5,138.4,141,138.4,140.5,138.5z
		 M125.5,129.6c-2.3-0.7-4.5-1.3-6.8-2c-0.2-0.1-0.6-0.2-1.2-0.4c0.2,0.1,0.4,0.1,0.6,0.2c2.2,0.7,4.5,1.3,6.8,2
		c4,1.2,7.9,2.5,11.8,3.9c0.2,0.1,0.3,0.1,0.5,0.2C133.3,132,129.4,130.7,125.5,129.6z M142.2,135.4c-1.4-0.5-2.8-1.1-4.1-1.7
		c1.5,0.6,3,1.2,4.6,1.8C142.5,135.5,142.3,135.5,142.2,135.4z"/>
	<path class="st2" d="M196.7,121.6c-0.1,0-0.2,0-0.3,0.1c-0.1,0-0.1,0-0.2,0l-0.1,0c-1.2,0.1-2.5,0.1-3.8,0.1
		c-1.3,0.1-2.7,0.2-4,0.2c-0.1,0-0.2,0-0.3,0c-2-0.6-4.1-1.2-6.2-1.7c-5.3-1.5-10.5-3.2-15.7-4.7c-1.6-0.5-3.2-1.1-4.8-1.6
		c-1.8-0.6-3.6-1.1-5.3-1.7c-2.4-0.8-4.5-1.7-6.9-2.5c-5.5-1.7-10.9-3.4-16.4-5.1c-2.5-0.7-4.9-1.6-7.3-2.5
		c-2.8-0.9-5.6-1.9-8.5-2.8c-0.1,0-0.3-0.1-0.4-0.1c-0.3-0.1-0.5-0.1-0.7-0.2c-1.6-0.5-3.5-1.2-5.2-1.7l0,0l0,0
		c-0.3-0.1-0.5-0.2-0.8-0.2c-0.9-0.3-1.9-0.5-2.8-0.8c-3.6-1-7.1-2.5-10.8-3.4c-2.8-0.7-5.4-1.6-8.1-2.5c-2.5-0.8-5.1-1.5-7.7-2.3
		c-1.9-0.6-5.4-1.8-8.2-2.7c-0.7,0.2-1.1,0.4-1.8,0.5c0,0,0,0,0,0c0,0,0,0-0.1,0c-0.1,0-0.3-0.1-0.4-0.1c-0.2-0.1-0.3-0.1-0.4-0.2
		c-0.3-0.1-0.6-0.2-0.9-0.3c-0.3-0.1-0.6-0.2-0.8-0.3c-0.3-0.1-0.6-0.2-0.9-0.3c0,0-0.1,0-0.1,0c-0.1,0-0.1,0-0.2-0.1
		c-0.1,0-0.2-0.1-0.3-0.1c-0.5-0.2-1-0.4-1-0.4c-0.3-0.2-0.2-0.2-0.5-0.5c0,0-0.2-0.1-0.3-0.3c-0.1-0.1-0.2-0.2-0.3-0.2
		c-0.5-0.4-1-0.9-1.4-1.4c-0.8-0.8-0.4-1.6,1.2-1.6c0,0,0,0,0,0c1.2,0,1.8,0,3.1,0.3c1.6,0.4,3,0.7,4.6,1.2c1.7,0.5,3.4,1.1,5.1,1.6
		c6.3,2.1,12.7,4.2,18.9,6.5c4.4,1.6,8.8,3.1,13.3,4.6c1.2,0.4,2.5,0.9,3.8,1.3c0.9,0.3,1.8,0.6,2.6,0.8c0.3,0.1,0.5,0.1,0.8,0.2
		c0.5,0.1,1,0.2,1.5,0.4c1.9,0.5,3.9,1.1,5.9,1.6c1.2,0.3,2.5,0.7,3.7,1.1c3.9,1.4,8,2.4,12,3.7c2.6,0.8,5.1,1.6,7.8,2.4
		c2.3,0.7,4.5,1.5,6.8,2.3c2.3,0.8,4.7,1.4,7.1,2.1c1.2,0.4,2.4,0.7,3.6,1c1.2,0.4,2.3,0.8,3.4,1.2c2.1,0.7,3.9,1.5,6,2.1
		c1.7,0.5,3.5,1.1,5.1,1.6c1.4,0.5,2.9,0.9,4.3,1.4c0.6,0.2,1.2,0.3,1.8,0.5c1,0.3,1.8,0.6,2.7,0.9c1.2,0.4,2.3,0.7,3.6,1.1
		c0.2,0.1,0.4,0.1,0.6,0.2C193.2,120.7,195,121.1,196.7,121.6z"/>
	<path class="st0" d="M215.3,159c-0.5-0.2-1-0.4-1.5-0.5C214.3,158.6,214.8,158.8,215.3,159z"/>
	<path class="st3" d="M208,125c-0.9,0.6-1.5,1.3-2.6,1.9c0,0,0,0,0,0c0,0,0,0-0.1,0C206.3,126.4,207,125.6,208,125
		C207.9,125,207.9,125,208,125z"/>
	<path class="st0" d="M196,121.7c-1.3,0.2-2.7,0.1-4,0.2c-1.3,0.1-2.7,0.2-4,0.2c0,0,0,0-0.1,0c0.1,0,0.2,0,0.3,0
		c1.3,0,2.7-0.2,4-0.2C193.5,121.8,194.8,121.8,196,121.7z"/>
	<path class="st2" d="M109.3,94.6c0,0,0.6-0.6,1.1-0.6c1.1-0.1,2.8,0.5,3.7,1.1c0.7,0.5,1.1,1,1.4,1.4c0,0,0,0.1,0.1,0.1L109.3,94.6
		z"/>
	<path class="st3" d="M119.4,108.9C119.4,108.9,119.4,108.9,119.4,108.9c-0.7-0.3-1.4-0.5-2.1-0.8c-1.2-0.6-2.4-1-3.6-1.6l0,0
		c0,0,0.1,0,0.1,0c1.3,0.5,2.4,1,3.7,1.6C118,108.4,118.7,108.6,119.4,108.9z"/>
	<path class="st2" d="M116.4,100.1c0.2,1.1,1.2,2.2,1.4,3.3c0.3,1.8,0.9,3.7,1.6,5.5c-0.7-0.3-1.4-0.5-2-0.8c-1.2-0.6-2.4-1-3.7-1.6
		c0,0-0.1,0-0.1,0c0-0.1-0.1-0.2-0.1-0.3c-0.7-1.1-0.7-2-1.1-3.1c-0.3-0.7-0.8-1.5-0.9-2.2c-0.1-0.8-0.2-1.5-0.6-2.3
		c-0.2-0.4-0.4-0.7-0.6-1.1l0,0L116.4,100.1z"/>
	<path class="st2" d="M81.1,143.9c1.9,0,3.7-0.3,5.5-0.4l2,2.7c-0.8,0.1-1.7,0.3-2.5,0.4c-1.8,0.2-3.7,0.7-6.1,0.3
		c-1.6-0.3-2.5-0.7-2.7-1.5c-0.2-0.6,0.2-1.4,1.2-1.4C79.3,143.8,80.3,143.9,81.1,143.9z"/>
	<path class="st1" d="M108.9,131.5c-5.8,2.9-13.3,6.8-19.1,9.7c-1-0.9-2-1.9-2.9-2.8c-1.5-1.6-2.7-3.3-4.4-4.9
		c-1.7-1.6-2.9-3.3-4.6-4.9c-0.8-0.7-1.4-1.4-2.1-2.1c-0.9-1-2.1-2-2.6-2.9c-0.7-1.2-2.1-2.4-3.1-3.6c-0.5-0.6-1.2-1.1-1.5-1.6
		c-0.3-0.4-0.6-0.8-1.1-1.2c0.4,0.2,0.7,0.3,1.1,0.5c1.6,0.8,3.2,1.4,4.9,2.1c7.5,3.1,15.3,6.1,23.3,8.6
		C100.8,129.4,105,130.2,108.9,131.5z"/>
	<path class="st2" d="M220.9,120.5c-0.1,0.2-7.8,1.8-8.3,1.9l-12.8-1.4l-8.3-0.9c0,0,12-3.1,15.3-2.8c2.4-0.3,5-0.4,7.9-0.2
		c0.6,0,1.2,0.1,1.8,0.2c0.5,0.1,1.1,0.3,1.6,0.5C220,118.6,221.2,119.8,220.9,120.5z"/>
</g>
</svg>
