<?xml version="1.0" encoding="utf-8"?>
<!-- Generator: Adobe Illustrator 23.0.3, SVG Export Plug-In . SVG Version: 6.00 Build 0)  -->
<svg version="1.1" id="Calque_1" xmlns="http://www.w3.org/2000/svg" xmlns:xlink="http://www.w3.org/1999/xlink" x="0px" y="0px"
	 viewBox="0 0 200 200" style="enable-background:new 0 0 200 200;" xml:space="preserve">
<style type="text/css">
	.st0{fill:#FFE6B4;stroke:#000000;stroke-width:2;stroke-linecap:round;stroke-linejoin:round;stroke-miterlimit:10;}
	.st1{fill:#F1F1F1;stroke:#000000;stroke-width:2;stroke-linecap:round;stroke-linejoin:round;stroke-miterlimit:10;}
	.st2{stroke:#000000;stroke-width:2;stroke-linecap:round;stroke-linejoin:round;stroke-miterlimit:10;}
	.st3{fill:none;stroke:#000000;stroke-width:2;stroke-linecap:round;stroke-linejoin:round;stroke-miterlimit:10;}
</style>
<g>
	<path class="st0" d="M131.1,157.1c-0.2,0.4-0.6,0.5-1,0.4c-0.6-0.2-1.2-0.4-1.7-0.7c-0.7-0.3-1.4-1.1-2.1,0c-0.2,0.3-0.5,0.2-0.8,0
		c-0.7-0.4-1.4-0.7-2-1.2c-3-2.4-6.4-3.6-10.3-3.3c-1,0.1-1.3-0.6-1.3-1.5c0-1.6,0.6-3.1,1.1-4.6c1.4-4,0.6-7.8-0.7-11.6
		c-0.6-1.7-0.9-3.6-2.4-4.8c-0.5-0.4-0.3-1.1,0-1.6c0.1-0.2,0.3-0.4,0.4-0.6c0.7-1.2,0.7-2.1-0.1-2.5c2.5,0.1,4.9-0.1,7.3-0.6
		c-0.3,1.6-0.1,3.5,0.7,4.7c0.6,0.8,0.7,1.6,0,2.2c-1.1,0.9-0.9,1.9-0.9,3.2c0,3.4,1.1,6.6,1.1,10c0,1.7,1,2.9,2.1,3.9
		c2.5,2.2,5.6,3.6,8.2,5.7c0.8,0.6,1.5,1.3,2.2,2.1C131,156.4,131.3,156.7,131.1,157.1z"/>
	<path class="st0" d="M164.9,53.9c-4.5-2.7-9.8-4-15-3.7c1.2-0.8,2.2-2,2.8-3.4c0.8,0,1.6-0.1,2.4,0c2.8,0.2,5.4,0.7,7.5,2.7
		c1.2,1.1,2,2.4,2.3,4.1C164.8,53.7,164.9,53.8,164.9,53.9z"/>
	<path class="st0" d="M163.3,54.9c-2.5-0.6-5.1-1.1-7.7-1.2c-1.5,0-2.8-0.1-4.1-0.1c-0.4-1.2-1.1-2.3-2-3.2c0.1-0.1,0.2-0.1,0.3-0.2
		l0,0c5.2-0.4,10.5,1,15,3.7C164.9,55,164.4,55.2,163.3,54.9z"/>
	<path class="st1" d="M143.2,58c-0.7,0.8-1,1.7-0.6,2.8c0.9,2.5,2.5,4.6,3.2,7.1c1.2,3.9,2.9,7.7,3,11.9c0.1,3.5,0.4,7-0.3,10.5
		c-0.7,3.7-1.7,7.4-3.6,10.6c-1.7,2.9-3.9,5.6-6.4,7.9c-4.3,3.9-9.4,6.6-14.4,9.7c-2.1,1.3-4.8,2-6.1,4.5c-0.3,0.5-0.4,1-0.6,1.6
		c-2.4,0.5-4.9,0.7-7.3,0.6l0,0c-0.3-0.2-0.7-0.3-1.2-0.4s-0.9-0.1-1.4-0.2c-0.5,0-0.9-0.1-1.4,0c-0.9,0-1.9,0.1-2.9,0.3
		c-2.2,0.5-4.4,0-6.6-0.4c-3.9-0.9-7.8-0.8-11.6-1.8c-3.2-0.8-6.3-1.5-9.6-1.7c-1-0.1-1.9,0-2.9,0.2c-6.1,1.5-12.3,2.9-18.4,4.5
		c-5.3,1.4-10.7,2.7-16.1,3.9c-2.8,0.6-5.6,1.6-8.5,1.9c-0.6,0.1-1.3,0-1.8-0.2c-0.7-0.3-1.7-0.4-1.8-1.4c-0.1-0.9,0.8-1,1.3-1.5
		c-1.1-0.2-2.1-0.4-3.2-0.6c-0.8-0.2-1.6-0.5-1.9-1.4s0.7-1.3,1.3-2c-0.8-0.1-1.5-0.2-2.2-0.3c-0.7-0.1-1.3-0.5-1.5-1.2
		s0.1-1.2,0.6-1.7c0.7-0.8,1.7-1.1,2.6-1.6c3.9-1.8,7.9-3.1,12-4.3c4.5-1.3,8.9-3,13.6-3.8c2.4-0.4,4.5-1.3,6.4-2.5
		c-0.2,0.5-0.3,1.1-0.1,1.6c0.6,1.3,2.4,1.2,3.8,0.9c4-1,7.8-2.3,11.5-4.1c-0.7,0.9-1.9,1.3-2.9,1.9s-1.8,1.9-1.2,2.9
		c0.6,1,2.1,0.9,3.2,0.6c5.1-1.3,10-3.4,14.5-6.1c7.2-4.5,12.4-8.1,17.8-13.3c-0.1,0-0.2,0-0.4,0c-1.8-0.2-4-1.1-4.2-3
		c-2.2,1.7-5,2.6-7.7,2.4c-1.6-0.1-3.2-0.6-4.6-1.3c0.2-0.1,0.3-0.2,0.5-0.3c4.9-3.4,10-6.8,16.1-8.1c2.9-0.6,5.6-2,8.2-3.3
		c3.6-1.8,7-3.9,10.2-6.4c3-2.3,3.7-5.1,3-8.6c-0.5-2.4-1.1-4.9-1.2-7.4c-0.2-4.2,0-8.4,2.6-11.9c2.4-3.2,5.2-6.3,9.5-7
		c4-0.6,7.5,0.5,10.7,2.8c2.2,1.6,4.3,3.4,6.6,4.9c0.5,0.4,1.2,0.5,1.8,0.5c-0.6,1.4-1.6,2.5-2.8,3.4l0,0c-0.1,0.1-0.2,0.1-0.3,0.2
		c0.9,0.9,1.5,2,2,3.2c-1.5,0-3,0.3-4.5,1.4C145.7,55.9,144.2,56.7,143.2,58z"/>
	<path class="st2" d="M101.7,93.5c-5.5,5.2-10.7,8.8-17.8,13.3c-4.5,2.8-9.4,4.9-14.5,6.1c-1.1,0.3-2.6,0.4-3.2-0.6s0.2-2.3,1.2-2.9
		s2.2-1,2.9-1.9c-3.7,1.7-7.6,3.1-11.5,4.1c-1.4,0.3-3.2,0.4-3.8-0.9c-0.2-0.5-0.2-1.1,0.1-1.6c0.7-0.4,1.4-0.9,2.1-1.4
		c4.7-3.3,9.8-5.8,14.8-8.5c4.4-2.3,8.7-4.8,12.8-7.6c1.4,0.8,3,1.2,4.6,1.3c2.8,0.2,5.6-0.7,7.7-2.4c0.2,1.8,2.3,2.8,4.2,3
		C101.5,93.5,101.6,93.5,101.7,93.5z"/>
	<path class="st3" d="M101.7,93.5c3.9,0.3,7.9-1.3,10.5-4.3c0.6-0.6,1.3-1.4,2.1-1.2c0.6,0.1,0.9,0.7,1.4,1c0.8,0.6,1.9,0.6,2.9,0.5
		c4.3-0.8,7.8-4.7,8-9"/>
	<path class="st3" d="M140.8,46.1c-0.6-0.8-1.4-1.3-2.4-1.5c-0.9-0.2-2-0.1-2.8,0.4"/>
	<path class="st3" d="M139.1,45.6c0.1,0.4-0.2,0.8-0.6,1c-0.4,0.2-1-0.1-1.1-0.5s0.1-1,0.6-1.1s0.9,0.3,0.9,0.8"/>
	<path class="st0" d="M113,146.3c-0.5,1.5-1.1,3-1.1,4.6c-2.7-1.6-3.6-3.9-3.2-7.1c0.4-3.2,1.3-6.5,0.2-9.5
		c-0.5-1.3-1.4-2.4-1.8-3.7c-0.5-1.3-0.8-2.8-0.9-4.2c-0.1-0.6,0-1.2,0.1-1.9c0.5,0,0.9,0,1.4,0s0.9,0.1,1.4,0.2s0.9,0.2,1.2,0.4
		l0,0c0.8,0.5,0.9,1.3,0.1,2.5c-0.1,0.2-0.3,0.4-0.4,0.6c-0.3,0.5-0.5,1.2,0,1.6c1.6,1.2,1.8,3.1,2.4,4.8
		C113.6,138.5,114.4,142.3,113,146.3z"/>
</g>
</svg>
