<?xml version="1.0" encoding="utf-8"?>
<!-- Generator: Adobe Illustrator 23.0.3, SVG Export Plug-In . SVG Version: 6.00 Build 0)  -->
<svg version="1.1" id="Calque_1" xmlns="http://www.w3.org/2000/svg" xmlns:xlink="http://www.w3.org/1999/xlink" x="0px" y="0px"
	 viewBox="0 0 200 200" style="enable-background:new 0 0 200 200;" xml:space="preserve">
<style type="text/css">
	.st0{fill:none;stroke:#000000;stroke-linecap:round;stroke-linejoin:round;stroke-miterlimit:10;}
	.st1{fill:#F6F6F6;stroke:#000000;stroke-linecap:round;stroke-linejoin:round;stroke-miterlimit:10;}
	.st2{stroke:#000000;stroke-linecap:round;stroke-linejoin:round;stroke-miterlimit:10;}
	.st3{fill:#FFC1C2;stroke:#000000;stroke-linecap:round;stroke-linejoin:round;stroke-miterlimit:10;}
	.st4{fill:#FFE6B4;stroke:#000000;stroke-linecap:round;stroke-linejoin:round;stroke-miterlimit:10;}
	.st5{fill:#BDCCD4;stroke:#000000;stroke-linecap:round;stroke-linejoin:round;stroke-miterlimit:10;}
</style>
<path class="st0" d="M171.3,154.4c-1-0.6-1.4-0.8-2-1.7"/>
<path class="st1" d="M166.6,144c-4.2,3.5-8.1,7.4-10.8,11.9c-2.1-0.9-4-2.1-5.6-3.7c-4.3-4.6-4.3-11.6-4.8-17.8
	c-0.2-2.5-0.5-5-0.9-7.4c-0.9-5.7-2.4-11.3-4.4-16.8c-0.5-1.4-1-2.7-1.6-4.1c-1-2.4-2.2-4.8-4.4-6.3c-2.4-1.6-5.5-1.6-8.3-0.8
	c-1-5.1-3.9-11.7-6.3-16.6c2.6-1.9,5.3-3.5,8.3-4.6c4.1-1.4,8.9-1.6,12.8,0.3c4.2,2.1,6.8,6.3,8.7,10.6c2.9,7,4.1,14.6,5.1,22.1
	c0.2,1.7,0.5,3.5,0.7,5.2c0.6,4,1.3,8,2.5,12c0.5,1.7,1,3.4,1.7,5.1c0.9,2.4,2,5.2,3.6,7.2c0.1,0.2,0.3,0.3,0.4,0.5l0,0
	C164.3,142,165.4,143,166.6,144z"/>
<path class="st0" d="M119.5,82.5L119.5,82.5"/>
<path class="st0" d="M179.2,102.1L179.2,102.1c0,0.4,0,1.1,0,2.1"/>
<path class="st2" d="M168.9,146c-3.7,3.2-6.8,7.2-9.1,11.6c-1.4-0.5-2.8-1-4.1-1.6c2.8-4.6,6.7-8.5,10.8-11.9
	C167.4,144.7,168.2,145.3,168.9,146z"/>
<path class="st1" d="M173.2,154.9c-0.4,0.1-0.8,0-1.2-0.2c-0.2-0.1-0.5-0.2-0.7-0.3v0.1c0.2,0.7-0.2,1.7-1,1.7
	c-0.3,0-0.5-0.2-0.8-0.3l-0.1-0.1v0.1c0.1,0.5,0,1.1-0.4,1.4c-0.2,0.2-0.5,0.2-0.7,0.3c-0.6,0.1-1.1-0.1-1.7-0.4
	c0.2,0.3,0.4,0.5,0.5,0.9c0.3,0.7,0.1,1.7-0.5,2.1c-0.2,0.1-0.3,0.2-0.5,0.2c-1.2-0.3-2.3-0.8-3.3-1.5c-0.1,0-0.1-0.1-0.2-0.1
	c0,0,0,0-0.1,0c0,0,0,0-0.1-0.1l0,0l0,0l0,0c-0.8-0.3-1.7-0.6-2.5-0.9c2.2-4.4,5.3-8.4,9.1-11.6c0.5,0.4,1,0.8,1.4,1.2
	c1.5,1.4,3.1,2.9,3.8,4.9C174.5,153.2,174.3,154.7,173.2,154.9z"/>
<path class="st0" d="M124.6,99.6c0.2-0.1,0.4-0.2,0.7-0.3c0.2-0.1,0.4-0.1,0.6-0.2"/>
<path class="st0" d="M133.7,110.2c-0.2,0-0.4,0-0.6,0"/>
<path class="st2" d="M187.2,114c-0.1,2-0.2,3.9-0.5,5.9c-3-3.8-7.1-6.8-11.6-8.6c0.6-1,0.8-2.3,0.6-3.5
	C179.8,109.4,183.7,111.5,187.2,114z"/>
<path class="st1" d="M187.2,114c-3.5-2.5-7.4-4.6-11.5-6.2c0-0.2,0-0.3-0.1-0.4c-0.4-2.2-1.4-4.3-1.2-6.5v-0.1
	c0.1-0.2,0.1-0.4,0.1-0.7c0.1-0.4,0.3-0.8,0.7-1.1c1.2-1,3,0.3,3.6,1.8c0.2,0.4,0.3,0.8,0.3,1.3l0,0c0.1,0.2,0.1,0,0.1-0.2
	c0.4-0.6,1.2-0.9,1.9-0.7c0.9,0.3,1.2,1.4,1.3,2.3c0.2-0.1,0.5-0.2,0.8-0.2c0.8,0,1.6,0.6,1.9,1.4c0.3,0.7,0.3,1.5,0.3,2.3
	c0.3-0.1,0.7,0,1,0.2c0.5,0.5,0.6,1.2,0.7,1.9C187.2,110.8,187.3,112.4,187.2,114z"/>
<path class="st0" d="M174.6,100.1c-0.1,0.2-0.1,0.4-0.1,0.7"/>
<path class="st1" d="M186.7,119.9c-0.1,0.9-0.3,1.8-0.5,2.7s-0.4,1.9-1,2.6c-0.6,1-1.7,1.6-2.7,2s-1.9,0.7-2.9,0.8
	c-2.2,0.4-4.6,0.4-6.8,0.3c-5.1-0.1-10.1-0.2-15.2-0.3c-1.1-3.9-1.8-7.9-2.5-12c-0.3-1.7-0.5-3.4-0.7-5.2c5.5,0.4,11,1.1,16.5,1.9
	c0.8,0.1,1.7,0.2,2.5,0s1.4-0.8,1.8-1.5C179.6,113.1,183.7,116.1,186.7,119.9z"/>
<path class="st0" d="M182.5,103.6L182.5,103.6c0.1,1.6,0.2,1.5,0,3"/>
<path class="st0" d="M185.4,108.4c-0.1-0.8,0-0.3,0.1-1.1c0-0.1,0-0.1,0-0.2"/>
<path class="st2" d="M188.8,118.3c-0.1,0.7-0.2,1.4-0.3,2.1c-0.5,3.7-1.5,7.5-5.9,8c-1,0.1-2.1,0-3.1-0.4c1-0.2,2-0.4,2.9-0.8
	c1.1-0.4,2.1-1.1,2.7-2c0.5-0.8,0.8-1.7,1-2.6s0.4-1.8,0.5-2.7c0.3-2,0.5-3.9,0.5-5.9c0-1.6,0-3.2-0.1-4.8c-0.1-0.7-0.2-1.4-0.7-1.9
	c-0.3-0.2-0.6-0.3-1-0.2c0-0.8,0-1.6-0.3-2.3c-0.3-0.8-1.1-1.4-1.9-1.4c-0.3,0-0.6,0.1-0.8,0.2c-0.1-1-0.4-2.1-1.3-2.3
	c-0.7-0.2-1.4,0.2-1.9,0.7c0-0.3,0-0.6-0.1,0.1l0,0c-0.1-0.4-0.2-0.9-0.3-1.3c-0.5-1.4-2.4-2.7-3.6-1.8c-0.3,0.3-0.5,0.7-0.7,1.1
	c0-0.9-0.4-1.8-0.1-2.6c0.5-1,1.9-1.1,3.1-0.8c1.6,0.4,3.2,1,4.6,2c0.7,0.5,1.6,0.8,2.2,1.5c0.6,0.6,1.1,1.4,1.5,2.1
	c0.9,1.6,1.5,3.3,2,5.1C188.9,111.2,189.3,114.5,188.8,118.3z"/>
<path class="st0" d="M179.3,102C179.3,102,179.2,102,179.3,102C179.2,102,179.2,102.1,179.3,102C179.2,101.3,179.3,101.7,179.3,102z
	"/>
<path class="st0" d="M174.5,100.8c0,0.1,0,0.1-0.1,0.2"/>
<path class="st0" d="M169.4,155.8c-0.9-0.6-1.3-0.8-2-1.6"/>
<path class="st0" d="M162.7,158.8c0.6,0.4,1,0.9,1.6,1.2c0.5,0.3,1.1,0.5,1.7,0.3"/>
<path class="st0" d="M162.5,158.6C162.4,158.6,162.4,158.6,162.5,158.6"/>
<path class="st0" d="M166.6,157.1c-0.3-0.4-0.6-0.7-0.9-1"/>
<path class="st2" d="M176.4,154.2c-0.2,0.7-0.6,1.2-1,1.8c-2.1,2.7-5.4,4.9-8.8,4.4c-0.2,0-0.4-0.1-0.6-0.1c0.2,0,0.4-0.1,0.5-0.2
	c0.6-0.5,0.8-1.4,0.5-2.1c-0.1-0.3-0.3-0.6-0.5-0.9c0.5,0.3,1.1,0.4,1.7,0.4c0.3,0,0.5-0.1,0.7-0.3c0.4-0.3,0.5-0.9,0.4-1.4v-0.1
	l0.1,0.1c0.2,0.1,0.5,0.3,0.8,0.3c0.8,0,1.2-0.9,1-1.7v-0.1c0.2,0.1,0.5,0.2,0.7,0.3c0.4,0.2,0.8,0.3,1.2,0.2
	c1.1-0.2,1.2-1.7,0.9-2.8c-0.6-2-2.2-3.5-3.8-4.9c-0.4-0.4-0.9-0.8-1.4-1.2c-0.8-0.6-1.6-1.3-2.3-2c-1.2-1-2.3-2-3.3-3.1
	c1.5,0.7,2.9,1.5,4.2,2.4c0.9,0.6,1.7,1.2,2.5,1.8c1.7,1.3,3.2,2.8,4.6,4.4C175.8,150.8,176.9,152.5,176.4,154.2z"/>
<path class="st2" d="M34.7,65c-0.1,0.2-0.2,0.5-0.2,0.7c-0.2,0.7-0.5,1.4-0.8,2.1c-0.9,2.3-2,4.5-3.1,6.8c-2,4.2-5,10.2-7.2,14.5
	c-0.1,0.1-0.1,0.3-0.2,0.4c-0.6-0.1-1.3-0.2-1.9-0.4l0,0c-0.2-0.2-0.4-0.3-0.6-0.3c-0.1,0-0.1,0-0.2,0c-0.9-0.3-1.8-0.8-2.5-1.4l0,0
	c-0.1-0.1-0.2-0.1-0.3-0.2c-0.1-0.1-0.3-0.2-0.4-0.3l0,0c-0.1-0.1-0.2-0.2-0.2-0.2l0,0c-0.5-0.5-0.9-1.1-1.2-1.8
	c-0.6-1.4-0.7-3-0.7-4.6c0-2.6,1.1-7.3,2.4-9.5c1.3-2.3,3.7-3.8,6.2-4.7c1.9-0.7,3.9-1,5.9-1c0.8-3.7,0.9-2.8,2.2-6.4
	c0.4-1.3,0.9-2.5,1.5-3.7c0.1-0.2,0.3-0.5,0.6-0.6c0.6-0.3,1.2,0.4,1.3,1.1C35.8,60.2,36.1,60.6,34.7,65z"/>
<path class="st1" d="M134.7,126.7c0.3-3.6,0.3-8,0-10.4c-0.2-1.5-0.5-4.1-1-6.1c0.8,0,1.6,0,2.4,0c1.3,0,2.6,0,4,0.1
	c2,5.4,3.5,11.1,4.4,16.8C141.2,126.7,138,126.7,134.7,126.7z"/>
<path class="st0" d="M134.7,126.7c-0.1,0-0.3,0-0.4,0"/>
<path class="st0" d="M67,54.1c-0.2-0.2-0.5-0.4-0.7-0.6"/>
<line class="st0" x1="77" y1="91.9" x2="77" y2="91.9"/>
<path class="st1" d="M84.7,74.2c-1.6,0.3-3.2,0.4-4.7,0.3c-2.6,0-5.3-0.4-7.9-0.9c0.3-0.8,0.5-1.6,0.7-2.4c1-5.1-2.2-13.7-5.8-17.1
	c2.4-2.3,4.8-4.7,7.2-7c4.4,4.4,8.7,12.3,9.7,17.4C84.5,67.7,84.8,71,84.7,74.2z"/>
<path class="st0" d="M74.1,47.1c-0.6-0.6-1.2-1.1-1.8-1.6"/>
<line class="st0" x1="77" y1="91.9" x2="77" y2="91.9"/>
<path class="st2" d="M37,98c0,0.1,0.1,0.1,0.1,0.2C36.9,98.4,37,97.9,37,98z"/>
<path class="st2" d="M105.4,120.4c-0.2,1.9-1.1,6.3-1.7,9.3c0,0.2-0.1,0.4-0.1,0.6l0,0c-17.8,0.5-35.6,1-53.3,1.4
	c-10.9,0.3-23.1,2.5-33-1.8c-0.1,0,0.6-2.1,0.5-2.1l-0.8,2c0.1-0.6,0.2-1.4,0.3-2.2l0,0c0.8-3.9,3-9.3,4.6-12.5
	c0.2-0.4,0.4-0.7,0.6-1.1c0.3,0.8,1.4,1.6,2,2c2.6,1.7,3.5,1.7,6.1,1.7c4.1,0.1,6-0.1,7.6-3.9s1.7-6.6,0.5-10.6
	c-0.8-2.8-0.5-2.6-1.6-5.1c0.1-0.1,0.1-0.2,0.2-0.3c0.3-0.5,0.5-0.4,1-0.4c0,0,0,0,0.1,0l0,0c1.2-0.1,3-0.1,4.6-0.4l0,0
	c0,0,0,0,0.1,0c1-0.2,2-0.6,2.7-1.2l0,0c0.1-0.1,0.2-0.2,0.3-0.2c1.6-1.5,2.6-2.7,3.8-5l0,0c4.7-0.6,9.2-2.2,13-4.8
	c4.2-2.9,7.6-7.2,9.2-12.1c2.6,0.5,5.2,0.9,7.9,0.9c1.6,0,3.2-0.1,4.7-0.3c-0.1,1.9-0.3,3.8-0.7,5.7c-1,4.6-3.4,8.9-7,12
	c4.9-0.7,9.7-1.4,14.6-2.1c3.9-0.6,8.1-1.1,11.7,0.3l0,0c0.1,0.3,0.1,0.6,0.2,0.8c0.2,0.6,0.3,1.3,0.4,1.9
	C105.8,101.9,106.4,111.2,105.4,120.4z"/>
<path class="st0" d="M35.1,94.4"/>
<path class="st3" d="M53.5,63.9c-0.2,1,0.5,1.9,1,2.7c0.5,0.8,0.8,2.1,0,2.7c-0.7,0.5-1.7,0-2.1-0.7c-0.4-0.8-0.2-1.7,0.1-2.4
	s0.7-1.5,0.9-2.4"/>
<path class="st0" d="M23.5,89.1c-0.7-0.8-1.3-1.7-1.1-2.8"/>
<path class="st4" d="M34,72.9c-0.4,0.4-0.1,1.1,0.5,1.1l0,0c0.7,0,0.9,0.9,0.3,1.2c-1.6,0.9-3,2-4.4,3.3c-0.2,0.2-0.3,0.6-0.1,0.9
	c1.3,1.6,1.4,3.7,1.1,5.8c-0.1,0.6-0.8,0.8-1.1,0.3c-0.2-0.2-0.3-0.4-0.5-0.6c-0.6-0.5-1.3-0.8-2-1.1c-0.4-0.2-0.8,0.1-0.9,0.6
	l-0.4,5.4c0,0.5-0.1,0.9-0.1,1.3c0,0.1,0,0.2-0.1,0.3c-0.2,0.4-0.8,0.5-1.1,0c-0.4-0.6-0.9-1.2-1.3-1.8c-0.2-0.2-0.3-0.4-0.5-0.6
	c2.1-4.3,5.1-10.3,7.2-14.5c1.1-2.2,2.1-4.5,3.1-6.8c0.3-0.7,0.5-1.4,0.8-2.1c0.3-0.2,0.5-0.5,0.8-0.7c0.3-0.3,0.9-0.2,1.1,0.3
	c0.4,1.5,0.3,3-0.2,4.5C35.7,71,35,72.1,34,72.9z"/>
<path class="st1" d="M45.1,76.5c3.5,4.3,6.6,9,4.7,14.1l0,0c-1.1,2.2-2.1,3.5-3.8,5c-0.9,0.6-1.9,1.1-3.1,1.5
	c-1.6,0.3-3.4,0.3-4.6,0.4l0,0c0,0,0,0-0.1,0c-0.5,0-1-0.1-1.5-0.2c-1-0.1-1.9-0.5-2.8-0.9c0.2-0.1,0.4-0.2,0.5-0.3
	c0,0,0.1,0,0.1-0.1c0.7-0.4,1.4-1.3,0.9-2c-0.2-0.3-0.6-0.4-1-0.4c-0.2,0-0.4,0-0.6,0.1c-1.1,0.2-2.3,0.4-3.4,0.8
	c-1.2-0.7-2.3-1.4-3.3-2.2c-0.3-0.2-0.6-0.5-0.9-0.7c0.1-0.1,0.1-0.2,0.1-0.3c0-0.4,0-0.9,0.1-1.3l0.4-5.4c0-0.4,0.5-0.7,0.9-0.6
	c0.7,0.3,1.4,0.6,2,1.1c0.2,0.2,0.4,0.4,0.5,0.6c0.4,0.4,1.1,0.2,1.1-0.3c0.2-2.1,0.1-4.3-1.1-5.8C30,79.4,30,79,30.3,78.7
	c1.3-1.3,2.8-2.4,4.4-3.3c0.6-0.3,0.3-1.2-0.3-1.2l0,0c-0.6,0-0.9-0.7-0.5-1.1c0.9-0.9,1.6-2,2-3.2c2.6,0.9,6.1,2.9,7.7,4.8
	L45.1,76.5z"/>
<path class="st1" d="M39.7,86.1"/>
<path class="st0" d="M38.3,97.5c1.4,0.1,2.7,0,4-0.3c0.2,0,0.4-0.1,0.6-0.2"/>
<path class="st0" d="M46.1,95.6c1.6-1.1,2.8-2.7,3.6-4.6c0.1-0.1,0.1-0.3,0.2-0.4"/>
<path class="st0" d="M45.2,76.4L45.2,76.4c-0.4-0.5-0.7-0.8-0.9-1.2l-0.1-0.1"/>
<path class="st0" d="M46.1,89.8"/>
<path class="st0" d="M46.8,74.9"/>
<path class="st0" d="M32.2,89.5c-0.5-0.7-1.7-0.5-2.1,0.3c-0.4,0.7-0.2,1.7,0.3,2.4c0.4,0.5,0.9,0.9,1.5,1.1s1.3,0,1.8-0.4
	c0.1-0.1,0.2-0.2,0.3-0.2c0.3-0.1,0.5,0.5,0.6,1.1"/>
<path class="st0" d="M31.9,85.8c-1.4,0.4-2.5,1.9-2.4,3.4"/>
<path class="st0" d="M43,80.6c0.2,1.2-0.8,2.4-1.9,2.6"/>
<path class="st0" d="M45.5,85.1C45,85.6,45,86.6,45.6,87s1.6,0.1,1.8-0.6"/>
<path class="st0" d="M17.3,127.6L17.3,127.6c0.1,0.1,0.3,0.1,0.4,0.2"/>
<path class="st0" d="M19.3,86.8c-0.1,0-0.2-0.1-0.4-0.1c-0.1,0-0.3-0.1-0.5-0.2c0.1,0,0.1,0,0.2,0C18.9,86.5,19.1,86.7,19.3,86.8z"
	/>
<path class="st1" d="M34.6,96.1L34.6,96.1c-0.3,0.2-0.4,0.3-0.6,0.3c-2.3,1.2-6.2,1.9-9.1,2.1c-0.7,1.5-1.4,3.1-2,4.6
	c-1,2.4-1.8,4.9-1.8,7.5c0,1.4-0.2,1.2,0.3,2.5c0.2,0.5,0.3,1.3,0.5,1.8c-1.7,3.2-3.8,8.6-4.6,12.5c-0.3-0.1-0.6-0.3-0.9-0.4
	c-1.2-0.6-2.4-1.3-3.3-2.3c-2.4-2.6-2.4-6.5-1.9-10c1.1-7.2,4.1-13.9,7.7-20.3c-1.4-2.3-2.5-4.7-2.5-7.3c0-0.2,0-0.4,0.1-0.5
	c0,0,0.3,0.1,0.7,0.1l0,0c0.1,0.1,0.2,0.2,0.4,0.3c0.1,0.1,0.2,0.2,0.3,0.2l0,0c0.7,0.6,1.6,1,2.5,1.4c0.1,0,0.1,0,0.2,0
	c0.2,0,0.4,0.1,0.6,0.3l0,0c1,1.2,2,2.4,3.1,3.5c0.7,0.8,1.4,1.6,2.3,2.1c0.4,0.2,0.7,0.3,1.1,0.3c0.8,0.1,1.5-0.2,2.3-0.4
	c0.1,0,0.3-0.1,0.4-0.1c1.1-0.3,2.2-0.6,3.4-0.8c0.2,0,0.4-0.1,0.6-0.1c0.4,0,0.8,0.1,1,0.4C36.1,94.7,35.3,95.6,34.6,96.1z"/>
<path class="st0" d="M16.6,86.8c0.1-0.1,0.3-0.2,0.4-0.1l0,0c0.1,0,0.3,0.1,0.4,0.3c0.1,0.1,0.2,0.2,0.2,0.2l0,0
	c0.1,0.1,0.1,0.2,0.2,0.3"/>
<path class="st0" d="M20.3,90.6c-0.8-1-1.6-2.1-2.3-3.1"/>
<path class="st0" d="M21.4,89.1c-0.5-0.6-1-1.2-1.6-1.8c-0.1-0.1-1.1-0.2-1.9-0.3c-0.1,0-0.2,0-0.3,0c-0.1,0-0.1,0-0.2,0"/>
<path class="st0" d="M18.5,86.5c-0.3,0-0.6,0.3-0.8,0.6c-0.1,0.2-0.2,0.5-0.2,0.7c0,0.7,0.5,1.2,0.9,1.7"/>
<g>
	<path class="st5" d="M58.5,62.2c-0.6,0.4-1.2,0.7-1.9,0.9c-2.6-1.6-4.8-3.9-6.3-6.6c0.1-0.7,0.4-1.7,0.7-2.5
		C52.7,57.4,55.3,60.2,58.5,62.2z"/>
	<path class="st5" d="M59.2,47.2c-0.3-0.2-0.6-0.3-0.9-0.5c0.1-0.1,0.2-0.2,0.2-0.2C58.8,46.8,59,47,59.2,47.2z"/>
	<path class="st5" d="M78,43.3c-1.3,1.3-2.6,2.5-3.9,3.8c-2.4,2.3-4.8,4.7-7.2,7c-2.7,2.6-5.4,5.2-8,7.8c-0.1,0.1-0.3,0.2-0.4,0.3
		c-3.1-2-5.7-4.9-7.5-8.2l0,0l0,0c1.8-1.8,3.6-3.6,5.4-5.4c0.2,0.1,0.3,0.2,0.5,0.3c1.1,0.5,3.2,0.4,4.3,0.5
		c0.3,0.2,0.5,0.4,0.8,0.5c0.4,0.2,0.9,0.2,1.1-0.1c0.1-0.1,0.1-0.3,0.1-0.5c-0.1-0.6-0.2-1.2-0.4-1.8c0.1,0.1,0.2,0.1,0.2,0.2
		c0.3,0.2,0.7,0.5,1.1,0.5c0.4,0.1,0.9-0.1,1.1-0.4c0.2-0.4,0.1-0.9-0.1-1.4c-0.4-0.9-1.3-2.2-2-3c0.6,0.6,1.2,1.2,1.9,1.7
		c0.2,0.1,0.4,0.3,0.6,0.3c0.4,0,0.8-0.4,0.8-0.8c0.1-0.4,0.1-1.2-0.1-1.6c-0.1-0.5-0.2-0.6-1-1.6l-0.7-0.8c1.9-1.8,3.8-3.5,5.7-5.2
		c0.1,0,0.1,0.1,0.2,0.1c3.2,1.6,5.5,3.6,7.1,6.9L78,43.3z"/>
	<path class="st5" d="M78.2,40.5L78.2,40.5"/>
	<path class="st5" d="M78,43.3l-0.3-1c-1.5-3.2-3.9-5.3-7.1-6.9c-0.1,0-0.1-0.1-0.2-0.1l0,0c0.6-0.5,1.5-0.6,2.3-0.6
		c2.1,1.6,4,3.5,5.5,5.7l0,0C78.4,41.4,78.3,42.5,78,43.3z"/>
</g>
<g>
	<path class="st1" d="M66.5,44.6c-0.1,0.4-0.4,0.8-0.8,0.8c-0.2,0-0.4-0.2-0.6-0.3c-0.7-0.5-1.3-1.1-1.9-1.7c0.8,0.8,1.6,2.1,2,3
		c0.2,0.4,0.3,1,0.1,1.4c-0.2,0.4-0.7,0.5-1.1,0.4c-0.4-0.1-0.8-0.3-1.1-0.5c-0.1-0.1-0.2-0.1-0.2-0.2c-1-0.7-1.8-1.7-2.6-2.6
		c-0.5-0.6-1-1.2-1.4-1.8c-0.3-0.4-0.6-0.8-0.7-1.4v-0.1c-0.1-0.5,0.1-1,0.6-1.2c0.3-0.1,0.6-0.1,0.9,0c0.5,0.2,1.6,0.6,1.9,1
		c-0.1-0.1-0.2-0.3-0.3-0.4c-0.2-0.3-0.5-0.7-0.5-1.1c-0.1-0.4,0.1-0.9,0.5-1.1c0.3-0.2,0.7-0.1,1.1,0.1c0.1,0,0.2,0.1,0.3,0.1
		c0.4,0.1,0.7,0.3,1,0.5c0.4,0.2,0.7,0.5,1,0.8l0.2,0.2l0.7,0.8c0.8,1,0.9,1.1,1,1.6C66.6,43.4,66.5,44.2,66.5,44.6z"/>
	<path class="st1" d="M63.2,49.8c-0.2,0.4-0.7,0.3-1.1,0.1c-0.3-0.1-0.6-0.3-0.8-0.5c-0.6-0.4-1.1-1-1.6-1.6
		c-0.1-0.1-0.2-0.3-0.4-0.4c0-0.1-0.1-0.1-0.1-0.2c-0.2-0.2-0.4-0.5-0.6-0.7c-0.4-0.4-0.7-0.9-1.1-1.3c-0.5-0.6-1.1-1.3-1.3-2.1
		c-0.1-0.5-0.1-1,0.2-1.4c0.4-0.4,1.1-0.4,1.6-0.2c0,0,0.1,0,0.1,0.1v0.1c0.1,0.5,0.4,0.9,0.7,1.4c0.5,0.6,0.9,1.2,1.4,1.8
		c0.8,1,1.6,1.9,2.6,2.6c0.2,0.6,0.4,1.2,0.4,1.8C63.3,49.5,63.3,49.6,63.2,49.8z"/>
	<path class="st1" d="M61.3,49.4c-1.2-0.1-3.3,0-4.3-0.5c-0.2-0.1-0.4-0.2-0.5-0.3c-0.2-0.2-0.5-0.3-0.7-0.5
		c-0.5-0.5-0.8-1.1-0.9-1.8c0-0.2,0-0.4,0.1-0.5s0.4-0.1,0.6-0.1c0.9,0.1,1.9,0.5,2.8,1c0.3,0.2,0.6,0.3,0.9,0.5
		c0,0.1,0.1,0.1,0.1,0.2c0.1,0.1,0.2,0.3,0.4,0.4C60.2,48.4,60.7,49,61.3,49.4z"/>
</g>
<path class="st0" d="M42.7,73.7c-1.3,0.4-2.3,1.8-2.3,3.2"/>
<path class="st0" d="M36.8,80.3c-1.5,0.3-2.6,1.6-2.8,3.1"/>
<path class="st4" d="M136.5,124.8c-0.1,1.4-0.2,2.7-0.4,3.6c-2.4,0-6.3,0-8.8-0.1c-7.5-0.3-15.7-0.5-23.3-0.7
	c0.7-2.8,1.6-6.9,1.8-8.6c1-8.6,0.4-17.3-1.6-25.7c-0.1-0.6-0.3-1.2-0.4-1.8c5.1-3.1,5.1-4.2,11.9-7.6c2-1,2.9-1.6,3.8-2.2
	c0.3,0.6,0.7,1.3,1,1.9c2.5,4.6,5.6,10.8,6.6,15.5c0.1,0.3,0.1,0.7,0.2,1c-2.7,1-7.3,4.6-9.9,6c-2.9,1.5-1.1,1.1-3.7,2
	c5.7,1.4,13.6-0.4,21-0.5c0.2,0.5,0.4,1.2,0.7,1.9c0.4,1.9,0.9,4.3,1,5.7C136.9,117.3,136.9,121.4,136.5,124.8z"/>
</svg>
