<?xml version="1.0" encoding="utf-8"?>
<!-- Generator: Adobe Illustrator 27.5.0, SVG Export Plug-In . SVG Version: 6.00 Build 0)  -->
<svg version="1.1" id="Calque_1" xmlns="http://www.w3.org/2000/svg" xmlns:xlink="http://www.w3.org/1999/xlink" x="0px" y="0px"
	 viewBox="0 0 200 200" style="enable-background:new 0 0 200 200;" xml:space="preserve">
<style type="text/css">
	.st0{stroke:#000000;stroke-width:0.2322;stroke-miterlimit:10;}
</style>
<path class="st0" d="M170.1,116.1c-8.1,0.7-17.3-3-25.7-3.3c-9-0.3-17.9-0.6-26.8-1.7c-1.8-0.2-10.8-2.8-12.3-0.5
	c-1.8,2.8,4.7,6.3,2.5,8.9c-0.4,0.6-7.3,1.7-8.2,1.9c-3,0.4-5.6-0.4-8.5-0.6c-5.8-0.3-13.5,0.3-18.7-2.6c2.1-2.9,6.4-2.2,9.3-4
	c5.8-3.6-0.1-4.3-4.1-5.9c-7.7-3-15.5-5.2-23.5-7.5c-3.6-1.1-19.3-5.7-23.6-8.9c-2.3-1.7,1.3-3.2,2.6-3.6c2.1-0.5,4.3-0.6,6.5-0.6
	c6,0,12,0.8,17.9,2.1c2.5,0.6,6.7,1.6,9.2,2.3c7.1,2,13.7,3.9,21.1,5.4c3.6,0.7,7.9,1.3,11.4,2.7c0.8-0.1,1.5-0.1,2.1-0.1
	c7.6,0.3,15.6,0.4,23,2.6c8.7,2.6,18,3,26.5,5.9C154.5,109.8,171.4,110.2,170.1,116.1z"/>
</svg>
