<?xml version="1.0" encoding="utf-8"?>
<!-- Generator: Adobe Illustrator 23.0.3, SVG Export Plug-In . SVG Version: 6.00 Build 0)  -->
<svg version="1.1" id="Calque_1" xmlns="http://www.w3.org/2000/svg" xmlns:xlink="http://www.w3.org/1999/xlink" x="0px" y="0px"
	 viewBox="0 0 200 200" style="enable-background:new 0 0 200 200;" xml:space="preserve">
<style type="text/css">
	.st0{fill:#FFC1C2;stroke:#000000;stroke-width:2;stroke-miterlimit:10;}
	.st1{fill:#FFC1C2;stroke:#000000;stroke-width:2;stroke-linecap:round;stroke-linejoin:round;stroke-miterlimit:10;}
	.st2{fill:none;stroke:#000000;stroke-width:2;stroke-linecap:round;stroke-linejoin:round;stroke-miterlimit:10;}
	.st3{stroke:#000000;stroke-width:2;stroke-linecap:round;stroke-linejoin:round;stroke-miterlimit:10;}
	.st4{fill:#FFE6B4;stroke:#000000;stroke-width:2;stroke-miterlimit:10;}
	.st5{fill:#FFE6B4;stroke:#000000;stroke-width:2;stroke-linecap:round;stroke-linejoin:round;stroke-miterlimit:10;}
	.st6{fill:none;stroke:#000000;stroke-width:2;stroke-miterlimit:10;}
</style>
<path class="st0" d="M58,132c0,1.7-1.2,3.3-2.8,4.1c-1.5,0.8-3.3,1.1-5,1.4c-4.6,0.8-9.2,1.9-13.6,3.3c-1.3,0.4-1.5,2.2-0.3,2.9h0.1
	c2.2,1.3,1.2,4.7-1.4,4.6l0,0c-5.5-0.4-10.9-1.1-16.3-2.3c-4-0.9-8.2-2.2-11.1-5.2c-0.6-0.7-1.2-1.5-1.3-2.4
	c-0.1-1.8,1.6-3.1,3.2-3.8c5.6-2.3,12.6-1.4,17.2-5.3c0.6-0.5,1.2-1.2,0.7-2.1c-0.2-0.5-0.7-0.9-1.2-1.1l-8.6-3.4
	c-0.4-0.2-0.7-0.4-0.9-0.8c-0.7-1.3,0.8-2.3,2.1-2.8c0,0,0,0,0.1,0c3.1,0,6.8-1.7,10-2.1c3.4-0.4,7-0.5,10.4-0.2
	c0.9,0.1,1.9,0.2,3.1,0.3c0.1,0,0.1,0,0.2,0c0,1.6-0.1,3-0.1,4.4h-0.1c-1.2,0.1-2.4,0.2-3.3,0.3c-1.1,0.2-2.6,1-2,2
	c0.2,0.4,0.7,0.5,1.1,0.7c1.4,0.4,2.9,0.8,4.3,1.1v0.1c0,3.1,10.4,3.4,12.7,3.5c0.6,0,1.2,0,1.8,0C57.6,130.1,58,131,58,132z"/>
<g>
	<path class="st1" d="M58.5,118.4c0.7,0.1,1.4,0.1,2.1,0.2c-0.5-0.1-1-0.1-1.5-0.2C58.9,118.5,58.7,118.5,58.5,118.4z"/>
	<path class="st1" d="M57.8,118.4c-0.2,2.7-0.1,5.4,0.2,8c0.1,0.7,0.1,1.7,0.2,2.9c-0.4,0-0.8,0-1.3,0c-0.6,0-1.2,0-1.8,0
		c-2.3-0.1-12.7-0.5-12.7-3.5v-0.1c0-1.1,0-2.5,0-4.1c0-1.3,0.1-2.8,0.1-4.4c0.1-4.7,0.3-10.2,0.5-15.3c1.9,0.6,7.5,2.4,10.4,2.9
		c2.3,0.4,4.6,0.8,7,0.8c0.1,0,0.2,0,0.2,0c-2.2,1.9-2.7,10.2-2.8,12.2C57.8,118.1,57.8,118.2,57.8,118.4c0.2,0,0.4,0,0.6,0
		C58.2,118.4,58,118.4,57.8,118.4z"/>
	<path class="st1" d="M58.5,118.4L58.5,118.4L58.5,118.4L58.5,118.4z"/>
	<path class="st1" d="M71.6,118.2c0.2-4.2,0.3-8.3,0.5-12.5c-3.2-0.2-6-0.3-8.3-0.4l0,0c-0.4,0.1-0.9,0.2-1.3,0.2
		c-0.2,0-0.3,0-0.5,0.1c-0.4,0-0.9,0.1-1.3,0.1l0,0c-2.2,1.9-2.7,10.2-2.8,12.2c0,0.2,0,0.3,0,0.5c0.2,0,0.4,0,0.6,0
		c-0.2,0-0.4,0-0.6,0c-0.2,2.7-0.1,5.4,0.2,8c0.1,0.7,0.1,1.7,0.2,2.9c1.8,0,3.6-0.2,5.4-0.4c1.7-0.2,6.1-0.3,7.3-1.8
		c0.7-0.8,0.6-3.4,0.7-4.4c0-0.7,0-1.3,0-1.8C71.6,120,71.5,119.2,71.6,118.2z M58.5,118.5C58.5,118.4,58.5,118.4,58.5,118.5
		c0.1,0,0.2,0,0.3,0l0,0c0.1,0,0.2,0,0.3,0C58.9,118.5,58.7,118.5,58.5,118.5z M59.1,118.5c0.1,0,0.3,0,0.4,0c0.1,0,0.1,0,0.2,0
		C59.5,118.5,59.3,118.5,59.1,118.5z"/>
	<path class="st1" d="M72.6,77.4L72.6,77.4c-5.7,2.2-12.5,2-18.7,1.5c-3.3-0.2-7-0.7-9.9-2.1c0.1-1.9,0.3-3.9,0.5-5.8
		c0-0.3,0.1-0.7,0.1-1.1c0.1-1.4,0.3-2.9,0.7-4.3c2.8,1.5,7.8,1.6,10.1,1.8c5.6,0.6,11.2,0.8,16.9,0.5c0.1,0.9,0.2,1.8,0.2,2.7
		c0,0.3,0,0.6,0,0.9C72.6,73.6,72.6,75.5,72.6,77.4z"/>
	<path class="st2" d="M71.5,64.3c-1.8-0.4-3.7-0.5-5.5-0.6c-3.9-0.2-7.9-0.5-11.8-0.4c-2.2,0-5.6-0.3-8.2,0.2c0.4-1,0.9-1.8,1.5-2.6
		c1.6-1.9,3.9-3.1,5.4-5c2-2.7,2.2-6.3,2.3-9.6c0-0.1,0-0.3,0-0.4c0.1-4.5,0.3-8.6,0.4-12.9c0-1.5,0.1-3,0.1-4.6v-0.2
		c0-0.3,0.3-0.6,0.6-0.7c2.2-0.3,4.4-0.3,6.6,0c0.4,0.1,0.7,0.4,0.7,0.9v0.4c-0.2,6.3-0.3,11.4-0.4,17.7v0.1l0,0
		c-0.1,3.3-0.1,6.9,1.8,9.6c1.4,2,3.6,3.3,5.1,5.3C70.7,62.3,71.1,63.2,71.5,64.3z"/>
	<path class="st3" d="M72.6,86.9c-0.1,2.8-0.2,5.7-0.2,8.5c-0.1,2.5-0.2,5-0.2,7.5c-0.2,0.1-0.5,0.2-0.7,0.3
		c-0.2,0.1-0.5,0.2-0.7,0.3c-0.4,0.2-0.9,0.3-1.3,0.5s-0.9,0.3-1.4,0.4c-0.7,0.2-1.4,0.4-2.2,0.6c-0.7,0.2-1.4,0.3-2.2,0.5l0,0
		c-0.4,0.1-0.9,0.2-1.3,0.2c-0.2,0-0.3,0-0.5,0.1c-0.4,0-0.9,0.1-1.3,0.1l0,0c-0.1,0-0.2,0-0.2,0c-2.3,0-4.7-0.4-7-0.8
		c-2.9-0.5-8.4-2.3-10.4-2.9c0.2-7.4,0.5-13.9,0.5-16c0.1-3,0.2-6.1,0.4-9.1c2.9,1.4,6.7,1.8,9.9,2.1c6.2,0.4,13,0.7,18.7-1.5
		C72.7,80.6,72.7,83.7,72.6,86.9z"/>
	<path class="st3" d="M63.4,33.2c-1.3,0.3-2.5,0.5-3.8,0.5c-1.4,0-2.8-0.3-4.1-0.9l-0.4,12.9c1.1,0.4,2.3,0.6,3.5,0.6
		c1.5,0.1,3,0.2,4.5,0.1L63.4,33.2z"/>
	<path class="st1" d="M72.2,68c-5.6,0.3-11.3,0.1-16.9-0.5c-2.3-0.3-7.4-0.3-10.1-1.8c0.2-0.8,0.4-1.5,0.7-2.2
		c2.6-0.5,6-0.2,8.2-0.2c4,0,7.9,0.2,11.8,0.4c1.9,0.1,3.7,0.2,5.5,0.6C71.9,65.5,72.1,66.7,72.2,68z"/>
</g>
<path class="st4" d="M179.6,142.9c0.2,0.4,0.5,0.6,0.8,0.7c0.7,0.3,1,0.9,1.3,1.5c0.4,1.1,0.1,2-1,2.6c-1.5,0.8-3.2,0.8-4.8,0.5
	c-1.4-0.2-2.7-0.5-4-0.9c-0.8-0.2-1.5-0.2-2.3-0.3c-0.5-0.1-0.8,0.1-1.1,0.6c-0.4,0.8-1.1,1.3-2.1,1.5c-2.3,0.5-4.6,0.4-6.9,0
	c-0.5-0.1-1.1-0.2-1.7-0.4c-0.5-0.1-0.9-0.3-1.3-0.5c-1.1-0.7-1.4-1.6-0.9-2.8c0.3-0.7,0.7-1.2,1.1-1.7c0.2-0.3,0.5-0.4,0.5-0.8
	c-0.3-0.3-0.8-0.3-1.1-0.4c-0.6-0.2-1.3-0.3-1.8-0.5c-1.4-0.5-2-2.1-1.4-3.5c0.5-1.3,1.5-2,2.8-2.2c1.6-0.3,3.3-0.3,4.9,0.1
	c0.1,0,0.2,0.1,0.3,0.1c1.9,0,3.8,0,5.7,0.1c0.2,0,0.4,0,0.4-0.2c0.1-0.2-0.1-0.3-0.3-0.4c-0.4-0.3-0.8-0.5-1.1-0.8
	c-0.3-0.2-0.5-0.4-0.7-0.6c-0.7-0.8-0.5-1.8,0.5-2.1c1.4-0.4,2.8-0.8,4.3-0.9c1.3-0.1,2.7-0.1,4,0c1,0.1,2,0.3,2.7,1
	c1,0.8,2.2,1.3,3.3,1.8c0.9,0.4,1.8,0.3,2.7,0.2c1.2-0.1,2.4-0.2,3.6-0.3c1.1-0.1,2.3-0.1,3.4,0.2c2.2,0.5,3.3,2,3.9,4
	c0.4,1.3-0.1,2.2-1.3,2.9c-1,0.6-2.1,0.8-3.3,0.9c-2.1,0.1-4.3,0.1-6.4,0.2C181.6,142.5,180.7,142.6,179.6,142.9z"/>
<path class="st2" d="M143.6,85.5"/>
<path class="st5" d="M83.8,135.5c-5.1-0.3-10.2-0.6-15.3-0.9c-1.6-0.1-2.9,0-4.6-0.1c-1-0.1-3.6-0.1-4.4-0.8
	c-0.9-0.7-1.2-2.7-1.4-4.4c-0.1-1.1-0.2-2.2-0.2-2.9c-0.3-2.7-0.3-5.4-0.2-8c0.2,0,0.4,0,0.6,0h0.1l0,0l0,0c0.1,0,0.2,0,0.3,0l0,0
	c0.1,0,0.2,0,0.3,0l0,0c0.2,0,0.4,0,0.6,0.1h0.1c0.2,0,0.5,0.1,0.7,0.1c0.5,0.1,1,0.1,1.4,0.2c0.5,0.1,1,0.2,1.4,0.3
	c0.7,0.1,1.5,0.3,2.2,0.5s1.3,0.3,2,0.4c1,0.2,2,0.4,3,0.6c0.3,0.1,0.7,0.1,1,0.2c0.7,0.1,1.3,0.2,2,0.3c2.6,0.2,5.2,0.1,7.8,0
	c-0.1,0.9-0.2,1.7-0.2,2.6C81.2,127.4,82.5,131.8,83.8,135.5z"/>
<path class="st1" d="M72.1,102.9c0,1-0.1,1.9-0.1,2.9c-3.2-0.2-6-0.3-8.3-0.4c0.7-0.1,1.4-0.3,2.2-0.5c0.7-0.2,1.4-0.4,2.2-0.6
	c0.5-0.1,0.9-0.3,1.4-0.4c0.5-0.2,0.9-0.3,1.3-0.5c0.2-0.1,0.5-0.2,0.7-0.3C71.6,103.1,71.9,103,72.1,102.9z"/>
<path class="st2" d="M85.3,106.4c-0.7,1.9-2.6,7.4-3.1,10.3c-0.3,1.5-0.6,2.9-0.8,4.4c-2.6,0.1-5.2,0.3-7.8,0
	c-0.7-0.1-1.3-0.1-2-0.3c-0.3-0.1-0.7-0.1-1-0.2c-1-0.2-2-0.4-3-0.6c-0.7-0.2-1.3-0.3-2-0.4c-0.7-0.2-1.5-0.3-2.2-0.5
	c-0.5-0.1-1-0.2-1.4-0.3c-0.5-0.1-1-0.2-1.4-0.2c-0.2,0-0.5-0.1-0.7-0.1h-0.1c-0.1,0-0.1,0-0.2,0c-0.2,0-0.5-0.1-0.7-0.1
	c-0.4,0-0.7-0.1-1.1-0.1c0-0.2,0-0.3,0-0.5c0.1-2,0.6-10.3,2.8-12.2l0,0c0.3-0.3,0.6-0.4,1-0.4c0.6,0,1.3,0,2.1,0.1l0,0
	c2.3,0.1,5.2,0.2,8.3,0.4C76.2,106,80.9,106.2,85.3,106.4z"/>
<path class="st3" d="M109.2,136.6c-3.1,0-6.3-0.1-9.4-0.3c-2.8-0.1-5.7-0.3-8.5-0.4c-2.5-0.1-5-0.3-7.5-0.4
	c-1.3-3.7-2.6-8.1-2.6-11.8c0-0.9,0.1-1.7,0.2-2.6c0.2-1.5,0.5-2.9,0.8-4.4c0.6-2.9,2.5-8.4,3.1-10.3c7.4,0.4,13.9,0.8,16,0.9
	c3,0.1,6.1,0.3,9.1,0.6c-1.4,2.9-2,6.6-2.3,9.9c-0.2,2.3-0.4,4.7-0.5,7.1C107.6,128.9,107.9,133,109.2,136.6z"/>
<path class="st5" d="M130.9,129.2l-0.1,0.1c-2.1,1.3-3.4,3.6-5.4,5c-2.7,1.9-6.1,2.1-9.4,2.2c-0.3,0-0.6,0-0.9,0
	c-1.9,0-3.9,0.1-5.8,0.1c-1.3-3.6-1.6-7.7-1.5-11.7c1.4,0,2.8,0.1,4.1,0.2C118.3,125.6,124.6,127.9,130.9,129.2z"/>
<path class="st2" d="M159.6,127.9c-0.1,0.4-0.5,0.7-0.9,0.7h-0.4c-6.3-0.3-11.4-0.5-17.7-0.8h-0.1c-3.3-0.1-6.8-0.2-9.5,1.5
	c-6.3-1.3-12.6-3.6-19.1-4.1c-1.4-0.1-2.8-0.1-4.1-0.2c0-2.4,0.2-4.8,0.5-7.1c0.3-3.3,0.9-7,2.3-9.9c1.9,0.2,3.9,0.4,5.8,0.6
	c0.4,0,0.7,0.1,1.1,0.1c3.2,0.4,6.7,1,9.1,3.1c1.9,1.6,3,3.9,4.9,5.5c2.6,2.1,6.2,2.4,9.6,2.5c4.7,0.2,8.9,0.5,13.3,0.7
	c1.5,0.1,3,0.2,4.6,0.2h0.2c0.3,0,0.6,0.3,0.7,0.6C160,123.5,160,125.7,159.6,127.9z"/>
<line class="st6" x1="109.2" y1="136.6" x2="109.2" y2="136.6"/>
<line class="st6" x1="110.4" y1="107.9" x2="110.4" y2="107.9"/>
<path class="st5" d="M153.6,128.3c-0.3-1.3-0.4-2.5-0.4-3.8c0-1.4,0.4-2.9,1-4.1l-12.9-0.6c-0.4,1.1-0.6,2.3-0.7,3.5
	c-0.1,1.5-0.2,3-0.2,4.5L153.6,128.3z"/>
</svg>
