<?xml version="1.0" encoding="utf-8"?>
<!-- Generator: Adobe Illustrator 23.0.3, SVG Export Plug-In . SVG Version: 6.00 Build 0)  -->
<svg version="1.1" id="Calque_1" xmlns="http://www.w3.org/2000/svg" xmlns:xlink="http://www.w3.org/1999/xlink" x="0px" y="0px"
	 viewBox="0 0 200 200" style="enable-background:new 0 0 200 200;" xml:space="preserve">
<style type="text/css">
	.st0{fill:#BDCCD4;stroke:#000000;stroke-width:2;stroke-linecap:round;stroke-linejoin:round;stroke-miterlimit:10;}
	.st1{fill:#FFE6B4;stroke:#000000;stroke-width:2;stroke-linecap:round;stroke-linejoin:round;stroke-miterlimit:10;}
	.st2{stroke:#000000;stroke-width:2;stroke-linecap:round;stroke-linejoin:round;stroke-miterlimit:10;}
	.st3{fill:none;stroke:#000000;stroke-width:2;stroke-linecap:round;stroke-linejoin:round;stroke-miterlimit:10;}
	.st4{fill:none;stroke:#FFE6B4;stroke-width:2;stroke-linecap:round;stroke-linejoin:round;stroke-miterlimit:10;}
</style>
<path class="st0" d="M157,67.5L157,67.5c-4.3,4.3-11.1,8.4-13.4,9.8c-5.4,3.4-10.9,6.5-16.4,9.4c-7.3,3.8-14.8,7-22.7,9.5
	c-1.3,0.4-2.7,0.9-4,1.2c-8.3,2.4-17,4.7-25.6,4.7c-6.3,0-12.8,1-19,1.9c-7,1-14.3,1.3-21.4,1.5c-3.3,0.1-6.9-0.2-10.3-1.2
	c-0.5-0.1-0.9-0.3-1.4-0.4c-2.9-0.9-5.6-2.2-7.8-4c0.1-0.3,0.2-0.7,0.3-1c1.9-6,4.6-10.4,8.9-15c6-6.4,12.7-10.8,20.7-14.4
	c8.2-3.7,17.2-5.6,25.8-8.1c4.5-1.3,8.6-1.7,13.3-1.6c5.2,0.1,10.7,2.5,15.8,1.3c4.8-1.2,8.8-3.1,13.8-3.8c3.1-0.4,6.1-0.6,9.2,0.1
	c2.8,0.7,5.2,1.8,8.1,1.6c3.2-0.2,6.2-1.8,9.4-2.5c2.8-0.6,5.7-0.5,8.6-0.5c3.7,0,8.3-0.6,11,2.5C161.8,61.3,160.1,64.5,157,67.5z"
	/>
<path class="st1" d="M126,98.8c-5.1,5.6-14.7,4.8-19.8-0.2c-0.7-0.7-1.3-1.5-1.7-2.4c7.9-2.5,15.4-5.8,22.7-9.5
	C129.1,90.2,128.2,96.4,126,98.8z"/>
<path class="st2" d="M173.1,79.7c-0.2,2.1-0.8,5-1.5,7.3c-2.5,2.8-5.5,5.5-8.3,8c-3,2.8-6.8,5.5-10.4,7.5c-3.3,1.8-7.7,2-11.3,3.2
	c-11.5,3.6-23.3,5.6-35.2,6.3c-11.4,0.6-22.8,3-34.3,3.2c-9.7,0.2-19.5-0.4-28.8-2.5c-3.8-0.8-15.3-7.3-19.1-8.2
	c3.4,0.9,7,1.3,10.3,1.2c7.1-0.2,14.4-0.5,21.4-1.5c6.2-0.9,12.7-1.9,19-1.9c8.7,0,17.3-2.3,25.6-4.7c1.4-0.4,2.7-0.8,4-1.2
	c0.4,0.9,1,1.7,1.7,2.4c5,5,14.6,5.8,19.8,0.2c2.2-2.4,3.1-8.6,1.3-12.1c5.6-2.9,11-6.1,16.4-9.4c2.2-1.4,9.1-5.4,13.4-9.7
	c4,1.1,8,2.8,11.5,5.1C171.2,74.4,173.5,76.3,173.1,79.7z"/>
<path class="st0" d="M171.6,87c-0.2,0.6-0.3,1.2-0.5,1.7c-1.1,3.1-1.8,6.4-4.2,8.9c-6.4,6.7-10.3,14.7-19.8,17.6
	c-4.1,1.3-8.1,1.6-12.3,2.5c-3.9,0.8-7.8,3-11.2,4.9c-3.2,1.8-6,4.2-9.5,5.3c-4.3,1.3-8.5,1.8-12.9,1.4c-7-0.6-14.3-3.5-20.9-5.9
	c-5.3-1.9-9.7-1-15.1,0c-10.3,2.1-19.4,0.3-27.7-6c-3.6-2.8-3.6-2.8-8.6-5.7c0,0-4-2.7-5.9-4.4c-1.5-1.5-6.6-5.7-8.1-7.2
	c2.2,1.8,4.9,3.1,7.8,4c0.5,0.1,0.9,0.3,1.4,0.4c3.8,0.9,15.2,7.4,19.1,8.2c9.3,2,19.1,2.6,28.8,2.5c11.5-0.2,22.9-2.6,34.3-3.2
	c12-0.7,23.7-2.7,35.2-6.3c3.6-1.1,8-1.4,11.3-3.2c3.6-2,7.4-4.7,10.4-7.5C166.1,92.5,169.1,89.8,171.6,87z"/>
<path class="st3" d="M57,83.1c5.8,2.1,13,0,18.6-2c4.7-1.7,12-3.4,15.3-7.3"/>
<path class="st3" d="M28.2,93.4c5.2-0.1,10.7,2.2,16.1,2.1c5.9-0.1,11.5-1.7,17.3-2.7c4.9-0.8,10.2-1.7,15.1-3
	c3.5-1,8.9-2.4,11.1-5.4"/>
<path class="st3" d="M106.6,81c3.7,0.2,8.9-2.3,13.1-3.5c4.1-1.2,7.5-2.1,11.1-4.7"/>
<g>
	<path class="st4" d="M137,100.3c16-2.2,32-4.4,48-6.6c-0.3,0-0.7,0-1,0"/>
	<path class="st4" d="M132.5,108.7c9.8,8.1,19.6,16.2,29.5,24.2"/>
	<path class="st4" d="M119.2,114.8c2.7,14.2,5.3,28.4,8,42.7"/>
	<path class="st4" d="M107.4,114.5c-7.3,14.9-8.8,18-16,32.8"/>
	<path class="st4" d="M101.1,111.6c-12.6,5.2-25.3,10.4-37.9,15.6"/>
	<path class="st4" d="M153.1,87.3c-0.6,0.3-1.2,0.7-1.8,1c7.2-5.1,14.3-10.2,21.5-15.3"/>
</g>
</svg>
