<?xml version="1.0" encoding="utf-8"?>
<!-- Generator: Adobe Illustrator 27.5.0, SVG Export Plug-In . SVG Version: 6.00 Build 0)  -->
<svg version="1.1" id="Calque_1" xmlns="http://www.w3.org/2000/svg" xmlns:xlink="http://www.w3.org/1999/xlink" x="0px" y="0px"
	 viewBox="0 0 200 200" style="enable-background:new 0 0 200 200;" xml:space="preserve">
<style type="text/css">
	.st0{stroke:#000000;stroke-width:0.7009;stroke-miterlimit:10;}
</style>
<path class="st0" d="M34.4,110.8c0.5-0.9,1.2-1.6,2-2.4c1.2-1.2,1.9-2.6,3-3.8c2.6-3,5.9-5.6,9.1-8c6.4-4.8,13.6-8.5,21.2-10.9
	c8.7-2.7,17.8-4.6,26.8-5.6c4.7-0.5,9.3-1.8,14-2.3c4.7-0.5,8.4,1.9,13.1,1.9c5.3,0,8.1,0.5,13.2,2.9c5.5,2.6,11.2,5,16.7,7.8
	c11.2,5.6,17.9,11.6,19.1,24.6c0.6,5.7,0.9,11.3-2.1,16.5c-4.9,8.2-14.8,11.4-23.2,14.8c-19.8,8-39,16.1-60.8,11.8
	c-9-1.8-17.3-4.5-25.9-7.1c-7.5-2.3-15.1-3.4-17.9-11.9c-1.1-3.4-1.6-6.7-3.8-9.7c-1.9-2.5-3.9-4-4.4-7.3c-0.5-2.9-0.7-6.3-0.6-9.2
	C33.8,112.1,34.1,111.4,34.4,110.8z"/>
</svg>
