<?xml version="1.0" encoding="utf-8"?>
<!-- Generator: Adobe Illustrator 23.0.3, SVG Export Plug-In . SVG Version: 6.00 Build 0)  -->
<svg version="1.1" id="Calque_1" xmlns="http://www.w3.org/2000/svg" xmlns:xlink="http://www.w3.org/1999/xlink" x="0px" y="0px"
	 viewBox="0 0 200 200" style="enable-background:new 0 0 200 200;" xml:space="preserve">
<style type="text/css">
	.st0{stroke:#000000;stroke-miterlimit:10;}
	.st1{fill:none;stroke:#000000;stroke-miterlimit:10;}
	.st2{fill:#83C2E1;stroke:#000000;stroke-miterlimit:10;}
	.st3{fill:#F2F2F2;stroke:#000000;stroke-miterlimit:10;}
	.st4{fill:#BDCCD4;stroke:#000000;stroke-linecap:round;stroke-linejoin:round;stroke-miterlimit:10;}
	.st5{fill:#F2F2F2;stroke:#000000;stroke-linecap:round;stroke-linejoin:round;stroke-miterlimit:10;}
	.st6{stroke:#000000;stroke-linecap:round;stroke-linejoin:round;stroke-miterlimit:10;}
	.st7{fill:none;stroke:#000000;stroke-linecap:round;stroke-linejoin:round;stroke-miterlimit:10;}
	.st8{fill:#83C2E1;stroke:#000000;stroke-linecap:round;stroke-linejoin:round;stroke-miterlimit:10;}
	.st9{fill:#FF868B;stroke:#000000;stroke-width:0.3012;stroke-miterlimit:10;}
	.st10{fill:#FFC1C2;stroke:#000000;stroke-width:0.3012;stroke-miterlimit:10;}
	.st11{fill:none;stroke:#000000;stroke-width:0.3012;stroke-miterlimit:10;}
	.st12{fill:#83C2E1;stroke:#000000;stroke-width:0.3012;stroke-miterlimit:10;}
	.st13{fill:#FFE6B4;stroke:#000000;stroke-width:0.3012;stroke-miterlimit:10;}
	.st14{fill:#FF868B;stroke:#000000;stroke-width:0.2757;stroke-miterlimit:10;}
	.st15{fill:#FFC1C2;stroke:#000000;stroke-width:0.2757;stroke-miterlimit:10;}
	.st16{fill:none;stroke:#000000;stroke-width:0.2757;stroke-miterlimit:10;}
	.st17{fill:#83C2E1;stroke:#000000;stroke-width:0.2757;stroke-miterlimit:10;}
	.st18{fill:#FFE6B4;stroke:#000000;stroke-width:0.2757;stroke-miterlimit:10;}
</style>
<g>
	<path class="st0" d="M50,81.8c-1.1-0.2-2.1-0.5-3.1-0.9c-2-0.8-3.9-2.2-4.9-4.1c-0.2-0.3-0.3-0.5-0.4-0.8c-0.3-0.8-0.4-1.6-0.4-2.5
		v-0.1c0-2.4,1.2-4.9,2.7-7c1.9,4.9,3.9,9.9,5.8,14.8C49.8,81.4,49.9,81.6,50,81.8z"/>
	<path class="st1" d="M60.1,54c-0.4,0.2-0.8,0.3-1.2,0.5"/>
	<path class="st0" d="M70.2,53c-0.4,5.3-0.7,10.6-1.1,15.8c-0.1,1.1-0.2,2.1-0.2,3.2c0,0.4-0.1,0.9-0.1,1.3c0,0,0,0,0-0.1
		c-2.5-6.3-5-12.5-7.6-18.6l0,0l0,0l0,0l0,0c-0.2-0.2-0.4-0.3-0.6-0.5c2.4-0.5,4.9-0.8,7.4-1c0.5,0,1.1-0.1,1.6-0.1
		C69.7,53,70,53,70.2,53z"/>
	<path class="st0" d="M147.5,64.6L147.5,64.6c0,0.1,0,0.2-0.1,0.3c-0.6,2.8-2.9,5.5-5.1,7.7c-1.3,1.3-2.5,2.5-3.8,3.8
		c-1.5-7-3-14-4.6-20.8c0.8,0.1,1.6,0.2,2.4,0.2c4.3,0.5,9.5,1.6,10.9,5.6C147.6,62.4,147.7,63.5,147.5,64.6z"/>
	<path class="st2" d="M149.6,146.7c-2,4.4-5.9,7.6-9.6,10.7c-3.8,3.1-7.8,6.3-12.5,7.9c-4.7,1.6-9.8,1.4-14.8,1.2
		c-17.6-0.7-35.3-1.4-52.9-2.1c-2.9-0.1-6-0.3-8.3-2.1c-3.5-2.7-3.7-7.9-3.7-12.4c0.1-6.3,0-12.7-0.2-19.2c19.9,1.5,40,2,59.9,2.5
		c3.3,0.1,6.7,0.1,9.6-1.2c3.1-1.4,5.4-4.1,7.5-6.8c3.8-5,7.3-10.3,10.4-15.8c0.5-0.9,1-1.9,1.5-2.9c0.9-1.8,1.8-3.5,2.6-5.3
		c1.2,0,2.4-0.7,3.2-1.6c0.2-0.2,0.3-0.4,0.5-0.6l0,0c0.6-0.8,1.1-1.8,1.4-2.8c1.9-5.4,1.7-11.5-0.5-16.8c1.6-0.9,3.2-1.7,3.9-3.6
		c2.4,16.8,0.5,35.9,2.9,52.7C151.3,134.7,152.2,141.2,149.6,146.7z"/>
	<path class="st1" d="M45.9,104c0,0.1-0.1,0.2-0.1,0.3"/>
	<path class="st1" d="M46.1,103.4c-0.1,0.2-0.1,0.4-0.2,0.6"/>
	<path class="st3" d="M139.1,101.2c-0.8,1.8-1.7,3.6-2.6,5.3c-0.5,1-1,1.9-1.5,2.9c-3,5.5-6.5,10.8-10.4,15.8
		c-2.1,2.7-4.4,5.4-7.5,6.8c-3,1.3-6.4,1.3-9.6,1.2c-20-0.5-40-1-59.9-2.5l0,0c-1-0.1-2.1-0.2-3.1-0.2c-3.5-0.3-7.7-1-9.2-4.3
		c-1.1-2.4-0.4-5.2,0.5-7.7c1.4-4,3.2-7.8,5.3-11.4c0.9,0.9,2,1.7,3.1,2.2c-0.8,2.4-1.5,4.9-2.3,7.3c-0.5,1.7-1.1,3.6-0.4,5.3
		c0.9,2.2,3.4,3,5.8,3.4l0,0c0.5,0.1,1,0.1,1.5,0.2c19.9,1.7,39.9,2.7,59.9,2.8c2.4,0,4.9,0,7.1-1.1c2.6-1.3,4.2-3.8,5.7-6.3
		c2.2-3.6,4.5-7.2,6.7-10.8c0.5-0.8,1-1.6,1.5-2.4c1.8-3,3.7-5.9,5.5-8.9c0,0.1,0.1,0.1,0.1,0.2c0.8,1.1,2.1,2.1,3.5,2.1h0.3V101.2z
		"/>
	<path class="st3" d="M47.3,125.4L47.3,125.4c-2.5-0.4-5-1.2-5.9-3.4c-0.7-1.7-0.1-3.6,0.4-5.3c0.8-2.4,1.5-4.9,2.3-7.3
		c-1.2-0.5-2.3-1.3-3.1-2.2c-1.2-1.3-2.1-3-2.4-4.7c-0.6-4.1,2-8.3,5.8-9.8c0.1,0,0.1,0,0.2-0.1c0.5,3.8,0.9,7.5,1.2,11.4l0,0
		C46.5,111.1,47,118.2,47.3,125.4z"/>
	<path class="st1" d="M44.9,92.5c-0.1,0-0.2,0.1-0.3,0.1"/>
	<path class="st1" d="M46.3,110.1c-0.7-0.1-1.5-0.3-2.2-0.6"/>
	<path class="st3" d="M144.2,96.3c-0.4,1-0.8,2-1.4,2.8l0,0c-0.1,0.2-0.3,0.4-0.5,0.6c-0.8,0.9-2,1.5-3.2,1.6h-0.3
		c-1.4-0.1-2.7-1-3.5-2.1c0-0.1-0.1-0.1-0.1-0.2c-0.7-1.1-1.2-2.4-1.6-3.6c-0.7-2-1.3-4-2-6c2.5-1.9,4.6-4.3,7.3-6
		c0.2-0.1,0.5-0.4,0.8-0.7c0.9-0.7,1.9-1.8,2.4-2.1c0.5-0.4,1.1-0.7,1.6-1C145.9,84.7,146.1,90.9,144.2,96.3z"/>
	<path class="st1" d="M147.6,75.9c-0.7,1.9-2.3,2.6-3.9,3.6c-0.5,0.3-1.1,0.6-1.6,1c-0.4,0.3-1.5,1.3-2.3,2.1
		c-0.3,0.3-0.6,0.5-0.8,0.7c-2.6,1.8-4.8,4.1-7.3,6c-1,0.8-2.1,1.5-3.2,2.1c-2.1,1-4.4,1.2-6.7,1.4c-0.3,0-0.5,0-0.8,0
		c-1.7,0.1-3.3,0.2-4.9,0.2c-0.9,0-1.9,0.1-2.8,0.1h-0.7c-1.7,0-3.4,0-5,0c-4.3,0-8.7-0.2-13-0.5c-0.5,0-1,0-1.5-0.1
		c-0.1,0-0.2,0-0.4,0c-1.6-0.1-3.2-0.2-4.8-0.3c-4.1-0.3-8.2-0.6-12.2-1h-0.1c-2.1-0.2-4.1-0.3-6.2-0.5c-0.6,0-1.1-0.1-1.7-0.1
		l-12.5-1c-0.7-0.1-1.4-0.1-2.1-0.2c-1.5-0.1-2.9-0.3-4.4-0.3c-1.4,0-3.1,0.4-4.4,0c-0.4-0.1-0.7-0.3-1-0.7c-3-3.5-2-8.6-2-14.9
		c0,0.8,0.1,1.7,0.4,2.5c0.1,0.3,0.2,0.6,0.4,0.8c1,1.9,2.9,3.3,4.9,4.1c1,0.4,2,0.7,3.1,0.9c1,0.2,2,0.3,3,0.5
		c0.4,0,0.9,0.1,1.3,0.1c1.1,0.1,2.2,0.3,3.3,0.4c1.4,0.2,2.7,0.3,4.1,0.5c1.4,0.2,2.8,0.3,4.3,0.5c0.7,0.1,1.4,0.1,2.1,0.2
		c1.5,0.1,2.9,0.3,4.4,0.4c0.2,0,0.4,0,0.7,0c1.4,0.1,2.7,0.2,4.1,0.4c2.9,0.2,5.8,0.5,8.8,0.7c0.8,0.1,1.7,0.1,2.5,0.2
		c0.7,0.1,1.4,0.1,2.1,0.2c0.5,0,1,0.1,1.5,0.1c0.7,0,1.4,0.1,2,0.1c4.3,0.2,8.5,0.5,12.8,0.7c1.8,0.1,3.6,0.1,5.4,0.1
		c0.6,0,1.2,0,1.8,0c0.3,0,0.5,0,0.8,0c1.6-0.1,3.2-0.2,4.8-0.4c2-0.3,4-0.7,5.9-1.4c0.4-0.1,0.8-0.3,1.2-0.4
		c3.4-1.4,6.4-3.4,9.2-5.8c0.9-0.8,1.8-1.6,2.6-2.4c1.3-1.2,2.6-2.5,3.8-3.8c2.2-2.2,4.5-4.9,5.1-7.7c0-0.1,0.1-0.2,0.1-0.3
		C148.3,67.9,148.5,73.3,147.6,75.9z"/>
</g>
<g>
	<path class="st4" d="M61.1,54.7c-0.4,0-0.8,0.1-1.2,0.1c-0.1,0-0.1,0-0.2,0c0,0,0,0-0.1,0c-0.2,0-0.3,0-0.5,0.1c-0.1,0-0.2,0-0.3,0
		s-0.2,0-0.3,0s-0.2,0-0.4,0.1c-0.4,0.1-0.5,0.1-0.7,0.1l0,0l0,0l0,0c-0.3,0-0.6,0.1-0.8,0.2c-0.4,0.1-0.8,0.2-1.2,0.3
		c-0.6,0.1-1.2,0.3-1.8,0.5c-0.4,0.1-0.8,0.2-1.2,0.4l0,0c-0.4,0.1-0.8,0.3-1.2,0.4c-0.4,0.1-0.8,0.3-1.2,0.4
		c-0.4,0.2-0.8,0.3-1.2,0.5s-0.7,0.3-1.1,0.5c0,0,0,0-0.1,0c-0.7,0.3-1.3,0.6-1.9,1c-0.1,0.1-0.3,0.1-0.4,0.2
		c-0.3,0.2-0.7,0.4-1,0.6c-0.4,0.2-0.7,0.4-1.1,0.7l0,0c-0.4,0.2-0.7,0.5-1.1,0.7c-0.2-1.2-0.3-2.5-0.2-3.8
		c4.6-3.2,9.9-5.2,15.5-5.9c0.9,0.6,2.1,1.5,3.1,2.4l0,0C60.7,54.3,60.9,54.5,61.1,54.7z"/>
	<path class="st5" d="M43.2,60.8c-0.4,0.2-0.7,0.5-1.1,0.7l0,0C42.5,61.3,42.9,61,43.2,60.8z"/>
	<path class="st4" d="M68.7,73.4c-0.2,3.5-0.5,7.1-0.7,10.6c-0.7-0.1-1.4-0.1-2.1-0.2c-1.4-0.1-2.9-0.3-4.3-0.4
		c0.6-0.6,1.1-1.4,1.5-2.1c0.9-2,0.2-4.5-0.7-6.4c-0.1-0.2-0.1-0.3-0.2-0.5c-0.1,0-0.1,0-0.2,0c-0.5-1.1-0.9-2.2-1.2-3.4
		c-0.4-1.5-0.7-3.3-1.4-4.7c0.1,0,0.1,0,0.2-0.1c0.2-0.1,0.3-0.3,0.2-0.6l0,0c-0.2-0.7-1.1-1.7-1.3-2c-0.8-0.8-1.9-1.5-3-1.9
		c-0.5-0.2-1.1-0.3-1.6-0.4c-0.5-0.1-1-0.1-1.5,0.1h-0.1c-1.5,0.4-2.1,1.6-2.9,2.9c-0.6,1.1-1.1,3.9-0.3,5.2
		c0.1,1.5,0.9,3.1,1.2,4.6c0.3,1.2,0.6,2.4,0.9,3.5l0.1-0.1c0.1,0.4,0.3,0.9,0.4,1.3c0.3,1.1,0.7,2.4,1.3,3.5c-1-0.1-2-0.3-3-0.5
		c-0.1-0.2-0.2-0.4-0.3-0.7c-1.9-4.9-3.9-9.9-5.8-14.8c-0.5-1.3-1-2.6-1.5-3.9c-0.1-0.3-0.1-0.6-0.2-0.9l0,0
		c0.3-0.2,0.7-0.5,1.1-0.7l0,0c0.4-0.2,0.7-0.4,1.1-0.7c0.3-0.2,0.7-0.4,1-0.6c0.1-0.1,0.3-0.1,0.4-0.2c0.6-0.3,1.3-0.7,1.9-1h0.1
		c0.4-0.2,0.7-0.3,1.1-0.5c0.4-0.2,0.8-0.3,1.2-0.5s0.8-0.3,1.2-0.4c0.4-0.1,0.8-0.3,1.2-0.4l0,0c0.4-0.1,0.8-0.3,1.2-0.4
		c0.6-0.2,1.2-0.3,1.8-0.5c0.4-0.1,0.8-0.2,1.2-0.3c0.3-0.1,0.6-0.1,0.8-0.2l0,0l0,0l0,0c0.1,0,0.2,0,0.7-0.1c0.1,0,0.2,0,0.4-0.1
		c0.1,0,0.2,0,0.3,0s0.2,0,0.3,0c0.2,0,0.3-0.1,0.5-0.1c0,0,0,0,0.1,0s0.1,0,0.2,0c0.4-0.1,0.8-0.1,1.2-0.1l0,0l0,0l0,0
		C63.7,60.8,66.2,67,68.7,73.4C68.7,73.3,68.7,73.4,68.7,73.4z"/>
	<path class="st4" d="M63.1,81.2c-0.3,0.7-0.8,1.5-1.5,2.1c-1.3-0.1-2.7-0.3-4.1-0.5c-1.1-0.1-2.2-0.2-3.3-0.4
		c-0.4-0.1-0.9-0.1-1.3-0.2c-0.6-1.1-1-2.4-1.3-3.5c-0.1-0.4-0.3-0.9-0.4-1.3l-0.1,0.1c-0.3-1.2-0.6-2.4-0.9-3.5
		c-0.4-1.5-1.1-3-1.2-4.6c-0.7-1.3-0.3-4,0.3-5.2c0.7-1.3,1.4-2.5,2.9-2.9h0.1c0.5-0.1,1-0.1,1.5-0.1c0.5,0.1,1.1,0.2,1.6,0.4
		c1.1,0.4,2.2,1.1,3,1.9c0.2,0.2,1.1,1.3,1.3,2l0,0c0.1,0.3,0.1,0.5-0.2,0.6c-0.1,0-0.1,0-0.2,0.1c0.7,1.4,1,3.2,1.4,4.7
		c0.3,1.1,0.8,2.3,1.2,3.4c0.1,0,0.1,0,0.2,0c0.1,0.2,0.1,0.3,0.2,0.5C63.2,76.7,64,79.2,63.1,81.2z"/>
	<path class="st5" d="M43.2,60.8c-0.4,0.2-0.7,0.5-1.1,0.7l0,0C42.5,61.3,42.9,61,43.2,60.8z"/>
</g>
<g>
	<path class="st4" d="M89.5,50.7c-0.9,0.3-1.9,0.7-2.8,1.1l0,0c-0.4-0.1-0.8-0.2-1.2-0.3c0,0,0,0-0.1,0c-0.4-0.1-0.8-0.2-1.2-0.2
		h-0.1c-0.4-0.1-0.8-0.2-1.2-0.2c-0.2,0-0.4-0.1-0.6-0.1s-0.4-0.1-0.6-0.1c-0.1,0-0.2,0-0.2,0c-0.4,0-0.7-0.1-1.1-0.1
		c-0.3,0-0.7-0.1-1-0.1c-0.1,0-0.3,0-0.4,0c-0.3,0-0.6,0-0.9,0c-0.5,0-1,0-1.4,0c-2,0-4.1,0.2-6.1,0.5c0.3-1.2,0.8-2.4,1.5-3.5
		c5.5-0.9,11.2-0.4,16.5,1.3C88.8,49.3,89.2,50,89.5,50.7z"/>
	<path class="st4" d="M89,77.6c-0.2,2.7-0.4,5.3-0.6,8c-0.8,0-1.7-0.1-2.5-0.2c-2.9-0.2-5.8-0.4-8.8-0.7c-1.4-0.1-2.7-0.2-4.1-0.4
		c-0.2,0-0.4,0-0.7,0c-1.5-0.1-2.9-0.3-4.4-0.4c0.2-3.5,0.5-7.1,0.7-10.6c0-0.4,0.1-0.9,0.1-1.3c0.1-1.1,0.1-2.1,0.2-3.2
		c0.4-5.3,0.8-10.6,1.1-15.8c0-0.4,0-0.7,0.1-1.1c0.1-0.3,0.1-0.6,0.2-0.9c2-0.3,4-0.5,6.1-0.5c0.5,0,1,0,1.4,0c0.3,0,0.6,0,0.9,0
		c0.1,0,0.3,0,0.4,0c0.3,0,0.7,0,1,0.1c0.4,0,0.7,0.1,1.1,0.1c0.1,0,0.2,0,0.2,0c0.2,0,0.4,0.1,0.6,0.1s0.4,0.1,0.7,0.1
		c0.4,0.1,0.8,0.1,1.2,0.2c0.1,0,0.1,0,0.1,0c0.4,0.1,0.8,0.2,1.2,0.2c0,0,0,0,0.1,0c0.4,0.1,0.8,0.2,1.2,0.3
		c-0.8,0.4-1.6,0.8-2.4,1.2c-0.7,0.4-1.4,0.8-2.1,1.3c-0.2,1.3-0.1,2.5,0.1,3.8l0,0l0,0V58c0,0.3,0.1,0.5,0.1,0.8
		c0.3,0.9,0.7,1.8,1,2.8c0.1,0.2,0.2,0.5,0.2,0.7c0.2,0.4,0.3,0.8,0.4,1.2C85.7,68.4,87.4,73,89,77.6z"/>
	<path class="st5" d="M82.7,57.8c-0.2,0.1-0.4,0.2-0.5,0.3l0,0C82.4,58,82.5,57.9,82.7,57.8z"/>
	<path class="st5" d="M85.8,56.1c-0.1,0-0.2,0.1-0.2,0.1S85.6,56.2,85.8,56.1C85.6,56.2,85.7,56.1,85.8,56.1z"/>
	<path class="st5" d="M86.7,55.7C86.6,55.7,86.6,55.7,86.7,55.7C86.6,55.7,86.6,55.7,86.7,55.7C86.6,55.7,86.7,55.7,86.7,55.7z"/>
</g>
<g>
	<path class="st4" d="M101.3,51.8c-0.4,0-0.7,0.1-1.1,0.1c-0.1,0-0.2,0-0.3,0l0,0c-0.2,0-0.4,0.1-0.6,0.1c-0.1,0-0.1,0-0.2,0H99l0,0
		c-0.1,0-0.3,0-0.5,0.1l0,0c-0.4,0-0.7,0.1-1,0.1l0,0c-0.1,0-0.3,0.1-0.4,0.1s-0.3,0-0.4,0.1h-0.1c0,0,0,0-0.1,0s-0.3,0.1-0.5,0.1
		l0,0l0,0c0,0-0.1,0-0.2,0s-0.2,0-0.3,0.1c0,0,0,0-0.1,0l0,0c-0.2,0-0.3,0.1-0.5,0.1c-0.1,0-0.2,0-0.2,0.1c-0.3,0.1-0.6,0.1-0.8,0.2
		c-0.2,0-0.3,0.1-0.5,0.1l0,0c-0.2,0.1-0.3,0.1-0.5,0.1c-0.1,0-0.2,0.1-0.3,0.1c-0.4,0.1-0.8,0.2-1.1,0.3c-0.1,0.1-0.3,0.1-0.4,0.2
		c-0.1,0-0.3,0.1-0.4,0.2c-0.1,0-0.2,0.1-0.3,0.1c-0.3,0.1-0.6,0.2-1,0.4c0,0-0.1,0-0.2,0.1h-0.1c-0.4,0.1-0.7,0.3-1.1,0.4
		c0,0,0,0-0.1,0h-0.1l0,0l0,0c-0.3,0.1-0.6,0.2-0.8,0.4h-0.1l0,0l0,0l0,0l0,0h-0.1c-0.1,0.1-0.2,0.1-0.3,0.1c-0.1,0-0.2,0.1-0.2,0.1
		c-0.1,0-0.2,0.1-0.3,0.1c-0.1,0-0.1,0.1-0.2,0.1c0,0,0,0-0.1,0c-0.3,0.2-0.6,0.3-0.9,0.5c0,0-0.1,0-0.1,0.1c0,0-0.1,0-0.1,0.1
		c-0.1,0-0.1,0.1-0.2,0.1c-0.1,0.1-0.3,0.1-0.4,0.2c-0.2,0.1-0.4,0.2-0.5,0.3l0,0c-0.2,0.1-0.4,0.2-0.5,0.3
		c-0.2,0.1-0.4,0.2-0.5,0.3c-0.2-1.2-0.2-2.5-0.1-3.8c0.7-0.5,1.4-0.9,2.1-1.3c0.8-0.4,1.6-0.9,2.4-1.2l0,0c0.9-0.4,1.9-0.8,2.8-1.1
		c2.7-1,5.4-1.6,8.3-1.8C98.9,49.6,100.3,50.8,101.3,51.8z"/>
	<path class="st5" d="M82.7,57.8c-0.2,0.1-0.4,0.2-0.5,0.3l0,0C82.4,58,82.5,57.9,82.7,57.8z"/>
	<path class="st5" d="M85.8,56.1c-0.1,0-0.2,0.1-0.2,0.1S85.6,56.2,85.8,56.1C85.6,56.2,85.7,56.1,85.8,56.1z"/>
	<path class="st5" d="M86.7,55.7C86.6,55.7,86.6,55.7,86.7,55.7C86.6,55.7,86.6,55.7,86.7,55.7C86.6,55.7,86.7,55.7,86.7,55.7z"/>
	<path class="st5" d="M101.3,51.8c-0.7,0.1-1.3,0.1-2,0.2c0.2,0,0.4-0.1,0.6-0.1l0,0c0.1,0,0.2,0,0.3,0
		C100.6,51.9,101,51.9,101.3,51.8L101.3,51.8z"/>
	<path class="st4" d="M109.8,74.6L109.8,74.6c-1-2.8-2-5.5-3-8.3l-0.1-0.2c0,0,0,0,0.1,0V66c-0.3-0.9-0.7-1.9-1-2.8
		c-0.1-0.3-0.2-0.7-0.4-1c-0.5-1.4-1.1-2.9-1.6-4.3c0,0-0.1,0-0.2,0l0,0c0-0.1,0-0.2,0-0.3v-0.1l0,0c-0.5-1.3-1-2.7-1.5-4
		c-0.1-0.4-0.3-0.8-0.5-1.2c0-0.1-0.1-0.2-0.1-0.4l0,0l0,0l0,0c-0.7,0.1-1.3,0.1-2,0.2c-0.1,0-0.1,0-0.2,0h-0.1l0,0
		c-0.1,0-0.3,0-0.5,0.1l0,0c-0.4,0-0.7,0.1-1,0.1l0,0c-0.1,0-0.3,0.1-0.4,0.1s-0.3,0-0.4,0.1h-0.1c0,0,0,0-0.1,0s-0.3,0.1-0.5,0.1
		l0,0l0,0c0,0-0.1,0-0.2,0s-0.2,0-0.3,0.1c0,0,0,0-0.1,0l0,0c-0.2,0-0.3,0.1-0.5,0.1c-0.1,0-0.2,0-0.2,0.1c-0.3,0.1-0.6,0.1-0.8,0.2
		c-0.2,0-0.3,0.1-0.5,0.1l0,0c-0.2,0.1-0.3,0.1-0.5,0.1c-0.1,0-0.2,0.1-0.3,0.1c-0.4,0.1-0.7,0.2-1.1,0.3l0,0
		c-0.1,0.1-0.3,0.1-0.4,0.2c-0.1,0-0.3,0.1-0.4,0.2c-0.1,0-0.2,0.1-0.3,0.1c-0.3,0.1-0.6,0.2-1,0.4c0,0-0.1,0-0.2,0.1h-0.1
		c-0.4,0.1-0.7,0.3-1.1,0.4c0,0,0,0-0.1,0H88l0,0l0,0c-0.3,0.1-0.6,0.2-0.8,0.4h-0.1l0,0c0,0,0,0-0.1,0l0,0h-0.1
		c-0.1,0.1-0.2,0.1-0.3,0.1c-0.1,0-0.2,0.1-0.2,0.1c-0.1,0-0.2,0.1-0.3,0.1c-0.1,0-0.2,0.1-0.2,0.1c-0.3,0.2-0.6,0.3-0.9,0.5
		c0,0-0.1,0-0.1,0.1c0,0-0.1,0-0.1,0.1c-0.1,0-0.1,0.1-0.2,0.1c-0.1,0.1-0.3,0.1-0.4,0.2c-0.2,0.1-0.4,0.2-0.5,0.3l0,0
		c-0.2,0.1-0.4,0.2-0.5,0.3c-0.2,0.1-0.4,0.2-0.5,0.3l0,0v0.1c0,0.3,0.1,0.5,0.1,0.8c0.3,0.9,0.7,1.8,1,2.8c0.1,0.2,0.2,0.5,0.2,0.7
		c0.2,0.4,0.3,0.8,0.4,1.2c1.7,4.6,3.3,9.3,5,13.9c0.9,2.6,1.9,5.2,2.8,7.8l0,0c0.1,0.2,0.1,0.3,0.2,0.5c0.7,0,1.4,0.1,2,0.1
		c4.3,0.2,8.5,0.5,12.8,0.7c1.8,0.1,3.6,0.1,5.4,0.1c0.6,0,1.2,0,1.8,0C112.6,82.7,111.2,78.7,109.8,74.6z M107.2,78.9
		c-0.8,2.8-3.7,5.7-6.9,5.3c-3.2-0.4-4.7-3.7-5.9-6.2c-0.2-0.4-0.4-0.9-0.6-1.4l-0.1,0.1c-0.5-1.2-1-2.5-1.5-3.7
		c-0.6-1.6-1.7-3.1-2-4.8l0,0c-1-1.3-0.9-4.3-0.4-5.6c0.6-1.5,1.1-3,2.7-3.6l0,0c0,0,0,0,0.1,0c0.5-0.2,1.1-0.3,1.7-0.3
		s1.2,0.1,1.8,0.2c1.3,0.3,2.5,0.9,3.5,1.7c0.3,0.2,1.4,1.2,1.7,1.9l0,0c0.1,0.3,0.1,0.6-0.1,0.7c-0.1,0-0.1,0.1-0.2,0.1
		c0.2,0.3,0.4,0.6,0.5,0.9c0.2,0.4,0.5,0.9,0.7,1.4c0,0,0,0,0,0.1c0.4,0.9,0.7,1.8,1,2.5c0.5,1.2,1.1,2.3,1.8,3.5c0.1,0,0.1,0,0.2,0
		c0.1,0.2,0.2,0.3,0.3,0.5c0.7,1.1,1.4,2.5,1.7,3.9C107.5,76.9,107.5,77.9,107.2,78.9z"/>
	<path class="st6" d="M92,85.9c-0.5,0-1-0.1-1.5-0.1c-0.7-0.1-1.4-0.1-2.1-0.2c0.2-2.7,0.4-5.3,0.6-8c0.9,2.6,1.9,5.2,2.8,7.8l0,0
		C91.9,85.6,91.9,85.7,92,85.9z"/>
	<path class="st4" d="M103.7,58L103.7,58c0,0-0.1,0-0.2,0l0,0c0-0.1,0-0.2,0-0.3v-0.1l0,0l0,0l0,0C103.6,57.7,103.6,57.8,103.7,58z"
		/>
	<path class="st4" d="M105.1,71.8c-0.2,0-0.3,0-0.5,0.1c-0.5,0-0.9,0-1.3,0.2c-1,0.3-1.9,0.4-2.9,0.7c-0.1,0-0.2,0.1-0.3,0.1
		c-0.4,0.1-0.9,0.3-1.3,0.5l0,0l0,0c-0.5,0.2-0.9,0.4-1.3,0.7c-1,0.5-1.9,1.1-2.8,1.8c-0.3,0.2-0.6,0.6-0.9,0.9l-0.1,0.1
		c-0.5-1.2-1-2.5-1.5-3.7c-0.6-1.6-1.7-3.1-2-4.8l0,0c-1-1.3-0.9-4.3-0.4-5.6c0.6-1.5,1.1-3,2.7-3.6l0,0c0,0,0,0,0.1,0
		c0.5-0.2,1.1-0.3,1.7-0.3s1.2,0.1,1.8,0.2c1.3,0.3,2.5,0.9,3.5,1.7c0.3,0.2,1.4,1.2,1.7,1.9l0,0c0.1,0.3,0.1,0.6-0.1,0.7
		c-0.1,0-0.1,0.1-0.2,0.1c-0.2,0.1-0.5,0.1-0.8,0.1c-0.6,0.5-1.7,0.6-2.5,0.5c-0.1,0.1-0.2,0.1-0.2,0.2c-0.2,0.1-0.3,0.2-0.5,0.3
		c-0.5,0.2-0.9,0.4-1.3,0.6c-0.2,0.1-0.3,0.1-0.4,0.2c0.1,0.2,0.3,0.6,0.3,0.7c0.1,0.3,0.3,0.6,0.4,0.9c0.3,0.7,0.7,1.4,1,2.1
		c0.7,1.4,1.2,2.9,1.8,4.4c0,0,0.1,0,0.1-0.1c0.4-0.2,0.8-0.3,1.2-0.5c0.1,0,0.3-0.1,0.4-0.1c1-0.3,1.9-0.4,2.9-0.7
		c0.4-0.1,0.9-0.1,1.3-0.2c0.1,0,0.2,0,0.3,0C105,71.7,105.1,71.7,105.1,71.8z"/>
	<path class="st7" d="M106.8,66.3c0,0,0-0.1-0.1-0.2"/>
	<path class="st5" d="M82.7,57.8c-0.2,0.1-0.4,0.2-0.5,0.3l0,0C82.4,58,82.5,57.9,82.7,57.8z"/>
	<path class="st5" d="M85.8,56.1c-0.1,0-0.2,0.1-0.2,0.1S85.6,56.2,85.8,56.1C85.6,56.2,85.7,56.1,85.8,56.1z"/>
	<path class="st5" d="M86.7,55.7C86.6,55.7,86.6,55.7,86.7,55.7C86.6,55.7,86.6,55.7,86.7,55.7C86.6,55.7,86.7,55.7,86.7,55.7z"/>
	<path class="st5" d="M101.3,51.8L101.3,51.8c-0.7,0.1-1.3,0.1-2,0.2c0.2,0,0.4-0.1,0.6-0.1l0,0c0.1,0,0.2,0,0.3,0
		C100.6,51.9,101,51.9,101.3,51.8L101.3,51.8z"/>
	<polyline class="st7" points="101.4,51.9 101.4,51.9 101.4,51.9 	"/>
</g>
<g>
	<path class="st4" d="M122,52.4c-0.2,0-0.5,0.1-0.7,0.2l0,0c0,0,0,0-0.1,0c-0.3-0.1-0.5-0.3-0.8-0.4c-0.1,0-0.2-0.1-0.2-0.1
		c-0.3-0.1-0.6-0.3-0.9-0.4l0,0c-0.1,0-0.2-0.1-0.3-0.1c-0.3-0.1-0.6-0.2-0.8-0.3c-0.1,0-0.2-0.1-0.2-0.1l0,0
		c-0.1-0.1-0.3-0.1-0.4-0.2c-0.1-0.1-0.3-0.1-0.4-0.2l0,0c-0.1,0-0.2-0.1-0.3-0.1h-0.1c-0.2-0.1-0.3-0.1-0.5-0.2c0,0,0,0-0.1,0h-0.1
		c-0.1,0-0.2-0.1-0.3-0.1c-0.2-0.1-0.4-0.1-0.5-0.2l0,0c-0.1,0-0.1,0-0.2-0.1c-0.2-0.1-0.4-0.1-0.6-0.2c-0.1,0-0.2-0.1-0.3-0.1
		c-0.1,0-0.3-0.1-0.4-0.1s-0.1,0-0.2-0.1c-0.1,0-0.1,0-0.2-0.1c-0.2-0.1-0.3-0.1-0.5-0.1c-0.3-0.1-0.6-0.2-0.9-0.2h-0.1
		c0,0,0,0-0.1,0s-0.1,0-0.2,0c-0.2-0.1-0.5-0.1-0.7-0.2c-0.1,0-0.2,0-0.3-0.1c-0.2,0-0.5-0.1-0.7-0.1h-0.1c-0.2,0-0.3-0.1-0.5-0.1
		c-0.3,0-0.5-0.1-0.8-0.1c-0.1,0-0.2,0-0.3,0h-0.1l0,0H108h-0.1c-0.3,0-0.6-0.1-0.9-0.1c-0.1,0-0.2,0-0.3,0c-0.1,0-0.2,0-0.3,0
		c-0.5,0-1-0.1-1.5-0.1c-0.1,0-0.3,0-0.4,0s-0.2,0-0.4,0H104h-0.1c-0.2,0-0.5,0-0.7,0h-0.1c0.5-1.2,1.2-2.3,2-3.2
		c5.6-0.1,11.2,1.2,16.1,3.7C121.2,49.6,121.7,51.1,122,52.4z"/>
	<path class="st5" d="M114.9,49.9c-0.3-0.1-0.6-0.2-0.9-0.3c0.1,0,0.2,0.1,0.3,0.1C114.5,49.8,114.7,49.8,114.9,49.9z"/>
	<path class="st8" d="M135.3,98.9c-1.8,3-3.7,5.9-5.5,8.9c-0.5,0.8-1,1.6-1.5,2.4c-2.2,3.6-4.5,7.2-6.7,10.8c-1.5,2.5-3.2,5-5.7,6.3
		c-2.2,1.1-4.7,1.1-7.1,1.1c-20-0.1-40-1.1-59.9-2.8c-0.5,0-1-0.1-1.5-0.2c-0.3-7.2-0.8-14.3-1.5-21.4l0,0
		c-0.4-3.8-0.8-7.6-1.2-11.4c-0.1-1.2-0.3-2.4-0.5-3.6c1.3,0.5,3,0,4.4,0.1c1.5,0,2.9,0.1,4.4,0.3c0.7,0.1,1.4,0.1,2.1,0.2l12.5,1
		c0.6,0,1.1,0.1,1.7,0.1c2.1,0.2,4.1,0.3,6.2,0.5h0.1c4.1,0.3,8.2,0.7,12.2,1c1.6,0.1,3.2,0.2,4.8,0.3c0.1,0,0.3,0,0.4,0
		c0.5,0,1,0.1,1.5,0.1c4.3,0.3,8.7,0.4,13,0.5c1.7,0,3.4,0,5,0h0.7c0.9,0,1.9,0,2.8-0.1c1.6,0,3.3-0.1,4.9-0.2c0.3,0,0.5,0,0.8,0
		c2.3-0.2,4.7-0.4,6.7-1.4c1.1-0.6,2.2-1.3,3.2-2.1c0.7,2,1.3,4,2,6C134.1,96.5,134.5,97.8,135.3,98.9z"/>
	<path class="st4" d="M114.2,60.5c1.1,5,2.1,10.1,3.2,15.2c-0.8,3.7-1.7,7.4-2.6,11.1c-0.3,0-0.5,0-0.8,0c-1.3-4-2.8-8.1-4.2-12.2
		l0,0c-1-2.8-2-5.5-3-8.3c0,0,0-0.1-0.1-0.2V66c-0.3-0.9-0.7-1.9-1-2.8c-0.1-0.3-0.2-0.7-0.4-1c-0.5-1.4-1.1-2.9-1.6-4.3l0,0
		c0-0.1-0.1-0.3-0.1-0.4l0,0l0,0l0,0l0,0c-0.5-1.3-1-2.7-1.5-4c-0.1-0.4-0.3-0.8-0.5-1.2c0.3-1.1,0.5-2.2,0.7-3.3
		c0.1-0.3,0.2-0.6,0.4-0.9h0.1c0.2,0,0.5,0,0.7,0h0.2c0.1,0,0.2,0,0.4,0s0.2,0,0.4,0c0.3,0,0.6,0,1,0.1c0.2,0,0.3,0,0.5,0
		c0.1,0,0.2,0,0.3,0c0.1,0,0.2,0,0.3,0c0.3,0,0.6,0.1,0.9,0.1h0.1h0.1l0,0h0.1c0.1,0,0.2,0,0.3,0c0.3,0,0.5,0.1,0.8,0.1
		c0.2,0,0.3,0.1,0.5,0.1h0.1c0.2,0,0.5,0.1,0.7,0.1c0.1,0,0.2,0,0.3,0.1c0.3,0,0.5,0.1,0.8,0.2h0.1c0,0,0,0,0.1,0h0.1
		c0.1,0,0.1,0,0.1,0c0.3,0.1,0.6,0.1,0.9,0.2c0.2,0,0.3,0.1,0.5,0.1c0.1,0,0.2,0,0.2,0.1c0.1,0,0.1,0,0.2,0s0.3,0.1,0.4,0.1
		c0.3,0.1,0.6,0.2,0.9,0.3c0.1,0,0.1,0,0.2,0.1l0,0c0.2,0,0.3,0.1,0.5,0.2c0.1,0,0.2,0.1,0.3,0.1h0.1c0,0,0,0,0.1,0
		c0.2,0.1,0.3,0.1,0.5,0.2h0.1c0.1,0,0.2,0.1,0.3,0.1l0,0c0.1,0.1,0.3,0.1,0.4,0.2c0.1,0,0.3,0.1,0.4,0.2l0,0c0.1,0,0.1,0,0.2,0.1
		c0.3,0.1,0.5,0.2,0.8,0.3c0.1,0,0.2,0.1,0.3,0.1l0,0c0.3,0.1,0.6,0.3,0.9,0.4c0.1,0,0.2,0.1,0.2,0.1c0.3,0.1,0.5,0.2,0.8,0.4h0.1
		c-1.8,0.4-3.5,1-5.2,1.6l0,0c-0.6,0.2-1.1,0.5-1.7,0.7c-0.1,0.3-0.2,0.6-0.2,0.9c0,0.2-0.1,0.4-0.1,0.5c-0.1,0.4-0.1,0.7-0.1,1.1
		c0,0.1,0,0.2,0,0.3c0,0.3,0,0.7,0,1l0,0c0,0.2,0,0.4,0,0.7c0,0.1,0,0.2,0,0.3C114.1,59.9,114.1,60.2,114.2,60.5z"/>
	<path class="st5" d="M114.9,49.9c-0.3-0.1-0.6-0.2-0.9-0.3c0.1,0,0.2,0.1,0.3,0.1C114.5,49.8,114.7,49.8,114.9,49.9z"/>
	<line class="st7" x1="122.2" y1="53" x2="122.1" y2="53"/>
</g>
<g>
	<path class="st4" d="M133.8,55.1L133.8,55.1c-1-0.1-2-0.1-3-0.1c-0.7,0-1.4,0-2.2,0.1l0,0l0,0c-0.3,0-0.7,0-1,0.1
		c-0.4,0-0.7,0.1-1.1,0.1s-0.7,0.1-1.1,0.1s-0.7,0.1-1.1,0.2c-0.1,0-0.2,0-0.3,0.1c-0.1,0-0.2,0-0.3,0.1l0,0c-0.2,0-0.5,0.1-0.7,0.1
		c-0.5,0.1-0.9,0.2-1.4,0.3c-0.2,0-0.3,0.1-0.5,0.1s-0.3,0.1-0.5,0.1c-0.3,0.1-0.6,0.2-1,0.3s-0.8,0.2-1.2,0.4
		c-0.2,0.1-0.5,0.1-0.7,0.2c-0.3,0.1-0.6,0.2-0.9,0.3s-0.6,0.2-0.9,0.4c-0.3,0.1-0.5,0.2-0.8,0.3c-0.1,0-0.2,0.1-0.3,0.1
		c-0.1,0-0.1,0.1-0.2,0.1c-0.2,0.1-0.3,0.1-0.5,0.2c0-0.3,0-0.7,0-1c0-0.1,0-0.2,0-0.3c0-0.4,0.1-0.7,0.1-1.1c0-0.2,0.1-0.3,0.1-0.5
		c0.1-0.3,0.1-0.6,0.2-0.9c0.5-0.3,1.1-0.5,1.7-0.7l0,0c1.7-0.7,3.4-1.2,5.2-1.6l0,0c0.2-0.1,0.5-0.1,0.7-0.2
		c2.9-0.6,5.8-0.9,8.7-0.7C131.7,52.5,132.9,54,133.8,55.1z"/>
	<path class="st6" d="M119.6,86.4c-1.6,0.2-3.2,0.3-4.8,0.4c0.9-3.7,1.7-7.4,2.6-11.1C118.1,79.2,118.8,82.8,119.6,86.4z"/>
	<path class="st4" d="M138.5,76.4c-0.9,0.8-1.7,1.6-2.6,2.4c-0.2-1.2-0.5-2.4-1-3.4c-0.1-0.2-0.1-0.3-0.2-0.5c-0.1,0-0.1,0-0.2,0
		l0,0c-0.5-1.2-0.9-2.5-1.2-3.7c-0.4-1.6-0.6-3.6-1.3-5.2c0.1,0,0.1,0,0.2,0c0.3-0.1,0.3-0.3,0.2-0.7l0,0c-0.2-0.8-1.1-1.9-1.3-2.2
		c-0.9-1-2-1.8-3.2-2.3c-0.6-0.2-1.1-0.4-1.7-0.5s-1.1-0.1-1.7,0h-0.1c-1.6,0.4-2.4,1.7-3.3,3.1c-0.7,1.2-1.3,4.2-0.6,5.6
		c0.1,1.7,0.8,3.4,1.1,5.1c0.3,1.3,0.6,2.6,0.9,3.9c0.1,0,0.1-0.1,0.2-0.1c0.1,0.5,0.2,1,0.4,1.5c0.5,1.9,1.1,4.2,2.5,5.8
		c-1.9,0.7-3.9,1.1-5.9,1.4c-0.7-3.6-1.5-7.2-2.2-10.7c-1-5.1-2.1-10.1-3.2-15.2c-0.1-0.3-0.1-0.6-0.2-0.9c0-0.1,0-0.2,0-0.3
		c0-0.2,0-0.4,0-0.7l0,0c0.2-0.1,0.3-0.2,0.5-0.2c0.1,0,0.1-0.1,0.2-0.1s0.2-0.1,0.3-0.1c0.3-0.1,0.5-0.2,0.8-0.3s0.6-0.2,0.9-0.4
		c0.3-0.1,0.6-0.2,0.9-0.3c0.2-0.1,0.5-0.2,0.7-0.2c0.4-0.1,0.8-0.3,1.2-0.4c0.3-0.1,0.6-0.2,1-0.3c0.2,0,0.3-0.1,0.5-0.1
		s0.3-0.1,0.5-0.1c0.5-0.1,0.9-0.2,1.4-0.3c0.2-0.1,0.5-0.1,0.7-0.1l0,0c0.1,0,0.2,0,0.3-0.1c0.1,0,0.2,0,0.3-0.1
		c0.4-0.1,0.7-0.1,1.1-0.2c0.4,0,0.7-0.1,1.1-0.1s0.7-0.1,1.1-0.1c0.3,0,0.7,0,1-0.1l0,0l0,0c1.7,0.2,3.5,0.3,5.2,0.5
		C135.5,62.4,137,69.4,138.5,76.4z"/>
	<path class="st4" d="M135.9,78.8c-2.8,2.4-5.8,4.5-9.2,5.8c-0.4,0.2-0.8,0.3-1.1,0.4c-1.4-1.5-2-3.8-2.5-5.8
		c-0.1-0.5-0.2-1-0.4-1.5c-0.1,0-0.1,0.1-0.2,0.1c-0.3-1.3-0.6-2.6-0.9-3.9c-0.3-1.6-1.1-3.4-1.1-5.1c-0.7-1.4-0.1-4.4,0.6-5.6
		c0.9-1.4,1.6-2.7,3.3-3.1h0.1c0.6-0.1,1.1-0.1,1.7,0s1.2,0.3,1.7,0.5c1.2,0.5,2.3,1.3,3.2,2.3c0.2,0.3,1.1,1.4,1.3,2.2l0,0
		c0.1,0.3,0,0.6-0.2,0.7c-0.1,0-0.1,0-0.2,0c0.7,1.6,0.9,3.6,1.3,5.2c0.3,1.3,0.7,2.5,1.2,3.7l0,0c0.1,0,0.1,0,0.2,0
		c0.1,0.2,0.1,0.3,0.2,0.5C135.3,76.4,135.7,77.6,135.9,78.8z"/>
	<path class="st5" d="M133.9,55.6c-1.7-0.2-3.5-0.3-5.2-0.5c0.7,0,1.4-0.1,2.2-0.1c1,0,2,0,3,0.1l0,0l0,0l0,0
		C133.9,55.3,133.9,55.4,133.9,55.6z"/>
	<path class="st7" d="M133.8,55.1L133.8,55.1L133.8,55.1"/>
	<path class="st7" d="M128.1,110.3C128.1,110.3,128,110.3,128.1,110.3"/>
</g>
<g>
	<path class="st9" d="M100.2,63.4c-0.6,0.5-1.7,0.6-2.5,0.4l0.1-0.1c0.2-0.2,0.4-0.5,0.5-0.8c0-0.1,0.1-0.3,0.1-0.4
		c0-0.1,0-0.1,0-0.2c0.2,0.3,0.4,0.5,0.7,0.7C99.5,63.2,99.8,63.3,100.2,63.4z"/>
	<path class="st9" d="M92.8,66.1c-0.3,0.8-0.8,1.5-1.6,1.4c0.2-0.6,0.1-1.2,0-1.9C91.7,66,92.1,66.2,92.8,66.1z"/>
	<path class="st10" d="M98.4,62.3c0,0.1,0,0.1,0,0.2c0,0.1-0.1,0.3-0.1,0.4c-0.1,0.3-0.2,0.6-0.5,0.8l-0.1,0.1
		c-0.1,0.1-0.1,0.1-0.2,0.2c-0.2,0.1-0.3,0.2-0.5,0.3c-0.4,0.2-0.9,0.4-1.3,0.6c-0.1,0.1-0.3,0.1-0.4,0.2c-0.6,0.3-1.1,0.6-1.7,0.8
		C93.3,66,93,66,92.8,66.1c-0.1,0-0.2,0-0.3,0c-0.1,0-0.2,0-0.3,0c-0.1,0-0.1,0-0.2-0.1c-0.1,0-0.1-0.1-0.2-0.1c0,0,0,0-0.1,0
		s-0.1-0.1-0.2-0.1s-0.1-0.1-0.2-0.2c0-0.1,0-0.2,0-0.3c0.3-0.3,0.6-0.6,1-0.9s0.7-0.5,1.1-0.7c1.5-0.9,3.2-1.6,5-1.6
		C98.3,62.2,98.3,62.3,98.4,62.3z"/>
	<path class="st10" d="M95.2,59.6c1,0.5,1.8,1.2,2.5,1.9c0.1,0.1,0.1,0.1,0.2,0.2c0.1,0.1,0.2,0.2,0.3,0.4c-1.8,0-3.5,0.6-5,1.6
		c-0.3,0.2-0.7,0.5-1.1,0.7c-0.4,0.3-0.7,0.5-1,0.9c0-0.3-0.1-0.6-0.1-0.9c0-1.2,0.3-2.2,0.5-3.4c0.1-0.4,0.2-1,0.5-1.5
		c0.2-0.3,0.5-0.5,0.8-0.6C93.7,58.9,94.6,59.3,95.2,59.6z"/>
	<path class="st10" d="M94.2,58.7L92.5,59c0,0,0,0,0.1,0C93.1,58.8,93.7,58.7,94.2,58.7z"/>
	<path class="st9" d="M101.3,62.5c-0.8-0.1-1.6-0.3-2.4-0.3c-0.1,0-0.3,0-0.4,0h-0.2c-0.1-0.1-0.2-0.2-0.3-0.4
		c-0.1-0.1-0.1-0.2-0.2-0.2c-0.8-0.8-1.6-1.5-2.5-1.9c-0.1-0.1-0.2-0.1-0.4-0.2c-0.1,0-0.2-0.1-0.3-0.1c-0.1,0-0.2-0.1-0.3-0.1
		c-0.2-0.1-0.4-0.1-0.6-0.2c-0.1,0-0.2,0-0.3,0c-0.1,0-0.2,0-0.3,0c-0.1,0-0.2,0-0.2,0c-0.1,0-0.2,0-0.2,0.1s-0.1,0.1-0.2,0.1
		l-0.1,0.1l0,0c0,0,0,0.1-0.1,0.1c0,0-0.1,0.1-0.1,0.2c0.1-0.2,0.2-0.4,0.3-0.5l0,0l1.7-0.3c0.6,0,1.2,0.1,1.8,0.2
		c1.3,0.3,2.5,0.9,3.5,1.7C99.9,60.8,100.9,61.8,101.3,62.5z"/>
	<path class="st11" d="M94.2,58.7L92.5,59c0,0,0,0,0.1,0C93.1,58.8,93.7,58.7,94.2,58.7z"/>
	<path class="st9" d="M92.5,59c-0.1,0.2-0.2,0.3-0.3,0.5c0,0.1-0.1,0.1-0.1,0.2c0,0.1-0.1,0.1-0.1,0.2c0,0.1-0.1,0.1-0.1,0.2
		c0,0.1-0.1,0.1-0.1,0.2c0,0.1-0.1,0.3-0.1,0.4c0,0.1,0,0.2-0.1,0.3c0,0.1-0.1,0.3-0.1,0.4c-0.1,0.3-0.2,0.7-0.2,1
		c0,0.1-0.1,0.3-0.1,0.4l0,0c0,0.2-0.1,0.4-0.1,0.5c0,0.3-0.1,0.7,0,1c0,0.1,0,0.2,0,0.2c0,0.1,0,0.2,0,0.4c0,0.1,0,0.2,0,0.2l0,0
		c-0.1,0-0.1,0.1-0.1,0.2l0,0c0.1,0.1,0.1,0.1,0.2,0.2c0,0.2,0.1,0.4,0.1,0.6c0,0.3,0,0.5,0,0.8c0,0.1,0,0.1,0,0.2s0,0.2-0.1,0.4
		c-0.1,0.4-0.4,0.8-0.8,1.1c-0.1-0.1-0.2-0.2-0.2-0.3l0,0c-1-1.3-0.9-4.3-0.4-5.6C90.4,61.1,91,59.7,92.5,59z"/>
	<path class="st9" d="M101.2,63.2c-0.1,0-0.1,0.1-0.2,0.1c-0.2,0.1-0.5,0.1-0.8,0.1c-0.4,0-0.8-0.2-1.1-0.4
		c-0.3-0.2-0.5-0.4-0.7-0.7c0-0.1,0-0.2,0-0.2c0.1,0,0.3,0,0.4,0c0.8,0.1,1.7,0.3,2.4,0.3l0,0C101.4,62.8,101.4,63,101.2,63.2z"/>
	<path class="st11" d="M101.5,62.5c-0.1,0-0.2,0-0.3,0"/>
	<path class="st11" d="M89.9,67.5c0.5-0.5,0.6-1.3,0.9-1.8c0.1-0.1,0.1-0.2,0.2-0.3"/>
	<line class="st11" x1="91.1" y1="65.4" x2="91.1" y2="65.4"/>
	<path class="st12" d="M98.9,73.3c-0.5,0.2-0.9,0.4-1.3,0.7c-1,0.5-1.9,1.1-2.8,1.8c-0.3,0.2-0.6,0.6-0.9,0.9l-0.1,0.1
		c-0.5-1.2-1-2.5-1.5-3.7c-0.6-1.6-1.7-3.1-2-4.8c0.1,0.1,0.2,0.2,0.2,0.3c0.5-0.3,0.7-0.7,0.8-1.1c0.4,0,0.7-0.1,1-0.4
		c0.2-0.2,0.4-0.6,0.6-1c0.2,0,0.5-0.1,0.7-0.2c0.6-0.2,1.2-0.5,1.7-0.8c0.1,0.2,0.3,0.6,0.3,0.7c0.1,0.3,0.3,0.6,0.4,0.9
		c0.3,0.7,0.7,1.4,1,2.1c0.7,1.4,1.2,2.9,1.8,4.4C98.8,73.2,98.8,73.2,98.9,73.3z"/>
	<path class="st11" d="M90.2,68.2c0-0.1,0-0.1,0-0.2"/>
	<path class="st12" d="M105,71.6c-0.1,0-0.2,0-0.3,0c-0.5,0-0.9,0-1.3,0.2c-1,0.3-1.9,0.4-2.9,0.7c-0.1,0-0.3,0.1-0.4,0.1
		c-0.4,0.1-0.8,0.3-1.2,0.5c0,0-0.1,0-0.1,0.1c-0.6-1.5-1.1-3-1.8-4.4c-0.3-0.7-0.7-1.4-1-2.1c-0.1-0.3-0.3-0.6-0.4-0.9
		c0-0.1-0.2-0.4-0.3-0.7c0.1-0.1,0.3-0.1,0.4-0.2c0.4-0.2,0.9-0.4,1.3-0.6c0.2-0.1,0.3-0.2,0.5-0.3c0.1-0.1,0.2-0.1,0.2-0.2
		c0.8,0.2,1.9,0,2.5-0.5c0.3,0,0.5,0,0.8-0.1c0.2,0.3,0.4,0.6,0.5,0.9c0.2,0.4,0.5,0.9,0.7,1.4c0,0,0,0,0,0.1c0.4,0.9,0.7,1.8,1,2.5
		C103.7,69.3,104.3,70.5,105,71.6z"/>
	<path class="st12" d="M105.1,71.8c-0.2,0-0.3,0.1-0.5,0.1c-0.4,0-0.9,0-1.3,0.2c-0.9,0.3-1.9,0.4-2.9,0.7c-0.1,0-0.2,0.1-0.3,0.1
		c-0.4,0.1-0.9,0.3-1.3,0.5v-0.1c0,0,0.1,0,0.2-0.1c0.4-0.2,0.8-0.3,1.2-0.5c0.1,0,0.3-0.1,0.4-0.1c1-0.3,1.9-0.4,2.9-0.7
		c0.4-0.1,0.9-0.1,1.3-0.2C104.9,71.7,105,71.7,105.1,71.8C105,71.7,105.1,71.7,105.1,71.8z"/>
	<path class="st13" d="M107.2,78.9c-0.8,2.8-3.7,5.7-6.9,5.3c-3.2-0.4-4.7-3.7-5.9-6.2c-0.2-0.4-0.4-0.9-0.6-1.4
		c0.3-0.3,0.6-0.6,0.9-0.9c0.8-0.7,1.8-1.3,2.8-1.8c0.4-0.2,0.9-0.5,1.3-0.7l0,0l0,0c0.4-0.2,0.9-0.4,1.3-0.5c0.1,0,0.2-0.1,0.3-0.1
		c1-0.3,2-0.4,2.9-0.7c0.4-0.1,0.9-0.1,1.3-0.2c0.1,0,0.3,0,0.5-0.1c0-0.1-0.1-0.1-0.1-0.2c0.1,0,0.1,0,0.2,0
		c0.1,0.2,0.2,0.3,0.3,0.5c0.7,1.1,1.4,2.5,1.7,3.9C107.5,76.9,107.5,77.9,107.2,78.9z"/>
	<path class="st13" d="M105.1,71.8c-0.2,0-0.3,0.1-0.5,0.1c-0.4,0-0.9,0-1.3,0.2c-0.9,0.3-1.9,0.4-2.9,0.7c-0.1,0-0.2,0.1-0.3,0.1
		c-0.4,0.1-0.9,0.3-1.3,0.5c-0.5,0.2-0.9,0.4-1.3,0.7c-1,0.5-1.9,1.1-2.8,1.8c-0.3,0.2-0.6,0.6-0.9,0.9c0,0,0,0,0-0.1
		c0.4-0.3,0.7-0.7,1-1c0.8-0.7,1.8-1.3,2.7-1.8c0.4-0.2,0.8-0.4,1.2-0.6c0,0,0.1,0,0.2-0.1c0.4-0.2,0.8-0.3,1.2-0.5
		c0.1,0,0.3-0.1,0.4-0.1c1-0.3,1.9-0.4,2.9-0.7c0.4-0.1,0.9-0.1,1.3-0.2c0.1,0,0.2,0,0.3,0C105,71.7,105.1,71.7,105.1,71.8z"/>
	<path class="st11" d="M98.9,73.3c0,0.1,0.1,0.2,0.1,0.3c0.2,0.4,0.4,1.1,0.6,1.3"/>
	<path class="st11" d="M95.1,64.9c0,0,0.1,0.1,0.1,0.2"/>
</g>
<g>
	<path class="st14" d="M83.3,63.5c-0.7,0.1-1.6-0.2-2.2-0.7c0,0,0,0,0.1,0c0.4-0.1,0.8-0.5,1.1-0.9c0,0.3,0.1,0.6,0.3,0.9
		C82.7,63,83,63.3,83.3,63.5z"/>
	<path class="st14" d="M76.2,62.3c-0.6,0.5-1.3,0.8-1.9,0.4c0.4-0.4,0.6-0.9,0.8-1.5C75.3,61.7,75.6,62.1,76.2,62.3z"/>
	<path class="st15" d="M82.2,61.6c0,0.1,0,0.2,0,0.3c-0.3,0.4-0.7,0.7-1.1,0.9c0,0,0,0-0.1,0c-0.7,0.2-1.4-0.1-2.1-0.1
		c-0.1,0-0.3,0-0.4,0c-0.6,0-1.2,0-1.7-0.1c-0.3,0-0.5-0.1-0.7-0.2c-0.6-0.2-0.8-0.6-1-1.1c0-0.1,0.1-0.2,0.1-0.3
		c0.4-0.1,0.8-0.2,1.2-0.2c0.4,0,0.8-0.1,1.2-0.1C79.2,60.5,80.8,60.8,82.2,61.6z"/>
	<path class="st15" d="M81,58.2c0.5,0.8,0.9,1.7,1.2,2.7c0,0.1,0,0.2,0.1,0.3c0,0.1,0,0.3,0.1,0.4c-1.4-0.8-3-1.1-4.7-1
		c-0.4,0-0.8,0-1.2,0.1c-0.4,0-0.8,0.1-1.2,0.2c0.1-0.3,0.2-0.5,0.3-0.7c0.5-1,1.2-1.6,1.9-2.4c0.2-0.3,0.6-0.7,1.1-0.9
		c0.3-0.2,0.6-0.2,0.9-0.1C80.1,57,80.7,57.7,81,58.2z"/>
	<path class="st15" d="M79.1,56.5L79.1,56.5c0.6,0.1,1.1,0.3,1.6,0.5"/>
	<path class="st14" d="M83.6,62.5c-0.3-0.2-0.6-0.5-0.9-0.7c-0.1-0.1-0.2-0.1-0.3-0.2c-0.1,0-0.1-0.1-0.2-0.1l0,0c0-0.2,0-0.3,0-0.4
		c0-0.1,0-0.2,0-0.3c-0.1-0.5-0.3-0.9-0.5-1.4c-0.2-0.4-0.4-0.9-0.7-1.3c-0.3-0.5-0.9-1.2-1.5-1.5c-0.2-0.1-0.4-0.1-0.6,0
		c-0.1,0-0.2,0.1-0.2,0.1s0,0,0.1-0.1s0.2-0.1,0.3-0.2l1.6,0.5c0.5,0.3,0.9,0.6,1.3,1c0.1,0.1,0.2,0.1,0.2,0.2
		c0,0.3,0.1,0.5,0.1,0.8c0.3,0.9,0.7,1.8,1,2.8C83.4,62,83.5,62.3,83.6,62.5z"/>
	<path class="st16" d="M80.6,57.1L79,56.6h0.1C79.7,56.6,80.2,56.8,80.6,57.1z"/>
	<path class="st14" d="M79.1,56.5c-0.2,0.1-0.3,0.2-0.5,0.3c-0.5,0.2-0.9,0.7-1.1,0.9c-0.7,0.8-1.4,1.5-1.9,2.4
		c-0.1,0.2-0.2,0.5-0.3,0.7c-0.1,0-0.1,0-0.2,0.1c0,0.1,0,0.1,0.1,0.2c-0.2,0.6-0.4,1.1-0.8,1.5c-0.3,0.3-0.6,0.4-1.1,0.5
		c0-0.1-0.1-0.2-0.1-0.3c-0.2-1.5,1.2-3.9,2.2-4.7C76.5,57.2,77.6,56.4,79.1,56.5z"/>
	<path class="st14" d="M84,63.7L84,63.7c-0.1,0-0.1,0-0.2,0l0,0c-0.1,0-0.2,0-0.3-0.1c-0.1,0-0.2-0.1-0.3-0.2
		c-0.3-0.2-0.5-0.5-0.7-0.8c0-0.1-0.1-0.1-0.1-0.2c-0.1-0.1-0.1-0.3-0.1-0.4c0-0.1,0-0.1,0-0.2l0,0l0,0l0,0c0-0.1,0.1-0.1,0.1-0.2
		c0.1,0.1,0.2,0.1,0.3,0.2c0.3,0.2,0.6,0.4,0.9,0.7C83.8,62.9,83.9,63.3,84,63.7z"/>
	<path class="st16" d="M84.7,63.4c-0.1,0-0.1-0.1-0.2-0.1"/>
	<path class="st16" d="M73.2,62.2c0.6-0.2,1-0.7,1.6-1c0.1-0.1,0.2-0.1,0.3-0.1"/>
	<line class="st16" x1="75.1" y1="61" x2="75.1" y2="61"/>
	<path class="st17" d="M77.7,70.8L77.7,70.8c-0.5,0-0.9-0.1-1.4-0.1c-1,0-2,0-3,0.2c-0.4,0.1-0.8,0.2-1.3,0.3
		c0.1-1.2,0.3-2.4,0.4-3.6c0.2-1.5,0.1-3.2,0.5-4.7c0,0.1,0,0.2,0.1,0.3c0.5,0,0.9-0.2,1.1-0.5c0.6,0.4,1.3,0.1,1.9-0.4
		c0.2,0.1,0.4,0.1,0.7,0.2c0.6,0.1,1.2,0.1,1.7,0.1c0,0.2,0,0.6-0.1,0.7c0,0.3-0.1,0.6-0.1,0.9c-0.1,0.7-0.1,1.4-0.2,2.2
		C78.2,67.8,77.9,69.3,77.7,70.8z"/>
	<path class="st16" d="M73.1,62.9L73.1,62.9"/>
	<path class="st17" d="M83.4,72.4c-0.1-0.1-0.3-0.1-0.4-0.2c-0.4-0.2-0.7-0.4-1.1-0.5c-0.9-0.2-1.7-0.5-2.6-0.7
		c-0.5-0.1-1-0.2-1.5-0.2c0.2-1.5,0.5-2.9,0.5-4.4c0-0.7,0.1-1.4,0.2-2.2c0-0.3,0.1-0.6,0.1-0.9c0-0.1,0-0.4,0.1-0.7
		c0.1,0,0.3,0,0.4,0c0.7,0,1.4,0.3,2.1,0.1c0.5,0.5,1.5,0.9,2.2,0.7c0.2,0.1,0.4,0.2,0.7,0.3c0.1,1.6-0.3,3.4-0.4,4.9
		C83.4,69.9,83.4,71.1,83.4,72.4z"/>
	<path class="st18" d="M81.9,79c-1.9,1.8-5.5,2.9-7.9,1.2c-2.4-1.7-2.1-5-1.9-7.6c0-0.5,0.1-1,0.1-1.4c0.4-0.1,0.9-0.3,1.3-0.3
		c1-0.2,2-0.2,3-0.2c0.4,0,0.9,0,1.4,0.1l0,0c0.5,0.1,1,0.1,1.5,0.2c0.9,0.2,1.7,0.5,2.6,0.7c0.4,0.1,0.8,0.3,1.1,0.5
		c0.1,0.1,0.3,0.1,0.4,0.2c0,0.2,0,0.3,0,0.5C83.7,74.9,83.5,77.4,81.9,79z"/>
	<path class="st16" d="M77.7,70.8c0,0.1,0,0.2,0,0.3c0,0.4-0.2,1-0.1,1.3"/>
	<path class="st16" d="M78.6,62.4c0,0,0,0.1,0,0.2"/>
</g>
<g>
	<path class="st14" d="M58.6,66.3c-0.6,0.4-1.6,0.4-2.3,0.1c0,0,0,0,0.1,0c0.4-0.3,0.6-0.8,0.7-1.2c0.1,0.3,0.3,0.5,0.6,0.7
		C57.9,66,58.3,66.2,58.6,66.3z"/>
	<path class="st14" d="M51.6,67.8c-0.3,0.7-0.9,1.2-1.6,1.1c0.2-0.5,0.2-1.1,0.2-1.7C50.6,67.6,51,67.8,51.6,67.8z"/>
	<path class="st15" d="M57,64.9c0,0.1,0.1,0.2,0.1,0.2c-0.1,0.5-0.3,0.9-0.7,1.2c0,0,0,0-0.1,0c-0.6,0.4-1.3,0.5-2,0.7
		c-0.1,0-0.3,0.1-0.4,0.1c-0.6,0.2-1.1,0.4-1.7,0.5c-0.3,0.1-0.5,0.1-0.7,0.1c-0.6,0-1-0.2-1.4-0.6c0-0.1,0-0.2,0-0.3
		c0.3-0.3,0.6-0.5,1-0.7c0.3-0.2,0.7-0.4,1.1-0.5C53.7,65,55.4,64.7,57,64.9z"/>
	<path class="st15" d="M54.5,62.2c0.8,0.6,1.5,1.3,2.1,2.1c0.1,0.1,0.1,0.1,0.1,0.2c0.1,0.1,0.1,0.2,0.2,0.4
		c-1.6-0.2-3.2,0.1-4.7,0.8c-0.3,0.2-0.7,0.3-1.1,0.5c-0.3,0.2-0.7,0.4-1,0.7c0-0.3,0-0.5,0-0.8c0.1-1.1,0.6-2,0.9-3
		c0.1-0.3,0.3-0.9,0.7-1.3c0.2-0.3,0.5-0.4,0.8-0.4C53.3,61.4,54,61.9,54.5,62.2z"/>
	<path class="st15" d="M53.8,61.3l-1.6,0.1h0.1C52.8,61.2,53.3,61.2,53.8,61.3z"/>
	<path class="st14" d="M59.7,65.6c-0.7-0.2-1.4-0.4-2.2-0.6c-0.1,0-0.2-0.1-0.4-0.1c-0.1,0-0.1,0-0.2,0c-0.1-0.1-0.1-0.3-0.2-0.4
		c0-0.1-0.1-0.2-0.1-0.2c-0.6-0.8-1.2-1.5-2.1-2.1c-0.5-0.3-1.2-0.8-1.9-0.8c-0.3,0-0.6,0.2-0.8,0.4c0.1-0.2,0.2-0.3,0.3-0.4
		l1.6-0.1c0.5,0.1,1.1,0.2,1.6,0.4c1.1,0.4,2.2,1.1,3,1.9C58.6,63.9,59.5,64.9,59.7,65.6z"/>
	<path class="st16" d="M53.8,61.3l-1.6,0.1h0.1C52.8,61.2,53.3,61.2,53.8,61.3z"/>
	<path class="st14" d="M52.1,61.4c-0.1,0.1-0.2,0.3-0.3,0.4c-0.3,0.4-0.6,0.9-0.7,1.3c-0.3,1-0.8,1.9-0.9,3c0,0.3,0,0.5,0,0.8
		c-0.1,0-0.1,0.1-0.1,0.1c0,0.1,0.1,0.1,0.1,0.2c0,0.6,0,1.2-0.2,1.7c-0.2,0.3-0.4,0.6-0.9,0.8c-0.1-0.1-0.1-0.2-0.2-0.3
		c-0.7-1.3-0.3-4,0.3-5.2C50,63,50.7,61.8,52.1,61.4z"/>
	<path class="st14" d="M59.5,66.2c-0.1,0-0.1,0-0.2,0.1c-0.2,0.1-0.5,0.1-0.7,0c-0.3-0.1-0.7-0.2-1-0.5c-0.3-0.2-0.4-0.4-0.6-0.7
		c0-0.1,0-0.1,0.1-0.2c0.1,0,0.2,0,0.4,0.1c0.7,0.2,1.5,0.4,2.2,0.6l0,0C59.8,65.9,59.7,66.1,59.5,66.2z"/>
	<path class="st16" d="M59.9,65.6c-0.1,0-0.2,0-0.2-0.1"/>
	<path class="st16" d="M48.8,68.8c0.5-0.4,0.7-1.1,1.1-1.5c0.1-0.1,0.2-0.2,0.2-0.2"/>
	<line class="st16" x1="50.1" y1="67" x2="50.1" y2="67"/>
	<path class="st17" d="M56.2,75.1c-0.4,0.1-0.9,0.3-1.3,0.4c-0.9,0.4-1.8,0.7-2.7,1.3c-0.3,0.2-0.6,0.4-0.9,0.7l-0.1,0.1
		c-0.3-1.2-0.6-2.4-0.9-3.5c-0.4-1.5-1.1-3-1.2-4.6c0.1,0.1,0.1,0.2,0.2,0.3c0.4-0.2,0.7-0.5,0.9-0.8c0.7,0.1,1.2-0.4,1.6-1.1
		c0.2,0,0.4,0,0.7-0.1c0.6-0.1,1.1-0.3,1.7-0.5c0.1,0.2,0.2,0.5,0.2,0.6c0.1,0.3,0.2,0.6,0.3,0.9c0.2,0.7,0.4,1.4,0.6,2.1
		c0.5,1.4,0.8,2.8,1.1,4.2C56.2,75,56.2,75.1,56.2,75.1z"/>
	<path class="st16" d="M48.9,69.5c0-0.1,0-0.1,0-0.2"/>
	<path class="st17" d="M62,74.5c-0.1,0-0.3,0-0.4,0c-0.4,0-0.8-0.1-1.2,0c-0.9,0.1-1.8,0.2-2.7,0.3c-0.5,0.1-1,0.2-1.5,0.3V75
		c-0.3-1.4-0.7-2.8-1.1-4.2c-0.2-0.7-0.5-1.4-0.6-2.1c-0.1-0.3-0.2-0.6-0.3-0.9c0-0.1-0.1-0.4-0.2-0.6c0.1-0.1,0.3-0.1,0.4-0.1
		c0.4-0.1,0.9-0.2,1.3-0.3c0.1,0,0.2-0.1,0.3-0.1s0.1,0,0.2-0.1c0,0,0.1,0,0.1-0.1c0.1,0,0.1-0.1,0.2-0.1c0.7,0.3,1.7,0.2,2.3-0.1
		c0.2,0,0.5,0,0.7,0c0.7,1.4,1,3.2,1.4,4.7c0.3,1.1,0.8,2.3,1.2,3.4C62,74.4,62,74.4,62,74.5z"/>
	<path class="st18" d="M63.1,81.2c-0.3,0.7-0.8,1.5-1.5,2.1c-1.3-0.1-2.7-0.3-4.1-0.5c-1.1-0.1-2.2-0.2-3.3-0.4
		c-0.4-0.1-0.9-0.1-1.3-0.2c-0.6-1.1-1-2.4-1.3-3.5c-0.1-0.4-0.3-0.9-0.4-1.3c0,0,0,0,0-0.1c0.4-0.2,0.7-0.6,1.1-0.8
		c0.9-0.5,1.8-0.9,2.7-1.3c0.4-0.1,0.8-0.3,1.2-0.4h0.1c0.5-0.1,1-0.3,1.5-0.3c0.9-0.1,1.8-0.1,2.7-0.3c0.4-0.1,0.8,0,1.2,0
		c0.1,0,0.2,0,0.3,0s0.1,0,0.2,0c0.1,0.2,0.1,0.3,0.2,0.5C63.2,76.7,64,79.2,63.1,81.2z"/>
	<path class="st16" d="M56.2,75.1c0,0.1,0,0.2,0.1,0.3c0.1,0.4,0.2,1,0.4,1.3"/>
	<path class="st16" d="M53.8,67c0,0,0.1,0.1,0.1,0.2"/>
</g>
<g>
	<path class="st14" d="M113.4,60.1c-0.7,0-1.5-0.5-2-1.1c0,0,0,0,0.1,0c0.5,0,0.9-0.3,1.2-0.7c0,0.3,0,0.6,0.1,0.9
		C113,59.5,113.1,59.9,113.4,60.1z"/>
	<path class="st14" d="M106.6,57.6c-0.7,0.4-1.4,0.6-1.9,0.1c0.5-0.3,0.8-0.8,1.1-1.3C105.9,56.9,106.1,57.3,106.6,57.6z"/>
	<path class="st15" d="M112.7,58c0,0.1,0,0.2,0,0.3c-0.4,0.3-0.8,0.6-1.2,0.7c0,0,0,0-0.1,0c-0.7,0-1.4-0.3-2-0.5
		c-0.1,0-0.3-0.1-0.4-0.1c-0.6-0.1-1.1-0.2-1.7-0.4c-0.2-0.1-0.5-0.2-0.6-0.3c-0.5-0.3-0.7-0.7-0.8-1.3c0.1-0.1,0.1-0.2,0.2-0.3
		c0.4-0.1,0.8-0.1,1.2,0c0.4,0,0.8,0.1,1.2,0.1C109.9,56.4,111.5,57,112.7,58z"/>
	<path class="st15" d="M112.1,54.5c0.4,0.9,0.6,1.9,0.6,2.9c0,0.1,0,0.2,0,0.3s0,0.3,0,0.4c-1.2-1-2.8-1.6-4.4-1.8
		c-0.4,0-0.8-0.1-1.2-0.1c-0.4,0-0.8,0-1.2,0c0.1-0.2,0.3-0.5,0.5-0.7c0.7-0.9,1.5-1.4,2.3-2c0.3-0.2,0.8-0.6,1.3-0.7
		c0.3-0.1,0.6-0.1,0.9,0.1C111.5,53.1,111.9,53.9,112.1,54.5z"/>
	<path class="st15" d="M110.5,52.5C110.6,52.5,110.6,52.5,110.5,52.5c0.6,0.2,1,0.5,1.4,0.8"/>
	<path class="st14" d="M114.2,56.3c-0.1,0.4-0.1,0.7-0.1,1.1c0,0.1,0,0.2,0,0.3c0,0.3,0,0.7,0,1l0,0c0,0.2,0,0.4,0,0.7
		c-0.3-0.3-0.5-0.6-0.8-0.9c-0.1-0.1-0.2-0.2-0.3-0.3c-0.1,0-0.1-0.1-0.2-0.1c0-0.1,0-0.3,0-0.4c0-0.1,0-0.2,0-0.3
		c-0.1-1-0.3-1.9-0.6-2.9c-0.2-0.6-0.6-1.4-1.2-1.7c-0.3-0.2-0.6-0.2-0.9-0.1c0.2-0.1,0.3-0.1,0.5-0.2l1.4,0.8
		c0.4,0.3,0.8,0.8,1.1,1.2C113.5,55.1,113.9,55.7,114.2,56.3z"/>
	<path class="st16" d="M112,53.3l-1.4-0.8h0.1C111.1,52.7,111.6,53,112,53.3z"/>
	<path class="st14" d="M110.5,52.5c-0.2,0-0.3,0.1-0.5,0.2c-0.1,0-0.2,0.1-0.4,0.1c-0.1,0.1-0.2,0.1-0.3,0.2
		c-0.2,0.1-0.3,0.2-0.4,0.3c0,0-0.1,0-0.1,0.1c-0.1,0.1-0.2,0.2-0.3,0.2c-0.3,0.2-0.5,0.4-0.8,0.6c0,0,0,0-0.1,0
		c-0.1,0.1-0.3,0.2-0.4,0.3s-0.2,0.2-0.3,0.2c-0.1,0.1-0.2,0.2-0.3,0.3c-0.1,0.1-0.2,0.2-0.3,0.3c-0.1,0.1-0.2,0.2-0.2,0.3
		c0,0,0,0.1-0.1,0.1l0,0c0,0.1-0.1,0.2-0.1,0.2l0,0l0,0c-0.1,0-0.1,0-0.2,0c0,0.1,0,0.1,0,0.2c-0.3,0.5-0.6,1-1.1,1.3l0,0
		c-0.1,0.1-0.3,0.1-0.4,0.2c-0.2,0.1-0.4,0.1-0.6,0.1c0,0-0.1,0-0.2,0l0,0c0-0.1,0-0.2,0-0.3v-0.1l0,0c0.2-1.5,1.9-3.5,3-4
		C107.9,52.7,109.1,52.1,110.5,52.5z"/>
	<path class="st14" d="M114.2,60.5c-0.1,0-0.1,0-0.2-0.1c-0.2-0.1-0.4-0.2-0.6-0.4c-0.1-0.1-0.2-0.3-0.3-0.4
		c-0.1-0.1-0.2-0.3-0.2-0.5l0,0c-0.1-0.3-0.1-0.6-0.1-0.9c0.1,0,0.1-0.1,0.2-0.1c0.1,0.1,0.2,0.2,0.3,0.3c0.3,0.3,0.6,0.6,0.8,0.9
		c0,0.1,0,0.2,0,0.3C114.1,59.9,114.1,60.2,114.2,60.5z"/>
	<path class="st16" d="M103.7,57c0.6-0.1,1.2-0.5,1.7-0.7c0.1,0,0.2-0.1,0.3-0.1"/>
	<line class="st16" x1="105.8" y1="56.1" x2="105.8" y2="56.1"/>
	<path class="st17" d="M108.9,58.4c0,0.2-0.1,0.5-0.2,0.6c-0.1,0.3-0.2,0.6-0.2,0.9c-0.2,0.7-0.4,1.4-0.6,2.1
		c-0.3,1.4-0.8,2.7-1.3,4c-0.3-0.9-0.7-1.9-1-2.8c-0.1-0.3-0.2-0.7-0.4-1c-0.5-1.4-1.1-2.9-1.6-4.3c0,0-0.1,0-0.2,0l0,0
		c0.1,0,0.1,0,0.2,0c0.2,0,0.4,0,0.6-0.1c0.2,0,0.3-0.1,0.4-0.2l0,0l0.1,0.1c0,0,0,0,0.1,0s0.2,0.1,0.3,0.1c0.4,0.1,1,0,1.4-0.3
		c0.2,0.1,0.4,0.2,0.6,0.3c0.4,0.2,0.8,0.3,1.3,0.4C108.7,58.3,108.8,58.4,108.9,58.4z"/>
	<path class="st16" d="M103.5,57.6C103.5,57.6,103.5,57.5,103.5,57.6"/>
	<path class="st17" d="M106.7,66.1c0.4-1.3,0.9-2.7,1.3-4c0.2-0.7,0.3-1.4,0.6-2.1c0.1-0.3,0.2-0.6,0.3-0.9c0-0.1,0.1-0.4,0.2-0.6
		c0.1,0,0.3,0.1,0.4,0.1c0.7,0.2,1.3,0.5,2,0.5c0.4,0.6,1.3,1.1,2,1.1c0.2,0.2,0.4,0.3,0.6,0.4c-0.1,1.6-0.9,3.3-1.3,4.7
		c-0.3,1.1-0.6,2.3-0.8,3.5c0,0.1,0,0.1,0,0.2c-0.1-0.1-0.3-0.2-0.4-0.2c-0.3-0.2-0.6-0.5-1-0.7c-0.8-0.4-1.6-0.8-2.5-1.2
		c-0.4-0.2-0.8-0.3-1.3-0.5"/>
	<path class="st18" d="M105.1,71.8c-0.2,0-0.3,0.1-0.5,0.1c-0.4,0-0.9,0-1.3,0.2c-0.9,0.3-1.9,0.4-2.9,0.7c-0.1,0-0.2,0.1-0.3,0.1
		c0-0.1,0-0.1,0-0.2c0.1,0,0.3-0.1,0.4-0.1c1-0.3,1.9-0.4,2.9-0.7c0.4-0.1,0.9-0.1,1.3-0.2C104.8,71.7,104.9,71.7,105.1,71.8
		C105,71.7,105.1,71.7,105.1,71.8z"/>
	<path class="st18" d="M112.1,68.8c0,0.2-0.1,0.3-0.1,0.5c-0.2,1.8-0.8,4-2.2,5.3c-1-2.8-2-5.5-3-8.3l-0.1-0.2c0,0,0,0,0.1,0l0,0
		h0.1l0,0c0.5,0.1,1,0.3,1.4,0.5c0.8,0.4,1.6,0.8,2.5,1.2c0.4,0.2,0.7,0.4,1,0.7c0.1,0,0.1,0.1,0.2,0.1
		C112,68.7,112,68.8,112.1,68.8z"/>
	<path class="st16" d="M109,58.2c0,0,0,0.1,0,0.2"/>
</g>
<g>
	<path class="st9" d="M131.2,65.9c-0.7,0.4-1.8,0.3-2.5,0c0,0,0,0,0.1,0c0.4-0.3,0.6-0.8,0.8-1.3c0.2,0.3,0.3,0.6,0.6,0.8
		C130.5,65.6,130.8,65.8,131.2,65.9z"/>
	<path class="st9" d="M123.4,67.2c-0.4,0.7-1.1,1.3-1.8,1.1c0.3-0.5,0.3-1.2,0.3-1.9C122.4,67,122.8,67.2,123.4,67.2z"/>
	<path class="st10" d="M129.4,64.3c0,0.1,0.1,0.2,0.1,0.3c-0.2,0.5-0.4,1-0.8,1.3c0,0,0,0-0.1,0c-0.6,0.4-1.5,0.4-2.2,0.7
		c-0.2,0-0.3,0.1-0.4,0.1c-0.6,0.2-1.2,0.4-1.8,0.5c-0.3,0.1-0.5,0.1-0.8,0.1c-0.7,0-1.1-0.3-1.5-0.8c0-0.1,0-0.2,0-0.3
		c0.3-0.3,0.7-0.5,1.1-0.7s0.8-0.4,1.2-0.5C125.9,64.3,127.7,64,129.4,64.3z"/>
	<path class="st10" d="M126.9,61.3c0.9,0.7,1.6,1.5,2.2,2.4c0.1,0.1,0.1,0.2,0.1,0.3c0.1,0.1,0.1,0.3,0.2,0.4
		c-1.7-0.3-3.5,0-5.2,0.7c-0.4,0.2-0.8,0.3-1.2,0.5c-0.4,0.2-0.8,0.4-1.1,0.7c0-0.3,0-0.6,0.1-0.9c0.2-1.2,0.7-2.1,1.1-3.2
		c0.1-0.4,0.4-1,0.8-1.4c0.3-0.3,0.6-0.5,0.9-0.4C125.6,60.3,126.4,60.9,126.9,61.3z"/>
	<path class="st10" d="M126.1,60.2h-1.8h0.1C125,60.1,125.6,60.1,126.1,60.2z"/>
	<path class="st9" d="M132.4,65.2c-0.7-0.2-1.5-0.5-2.3-0.8c-0.1,0-0.3-0.1-0.4-0.1c-0.1,0-0.1,0-0.2,0c-0.1-0.1-0.1-0.3-0.2-0.4
		c0-0.1-0.1-0.2-0.1-0.3c-0.6-0.9-1.3-1.7-2.2-2.4c-0.5-0.4-1.3-0.9-2.1-1c-0.3,0-0.6,0.2-0.9,0.4c0.1-0.2,0.2-0.3,0.4-0.4h1.8
		c0.6,0.1,1.2,0.3,1.7,0.5c1.2,0.5,2.3,1.3,3.2,2.3C131.3,63.3,132.2,64.4,132.4,65.2z"/>
	<path class="st11" d="M126.1,60.2h-1.8h0.1C125,60.1,125.6,60.1,126.1,60.2z"/>
	<path class="st9" d="M124.4,60.3c-0.1,0.1-0.3,0.3-0.4,0.4c-0.4,0.4-0.7,1-0.8,1.4c-0.4,1.1-0.9,2-1.1,3.2c0,0.3-0.1,0.6-0.1,0.9
		c0,0-0.1,0.1-0.2,0.1c0,0.1,0.1,0.1,0.1,0.2c0,0.7,0,1.3-0.3,1.9c-0.2,0.4-0.5,0.7-1,0.9c-0.1-0.1-0.1-0.2-0.2-0.3
		c-0.7-1.4-0.1-4.4,0.6-5.6C121.9,61.9,122.7,60.6,124.4,60.3z"/>
	<path class="st9" d="M132.2,65.9c-0.1,0-0.1,0-0.2,0c-0.3,0.1-0.5,0-0.8,0c-0.1,0-0.2-0.1-0.3-0.1c-0.2-0.1-0.3-0.2-0.5-0.3
		c-0.1-0.1-0.2-0.1-0.2-0.2c-0.3-0.2-0.4-0.5-0.6-0.8c0-0.1,0.1-0.2,0.1-0.2c0.1,0,0.3,0.1,0.4,0.1c0.8,0.2,1.6,0.6,2.3,0.8l0,0
		C132.5,65.5,132.4,65.8,132.2,65.9z"/>
	<path class="st11" d="M132.6,65.3c-0.1,0-0.2,0-0.3-0.1"/>
	<path class="st11" d="M120.3,68.2c0.5-0.4,0.8-1.1,1.2-1.6c0.1-0.1,0.2-0.2,0.3-0.3"/>
	<line class="st11" x1="121.8" y1="66.3" x2="121.8" y2="66.3"/>
	<path class="st12" d="M128.1,75.4c-0.5,0.1-1,0.3-1.4,0.4c-1,0.3-2.1,0.7-3,1.3c-0.3,0.2-0.7,0.5-1,0.7c-0.1,0-0.1,0.1-0.2,0.1
		c-0.3-1.3-0.6-2.6-0.9-3.9c-0.3-1.6-1.1-3.4-1.1-5.1c0.1,0.1,0.1,0.2,0.2,0.3c0.5-0.2,0.8-0.5,1-0.9c0.7,0.2,1.4-0.4,1.8-1.1
		c0.2,0,0.5,0,0.7-0.1c0.6-0.1,1.2-0.3,1.8-0.5c0.1,0.2,0.2,0.6,0.2,0.7c0.1,0.3,0.2,0.7,0.2,1c0.2,0.8,0.4,1.5,0.6,2.3
		c0.4,1.5,0.7,3.1,1,4.6C128.1,75.3,128.1,75.4,128.1,75.4z"/>
	<path class="st11" d="M120.5,68.9c0-0.1,0-0.1,0-0.2"/>
	<path class="st12" d="M134.6,75c-0.2,0-0.3,0-0.5,0c-0.4,0-0.9-0.1-1.3-0.1c-1,0.1-2,0.1-3,0.2c-0.5,0-1.1,0.2-1.6,0.3v-0.1
		c-0.3-1.5-0.6-3.1-1-4.6c-0.2-0.8-0.4-1.5-0.6-2.3c-0.1-0.3-0.2-0.7-0.2-1c0-0.1-0.1-0.5-0.2-0.7c0.2,0,0.3-0.1,0.4-0.1
		c0.7-0.2,1.6-0.2,2.2-0.6c0.7,0.3,1.8,0.3,2.5,0c0.3,0.1,0.5,0.1,0.8,0c0.7,1.6,0.9,3.6,1.3,5.2C133.7,72.5,134.1,73.7,134.6,75
		L134.6,75C134.5,74.9,134.5,74.9,134.6,75z"/>
	<path class="st13" d="M135.9,78.8c-2.8,2.4-5.8,4.5-9.2,5.8c-0.4,0.2-0.8,0.3-1.1,0.4c-1.4-1.5-2-3.8-2.5-5.8
		c-0.1-0.5-0.2-1-0.4-1.5c0,0,0,0,0-0.1c0.4-0.2,0.8-0.6,1.2-0.8c1-0.5,2-0.9,3-1.3c0.4-0.1,0.8-0.3,1.3-0.4c0.1,0,0.1,0,0.2,0
		c0.5-0.1,1.1-0.2,1.6-0.3c1-0.1,2-0.1,3-0.2c0.5-0.1,0.9,0,1.3,0.1c0.1,0,0.2,0,0.3,0l0,0c0.1,0,0.1,0,0.2,0
		c0.1,0.2,0.1,0.3,0.2,0.5C135.3,76.4,135.7,77.6,135.9,78.8z"/>
	<path class="st11" d="M128.1,75.4c0,0.1,0,0.2,0.1,0.3c0.1,0.4,0.2,1.1,0.4,1.4"/>
	<path class="st11" d="M125.9,66.5c0,0,0.1,0.1,0.1,0.2"/>
</g>
<path d="M144.6,27.6c1.5,5.6-0.1,13.2,8.1,12.9c-8.7-0.8-7.8,7.5-7.1,14.3c-0.5-4.6-1.5-13.9-7.2-14.8
	C145.1,36.9,145,34.4,144.6,27.6z"/>
<path d="M26.5,104.2c1.5,5.6-0.1,13.2,8.1,12.9c-8.7-0.8-7.8,7.5-7.1,14.3c-0.5-4.6-1.5-13.9-7.2-14.8C27.1,113.5,27,111,26.5,104.2
	z"/>
</svg>
