<?xml version="1.0" encoding="utf-8"?>
<!-- Generator: Adobe Illustrator 23.0.3, SVG Export Plug-In . SVG Version: 6.00 Build 0)  -->
<svg version="1.1" id="Calque_1" xmlns="http://www.w3.org/2000/svg" xmlns:xlink="http://www.w3.org/1999/xlink" x="0px" y="0px"
	 viewBox="0 0 200 200" style="enable-background:new 0 0 200 200;" xml:space="preserve">
<style type="text/css">
	.st0{fill:#91D39B;stroke:#000000;stroke-width:2;stroke-miterlimit:10;}
	.st1{fill:#FFE6B4;stroke:#000000;stroke-width:2;stroke-miterlimit:10;}
	.st2{fill:none;stroke:#000000;stroke-width:2;stroke-miterlimit:10;}
</style>
<g>
	<path class="st0" d="M134.5,170.3c0.4,0.8,0.9,1.1,1.4,1.3c1.2,0.6,1.9,1.6,2.4,2.8c0.8,2,0.2,3.7-1.8,4.7c-2.8,1.4-5.8,1.5-8.8,1
		c-2.5-0.4-4.9-1-7.3-1.6c-1.4-0.4-2.8-0.4-4.3-0.6c-0.9-0.1-1.5,0.2-2,1.1c-0.8,1.5-2.1,2.3-3.8,2.7c-4.2,1-8.4,0.7-12.6,0
		c-1-0.2-2.1-0.4-3.1-0.7c-0.9-0.2-1.7-0.5-2.4-0.9c-2-1.2-2.6-3-1.7-5.1c0.5-1.2,1.2-2.2,2.1-3.1c0.4-0.5,1-0.8,1-1.5
		c-0.6-0.6-1.4-0.6-2.1-0.8c-1.1-0.4-2.3-0.6-3.4-1c-2.5-1-3.6-3.9-2.5-6.4c1-2.3,2.8-3.6,5.2-4.1c3-0.6,6.1-0.6,9.1,0.2
		c0.2,0,0.4,0.1,0.5,0.1c3.5,0,7,0,10.5,0.1c0.3,0,0.7,0,0.7-0.4c0.1-0.4-0.2-0.6-0.5-0.7c-0.7-0.5-1.4-0.9-2-1.4
		c-0.5-0.3-0.9-0.7-1.3-1.1c-1.3-1.5-0.9-3.3,0.9-3.8c2.6-0.7,5.2-1.4,7.9-1.6c2.4-0.1,4.9-0.2,7.3,0c1.9,0.1,3.6,0.6,5,1.8
		c1.8,1.5,4,2.3,6,3.4c1.6,0.8,3.3,0.5,5,0.4c2.2-0.2,4.5-0.4,6.7-0.6c2.1-0.2,4.2-0.1,6.3,0.4c4,0.9,6.1,3.7,7.1,7.4
		c0.7,2.4-0.1,4-2.3,5.3c-1.9,1.1-3.9,1.5-6.1,1.6c-3.9,0.1-7.9,0.2-11.8,0.4C138.2,169.5,136.4,169.7,134.5,170.3z"/>
	<path class="st0" d="M71.8,47.8c3.3,1,6.9,0.6,10.1-0.8c7-3.2,10.6-12.3,7.9-19.4s-11.5-11.4-18.9-9.1
		c-7.3,2.3-12.1,10.8-10.3,18.3s10,12.8,17.5,11.5"/>
	<path class="st0" d="M61.7,26.6c0.5,2.4,1.3,4.8,2.2,7.1c0.4,0.8,0.8,1.7,1.7,2c1.5,0.5,2.8-1,3.5-2.5c0.6-1.4,1.4-3.1,2.9-3.4
		c1.9-0.3,3.2,2,3.6,3.9c0.4,1.9,0.7,4.3,2.4,5.1c1.5,0.7,3.5-0.2,4.4-1.6s1.2-3.2,1.4-4.9c0.4-3.7,0.8-7.4,1.2-11.1"/>
	<path class="st0" d="M82,72.6c3.2,1.3,6.8,1.3,10.1,0.2c7.3-2.5,11.8-11.2,9.7-18.6c-2.1-7.4-10.4-12.5-17.9-10.9
		s-13.1,9.5-12.1,17.2c1.1,7.6,8.7,13.7,16.3,13.2"/>
	<path class="st0" d="M57.6,73.1c3.2,1.3,6.8,1.3,10.1,0.2c7.3-2.5,11.8-11.2,9.7-18.6S67.1,42.2,59.5,43.8
		C52,45.4,46.4,53.3,47.4,61c1.1,7.6,8.7,13.7,16.3,13.2"/>
	<path class="st1" d="M105.4,74.4c-0.5,3.8-1.8,7.4-3.1,11c-3.1,8.9-5.8,17.9-8,27.1c-2.4,10.1-4.3,20.6-9,29.9
		c-1.1,2.2-2.9,4.7-5.4,4.6c-0.8,0-1.6-0.3-2.3-0.7c-3.8-1.9-6.3-5.6-8.5-9.3c-5.8-10-9.6-20.7-13.5-31.5c-1.6-4.6-3.4-9.2-5-13.9
		c0.3-0.6,0.4-1.3,0.5-1.9c0.4-2.4,0.1-4.9,0.2-7.4c0.1-2.5,0.8-5.1,2.7-6.6c1.9-1.6,5.3-1.4,6.4,0.8c0.7,1.5,0.3,3.2,0.1,4.8
		c-0.2,1.6,0.1,3.6,1.5,4.3c1.6,0.8,3.5-0.7,4.3-2.3c1.1-2.5,0.8-5.4,1.7-8c0.9-2.6,4.4-4.6,6.3-2.6c1.6,1.7,0.6,4.7,2.2,6.4
		c1.1,1.2,3.2,1,4.5,0.1c1.3-1,2.1-2.5,2.7-4c1.6-3.8,2.8-7.8,3.4-11.9c3.5,0.2,7,0.7,10.5,1.2C104,65.4,106.2,67.8,105.4,74.4z"/>
	<path class="st0" d="M87.1,63.2c-0.6,4.1-1.7,8.1-3.4,11.9c-0.6,1.5-1.4,3-2.7,4c-1.3,1-3.4,1.1-4.5-0.1c-1.6-1.6-0.6-4.7-2.2-6.4
		c-1.9-2-5.4,0-6.3,2.6s-0.6,5.5-1.7,8c-0.7,1.6-2.6,3.1-4.3,2.3c-1.5-0.7-1.7-2.7-1.5-4.3c0.2-1.6,0.6-3.3-0.1-4.8
		c-1.1-2.2-4.5-2.4-6.4-0.8s-2.6,4.2-2.7,6.6c-0.1,2.5,0.2,4.9-0.2,7.4c-0.1,0.7-0.3,1.3-0.5,1.9c-0.4-1.2-0.8-2.5-1.2-3.7
		c-1.3-4.3-5-12.1-3.1-16.4c3.4-8,18.2-7.7,25.2-8.2C76.7,62.8,81.9,62.8,87.1,63.2z"/>
	<line class="st2" x1="87.1" y1="63.2" x2="87.1" y2="63.2"/>
	<path class="st2" d="M50.7,91.6L50.7,91.6"/>
</g>
</svg>
