<?xml version="1.0" encoding="utf-8"?>
<!-- Generator: Adobe Illustrator 27.5.0, SVG Export Plug-In . SVG Version: 6.00 Build 0)  -->
<svg version="1.1" id="Calque_1" xmlns="http://www.w3.org/2000/svg" xmlns:xlink="http://www.w3.org/1999/xlink" x="0px" y="0px"
	 viewBox="0 0 200 200" style="enable-background:new 0 0 200 200;" xml:space="preserve">
<style type="text/css">
	.st0{stroke:#000000;stroke-linecap:round;stroke-linejoin:round;stroke-miterlimit:10;}
	.st1{fill:none;stroke:#000000;stroke-linecap:round;stroke-linejoin:round;stroke-miterlimit:10;}
	.st2{fill:#F1F1F1;stroke:#000000;stroke-linecap:round;stroke-linejoin:round;stroke-miterlimit:10;}
	.st3{fill:#FFE6B4;stroke:#000000;stroke-linecap:round;stroke-linejoin:round;stroke-miterlimit:10;}
	.st4{fill:#FFE6B4;stroke:#000000;stroke-miterlimit:10;}
	.st5{fill:none;stroke:#000000;stroke-miterlimit:10;}
</style>
<path class="st0" d="M182.8,111.9c0,0-0.1,0.1-0.1,0.1c-1.7,0.9-3.5,0.9-5.2,0.9c-0.7,0-1.1,0-1.6,0.6c-0.5,0.6-1.4,0.8-2.2,0.9
	c-1.8,0.1-3.6,0.6-5.3,0.5c-0.3,0-0.6-0.1-0.9-0.1c-0.6-0.1-1.2-0.4-1.5,0.5c-0.1,0.3-0.5,0.5-1,0.6c-1.2,0.1-2.4,0.3-3.7,0.2
	c-2.2-0.2-4.4-0.4-6.6-0.2c0,0-0.1,0-0.1,0c-0.1-0.2-0.2-0.3-0.2-0.5c-0.2-1.1,1.1-1.8,2.2-1.9c2.3-0.2,4.6,0.7,6.9,0.5
	c0.4,0,1-0.2,1-0.7c0-0.2-0.1-0.3-0.1-0.5c-0.2-0.6,0.3-1.2,0.9-1.3c0.6-0.2,1.2,0,1.8,0.1c1.3,0.3,2.6,0.6,3.9,0.9
	c0.6,0.2,1.5,0.2,1.8-0.4c0.1-0.3,0.1-0.6,0.1-1c0.2-1.1,1.8-1.3,2.9-1.1C178.1,110.4,180.5,111,182.8,111.9z"/>
<g>
	<path class="st1" d="M96.9,102.6C96.9,102.6,96.9,102.6,96.9,102.6C96.9,102.6,96.9,102.6,96.9,102.6
		C96.9,102.6,96.9,102.6,96.9,102.6C96.9,102.6,96.9,102.6,96.9,102.6z"/>
	<path class="st2" d="M182.8,111.9c-2.3-0.9-4.7-1.5-7.2-1.9c-1.1-0.2-2.7,0-2.9,1.1c-0.1,0.3,0,0.7-0.1,1c-0.3,0.6-1.2,0.5-1.8,0.4
		c-1.3-0.3-2.6-0.6-3.9-0.9c-0.6-0.1-1.2-0.3-1.8-0.1c-0.6,0.2-1.1,0.8-0.9,1.3c0,0.2,0.1,0.3,0.1,0.5c0,0.4-0.5,0.6-1,0.7
		c-2.3,0.2-4.6-0.6-6.9-0.5c-1.1,0.1-2.5,0.8-2.2,1.9c0,0.2,0.1,0.4,0.2,0.5c-1.8,0.1-3.6,0.1-5.4-0.1c-1.2-0.1-2.4,0-3.6,0
		c-1.8,0-3.5-0.1-5.3-0.1c-1.9-0.1-3.8,0-5.7,0.3c-3.6,0.5-7.2,0.4-10.8,0.3c-3.6-0.1-7.1-0.3-10.6-0.5c-1.8-0.1-3.7-0.1-5.5-0.1
		c-2.4-0.1-4.7-0.7-7.1-0.7c-3,0-6,0-9,1.1c-1.5,0.6-2.2,1.7-1.6,2.8c0.5,0.9,1,1.9,1.6,2.8c1.2,2,2.8,3.7,4.9,5.1
		c1.3,0.9,2.4,2,3.9,2.8c0.8,0.4,1,1.4,0.5,2.1c-0.6,0.8-1.3,1.1-2.6,0.9c-1.1-0.2-2.3-0.2-3.4-0.4c-0.4-0.1-0.8,0-1,0.4
		c-0.9,1.3-2.6,1.4-3.9,0.9c-0.9-0.4-1.9-0.7-2.7-1.3c-0.6,1.3-0.9,1.4-2.5,1.4c-2.5,0-4.7-0.7-7-1.3c-2.4-0.7-4.8-1.4-7.1-2.3
		c-0.8-0.3-1.5-0.8-2.1-1.3c-2.2-1.8-4.6-3.4-7.1-5c-0.5-0.3-0.9-0.6-1.3-0.9c-1-0.8-0.6-1.7,0.8-2.2c0.1-0.1,0.3-0.1,0.5-0.2
		c-1-0.6-2.1-1-3.3-1.1c-1.9-0.3-2.6-0.9-2.4-2.4c0.1-0.7,0.7-1.3,1.2-2c-0.8-0.3-1.7-0.4-2.3-0.8c-0.7-0.5-1.1-1-0.7-1.8
		c0.4-0.8,1.2-1,2.2-1.1c1.9-0.1,3.6,0.1,5.5,0.2c2.8,0.1,5.7,0.2,8.5,0.3c2.4,0.1,3.8-1,4-2.9c0.3-2.1-0.4-3.8-2.7-4.8
		c-1.1-0.5-2-1.3-3.1-1.8c-2.3-0.9-4.6-1.8-6.7-2.8c-2.6-1.2-4.9-2.7-7.4-4.1c-2.6-1.5-4.7-3.4-7-5c-1.1-0.8-1.7-2-2.7-3
		c-1.2-1.2-2.3-2.5-3.4-3.8c1.1-0.1,2.3-0.3,3.4-0.6c0.5-0.1,1.1-0.3,1.5-0.8c0.5-0.6,0.3-1.6-0.2-2.2c-0.5-0.6-1.2-1-1.9-1.4
		c-2.6-1.3-5.3-2.7-7.9-4c0.9-1.4,4-0.4,4.3-2.1c0.1-0.9-0.9-1.5-1.7-1.8c-3.1-1.2-6.2-2.4-9.3-3.7c1.6-0.4,3.3-0.7,4.9-1.1
		c-1.9-2-4.7-2.6-7.4-3c-1.8-0.3-3.7-0.4-5.5-0.6h0c-0.2-0.1-0.4-0.3-0.7-0.4c-1-0.7-2-1.5-2.7-2.4c-0.7-0.8-0.2-1.7,1.1-2.1
		c1.4-0.4,2.7-0.4,3.9,0.2c1.6,0.7,3.1,1.6,4.8,2.2c1,0.4,1.8,1,2.4,1.7c0.1,0.1,0.1,0.2,0.2,0.2c2.4,0.9,4.3,2.3,6.7,3.2
		c3.2,1.2,6,2.8,8.9,4.3c3.6,1.8,6.9,3.8,9.9,6.2c1.8,1.4,3.7,2.7,5.5,4.1c1.4,1.1,3.2,1.8,4.4,3c1.9,2,4.4,3.5,6.5,5.3
		c1.7,1.4,3.4,2.9,5.3,4.3c1.1,0.8,1.9,1.8,2.9,2.7c0.8,0.7,1.6,1.3,2.3,2.1c1.1,1.1,2.7,1.2,4.3,1.1c0.9,0,1.9-0.3,2.8-0.5
		C91,97,92.1,97,93.2,97c1.1-0.1,2.3,0.2,3.1,1c0.5,0.5,0.9,1.1,1.3,1.7c0,0.4,0,0.8,0,1c0,0.1,0,0.2,0,0.3c0,0.1-0.1,0.1-0.2,0.1
		c-0.6,0.3-1.2,0.5-1.7,0.8c0.6,0.2,0.7,0.2,1.3,0.5l0.5,0.2c-0.1,0-0.3,0.1-0.4,0.1c0,0,0,0,0,0c0,0,0,0,0,0c0,0,0,0,0,0
		c0,0,0,0,0,0c0,0,0,0,0,0c0.4,0.2-1.3,1.3-1.1,1.7c0.1,0.3,2.1,0,2.4,0.2c0.8,0.4,2.7-0.1,3.6,0.1c2.5,0.3,4.2-1.1,6.7-1
		c5.4,0.2,10.8-0.5,16.2-0.5c5.9,0,11.8,0.3,17.6,0.6c2.1,0.1,4.1,0.7,6.3,0.9c3.6,0.3,7.1,0.7,10.6,1.2c3.8,0.5,7.7,1,11.5,1.5
		c2.8,0.4,5.7,0.8,8.5,1.3c1.6,0.3,3.1,0.7,4,1.8C183.7,110.8,183.7,111.4,182.8,111.9z"/>
	<path class="st3" d="M101.5,103.2c-0.4-0.1-0.7-0.2-1.1-0.3c-1-0.3-2-0.6-3-0.4l-0.5-0.2c-0.6-0.2-0.7-0.2-1.3-0.5
		c0.6-0.3,1.2-0.5,1.7-0.8c0.1,0,0.2-0.1,0.2-0.1c0-0.1,0-0.2,0-0.3c0-0.2,0-0.6,0-1c0.3,0.3,0.6,0.6,1,0.9c0.3,0.2,0.7,0.3,1,0.4
		C100.6,101.3,101.5,102.2,101.5,103.2z"/>
	<path class="st4" d="M69.9,128.3c0-2.5,1.6-4.8,2.8-7.2c0.2-0.5,0.7-0.8,1.1-1.2c0.3-0.2,0.6-0.3,1-0.3c0.4,0.1,0.5,0.4,0.4,0.7
		c-0.1,1.1-0.4,2.1-0.7,3.2c-0.1,0.2-0.2,0.5,0,0.8c0.9-0.3,1.4-1,2.1-1.5c0.2-0.1,0.4-0.4,0.6-0.5c0.4-0.2,0.9-0.8,1.4-0.5
		c0.4,0.3,0.3,0.8-0.1,1.3c-0.8,1-1.8,2-2.9,2.9c-0.6,0.5-1.2,1-1.6,1.6c-0.8,0.9-1.3,1.1-2.5,0.7c-0.4-0.1-0.8,0.1-1.2,0
		C70.2,128.3,70,128.3,69.9,128.3z"/>
	<path class="st1" d="M94,99.4c-0.6-0.5-1.6-0.4-2.2,0.1"/>
	<path class="st1" d="M93.2,99.5c0.2,0.1,0.1,0.4,0,0.6c-0.1,0.2-0.2,0.3-0.4,0.3c-0.2,0-0.3-0.3-0.3-0.4c0-0.2,0-0.4,0.1-0.5
		c0.1-0.1,0.4-0.1,0.4,0"/>
	<path class="st0" d="M46.1,81.8c-0.3,0.4-0.9,0.6-1.5,0.8c-1.1,0.3-2.3,0.5-3.4,0.6c-0.9-1-1.9-2-2.9-3c-1.9-1.6-4-3-5.8-4.8
		c-0.8-0.8-1.6-1.5-2.4-2.3c-0.4-0.5-0.9-1.1,0.2-1.7c0.3-0.2,0.1-0.3-0.1-0.4c-2.5-1.3-4.5-3.1-6.7-4.8c-0.1-0.1-0.2-0.1-0.2-0.1
		c-0.3-0.4-1.1-0.6-0.9-1.2c0.2-0.6,1-0.5,1.6-0.7c-0.7-0.9-1.8-1.5-2.8-2.1c1.9,0.1,3.7,0.3,5.5,0.6c2.7,0.4,5.6,1,7.4,3
		c-1.6,0.4-3.3,0.7-4.9,1.1c3.1,1.2,6.2,2.4,9.3,3.7c0.8,0.3,1.8,0.9,1.7,1.8c-0.2,1.7-3.4,0.6-4.3,2.1c2.6,1.3,5.3,2.7,7.9,4
		c0.7,0.4,1.4,0.7,1.9,1.4C46.4,80.2,46.6,81.2,46.1,81.8z"/>
	<line class="st1" x1="21.3" y1="62.1" x2="21.3" y2="62.1"/>
	<path class="st5" d="M72,128.5c0.5-0.7,0.8-1.5,1.1-2.4c0.2-0.5,0.3-0.9,0.6-1.3c0.2-0.3,0.5-0.6,0.8-0.9"/>
</g>
</svg>
