<?xml version="1.0" encoding="utf-8"?>
<!-- Generator: Adobe Illustrator 27.5.0, SVG Export Plug-In . SVG Version: 6.00 Build 0)  -->
<svg version="1.1" id="Calque_1" xmlns="http://www.w3.org/2000/svg" xmlns:xlink="http://www.w3.org/1999/xlink" x="0px" y="0px"
	 viewBox="0 0 200 200" style="enable-background:new 0 0 200 200;" xml:space="preserve">
<style type="text/css">
	.st0{fill:none;stroke:#000000;stroke-width:1.0883;stroke-linecap:round;stroke-linejoin:round;stroke-miterlimit:10;}
	.st1{stroke:#000000;stroke-width:1.0883;stroke-linecap:round;stroke-linejoin:round;stroke-miterlimit:10;}
	.st2{fill:#FFE6B4;stroke:#000000;stroke-linecap:round;stroke-linejoin:round;stroke-miterlimit:10;}
	.st3{fill:none;stroke:#000000;stroke-linecap:round;stroke-linejoin:round;stroke-miterlimit:10;}
	.st4{stroke:#000000;stroke-linecap:round;stroke-linejoin:round;stroke-miterlimit:10;}
	.st5{fill:#FFC1C2;stroke:#000000;stroke-linecap:round;stroke-linejoin:round;stroke-miterlimit:10;}
	.st6{fill:none;stroke:#000000;stroke-width:1.1166;stroke-linecap:round;stroke-linejoin:round;stroke-miterlimit:10;}
	.st7{fill:#F6F6F6;stroke:#000000;stroke-linecap:round;stroke-linejoin:round;stroke-miterlimit:10;}
	.st8{opacity:0.25;}
	.st9{fill:#F1F1F1;stroke:#000000;stroke-width:0.7307;stroke-linecap:round;stroke-linejoin:round;stroke-miterlimit:10;}
	.st10{fill:none;stroke:#000000;stroke-width:0.7307;stroke-linecap:round;stroke-linejoin:round;stroke-miterlimit:10;}
	.st11{stroke:#000000;stroke-width:0.7307;stroke-linecap:round;stroke-linejoin:round;stroke-miterlimit:10;}
	.st12{fill:#FF868B;stroke:#000000;stroke-width:0.7307;stroke-linecap:round;stroke-linejoin:round;stroke-miterlimit:10;}
</style>
<path class="st0" d="M1256.6,684.6c-1.7-0.9-2.4-1.3-3.4-2.9"/>
<path class="st1" d="M1252.7,670.7c-6.2,5.4-11.3,11.9-15.1,19.3c-2.3-0.9-4.6-1.7-6.8-2.7c4.6-7.6,11.1-14.1,18-19.8
	C1250.1,668.6,1251.4,669.6,1252.7,670.7z"/>
<path class="st0" d="M1241.8,691.6L1241.8,691.6L1241.8,691.6L1241.8,691.6c-1.4-0.6-2.8-1.1-4.2-1.6"/>
<path class="st0" d="M1253.5,686.9c-1.5-0.9-2.1-1.3-3.3-2.6"/>
<path class="st0" d="M1241.9,691.7L1241.9,691.7c0.1,0,0.1,0.1,0.2,0.1c0.1,0.1,0.2,0.1,0.3,0.2c0.9,0.7,1.7,1.5,2.7,2
	c0.8,0.5,1.9,0.8,2.8,0.5"/>
<path class="st0" d="M1248.8,689.2c-0.5-0.6-1-1.2-1.6-1.7"/>
<path class="st1" d="M1265.1,684.4c-0.3,1.1-1,2-1.7,2.9c-3.6,4.5-9,8.2-14.7,7.4c-0.3,0-0.7-0.1-1-0.2c0.3-0.1,0.6-0.2,0.9-0.4
	c1.1-0.8,1.3-2.3,0.9-3.5c-0.2-0.5-0.5-1-0.8-1.4c0.9,0.5,1.8,0.7,2.8,0.6c0.4,0,0.9-0.2,1.2-0.4c0.7-0.5,0.9-1.4,0.7-2.3V687
	c0.1,0.1,0.2,0.1,0.2,0.2c0.4,0.2,0.8,0.5,1.3,0.5c1.3,0,2-1.5,1.7-2.7c0-0.1,0-0.1-0.1-0.2c0.4,0.2,0.8,0.4,1.2,0.6
	c0.7,0.3,1.4,0.5,2.1,0.3c1.8-0.4,2.1-2.9,1.5-4.6c-1.1-3.3-3.7-5.8-6.3-8.2c-0.7-0.7-1.5-1.4-2.3-2c-1.3-1.1-2.6-2.2-3.9-3.3
	c-1.9-1.7-3.9-3.4-5.5-5.2c2.4,1.1,4.8,2.4,7,3.9c1.4,0.9,2.8,1.9,4.2,3c2.8,2.2,5.3,4.6,7.6,7.3
	C1264.1,678.7,1265.9,681.6,1265.1,684.4z"/>
<path class="st0" d="M1241.7,691.6C1241.8,691.6,1241.8,691.6,1241.7,691.6C1241.8,691.6,1241.8,691.6,1241.7,691.6
	C1241.8,691.6,1241.8,691.6,1241.7,691.6c0.1,0.1,0.2,0.1,0.2,0.1l0.1,0.1c0.1,0.1,0.2,0.1,0.3,0.2c1.7,1.2,3.5,2.1,5.5,2.6"/>
<path class="st2" d="M1201.1,642.4c-0.2,2.3-0.4,4.3-0.7,5.9c-3.5,0-9.2,0-12.7-0.2c-11-0.5-22.8-0.9-33.8-1.1
	c0.9-4.6,2.3-11.2,2.5-14.1c1.4-14,0.6-28.2-2.3-42c-0.2-1-0.4-2-0.7-2.9c7.4-5.1,7.3-6.8,17.3-12.4c2.9-1.6,4.2-2.6,5.6-3.7
	c0.5,1,1,2.1,1.5,3.2c3.6,7.5,8.1,17.6,9.6,25.3c0.1,0.6,0.2,1.1,0.3,1.6c-4,1.7-10.7,7.6-14.4,9.8c-4.2,2.5-1.7,1.7-5.3,3.2
	c8.3,2.3,19.8-0.7,30.6-0.9c0.3,0.8,0.6,1.9,0.9,3.2c0.7,3.1,1.2,7,1.5,9.3C1201.5,630.2,1201.5,636.9,1201.1,642.4z"/>
<path class="st3" d="M1177.8,575.1c3.9-2.9,8.1-5.5,12.7-7.1c6.3-2.2,13.5-2.5,19.5,0.5c6.3,3.2,10.4,9.6,13.2,16.2
	c4.5,10.7,6.2,22.2,7.8,33.7"/>
<path class="st3" d="M1268.9,604.9L1268.9,604.9c0.1,0.3,0.1,0.1,0.1-0.2"/>
<path class="st3" d="M1268.9,604.8L1268.9,604.8c0,0.7,0,1.6,0,3.1"/>
<path class="st3" d="M1244.7,664L1244.7,664c-0.2-0.2-0.5-0.5-0.7-0.8c-2.5-3-4.1-7.4-5.6-11c-1-2.5-1.8-5.1-2.6-7.7
	c-1.7-6-2.8-12.1-3.7-18.2c-0.4-2.6-0.8-5.2-1.1-7.9"/>
<path class="st3" d="M1233.1,687c-3.2-1.4-6.2-3.1-8.6-5.7c-6.6-7-6.6-17.6-7.3-27.2c-0.3-3.8-0.7-7.6-1.3-11.3
	c-1.4-8.7-3.6-17.3-6.7-25.5"/>
<path class="st3" d="M1187.5,600.3c4.2-1.3,9-1.3,12.6,1.2c3.3,2.2,5.2,5.9,6.7,9.6c0.9,2,1.7,4.1,2.5,6.2c-2-0.1-4-0.1-6-0.1
	c-1.2,0-2.5,0-3.7,0c-0.3,0-0.6,0-0.8,0"/>
<path class="st4" d="M1281.1,623L1281.1,623c-0.1,3-0.3,6-0.8,9c-4.6-5.8-10.8-10.3-17.6-13c0.9-1.5,1.2-3.5,1-5.4
	C1269.8,616,1275.7,619.2,1281.1,623z"/>
<path class="st3" d="M1261.9,601.9c-0.1,0.3-0.1,0.7-0.2,1c0,0.1,0,0.1,0,0.2c-0.2,3.4,1.3,6.5,1.9,9.8c0,0.2,0.1,0.5,0.1,0.7"/>
<path class="st3" d="M1231,618.4c8.4,0.7,16.8,1.6,25.1,2.9c1.2,0.2,2.5,0.4,3.8,0s2.2-1.2,2.8-2.3"/>
<path class="st3" d="M1273.9,607.2c0,0,0,0.1,0,0.2c0.2,2.3,0.3,2.1,0,4.4"/>
<path class="st3" d="M1278.3,614.5c-0.1-1.3,0-0.5,0.1-1.7c0-0.1,0-0.2,0-0.3"/>
<path class="st3" d="M1235.8,644.5c7.7,0.1,15.4,0.3,23.2,0.5c3.5,0.1,7,0.1,10.4-0.5"/>
<path class="st4" d="M1282.9,632.8c0,0.8-0.1,1.7-0.2,2.5c-0.2,1.6-0.6,3.2-1.3,4.7c-1.4,2.7-4.2,4.7-7.3,5.1
	c-1.6,0.2-3.2,0-4.7-0.6c1.5-0.3,3-0.7,4.5-1.3c1.6-0.7,3.2-1.6,4.2-3.1c0.8-1.2,1.2-2.6,1.5-4s0.6-2.8,0.8-4.1c0.5-3,0.7-6,0.8-9
	l0,0c0.1-2.4,0-4.9-0.2-7.4c-0.1-1-0.2-2.2-1-2.9c-0.4-0.3-1-0.5-1.5-0.4c0.1-1.2,0-2.4-0.4-3.4c-0.5-1.2-1.6-2.1-2.9-2.2
	c-0.4,0-0.8,0.1-1.2,0.4c-0.1-1.5-0.6-3.1-2-3.6c-1-0.3-2.2,0.2-2.9,1.1c0-0.5-0.1-1-0.1,0.2l0,0c-0.1-0.7-0.3-1.3-0.5-2
	c-0.8-2.2-3.6-4.1-5.4-2.7c-0.5,0.4-0.8,1-1,1.6c0-1.3-0.7-2.8-0.1-4c0.8-1.6,3-1.6,4.7-1.2c3.8,0.9,7.5,2.8,9.9,5.9
	c1.5,2,2.5,4.4,3.2,6.8c1.6,4.8,2.6,9.8,3,14.9C1282.9,627,1283,629.9,1282.9,632.8z"/>
<path class="st3" d="M1269,604.7L1269,604.7L1269,604.7C1268.9,603.7,1269,604.2,1269,604.7z"/>
<path class="st3" d="M1261.9,601.9c0,0.4,0,0.7-0.2,1c0,0.1-0.1,0.2-0.1,0.2"/>
<path class="st2" d="M1053.4,557c0,0.3-0.2,0.7-0.6,0.9c-2.5,1.2-4.8,2.8-7,4.6c-0.4,0.3-0.5,0.9-0.2,1.3c1.7,2.5,1.7,5.8,1.1,9
	c-0.2,0.9-1.3,1.1-1.8,0.4c-0.2-0.3-0.5-0.6-0.8-0.9c-0.9-0.8-1.9-1.4-3-1.9c-0.6-0.3-1.3,0.1-1.4,0.8l-1.2,8.2
	c-0.1,0.7-0.2,1.4-0.2,2c-0.1,1-1.4,1.2-1.8,0.4c-0.6-1-1.2-2-1.8-2.9c-0.2-0.3-0.4-0.6-0.7-1c3.7-6.3,8.9-15.1,12.5-21.3
	c1.9-3.3,3.8-6.6,5.4-10c0.5-1,1-2,1.4-3.1c0.4-0.3,0.9-0.7,1.2-1c0.6-0.5,1.5-0.2,1.6,0.5c0.8,4.2-1,8.7-4.2,11.4
	c-0.7,0.5-0.3,1.7,0.6,1.7C1053.1,556,1053.4,556.5,1053.4,557z"/>
<path class="st4" d="M1053.8,542.3c-0.1,0.4-0.3,0.7-0.4,1.1c-0.4,1-0.9,2.1-1.4,3.1c-1.6,3.4-3.5,6.7-5.4,10
	c-3.6,6.2-8.7,15-12.5,21.3c-0.1,0.2-0.2,0.4-0.3,0.6c-1-0.2-1.9-0.5-2.9-0.8c0,0,0,0-0.1,0c-0.3-0.3-0.6-0.4-0.9-0.5
	c-0.1,0-0.2,0-0.3,0c-1.3-0.6-2.6-1.4-3.7-2.3c-0.1-0.1-0.3-0.2-0.4-0.4c-0.3-0.3-0.6-0.6-0.9-1c-0.7-0.8-1.2-1.8-1.6-2.8
	c-0.8-2.2-0.7-4.7-0.6-7c0.3-4,2.5-10.9,4.7-14.2s6-5.4,9.9-6.5c2.9-0.8,6-1.1,9.1-0.9c1.6-5.5,3.8-10.9,6.1-16.2
	c0.8-1.9,1.6-3.8,2.8-5.4c0.2-0.3,0.5-0.7,0.9-0.8c1-0.3,1.8,0.8,1.9,1.8C1058,528.4,1056.4,535.7,1053.8,542.3z"/>
<path class="st3" d="M1216,642.8c-5.2-0.4-10.3-0.4-15.5-0.5"/>
<path class="st3" d="M1096.7,530.8c5.9,4.3,11.6,18.7,9.9,27.1c-0.3,1.3-0.6,2.5-1,3.7"/>
<line class="st3" x1="1113.1" y1="589.3" x2="1113.1" y2="589.3"/>
<path class="st3" d="M1106,518.7c7.6,5.6,15.7,20.1,17.5,29c1,4.9,1.5,9.8,1.3,14.8"/>
<line class="st3" x1="1113.1" y1="589.3" x2="1113.1" y2="589.3"/>
<path class="st4" d="M1156.4,632.8c-0.3,2.9-1.6,9.5-2.5,14.1c-0.1,0.3-0.1,0.7-0.2,1l0,0c-27.1,0.7-54.2,1.5-81.3,2.2
	c-16.6,0.5-35.2,3.8-50.3-2.8c-0.2-0.1,0.9-3.2,0.7-3.3l-1.2,3c0.1-1,0.3-2.1,0.5-3.3l0,0c1.4-6.6,5.3-16.1,7.9-20.7
	c0.5,1.2,2.1,2.5,3.1,3.1c4,2.5,5.3,2.6,9.3,2.6c6.3,0.1,9.1-0.1,11.5-5.9c2.4-5.8,2.6-10.1,0.8-16.1c-1.2-4.3-2.5-11.8-4.4-15.8
	c-0.1-0.2,0.3-0.4,1.4,0.9c0.6,0.6,1.4,1,2.2,0.9c3-0.3,5.6,0.2,8-0.3c3.6-0.7,7.1-2.3,9.7-4.8c7.1-1,14-3.5,19.9-7.5
	c6.5-4.5,11.6-11,14.1-18.4c4,0.7,8,1.3,12,1.4c2.4,0,4.8-0.1,7.2-0.5c-0.1,2.9-0.4,5.8-1.1,8.6c-1.6,7-5.2,13.6-10.6,18.2
	c7.4-1,14.8-2.1,22.2-3.2c6-0.8,12.3-1.6,17.9,0.5l0,0c0.1,0.4,0.2,0.8,0.3,1.3c0.2,1,0.5,1.9,0.7,2.9
	C1157.1,604.6,1157.8,618.8,1156.4,632.8z"/>
<path class="st3" d="M1049.1,593.1"/>
<path class="st3" d="M1029.3,624.2c-0.4-0.8-0.7-1.6-0.9-2.3c-0.7-2-0.5-1.8-0.5-3.9c0-4,1.3-7.8,2.8-11.5c1.9-4.8,4.2-9.4,6.4-14"
	/>
<path class="st5" d="M1077.2,546.7c-0.3,1.5,0.8,2.9,1.6,4.2s1.2,3.3,0,4.1c-1,0.7-2.6,0-3.2-1.1s-0.3-2.5,0.2-3.7
	C1076.2,549,1076.9,547.9,1077.2,546.7"/>
<path class="st3" d="M1034.1,577.7c-0.9-1.3-1.7-2.8-1.4-4.3"/>
<path class="st3" d="M1047.5,548c1.2-1.4,3.7-3.1,5.8-4.6"/>
<path class="st6" d="M1056.8,550.6c3.8,1.4,7.2,3.9,9.7,7.1c0.7,0.9,1.2,1.8,1.8,2.7c4.8,7.4,9.4,15.1,5.4,23
	c-3.9,7.7-10.7,9.8-19.4,8.4c-2-0.3-2.1-0.3-3.9-2.1"/>
<path class="st3" d="M1066,586.1"/>
<path class="st3" d="M1067,563.4"/>
<path class="st6" d="M1047.3,579.2c-0.7-1.1-2.5-0.9-3.3,0.2s-0.5,2.6,0.2,3.7c0.5,0.8,1.2,1.5,2.2,1.8c0.9,0.3,2,0.2,2.7-0.4
	c0.2-0.1,0.3-0.3,0.5-0.3c0.9-0.2,1.2,1.4,2.1,1.5"/>
<path class="st6" d="M1057.3,565.1c-2.4,0.5-4.3,2.7-4.5,5.1"/>
<path class="st6" d="M1065.5,557.5c-2.2,0.6-3.8,2.9-3.7,5.2"/>
<path class="st6" d="M1064.7,566.8c0.2,1.8-1.4,3.6-3.2,3.7"/>
<path class="st6" d="M1068,574c-0.9,0.7-0.9,2.2,0,2.9s2.4,0.3,2.8-0.8"/>
<path class="st3" d="M1022.8,644c-0.2-0.1-0.4-0.2-0.7-0.3"/>
<path class="st3" d="M1027.9,588c-7.1,11.2-13,23.3-15.1,36.4c-0.8,5.3-0.8,11.3,2.8,15.3c1.4,1.5,3.2,2.5,5.1,3.5
	c0.4,0.2,0.9,0.4,1.3,0.6"/>
<path class="st3" d="M1028,573.8c-0.2-0.1-0.4-0.1-0.6-0.2c-0.2-0.1-0.4-0.2-0.7-0.3c0.1,0,0.2,0,0.3,0
	C1027.5,573.3,1027.8,573.5,1028,573.8z"/>
<path class="st3" d="M1028.9,589.5c-0.3-0.5-0.6-1-0.9-1.5c-2.5-4.3-4.7-8.9-4.3-13.8c0-0.3,0.1-0.6,0.3-0.8
	c0.5-0.5,1.2,0.1,1.7,0.7c0,0,0,0,0,0.1c1.2,1.8,2.3,3.6,3.5,5.5"/>
<path class="st3" d="M1028,573.8c0.2,0.2,0.5,0.5,0.7,0.8c2.2,2.9,4.3,5.8,6.5,8.7c1.3,1.8,2.9,3.7,5,4c1.2,0.2,2.4-0.1,3.5-0.4
	c1.9-0.4,3.9-0.8,5.9-0.9c0.8-0.1,1.9,0,2.3,0.7c0.7,1.1-0.6,2.3-1.7,2.9c0,0-0.1,0.1-0.2,0.1c-4,2.1-8.6,3.1-13.1,2.9"/>
<path class="st3" d="M1026.8,573.3c-0.5,0-0.9,0.4-1.2,0.8c-0.2,0.3-0.3,0.7-0.3,1.1c0,1,0.6,1.9,1.1,2.8"/>
<g>
	<path class="st7" d="M1084.8,544.1c-0.9,0.6-1.9,1-2.9,1.4c-4-2.5-7.3-6-9.6-10c0.2-1.1,0.6-2.6,1.1-3.8
		C1076.1,536.7,1080.1,541,1084.8,544.1z"/>
	<line class="st3" x1="1073.4" y1="531.7" x2="1073.4" y2="531.7"/>
	<path class="st7" d="M1114.6,515.3c-9.7,9.5-19.4,18.9-29.2,28.4c-0.2,0.2-0.4,0.3-0.7,0.5c-4.8-3.1-8.7-7.4-11.4-12.4l0,0l0,0
		c9.5-9.6,19.6-19.5,29.7-28.4c0.1,0.1,0.2,0.1,0.3,0.2c4.9,2.4,8.4,5.5,10.8,10.4L1114.6,515.3z"/>
	<path class="st3" d="M1073.4,531.7L1073.4,531.7L1073.4,531.7"/>
	<path class="st3" d="M1115,511L1115,511"/>
	<path class="st7" d="M1115,511c0.2,1.3,0,3-0.3,4.3l-0.5-1.5c-2.3-4.9-5.9-8-10.8-10.4c-0.1-0.1-0.2-0.1-0.3-0.2l0,0
		c0.9-0.7,2.4-0.9,3.5-0.9C1109.9,504.7,1112.7,507.7,1115,511L1115,511z"/>
</g>
<image style="overflow:visible;enable-background:new    ;" width="878" height="1580" xlink:href="../../../02-CROQUIS/V2/OELP Production File-1.png"  transform="matrix(-1.466386e-02 -1.517070e-02 1.517070e-02 -1.466386e-02 1088.6332 541.6234)">
</image>
<g>
	<path class="st7" d="M1095.2,522.1c-0.3,0.5-1,0.8-1.7,0.7c-0.6-0.1-1.2-0.4-1.7-0.8c-0.1-0.1-0.2-0.2-0.3-0.3
		c-2.4-1.8-4.3-4.3-6.1-6.8c-0.5-0.6-1-1.3-1.1-2.1c0-0.1,0-0.1,0-0.2c-0.1-0.7,0.2-1.6,0.9-1.8c0.4-0.2,0.9-0.1,1.4,0
		c0.8,0.3,2.4,0.9,2.9,1.5c0.7,1,1.5,1.9,2.4,2.8c0.1,0.1,0.1,0.1,0.2,0.2c1.2,1.2,2.5,3.1,3.1,4.6
		C1095.4,520.7,1095.6,521.5,1095.2,522.1z"/>
	<path class="st7" d="M1097,517.3c-0.1,0.7-0.6,1.3-1.3,1.2c-0.3,0-0.6-0.3-0.9-0.5c-1-0.8-2-1.7-2.9-2.6c-0.1-0.1-0.2-0.2-0.2-0.2
		c-0.9-0.9-1.7-1.8-2.4-2.8c-0.2-0.2-0.3-0.4-0.4-0.6c-0.4-0.5-0.7-1.1-0.8-1.7s0.1-1.3,0.7-1.6c0.5-0.3,1.1-0.1,1.7,0.1
		c0.2,0.1,0.3,0.1,0.4,0.2c0.6,0.2,1.1,0.5,1.6,0.8c0.6,0.3,1.1,0.8,1.5,1.3l1.3,1.5c1.2,1.5,1.3,1.7,1.5,2.5
		C1097.2,515.4,1097.1,516.6,1097,517.3z"/>
	<path class="st7" d="M1092,525.1c-0.3,0.6-1.1,0.5-1.7,0.2c-0.5-0.2-0.9-0.5-1.2-0.7c-0.9-0.7-1.7-1.5-2.4-2.4
		c-0.2-0.2-0.4-0.5-0.6-0.7c-0.1-0.1-0.1-0.1-0.2-0.2c-0.9-1-1.7-2-2.6-3.1c-0.8-1-1.7-2-2-3.2c-0.2-0.7-0.2-1.6,0.3-2.1
		c0.6-0.7,1.6-0.7,2.4-0.3c0.1,0,0.1,0.1,0.2,0.1c0,0.1,0,0.1,0,0.2c0.2,0.8,0.6,1.4,1.1,2.1c1.8,2.4,3.7,4.9,6.1,6.8
		c0.3,0.9,0.5,1.8,0.6,2.7C1092.1,524.6,1092.2,524.9,1092,525.1z"/>
	<path class="st7" d="M1089.1,524.5c-1.8-0.1-5,0-6.6-0.7c-0.7-0.3-1.3-0.7-1.8-1.3c-0.7-0.7-1.2-1.6-1.3-2.7c0-0.3,0-0.6,0.2-0.7
		c0.2-0.2,0.6-0.2,0.9-0.2c1.8,0.3,4,1.3,5.5,2.3c0.1,0.1,0.1,0.2,0.2,0.2c0.2,0.2,0.4,0.5,0.6,0.7
		C1087.4,523,1088.2,523.9,1089.1,524.5z"/>
</g>
<g class="st8">
	<path class="st9" d="M131.5,107.6c-0.8,0.3-1.7,0.6-2.5,0.9C129.9,108.2,130.7,107.8,131.5,107.6z"/>
	<path class="st9" d="M95.2,119.9c-0.2,0.1-0.4,0.1-0.5,0.2c0,0,0,0,0,0C94.8,120.1,95,120,95.2,119.9z"/>
	<path class="st9" d="M97,119.2c-0.5,0.3-1.1,0.5-1.7,0.7C95.8,119.7,96.4,119.4,97,119.2z"/>
	<path class="st9" d="M54.9,133c-0.3,0.1-0.6,0.2-0.8,0.3C54.3,133.1,54.6,133,54.9,133z"/>
	<path class="st10" d="M163.1,95.5C163.1,95.5,163.1,95.5,163.1,95.5"/>
	<path class="st10" d="M139.1,91.3c-0.4-0.1-0.9-0.1-1.3-0.2"/>
	<path class="st10" d="M161.6,97.8L161.6,97.8"/>
	<path class="st10" d="M159.2,97.4L159.2,97.4"/>
	<path class="st9" d="M69.4,119c-0.4,0.2-0.7,0.4-0.9,0.7c0,0-0.1-0.1-0.1-0.1C68.6,119.3,69,119.1,69.4,119L69.4,119z"/>
	<path class="st11" d="M55.5,113L55.5,113C55.5,113,55.5,113,55.5,113C55.5,112.9,55.5,113,55.5,113z"/>
	<path class="st12" d="M131.5,107.6c-0.8,0.3-1.7,0.6-2.5,0.9C129.9,108.2,130.7,107.8,131.5,107.6z"/>
	<path class="st12" d="M95.2,119.9c-0.2,0.1-0.4,0.1-0.5,0.2c0,0,0,0,0,0C94.8,120.1,95,120,95.2,119.9z"/>
	<path class="st12" d="M97,119.2c-0.5,0.3-1.1,0.5-1.7,0.7C95.8,119.7,96.4,119.4,97,119.2z"/>
	<path class="st12" d="M69.4,119c-0.4,0.2-0.7,0.4-0.9,0.7c0,0-0.1-0.1-0.1-0.1C68.6,119.3,69,119.1,69.4,119L69.4,119z"/>
	<path class="st12" d="M66.4,112.6c-0.5,0-1.1,0-1.6-0.1c0.2,0,0.4,0,0.6,0C65.8,112.6,66.1,112.6,66.4,112.6z"/>
	<path class="st12" d="M67,112.6h-0.1c-0.1,0-0.1,0-0.2,0C66.8,112.6,66.9,112.6,67,112.6z"/>
	<path class="st12" d="M68.6,112.7c-0.5,0-1-0.1-1.5-0.1C67.6,112.6,68.1,112.7,68.6,112.7z"/>
	<path class="st11" d="M53.7,133.2c0.3-0.1,0.6-0.2,0.8-0.3C54.3,133,54,133.1,53.7,133.2z M51.2,126c-1.7,0.5-3.4,1-5,1.4
		c0.4,0.2,0.8,0.4,1.1,0.7c0.1,0.1,0.2,0.2,0.3,0.2c1.4-0.5,3-1,4.5-1.5C51.8,126.5,51.5,126.3,51.2,126z M59.4,115.3
		c0,0-0.1,0-0.1-0.1c0,0-0.1-0.1-0.1-0.1c-0.1-0.1-0.2-0.1-0.3-0.2c-0.1,0-0.1-0.1-0.2-0.1c-0.2-0.1-0.3-0.3-0.5-0.4c0,0,0,0,0,0
		c0,0,0,0,0,0v0c0.5,0.3,0.8,0.7,1.4,1c0,0,0,0,0.1,0C59.5,115.4,59.4,115.3,59.4,115.3z M69.3,119c-0.3,0.1-0.7,0.3-1,0.6
		c0.1,0,0.1,0.1,0.1,0.1C68.7,119.4,69,119.1,69.3,119L69.3,119z M68.8,120.9c0.3,0.1,0.6,0.2,1,0.2h0c3.7-1.2,6.5-2.2,7.6-2.9
		C76.1,118.7,72.9,119.7,68.8,120.9z M71.2,116.5c-0.2,0.1-0.5,0.1-0.8,0.1c0.3,0,0.6,0,0.8,0.1C71.2,116.6,71.2,116.5,71.2,116.5z
		 M71.1,116.7c0,0.1-0.1,0.2-0.2,0.3C71.9,116.9,71.7,116.8,71.1,116.7z M69.1,112.6L69.1,112.6c-0.1,0-0.1,0-0.1,0
		c-0.7,0-1.5-0.1-2.2-0.1c-0.7-0.1-1.5,0-2.2-0.1h0c0,0,0,0,0,0c-0.1,0-0.1,0-0.2,0.1c0.1,0,0.1,0,0.2,0.1c0.1,0,0.1,0,0.1,0h0.1
		c0,0,0,0,0.1,0c0.5,0.1,1.1,0.1,1.6,0.1c-0.3,0-0.7,0-1,0c0.5,0,0.9,0,1.4,0C67.5,112.6,68.3,112.7,69.1,112.6l0.1,0.1
		c0.1,0,0.1,0,0.2,0C69.3,112.6,69.2,112.6,69.1,112.6z M67.1,112.6c0.5,0,1,0.1,1.5,0.1C68.1,112.7,67.6,112.6,67.1,112.6z
		 M66.7,112.6c0.1,0,0.1,0,0.2,0H67C66.9,112.6,66.8,112.6,66.7,112.6z M94.7,120.1C94.7,120.1,94.6,120.1,94.7,120.1
		c0.1,0,0.3-0.1,0.5-0.2C95,120,94.8,120.1,94.7,120.1z M97.7,119c-0.1,0.1-0.2,0.1-0.3,0.1c0.3-0.1,0.6-0.2,0.8-0.3
		C98.1,118.8,97.9,118.9,97.7,119z M98.3,118.8c1.6-0.6,3.2-1.1,4.9-1.6C101.6,117.6,99.9,118.1,98.3,118.8z M104.3,116.8
		c-0.2,0.1-0.5,0.1-0.7,0.2c0.1,0,0.3-0.1,0.4-0.1c0.8-0.2,1.5-0.4,2.2-0.7C105.6,116.4,104.9,116.6,104.3,116.8z M107.1,116
		c0.2-0.1,0.4-0.1,0.6-0.2c0,0,0,0,0.1,0C107.6,115.8,107.4,115.9,107.1,116z M107.8,115.7c0.1,0,0.2,0,0.2-0.1c0,0,0.1,0,0.1,0
		C108,115.7,107.9,115.7,107.8,115.7z M108.2,115.6c0.1,0,0.1,0,0.2-0.1C108.3,115.6,108.2,115.6,108.2,115.6z M110.7,103.8
		L110.7,103.8c-0.7,0.3-1.4,0.6-2.1,0.9c-0.3,0.2-0.7,0.3-1.1,0.4h-0.1c0,0.1-0.1,0.2-0.1,0.3c0.1,0,0.2-0.1,0.3-0.1
		c0.1,0,0.2-0.1,0.3-0.1h0c0.1,0,0.2-0.1,0.3-0.1c0.1,0,0.2-0.1,0.3-0.1c0.7-0.3,1.3-0.6,2-0.9h0.1c0-0.1,0.1-0.1,0.1-0.2
		C110.7,103.9,110.7,103.8,110.7,103.8C110.7,103.8,110.7,103.8,110.7,103.8z M97.7,119c-0.1,0.1-0.2,0.1-0.3,0.1
		c0.3-0.1,0.6-0.2,0.8-0.3C98.1,118.8,97.9,118.9,97.7,119z M98.3,118.8c1.6-0.6,3.2-1.1,4.9-1.6C101.6,117.6,99.9,118.1,98.3,118.8
		z M104.3,116.8c-0.2,0.1-0.5,0.1-0.7,0.2c0.1,0,0.3-0.1,0.4-0.1c0.8-0.2,1.5-0.4,2.2-0.7C105.6,116.4,104.9,116.6,104.3,116.8z
		 M107.1,116c0.2-0.1,0.4-0.1,0.6-0.2c0,0,0,0,0.1,0C107.6,115.8,107.4,115.9,107.1,116z M107.8,115.7c0.1,0,0.2,0,0.2-0.1
		c0,0,0.1,0,0.1,0C108,115.7,107.9,115.7,107.8,115.7z M108.2,115.6c0.1,0,0.1,0,0.2-0.1C108.3,115.6,108.2,115.6,108.2,115.6z"/>
	<path class="st11" d="M170.7,95.5c-0.1-0.1-0.1-0.2-0.3-0.3c-0.3-0.1-1.4,0.2-1.9,0.3c-0.4,0.1-1.1,0.3-1.9,0.6
		c-0.9-0.2-2.3-0.5-2.9-0.6c-0.3,0-0.6,0-0.9-0.1c0.1-0.1,0.2-0.1,0.3-0.1h-0.2c-1.2-0.2-2.1-0.4-3.1-0.7c-0.5-0.1-1-0.2-1.6-0.3
		c0-0.1,0-0.2,0-0.3c-0.3-6.7-7.8-5-12.1-3.8c-5.5,1.6-10.9,1.5-16.1,4.5c-1.3,0.8-2.6,1.6-3.9,2.3c-0.6,0.3-1.5,0.6-2.2,0.9
		c-0.9,0.4-1.9,0.8-2.9,1.2c-1.8,0.7-3.3,1.6-5.1,2.3c-1.7,0.7-3.3,1.5-5,2.2c-0.1,0.1-0.2,0.1-0.3,0.2c0,0,0,0.1-0.1,0.1
		c0,0.1-0.1,0.1-0.1,0.2h-0.1c-0.7,0.3-1.3,0.6-2,0.9c-0.1,0-0.2,0.1-0.3,0.1c-0.1,0-0.2,0.1-0.3,0.1h0c-0.1,0-0.2,0.1-0.3,0.1
		c-0.1,0-0.2,0.1-0.3,0.1c0-0.1,0.1-0.2,0.1-0.3c-0.2,0.1-0.3,0.2-0.5,0.2c-0.6,0.3-1.1,0.6-1.8,0.9c-1,0.4-1.9,0.6-2.9,1
		c-1.2,0.5-2.4,0.9-3.6,1.4c-1.4,0.5-2.8,0.9-4.2,1.4c-1.3,0.4-2.7,0.7-4,0.8c-1.4,0.2-2.9,0.6-4.4,0.8c-1.4,0.3-2.8,0.4-4.2,0.5
		c-1.6,0.2-3.1,0.3-4.6,0.3c-0.2,0-0.3,0-0.5,0c-0.7,0-1.4,0.1-2.2,0.1c-0.3,0-0.6,0-0.9,0c-1.4,0-3,0.1-4.4,0.1
		c1.1-0.3,2.2-0.6,3.3-0.9c2.9-0.8,5.8-1.8,8.7-2.6c0.9-0.3,1.8-0.6,2.7-0.9c1-0.3,2-0.6,2.9-0.9c1.3-0.4,2.5-0.9,3.8-1.4
		c3.1-0.9,6.1-1.9,9.1-2.8c1.4-0.4,2.7-0.9,4.1-1.4c1.6-0.5,3.1-1.1,4.7-1.6c0.1,0,0.2-0.1,0.2-0.1c0.2-0.1,0.3-0.1,0.4-0.1
		c0.9-0.3,1.9-0.7,2.9-0.9c0.2-0.1,0.3-0.1,0.4-0.1c0.5-0.2,1.1-0.3,1.6-0.5c2-0.6,3.9-1.4,6-1.9c1.6-0.4,3-0.9,4.5-1.4
		c1.4-0.4,2.8-0.8,4.3-1.3c1.1-0.3,3-1,4.6-1.5c0.4,0.1,0.6,0.2,1,0.3c0,0,0,0,0.1,0c0.1,0,0.2-0.1,0.2-0.1c0.1-0.1,0.2-0.1,0.2-0.1
		c0.2-0.1,0.3-0.1,0.5-0.2c0.2-0.1,0.3-0.1,0.4-0.2c0.2-0.1,0.3-0.1,0.5-0.2h0.1c0.1,0,0.1,0,0.1-0.1c0.1,0,0.1-0.1,0.2-0.1
		c0.3-0.1,0.6-0.2,0.6-0.2c0.2-0.1,0.1-0.1,0.3-0.3c0,0,0.1-0.1,0.2-0.2c0,0,0,0,0,0c0,0,0.1-0.1,0.1-0.1c0.3-0.2,0.6-0.5,0.8-0.8
		c0.1-0.1,0.2-0.3,0.2-0.4c0-0.3-0.3-0.5-0.9-0.5c-0.7,0-1,0-1.7,0.2c-0.9,0.2-1.7,0.4-2.6,0.7c-0.9,0.3-1.9,0.6-2.8,0.9
		c-3.5,1.2-7.1,2.3-10.5,3.6c-2.4,0.9-4.9,1.7-7.4,2.6c-0.1,0-0.1,0-0.2,0.1c-0.1-0.1-0.4-0.3-0.6-0.3c-0.6-0.1-1.6,0.3-2.1,0.6
		c-0.4,0.3-0.6,0.6-0.8,0.8c0,0,0,0,0,0c-0.1,0-0.2,0-0.4,0.1c-0.3,0.1-0.6,0.1-0.8,0.2c-1.1,0.3-2.2,0.6-3.3,0.9
		c-0.7,0.2-1.4,0.4-2.1,0.6c-2.2,0.8-4.4,1.3-6.7,2.1c-1.4,0.4-2.8,0.9-4.3,1.3c-1.3,0.4-2.5,0.8-3.8,1.3c-1.3,0.4-2.6,0.8-3.9,1.2
		c-0.7,0.2-1.3,0.4-2,0.6c-0.7,0.2-1.3,0.4-1.9,0.7c-1.2,0.4-2.2,0.8-3.3,1.2c-0.9,0.3-1.9,0.6-2.8,0.9c-0.8,0.3-1.6,0.5-2.4,0.8
		c-0.3,0.1-0.7,0.2-1,0.3c-0.6,0.2-1,0.3-1.5,0.5c-0.7,0.2-1.3,0.4-2,0.6c-0.1,0.1-0.2,0.1-0.3,0.1c-0.6,0.2-1.5,0.4-2.4,0.7
		c0.7,0.1,1.5,0.1,2.2,0.1c0.7,0.1,1.5,0.1,2.2,0.1c0,0,0,0,0.1,0h0.1c0.1,0,0.2,0,0.3,0c-0.1,0-0.1,0-0.2,0H69
		c-0.7,0-1.5-0.1-2.2-0.1c-0.5,0-0.9,0-1.4,0c0.3,0,0.7,0,1,0c-0.5,0-1.1,0-1.6-0.1c0,0,0,0-0.1,0h-0.1c-0.1,0-0.1,0-0.1,0
		c-0.1-0.1-0.1-0.1-0.2-0.1c0.1,0,0.1,0,0.2-0.1h-0.1c-0.1,0-0.1,0-0.1,0c-0.1-0.1-0.1-0.1-0.2-0.1c-0.4-0.1-1-0.2-1.4-0.2l4.4-0.5
		c0,0-6.7-1.7-8.5-1.6c-1.3-0.2-2.8-0.2-4.4-0.1c-0.3,0-0.7,0.1-1,0.1c-0.3,0.1-0.6,0.2-0.9,0.3c-1.1,0.4-1.7,1.1-1.6,1.5
		c0,0.1,3.5,0.8,4.4,1c0,0,0,0,0,0c0,0,0,0,0,0c0,0,0,0,0.1,0c0,0,0,0,0,0c0,0,0,0,0,0c0,0,0,0,0,0h0c0.5,0.2,1.6,0.7,2.1,0.9
		c0.2,0.1,0.4,0.2,0.6,0.3c0.5,0.3,0.8,0.8,1.4,1.1l0.1,0.1c0.1,0,0.1,0.1,0.1,0.1c0.4,0.2,0.7,0.5,1.2,0.7c0.7,0.2,1.2,0.6,1.8,0.9
		c0.5,0.2,1,0.5,1.5,0.8c-6.6,1.1-13.6,1.7-19.9,3.5c-0.1-0.1-0.2-0.1-0.2-0.2c0.7-0.2,1.4-0.6,1.9-0.8c0.5-0.2,1.1-0.4,1.6-0.6
		c1.1-0.4,2.4-0.8,3.6-1.2c1.7-0.6,3.3-1.3,5-1.8c0.7-0.2,2.1-0.7,3.3-1.2c-0.1,0-0.1,0-0.1,0c-0.6-0.3-0.9-0.7-1.4-1
		c-0.7,0.2-1.4,0.4-2,0.6c-0.8,0.3-1.7,0.7-2.5,0.9c-0.5,0.2-0.9,0.2-1.4,0.4c-1.1,0.3-2.1,0.7-3.2,1.1c-1.7,0.5-3.4,1.1-5.1,1.6
		c-1.5,0.6-3.1,0.9-4.6,1.4c-1.3,0.5-9.8,2.3-11.2,2.8c-1.1,0.3-2.3,0.7-3.2,1.1c-1.3,0.6-2.3,1.6-1.3,1.7c1.3,0.3,2.6-0.1,4.3-0.6
		c0.8-0.2,1.7-0.3,2.5-0.6c0.8-0.3,8.8-1.9,9.6-2.2c0,0,0,0,0,0c-2.1,0.9-4.2,2-6,3.4c-4.7,3.5-2.9,5.4,2.8,4
		c1.4-0.4,4.9-1.3,9.4-2.5c1.6-0.4,3.2-0.9,5-1.4c5.9-1.7,12.5-3.5,17.6-5.1c4.1-1.2,7.3-2.2,8.6-2.7c-1.1,0.7-3.9,1.7-7.6,2.9h0
		c-5.1,1.7-11.7,3.7-17.7,5.6c-1.6,0.5-3.1,1-4.5,1.5c-5.1,1.7-9.1,3.3-10.3,4.4c3.2,4,10.6,1.7,14.4,0.2c0.3-0.1,0.6-0.2,0.9-0.3
		c0.2,0.1,0.4,0.2,0.6,0.3c0.2,0.1,0.3,0.2,0.4,0.3c0.3-0.1,0.6-0.2,0.8-0.3c-0.3,0.1-0.6,0.2-0.8,0.3c-0.6,0.2-4.4,1.9-5.5,2.4
		c-1.6,0.8-0.4,1.6,1.5,1.1c2.1-0.6,4.7-1.6,6.6-2.2c4.6-1.6,10-3.2,14.6-4.9c2.8-1,4.7-1.5,14.8-5.1c4.3-1.5,6-1.9,7.9-2.6
		c-0.3,0.1-0.5,0.2-0.8,0.3c-0.7,0.3-1.5,0.6-2.2,0.8c-0.4,0.1-0.8,0.3-1.2,0.4c3.1,0.4,6.6,0.6,10,0.8c2.7,0.2,3.3,0.2,6,0.3
		c1.3,0.1,4.6,0.4,5.8,0.4c1.3,0.1,2.7,0.2,4.1,0.2c0.6,0.1,1.1,0.2,1.7,0.2h1.6c0.9,0.1,1.8,0.2,2.7,0.3c-0.1,0.3-0.3,0.7,0,0.9
		c0.2,0.2,0.9,0.4,1.5,0.2c0.9-0.2,1.2-0.9,1.5-1.3c0-0.1,0-0.1,0-0.1c0.2-0.2,0.6-0.7,0.8-0.9c0-0.1,0.1-0.1,0.1-0.1
		c0.3-0.3,0.4-0.6,0.6-0.8c0.2-0.4,0.8-0.7,1.2-1.1c0.5-0.4,0.9-0.8,1.3-1.2c0.8-0.9,1.7-1.8,2.4-2.6c0.4-0.5,0.8-1,1.2-1.5
		c0.3-0.3,0.7-0.7,1-1c0.8-0.7,1.7-1.6,2.2-2.3c0.3-0.4,0.4-0.8,0.9-1.2c0.4-0.3,0.7-0.7,1.1-1c0.3-0.3,0.7-0.7,1.1-1
		c0.4-0.4,0.6-0.8,0.9-1.2c0.3-0.3,0.8-0.7,1.2-1.1c0.3-0.3,0.6-0.7,0.9-1.1c0.3-0.4,0.7-0.7,1.1-1.1c0.1-0.1,0.1-0.1,0.2-0.2
		c1.1-0.7,4.1-1.3,5.5-1.7c2.4-0.8,4.8-1.7,7.2-2.5c2.1-0.7,4.3-1.3,6.4-2c1.7-0.6,3.5-1.3,5.2-1.9c0.7-0.2,1.2-0.4,1.7-0.7
		c0.6-0.3,0.9-0.4,1.4-0.8C170.7,96.1,170.8,95.9,170.7,95.5z M66.9,112.6c-0.1,0-0.1,0-0.2,0c0.1,0,0.2,0,0.3,0H66.9z M68.6,112.7
		c-0.5,0-1-0.1-1.5-0.1C67.6,112.6,68.1,112.7,68.6,112.7z M68.4,119.6c0,0-0.1-0.1-0.1-0.1c0.3-0.3,0.7-0.5,1-0.6h0.1
		C69,119.1,68.7,119.4,68.4,119.6z M70.9,116.9c0.1-0.1,0.2-0.2,0.2-0.3c-0.2,0-0.5-0.1-0.8-0.1c0.3,0,0.6-0.1,0.8-0.1
		c0,0.1,0,0.1,0,0.2C71.7,116.8,71.9,116.9,70.9,116.9z M73.7,127.2c-0.2,0-0.5-0.1-0.8-0.1c0.3,0,0.6-0.1,0.8-0.1
		C73.8,127.1,73.8,127.1,73.7,127.2z M84.4,123.2c-4.7,1.3-9.2,2.9-13.7,4.5c-4.2,1.5-8.2,2.7-12.4,4c-0.3-0.2-0.6-0.4-0.9-0.6
		c0,0,0,0,0,0c2.8-0.9,5.7-1.8,8.3-3.3c3.3-1.9,6.4-3.7,9.9-5.2c0.5-0.2,1-0.4,1.6-0.6c0.9,0.1,1.7,0.2,2.6,0.3
		c1.9,0.2,3.8,0.3,5.7,0.6C85.2,123,84.8,123.1,84.4,123.2z M131.5,107.6c-0.8,0.3-1.7,0.6-2.5,0.9
		C129.9,108.1,130.6,107.8,131.5,107.6z M108.4,115.6c-0.1,0-0.2,0.1-0.2,0.1C108.2,115.6,108.3,115.6,108.4,115.6z M108.2,115.6
		C108.1,115.7,108.1,115.7,108.2,115.6c-0.2,0.1-0.2,0.1-0.3,0.1C107.9,115.7,108,115.7,108.2,115.6z M107.8,115.8
		C107.8,115.8,107.8,115.8,107.8,115.8c-0.3,0.1-0.5,0.1-0.7,0.2C107.4,115.9,107.6,115.8,107.8,115.8z M104.3,116.8
		c0.6-0.2,1.3-0.4,1.9-0.6c-0.7,0.2-1.5,0.4-2.2,0.7c-0.1,0-0.3,0.1-0.4,0.1C103.8,116.9,104.1,116.9,104.3,116.8z M97.7,119
		c0.2-0.1,0.4-0.1,0.6-0.2c1.6-0.6,3.3-1.2,4.9-1.6c-1.7,0.5-3.3,1.1-4.9,1.6c-0.3,0.1-0.6,0.2-0.8,0.3C97.6,119,97.6,119,97.7,119z
		 M94.6,120.2c-0.1,0-0.1,0-0.2,0c0.9-0.3,1.7-0.7,2.6-1c-0.5,0.3-1.1,0.5-1.7,0.7c0,0-0.1,0-0.1,0C95,120,94.8,120.1,94.6,120.2
		C94.6,120.2,94.6,120.2,94.6,120.2z M118.4,124c-5-0.7-10.2-1.2-15.7-1.5c-1.2-0.1-2.3-0.2-3.4-0.3c-1.2-0.1-2.5-0.2-3.7-0.3
		c-0.3-0.1-0.6-0.1-0.8-0.1c0.6-0.2,1.2-0.4,1.7-0.6c1-0.3,1.9-0.6,2.9-0.9c0.1,0,0.2-0.1,0.2-0.1c0.1,0,0.2,0,0.2-0.1
		c0.6,0,1.1-0.1,1.6-0.1c0.7-0.1,1.4-0.1,2.2-0.2c0.9-0.1,1.9-0.2,2.9-0.3c1.1-0.1,2.4-0.4,3.7-0.8c2.7,1.7,6.8,3.8,10,5.4
		C119.6,124.1,119,124,118.4,124z M137.6,108.3c0,0.2-0.1,0.3-0.3,0.4c-0.2,0.2-0.3,0.4-0.5,0.7c-0.2,0.2-0.4,0.4-0.6,0.6
		c-0.3,0.2-0.4,0.4-0.6,0.7c-0.2,0.3-0.6,0.6-0.8,0.9c-0.6,0.7-1.3,1.3-1.7,2c-0.3,0.5-0.9,1.1-1.4,1.6c-0.4,0.4-0.7,0.8-1.2,1.2
		c-0.9,0.9-1.6,1.8-2.6,2.7c-0.9,0.9-1.6,1.8-2.4,2.7c-0.5,0.5-1.1,1.1-1.6,1.6c-3.2-1.6-7.4-3.8-10.6-5.4c0.5-0.2,1.1-0.3,1.7-0.5
		c1.7-0.5,3.4-0.8,5-1.3c4.5-1.3,8.8-3.1,12.9-4.8c0.9-0.4,1.8-0.8,2.7-1.2c0.2-0.1,0.4-0.2,0.6-0.3c0.2-0.2,0.4-0.4,0.6-0.6
		c0.2-0.2,0.3-0.4,0.5-0.7c0.2-0.2,0.3-0.3,0.3-0.5c0,0,0-0.1,0-0.1c0,0,0.1,0,0.1,0C137.6,108.2,137.6,108.2,137.6,108.3z
		 M158,98.9c-0.9,0.3-2.4,0.7-3.3,1.1c-4.9,1.8-9.9,3.4-15,5c-2.6,0.8-5.2,1.7-7.9,2.5c0,0-0.1,0-0.1,0c0,0,0,0,0,0
		c1.3-0.5,2.7-1,4.1-1.4c1.4-0.4,2.9-0.9,4.3-1.4c2.2-0.8,4.4-1.6,6.7-2.2c1.2-0.3,2.4-0.8,3.7-1.2c0.9-0.3,1.9-0.6,2.8-0.9
		c0.4-0.1,0.8-0.2,1.2-0.4c0.5-0.3,1-0.6,1.6-0.9c0.8-0.4,1.6-0.9,2.4-1.3c0.2-0.1,0.4-0.2,0.7-0.3c0,0,0,0,0,0h0
		c0.8,0.2,1.6,0.3,2.4,0.4C160.4,98.2,159.2,98.6,158,98.9z"/>
	<path class="st11" d="M130.8,125.7c-0.1,0.5-0.6,0.7-1.5,0.8c-1.3,0.2-2.4-0.1-3.4-0.2c-0.4-0.1-0.9-0.2-1.4-0.2l1.1-1.5
		c1,0.1,2,0.2,3.1,0.2c0.4,0,1-0.1,1.4,0.1C130.6,124.9,130.9,125.4,130.8,125.7z"/>
	<path class="st11" d="M69.4,112.6c-0.1,0-0.1,0-0.2,0H69c-0.7,0-1.5-0.1-2.2-0.1c-0.5,0-0.9,0-1.4,0c-0.2,0-0.4,0-0.6,0
		c0,0,0,0-0.1,0h-0.1c-0.1,0-0.1,0-0.1,0c-0.1-0.1-0.1-0.1-0.2-0.1c0.1,0,0.1,0,0.2-0.1c0,0,0,0,0,0h0c0.7,0.1,1.5,0.1,2.2,0.1
		c0.7,0.1,1.5,0.1,2.2,0.1c0,0,0,0,0.1,0h0.1C69.2,112.6,69.3,112.6,69.4,112.6z"/>
	<path class="st9" d="M54.9,133c-0.3,0.1-0.6,0.2-0.8,0.3C54.3,133.1,54.6,133,54.9,133z"/>
	<path class="st12" d="M59.6,115.4C59.5,115.4,59.5,115.4,59.6,115.4c-0.7-0.3-1-0.7-1.5-1c0.2,0.1,0.4,0.3,0.6,0.4
		c0.1,0,0.1,0.1,0.2,0.1c0.1,0.1,0.2,0.2,0.3,0.2c0,0,0.1,0.1,0.1,0.1c0,0,0.1,0.1,0.1,0.1C59.4,115.3,59.5,115.4,59.6,115.4z"/>
	<path class="st9" d="M66.4,112.6c-0.5,0-1.1,0-1.6-0.1c0.2,0,0.4,0,0.6,0C65.8,112.6,66.1,112.6,66.4,112.6z"/>
	<path class="st9" d="M67,112.6h-0.1c-0.1,0-0.1,0-0.2,0C66.8,112.6,66.9,112.6,67,112.6z"/>
	<path class="st9" d="M68.6,112.7c-0.5,0-1-0.1-1.5-0.1C67.6,112.6,68.1,112.7,68.6,112.7z"/>
	<path class="st12" d="M110.5,104.1c-0.7,0.3-1.3,0.6-2,0.9c-0.1,0-0.2,0.1-0.3,0.1c-0.1,0-0.2,0.1-0.3,0.1c0.2-0.1,0.3-0.1,0.5-0.2
		C109.1,104.6,109.7,104.3,110.5,104.1L110.5,104.1z"/>
	<path class="st11" d="M109,100.5l3.4-1.4c-0.1,0.2-0.2,0.4-0.3,0.6c-0.2,0.5-0.3,0.8-0.3,1.3c-0.1,0.4-0.3,0.8-0.5,1.2
		c-0.2,0.6-0.2,1-0.5,1.6c0,0,0,0,0,0h-0.1c-0.7,0.3-1.3,0.6-2,0.9c-0.3,0.2-0.7,0.3-1.1,0.4h-0.1c0.3-0.9,0.6-1.9,0.8-2.8
		C108.3,101.7,108.9,101.1,109,100.5z"/>
	<path class="st11" d="M110.7,103.8c0,0,0,0.1-0.1,0.1c0,0.1-0.1,0.1-0.1,0.2h-0.1c-0.7,0.3-1.4,0.6-2.1,0.9c-0.1,0-0.2,0.1-0.3,0.1
		c-0.1,0-0.2,0.1-0.3,0.1h0c-0.1,0-0.2,0.1-0.3,0.1c-0.1,0-0.2,0.1-0.3,0.1c0-0.1,0.1-0.2,0.1-0.3h0.1c0.4-0.2,0.8-0.3,1.1-0.4
		C109.3,104.3,110,104.1,110.7,103.8L110.7,103.8C110.7,103.8,110.7,103.8,110.7,103.8z"/>
	<path class="st10" d="M136.2,110c-0.3,0.2-0.4,0.4-0.6,0.7c-0.2,0.3-0.6,0.6-0.8,0.9c-0.6,0.7-1.3,1.3-1.7,2
		c-0.3,0.5-0.9,1.1-1.4,1.6c-0.4,0.4-0.7,0.8-1.2,1.2c-0.9,0.9-1.6,1.8-2.6,2.7c-0.9,0.9-1.6,1.8-2.4,2.7c-0.5,0.5-1.1,1.1-1.6,1.6
		c-3.2-1.6-7.4-3.8-10.6-5.4c0.5-0.2,1.1-0.3,1.7-0.5c1.7-0.5,3.4-0.8,5.1-1.2c4.4-1.4,8.8-3.1,13-4.8c0.9-0.4,1.8-0.7,2.7-1.2
		C135.8,110.2,136,110.1,136.2,110z"/>
	<path class="st10" d="M73.8,127c-0.2,0.1-0.5,0.1-0.8,0.1c0.3,0,0.6,0,0.8,0.1C73.8,127.1,73.8,127.1,73.8,127z"/>
</g>
</svg>
