<?xml version="1.0" encoding="utf-8"?>
<!-- Generator: Adobe Illustrator 27.5.0, SVG Export Plug-In . SVG Version: 6.00 Build 0)  -->
<svg version="1.1" id="Calque_1" xmlns="http://www.w3.org/2000/svg" xmlns:xlink="http://www.w3.org/1999/xlink" x="0px" y="0px"
	 viewBox="0 0 200 200" style="enable-background:new 0 0 200 200;" xml:space="preserve">
<style type="text/css">
	.st0{stroke:#000000;stroke-width:0.6611;stroke-miterlimit:10;}
</style>
<path class="st0" d="M126.9,78.6c1.4,0.1,2.8,0.1,4.2,0.2c3.7,0.2,6.8,0.8,10.4,1.7c3.2,0.8,4.2,1.6,5.8,4.7c0.6,1.2,1,2.6,1.2,3.9
	c0.1,0.7,0.7,0.9,1.3,1.1c1.6,0.5,3.2,0.9,4.9,1.4c2.4,0.7,4.3,2.1,6.3,3.6c4.1,3,7.2,7,8.6,12c0.4,1.4,0.6,2.9,0.1,4.3
	c-0.3,0.9-1,1.7-1.6,2.5c-2.5,3-5.4,5.4-8.2,8.1c-1.3,1.2-2.5,2.4-3.9,3.3c-4,2.7-8.9,3.7-13.2,5.9c-1.9,0.9-3.7,2-5.5,3
	c-1.8,0.9-3.6,1.4-5.4,2.1c-1.4,0.6-2.6,0.9-4,1.4c-1.7,0.7-3.5,0.2-5.3,0.5c-0.3,0.1-0.7-0.2-1.1-0.3c-0.2-0.1-0.5-0.2-0.8-0.2
	c-2.7,0.2-5.4-1.4-7.7-2.9c-0.7-0.5-1.4-1-2.2-1.2c-2.4-0.7-4.8,1-7.3,1.4c-0.9,0.2-1.8,0.2-2.7,0.2c-6,0.1-12,0.4-18,0.1
	c-3.7-0.2-7.4,0.4-11,0.1c-3.3-0.3-6.7-0.3-10-1c-1.1-0.2-2.2-0.1-3.3-0.2c-3.3-0.3-6.7-0.8-9.9-1.8c-2.9-0.9-5.6-2.3-7.7-4.6
	c-0.9-0.9-2.1-1.4-2.9-2.4c-1.5-2-3.8-3-5.3-5c-0.1-0.2-0.4-0.3-0.5-0.4c-1.2-2.2-2.9-4.1-4-6.4c-0.5-1.2-0.5-2.6-0.8-3.8
	c-0.4-1.7-0.3-3.4-0.3-5.1c-0.1-2.6,0.1-5.2,1.7-7.5c2.1-2.9,2.8-6.9,5.5-9.4c1.1-0.9,2.4-1.5,3.7-2c1.8-0.8,3.7-1.5,5.5-2.3
	c1.5-0.6,3.2-0.5,4.8-1c1.8-0.5,3.6-1.3,5.3-2c2.5-1,5.3-1.3,8-1.3c4.9,0,9.9,1.1,14.8,0.4c4.3-0.7,8.2-3.5,12.7-3.2
	c1.9,0.1,3.8,0.8,5.7,1.1c2.4,0.4,4.6,0,7-0.2c2.5-0.2,5.1,0.2,7.6,0.3C115.3,78.1,121.1,78.4,126.9,78.6z"/>
</svg>
