<?xml version="1.0" encoding="utf-8"?>
<!-- Generator: Adobe Illustrator 23.0.3, SVG Export Plug-In . SVG Version: 6.00 Build 0)  -->
<svg version="1.1" id="Calque_1" xmlns="http://www.w3.org/2000/svg" xmlns:xlink="http://www.w3.org/1999/xlink" x="0px" y="0px"
	 viewBox="0 0 200 200" style="enable-background:new 0 0 200 200;" xml:space="preserve">
<style type="text/css">
	.st0{stroke:#000000;stroke-width:2;stroke-linecap:round;stroke-linejoin:round;stroke-miterlimit:10;}
	.st1{fill:#BDCCD4;stroke:#000000;stroke-width:2;stroke-linecap:round;stroke-linejoin:round;stroke-miterlimit:10;}
	.st2{fill:none;stroke:#000000;stroke-width:2;stroke-linecap:round;stroke-linejoin:round;stroke-miterlimit:10;}
</style>
<path class="st0" d="M173.1,79.7c-0.2,2-0.8,5-1.5,7.3c-2.5,2.8-5.5,5.5-8.3,8c-3,2.8-6.8,5.5-10.4,7.5c-3.3,1.8-7.7,2-11.3,3.2
	c-11.5,3.6-23.3,5.6-35.2,6.3c-11.4,0.6-22.8,3-34.3,3.2c-9.7,0.2-19.5-0.4-28.8-2.5c-3.8-0.8-15.3-7.3-19.1-8.2
	c3.4,0.9,7,1.3,10.3,1.2c7.1-0.2,14.4-0.5,21.4-1.5c6.2-0.9,12.7-1.9,19-1.9c8.7,0,17.3-2.3,25.6-4.7c1.4-0.4,2.7-0.8,4-1.2
	c7.9-2.5,15.4-5.8,22.7-9.5c5.6-2.9,11-6.1,16.4-9.4c1.9-1.2-3.2-0.5-2.3-2.8c0.4-1,1.6-1.5,2.7-1.3c4.1,0.8,10.2,1,13.3,3.1
	C160.1,77.9,173.5,76.3,173.1,79.7z"/>
<path class="st1" d="M171.6,87c-0.2,0.6-0.3,1.2-0.5,1.7c-1.1,3.1-1.8,6.4-4.2,8.9c-6.4,6.7-10.3,14.7-19.8,17.6
	c-4.1,1.3-8.1,1.6-12.3,2.5c-3.9,0.8-7.8,3-11.2,4.9c-3.2,1.8-6,4.2-9.5,5.3c-4.3,1.2-8.5,1.8-12.9,1.4c-7-0.6-14.3-3.5-20.8-5.9
	c-5.3-1.9-9.7-1-15.1,0.1c-10.3,2.1-19.4,0.3-27.7-6.1c-3.6-2.8-3.6-2.8-8.6-5.7c0,0-4-2.7-5.9-4.4c-1.5-1.5-6.6-5.7-8.1-7.2
	c2.2,1.8,4.9,3.1,7.8,4c0.5,0.1,0.9,0.3,1.4,0.4c3.8,0.9,15.2,7.4,19.1,8.2c9.3,2,19.1,2.6,28.8,2.5c11.5-0.2,22.9-2.6,34.3-3.2
	c12-0.6,23.7-2.7,35.2-6.3c3.6-1.1,8-1.4,11.3-3.2c3.6-2,7.4-4.7,10.4-7.5C166.1,92.5,169.1,89.8,171.6,87z"/>
<path class="st1" d="M161.7,85.2L161.7,85.2c-4.9,3.7-12.3,6.8-14.7,7.9c-5.9,2.6-11.8,5-17.7,7.1c-7.8,2.7-15.8,5-24,6.4
	c-1.4,0.3-2.8,0.5-4.2,0.7c-8.7,1.2-17.7,2.3-26.3,1.2c-6.3-0.8-13-0.7-19.3-0.7c-7.2,0.1-14.5-0.6-21.7-1.4
	c-3.3-0.3-6.8-1.2-10.2-2.5c-0.4-0.2-0.9-0.4-1.3-0.6c-2.8-1.3-5.3-2.9-7.3-5c0.1-0.3,0.3-0.6,0.4-1c2.7-5.7,6-9.7,10.9-13.7
	c6.8-5.6,14.2-9,22.7-11.5c8.7-2.6,18-3.3,27-4.5c4.7-0.7,8.9-0.5,13.6,0.2c5.2,0.8,10.4,4,15.7,3.4c4.9-0.5,9.3-1.9,14.4-1.9
	c3.2,0,6.2,0.2,9.2,1.3c2.7,1,4.9,2.5,7.9,2.7c3.2,0.3,6.4-1,9.7-1.2c2.9-0.2,5.8,0.3,8.7,0.7c3.7,0.5,8.4,0.5,10.7,4
	C167.3,79.7,165.2,82.6,161.7,85.2z"/>
<path class="st2" d="M59.3,87.2c5.5,2.9,13,1.7,18.9,0.5c5-1,12.5-1.8,16.4-5.2"/>
<path class="st2" d="M28.9,93.5c5.2,0.6,10.5,3.7,15.9,4.3c5.9,0.7,11.8-0.2,17.7-0.3c5.1-0.1,10.5-0.3,15.6-1
	c3.7-0.5,9.2-1.2,11.9-3.9"/>
<path class="st2" d="M109.3,91.8c3.7,0.7,9.3-1.1,13.6-1.7c4.3-0.6,7.8-1.1,11.7-3.2"/>
</svg>
