<?xml version="1.0" encoding="utf-8"?>
<!-- Generator: Adobe Illustrator 27.5.0, SVG Export Plug-In . SVG Version: 6.00 Build 0)  -->
<svg version="1.1" id="Calque_1" xmlns="http://www.w3.org/2000/svg" xmlns:xlink="http://www.w3.org/1999/xlink" x="0px" y="0px"
	 viewBox="0 0 200 200" style="enable-background:new 0 0 200 200;" xml:space="preserve">
<style type="text/css">
	.st0{fill:#F1F1F1;stroke:#000000;stroke-linecap:round;stroke-linejoin:round;stroke-miterlimit:10;}
	.st1{fill:#FFE6B4;stroke:#000000;stroke-linecap:round;stroke-linejoin:round;stroke-miterlimit:10;}
	.st2{stroke:#000000;stroke-linecap:round;stroke-linejoin:round;stroke-miterlimit:10;}
	.st3{fill:none;stroke:#000000;stroke-miterlimit:10;}
	.st4{fill:none;stroke:#000000;stroke-linecap:round;stroke-linejoin:round;stroke-miterlimit:10;}
</style>
<path class="st0" d="M162.1,110.8c-1.6-2.7-3.1-5.4-5.1-7.9c-2-2.5-3.8-5.2-5.9-7.6c-1.4-1.6-3.3-2.7-4.8-4.1
	c-3.1-2.8-6.5-5.1-10.3-7c-2.8-1.4-5.7-2-8.8-0.9c-2.1,0.8-4.4,1.2-6.5,2.2c-1.3,0.6-2.5,0.5-3.6,0.2c0.3,0.1,0.5,0.3,0.7,0.5
	c0.2,0.2,0.9,1.4,0.2,1.2c-0.7-0.2-1.3-0.5-2-0.7c-0.7-0.2-1.4-0.3-2.1-0.1c0.9,0.6,1.8,1.2,2.7,1.8c0.2,0.2,0.5,0.3,0.6,0.6
	c-0.3,0.3-0.7,0.4-1.1,0.3c-0.4-0.1-0.7-0.3-1.1-0.4c-1-0.6-2-1.1-3-1.7c-0.2-0.4-0.5-0.7-0.9-0.9c0.6-0.3,1.2-0.7,1.7-1.1
	c0.8,0,1.7,0.1,2.5,0.1c0.1,0,0.2,0,0.4,0c-0.4-0.1-0.7-0.2-1.1-0.3c-0.4-0.1-0.5-0.5-0.5-0.9c-0.2-2-1.9-3.4-3.9-3.8
	c-2.3-0.4-4.2,0.5-6.1,1.3c-1.5,0.6-2.9,1.2-3.9,2.5c-0.4,0.5-0.9,0.7-1.5,0.6c-3.4-0.4-6.7-1.1-9.1-4.1c-0.8-1-1.2-2.1-1.7-3.2
	c-0.6-1.3-1.3-2.5-3.1-2.3c-0.5,0.1-1,0.1-1.4,0.2c-2.4,0.6-4.8,1.4-7.3,2.1c-4.6,1.4-9,3.4-13.2,5.7c-4.2,2.4-8.8,4-13.1,6.3
	c-3,1.6-6,3-9,4.7c-2.8,1.6-5.7,3.1-8.6,4.7c-0.5,0.3-1.2,0.5-1.1,1.3c0.1,0.6,0.4,0.8,0.8,0.9c0.6-0.7,1.3-1.3,2-1.8
	c0.4-0.3,0.9-0.5,1.2-0.1c0.1,0.1,0.1,0.3,0.2,0.4c0.3,0.3,0.8,0.1,1.1-0.2c0.7-0.6,1.4-1.2,2.1-1.8c0.2-0.2,0.5-0.4,0.7-0.3
	c0.5,0.2,0.2,1.2,0.7,1.4c1.2-1.1,2.5-2.2,3.7-3.4c0.3-0.2,0.5-0.5,0.9-0.5c0.4,0,0.7,0.3,0.9,0.7c0.1,0.3,0.1,0.6,0.1,1
	c6.2-2.4,12.3-4.7,18.7-6.4c3.7-1,7.3-1.2,10.9,0.1c1.3,0.4,2.5,1.2,3.7,1.8c1.9,0.9,3.8,1.7,5.5,3c1.6,1.2,1.5,1.1,0.1,2.3
	c-1.5,1.2-3.1,1.6-4.9,1.8c-1.1,0.1-2.3,0.3-3.3,1c-1.1,0.7-1,1.2,0.1,1.8c0.2,0.1,0.4,0.2,0.6,0.2c3.6,0.9,7.2,0.6,10.9-0.2
	c0.6-0.1,1.1,0,1,0.6c0.5,0,0.9,0.1,1.3,0.3c0.1,0,0.1,0.1,0.2,0.1c0.1-0.2,0.4-0.2,0.6-0.1c0.8,0.2,1.5,0.7,2.4,0.8c0,0,0,0,0,0h0
	c0,0,0,0,0,0c0.1,0,0.1,0,0.2,0c0.2,0,0.3,0.1,0.3,0.3c0,0.1,0,0.1,0,0.2c0.2,0,0.3,0.1,0.5,0.1c0.3,0.1,0.5,0.2,0.8,0.4
	c0.3-0.4,0.8-0.6,1.5-0.7c2.3-0.2,4.6-0.6,6.7-1.8c2.3-1.3,4.4-2.7,6.1-4.8c0.4-0.5,0.9-0.9,1.5-0.9c1.3,0,2.7-0.4,4-0.3
	c4.8,0.4,9.6,0.3,14.4,1.1c2.5,0.4,5.1,0.6,7.1,2.6c0.8,0.8,1.5,1.6,2.3,2.3c0.8,0.6,1.6,1.2,2.4,1.8c0-0.3,0-0.6-0.1-0.9
	c0-0.4,0-0.7,0.1-1c0.1-0.3,0.5-0.6,0.8-0.5c0.2,0,0.4,0.2,0.6,0.3c2.1,1.8,3.5,4.4,5.6,6.2c0.3,0.3,0.8,0.5,1.2,0.3
	c0.2-0.1,0.3-0.4,0.4-0.6c0.1-0.6,0-1.2,0.1-1.7c0.1-0.6,0.4-1.2,1-1.3c0.5-0.1,1,0.4,1.3,0.8c1.7,2.1,2.5,4.8,4.3,6.8
	c0.3,0.3,0.6,0.6,1,0.7c0.4,0.1,0.9,0,1.1-0.4c0.2-0.4,0.1-0.9,0.4-1.1c0.2-0.2,0.6-0.1,0.8,0.1c0.2,0.2,0.4,0.4,0.5,0.7
	c1,2,2,4.1,2.9,6.1c0-0.1,0-0.1,0-0.2C163.2,115.5,163.4,113.1,162.1,110.8z"/>
<path class="st1" d="M95,104.6c-0.2,0.2-0.3,0.5-0.5,0.8c-0.9,2.3-1.8,4.6-2.7,6.9c-0.3,0.8-0.6,1.5-1.6,0.8c-0.3-0.2-0.5,0-0.8,0.1
	c-1,0.2-1.4-0.2-1.2-1.2c0-0.3,0.1-0.6,0.1-0.8c0-0.2-0.2-0.4-0.3-0.5c-0.3-0.1-0.3,0.2-0.4,0.3c-0.5,1-1,2-1.5,3.1
	c-0.2,0.5-0.5,0.9-1.1,0.6c-0.6-0.2-1-0.6-0.8-1.3c0.7-2.4,1.1-4.9,3-6.8c1-1,1.2-2.6,1.6-3.9c0,0,0-0.1,0-0.1
	c0.5,0,0.9,0.1,1.3,0.3c0.1,0,0.1,0.1,0.2,0.1c0,0-0.1,0.1-0.1,0.2c-0.7,1.8-1.3,3.7-1.5,5.8c1-1.3,2.5-1.8,3.7-2.7
	c0.6-0.5,0.9-1.1,1.2-1.8c0-0.1,0.1-0.1,0.1-0.2c0.2,0,0.3,0.1,0.5,0.1C94.5,104.3,94.7,104.4,95,104.6z"/>
<path class="st2" d="M162.9,118.2L162.9,118.2c-0.1,0.5-0.6,0.6-1.1,0.5c-1-0.2-2-0.6-2.7-1.4c-1.9-1.9-4.1-3.4-6.1-5
	c-1.9-1.5-4.1-2.7-6-4.2c-1.9-1.6-4-2.9-6-4.3c0-0.3,0-0.6-0.1-0.9c0-0.4,0-0.7,0.1-1c0.1-0.3,0.5-0.6,0.8-0.5
	c0.2,0,0.4,0.2,0.6,0.3c2.1,1.8,3.5,4.4,5.6,6.2c0.3,0.3,0.8,0.5,1.2,0.3c0.2-0.1,0.3-0.4,0.4-0.6c0.1-0.6,0-1.2,0.1-1.7
	c0.1-0.6,0.4-1.2,1-1.3c0.5-0.1,1,0.4,1.3,0.8c1.7,2.1,2.5,4.8,4.3,6.8c0.3,0.3,0.6,0.6,1,0.7c0.4,0.1,0.9,0,1.1-0.4
	c0.2-0.4,0.1-0.9,0.4-1.1c0.2-0.2,0.6-0.1,0.8,0.1c0.2,0.2,0.4,0.4,0.5,0.7C161,114.1,162,116.2,162.9,118.2z"/>
<path class="st3" d="M113.4,82.3c0.1,0.1,0.2,0.2,0.3,0.4"/>
<path class="st1" d="M118,87.5c-0.7-0.2-1.3-0.5-2-0.7c-0.7-0.2-1.4-0.3-2.1-0.1c0.9,0.6,1.8,1.2,2.7,1.8c0.2,0.2,0.5,0.3,0.6,0.6
	c-0.3,0.3-0.7,0.4-1.1,0.3c-0.4-0.1-0.7-0.3-1.1-0.4c-1-0.6-2-1.1-3-1.7c-0.2-0.4-0.5-0.7-0.9-0.9c0.6-0.3,1.2-0.7,1.7-1.1
	c0.8,0,1.7,0.1,2.5,0.1c0.1,0,0.2,0,0.4,0c0.4,0.1,0.9,0.2,1.3,0.3c0.3,0.1,0.5,0.3,0.7,0.5C118,86.5,118.7,87.8,118,87.5z"/>
<path class="st4" d="M117.1,85.8c-0.4-0.2-0.8-0.3-1.3-0.3"/>
<path class="st4" d="M112.1,87.3c-0.1-0.1-0.2-0.1-0.3-0.2c0.1,0,0.1,0,0.2,0.1"/>
<path class="st4" d="M109.9,83.2c-0.8-0.5-1.8-0.5-2.7-0.3"/>
<path class="st4" d="M109.4,83.2c-0.1,0.3-0.4,0.7-0.8,0.7c-0.4,0-0.7-0.3-0.6-0.7c0.1-0.2,0.3-0.4,0.5-0.4c0.2,0,0.4,0.2,0.5,0.4"
	/>
<path class="st2" d="M45.6,96.6c-0.4,0.2-0.8,0.3-1.2,0.5c-2.7,1-5.2,2.5-7.9,3.5c-1.2,0.4-2.3,0.8-3.6,0.8c-0.3,0-0.6,0-0.8-0.1
	c0.6-0.7,1.3-1.3,2-1.8c0.4-0.3,0.9-0.5,1.2-0.1c0.1,0.1,0.1,0.3,0.2,0.4c0.3,0.3,0.8,0.1,1.1-0.2c0.7-0.6,1.4-1.2,2.1-1.8
	c0.2-0.2,0.5-0.4,0.7-0.3c0.5,0.2,0.2,1.2,0.7,1.4c1.2-1.1,2.5-2.2,3.7-3.4c0.3-0.2,0.5-0.5,0.9-0.5c0.4,0,0.7,0.3,0.9,0.7
	C45.6,96,45.6,96.3,45.6,96.6z"/>
<path class="st4" d="M93.7,103.9c-0.2-0.1-0.3-0.2-0.5-0.3c0,0,0,0,0,0h0c0,0,0,0,0,0"/>
</svg>
