<?xml version="1.0" encoding="utf-8"?>
<!-- Generator: Adobe Illustrator 27.5.0, SVG Export Plug-In . SVG Version: 6.00 Build 0)  -->
<svg version="1.1" id="Calque_1" xmlns="http://www.w3.org/2000/svg" xmlns:xlink="http://www.w3.org/1999/xlink" x="0px" y="0px"
	 viewBox="0 0 200 200" style="enable-background:new 0 0 200 200;" xml:space="preserve">
<style type="text/css">
	.st0{stroke:#000000;stroke-width:0.39;stroke-miterlimit:10;}
</style>
<path class="st0" d="M44.7,108.1c1.3-0.4,2.7-0.7,3.5-0.9c5.9-1.2,11.4-3.9,17.2-5.5c4.5-1.2,14.2-5.2,19.2-3.9c4,1,0.6,2.2,3,3.6
	c2.1,1.2,7.2-0.4,9.5-0.7c8-1.2,16.3-3.3,24.7-3.1c5.9,0.2,34.1,8.5,31.7,14.3c-5.7,1-10.4,0.4-16.3-1c-7.9-2-14.4-1.3-21.9,1.3
	c-11.5,4-23.4,7.9-35.4,2c-5.1-2.5-10.2-4.7-16.4-4.5c-6.6,0.3-10.2,3.3-15.9,4.5c-1.9,0.4-7.4,1.6-7.7-1.7
	c-0.1-1.8,1.3-2.9,3.1-3.8c2.7-1.2,5.6-1.7,8.3-2.9c1.9-0.8,3.6-1.7,5.6-2.3c5-1.4,10-2.2,15.1-3.1"/>
</svg>
