<?xml version="1.0" encoding="utf-8"?>
<!-- Generator: Adobe Illustrator 23.0.3, SVG Export Plug-In . SVG Version: 6.00 Build 0)  -->
<svg version="1.1" id="Calque_1" xmlns="http://www.w3.org/2000/svg" xmlns:xlink="http://www.w3.org/1999/xlink" x="0px" y="0px"
	 viewBox="0 0 295.1 200" style="enable-background:new 0 0 295.1 200;" xml:space="preserve">
<style type="text/css">
	.st0{opacity:0.5;}
	.st1{fill:#F1F1F1;stroke:#000000;stroke-width:1.3145;stroke-linecap:round;stroke-linejoin:round;stroke-miterlimit:10;}
	.st2{fill:none;stroke:#000000;stroke-width:1.3145;stroke-linecap:round;stroke-linejoin:round;stroke-miterlimit:10;}
	.st3{stroke:#000000;stroke-width:1.3145;stroke-linecap:round;stroke-linejoin:round;stroke-miterlimit:10;}
	.st4{fill:#FF868B;stroke:#000000;stroke-width:1.3145;stroke-linecap:round;stroke-linejoin:round;stroke-miterlimit:10;}
	.st5{fill:#FC6570;stroke:#000000;stroke-width:2;stroke-miterlimit:10;}
	.st6{fill:#F1F1F1;stroke:#000000;stroke-width:2;stroke-linecap:round;stroke-linejoin:round;stroke-miterlimit:10;}
	.st7{fill:#FFFFFF;stroke:#000000;stroke-width:2;stroke-linecap:round;stroke-linejoin:round;stroke-miterlimit:10;}
	.st8{fill:none;stroke:#000000;stroke-width:2;stroke-linecap:round;stroke-linejoin:round;stroke-miterlimit:10;}
	.st9{fill:#FF868B;stroke:#000000;stroke-width:2;stroke-linecap:round;stroke-linejoin:round;stroke-miterlimit:10;}
</style>
<g class="st0">
	<path class="st1" d="M80.4,114.4c-1.5-0.5-3-1-4.5-1.6C77.4,113.3,78.9,113.9,80.4,114.4z"/>
	<path class="st1" d="M117.5,127.2c-1.8-0.5-3.6-1-5.4-1.6c-1.1-0.4-2.2-0.9-3.3-1.3C112,125.3,115.6,126.5,117.5,127.2z"/>
	<path class="st1" d="M142.6,135.6c-0.2-0.1-0.3-0.1-0.4-0.2c-1.4-0.5-2.8-1.1-4.1-1.7C139.6,134.3,141.1,135,142.6,135.6z"/>
	<path class="st1" d="M215.3,159c-0.5-0.2-1-0.4-1.5-0.5C214.3,158.6,214.8,158.8,215.3,159z"/>
	<path class="st2" d="M19.2,91.1C19.2,91.1,19.1,91.1,19.2,91.1"/>
	<path class="st2" d="M64.6,83.3c-0.8,0.1-1.6,0.2-2.4,0.3"/>
	<path class="st2" d="M21.9,95.2h-0.1"/>
	<path class="st2" d="M26.3,94.5h-0.1"/>
	<path class="st1" d="M189.6,134.4c-0.1,0-0.2,0.1-0.2,0.1c-0.4-0.4-1-0.9-1.7-1.2h0.1C188.4,133.5,189.1,133.9,189.6,134.4z"/>
	<path class="st3" d="M216.6,119.7C216.6,119.7,216.7,119.7,216.6,119.7C216.7,119.7,216.6,119.7,216.6,119.7l-0.1,0.2
		c0,0.1-0.1,0.2-0.3,0.3c-0.2,0.2-0.3,0.3-0.4,0.4c-0.5,0.4-1.1,0.7-1.7,1c-0.4,0.2-1.4,0.9-1.4,0.9l-12.8-1.4
		c3.2-0.6,3.8-0.6,7.2-1.2c1.7-0.2,3.3-0.6,5.2-0.7c0.8,0,3.2-0.2,4.1,0.1C216.5,119.4,216.6,119.6,216.6,119.7z"/>
	<path class="st4" d="M80.4,114.4c-1.5-0.5-3-1-4.5-1.6C77.4,113.3,78.9,113.9,80.4,114.4z"/>
	<path class="st4" d="M117.5,127.2c-1.8-0.5-3.6-1-5.4-1.6c-1.1-0.4-2.2-0.9-3.3-1.3C112,125.3,115.6,126.5,117.5,127.2z"/>
	<path class="st4" d="M142.6,135.6c-0.2-0.1-0.3-0.1-0.4-0.2c-1.4-0.5-2.8-1.1-4.1-1.7C139.6,134.3,141.1,135,142.6,135.6z"/>
	<path class="st4" d="M189.6,134.4c-0.1,0-0.2,0.1-0.2,0.1c-0.4-0.4-1-0.9-1.7-1.2h0.1C188.4,133.5,189.1,133.9,189.6,134.4z"/>
	<path class="st4" d="M196,121.7c-1.3,0.2-2.7,0.1-4,0.2s-2.7,0.2-4,0.2c0,0,0,0-0.1,0c0.1,0,0.2,0,0.3,0c1.3,0,2.7-0.2,4-0.2
		C193.5,121.8,194.8,121.8,196,121.7z"/>
	<path class="st3" d="M133.2,135.5c-1.3-0.1-2.4-0.2-3.3-0.3c-1.2-0.1-2.6-0.2-3.9-0.3c-1.7-0.2-3.4-0.3-5.2-0.5
		c-2-0.2-4.3-0.8-6.7-1.4l0,0c-1.8-0.5-3.6-1-5.2-1.5c-3.9-1.3-8-2.1-12-3.3c-8.1-2.4-15.8-5.5-23.3-8.6c-1.7-0.7-3.3-1.4-4.9-2.1
		c-0.4-0.2-0.7-0.3-1.1-0.5l0,0c-0.4-0.3-0.7-0.7-1.1-1c-0.4-0.4-0.6-0.8-0.9-1.2c-0.3-0.3-0.5-0.5-0.5-0.8c0-0.2,0-0.3-0.1-0.5
		c0.2,0.1,0.4,0.1,0.7,0.2c2,0.6,4.1,1.1,6.1,1.7c2.3,0.7,4.5,1.6,6.9,2.2c2.1,0.6,4,1.2,6,1.9c2.5,0.8,5.3,1.5,7.7,2.4
		c3.4,1.3,7,2.3,10.4,3.5c2,0.7,4.1,1.2,5.9,1.9c1.3,0.5,2.6,1,4,1.5c2.3,0.7,4.5,1.6,6.9,2.3c1.5,0.5,2.9,0.9,4.4,1.5
		c1.7,0.6,3.5,1,5.2,1.5C130.5,134.5,131.8,135,133.2,135.5z"/>
	<path class="st3" d="M267.6,142.8c-1.7-0.8-3.9-1.4-5.8-2c-2.4-0.9-17.7-4.1-20.1-5c-2.7-0.9-5.5-1.6-8.2-2.6c-3-1-6-2-9.1-2.9
		c-1.9-0.6-3.8-1.3-5.7-1.9c-0.9-0.3-1.7-0.4-2.6-0.7c-1.5-0.4-3.1-1.1-4.5-1.6c-1.2-0.4-2.5-0.8-3.7-1.1c-0.9,0.6-1.5,1.3-2.6,1.9
		l0,0c2.3,0.9,4.8,1.9,6,2.2c3.1,0.9,5.9,2.2,9,3.2c2.1,0.7,4.4,1.4,6.4,2.1c0.9,0.3,1.9,0.7,2.8,1c1,0.4,2.3,1,3.5,1.4l0,0
		c-0.7,1-2.6,1.6-3.8,2.4c-1.8,1.1-2.9,2.6-4.4,3.8c-1.1,0.8-2.3,1.7-3.5,2.4c-1.4,0.9-2.4,1.9-3.3,2.9c-0.9,1.1-2.5,1.9-3.9,2.8
		c-1.4,0.9-2.2,2.1-3.4,3.1c-0.5,0.4-1,0.7-1.6,1s-1.1,0.6-1.6,1c-7.6-2.4-14.8-4.5-22.3-7.2c-8.1-2.9-16.2-5.7-24.6-8.1
		c-0.7-0.2-1.3-0.4-2-0.6c3.4-0.4,6.8-0.7,10.2-1c4.7-0.4,8.8-1.4,13.8-1.6c2.6-0.1,5.4-0.4,7-1.2c0.6-0.3,1-0.8,0.9-1.3
		c0-0.2-0.2-0.4-0.4-0.6c-0.1-0.1-0.2-0.2-0.3-0.3c-0.1,0-0.2,0.1-0.2,0.1c-0.4-0.4-1-0.9-1.7-1.2h0.1c0.7,0.2,1.4,0.7,1.9,1.1
		c2.1-0.9,4.7-2,5.9-2.7c1.1-0.7,2.3-1.4,3.6-2c1.1-0.5,1.9-1.2,3.2-1.6c0.9-0.3,1.4-0.8,2.2-1.2c0,0,0.1-0.1,0.2-0.1l0.1-0.1l0,0
		c1.1-0.5,1.7-1.3,2.6-1.9l0,0c0.3-0.2,0.7-0.4,1.1-0.6c1.1-0.5,3.8-1.5,4.2-1.8l-12.8-1.4c-0.1,0-0.1,0-0.2,0c-0.2,0-2.1,0.3-3,0.5
		c-0.1,0-0.2,0-0.3,0.1c-0.1,0-0.1,0-0.2,0h-0.1c-1.3,0.2-2.7,0.1-4,0.2s-2.7,0.2-4,0.2c0,0,0,0-0.1,0h-0.1
		c-2.7,0.1-5.7-0.1-8.4-0.1c-2.1,0-4.3-0.1-6.4-0.2c-2.7,0-5.4-0.2-8.3-0.5c-2.5-0.2-5-0.4-7.6-0.9s-5.4-1.1-7.9-1.5
		c-2.3-0.3-4.8-0.7-7.1-1.5c-2.4-0.9-5-1.6-7.5-2.5c-2.2-0.8-4.3-1.7-6.5-2.5c-1.7-0.7-3.4-1.1-5.2-1.8c-1.2-0.5-2.1-1.1-3.2-1.6
		c-0.3-0.1-0.6-0.3-0.9-0.4h-0.1c-0.7-0.3-1.4-0.5-2-0.8c-1.2-0.6-2.4-1.1-3.6-1.6h-0.1c-0.2-0.1-0.4-0.2-0.6-0.3
		c-3.1-1.3-5.9-2.7-9-4s-5.9-2.8-9.1-4.1c-1.8-0.7-3.5-1.4-5.2-2.2c-1.2-0.6-2.8-1.1-3.9-1.7c-2.4-1.3-4.6-2.7-7-4.1s-5.1-2.7-8-3.7
		l0,0c0,0,0,0-0.1,0s-0.3-0.1-0.4-0.1c-0.2-0.1-0.3-0.1-0.4-0.2c-0.3-0.1-0.6-0.2-0.9-0.3c-0.3-0.1-0.6-0.2-0.8-0.3
		c-0.3-0.1-0.6-0.2-0.9-0.3H67c-0.1,0-0.1,0-0.2-0.1c-0.1,0-0.2-0.1-0.3-0.1c-0.2-0.1-0.3-0.1-0.5-0.2h-0.1C65,84,64,83.7,63,83.5
		c-0.3-0.1-0.5-0.1-0.8-0.2c-7.6,0.9-14.9,1.9-22.1,3.1c-3.3,0.5-6.3,1.2-9.2,1.9c-1.9,0.4-3.9,0.8-5.7,1.2c-1.8,0.5-3.4,1-5.5,1.3
		c-0.1,0-0.2,0-0.3,0c0.2,0.1,0.3,0.1,0.5,0.2c-0.6,0.1-1.2,0.1-1.7,0.1c-1.2,0.1-3.6,0.6-5.3,1c-1.4-0.4-2.7-0.8-3.4-1
		c-0.8-0.2-2.8-0.7-3.4-0.5c-0.4,0.1-0.5,0.3-0.6,0.5c-0.3,0.7,0,1,1,1.8c0.8,0.7,1.4,0.9,2.5,1.5c0.9,0.5,1.9,0.9,3.1,1.3
		c3.1,1.1,6.3,2.4,9.4,3.4c3.8,1.2,7.8,2.3,11.6,3.6c4.4,1.5,8.7,3,13,4.5c2.5,0.8,8,1.8,9.9,3.1c0.1,0.1,0.2,0.2,0.3,0.3
		c0.8,0.7,1.4,1.3,2,2c0.6,0.6,1.2,1.3,1.7,1.9c0.6,0.7,1.5,1.4,2.1,2c0.6,0.7,0.9,1.4,1.6,2.1c0.6,0.6,1.3,1.2,1.9,1.8
		c0.7,0.6,1.3,1.2,2,1.8c0.9,0.8,1.2,1.5,1.7,2.2c1,1.4,2.6,2.9,4,4.2c0.6,0.6,1.2,1.2,1.8,1.8c0.8,0.9,1.4,1.8,2.2,2.7
		c1.3,1.5,2.9,3.1,4.4,4.7c0.7,0.7,1.4,1.4,2.3,2.1c0.8,0.6,1.8,1.2,2.2,1.9c0.4,0.5,0.6,1,1.1,1.5c0,0.1,0.1,0.1,0.1,0.2
		c0.4,0.5,1.1,1.4,1.4,1.7c0,0,0,0,0,0.1c0.5,0.6,1.1,1.9,2.7,2.3c1,0.3,2.4-0.1,2.7-0.4c0.5-0.4,0.1-1.1,0-1.7l0,0
		c1.6-0.2,3.2-0.4,4.9-0.5c1,0,2,0,2.9,0c1.1,0,2-0.2,3.1-0.3c2.4-0.1,4.9-0.3,7.3-0.4c2.2-0.1,8.2-0.7,10.5-0.8
		c4.9-0.2,5.9-0.3,10.8-0.6c6.1-0.4,12.3-0.7,17.9-1.4c-0.7-0.2-1.4-0.5-2.1-0.7c-1.3-0.5-2.7-1-4-1.5c-0.5-0.2-0.9-0.3-1.4-0.5
		c3.5,1.1,6.6,2,14.3,4.6c18.3,6.4,21.7,7.3,26.7,9.1c8.3,3,17.9,5.9,26.2,8.8c3.3,1.2,8.1,3,11.8,4c3.4,1,5.5-0.5,2.7-1.9
		c-1.9-1-8.8-4-9.9-4.4c-0.5-0.2-1-0.4-1.5-0.5c0.5,0.2,1,0.4,1.5,0.5c0.2-0.2,0.5-0.3,0.8-0.5c0.5-0.2,0.9-0.5,1.4-0.7
		c0.8-0.4,1-1,1.5-1.6c0.3-0.4,0.9-0.7,1.3-1.1c0.9-0.8,2.1-1.4,2.9-2.3c1-1.1,2.5-2.1,3.7-3.1c1.3-1.1,3.3-1.8,4.5-2.9
		c0.9-0.8,1.5-1.6,2.5-2.4c0.5-0.4,1.1-0.8,1.6-1.2c1-0.8,2.5-1.3,3.3-2.2c0.4-0.4,0.8-0.8,1.1-1.2c1.5,0.5,15.8,3.5,17.3,4
		c1.4,0.5,3.1,0.7,4.5,1.1c3,0.8,5.3,1.5,7.7,1C271.7,145.6,269.9,143.9,267.6,142.8z M34.3,99.2c-1.6-0.6-4.3-1.4-6-1.9
		c-2.2-0.6-4.3-1.4-6.4-2.1c1.4-0.2,2.9-0.4,4.3-0.7c0.4,0.2,0.8,0.4,1.2,0.6c1.4,0.8,2.9,1.6,4.3,2.4c1,0.6,1.9,1.1,2.8,1.7
		c0.7,0.3,1.5,0.5,2.2,0.7c1.7,0.6,3.4,1,5.1,1.6c2.2,0.7,4.4,1.6,6.6,2.2c4.2,1.1,8.2,2.5,12.1,4c2.5,0.9,5.1,1.7,7.7,2.5
		c2.5,0.7,4.9,1.6,7.3,2.5c0.1,0,0.2,0.1,0.4,0.1c1.6,0.5,3,1,4.5,1.6c0.8,0.3,1.6,0.5,2.4,0.8c1.1,0.4,2.3,0.8,3.4,1.2
		c1.2,0.4,2.5,0.7,3.6,1.1c4,1.4,7.8,2.9,11.8,4.3c1.8,0.6,3.7,1.1,5.5,1.8c0.6,0.2,1.1,0.4,1.7,0.7c3.2,1.1,6.8,2.3,8.7,2.9
		c-1.8-0.5-3.6-1-5.4-1.6c-1.1-0.4-2.2-0.9-3.3-1.3c-3.1-1-5.9-2-6.7-2.2c-4-1.3-7.8-2.9-11.8-4.3c-1.1-0.4-2.4-0.7-3.6-1.1
		c-2.2-0.7-4.2-1.5-6.3-2.3c-1.5-0.5-3-1-4.5-1.6c-0.1,0-0.3-0.1-0.5-0.1c-4.8-1.5-9.5-3-14.2-4.5C52.1,105.3,43.1,102.4,34.3,99.2z
		 M140.5,138.5c-2.1,0.3-4.4,0.5-6.6,0.6c-2.1,0.2-4,0.5-6.2,0.6c-9.8,0.5-19.2,1.4-28.2,2.6c-1.1,0.1-2.2,0.3-3.3,0.5
		c5.7-3,13.1-6.8,17.9-9.8c-1.8-0.5-3.6-1-5.2-1.5c-5.8,2.9-13.3,6.8-19.1,9.7c-1-0.9-2-1.9-2.9-2.8c-1.5-1.6-2.7-3.3-4.4-4.9
		c-1.7-1.6-2.9-3.3-4.6-4.9c-0.8-0.7-1.4-1.4-2.1-2.1c-0.9-1-2.1-2-2.6-2.9c-0.7-1.2-2.1-2.4-3.1-3.6c-0.5-0.6-1.2-1.1-1.5-1.6
		c-0.3-0.4-0.6-0.8-1.1-1.2l0,0c-0.4-0.3-0.7-0.7-1.1-1c-0.4-0.4-0.6-0.8-0.9-1.2c-0.3-0.3-0.5-0.5-0.5-0.8c0-0.2,0-0.3-0.1-0.5
		c0.2,0.1,0.4,0.1,0.7,0.2c2,0.6,4.1,1.1,6.1,1.7c2.3,0.7,4.5,1.6,6.9,2.2c2.1,0.6,4,1.2,6,1.9c2.5,0.8,5.3,1.5,7.7,2.4
		c3.4,1.3,7,2.3,10.4,3.5c2,0.7,4.1,1.2,5.9,1.9c1.3,0.5,2.6,1,4,1.5c2.3,0.7,4.5,1.6,6.9,2.3c1.5,0.5,2.9,0.9,4.4,1.5
		c1.7,0.6,3.5,1,5.2,1.5c1.4,0.4,2.7,0.9,4.1,1.3c0.1,0,0.3,0.1,0.4,0.1c1.8,0.6,3.4,1.2,5.2,1.7c1,0.3,2.1,0.7,3.1,1
		C141.5,138.4,141,138.4,140.5,138.5z M125.5,129.6c-2.3-0.7-4.5-1.3-6.8-2c-0.2-0.1-0.6-0.2-1.2-0.4c0.2,0.1,0.4,0.1,0.6,0.2
		c2.2,0.7,4.5,1.3,6.8,2c4,1.2,7.9,2.5,11.8,3.9c0.2,0.1,0.3,0.1,0.5,0.2C133.3,132,129.4,130.7,125.5,129.6z M142.2,135.4
		c-1.4-0.5-2.8-1.1-4.1-1.7c1.5,0.6,3,1.2,4.6,1.8C142.5,135.5,142.3,135.5,142.2,135.4z"/>
	<path class="st3" d="M196.7,121.6c-0.1,0-0.2,0-0.3,0.1c-0.1,0-0.1,0-0.2,0h-0.1c-1.2,0.1-2.5,0.1-3.8,0.1c-1.3,0.1-2.7,0.2-4,0.2
		c-0.1,0-0.2,0-0.3,0c-2-0.6-4.1-1.2-6.2-1.7c-5.3-1.5-10.5-3.2-15.7-4.7c-1.6-0.5-3.2-1.1-4.8-1.6c-1.8-0.6-3.6-1.1-5.3-1.7
		c-2.4-0.8-4.5-1.7-6.9-2.5c-5.5-1.7-10.9-3.4-16.4-5.1c-2.5-0.7-4.9-1.6-7.3-2.5c-2.8-0.9-5.6-1.9-8.5-2.8c-0.1,0-0.3-0.1-0.4-0.1
		c-0.3-0.1-0.5-0.1-0.7-0.2c-1.6-0.5-3.5-1.2-5.2-1.7l0,0l0,0c-0.3-0.1-0.5-0.2-0.8-0.2c-0.9-0.3-1.9-0.5-2.8-0.8
		c-3.6-1-7.1-2.5-10.8-3.4c-2.8-0.7-5.4-1.6-8.1-2.5c-2.5-0.8-5.1-1.5-7.7-2.3c-1.9-0.6-5.4-1.8-8.2-2.7c-0.7,0.2-1.1,0.4-1.8,0.5
		l0,0c0,0,0,0-0.1,0s-0.3-0.1-0.4-0.1c-0.2-0.1-0.3-0.1-0.4-0.2c-0.3-0.1-0.6-0.2-0.9-0.3c-0.3-0.1-0.6-0.2-0.8-0.3
		c-0.3-0.1-0.6-0.2-0.9-0.3h-0.1c-0.1,0-0.1,0-0.2-0.1c-0.1,0-0.2-0.1-0.3-0.1c-0.5-0.2-1-0.4-1-0.4C65,84,65.1,84,64.8,83.7
		c0,0-0.2-0.1-0.3-0.3c-0.1-0.1-0.2-0.2-0.3-0.2c-0.5-0.4-1-0.9-1.4-1.4C62,81,62.4,80.2,64,80.2l0,0c1.2,0,1.8,0,3.1,0.3
		c1.6,0.4,3,0.7,4.6,1.2c1.7,0.5,3.4,1.1,5.1,1.6c6.3,2.1,12.7,4.2,18.9,6.5c4.4,1.6,8.8,3.1,13.3,4.6c1.2,0.4,2.5,0.9,3.8,1.3
		c0.9,0.3,1.8,0.6,2.6,0.8c0.3,0.1,0.5,0.1,0.8,0.2c0.5,0.1,1,0.2,1.5,0.4c1.9,0.5,3.9,1.1,5.9,1.6c1.2,0.3,2.5,0.7,3.7,1.1
		c3.9,1.4,8,2.4,12,3.7c2.6,0.8,5.1,1.6,7.8,2.4c2.3,0.7,4.5,1.5,6.8,2.3s4.7,1.4,7.1,2.1c1.2,0.4,2.4,0.7,3.6,1
		c1.2,0.4,2.3,0.8,3.4,1.2c2.1,0.7,3.9,1.5,6,2.1c1.7,0.5,3.5,1.1,5.1,1.6c1.4,0.5,2.9,0.9,4.3,1.4c0.6,0.2,1.2,0.3,1.8,0.5
		c1,0.3,1.8,0.6,2.7,0.9c1.2,0.4,2.3,0.7,3.6,1.1c0.2,0.1,0.4,0.1,0.6,0.2C193.2,120.7,195,121.1,196.7,121.6z"/>
	<path class="st1" d="M215.3,159c-0.5-0.2-1-0.4-1.5-0.5C214.3,158.6,214.8,158.8,215.3,159z"/>
	<path class="st4" d="M208,125c-0.9,0.6-1.5,1.3-2.6,1.9l0,0c0,0,0,0-0.1,0C206.3,126.4,207,125.6,208,125
		C207.9,125,207.9,125,208,125z"/>
	<path class="st1" d="M196,121.7c-1.3,0.2-2.7,0.1-4,0.2s-2.7,0.2-4,0.2c0,0,0,0-0.1,0c0.1,0,0.2,0,0.3,0c1.3,0,2.7-0.2,4-0.2
		C193.5,121.8,194.8,121.8,196,121.7z"/>
	<path class="st3" d="M109.3,94.6c0,0,0.6-0.6,1.1-0.6c1.1-0.1,2.8,0.5,3.7,1.1c0.7,0.5,1.1,1,1.4,1.4c0,0,0,0.1,0.1,0.1L109.3,94.6
		z"/>
	<path class="st4" d="M119.4,108.9L119.4,108.9c-0.7-0.3-1.4-0.5-2.1-0.8c-1.2-0.6-2.4-1-3.6-1.6l0,0h0.1c1.3,0.5,2.4,1,3.7,1.6
		C118,108.4,118.7,108.6,119.4,108.9z"/>
	<path class="st3" d="M116.4,100.1c0.2,1.1,1.2,2.2,1.4,3.3c0.3,1.8,0.9,3.7,1.6,5.5c-0.7-0.3-1.4-0.5-2-0.8c-1.2-0.6-2.4-1-3.7-1.6
		h-0.1c0-0.1-0.1-0.2-0.1-0.3c-0.7-1.1-0.7-2-1.1-3.1c-0.3-0.7-0.8-1.5-0.9-2.2c-0.1-0.8-0.2-1.5-0.6-2.3c-0.2-0.4-0.4-0.7-0.6-1.1
		l0,0L116.4,100.1z"/>
	<path class="st3" d="M81.1,143.9c1.9,0,3.7-0.3,5.5-0.4l2,2.7c-0.8,0.1-1.7,0.3-2.5,0.4c-1.8,0.2-3.7,0.7-6.1,0.3
		c-1.6-0.3-2.5-0.7-2.7-1.5c-0.2-0.6,0.2-1.4,1.2-1.4C79.3,143.8,80.3,143.9,81.1,143.9z"/>
	<path class="st2" d="M108.9,131.5c-5.8,2.9-13.3,6.8-19.1,9.7c-1-0.9-2-1.9-2.9-2.8c-1.5-1.6-2.7-3.3-4.4-4.9
		c-1.7-1.6-2.9-3.3-4.6-4.9c-0.8-0.7-1.4-1.4-2.1-2.1c-0.9-1-2.1-2-2.6-2.9c-0.7-1.2-2.1-2.4-3.1-3.6c-0.5-0.6-1.2-1.1-1.5-1.6
		c-0.3-0.4-0.6-0.8-1.1-1.2c0.4,0.2,0.7,0.3,1.1,0.5c1.6,0.8,3.2,1.4,4.9,2.1c7.5,3.1,15.3,6.1,23.3,8.6
		C100.8,129.4,105,130.2,108.9,131.5z"/>
	<path class="st3" d="M220.9,120.5c-0.1,0.2-7.8,1.8-8.3,1.9l-12.8-1.4l-8.3-0.9c0,0,12-3.1,15.3-2.8c2.4-0.3,5-0.4,7.9-0.2
		c0.6,0,1.2,0.1,1.8,0.2c0.5,0.1,1.1,0.3,1.6,0.5C220,118.6,221.2,119.8,220.9,120.5z"/>
</g>
<g>
	<path class="st5" d="M185.8,116.8c-0.9-0.4-1.6-0.7-2.3-0.9c-0.9-0.2-1.8-0.7-2.7-1.1c-1.1-0.5-2.4-0.9-3.5-1.5
		c-1.3-0.6-2.5-1.6-3.7-2.8l0,0c-0.9-0.9-1.7-1.9-2.5-2.7c-1.6-2.2-4-3.8-5.8-6c-3.7-4.3-6.5-9.3-9.1-14.4c-0.6-1.1-1.1-2.2-1.6-3.4
		c-0.1-0.3-0.2-0.6-0.3-0.8l0,0c0.1-0.5,0.1-1,0.2-1.5c0.1-0.5,0.3-1.1,0.5-1.6c0.1-0.4,0.2-0.7,0.4-1.1c0.2-0.2,0.3-0.4,0.4-0.6
		c0.1,0.2,0.2,0.2,0.2,0.4c0.9,1.1,2,2,2.9,3.1c1.1,1.2,1.9,2.7,2.9,3.8c1,1.1,1.9,2.1,2.7,3.3c1.1,1.5,2.5,2.6,3.5,4.2
		c1.3,2.1,3,3.9,4.4,6c0.8,1.1,1.8,2.2,2.5,3.4c0.5,0.8,0.9,1.6,1.6,2.5c1.1,1.3,1.8,2.7,2.9,4c0.7,0.8,1.3,1.6,1.9,2.5
		c0.7,1.1,1.6,1.7,2.5,2.7C184.7,115.3,185.2,116.1,185.8,116.8z"/>
	<path class="st6" d="M182.8,104.7c1,1.2,2.1,2.4,3.1,3.5c1.9,2.1,3.5,4.3,5.1,6.7c0.7,1.1,1.3,2.5,2,3.6c0.3,0.7,0.8,1.2,1.2,1.7
		s0.8,1,1.1,1.4c0.1,0.2,0.2,0.3,0.4,0.5c1.4,1.7,2.8,3.3,4.3,4.9c0.3,0.3,0.7,0.7,0.9,1c3.9,4.3,7.3,9.2,10.5,14
		c3,4.5,6.4,8.3,9.7,12.4c1,1.1,1.3,1.6,2.8,3.7c0.2,0.3,0.4,0.6,0.6,0.9c0.4,0.7,2.7,5.5,3.1,7c0.6,2.3-2.5,3.7-4.1,2
		c-1.7-1.9-3.5-4.9-4.9-6.9c-3.4-5-7.8-10.1-11-15.1c-2-3-3.7-4.7-11.2-15.5c-3.6-5.2-5-6.5-6.9-8.8c-0.4-0.6-0.9-1.1-1.4-1.7
		c-0.7-1-1.4-2-2.2-3c-0.1-0.1-0.2-0.2-0.2-0.2c-0.7-0.7-1.1-1.6-1.7-2.3c-0.8-0.9-1.8-1.6-2.5-2.7c-0.6-0.9-1.2-1.7-1.9-2.5
		c-1.1-1.2-1.8-2.7-2.9-4c-0.7-0.8-1-1.6-1.6-2.5c-0.7-1.1-1.8-2.2-2.5-3.4c-1.4-1.8-3-3.7-4.3-5.8c-1-1.5-2.5-2.7-3.5-4.2
		c-0.8-1.1-1.7-2.2-2.7-3.3c-1.1-1.2-2-2.6-2.9-3.8c-0.9-1.1-2-2-2.9-3.1c-0.1-0.1-0.2-0.2-0.2-0.4c0.2-0.4,0.3-0.8,0.3-1.5
		c0.1-0.9,0-1.9,0.1-2.8s0.2-1.6-0.4-2.4c-0.4-0.5-1.1-1.5-1.7-1.6c-0.8-0.2-1.2,0.4-1.6,0.9c-0.4,0.6-0.7,1.2-0.7,1.9
		c0-2-3.3-4-4.3-5.5c-1.8-2.5-3.6-5.1-5.4-7.6c-1.6-2.3-3.5-4.2-5.2-6.3c-1.3-1.7-2.5-3.9-3.7-5.7c-0.5-0.7-0.8-1.3-1-2.1
		c-0.2-0.9-0.5-1.2-0.4-2.2c0.1-1.2,0.2-1.6,1.1-2.5c0.2-0.2,0.6-0.4,1-0.5c0.6,0,1.6,0.8,2,1.2c0.3,0.4,1,1.1,1.6,1.8
		c1.1,1.2,2.3,2.5,2.9,3.3s1.1,1.4,1.6,2.1c0.9,1.2,1.8,2.5,2.8,3.6c0.7,0.9,2,2.4,2.6,3.4c3.6,5.3,7.4,10.4,11.4,15.5
		c2,2.6,4.2,5.2,6.3,7.9c1.8,2.2,2.9,4.6,4.6,6.8c0.5,0.7,1.2,1.2,1.6,1.9c1.6,2.4,2.9,4.9,4.7,7.2
		C176.6,96.2,182.1,103.7,182.8,104.7z"/>
	<path class="st6" d="M156.4,74.5c-0.1,0.9,0,1.9-0.1,2.8c-0.1,0.6-0.2,1-0.3,1.5c-0.1,0.2-0.2,0.4-0.4,0.6
		c-0.2,0.3-0.3,0.7-0.4,1.1c-0.2,0.6-0.4,1.1-0.5,1.6s-0.2,1-0.2,1.5l0,0c-0.1,0.6-0.2,1.1-0.4,1.6c-0.3,0.7-0.3,1.5-0.6,2.3
		c-0.4,1.7-0.7,3.4-1.4,5c-0.5,1.2-0.7,2.7-1,4.1c-0.2,1-0.5,2-0.7,3c-0.3,2.3-1.1,4.6-1.6,6.9c-0.4,2.3-1.1,4.5-1.7,6.8
		c-0.3,1.3-0.5,2.6-0.7,4c-0.2,0.9-0.2,1.8-0.4,2.7c0,0.1,0,0.2,0,0.2c-0.2,1.1-0.5,2-1.1,2.9l0,0c-0.4,0.7-1,1.7-1.7,2
		c-0.6,0.3-2,0.6-2.5,0c-0.7-0.7,0.1-2.4,0.3-3.3v-0.1c0.1-0.4,0.5-1.6,0.7-2.3c0-0.1,0-0.2,0.1-0.2c0.2-0.7,0.5-1.3,0.7-2
		c0.3-0.8,0.2-1.7,0.2-2.7s0.2-2,0.4-3c0.5-2.1,0.9-4.3,1.5-6.5c0.3-1.2,0.7-2.5,1.1-3.7c0.2-0.8,0.3-1.6,0.5-2.5
		c0.3-2,0.6-4,1.3-5.9c0.3-1,0.8-2,0.9-3c0.1-0.8,0.2-1.7,0.3-2.5s0.2-1.7,0.4-2.5c0.2-1,0.7-1.9,0.9-2.9c0.2-0.9,0.3-1.9,0.5-2.9
		c0.2-0.9,0.4-1.8,0.7-2.7c0.2-1,0.4-1.8,0.5-2.9c0-0.1,0-0.2,0.1-0.3c0.1-0.7,0.3-1.3,0.7-1.9c0.4-0.5,0.9-1.1,1.6-0.9
		c0.7,0.2,1.4,1.1,1.7,1.6C156.6,72.9,156.5,73.6,156.4,74.5z"/>
	<path class="st6" d="M193.2,127.1c-5.1,0.1-10.1-0.6-15.2-1.1c-4.1-0.4-4.8-0.5-8.8-1c-1.9-0.2-7-0.5-8.8-0.7
		c-2-0.2-4.1-0.4-6.1-0.7c-0.9-0.1-1.7,0-2.6-0.2c-0.7-0.1-1.5-0.3-2.3-0.4c-1.4-0.2-2.8-0.2-4.3-0.2c0.6-0.9,0.9-1.9,1.1-2.9
		c0-0.1,0-0.2,0-0.2c0.4,0,0.8,0.2,1.2,0.2c0.8,0.1,1.6,0.1,2.5,0.1c1.1,0,2-0.1,3.1-0.1c8.1,0,16.3,0.4,24.3,1.3
		c1.8,0.2,3.6,0.1,5.4,0.2c1.9,0.2,3.8,0.2,5.8,0.2c0.4,0,0.8,0,1.2,0c0.4,0.5,0.8,1.1,1.2,1.6c0.6,0.7,1.1,1.6,1.6,2.5
		C192.7,126.3,193,126.7,193.2,127.1z"/>
	<path class="st7" d="M141.9,119.4c-1.6-0.1-3.1-0.1-4.7-0.4c-0.7-0.1-1.4-0.3-2.1-0.4c-0.9-0.1-2,0.8-2.5,1.6
		c-0.6,1-0.3,1.6,0.6,2.3c1.4,1,3.4,0.7,5,0.7c0.8,0,1.6,0,2.4-0.1"/>
	<path class="st8" d="M137.5,43.8c1.6-0.2,4-0.4,5.1-0.3c0.5,0,1,0.1,1.6,0.2"/>
	<path class="st8" d="M186.9,41.2c-0.7,0-1.5,0-2.1,0"/>
	<path class="st8" d="M146,49c-1.4,0.1-2.8,0.1-4.1,0.2h-0.1"/>
	<path class="st6" d="M230.2,125c-0.1,0.3-0.2,0.7-0.3,0.8c-0.5,0.7-1.2,1.2-2,1.5c-2,0.7-4.5,0.6-6.5,0.3
		c-4.1-0.5-8.2,0.1-12.3-0.2c-2.9-0.2-6-0.3-8.9-0.3c-1.5-1.6-2.9-3.2-4.3-4.9l0,0l0,0c0.7,0,1.2,0.1,1.9,0.1c1.1,0,2.1-0.1,3.2-0.1
		c0.2,0,0.4,0,0.6,0c1.3,0,2.7,0.1,4-0.1c0.6-0.1,1.2,0.2,1.9,0.1h2.1c1.2,0,2.4-0.2,3.5-0.2c1,0,2-0.1,3-0.2c2-0.3,4,0.1,6.1,0.1
		h4.6c0.8,0,1.7,0,2.5,0.3c0.1,0,0.2,0.1,0.2,0.1c0.2,0.2,0.5,0.3,0.7,0.6C230.4,123.4,230.4,124.3,230.2,125z"/>
	<path class="st9" d="M229.1,122.2c-0.7-0.3-1.6-0.3-2.5-0.3H222c-2,0-4-0.4-6.1-0.1c-1,0.2-2,0.2-3,0.2c-1.1,0-2.3,0.2-3.5,0.2
		h-2.1c-0.7,0-1.2-0.2-1.9-0.1c-1.3,0.2-2.7,0.2-4,0.1c-0.2,0-0.4,0-0.6,0c-1.1,0-2.1,0.1-3.2,0.1c-0.7,0-1.3,0-1.9-0.1l0,0
		c0.7,0,1.2,0.1,1.9,0.1c1.1,0,2.1-0.1,3.2-0.1c0.2,0,0.4,0,0.6,0c1.3,0,2.7,0.1,4-0.1c0.6-0.1,1.2,0.2,1.9,0.1h2.1
		c1.2,0,2.4-0.2,3.5-0.2c1,0,2-0.1,3-0.2c2-0.3,4,0.1,6.1,0.1h4.6C227.4,121.8,228.4,121.8,229.1,122.2z"/>
	<path class="st7" d="M246.6,107.2c4.9-0.4,9.7-1.2,14.6-1.1c2.1,0.1,4.3,0.3,6.3,1c0.4,0.2,0.8,0.2,1.1,0.6
		c0.3,0.2,0.5,0.6,0.7,0.9c0.6,1.2,0.3,2.9-0.7,3.8c-0.3,0.2-5.3,0.5-5.7,0.5l-12.8-1.6L246.6,107.2z"/>
	<path class="st5" d="M266.2,110.5C266.2,110.5,266.2,110.6,266.2,110.5C266.2,110.6,266.2,110.6,266.2,110.5
		c-0.1,0-0.2,0.2-0.2,0.2c-0.2,0.2-0.2,0.2-0.6,0.4c-0.2,0.2-0.6,0.3-0.8,0.5c-0.7,0.4-1.6,0.7-2.3,0.9c-0.5,0.2-2,0.8-2,0.8
		c-0.6,0.2-3.8,1.1-5.1,1.6c-0.5,0.2-1,0.3-1.5,0.6l0,0c-1.3,0.7-2.5,1.4-3.9,2l0,0c-0.1,0-0.2,0.1-0.2,0.1c-0.1,0-0.2,0.1-0.2,0.1
		c-1,0.4-1.9,0.9-2.9,1.1c-1.5,0.3-2.7,1-4.1,1.5c-1.6,0.6-3.3,1.2-4.8,1.9c-1.8,0.7-5,1.7-7.6,2.5c0.2-0.7,0.2-1.6-0.2-2.1
		c-0.2-0.2-0.4-0.5-0.7-0.6c-0.1,0-0.2-0.1-0.2-0.1c-0.7-0.3-1.6-0.3-2.5-0.3h-4.6c-2,0-4-0.4-6.1-0.1c-1,0.2-2,0.2-3,0.2
		c-1.1,0-2.3,0.2-3.5,0.2h-2.1c-0.7,0-1.2-0.2-1.9-0.1c-1.3,0.2-2.7,0.2-4,0.1c-0.2,0-0.4,0-0.6,0c-1.1,0-2.1,0.1-3.2,0.1
		c-0.7,0-1.3,0-1.9-0.1l0,0c-0.1-0.2-0.2-0.2-0.3-0.4c-0.4-0.5-0.8-1-1.1-1.4c-0.5-0.6-0.9-1.1-1.2-1.7c-0.7-1.2-1.2-2.5-2-3.6
		c-1.5-2.4-3.2-4.6-5.1-6.7c-1.1-1.2-2.1-2.3-3.1-3.5c-0.9-1.1-2-2-2.8-3.2c-0.7-1-1.1-2.2-1.8-3.3c-0.7-1.1-1.6-2-2.4-3.1
		c-1.7-2.3-3-4.8-4.7-7.2c-0.5-0.7-1.1-1.2-1.6-1.9s-0.9-1.4-1.4-2c-0.9-1.5-2-2.9-2.9-4.3s-1.8-2.9-3-4.3s-2.4-2.8-3.4-4.3
		c-1.6-2.4-3.1-4.7-5.2-6.9c-1.1-1.1-2-2.5-2.9-3.8c-0.7-1-1.6-1.9-2.3-2.8c-0.3-0.4-0.7-0.8-1-1.3c-0.1-0.9-0.2-1.6-0.4-2.5
		c-0.2-1.2-0.6-2.4-0.8-3.6c-0.1-0.4-0.2-0.9-0.3-1.3c-0.5-1.9-1.1-3.7-1.9-5.4c0.1,0,0.2,0,0.3,0c1.9,0,3.7-0.4,5.6-0.7
		c1.9-0.2,3.8-0.4,5.6-0.7c2.9-0.4,6.1-0.7,9-0.8c6.7-0.2,13.4-0.4,20.2-0.2c0.7,0.6,1.4,1.1,1.9,1.8c0,0,0,0,0.1,0.1
		s0.2,0.2,0.2,0.3c0.5,0.8,1,1.6,1.6,2.5l0,0l0,0c1.2,1.8,1.8,3.8,2.3,5.9c0.5,2,0.7,4.1,1.2,6.1c0.2,0.9,0.9,1.9,1.2,2.8
		c0.5,1.2,1.1,2.5,1.7,3.6c1.1,2,1.7,4.4,2.8,6.5s1.6,4.3,2.7,6.4c0.1,0.2,0.2,0.3,0.2,0.4v0.1c0.4,0.8,0.8,1.6,1.1,2.5
		c0.2,0.5,0.5,0.9,0.7,1.3v0.1c0.1,0.2,0.2,0.4,0.3,0.7c0.3,0.8,0.4,1.7,0.8,2.5c0.6,1.1,1.5,2,2.1,3c0.8,1.4,1.6,2.8,2.4,4.2
		c1,1.6,2.2,2.9,3.2,4.3c0.9,1.4,2.5,2.2,3.9,3c1.6,0.9,3.1,2,4.6,3.1s3.3,1.6,4.9,2.3c2,0.8,3.8,1.5,5.9,2c1.6,0.4,3.1,0.9,4.7,1.2
		c2.1,0.4,4.3,1.1,6.4,1.5c0.1,0,0.2,0,0.3,0c1.1,0.2,2.2,0.2,3.4,0.3c1.1,0.2,2.1,0.4,3.3,0.4c0.2,0,3.1-0.2,3.3-0.2
		c3.2-0.2,3.7-0.2,6.9-0.3c1.6-0.1,3.2-0.2,4.7-0.1c0.7,0.1,2.7,0.2,2.9,0.8C266.3,110.3,266.3,110.5,266.2,110.5z"/>
	<path class="st6" d="M272.4,146.5c-2.3,0.2-3.4-1-4.9-2.5c-0.7-0.7-1.7-1.3-2.3-2.1c-0.7-0.8-1.3-1.7-2-2.5
		c-0.7,0.5-1.4,0.9-2.1,1.3c-1.6,0.9-3.2,1.4-4.8,2.1c-0.8,0.4-1.6,0.8-2.5,1.3c-1.5,0.7-2.9,1.7-4.3,2.5c-2,1.1-4.3,1.8-6.5,2.9
		c-2,1.1-4.2,2-6.1,3.3c-1.5,1-3.1,1.6-4.6,2.4c-0.7,0.4-1.5,0.7-2.1,1.1c-0.9,0.6-1.7,1.3-2.8,1.7c-0.6,0.2-1.1,0.4-1.8,0.7
		c-0.4,0.2-0.7,0.3-1.1,0.4c-0.2-0.3-0.4-0.7-0.6-0.9c-0.8-1.2-1.8-2.5-2.8-3.7c0.7-0.3,1.5-0.7,2.2-1c0.7-0.2,1.6-0.7,2.3-1
		c2-1.1,3.8-2.4,5.8-3.3c2-0.9,4-1.6,5.9-2.8c1.8-1.2,3.6-2.2,5.6-3.1c1.7-0.8,3.5-1.6,5.2-2.5c2.5-1.2,4.7-2.9,7.3-4
		c1.7-0.8,3.8-1.2,5.4-2.4c0,0,0,0,0.1,0c-0.5-0.7-0.9-1.6-1.2-2.3c-0.3-0.6-0.7-1.1-1.1-1.7c-0.8-1.2-1.8-2.5-2.7-3.7
		c-1.3-1.7-2.2-3.7-3.6-5.3c-0.6-0.7-1.5-2.2-2.3-3.8l0,0c1.4-0.5,2.6-1.3,3.9-2c0.6,0.7,1.1,1.3,1.6,2c0.6,0.8,1.1,1.9,1.9,2.6
		c0.4,0.4,0.9,0.8,1.3,1.2c0.9,1,1.6,2.2,2.5,3.3c1.4,1.6,2.7,3.4,3.9,5.1c1.1,1.6,2.5,2.9,3.6,4.5c1.1,1.4,2.1,2.8,3.1,4.3
		c0.7,1.1,1.9,2.2,2.4,3.4C274.9,143.9,274.5,146.4,272.4,146.5z"/>
	<path class="st9" d="M254,115.9c-1.3,0.7-2.5,1.4-3.9,2l0,0c0,0,0,0,0-0.1C251.4,117.3,252.6,116.4,254,115.9L254,115.9z"/>
	<path class="st6" d="M248.9,109.8c-0.2,0-0.4,0-0.7,0c-1.1,0-2.1-0.3-3.3-0.4c-1.1-0.2-2.2-0.2-3.4-0.3c-1-1.1-2-2.1-2.9-3.2
		c-2.5-2.7-4.7-5.6-7.2-8.3c-0.7-0.8-1.4-1.9-2.1-2.7c-0.8-1-1.6-1.9-2.4-2.9c-1.1-1.3-1.7-2.9-2.8-4.2c-2.5-2.9-4.8-6-7.4-8.9
		c-1.1-1.3-2-2.9-3.1-4.3c-1.1-1.6-2.3-3.3-3.6-4.8c-0.1-0.1-0.2-0.2-0.2-0.2c-0.1-0.2-0.2-0.2-0.3-0.4c-0.8-1.1-1.8-2.5-2.6-3.4
		c-0.4-0.5-0.9-1-1.3-1.5c-1.7-1.9-2.9-4.3-4.7-6c-1.4-1.3-2.5-2.9-3.7-4.3c-1.1-1.4-2.4-2.7-3.5-4c-0.9-1.1-2.3-3.1-3.5-4.7
		c-0.7,0.1-1.2,0.2-2,0.3c-0.6-0.8-0.9-1.4-1.4-2.2c-0.1-0.1-0.6-1-0.6-1.1c0.1-0.3,0.1-0.3,0.2-0.7c0-0.1,0-0.4,0.1-0.7
		c0.1-0.7,0.2-1.3,0.3-1.9c0.2-1.2,1.4-2,2.5-1.8l0,0c0.9,0.2,1.4,0.2,2,0.9c0.8,0.7,1.6,1.4,2.3,2.2c0.8,0.9,1.6,1.9,2.2,2.8
		c2.7,3.6,5.4,7.3,7.8,11.1c1.7,2.7,3.6,5.2,5.4,7.9c0.5,0.7,1.1,1.5,1.6,2.2c0.4,0.6,0.8,1,1.2,1.4c0.4,0.3,0.8,0.7,1.1,1.1
		c1,1,1.9,2,2.9,2.9c0.6,0.7,1.1,1.3,1.6,2c1.6,2.3,3.7,4.3,5.4,6.5c1.1,1.5,2.3,2.8,3.5,4.2c1.1,1.2,2,2.6,2.9,3.9
		c1,1.3,2.2,2.5,3.3,3.7c0.6,0.7,1.1,1.2,1.7,1.9c0.5,0.7,1,1.3,1.5,2c0.9,1.1,1.5,2.5,2.5,3.5c0.8,0.9,1.6,1.9,2.3,2.9
		c0.6,0.8,1.2,1.6,1.9,2.4c0.3,0.3,0.6,0.7,0.9,0.9c0.5,0.5,0.7,1.1,1.1,1.6c0.5,0.7,1,1.3,1.6,2c0.1,0.1,0.2,0.2,0.2,0.3
		C247.2,108.1,248.1,108.9,248.9,109.8z"/>
	<path class="st8" d="M209.7,62.3L209.7,62.3c0.5-0.4,1.1-0.7,1.6-0.6c1,0.1,1.7,1.1,1.7,2c0,0.7-0.2,1.4-0.4,2
		c0,0.1-0.1,0.1-0.1,0.2"/>
	<path class="st9" d="M202.6,81.7L202.6,81.7c-0.2-0.4-0.6-0.9-0.7-1.4c-0.4-0.9-0.7-1.7-1.1-2.5l0,0v0.1c0.4,0.8,0.8,1.6,1.1,2.5
		C202.1,80.8,202.4,81.3,202.6,81.7z"/>
	<path class="st6" d="M209.4,70.2c-1,1.3-1.4,2.9-2.4,4.3c-1.6,2.3-3.1,4.7-4.4,7.1c-0.2-0.4-0.5-0.9-0.7-1.3
		c-0.4-0.9-0.7-1.7-1.1-2.5v-0.1c0.1-0.2,0.2-0.2,0.2-0.4c0.7-1.5,1.6-2.6,2.4-4c0.5-1,1-2,1.6-2.9c0.7-1,1.4-1.9,1.9-2.9
		c0.2-0.5,0.4-0.9,0.7-1.4"/>
	<path class="st6" d="M173.7,110.8c-6.8,2.9-16.4,6.4-23.9,9.2c-0.8,0-1.6,0-2.5-0.1c-0.4-0.1-0.8-0.2-1.2-0.2
		c0.2-0.9,0.2-1.8,0.4-2.7c7.4-2.7,17.2-6.3,24.6-9C172,108.9,172.8,109.9,173.7,110.8z"/>
	<path class="st8" d="M171.2,108c-7.4,2.7-17.2,6.3-24.6,9c0.2-1.3,0.4-2.7,0.7-4c0.5-2.3,1.3-4.5,1.7-6.8s1.2-4.6,1.6-6.9
		c0.2-1,0.4-2,0.7-3c0.2-1.3,0.5-2.8,1-4.1c0.7-1.6,0.9-3.4,1.4-5c0.2-0.8,0.2-1.6,0.6-2.3c0.2-0.6,0.3-1.1,0.4-1.6
		c0.1,0.3,0.2,0.6,0.3,0.8c0.5,1.2,1,2.3,1.6,3.4c2.5,5.1,5.4,10.1,9.1,14.4C167.2,104.2,169.6,105.9,171.2,108z"/>
	<line class="st8" x1="173.7" y1="110.8" x2="173.7" y2="110.8"/>
</g>
</svg>
