<?xml version="1.0" encoding="utf-8"?>
<!-- Generator: Adobe Illustrator 23.0.3, SVG Export Plug-In . SVG Version: 6.00 Build 0)  -->
<svg version="1.1" id="Calque_1" xmlns="http://www.w3.org/2000/svg" xmlns:xlink="http://www.w3.org/1999/xlink" x="0px" y="0px"
	 viewBox="0 0 200 200" style="enable-background:new 0 0 200 200;" xml:space="preserve">
<style type="text/css">
	.st0{fill:none;stroke:#000000;stroke-width:1.0883;stroke-linecap:round;stroke-linejoin:round;stroke-miterlimit:10;}
	.st1{stroke:#000000;stroke-width:1.0883;stroke-linecap:round;stroke-linejoin:round;stroke-miterlimit:10;}
	.st2{fill:#FFE6B4;stroke:#000000;stroke-linecap:round;stroke-linejoin:round;stroke-miterlimit:10;}
	.st3{fill:none;stroke:#000000;stroke-linecap:round;stroke-linejoin:round;stroke-miterlimit:10;}
	.st4{stroke:#000000;stroke-linecap:round;stroke-linejoin:round;stroke-miterlimit:10;}
	.st5{fill:#FFC1C2;stroke:#000000;stroke-linecap:round;stroke-linejoin:round;stroke-miterlimit:10;}
	.st6{fill:none;stroke:#000000;stroke-width:1.1166;stroke-linecap:round;stroke-linejoin:round;stroke-miterlimit:10;}
	.st7{fill:#F6F6F6;stroke:#000000;stroke-linecap:round;stroke-linejoin:round;stroke-miterlimit:10;}
	.st8{fill:#FFFFFF;stroke:#000000;stroke-linecap:round;stroke-linejoin:round;stroke-miterlimit:10;}
	.st9{fill:#FC6570;stroke:#000000;stroke-miterlimit:10;}
	.st10{fill:none;stroke:#000000;stroke-miterlimit:10;}
	.st11{fill:#BBCAD2;stroke:#000000;stroke-miterlimit:10;}
	.st12{fill:#FFFFFF;stroke:#000000;stroke-miterlimit:10;}
	.st13{fill:#FF8489;stroke:#000000;stroke-miterlimit:10;}
	.st14{fill:#FFBFC0;stroke:#000000;stroke-miterlimit:10;}
	.st15{fill:#81C0DF;stroke:#000000;stroke-miterlimit:10;}
	.st16{fill:#FFE4B2;stroke:#000000;stroke-miterlimit:10;}
	.st17{fill:#F4F4F4;stroke:#000000;stroke-linecap:round;stroke-linejoin:round;stroke-miterlimit:10;}
	.st18{fill:#F0F0F0;stroke:#000000;stroke-linecap:round;stroke-linejoin:round;stroke-miterlimit:10;}
	.st19{fill:#4A97F4;stroke:#000000;stroke-miterlimit:10;}
</style>
<path class="st0" d="M1256.6,684.6c-1.7-0.9-2.4-1.3-3.4-2.9"/>
<path class="st1" d="M1252.7,670.7c-6.2,5.4-11.3,11.9-15.1,19.3c-2.3-0.9-4.6-1.7-6.8-2.7c4.6-7.6,11.1-14.1,18-19.8
	C1250.1,668.6,1251.4,669.6,1252.7,670.7z"/>
<path class="st0" d="M1241.8,691.6L1241.8,691.6L1241.8,691.6L1241.8,691.6c-1.4-0.6-2.8-1.1-4.2-1.6"/>
<path class="st0" d="M1253.5,686.9c-1.5-0.9-2.1-1.3-3.3-2.6"/>
<path class="st0" d="M1241.9,691.7L1241.9,691.7c0.1,0,0.1,0.1,0.2,0.1c0.1,0.1,0.2,0.1,0.3,0.2c0.9,0.7,1.7,1.5,2.7,2
	c0.8,0.5,1.9,0.8,2.8,0.5"/>
<path class="st0" d="M1248.8,689.2c-0.5-0.6-1-1.2-1.6-1.7"/>
<path class="st1" d="M1265.1,684.4c-0.3,1.1-1,2-1.7,2.9c-3.6,4.5-9,8.2-14.7,7.4c-0.3,0-0.7-0.1-1-0.2c0.3-0.1,0.6-0.2,0.9-0.4
	c1.1-0.8,1.3-2.3,0.9-3.5c-0.2-0.5-0.5-1-0.8-1.4c0.9,0.5,1.8,0.7,2.8,0.6c0.4,0,0.9-0.2,1.2-0.4c0.7-0.5,0.9-1.4,0.7-2.3V687
	c0.1,0.1,0.2,0.1,0.2,0.2c0.4,0.2,0.8,0.5,1.3,0.5c1.3,0,2-1.5,1.7-2.7c0-0.1,0-0.1-0.1-0.2c0.4,0.2,0.8,0.4,1.2,0.6
	c0.7,0.3,1.4,0.5,2.1,0.3c1.8-0.4,2.1-2.9,1.5-4.6c-1.1-3.3-3.7-5.8-6.3-8.2c-0.7-0.7-1.5-1.4-2.3-2c-1.3-1.1-2.6-2.2-3.9-3.3
	c-1.9-1.7-3.9-3.4-5.5-5.2c2.4,1.1,4.8,2.4,7,3.9c1.4,0.9,2.8,1.9,4.2,3c2.8,2.2,5.3,4.6,7.6,7.3
	C1264.1,678.7,1265.9,681.6,1265.1,684.4z"/>
<path class="st0" d="M1241.7,691.6C1241.8,691.6,1241.8,691.6,1241.7,691.6C1241.8,691.6,1241.8,691.6,1241.7,691.6
	C1241.8,691.6,1241.8,691.6,1241.7,691.6c0.1,0.1,0.2,0.1,0.2,0.1l0.1,0.1c0.1,0.1,0.2,0.1,0.3,0.2c1.7,1.2,3.5,2.1,5.5,2.6"/>
<path class="st2" d="M1201.1,642.4c-0.2,2.3-0.4,4.3-0.7,5.9c-3.5,0-9.2,0-12.7-0.2c-11-0.5-22.8-0.9-33.8-1.1
	c0.9-4.6,2.3-11.2,2.5-14.1c1.4-14,0.6-28.2-2.3-42c-0.2-1-0.4-2-0.7-2.9c7.4-5.1,7.3-6.8,17.3-12.4c2.9-1.6,4.2-2.6,5.6-3.7
	c0.5,1,1,2.1,1.5,3.2c3.6,7.5,8.1,17.6,9.6,25.3c0.1,0.6,0.2,1.1,0.3,1.6c-4,1.7-10.7,7.6-14.4,9.8c-4.2,2.5-1.7,1.7-5.3,3.2
	c8.3,2.3,19.8-0.7,30.6-0.9c0.3,0.8,0.6,1.9,0.9,3.2c0.7,3.1,1.2,7,1.5,9.3C1201.5,630.2,1201.5,636.9,1201.1,642.4z"/>
<path class="st3" d="M1177.8,575.1c3.9-2.9,8.1-5.5,12.7-7.1c6.3-2.2,13.5-2.5,19.5,0.5c6.3,3.2,10.4,9.6,13.2,16.2
	c4.5,10.7,6.2,22.2,7.8,33.7"/>
<path class="st3" d="M1268.9,604.9L1268.9,604.9c0.1,0.3,0.1,0.1,0.1-0.2"/>
<path class="st3" d="M1268.9,604.8L1268.9,604.8c0,0.7,0,1.6,0,3.1"/>
<path class="st3" d="M1244.7,664L1244.7,664c-0.2-0.2-0.5-0.5-0.7-0.8c-2.5-3-4.1-7.4-5.6-11c-1-2.5-1.8-5.1-2.6-7.7
	c-1.7-6-2.8-12.1-3.7-18.2c-0.4-2.6-0.8-5.2-1.1-7.9"/>
<path class="st3" d="M1233.1,687c-3.2-1.4-6.2-3.1-8.6-5.7c-6.6-7-6.6-17.6-7.3-27.2c-0.3-3.8-0.7-7.6-1.3-11.3
	c-1.4-8.7-3.6-17.3-6.7-25.5"/>
<path class="st3" d="M1187.5,600.3c4.2-1.3,9-1.3,12.6,1.2c3.3,2.2,5.2,5.9,6.7,9.6c0.9,2,1.7,4.1,2.5,6.2c-2-0.1-4-0.1-6-0.1
	c-1.2,0-2.5,0-3.7,0c-0.3,0-0.6,0-0.8,0"/>
<path class="st4" d="M1281.1,623L1281.1,623c-0.1,3-0.3,6-0.8,9c-4.6-5.8-10.8-10.3-17.6-13c0.9-1.5,1.2-3.5,1-5.4
	C1269.8,616,1275.7,619.2,1281.1,623z"/>
<path class="st3" d="M1261.9,601.9c-0.1,0.3-0.1,0.7-0.2,1c0,0.1,0,0.1,0,0.2c-0.2,3.4,1.3,6.5,1.9,9.8c0,0.2,0.1,0.5,0.1,0.7"/>
<path class="st3" d="M1231,618.4c8.4,0.7,16.8,1.6,25.1,2.9c1.2,0.2,2.5,0.4,3.8,0s2.2-1.2,2.8-2.3"/>
<path class="st3" d="M1273.9,607.2c0,0,0,0.1,0,0.2c0.2,2.3,0.3,2.1,0,4.4"/>
<path class="st3" d="M1278.3,614.5c-0.1-1.3,0-0.5,0.1-1.7c0-0.1,0-0.2,0-0.3"/>
<path class="st3" d="M1235.8,644.5c7.7,0.1,15.4,0.3,23.2,0.5c3.5,0.1,7,0.1,10.4-0.5"/>
<path class="st4" d="M1282.9,632.8c0,0.8-0.1,1.7-0.2,2.5c-0.2,1.6-0.6,3.2-1.3,4.7c-1.4,2.7-4.2,4.7-7.3,5.1
	c-1.6,0.2-3.2,0-4.7-0.6c1.5-0.3,3-0.7,4.5-1.3c1.6-0.7,3.2-1.6,4.2-3.1c0.8-1.2,1.2-2.6,1.5-4s0.6-2.8,0.8-4.1c0.5-3,0.7-6,0.8-9
	l0,0c0.1-2.4,0-4.9-0.2-7.4c-0.1-1-0.2-2.2-1-2.9c-0.4-0.3-1-0.5-1.5-0.4c0.1-1.2,0-2.4-0.4-3.4c-0.5-1.2-1.6-2.1-2.9-2.2
	c-0.4,0-0.8,0.1-1.2,0.4c-0.1-1.5-0.6-3.1-2-3.6c-1-0.3-2.2,0.2-2.9,1.1c0-0.5-0.1-1-0.1,0.2l0,0c-0.1-0.7-0.3-1.3-0.5-2
	c-0.8-2.2-3.6-4.1-5.4-2.7c-0.5,0.4-0.8,1-1,1.6c0-1.3-0.7-2.8-0.1-4c0.8-1.6,3-1.6,4.7-1.2c3.8,0.9,7.5,2.8,9.9,5.9
	c1.5,2,2.5,4.4,3.2,6.8c1.6,4.8,2.6,9.8,3,14.9C1282.9,627,1283,629.9,1282.9,632.8z"/>
<path class="st3" d="M1269,604.7L1269,604.7L1269,604.7C1268.9,603.7,1269,604.2,1269,604.7z"/>
<path class="st3" d="M1261.9,601.9c0,0.4,0,0.7-0.2,1c0,0.1-0.1,0.2-0.1,0.2"/>
<path class="st2" d="M1053.4,557c0,0.3-0.2,0.7-0.6,0.9c-2.5,1.2-4.8,2.8-7,4.6c-0.4,0.3-0.5,0.9-0.2,1.3c1.7,2.5,1.7,5.8,1.1,9
	c-0.2,0.9-1.3,1.1-1.8,0.4c-0.2-0.3-0.5-0.6-0.8-0.9c-0.9-0.8-1.9-1.4-3-1.9c-0.6-0.3-1.3,0.1-1.4,0.8l-1.2,8.2
	c-0.1,0.7-0.2,1.4-0.2,2c-0.1,1-1.4,1.2-1.8,0.4c-0.6-1-1.2-2-1.8-2.9c-0.2-0.3-0.4-0.6-0.7-1c3.7-6.3,8.9-15.1,12.5-21.3
	c1.9-3.3,3.8-6.6,5.4-10c0.5-1,1-2,1.4-3.1c0.4-0.3,0.9-0.7,1.2-1c0.6-0.5,1.5-0.2,1.6,0.5c0.8,4.2-1,8.7-4.2,11.4
	c-0.7,0.5-0.3,1.7,0.6,1.7C1053.1,556,1053.4,556.5,1053.4,557z"/>
<path class="st4" d="M1053.8,542.3c-0.1,0.4-0.3,0.7-0.4,1.1c-0.4,1-0.9,2.1-1.4,3.1c-1.6,3.4-3.5,6.7-5.4,10
	c-3.6,6.2-8.7,15-12.5,21.3c-0.1,0.2-0.2,0.4-0.3,0.6c-1-0.2-1.9-0.5-2.9-0.8c0,0,0,0-0.1,0c-0.3-0.3-0.6-0.4-0.9-0.5
	c-0.1,0-0.2,0-0.3,0c-1.3-0.6-2.6-1.4-3.7-2.3c-0.1-0.1-0.3-0.2-0.4-0.4c-0.3-0.3-0.6-0.6-0.9-1c-0.7-0.8-1.2-1.8-1.6-2.8
	c-0.8-2.2-0.7-4.7-0.6-7c0.3-4,2.5-10.9,4.7-14.2s6-5.4,9.9-6.5c2.9-0.8,6-1.1,9.1-0.9c1.6-5.5,3.8-10.9,6.1-16.2
	c0.8-1.9,1.6-3.8,2.8-5.4c0.2-0.3,0.5-0.7,0.9-0.8c1-0.3,1.8,0.8,1.9,1.8C1058,528.4,1056.4,535.7,1053.8,542.3z"/>
<path class="st3" d="M1216,642.8c-5.2-0.4-10.3-0.4-15.5-0.5"/>
<path class="st3" d="M1096.7,530.8c5.9,4.3,11.6,18.7,9.9,27.1c-0.3,1.3-0.6,2.5-1,3.7"/>
<line class="st3" x1="1113.1" y1="589.3" x2="1113.1" y2="589.3"/>
<path class="st3" d="M1106,518.7c7.6,5.6,15.7,20.1,17.5,29c1,4.9,1.5,9.8,1.3,14.8"/>
<line class="st3" x1="1113.1" y1="589.3" x2="1113.1" y2="589.3"/>
<path class="st4" d="M1156.4,632.8c-0.3,2.9-1.6,9.5-2.5,14.1c-0.1,0.3-0.1,0.7-0.2,1l0,0c-27.1,0.7-54.2,1.5-81.3,2.2
	c-16.6,0.5-35.2,3.8-50.3-2.8c-0.2-0.1,0.9-3.2,0.7-3.3l-1.2,3c0.1-1,0.3-2.1,0.5-3.3l0,0c1.4-6.6,5.3-16.1,7.9-20.7
	c0.5,1.2,2.1,2.5,3.1,3.1c4,2.5,5.3,2.6,9.3,2.6c6.3,0.1,9.1-0.1,11.5-5.9c2.4-5.8,2.6-10.1,0.8-16.1c-1.2-4.3-2.5-11.8-4.4-15.8
	c-0.1-0.2,0.3-0.4,1.4,0.9c0.6,0.6,1.4,1,2.2,0.9c3-0.3,5.6,0.2,8-0.3c3.6-0.7,7.1-2.3,9.7-4.8c7.1-1,14-3.5,19.9-7.5
	c6.5-4.5,11.6-11,14.1-18.4c4,0.7,8,1.3,12,1.4c2.4,0,4.8-0.1,7.2-0.5c-0.1,2.9-0.4,5.8-1.1,8.6c-1.6,7-5.2,13.6-10.6,18.2
	c7.4-1,14.8-2.1,22.2-3.2c6-0.8,12.3-1.6,17.9,0.5l0,0c0.1,0.4,0.2,0.8,0.3,1.3c0.2,1,0.5,1.9,0.7,2.9
	C1157.1,604.6,1157.8,618.8,1156.4,632.8z"/>
<path class="st3" d="M1049.1,593.1"/>
<path class="st3" d="M1029.3,624.2c-0.4-0.8-0.7-1.6-0.9-2.3c-0.7-2-0.5-1.8-0.5-3.9c0-4,1.3-7.8,2.8-11.5c1.9-4.8,4.2-9.4,6.4-14"
	/>
<path class="st5" d="M1077.2,546.7c-0.3,1.5,0.8,2.9,1.6,4.2s1.2,3.3,0,4.1c-1,0.7-2.6,0-3.2-1.1s-0.3-2.5,0.2-3.7
	C1076.2,549,1076.9,547.9,1077.2,546.7"/>
<path class="st3" d="M1034.1,577.7c-0.9-1.3-1.7-2.8-1.4-4.3"/>
<path class="st3" d="M1047.5,548c1.2-1.4,3.7-3.1,5.8-4.6"/>
<path class="st6" d="M1056.8,550.6c3.8,1.4,7.2,3.9,9.7,7.1c0.7,0.9,1.2,1.8,1.8,2.7c4.8,7.4,9.4,15.1,5.4,23
	c-3.9,7.7-10.7,9.8-19.4,8.4c-2-0.3-2.1-0.3-3.9-2.1"/>
<path class="st3" d="M1066,586.1"/>
<path class="st3" d="M1067,563.4"/>
<path class="st6" d="M1047.3,579.2c-0.7-1.1-2.5-0.9-3.3,0.2s-0.5,2.6,0.2,3.7c0.5,0.8,1.2,1.5,2.2,1.8c0.9,0.3,2,0.2,2.7-0.4
	c0.2-0.1,0.3-0.3,0.5-0.3c0.9-0.2,1.2,1.4,2.1,1.5"/>
<path class="st6" d="M1057.3,565.1c-2.4,0.5-4.3,2.7-4.5,5.1"/>
<path class="st6" d="M1065.5,557.5c-2.2,0.6-3.8,2.9-3.7,5.2"/>
<path class="st6" d="M1064.7,566.8c0.2,1.8-1.4,3.6-3.2,3.7"/>
<path class="st6" d="M1068,574c-0.9,0.7-0.9,2.2,0,2.9s2.4,0.3,2.8-0.8"/>
<path class="st3" d="M1022.8,644c-0.2-0.1-0.4-0.2-0.7-0.3"/>
<path class="st3" d="M1027.9,588c-7.1,11.2-13,23.3-15.1,36.4c-0.8,5.3-0.8,11.3,2.8,15.3c1.4,1.5,3.2,2.5,5.1,3.5
	c0.4,0.2,0.9,0.4,1.3,0.6"/>
<path class="st3" d="M1028,573.8c-0.2-0.1-0.4-0.1-0.6-0.2c-0.2-0.1-0.4-0.2-0.7-0.3c0.1,0,0.2,0,0.3,0
	C1027.5,573.3,1027.8,573.5,1028,573.8z"/>
<path class="st3" d="M1028.9,589.5c-0.3-0.5-0.6-1-0.9-1.5c-2.5-4.3-4.7-8.9-4.3-13.8c0-0.3,0.1-0.6,0.3-0.8
	c0.5-0.5,1.2,0.1,1.7,0.7c0,0,0,0,0,0.1c1.2,1.8,2.3,3.6,3.5,5.5"/>
<path class="st3" d="M1028,573.8c0.2,0.2,0.5,0.5,0.7,0.8c2.2,2.9,4.3,5.8,6.5,8.7c1.3,1.8,2.9,3.7,5,4c1.2,0.2,2.4-0.1,3.5-0.4
	c1.9-0.4,3.9-0.8,5.9-0.9c0.8-0.1,1.9,0,2.3,0.7c0.7,1.1-0.6,2.3-1.7,2.9c0,0-0.1,0.1-0.2,0.1c-4,2.1-8.6,3.1-13.1,2.9"/>
<path class="st3" d="M1026.8,573.3c-0.5,0-0.9,0.4-1.2,0.8c-0.2,0.3-0.3,0.7-0.3,1.1c0,1,0.6,1.9,1.1,2.8"/>
<g>
	<path class="st7" d="M1084.8,544.1c-0.9,0.6-1.9,1-2.9,1.4c-4-2.5-7.3-6-9.6-10c0.2-1.1,0.6-2.6,1.1-3.8
		C1076.1,536.7,1080.1,541,1084.8,544.1z"/>
	<line class="st3" x1="1073.4" y1="531.7" x2="1073.4" y2="531.7"/>
	<path class="st7" d="M1114.6,515.3c-9.7,9.5-19.4,18.9-29.2,28.4c-0.2,0.2-0.4,0.3-0.7,0.5c-4.8-3.1-8.7-7.4-11.4-12.4l0,0l0,0
		c9.5-9.6,19.6-19.5,29.7-28.4c0.1,0.1,0.2,0.1,0.3,0.2c4.9,2.4,8.4,5.5,10.8,10.4L1114.6,515.3z"/>
	<path class="st3" d="M1073.4,531.7L1073.4,531.7L1073.4,531.7"/>
	<path class="st3" d="M1115,511L1115,511"/>
	<path class="st7" d="M1115,511c0.2,1.3,0,3-0.3,4.3l-0.5-1.5c-2.3-4.9-5.9-8-10.8-10.4c-0.1-0.1-0.2-0.1-0.3-0.2l0,0
		c0.9-0.7,2.4-0.9,3.5-0.9C1109.9,504.7,1112.7,507.7,1115,511L1115,511z"/>
</g>
<g>
	<path class="st7" d="M1095.2,522.1c-0.3,0.5-1,0.8-1.7,0.7c-0.6-0.1-1.2-0.4-1.7-0.8c-0.1-0.1-0.2-0.2-0.3-0.3
		c-2.4-1.8-4.3-4.3-6.1-6.8c-0.5-0.6-1-1.3-1.1-2.1c0-0.1,0-0.1,0-0.2c-0.1-0.7,0.2-1.6,0.9-1.8c0.4-0.2,0.9-0.1,1.4,0
		c0.8,0.3,2.4,0.9,2.9,1.5c0.7,1,1.5,1.9,2.4,2.8c0.1,0.1,0.1,0.1,0.2,0.2c1.2,1.2,2.5,3.1,3.1,4.6
		C1095.4,520.7,1095.6,521.5,1095.2,522.1z"/>
	<path class="st7" d="M1097,517.3c-0.1,0.7-0.6,1.3-1.3,1.2c-0.3,0-0.6-0.3-0.9-0.5c-1-0.8-2-1.7-2.9-2.6c-0.1-0.1-0.2-0.2-0.2-0.2
		c-0.9-0.9-1.7-1.8-2.4-2.8c-0.2-0.2-0.3-0.4-0.4-0.6c-0.4-0.5-0.7-1.1-0.8-1.7s0.1-1.3,0.7-1.6c0.5-0.3,1.1-0.1,1.7,0.1
		c0.2,0.1,0.3,0.1,0.4,0.2c0.6,0.2,1.1,0.5,1.6,0.8c0.6,0.3,1.1,0.8,1.5,1.3l1.3,1.5c1.2,1.5,1.3,1.7,1.5,2.5
		C1097.2,515.4,1097.1,516.6,1097,517.3z"/>
	<path class="st7" d="M1092,525.1c-0.3,0.6-1.1,0.5-1.7,0.2c-0.5-0.2-0.9-0.5-1.2-0.7c-0.9-0.7-1.7-1.5-2.4-2.4
		c-0.2-0.2-0.4-0.5-0.6-0.7c-0.1-0.1-0.1-0.1-0.2-0.2c-0.9-1-1.7-2-2.6-3.1c-0.8-1-1.7-2-2-3.2c-0.2-0.7-0.2-1.6,0.3-2.1
		c0.6-0.7,1.6-0.7,2.4-0.3c0.1,0,0.1,0.1,0.2,0.1c0,0.1,0,0.1,0,0.2c0.2,0.8,0.6,1.4,1.1,2.1c1.8,2.4,3.7,4.9,6.1,6.8
		c0.3,0.9,0.5,1.8,0.6,2.7C1092.1,524.6,1092.2,524.9,1092,525.1z"/>
	<path class="st7" d="M1089.1,524.5c-1.8-0.1-5,0-6.6-0.7c-0.7-0.3-1.3-0.7-1.8-1.3c-0.7-0.7-1.2-1.6-1.3-2.7c0-0.3,0-0.6,0.2-0.7
		c0.2-0.2,0.6-0.2,0.9-0.2c1.8,0.3,4,1.3,5.5,2.3c0.1,0.1,0.1,0.2,0.2,0.2c0.2,0.2,0.4,0.5,0.6,0.7
		C1087.4,523,1088.2,523.9,1089.1,524.5z"/>
</g>
<g>
	<path class="st3" d="M60.8,76.1c-0.1,0-0.1,0-0.2,0"/>
	<path class="st3" d="M61.3,74.4c0,0.6,0,1.1-0.1,1.7"/>
	<path class="st4" d="M69.4,73.8c-0.2,0-0.4,0-0.6,0c-0.3,0-0.7,0-1,0l0,0c0-0.2-0.1-0.4-0.1-0.6l0,0c0-0.3,0-0.6,0-0.9
		c0.2,0.1,0.3,0.3,0.5,0.4l0.5,0.5C69,73.4,69.2,73.6,69.4,73.8z"/>
	<path class="st4" d="M96.5,112.9c-0.6,0.9-1.3,1.7-2,2.5c-2.7,3.1-5.9,5.5-10.3,7.1c-4.7,1.6-10.2,2.3-15.2,3.1
		c-0.3,0.1-0.6,0.1-0.9,0.1l0,0c-0.3,0-0.5,0.1-0.8,0.1s-0.7,0-0.9,0c0,0,0,0-0.1,0c-0.2,0-0.3-0.1-0.5-0.1c-0.5-0.2-1-0.5-1.6-1.1
		c-0.7-0.7-1.3-1.9-2-2.8c-1.3-1.7-2.1-2.7-2.4-4.9c-0.8-5.5-1.2-11.3-0.8-17c-0.1,0-0.3,0-0.4,0c-0.4,0-0.7,0-1,0l0,0
		c-0.2,0-0.5,0-0.7,0c-0.1,0-0.3,0-0.5,0c-1.5-0.2-4.4-0.6-6.1-1.6c-0.5-0.3-0.9-0.6-1.2-1l0,0c0-0.3-0.1-0.5-0.1-0.7c0,0,0,0,0-0.1
		c0-0.6,0.1-1.4,0.4-2.2c0.6-1.9,1.5-4.2,1.9-5c0.6-1.4,1.7-2.7,3.1-4c3-2.9,7-5.7,7.9-9.2l0,0c2.2-0.4,4-1.4,5.6-2.8l0,0l0,0
		c0,0.2,0,0.4,0.1,0.6l0,0c0.3,0,0.7,0,1,0l0,0c0.5,0,1-0.1,1.6-0.1c1.3,0,2.6,0.2,3.7,0.6l0,0c0.6-0.4,1.7,0.3,2.2,0.5
		c1.5,0.7,2.9,1.4,4.1,2.6c1.5,1.3,2.8,2.9,4.5,3.9c0.8,0.5,1.8,1,2.5,1.6c0.5,0.4,0.6,0.5,0.5,1.1c0,0.5-0.1,1-0.2,1.6
		c0,0.3-0.1,0.5-0.1,0.8c-0.3,1.6-0.6,3.2-1.1,4.8c-0.2,0.7-0.5,1.5-0.8,2.2c-0.1,0.3-0.3,0.7-0.5,1c-0.1,0.1-0.2,0.2-0.3,0.3
		L85,94.9c-0.1,0-0.2,0-0.3,0c0-0.1-0.1-0.2-0.1-0.3c0.1,0.3-0.4,0.8-0.3,1.1l0,0c1.7,3.2,3.6,6.2,5.8,9.1c0.5,0.7,1.5,1.6,2.5,2.5
		l0,0l0,0c0.1,0.1,0.2,0.2,0.3,0.2c0.1,0.1,0.2,0.2,0.4,0.3c1.6,1.5,3.1,3.2,3.4,4.7l0,0l0,0C96.5,112.6,96.5,112.8,96.5,112.9z"/>
	<path class="st4" d="M68.9,73.8L68.9,73.8c-0.3,0-0.7,0-1,0.1l0,0c0-0.2-0.1-0.4-0.1-0.6l0,0c0.2-0.2,0.3-0.3,0.5-0.5l0.5,0.5l0,0
		C68.8,73.4,68.8,73.6,68.9,73.8z"/>
	<path class="st4" d="M96.6,112.9c-0.6,0.9-1.3,1.7-2,2.5c-2.7,3.1-5.9,5.5-10.3,7.1c-4.7,1.6-10.2,2.3-15.2,3.1
		c-0.4,0.1-0.7,0.1-1,0.1c0.3,0,0.6-0.1,0.9-0.1c4.9-0.8,10.5-1.5,15.2-3.1c4.4-1.6,7.6-4,10.3-7.1
		C95.2,114.7,95.9,113.8,96.6,112.9c-0.1-0.2-0.1-0.4-0.1-0.5l0,0l0,0c-0.3-1.5-1.9-3.1-3.4-4.7c-0.1-0.1-0.2-0.2-0.4-0.3
		c-0.1-0.1-0.2-0.2-0.3-0.2l0,0l0,0l0,0c0.1,0.1,0.2,0.2,0.3,0.3c0.1,0.1,0.2,0.2,0.4,0.3c1.6,1.5,3.1,3.2,3.4,4.6l0,0l0,0
		C96.6,112.6,96.6,112.8,96.6,112.9z"/>
	<path class="st3" d="M67.9,73.8c-0.1,0-0.3,0-0.4,0"/>
	<path class="st8" d="M115.8,81.5c0,0.2-0.1,0.4,0,0.5c0,0.2,0,0.4,0,0.5c0,0.4,0,0.7,0,1.1c-4.2,5.9-17,9.5-23.7,10.7
		c-2.8,0.5-4.3,0.8-7.2,0.4l0.1-0.1c0.1-0.1,0.2-0.2,0.3-0.3c0.3-0.3,0.4-0.6,0.5-1c0.3-0.7,0.6-1.5,0.8-2.2
		c0.5-1.6,0.8-3.2,1.1-4.8c2.2-0.2,4.1-0.7,6.5-1.3c4.6-1.1,9.4-2,13.9-3.6c2.2-0.8,4.3-2,6.5-2.8c0.3-0.1,0.6-0.2,1-0.3
		c0,0.1,0,0.2,0,0.2l0,0c0,0.1,0.1,0.2,0.1,0.3c0,0.1,0,0.2,0.1,0.3l0,0l0,0c0,0.1,0.1,0.2,0.1,0.3c0,0.3,0.1,0.6,0.1,0.9
		C115.9,80.8,115.8,81.1,115.8,81.5z"/>
	<path class="st3" d="M116.1,83.2c-0.1,0.2-0.2,0.3-0.3,0.4"/>
	<path class="st9" d="M67.2,47.4L67.2,47.4C67.1,47.4,67.1,47.4,67.2,47.4c-0.1-0.1-0.1-0.1-0.2-0.2c-0.4-0.3-0.9-0.6-1.3-0.8
		c0.2,0.8,0.2,1.7,0,2.5c-1,4.5-6.3,4.3-9.8,5.6c1.1,1.5,1.1,3.1,0.4,4.6c-0.3,0.6-0.6,1.1-1,1.6c-0.2,0.2-0.4,0.4-0.6,0.6
		c-0.7,0.5-1.3,0.7-2.2,1.1c3.1,2.8,6.6,3.8,7.9,8.1c0.5,1.8,0.9,3.7,0.6,5.5c0.1,0,0.3,0,0.4-0.1c-0.8,3.5-4.9,6.3-7.9,9.2
		c-1.3,1.3-2.5,2.6-3.1,4c-0.4,0.9-1.3,3.1-1.9,5c-0.8,0.6-1.7,1.2-2.7,1.6c-5.6,2.4-10.3-2.2-9.5-7.5c0.1-0.3,0.2-0.7,0.2-1.1
		c-0.1,0.4-0.2,0.7-0.2,1.1c-1.5,3.4-9.2,1.7-11.2-1c-6.1-8.7,4.7-15,12.4-17c-2.5,0.1-4.1-3.9-4.3-6.1c-0.4-5,6.5-14.9,11.8-10.6
		c-0.3-4.9,2.7-9.5,7.4-11.4c5.4-2.2,13.1-2.1,15.4,5.5C67.5,47.7,67.3,47.5,67.2,47.4z"/>
	<line class="st3" x1="67.7" y1="47.8" x2="67.7" y2="47.8"/>
	<path class="st3" d="M56.2,59.1c0.5-0.1,1.1,0.1,1.8,0.5"/>
	<path class="st3" d="M54.6,61.4c0,1.6,1.3,3.3,3.7,1.3"/>
	<path class="st8" d="M57.6,99.9C57.6,100,57.6,100,57.6,99.9c-0.8,5.8-4.2,11.9-5.3,17.5c-0.8,3.9-1.9,8.2-3.8,11.9
		c-3,5.8-9.1,8-13.2,12.6c-1,0.9-1.7,1.7-2.7,2.4c-1.3,1-2.6,2.1-4,2.9c-0.8,0.4-2.8,1.3-3.5,0.3c-0.7-1.1,1.3-2.3,2.5-3
		c-0.2,0-0.4,0-0.7,0c-2.4,1.7-6.8,4.6-8.2,3.4c-0.6-0.5,0-1.4,0.9-2.3c-1.7,0.6-3,0.8-3,0c0-0.7,0.9-1.4,2.1-2
		c-1.6-0.3-2.7-1-0.6-2.2c1.2-0.8,2.5-1.5,3.9-2.1c2.9-1.2,7.8-1.4,10-3.6c3.4-5,6.5-8,8.7-13.8c1.7-4.4,3.1-9,4.5-13.5
		c1.7-5.6,3.8-9.7,3.9-11.7c0,0.2,0.1,0.4,0.1,0.6l0,0c0.2,0.4,0.6,0.7,1.2,1c1.7,1,4.6,1.4,6.1,1.6c0.2,0,0.4,0,0.5,0
		C57.1,99.9,57.3,99.9,57.6,99.9L57.6,99.9z"/>
	<path class="st3" d="M49,96.6L49,96.6"/>
	<path class="st3" d="M35.3,141.9c-0.1,0.1-0.1,0.1-0.2,0.2"/>
	<path class="st3" d="M28.1,144.2c-0.1,0.1-0.3,0.2-0.5,0.4"/>
	<path class="st3" d="M25.1,143.1c-0.4,0.2-3.3,1.7-5.5,2.4"/>
	<path class="st3" d="M18.6,143.5c1.6-0.9,3.6-1.7,4.3-2.2"/>
	<path class="st3" d="M28.4,143.5c-0.2,0.2-0.8,0.5-1.4,1"/>
	<g>
		<path class="st10" d="M118.2,71.9L118.2,71.9L118.2,71.9L118.2,71.9L118.2,71.9L118.2,71.9c-0.1,0.2,0,0.2,0,0.2l0,0
			C118.2,72.1,118.2,72,118.2,71.9L118.2,71.9z M118.2,71.9L118.2,71.9L118.2,71.9L118.2,71.9L118.2,71.9L118.2,71.9
			c-0.1,0.2,0,0.2,0,0.2l0,0C118.2,72.1,118.2,72,118.2,71.9L118.2,71.9z M118,86.5c-1.3-1.3-1.4-3.5-1.2-5.2c0-0.1,0-0.3,0-0.4
			v-0.1l0,0l0,0l0,0l0,0c0,0,0,0-0.1,0v0.1c0,0.1,0,0.2,0,0.3c-0.1,0.5-0.1,1-0.1,1.6c0,0.1,0,0.2,0,0.4c0,0.1,0,0.2,0,0.3
			c0,0.1,0,0.2,0,0.2c0,0.1,0,0.2,0,0.3c0,0.1,0,0.2,0.1,0.3c0,0.2,0.1,0.5,0.2,0.7v0.1c0,0.1,0,0.1,0.1,0.2c0,0,0,0,0,0.1
			s0.1,0.2,0.1,0.2s0,0.1,0.1,0.1c0,0.1,0.1,0.2,0.2,0.3c0,0,0,0.1,0.1,0.1c0.1,0.1,0.2,0.2,0.3,0.4c0.1,0.1,0.2,0.2,0.3,0.3
			c0.1,0.1,0.2,0.1,0.2,0.2C118.3,86.7,118.2,86.6,118,86.5z M118.2,71.9L118.2,71.9L118.2,71.9L118.2,71.9L118.2,71.9L118.2,71.9
			c-0.1,0.2,0,0.2,0,0.2l0,0C118.2,72.1,118.2,72,118.2,71.9L118.2,71.9z M120.4,67.8c-0.1,0.1-0.2,0.1-0.3,0.2
			c-0.1,0.1-0.2,0.1-0.3,0.2l0,0l0,0h0.1c0.1-0.1,0.3-0.1,0.4-0.2c0.1,0,0.2-0.1,0.3-0.1h0.2l0,0c0,0,0,0,0.1,0l0,0l0,0
			c0,0,0,0,0.1,0C120.8,67.8,120.6,67.7,120.4,67.8z M118.2,71.9L118.2,71.9L118.2,71.9L118.2,71.9L118.2,71.9L118.2,71.9
			c-0.1,0.2,0,0.2,0,0.2l0,0C118.2,72.1,118.2,72,118.2,71.9L118.2,71.9z M118.2,71.9L118.2,71.9L118.2,71.9L118.2,71.9L118.2,71.9
			L118.2,71.9c-0.1,0.2,0,0.2,0,0.2l0,0C118.2,72.1,118.2,72,118.2,71.9L118.2,71.9z M118.2,71.9L118.2,71.9L118.2,71.9L118.2,71.9
			L118.2,71.9L118.2,71.9c-0.1,0.2,0,0.2,0,0.2l0,0C118.2,72.1,118.2,72,118.2,71.9L118.2,71.9z M118.2,71.9L118.2,71.9L118.2,71.9
			L118.2,71.9L118.2,71.9L118.2,71.9c-0.1,0.2,0,0.2,0,0.2l0,0C118.2,72.1,118.2,72,118.2,71.9L118.2,71.9z"/>
		<path class="st11" d="M127.7,90.5C127.7,90.6,127.6,90.6,127.7,90.5c-0.1,0.2-0.2,0.3-0.3,0.5c0,0.1,0,0.2,0,0.3c0,0,0,0,0,0.1
			c-0.8,0.1-1.6,0.2-2.5,0.4l0,0c0,0,0,0-0.1,0l0,0c0,0,0,0-0.1,0c-0.5,0.1-1,0.2-1.5,0.4c-0.3,0.1-0.7,0.2-1,0.3
			c-0.7,0.2-1.3,0.5-2,0.8c-0.2,0.1-0.4,0.2-0.6,0.3l0,0c-0.2-0.1-0.3-0.1-0.5-0.2c-0.3-0.1-0.6-0.2-0.8-0.3
			c-0.3-0.2-0.6-0.4-0.8-0.6c-0.1-0.2-0.2-0.4-0.3-0.5c-0.1-0.1-0.2-0.2-0.3-0.3c-0.1,0-0.2-0.1-0.2-0.2c-0.1-0.1-0.1-0.3-0.2-0.5
			l-0.1-0.3c0.2-0.1,0.4-0.2,0.6-0.2c0.2-0.1,0.5-0.2,0.7-0.3c0.3-0.1,0.5-0.2,0.8-0.2s0.6-0.2,0.8-0.2c0.2,0,0.5-0.1,0.7-0.1
			c0.4-0.1,0.8-0.1,1.2-0.1c0.3,0,0.5,0,0.8,0.1c0.1,0,0.2,0.1,0.3,0.1c0.1,0,0.2,0,0.4,0c0.3,0,0.7,0,1,0s0.6,0,0.9,0.1
			c0.2,0,0.3,0.1,0.5,0.1c0.1,0,0.2,0,0.3,0.1c0.1,0,0.2,0.1,0.3,0.1c0.1,0,0.2,0.1,0.2,0.1s0.1,0,0.2,0h0.1c0.1,0,0.2,0,0.3,0.1
			c0.2,0,0.3,0.1,0.5,0.2C127.3,90.3,127.5,90.4,127.7,90.5z"/>
		<path class="st11" d="M126.3,74.2c-0.1,0-0.2,0.1-0.3,0.1l0,0c0,0,0,0,0,0.1h0.1C126.1,74.4,126.2,74.3,126.3,74.2
			C126.3,74.3,126.3,74.3,126.3,74.2z M127.7,89.9c0-0.1,0-0.2,0-0.3c0-0.2-0.1-0.5-0.2-0.7c-0.1-0.3-0.1-0.6-0.1-1
			s-0.2-0.7-0.2-1.1c0-0.2,0-0.4,0-0.6c0-0.3-0.1-0.5-0.1-0.8s-0.1-0.6-0.1-0.8c0-0.2-0.1-0.4,0-0.6c0-0.1,0-0.2,0-0.4
			c0-0.2,0-0.3,0-0.5c-0.1-0.2-0.1-0.4-0.1-0.6s0-0.4,0-0.6s0-0.3,0-0.5c0-0.1,0-0.2,0-0.4c0-0.1,0-0.2,0-0.3c0-0.2,0-0.4,0-0.5
			c0-0.2,0-0.4,0-0.7c0-0.1,0-0.1-0.1-0.2c-0.2,0-0.3,0.1-0.5,0.1c0,0.3,0,0.5,0.1,0.8c0,0.4,0,0.8,0.1,1.2c0.1,2.2,0.2,4.9-1.8,6.2
			c-1.7,1.1-4,0.6-5.6-0.5c-0.4-0.2-0.7-0.5-1-0.8c-0.1-0.1-0.2-0.3-0.3-0.4c0,0,0-0.1-0.1-0.1c-0.1-0.1-0.1-0.2-0.2-0.3
			c0-0.1-0.1-0.1-0.1-0.1c-0.1-0.1-0.1-0.2-0.1-0.2s0,0,0-0.1s0-0.1-0.1-0.2v-0.1c-0.4-1.2-0.4-2.5-0.3-3.7c0-0.1,0-0.3,0-0.4
			c0,0,0.1,0,0.1-0.1l0,0l0,0v-0.1c0-0.3,0-0.6,0.1-0.9c0-0.6,0-1.1,0-1.7c0-0.1,0-0.2,0-0.3c0-0.1,0-0.2,0-0.3c0-0.1,0-0.1,0-0.2
			s0-0.2,0-0.3c0-0.1,0-0.2,0-0.4c0-0.3-0.1-0.6-0.1-0.9v-0.1c0-0.2,0-0.3,0-0.5c0-0.5,0-1,0.1-1.4l0,0c-0.1,0-0.1,0-0.2,0l0,0
			c-0.2,0-0.2-0.1-0.3-0.3c0-0.1,0-0.1,0-0.2l0,0c0-0.6,0.4-1.6,0.5-1.9c0.1-0.1,0.1-0.2,0.2-0.4c0.1-0.1,0.1-0.2,0.2-0.3
			c0.1-0.1,0.1-0.2,0.2-0.3c0.4-0.5,0.8-1,1.3-1.3c0.3-0.3,0.6-0.5,1-0.7l0.1-0.1c0.1-0.1,0.1-0.1,0.2-0.2l0,0l0,0
			c0.1-0.1,0.3-0.2,0.4-0.2c0.2-0.1,0.3-0.1,0.5,0l0,0c0.1,0,0.1,0,0.2,0h0.1c1.2,0,2,0.7,2.9,1.5l0.1,0.1c0.2,0.2,0.4,0.4,0.5,0.7
			l0,0c0.1,0,0.2,0,0.3,0c0.1,0,0.3,0,0.5,0s0.4,0.1,0.6,0.1c0-0.3-0.1-0.6-0.2-0.9s-0.1-0.6-0.2-0.9c0-0.2-0.1-0.7-0.3-0.8
			c-0.1,0-0.2,0-0.3-0.1v-0.2c0-0.2-0.1-0.3-0.1-0.4c-0.1,0-0.1-0.2-0.2-0.2c0-0.1-0.1-0.1-0.1-0.2c-0.1-0.1-0.1-0.1-0.2-0.2
			c0,0,0-0.1-0.1-0.1l-0.1-0.1c-0.1-0.1-0.2-0.1-0.3-0.2c-0.1-0.1-0.2-0.1-0.3-0.2c-0.1,0-0.2-0.1-0.2-0.1c-0.1,0-0.1-0.1-0.1-0.1
			c-0.1,0-0.1,0-0.2,0s-0.2-0.1-0.3-0.1c-0.1,0-0.2,0-0.3-0.1c-0.2-0.1-0.4,0-0.6,0c-0.5,0-1.1,0-1.6,0c-0.2,0-0.3,0-0.4,0
			c-0.2,0-0.3,0-0.4,0s-0.3,0-0.4,0.1c-0.1,0-0.2,0-0.2,0c-0.1,0-0.1,0-0.2,0.1c-0.1,0-0.2,0-0.3,0c-0.1,0-0.2,0-0.3,0.1
			c-0.1,0-0.2,0.1-0.3,0.1c-0.1,0-0.2,0-0.4,0.1c-0.2,0.1-0.4,0.2-0.6,0.3c-0.2,0.1-0.4,0.2-0.5,0.4c-0.1,0.2-0.2,0.4-0.3,0.4
			c0,0.1-0.1,0.2-0.1,0.3c0,0.1-0.1,0.2-0.1,0.3c0,0.2,0,0.2-0.1,0.4c-0.1,0.1-0.2,0.3-0.3,0.5v0.1v0.1c0,0.1-0.1,0.1-0.1,0.2
			c-0.1,0.2-0.1,0.3-0.1,0.5s0,0.5,0,0.8s0,0.6,0,0.9c0,0.2,0.1,0.4,0,0.6c0,0.1,0,0.2,0,0.3c0,0.1,0,0.3,0,0.4s0,0.2,0,0.3
			c0,0.1,0,0.2,0,0.3c0,0.2,0.1,0.5,0.1,0.7s0,0.3,0,0.5c0,0.1,0,0.2,0,0.4c0,0.1,0,0.1,0,0.1c0,0.1,0,0.2,0,0.2v0.1
			c0,0.1,0,0.2,0,0.3c0,0.1,0.1,0.2,0.1,0.3c0,0.1,0,0.3,0,0.4c0,0.2,0,0.3,0,0.5c0,0.1,0,0.2,0.1,0.4c0,0.3,0,0.6,0.1,0.8
			c0,0.2,0.1,0.4,0.1,0.6l0,0c0,0.1,0,0.2,0,0.2c0,0.1,0.1,0.2,0.1,0.3c0,0.2,0.1,0.4,0.1,0.7c0,0.3,0,0.6,0.1,0.9
			c0,0.2,0,0.4,0,0.6s0,0.3,0,0.5s0,0.4,0,0.5c0,0.2,0,0.4,0,0.5c0,0.4,0,0.7,0,1.1c0,0.3,0.1,0.6,0.1,0.9c0,0.1,0.1,0.2,0.1,0.3
			c0,0.1,0,0.2,0,0.3c0,0.1,0,0.3,0,0.5s0,0.5,0,0.7s0,0.4,0,0.7c0,0.4,0,0.7,0.1,1.1c0,0.3,0.1,0.5,0.2,0.8c0.1,0.2,0,0.3,0.1,0.5
			c0,0.2,0,0.3,0,0.5c0,0.1,0,0.3,0.1,0.4v0.1c0.2-0.1,0.3-0.2,0.5-0.3c0.2-0.1,0.5-0.2,0.7-0.3c0.3-0.1,0.6-0.2,0.8-0.2
			c0.3,0,0.5-0.2,0.8-0.2c0.2,0,0.5-0.1,0.7-0.1c0.4-0.1,0.8-0.1,1.2-0.1c0.3,0,0.5,0,0.8,0.1c0.1,0,0.2,0.1,0.3,0.1h0.4
			c0.3,0,0.7,0,1,0s0.6,0,0.9,0.1c0.2,0,0.3,0.1,0.5,0.1c0.1,0,0.2,0,0.3,0.1c0.1,0,0.2,0.1,0.3,0.1c0.1,0,0.2,0.1,0.3,0.1
			c0.1,0,0.1,0,0.2,0c0,0,0,0,0.1,0c0.1,0.1,0.2,0,0.3,0.1C127.4,89.7,127.5,89.8,127.7,89.9c0.2,0,0.4,0.1,0.5,0.2
			c0-0.1,0-0.2,0.1-0.3C127.7,90,127.7,90,127.7,89.9z M126.1,72.4L126.1,72.4C126.2,72.3,126.2,72.3,126.1,72.4L126.1,72.4z
			 M125.7,72.3c0,0.1,0,0.1,0,0.2c0.1,0,0.3-0.1,0.4-0.1C126,72.4,125.8,72.3,125.7,72.3z"/>
		<path class="st12" d="M130.1,75.4c-0.7,0.5-1.8,1-2.7,1.2c0.7-0.2,1.3-0.3,2-0.4c0.2,0,0.4,0,0.5,0.1c0.3,0.2,0.3,0.6,0.2,0.9
			c-0.2,0.3-0.4,0.9-0.6,1.2c-0.3,0.3-0.4,0.3-1.4,0.7l-0.8,0.2h-0.2c-0.1,0-0.2,0.1-0.4,0.1c-0.2,0-0.3,0.1-0.5,0.1l0,0h-0.1
			c-0.3,0-0.6,0-0.9-0.1c-0.1,0-0.2,0-0.2-0.1c-0.4,0-0.7-0.1-0.8-0.4c-0.2-0.3-0.1-0.7,0.1-1s0.6-0.4,0.8-0.6
			c0.1,0,0.2-0.1,0.3-0.1c-0.4,0.1-1.2-0.1-1.7-0.2c-0.2-0.1-0.4-0.2-0.6-0.4c-0.3-0.3-0.2-0.8,0.1-1.1v-0.1
			c0.3-0.4,0.7-0.5,1.1-0.7c0.5-0.2,1.1-0.4,1.6-0.6l0,0h0.1c0.1,0,0.1,0,0.2-0.1c0.9-0.3,1.8-0.6,2.7-0.6c0.1-0.1,0.1,0,0.2,0
			c0.3,0,0.7,0,1,0.1s0.6,0.4,0.6,0.7S130.4,75.2,130.1,75.4z"/>
		<path class="st13" d="M117.9,72.9c0.1-0.2,0.2-0.4,0.3-0.7c0.3,0.3,0.5,0.6,0.9,0.8c0,0,0,0,0.1,0c-0.5,0.4-1.3,0.7-1.8,0.5
			C117.5,73.3,117.8,73.1,117.9,72.9z"/>
		<path class="st13" d="M124.5,72.9L124.5,72.9c-0.1,0-0.2,0.1-0.3,0.1c-0.1,0.1-0.3,0.1-0.5,0.2c-0.2-0.1-0.3-0.2-0.5-0.4
			c0.2-0.1,0.3-0.2,0.4-0.3l0.1-0.1c0.1-0.1,0.1-0.2,0.2-0.2l0,0c0.1,0,0.1,0,0.2,0l0,0C124.3,72.4,124.4,72.7,124.5,72.9z"/>
		<path class="st14" d="M124,72.1L124,72.1c-0.1,0.1-0.1,0.2-0.2,0.3l-0.1,0.1c-0.1,0.1-0.3,0.2-0.5,0.2c-0.1,0.1-0.3,0.1-0.6,0.1
			c-0.5,0.1-1,0.1-1.5,0.1l0,0c-0.1,0-0.2,0-0.3,0c-0.6,0-1.2,0.2-1.7,0l0,0c-0.4-0.1-0.7-0.4-0.9-0.7l0,0l0,0c0,0,0-0.1,0-0.2l0,0
			c1.2-0.6,2.5-0.8,3.9-0.7c0.2,0,0.4,0,0.7,0.1c0,0.1-0.1,0.1,0,0.2c0,0.1,0.2,0.2,0.4,0.3C123.4,71.9,123.7,72,124,72.1z"/>
		<path class="st14" d="M123.4,70.6c-0.2,0.1-0.4,0.3-0.5,0.5c0,0,0,0.1-0.1,0.1c-0.3-0.1-0.7-0.1-1-0.1c-1.2-0.1-2.5,0-3.6,0.5l0,0
			c-0.1,0.1-0.2,0.1-0.3,0.2c0-0.2,0.1-0.4,0.1-0.6c0.2-0.8,0.6-1.5,1.1-2.2c0.1-0.2,0.3-0.4,0.5-0.6c0-0.1,0.1-0.1,0.2-0.2
			c0,0,0,0,0.1-0.1l0,0c0.1-0.1,0.1-0.1,0.2-0.2s0.2-0.1,0.3-0.2c0.2-0.1,0.4,0,0.7,0.1l0,0h0.1c0.1,0.1,0.2,0.1,0.3,0.2
			c0.1,0,0.1,0.1,0.2,0.2l0,0c0.2,0.1,0.3,0.3,0.4,0.4C122.5,69.4,123,69.9,123.4,70.6z"/>
		<path class="st13" d="M124.7,70.2c-0.1,0-0.3,0-0.4,0c-0.3,0.1-0.5,0.2-0.8,0.3c-0.4-0.6-0.8-1.1-1.3-1.6
			c-0.2-0.2-0.4-0.4-0.7-0.6l0,0c-0.1-0.1-0.2-0.1-0.2-0.2c-0.2-0.2-0.5-0.2-0.7-0.1c-0.5,0.2-1,0.8-1.3,1.2
			c-0.5,0.7-0.8,1.4-1.1,2.2c0,0.1,0,0.1,0,0.2l0,0l0,0c0,0.1,0,0.2-0.1,0.3l0,0c0,0-0.1,0-0.1,0.1l0,0l0,0
			c-0.1,0.1-0.2,0.1-0.3,0.1c-0.1,0.1-0.2,0.1-0.3,0.2c-0.2,0.1-0.3,0.2-0.5,0.4c-0.7,0.5-0.7,0.6-0.8,0.6c0-0.6,0.4-1.7,0.5-1.9
			c0.1-0.1,0.1-0.2,0.2-0.4c0.1-0.1,0.1-0.2,0.2-0.3c0.1-0.1,0.1-0.2,0.2-0.3c0.3-0.5,0.8-1,1.2-1.4c0.3-0.3,0.7-0.6,1.1-0.8h0.1
			c0,0,0,0,0.1,0l0,0c0,0,0.1,0,0.1-0.1l0,0c0.1,0,0.2-0.1,0.4-0.1c0.1,0,0.2-0.1,0.3-0.1c0.1,0,0.1,0,0.2,0l0,0c0,0,0,0,0.1,0h0.1
			c1.2-0.1,2.1,0.7,3,1.5c0.1,0,0.1,0.1,0.2,0.2C124.4,69.7,124.6,69.9,124.7,70.2z"/>
		<path class="st13" d="M125.7,72.5L125.7,72.5h-0.2l0,0c-0.3,0.1-0.6,0.2-0.9,0.3l0,0c-0.1-0.2-0.2-0.5-0.3-0.7l0,0
			c0.3,0.1,0.5,0.1,0.8,0.1l0,0c0.1,0,0.3,0,0.5,0c0.1,0,0.1,0,0.2,0C125.7,72.4,125.7,72.4,125.7,72.5z"/>
		<path class="st13" d="M117.8,72.1c0.1,0,0.2-0.1,0.3-0.1c0,0.1,0.1,0.1,0.1,0.2c-0.1,0.2-0.1,0.5-0.3,0.7
			c-0.2,0.2-0.4,0.5-0.6,0.6s-0.3,0.2-0.6,0.2c-0.1,0-0.1,0-0.2,0c-0.2,0-0.3-0.2-0.3-0.4l0,0C116.8,72.9,117.3,72.5,117.8,72.1z"/>
		<path class="st10" d="M116.3,73.2c-0.1,0-0.1,0.1-0.2,0.1"/>
		<path class="st10" d="M125.4,72.6c-0.1-0.1-0.2-0.2-0.4-0.3"/>
		<path class="st10" d="M125.7,72.7c-0.1,0-0.2-0.1-0.3-0.2"/>
		<path class="st15" d="M126.3,80.3L126.3,80.3L126.3,80.3c-0.4-0.1-0.7-0.2-1-0.3c-0.8-0.2-1.6-0.2-2.5-0.3c-0.4,0-0.8,0-1.1,0
			v-0.1l0,0c-0.1-1.2-0.3-2.4-0.3-3.6c0-0.6,0-1.2-0.1-1.8c0-0.1,0-0.1,0-0.2s0-0.1,0-0.2s0-0.2,0-0.4c0-0.1,0-0.4,0-0.6
			c0.5,0,1,0,1.4,0c0.2,0,0.4,0,0.5-0.1c0.2,0.2,0.3,0.3,0.5,0.4c-0.5,0.2-0.9,0.4-1.3,0.7c-0.3,0.3-0.5,0.7-0.5,1.1
			c0.1,0.4,0.6,0.7,1,0.8h0.1v-0.1c0.3-0.3,0.7-0.5,1.1-0.7c0.6-0.2,1.1-0.4,1.7-0.6c0,0,0,0,0,0.1c-0.6,0.2-1.1,0.4-1.6,0.6
			c-0.4,0.1-0.8,0.3-1.1,0.7v0.1c-0.3,0.3-0.4,0.7-0.1,1.1c0.2,0.2,0.4,0.3,0.6,0.4c0.4,0.1,1.2,0.2,1.7,0.2c-0.1,0-0.2,0.1-0.3,0.1
			c-0.3,0.1-0.6,0.3-0.8,0.6c-0.2,0.2-0.3,0.7-0.1,1c0.1,0.3,0.4,0.4,0.8,0.4c0.1,0,0.2,0,0.2,0.1c0.3,0.1,0.6,0.1,0.9,0.1h0.1
			C126.2,79.8,126.3,80,126.3,80.3z"/>
		<path class="st15" d="M117.3,73.5c0.6,0.1,1.4-0.1,1.8-0.5c0.6,0.2,1.2,0,1.7,0c0.1,0,0.2,0,0.4,0c0,0.2,0,0.5,0,0.6
			c0,0.3,0,0.5,0,0.8c0.1,0.6,0.1,1.2,0.1,1.8c0,1.2,0.2,2.4,0.3,3.6v0.1c-0.4,0-0.8,0.1-1.2,0.1c-0.8,0.1-1.5,0.4-2.2,0.5
			c-0.4,0.1-0.6,0.2-1,0.3c-0.1,0-0.2,0.1-0.3,0.1c0-0.1,0-0.1,0-0.2c0.1-1,0.1-2,0-3c-0.1-1.3-0.4-2.8-0.2-4.1
			C116.9,73.7,117.1,73.6,117.3,73.5z"/>
		<path class="st16" d="M117,80.7c0.1,0,0.1-0.1,0.2-0.1c0.3-0.1,0.6-0.3,1-0.3c0.8-0.1,1.5-0.3,2.2-0.5c0.4-0.1,0.8-0.1,1.2-0.1
			l0,0h0.1c0.3,0,0.7,0,1,0c0.8,0,1.6,0.1,2.5,0.3c0.3,0.1,0.7,0.2,1,0.3c0,0,0,0,0,0.1c0,0.4,0.1,0.8,0.1,1.1
			c0.1,2.2,0.2,4.9-1.8,6.3c-1.6,1.1-3.9,0.6-5.5-0.4c-0.4-0.2-0.7-0.5-1-0.8c-1.3-1.3-1.4-3.5-1.2-5.2c0-0.1,0-0.3,0-0.4
			C116.8,80.8,116.8,80.7,117,80.7z"/>
		<path class="st10" d="M121.7,81.1c0-0.3,0-0.8-0.1-1.1c0-0.1,0-0.2,0-0.2"/>
		<path class="st10" d="M121.2,72.9c0-0.1,0-0.2,0-0.2"/>
	</g>
	<g>
		<path class="st8" d="M130.1,72.2c0,0.2-0.1,0.2-0.2,0.4c-0.3,0.4-0.7,0.7-1.1,1.1c-0.9,0-1.7,0.3-2.6,0.6c-0.1,0-0.2,0.1-0.3,0.1
			l0,0l0,0c-0.6,0.2-1.1,0.4-1.7,0.6c-0.4,0.2-0.8,0.4-1.1,0.7v0.1c0,0.1-0.1,0-0.1,0c-0.4-0.1-0.9-0.4-1-0.8c0-0.4,0.2-0.8,0.5-1.1
			c0.4-0.3,0.8-0.5,1.3-0.7l0,0c0.2-0.1,0.3-0.1,0.5-0.2c0.1,0,0.2-0.1,0.3-0.1l0,0c0.3-0.1,0.6-0.2,0.9-0.3l0,0h0.1h0.1l0,0
			c0.1,0,0.3-0.1,0.4-0.1l0,0c0.1,0,0.1,0,0.2,0c0-0.1,0.1,0,0.1-0.1c0.1,0,0.3-0.1,0.4-0.1c0.3-0.1,0.6-0.3,0.9-0.3
			c0.1,0,0.2-0.1,0.3-0.1s0.3-0.1,0.4-0.1c0.2,0,0.5-0.1,0.8,0C129.8,71.7,130.2,71.9,130.1,72.2z"/>
		<path class="st17" d="M127.9,71.8c-0.3,0.1-0.6,0.2-0.9,0.3c-0.2,0-0.3,0.1-0.4,0.1c0,0.1-0.1,0-0.1,0.1c-0.1,0-0.1,0-0.2,0l0,0
			l0,0h0.1c0-0.1,0.1,0,0.2-0.1c0.2,0,0.3-0.1,0.5-0.1C127.2,72,127.5,71.9,127.9,71.8z"/>
		<path class="st3" d="M126,70.3c-0.2-0.1-0.4-0.1-0.6-0.1s-0.4,0-0.5,0s-0.2,0-0.3,0l0,0c-0.1,0-0.3,0-0.4,0
			c-0.3,0.1-0.5,0.2-0.8,0.3c0,0-0.1,0-0.1,0.1c-0.2,0.1-0.4,0.3-0.5,0.5c0,0,0,0.1-0.1,0.1c0,0,0,0.1-0.1,0.1c0,0.1,0,0.1,0,0.2
			s0.2,0.2,0.4,0.3c0.3,0.1,0.6,0.2,0.9,0.3c0,0,0.1,0,0.2,0l0,0c0.3,0.1,0.5,0.1,0.8,0.1l0,0c0.1,0,0.3,0,0.5,0c0.1,0,0.1,0,0.2,0
			l0,0c0.2,0,0.3,0,0.4,0l0,0h0.1c0-0.1,0.1,0,0.1-0.1c0.2,0,0.3-0.1,0.4-0.1c0.3-0.1,0.7-0.2,1-0.3c0.1,0,0.2-0.1,0.3-0.1
			c0.1,0,0.3-0.1,0.4-0.1C127.9,71.3,126.9,70.6,126,70.3z"/>
		<path class="st17" d="M127.9,71.8c-0.3,0.1-0.6,0.2-0.9,0.3c-0.2,0-0.3,0.1-0.4,0.1c0,0.1-0.1,0-0.1,0.1c-0.1,0-0.1,0-0.2,0l0,0
			l0,0h0.1c0-0.1,0.1,0,0.2-0.1c0.2,0,0.3-0.1,0.5-0.1C127.2,72,127.5,71.9,127.9,71.8z"/>
	</g>
	<path class="st18" d="M72.4,63.9c-0.6,1.7-1.4,2.9-2.9,3.8c-0.6,0.3-1.1,0.6-1.7,0.8v2c0,0.6,0,1.2,0,1.8c0,0-0.1,0-0.1-0.1
		c-1.7,2-3.9,3.3-6.5,3.8l0,0c-0.1,0-0.3,0-0.4,0.1c0.3-1.8-0.1-3.8-0.6-5.5c-1.3-4.3-4.8-5.3-7.9-8.1c0.9-0.4,1.6-0.6,2.2-1.1
		c0.2-0.2,0.4-0.3,0.6-0.6c0.4-0.5,0.8-1.1,1-1.6c0.7-1.5,0.7-3.1-0.4-4.6c3.5-1.3,8.8-1.1,9.8-5.6c0.2-0.8,0.2-1.7,0-2.5
		c0.4,0.2,0.9,0.5,1.3,0.8c0.1,0,0.1,0.1,0.2,0.1l0,0l0,0c0.4,0.7,0.9,1.4,1.5,2c0.3,0.4,0.6,0.9,0.8,1.3c0.2,0.4,0.4,0.7,0.5,1.1
		c0.1,0.1,0.1,0.3,0.2,0.4c0.1,0.3,0.3,0.7,0.4,1c-0.1,0.1-0.2,0.2-0.3,0.3c-0.8-1.1-2.5-0.9-3.7-0.9c-0.4,0-0.8,0.1-1.2,0.3
		c-0.4,0.1-0.9,0-1.3,0c-0.4,0-0.7-0.1-1-0.1c-0.4,0-0.7,0.3-0.9,0.7c-0.4,0.8-0.8,2.1-0.2,2.9c0.2,0.2,0.4,0.6,0.6,0.8
		c0.3,0.3,0.8,0.5,1.2,0.7c0.6,0.3,1.5,0.5,2.2,0.4s1.4-0.4,2.1-0.7c0.3-0.2,0.6-0.2,0.9-0.4s0.5-0.5,0.7-0.7c0.5-0.5,0.7-0.9,1-1.5
		c0-0.1,0.1-0.2,0.1-0.2c0.1-0.2,0.2-0.5,0.2-0.8c0,0,0,0.1,0.1,0.1l0,0c0.2,0.4,0.3,0.7,0.4,1.1c0,0.1,0.1,0.1,0.1,0.2
		c0,0.1,0.1,0.2,0.1,0.4c0.2,0.6,0.4,1.2,0.6,1.8c0.2,0.7,0.3,1.5,0.5,2.2c0.1,0.3,0.1,0.6,0.1,1C72.9,61.7,72.8,62.9,72.4,63.9z"/>
	<path class="st4" d="M70.9,53.5L70.9,53.5c0,0.1,0,0.2,0,0.2l0,0c0,0.1,0,0.1,0,0.2c-0.1,0.3-0.1,0.5-0.2,0.8
		c0,0.1-0.1,0.2-0.1,0.2c-0.2,0.6-0.5,1-1,1.5c-0.2,0.2-0.5,0.5-0.7,0.7c-0.3,0.2-0.6,0.3-0.9,0.4c-0.7,0.3-1.3,0.7-2.1,0.7
		c-0.7,0.1-1.6-0.2-2.2-0.4c-0.3-0.2-0.9-0.4-1.2-0.7c-0.2-0.2-0.4-0.5-0.6-0.8c-0.6-0.8-0.2-2.1,0.2-2.9c0.2-0.4,0.5-0.8,0.9-0.7
		c0.4,0,0.7,0.2,1,0.1c0.4,0,0.9,0.1,1.3,0s0.8-0.3,1.2-0.3c1.2,0,2.9-0.3,3.7,0.9c0.2-0.1,0.3-0.2,0.3-0.3c0.1-0.1,0.1-0.1,0.2-0.2
		C70.8,53.2,70.8,53.3,70.9,53.5z"/>
	<path class="st3" d="M70.9,54C70.9,54,70.9,53.9,70.9,54c-0.1-0.2-0.2-0.3-0.2-0.4c0,0,0,0,0.1-0.1c0.1,0.1,0.1,0.1,0.1,0.2l0,0
		C70.9,53.8,70.9,53.9,70.9,54z"/>
	<path class="st3" d="M70.6,55L70.6,55"/>
	<path class="st4" d="M72.9,53.3c0,0.3,0,0.5-0.2,0.7s-0.9,0.8-1.4,1c-0.1-0.4-0.3-0.7-0.4-1.1l0,0c0-0.1,0-0.2,0-0.3l0,0
		c0-0.1,0-0.1-0.1-0.2c0,0,0,0-0.1,0.1c-0.1-0.1-0.1-0.3-0.2-0.4c-0.1-0.3-0.3-0.6-0.4-1c0-0.1-0.1-0.3-0.2-0.4c0.5,0,0.9,0,1.4,0.1
		c0.3,0.1,0.6,0.2,0.9,0.3c0.2,0.1,0.4,0.1,0.6,0.3C73,52.7,72.9,53.1,72.9,53.3z"/>
	<path class="st3" d="M71.4,55.3c0.4,0.1,0.8,0.2,1.2,0.3c0.2,0.1,0.7,0.2,0.8,0.5c0.1,0.2,0,0.7-0.1,0.8c-0.2,0.4-0.8,0.5-1.2,0.5"
		/>
	<path class="st3" d="M70,63.1c-0.5,0-3-0.4-2.2-1.4c0.2-0.3,0.5-0.2,0.8-0.2s0.7-0.1,1-0.1c0.5,0,0.9-0.1,1.5-0.2
		c0.4-0.1,0.8-0.2,1.2-0.3c0.2,0,0.4-0.1,0.5-0.2"/>
	<path class="st3" d="M74.1,74.4L74.1,74.4"/>
	<path class="st3" d="M84.9,94.7c-0.2,0.3-0.4,0.5-0.7,0.7"/>
	<path class="st19" d="M166,142.3c0,0.1-0.1,0.1-0.1,0.2c-0.4,0.7-1.3,1.2-1.9,1.5l-0.1,0.1c-0.4,0.2-0.7,0.4-1.1,0.7
		c-0.1,0.1-0.2,0.2-0.4,0.2c-1.3,0.8-2.6,1.5-4.1,2c-2.2,0.8-4.7,1.3-7.1,1.7c-0.7,0.1-1.5,0.2-2.2,0.4h-0.1
		c-0.5,0.1-0.9,0.1-1.4,0.2c-2.3,0.4-4.7,0.7-7,0.2c-0.3-0.1-1-0.3-1.6-0.5c0.5-0.9-0.4-3.7-0.7-4.7c-0.6-2-1.3-4.2-2.1-6.2l0,0l0,0
		l0,0c1.1-0.3,2.1-0.7,3.1-1.3c2.5-1.5,4.1-4.7,3.3-7.6c-0.1-0.4-0.2-0.7-0.4-1c-0.1-0.1-0.1-0.2-0.2-0.3c-0.1-0.2-0.3-0.4-0.5-0.7
		c-0.1-0.1-0.2-0.2-0.3-0.3c-0.2-0.2-0.4-0.3-0.6-0.5c-0.2-0.1-0.3-0.2-0.5-0.3c-0.2-0.1-0.4-0.2-0.6-0.3c-0.1,0-0.1-0.1-0.2-0.1
		c-0.1-0.1-0.3-0.1-0.4-0.2c-0.1,0-0.3-0.1-0.4-0.1c-0.2-0.1-0.3-0.1-0.5-0.1c-0.1,0-0.1,0-0.2,0c-0.2,0-0.4-0.1-0.7-0.1
		c-0.2,0-0.3,0-0.5,0s-0.3,0-0.5,0c-0.3,0-0.6,0-0.9,0c-0.9,0.1-1.7,0.3-2.4,0.6c1.3-2.3,1.9-7-0.6-8.8c-0.3-0.2-0.8-0.4-1.3-0.4
		c-0.2,0-0.5,0-0.7,0c-0.1,0-0.2,0-0.3,0c-2.8,0.2-6.7,2.2-7.4,4.5c-0.4-1.5-2.3-3.4-3.1-4c-0.7-0.5-1.4-0.7-2-0.7
		c-0.2,0-0.4,0-0.7,0c-1.1,0.1-2.1,0.6-3.1,1.3c-2.5,1.9-2.4,6.1-0.5,8.5c-2.1,1.7-4,4-5.7,5.8c-1.9,2-3.4,4.2-5.2,6.1
		c0.1-3.3-0.9-6.8-3.3-8c-0.4-0.2-0.8-0.4-1.2-0.5c-0.1,0-0.3-0.1-0.4-0.1c-0.2,0-0.3-0.1-0.5-0.1s-0.5,0-0.7,0
		c-1.2,0.1-2.3,0.8-3.1,2c-0.8,1.2-1.5,2.6-1.9,4c-0.2,0.7-0.2,1.7-0.5,2.2c-0.3-3.5-4.5-6.5-8-6.8c-0.4,0-0.8,0-1.1,0h-0.1
		c-5.5,0.5-2,7.4-1.6,10.3c-0.3-0.1-0.6-0.2-0.9-0.3c-0.2-0.1-0.5-0.1-0.7-0.1c-0.1,0-0.2,0-0.3,0c-0.4,0-0.8,0-1.2,0
		c-0.2,0-0.4,0-0.6,0.1c-0.2,0-0.3,0.1-0.5,0.1s-0.3,0.1-0.4,0.1c-0.9,0.3-1.7,0.8-2.3,1.6c-0.1,0.2-0.3,0.4-0.4,0.6
		c-1.8-1-3.3-2.3-4.4-4c-2.6-4-3.4-8.9-2.4-13.5c0.2,0.1,0.3,0.1,0.5,0.1c0,0,0,0,0.1,0h0.1c0.3,0,0.6,0,0.9,0c0.2,0,0.5,0,0.8-0.1
		l0,0c0.3,0,0.6-0.1,1-0.1c4.9-0.8,10.5-1.5,15.2-3.1c4.4-1.6,7.6-4,10.3-7.1c0.7-0.8,1.3-1.6,2-2.5c0-0.2,0-0.4-0.1-0.6l0,0l0,0
		c0.3-0.2,0.6-0.4,0.9-0.6c2.4-1.8,4.8-3.6,7.2-5.5c1.3-1,2.7-1.7,4.1-2.3c0.1,1,0.7,2.1,1.7,2.7c0.5,0.3,1,0.5,1.5,0.5
		c0.2,0,0.3,0,0.5,0.1c0.3,0,0.7,0,1,0c1.4-0.1,2.7-0.7,3.8-1.5c-1.3,1.8-1.4,5.3,1.6,5.4h0.1c0.2,0,0.3,0,0.5,0
		c2.1-0.2,4.7-2.3,6.1-3.4c1.1-0.9,1.7-1.9,2.3-3.1c0.7,1.3,0.9,2.9,1.7,4.2c1.1,1.8,3.1,3.3,5.2,3.6c0.1,0,0.3,0.1,0.4,0.1
		c0.3,0,0.6,0,0.9,0c0.1,0,0.2,0,0.2,0h0.1c0.1,0,0.2,0,0.3,0c3.2-0.7,4-2.6,3.7-4.7c3.2,3.7,5.8,8.1,8.5,11.8
		c3.7,5.2,7.8,10.1,11.5,15.4c1.3,1.9,2.8,3.7,4.4,5.3c0.6,0.6,1.3,0.9,1.5,1.4C166.1,141.7,166.1,142,166,142.3z"/>
	<path class="st8" d="M79.7,141.1L79.7,141.1c-0.3-0.1-0.6-0.2-0.9-0.3C79.2,140.9,79.5,141,79.7,141.1z"/>
	<path class="st8" d="M90.5,137.6c0,0,0,0.1-0.1,0.1c-0.2-3.5-4.4-6.6-7.9-6.9C86,131.2,90.2,134.1,90.5,137.6z"/>
	<path class="st8" d="M96.6,112.9c-0.6,0.9-1.3,1.7-2,2.5c-2.7,3.1-5.9,5.5-10.3,7.1c-4.7,1.6-10.2,2.3-15.2,3.1
		c-0.4,0.1-0.7,0.1-1,0.1c0.3,0,0.6-0.1,0.9-0.1c4.9-0.8,10.5-1.5,15.2-3.1c4.4-1.6,7.6-4,10.3-7.1
		C95.2,114.7,95.9,113.8,96.6,112.9c-0.1-0.2-0.1-0.4-0.1-0.5l0,0l0,0c0,0,0,0,0.1,0l0,0l0,0C96.6,112.6,96.6,112.8,96.6,112.9z"/>
	<path class="st8" d="M101.9,138.1c0.2-3.3-0.9-6.8-3.3-8c-0.4-0.2-0.8-0.4-1.1-0.5c0.4,0.1,0.8,0.2,1.2,0.5
		C101.1,131.2,102.2,134.7,101.9,138.1C102,138,102,138,101.9,138.1z"/>
	<path class="st8" d="M117.2,105.6C117.2,105.7,117.2,105.7,117.2,105.6L117.2,105.6c-1.1,0.9-2.5,1.5-3.8,1.6
		C114.7,107.1,116.1,106.5,117.2,105.6z"/>
	<path class="st8" d="M122.4,120.9L122.4,120.9c-0.4-1.4-2.3-3.4-3.2-4c-0.6-0.4-1.3-0.7-2-0.7c0.7,0,1.4,0.3,2,0.7
		C120.1,117.4,122,119.4,122.4,120.9z"/>
	<path class="st8" d="M127.7,104.6c-0.6,1.2-1.2,2.2-2.3,3.1c-1.4,1.2-4.1,3.2-6.1,3.4c2.1-0.2,4.7-2.3,6.1-3.4
		C126.5,106.8,127.1,105.8,127.7,104.6C127.7,104.5,127.7,104.6,127.7,104.6z"/>
	<path class="st8" d="M132.7,125.6L132.7,125.6c1.3-2.2,1.9-7-0.6-8.8c-0.3-0.2-0.8-0.4-1.3-0.4c0.5,0,1,0.2,1.3,0.4
		C134.7,118.6,134.1,123.3,132.7,125.6z"/>
	<path class="st8" d="M136.5,112.4c-0.1,0-0.2,0-0.3,0C136.3,112.4,136.4,112.4,136.5,112.4c3.2-0.7,4-2.6,3.6-4.8
		c0,0,0,0.1,0.1,0.1C140.5,109.8,139.7,111.7,136.5,112.4z"/>
	<path class="st8" d="M137,125c0.6,0.1,1.2,0.2,1.8,0.4C138.2,125.2,137.6,125,137,125z"/>
	<path class="st8" d="M139.3,136.6c-1,0.6-2,1-3.1,1.3l0,0l0,0C137.2,137.6,138.3,137.2,139.3,136.6c2.4-1.5,4.1-4.7,3.2-7.6
		c-0.5-1.7-1.8-2.8-3.3-3.5c-0.1-0.1-0.3-0.1-0.4-0.2c0.2,0.1,0.4,0.2,0.6,0.2c0.2,0.1,0.4,0.2,0.6,0.3c0.2,0.1,0.3,0.2,0.5,0.3
		c0.2,0.1,0.4,0.3,0.6,0.5c0.1,0.1,0.2,0.2,0.3,0.3c0.2,0.2,0.4,0.4,0.5,0.7c0.1,0.1,0.1,0.2,0.2,0.3c0.2,0.3,0.3,0.6,0.4,1
		C143.4,131.9,141.8,135.1,139.3,136.6z"/>
	<path class="st8" d="M139.2,136.6c-0.9,0.6-2,1-3.1,1.2c-0.1-0.3-0.2-0.6-0.4-0.9c-2.3-4.8-5.5-10.5-10.6-12.8
		c-3.1-1.4-7.1-1.5-10,0.2c-0.7,0.4-1.5,1-2.2,1.6c-1.9-2.5-2-6.6,0.5-8.5c0.9-0.7,1.9-1.2,3-1.3c0.2,0,0.4,0,0.7,0
		c0.7,0.1,1.3,0.3,2,0.7c0.9,0.6,2.8,2.6,3.2,4.1v-0.1v0.1c-0.1,0.3-0.1,0.7-0.1,1.1c0.2-0.3,0.2-0.7,0.1-1.1
		c0.7-2.3,4.5-4.3,7.3-4.6c0.1,0,0.2,0,0.3,0c0.3,0,0.5,0,0.7,0c0.5,0.1,0.9,0.2,1.3,0.4c2.5,1.8,1.9,6.6,0.6,8.8c0,0,0,0,0.1,0l0,0
		c0.7-0.3,1.6-0.6,2.4-0.7c0.3,0,0.6,0,0.9,0c0.2,0,0.3,0,0.5,0c0.1,0,0.3,0,0.5,0c0.6,0.1,1.2,0.2,1.8,0.4c0.1,0.1,0.3,0.1,0.4,0.2
		c1.5,0.7,2.8,1.8,3.3,3.5C143.4,131.9,141.7,135.1,139.2,136.6z"/>
	<path class="st4" d="M122.4,120.9L122.4,120.9c-0.4-1.4-2.3-3.4-3.2-4c-0.6-0.4-1.3-0.7-2-0.7c0.7,0,1.4,0.3,2,0.7
		C120.1,117.4,122,119.4,122.4,120.9z"/>
	<path class="st4" d="M132.7,125.6L132.7,125.6c1.3-2.2,1.9-7-0.6-8.8c-0.3-0.2-0.8-0.4-1.3-0.4c0.5,0,1,0.2,1.3,0.4
		C134.7,118.6,134.1,123.3,132.7,125.6z"/>
	<path class="st4" d="M137,125c0.6,0.1,1.2,0.2,1.8,0.4C138.2,125.2,137.6,125,137,125z"/>
	<path class="st4" d="M139.3,136.6c-1,0.6-2,1-3.1,1.3l0,0l0,0C137.2,137.6,138.3,137.2,139.3,136.6c2.4-1.5,4.1-4.7,3.2-7.6
		c-0.5-1.7-1.8-2.8-3.3-3.5c-0.1-0.1-0.3-0.1-0.4-0.2c0.2,0.1,0.4,0.2,0.6,0.2c0.2,0.1,0.4,0.2,0.6,0.3c0.2,0.1,0.3,0.2,0.5,0.3
		c0.2,0.1,0.4,0.3,0.6,0.5c0.1,0.1,0.2,0.2,0.3,0.3c0.2,0.2,0.4,0.4,0.5,0.7c0.1,0.1,0.1,0.2,0.2,0.3c0.2,0.3,0.3,0.6,0.4,1
		C143.4,131.9,141.8,135.1,139.3,136.6z"/>
	<path class="st8" d="M102,138L102,138c-0.9,1.1-2,2-3.2,2.9c-1.6,1.1-3.2,2.5-4.9,3.4c-1.8,1-4,1.1-6,1.3
		c-4.7,0.6-10.8,0.2-15.3-2.3c0.1-0.2,0.2-0.4,0.4-0.6c0.5-0.8,1.3-1.3,2.2-1.6c0.1-0.1,0.3-0.1,0.4-0.1c0.2,0,0.3-0.1,0.5-0.1
		s0.4-0.1,0.6-0.1c0.4,0,0.8,0,1.2,0c0.1,0,0.2,0,0.3,0c0.2,0,0.5,0.1,0.7,0.1c0.3,0.1,0.6,0.2,0.9,0.3l0,0c0,0,0,0,0.1,0
		c-0.4-2.9-3.9-9.8,1.6-10.3c0.4,0,0.8,0,1.1,0c3.5,0.4,7.7,3.4,7.9,6.9c0,0,0-0.1,0.1-0.1v0.1c0.3-0.6,0.3-1.6,0.5-2.4
		c0.4-1.4,1.1-2.8,1.9-4s1.8-1.8,3-2c0.2,0,0.5,0,0.7,0s0.3,0,0.5,0.1c0.1,0,0.3,0.1,0.4,0.1c0.4,0.1,0.8,0.3,1.1,0.5
		C101,131.2,102.1,134.7,102,138L102,138z"/>
	<path class="st4" d="M79.7,141.1L79.7,141.1c-0.3-0.1-0.6-0.2-0.9-0.3C79.2,140.9,79.5,141,79.7,141.1z"/>
	<path class="st4" d="M90.5,137.6c0,0,0,0.1-0.1,0.1c-0.2-3.5-4.4-6.6-7.9-6.9C86,131.2,90.2,134.1,90.5,137.6z"/>
	<path class="st4" d="M101.9,138.1c0.2-3.3-0.9-6.8-3.3-8c-0.4-0.2-0.8-0.4-1.1-0.5c0.4,0.1,0.8,0.2,1.2,0.5
		C101.1,131.2,102.2,134.7,101.9,138.1C102,138,102,138,101.9,138.1z"/>
	<path class="st3" d="M96.5,112.4L96.5,112.4"/>
	<path class="st8" d="M136.5,112.4c-0.1,0-0.1,0-0.2,0h-0.1c-0.1,0-0.1,0-0.2,0c-0.3,0-0.6,0-0.9,0c-0.2,0-0.3,0-0.4-0.1
		c-2.1-0.3-4-1.8-5.1-3.6c-0.8-1.3-1-2.9-1.7-4.3c0,0,0,0,0,0.1c0,0,0,0,0-0.1c-0.6,1.3-1.2,2.2-2.3,3.2c-1.4,1.2-4,3.2-6.1,3.4
		c-0.2,0-0.4,0-0.5,0c-3-0.1-2.8-3.7-1.5-5.5l-0.1,0.1c0,0,0-0.1,0.1-0.1c-1.1,0.8-2.5,1.4-3.8,1.6c-0.3,0-0.7,0-1,0
		c-0.2,0-0.3,0-0.5-0.1c-0.5-0.1-1-0.3-1.5-0.5c-1-0.5-1.7-1.6-1.7-2.7c2.4-1,4.9-1.8,7.4-2.5c0.7-0.2,1.4-0.4,2.1-0.6
		c0.4-0.1,0.7-0.2,1.1-0.2c0.7-0.1,1.4-0.2,2.1-0.3c0.4,0,0.8-0.1,1.2-0.1c1.4-0.1,2.8-0.1,4.2,0c0.2,0,0.4,0,0.5,0.1
		c0.1,0,0.2,0,0.2,0c0.1,0,0.2,0,0.3,0c0.3,0.1,0.7,0.1,1,0.2c4.6,0.8,8.2,3.6,11.2,7.1l0,0C140.5,109.7,139.7,111.7,136.5,112.4z"
		/>
	<path class="st4" d="M117.2,105.6C117.2,105.7,117.2,105.7,117.2,105.6L117.2,105.6c-1.1,0.9-2.5,1.5-3.8,1.6
		C114.7,107.1,116.1,106.5,117.2,105.6z"/>
	<path class="st4" d="M127.7,104.6c-0.6,1.2-1.2,2.2-2.3,3.1c-1.4,1.2-4.1,3.2-6.1,3.4c2.1-0.2,4.7-2.3,6.1-3.4
		C126.5,106.8,127.1,105.8,127.7,104.6C127.7,104.5,127.7,104.6,127.7,104.6z"/>
	<path class="st4" d="M136.5,112.4c-0.1,0-0.2,0-0.3,0C136.3,112.4,136.4,112.4,136.5,112.4c3.2-0.7,4-2.6,3.6-4.8l0,0
		c-3-3.5-6.5-6.2-11.2-7.1c-0.3-0.1-0.7-0.1-1-0.2c0.4,0,0.7,0.1,1.1,0.2c4.6,0.8,8.2,3.6,11.2,7.1l0,0v0.1
		C140.5,109.8,139.7,111.7,136.5,112.4z"/>
	<path class="st8" d="M160.1,123.4C160,123.4,160,123.5,160.1,123.4C160,123.4,160,123.4,160.1,123.4c-0.4,0.2-0.7,0.3-1,0.4
		c-0.2,0-0.3,0.1-0.5,0.1s-0.5,0-0.7,0c-0.1,0-0.2,0-0.3,0c-0.6-0.1-1.2-0.3-1.9-0.7c-2.6-1.5-3.1-4.1-2.8-6.8c0,0,0,0.1-0.1,0.1
		v-0.1c-0.5,0.7-1.1,1.2-1.7,1.3c-0.1,0-0.2,0-0.2,0l0,0c-0.1,0-0.1,0-0.2,0c-0.5-0.1-1-0.4-1.5-1.1c-1.8-2.3-0.5-5.6,1.2-7.4
		c-2.1-0.9-7.8-1.9-6.9-5.3c0.3-1,1.2-1.7,2.4-2.1c4.7,4.7,8.4,10.4,11.7,16.1C158.6,119.7,159.1,121.7,160.1,123.4z"/>
	<path class="st4" d="M152.9,116.4L152.9,116.4c-0.5,0.8-1.1,1.3-1.7,1.3C151.8,117.6,152.3,117.1,152.9,116.4z"/>
	<path class="st4" d="M159.1,123.8c0.2-0.1,0.3-0.1,0.5-0.2C159.4,123.7,159.3,123.8,159.1,123.8z"/>
	<path class="st4" d="M159.8,123.6c-0.1,0-0.1,0-0.2,0.1c0.1-0.1,0.3-0.1,0.4-0.2l0,0C159.9,123.5,159.9,123.5,159.8,123.6z"/>
	<path class="st19" d="M176,135.6c-0.4,0.5-0.9,1-1.4,1.4c-0.1,0.1-0.2,0.1-0.2,0.2c-1.6,1.3-3.5,2.3-5.1,3.2
		c-0.5,0.3-1.1,0.5-1.7,0.8l0,0c-0.4,0.2-0.9,0.3-1.3,0.4c-0.1,0-0.1,0-0.2,0.1c-0.2-0.5-0.9-0.8-1.5-1.4c-1.6-1.6-3.1-3.4-4.4-5.3
		c-3.7-5.2-7.7-10.2-11.5-15.4c-2.7-3.7-5.3-8.2-8.5-11.8v-0.1l0,0c-3-3.5-6.5-6.2-11.2-7.1c-0.3-0.1-0.7-0.1-1.1-0.2
		c-0.1,0-0.2,0-0.3,0c-0.1,0-0.2,0-0.2,0c-0.2,0-0.4-0.1-0.5-0.1c-1.4-0.1-2.8-0.1-4.2,0c-0.4,0-0.8,0.1-1.2,0.1
		c-0.7,0.1-1.4,0.2-2.1,0.3c-0.4,0.1-0.7,0.1-1.1,0.2c-0.7,0.2-1.5,0.4-2.2,0.6c-2.6,0.8-5.1,1.5-7.4,2.5c-1.4,0.6-2.8,1.4-4.1,2.3
		c-2.4,1.8-4.8,3.7-7.2,5.5c-0.3,0.2-0.6,0.4-0.9,0.6c-0.3-1.5-1.9-3.1-3.4-4.6c-0.1-0.1-0.2-0.2-0.4-0.3c-0.1-0.1-0.2-0.2-0.3-0.3
		l0,0c4.4-2.5,9-4.8,13.6-7c1.6-0.8,3.2-1.7,4.9-2.5c0.1,0.1,0.3,0.2,0.5,0.3c0.6,0.4,1.1,0.7,1.7,0.9c0.1,0.1,0.2,0.1,0.4,0.1
		c0.2,0.1,0.4,0.1,0.6,0.2s0.5,0.1,0.8,0.1s0.7,0,1.1,0c0.2,0,0.5-0.1,0.7-0.1c1.6-0.3,5.4-1.4,5.4-3.4c1,0.2,1.8,1,2.8,1.4
		c0.5,0.2,1,0.3,1.5,0.4c0.1,0,0.1,0,0.2,0c0.2,0,0.4,0.1,0.6,0.1c0.6,0,1.1,0,1.7,0c0.4,0,0.8-0.1,1.2-0.2c2-0.5,4.4-1.6,4.9-3.8
		c0.9,0.4,1.8,0.9,2.6,1.4c3.1,1.9,5.9,4.2,8.4,6.8c-1.2,0.4-2.1,1.1-2.4,2.1c-0.9,3.4,4.7,4.5,6.9,5.3c-1.7,1.9-3,5.1-1.2,7.4
		c0.5,0.7,1.1,1.1,1.6,1.1c0.1,0,0.2,0,0.2,0l0,0c0.1,0,0.2,0,0.2,0c0.6-0.1,1.2-0.6,1.7-1.2c-0.3,2.7,0.2,5.2,2.8,6.8
		c0.7,0.4,1.3,0.6,1.9,0.7c0.1,0,0.2,0,0.3,0c0.2,0,0.5,0,0.7,0c0.4-0.1,0.8-0.2,1.2-0.4c0.1,0,0.2-0.1,0.2-0.1
		c0.2,0.3,0.4,0.6,0.6,0.9c1.5,2.1,3.1,3.9,5.1,5.5C168.9,132.6,172,134.6,176,135.6z"/>
	<path class="st8" d="M96.5,112.3C96.5,112.3,96.5,112.4,96.5,112.3c-0.3-1.5-1.9-3.1-3.5-4.6c-0.1-0.1-0.2-0.2-0.4-0.3
		c-0.1-0.1-0.2-0.2-0.3-0.2l0,0l0,0l0,0c0.1,0.1,0.2,0.2,0.3,0.3c0.1,0.1,0.2,0.2,0.4,0.3C94.6,109.2,96.2,110.9,96.5,112.3z"/>
	<path class="st8" d="M122,95.7c0,2.1-3.8,3.2-5.4,3.4c-0.2,0-0.5,0.1-0.7,0.1c0.2,0,0.4-0.1,0.6-0.1
		C118.1,98.9,121.9,97.8,122,95.7C121.9,95.7,122,95.7,122,95.7z"/>
	<path class="st8" d="M134.8,93.6c-0.5,2.2-2.9,3.3-4.9,3.8c-0.4,0.1-0.8,0.2-1.2,0.2c0.4,0,0.8-0.1,1.2-0.2
		C131.9,96.9,134.3,95.7,134.8,93.6L134.8,93.6z"/>
	<path class="st8" d="M140.2,107.6L140.2,107.6C140.1,107.5,140.1,107.5,140.2,107.6c-3.1-3.6-6.6-6.3-11.3-7.2
		c-0.3-0.1-0.7-0.1-1-0.2c0.4,0,0.7,0.1,1.1,0.2C133.6,101.3,137.2,104.1,140.2,107.6C140.2,107.5,140.2,107.5,140.2,107.6
		L140.2,107.6z"/>
	<path class="st8" d="M152.9,116.4L152.9,116.4c-0.5,0.8-1.1,1.3-1.7,1.3C151.8,117.6,152.3,117.1,152.9,116.4z"/>
	<path class="st8" d="M159.8,123.6c-0.1,0-0.1,0-0.2,0.1c0.1-0.1,0.3-0.1,0.4-0.2l0,0C159.9,123.5,159.9,123.5,159.8,123.6z"/>
	<path class="st8" d="M159.1,123.8c0.2-0.1,0.3-0.1,0.5-0.2C159.4,123.7,159.3,123.8,159.1,123.8z"/>
	<path class="st3" d="M92.4,107.1L92.4,107.1"/>
	<path class="st8" d="M134.8,93.5C134.8,93.6,134.8,93.6,134.8,93.5C134.8,93.6,134.8,93.6,134.8,93.5c-0.5,2.2-2.9,3.3-4.9,3.8
		c-0.4,0.1-0.8,0.2-1.2,0.2c-0.6,0.1-1.1,0.1-1.7,0c-0.2,0-0.4,0-0.6-0.1c0,0-0.1,0-0.2,0c-0.5-0.1-1-0.2-1.4-0.4
		c-1-0.4-1.9-1.2-2.9-1.4l0,0c0,0,0,0-0.1,0c0,2.1-3.8,3.2-5.4,3.5c-0.2,0-0.4,0.1-0.6,0.1c-0.4,0-0.7,0-1.1,0
		c-0.3,0-0.5-0.1-0.8-0.1c-0.2-0.1-0.4-0.1-0.6-0.2c-0.1,0-0.2-0.1-0.4-0.1c-0.6-0.2-1.1-0.5-1.7-0.9c-0.2-0.1-0.3-0.2-0.5-0.3
		c2.8-1.5,5.7-2.9,8.6-4.1l0,0c0.2-0.1,0.4-0.2,0.6-0.3c0.7-0.3,1.3-0.5,2-0.8c0.4-0.1,0.7-0.2,1-0.3c0.5-0.1,1-0.3,1.5-0.4
		c0,0,0,0,0.1,0l0,0c0,0,0,0,0.1,0l0,0C128.3,91.2,131.6,92,134.8,93.5z"/>
	<path class="st4" d="M121.9,95.7C121.9,95.7,122,95.7,121.9,95.7c0.1,2.1-3.8,3.2-5.4,3.5c-0.2,0-0.5,0.1-0.7,0.1
		c0.2,0,0.4-0.1,0.6-0.1C118.1,98.9,121.9,97.8,121.9,95.7z"/>
	<path class="st4" d="M134.8,93.6c-0.5,2.2-2.9,3.3-4.9,3.8c-0.4,0.1-0.8,0.2-1.2,0.2c0.4,0,0.8-0.1,1.2-0.2
		C131.9,96.9,134.3,95.7,134.8,93.6L134.8,93.6z"/>
	<path class="st3" d="M120.2,93.2c0.6-0.3,1.2-0.5,1.8-0.7c0.9-0.4,1.8-0.6,2.8-0.8"/>
	<path class="st3" d="M122.4,122c-0.1-0.4,0-0.7,0.1-1.1C122.5,121.4,122.5,121.7,122.4,122z"/>
	<path class="st8" d="M162.6,148.7c0.6,0.6,1.4,2.2,0.1,2.5c-0.7,0.2-2.4-1.6-2.7-1.9c0.4,0.7,0.8,1.5,1,2.2
		c-1.3,1.1-2.8-0.6-3.7-1.4c0.7,1.3-0.6,1.8-1.7,1.7c-1.2-0.1-3.1-1.8-4.3-3.2c2.4-0.4,4.9-0.9,7.1-1.7c1.5-0.5,2.8-1.2,4.1-2
		c0.1-0.1,0.2-0.1,0.4-0.2c1.4,0.9,2.8,1.9,3.1,3.4C166.4,150.7,163.8,149.9,162.6,148.7z"/>
	<path class="st8" d="M172.4,140c0.2,0.6,0.6,1.2,0.7,1.9c-1.2,0.2-2-0.6-3-1.1c0.6,0.5,1,1.4,0.3,1.9c-0.6,0.4-1.5-0.4-2.1-0.5
		c1,1.2,0.3,2.2-0.9,1.1c-0.4-0.3-0.8-1.1-1.2-1.8c0.4-0.1,0.9-0.2,1.3-0.4l0,0c0.6-0.2,1.1-0.5,1.7-0.8c1.6-0.8,3.6-1.9,5.1-3.2
		C176,138.5,175.8,141.6,172.4,140z"/>
	<path class="st3" d="M59.1,60.4C59.1,60.3,59.1,60.3,59.1,60.4c-0.2-0.1-0.3-0.2-0.6-0.2c-0.2,0-0.5,0-0.7,0
		c-0.7,0.1-1,0.7-1.1,1.3c-0.1,0.4-0.2,0.8-0.2,1.2c0,0.3,0.2,0.8,0.4,1c0.3,0.3,0.8,0.5,1.2,0.5c0.5,0,0.7-0.5,1.2-0.6"/>
</g>
</svg>
