<?xml version="1.0" encoding="utf-8"?>
<!-- Generator: Adobe Illustrator 23.0.3, SVG Export Plug-In . SVG Version: 6.00 Build 0)  -->
<svg version="1.1" id="Calque_1" xmlns="http://www.w3.org/2000/svg" xmlns:xlink="http://www.w3.org/1999/xlink" x="0px" y="0px"
	 viewBox="0 0 200 200" style="enable-background:new 0 0 200 200;" xml:space="preserve">
<style type="text/css">
	.st0{fill:none;stroke:#000000;stroke-width:1.0883;stroke-linecap:round;stroke-linejoin:round;stroke-miterlimit:10;}
	.st1{stroke:#000000;stroke-width:1.0883;stroke-linecap:round;stroke-linejoin:round;stroke-miterlimit:10;}
	.st2{fill:#FFE6B4;stroke:#000000;stroke-linecap:round;stroke-linejoin:round;stroke-miterlimit:10;}
	.st3{fill:none;stroke:#000000;stroke-linecap:round;stroke-linejoin:round;stroke-miterlimit:10;}
	.st4{stroke:#000000;stroke-linecap:round;stroke-linejoin:round;stroke-miterlimit:10;}
	.st5{fill:#FFC1C2;stroke:#000000;stroke-linecap:round;stroke-linejoin:round;stroke-miterlimit:10;}
	.st6{fill:none;stroke:#000000;stroke-width:1.1166;stroke-linecap:round;stroke-linejoin:round;stroke-miterlimit:10;}
	.st7{fill:#F6F6F6;stroke:#000000;stroke-linecap:round;stroke-linejoin:round;stroke-miterlimit:10;}
	.st8{fill:none;stroke:#000000;stroke-miterlimit:10;}
	.st9{fill:#BDCCD4;stroke:#000000;stroke-miterlimit:10;}
	.st10{fill:#FF868B;stroke:#000000;stroke-miterlimit:10;}
	.st11{fill:#FFC1C2;stroke:#000000;stroke-miterlimit:10;}
	.st12{fill:#83C2E1;stroke:#000000;stroke-miterlimit:10;}
	.st13{fill:#FFE4B2;stroke:#000000;stroke-miterlimit:10;}
	.st14{fill:#4A97F4;stroke:#000000;stroke-miterlimit:10;}
	.st15{fill:#EFEFEF;stroke:#000000;stroke-linecap:round;stroke-linejoin:round;stroke-miterlimit:10;}
	.st16{fill:#FFFFFF;stroke:#000000;stroke-linecap:round;stroke-linejoin:round;stroke-miterlimit:10;}
	.st17{fill:#F0F0F0;stroke:#000000;stroke-linecap:round;stroke-linejoin:round;stroke-miterlimit:10;}
	.st18{fill:#FF8489;stroke:#000000;stroke-linecap:round;stroke-linejoin:round;stroke-miterlimit:10;}
	.st19{fill:#FC6570;stroke:#000000;stroke-miterlimit:10;}
	.st20{fill:#83C2E1;stroke:#000000;stroke-linecap:round;stroke-linejoin:round;stroke-miterlimit:10;}
	.st21{fill:#1D1D1B;stroke:#000000;stroke-linecap:round;stroke-linejoin:round;stroke-miterlimit:10;}
	.st22{fill:#6ECC66;stroke:#000000;stroke-miterlimit:10;}
</style>
<path class="st0" d="M1256.6,684.6c-1.7-0.9-2.4-1.3-3.4-2.9"/>
<path class="st1" d="M1252.7,670.7c-6.2,5.4-11.3,11.9-15.1,19.3c-2.3-0.9-4.6-1.7-6.8-2.7c4.6-7.6,11.1-14.1,18-19.8
	C1250.1,668.6,1251.4,669.6,1252.7,670.7z"/>
<path class="st0" d="M1241.8,691.6L1241.8,691.6L1241.8,691.6L1241.8,691.6c-1.4-0.6-2.8-1.1-4.2-1.6"/>
<path class="st0" d="M1253.5,686.9c-1.5-0.9-2.1-1.3-3.3-2.6"/>
<path class="st0" d="M1241.9,691.7L1241.9,691.7c0.1,0,0.1,0.1,0.2,0.1c0.1,0.1,0.2,0.1,0.3,0.2c0.9,0.7,1.7,1.5,2.7,2
	c0.8,0.5,1.9,0.8,2.8,0.5"/>
<path class="st0" d="M1248.8,689.2c-0.5-0.6-1-1.2-1.6-1.7"/>
<path class="st1" d="M1265.1,684.4c-0.3,1.1-1,2-1.7,2.9c-3.6,4.5-9,8.2-14.7,7.4c-0.3,0-0.7-0.1-1-0.2c0.3-0.1,0.6-0.2,0.9-0.4
	c1.1-0.8,1.3-2.3,0.9-3.5c-0.2-0.5-0.5-1-0.8-1.4c0.9,0.5,1.8,0.7,2.8,0.6c0.4,0,0.9-0.2,1.2-0.4c0.7-0.5,0.9-1.4,0.7-2.3V687
	c0.1,0.1,0.2,0.1,0.2,0.2c0.4,0.2,0.8,0.5,1.3,0.5c1.3,0,2-1.5,1.7-2.7c0-0.1,0-0.1-0.1-0.2c0.4,0.2,0.8,0.4,1.2,0.6
	c0.7,0.3,1.4,0.5,2.1,0.3c1.8-0.4,2.1-2.9,1.5-4.6c-1.1-3.3-3.7-5.8-6.3-8.2c-0.7-0.7-1.5-1.4-2.3-2c-1.3-1.1-2.6-2.2-3.9-3.3
	c-1.9-1.7-3.9-3.4-5.5-5.2c2.4,1.1,4.8,2.4,7,3.9c1.4,0.9,2.8,1.9,4.2,3c2.8,2.2,5.3,4.6,7.6,7.3
	C1264.1,678.7,1265.9,681.6,1265.1,684.4z"/>
<path class="st0" d="M1241.7,691.6C1241.8,691.6,1241.8,691.6,1241.7,691.6C1241.8,691.6,1241.8,691.6,1241.7,691.6
	C1241.8,691.6,1241.8,691.6,1241.7,691.6c0.1,0.1,0.2,0.1,0.2,0.1l0.1,0.1c0.1,0.1,0.2,0.1,0.3,0.2c1.7,1.2,3.5,2.1,5.5,2.6"/>
<path class="st2" d="M1201.1,642.4c-0.2,2.3-0.4,4.3-0.7,5.9c-3.5,0-9.2,0-12.7-0.2c-11-0.5-22.8-0.9-33.8-1.1
	c0.9-4.6,2.3-11.2,2.5-14.1c1.4-14,0.6-28.2-2.3-42c-0.2-1-0.4-2-0.7-2.9c7.4-5.1,7.3-6.8,17.3-12.4c2.9-1.6,4.2-2.6,5.6-3.7
	c0.5,1,1,2.1,1.5,3.2c3.6,7.5,8.1,17.6,9.6,25.3c0.1,0.6,0.2,1.1,0.3,1.6c-4,1.7-10.7,7.6-14.4,9.8c-4.2,2.5-1.7,1.7-5.3,3.2
	c8.3,2.3,19.8-0.7,30.6-0.9c0.3,0.8,0.6,1.9,0.9,3.2c0.7,3.1,1.2,7,1.5,9.3C1201.5,630.2,1201.5,636.9,1201.1,642.4z"/>
<path class="st3" d="M1177.8,575.1c3.9-2.9,8.1-5.5,12.7-7.1c6.3-2.2,13.5-2.5,19.5,0.5c6.3,3.2,10.4,9.6,13.2,16.2
	c4.5,10.7,6.2,22.2,7.8,33.7"/>
<path class="st3" d="M1268.9,604.9L1268.9,604.9c0.1,0.3,0.1,0.1,0.1-0.2"/>
<path class="st3" d="M1268.9,604.8L1268.9,604.8c0,0.7,0,1.6,0,3.1"/>
<path class="st3" d="M1244.7,664L1244.7,664c-0.2-0.2-0.5-0.5-0.7-0.8c-2.5-3-4.1-7.4-5.6-11c-1-2.5-1.8-5.1-2.6-7.7
	c-1.7-6-2.8-12.1-3.7-18.2c-0.4-2.6-0.8-5.2-1.1-7.9"/>
<path class="st3" d="M1233.1,687c-3.2-1.4-6.2-3.1-8.6-5.7c-6.6-7-6.6-17.6-7.3-27.2c-0.3-3.8-0.7-7.6-1.3-11.3
	c-1.4-8.7-3.6-17.3-6.7-25.5"/>
<path class="st3" d="M1187.5,600.3c4.2-1.3,9-1.3,12.6,1.2c3.3,2.2,5.2,5.9,6.7,9.6c0.9,2,1.7,4.1,2.5,6.2c-2-0.1-4-0.1-6-0.1
	c-1.2,0-2.5,0-3.7,0c-0.3,0-0.6,0-0.8,0"/>
<path class="st4" d="M1281.1,623L1281.1,623c-0.1,3-0.3,6-0.8,9c-4.6-5.8-10.8-10.3-17.6-13c0.9-1.5,1.2-3.5,1-5.4
	C1269.8,616,1275.7,619.2,1281.1,623z"/>
<path class="st3" d="M1261.9,601.9c-0.1,0.3-0.1,0.7-0.2,1c0,0.1,0,0.1,0,0.2c-0.2,3.4,1.3,6.5,1.9,9.8c0,0.2,0.1,0.5,0.1,0.7"/>
<path class="st3" d="M1231,618.4c8.4,0.7,16.8,1.6,25.1,2.9c1.2,0.2,2.5,0.4,3.8,0s2.2-1.2,2.8-2.3"/>
<path class="st3" d="M1273.9,607.2c0,0,0,0.1,0,0.2c0.2,2.3,0.3,2.1,0,4.4"/>
<path class="st3" d="M1278.3,614.5c-0.1-1.3,0-0.5,0.1-1.7c0-0.1,0-0.2,0-0.3"/>
<path class="st3" d="M1235.8,644.5c7.7,0.1,15.4,0.3,23.2,0.5c3.5,0.1,7,0.1,10.4-0.5"/>
<path class="st4" d="M1282.9,632.8c0,0.8-0.1,1.7-0.2,2.5c-0.2,1.6-0.6,3.2-1.3,4.7c-1.4,2.7-4.2,4.7-7.3,5.1
	c-1.6,0.2-3.2,0-4.7-0.6c1.5-0.3,3-0.7,4.5-1.3c1.6-0.7,3.2-1.6,4.2-3.1c0.8-1.2,1.2-2.6,1.5-4s0.6-2.8,0.8-4.1c0.5-3,0.7-6,0.8-9
	l0,0c0.1-2.4,0-4.9-0.2-7.4c-0.1-1-0.2-2.2-1-2.9c-0.4-0.3-1-0.5-1.5-0.4c0.1-1.2,0-2.4-0.4-3.4c-0.5-1.2-1.6-2.1-2.9-2.2
	c-0.4,0-0.8,0.1-1.2,0.4c-0.1-1.5-0.6-3.1-2-3.6c-1-0.3-2.2,0.2-2.9,1.1c0-0.5-0.1-1-0.1,0.2l0,0c-0.1-0.7-0.3-1.3-0.5-2
	c-0.8-2.2-3.6-4.1-5.4-2.7c-0.5,0.4-0.8,1-1,1.6c0-1.3-0.7-2.8-0.1-4c0.8-1.6,3-1.6,4.7-1.2c3.8,0.9,7.5,2.8,9.9,5.9
	c1.5,2,2.5,4.4,3.2,6.8c1.6,4.8,2.6,9.8,3,14.9C1282.9,627,1283,629.9,1282.9,632.8z"/>
<path class="st3" d="M1269,604.7L1269,604.7L1269,604.7C1268.9,603.7,1269,604.2,1269,604.7z"/>
<path class="st3" d="M1261.9,601.9c0,0.4,0,0.7-0.2,1c0,0.1-0.1,0.2-0.1,0.2"/>
<path class="st2" d="M1053.4,557c0,0.3-0.2,0.7-0.6,0.9c-2.5,1.2-4.8,2.8-7,4.6c-0.4,0.3-0.5,0.9-0.2,1.3c1.7,2.5,1.7,5.8,1.1,9
	c-0.2,0.9-1.3,1.1-1.8,0.4c-0.2-0.3-0.5-0.6-0.8-0.9c-0.9-0.8-1.9-1.4-3-1.9c-0.6-0.3-1.3,0.1-1.4,0.8l-1.2,8.2
	c-0.1,0.7-0.2,1.4-0.2,2c-0.1,1-1.4,1.2-1.8,0.4c-0.6-1-1.2-2-1.8-2.9c-0.2-0.3-0.4-0.6-0.7-1c3.7-6.3,8.9-15.1,12.5-21.3
	c1.9-3.3,3.8-6.6,5.4-10c0.5-1,1-2,1.4-3.1c0.4-0.3,0.9-0.7,1.2-1c0.6-0.5,1.5-0.2,1.6,0.5c0.8,4.2-1,8.7-4.2,11.4
	c-0.7,0.5-0.3,1.7,0.6,1.7C1053.1,556,1053.4,556.5,1053.4,557z"/>
<path class="st4" d="M1053.8,542.3c-0.1,0.4-0.3,0.7-0.4,1.1c-0.4,1-0.9,2.1-1.4,3.1c-1.6,3.4-3.5,6.7-5.4,10
	c-3.6,6.2-8.7,15-12.5,21.3c-0.1,0.2-0.2,0.4-0.3,0.6c-1-0.2-1.9-0.5-2.9-0.8c0,0,0,0-0.1,0c-0.3-0.3-0.6-0.4-0.9-0.5
	c-0.1,0-0.2,0-0.3,0c-1.3-0.6-2.6-1.4-3.7-2.3c-0.1-0.1-0.3-0.2-0.4-0.4c-0.3-0.3-0.6-0.6-0.9-1c-0.7-0.8-1.2-1.8-1.6-2.8
	c-0.8-2.2-0.7-4.7-0.6-7c0.3-4,2.5-10.9,4.7-14.2s6-5.4,9.9-6.5c2.9-0.8,6-1.1,9.1-0.9c1.6-5.5,3.8-10.9,6.1-16.2
	c0.8-1.9,1.6-3.8,2.8-5.4c0.2-0.3,0.5-0.7,0.9-0.8c1-0.3,1.8,0.8,1.9,1.8C1058,528.4,1056.4,535.7,1053.8,542.3z"/>
<path class="st3" d="M1216,642.8c-5.2-0.4-10.3-0.4-15.5-0.5"/>
<path class="st3" d="M1096.7,530.8c5.9,4.3,11.6,18.7,9.9,27.1c-0.3,1.3-0.6,2.5-1,3.7"/>
<line class="st3" x1="1113.1" y1="589.3" x2="1113.1" y2="589.3"/>
<path class="st3" d="M1106,518.7c7.6,5.6,15.7,20.1,17.5,29c1,4.9,1.5,9.8,1.3,14.8"/>
<line class="st3" x1="1113.1" y1="589.3" x2="1113.1" y2="589.3"/>
<path class="st4" d="M1156.4,632.8c-0.3,2.9-1.6,9.5-2.5,14.1c-0.1,0.3-0.1,0.7-0.2,1l0,0c-27.1,0.7-54.2,1.5-81.3,2.2
	c-16.6,0.5-35.2,3.8-50.3-2.8c-0.2-0.1,0.9-3.2,0.7-3.3l-1.2,3c0.1-1,0.3-2.1,0.5-3.3l0,0c1.4-6.6,5.3-16.1,7.9-20.7
	c0.5,1.2,2.1,2.5,3.1,3.1c4,2.5,5.3,2.6,9.3,2.6c6.3,0.1,9.1-0.1,11.5-5.9c2.4-5.8,2.6-10.1,0.8-16.1c-1.2-4.3-2.5-11.8-4.4-15.8
	c-0.1-0.2,0.3-0.4,1.4,0.9c0.6,0.6,1.4,1,2.2,0.9c3-0.3,5.6,0.2,8-0.3c3.6-0.7,7.1-2.3,9.7-4.8c7.1-1,14-3.5,19.9-7.5
	c6.5-4.5,11.6-11,14.1-18.4c4,0.7,8,1.3,12,1.4c2.4,0,4.8-0.1,7.2-0.5c-0.1,2.9-0.4,5.8-1.1,8.6c-1.6,7-5.2,13.6-10.6,18.2
	c7.4-1,14.8-2.1,22.2-3.2c6-0.8,12.3-1.6,17.9,0.5l0,0c0.1,0.4,0.2,0.8,0.3,1.3c0.2,1,0.5,1.9,0.7,2.9
	C1157.1,604.6,1157.8,618.8,1156.4,632.8z"/>
<path class="st3" d="M1049.1,593.1"/>
<path class="st3" d="M1029.3,624.2c-0.4-0.8-0.7-1.6-0.9-2.3c-0.7-2-0.5-1.8-0.5-3.9c0-4,1.3-7.8,2.8-11.5c1.9-4.8,4.2-9.4,6.4-14"
	/>
<path class="st5" d="M1077.2,546.7c-0.3,1.5,0.8,2.9,1.6,4.2s1.2,3.3,0,4.1c-1,0.7-2.6,0-3.2-1.1s-0.3-2.5,0.2-3.7
	C1076.2,549,1076.9,547.9,1077.2,546.7"/>
<path class="st3" d="M1034.1,577.7c-0.9-1.3-1.7-2.8-1.4-4.3"/>
<path class="st3" d="M1047.5,548c1.2-1.4,3.7-3.1,5.8-4.6"/>
<path class="st6" d="M1056.8,550.6c3.8,1.4,7.2,3.9,9.7,7.1c0.7,0.9,1.2,1.8,1.8,2.7c4.8,7.4,9.4,15.1,5.4,23
	c-3.9,7.7-10.7,9.8-19.4,8.4c-2-0.3-2.1-0.3-3.9-2.1"/>
<path class="st3" d="M1066,586.1"/>
<path class="st3" d="M1067,563.4"/>
<path class="st6" d="M1047.3,579.2c-0.7-1.1-2.5-0.9-3.3,0.2s-0.5,2.6,0.2,3.7c0.5,0.8,1.2,1.5,2.2,1.8c0.9,0.3,2,0.2,2.7-0.4
	c0.2-0.1,0.3-0.3,0.5-0.3c0.9-0.2,1.2,1.4,2.1,1.5"/>
<path class="st6" d="M1057.3,565.1c-2.4,0.5-4.3,2.7-4.5,5.1"/>
<path class="st6" d="M1065.5,557.5c-2.2,0.6-3.8,2.9-3.7,5.2"/>
<path class="st6" d="M1064.7,566.8c0.2,1.8-1.4,3.6-3.2,3.7"/>
<path class="st6" d="M1068,574c-0.9,0.7-0.9,2.2,0,2.9s2.4,0.3,2.8-0.8"/>
<path class="st3" d="M1022.8,644c-0.2-0.1-0.4-0.2-0.7-0.3"/>
<path class="st3" d="M1027.9,588c-7.1,11.2-13,23.3-15.1,36.4c-0.8,5.3-0.8,11.3,2.8,15.3c1.4,1.5,3.2,2.5,5.1,3.5
	c0.4,0.2,0.9,0.4,1.3,0.6"/>
<path class="st3" d="M1028,573.8c-0.2-0.1-0.4-0.1-0.6-0.2c-0.2-0.1-0.4-0.2-0.7-0.3c0.1,0,0.2,0,0.3,0
	C1027.5,573.3,1027.8,573.5,1028,573.8z"/>
<path class="st3" d="M1028.9,589.5c-0.3-0.5-0.6-1-0.9-1.5c-2.5-4.3-4.7-8.9-4.3-13.8c0-0.3,0.1-0.6,0.3-0.8
	c0.5-0.5,1.2,0.1,1.7,0.7c0,0,0,0,0,0.1c1.2,1.8,2.3,3.6,3.5,5.5"/>
<path class="st3" d="M1028,573.8c0.2,0.2,0.5,0.5,0.7,0.8c2.2,2.9,4.3,5.8,6.5,8.7c1.3,1.8,2.9,3.7,5,4c1.2,0.2,2.4-0.1,3.5-0.4
	c1.9-0.4,3.9-0.8,5.9-0.9c0.8-0.1,1.9,0,2.3,0.7c0.7,1.1-0.6,2.3-1.7,2.9c0,0-0.1,0.1-0.2,0.1c-4,2.1-8.6,3.1-13.1,2.9"/>
<path class="st3" d="M1026.8,573.3c-0.5,0-0.9,0.4-1.2,0.8c-0.2,0.3-0.3,0.7-0.3,1.1c0,1,0.6,1.9,1.1,2.8"/>
<g>
	<path class="st7" d="M1084.8,544.1c-0.9,0.6-1.9,1-2.9,1.4c-4-2.5-7.3-6-9.6-10c0.2-1.1,0.6-2.6,1.1-3.8
		C1076.1,536.7,1080.1,541,1084.8,544.1z"/>
	<line class="st3" x1="1073.4" y1="531.7" x2="1073.4" y2="531.7"/>
	<path class="st7" d="M1114.6,515.3c-9.7,9.5-19.4,18.9-29.2,28.4c-0.2,0.2-0.4,0.3-0.7,0.5c-4.8-3.1-8.7-7.4-11.4-12.4l0,0l0,0
		c9.5-9.6,19.6-19.5,29.7-28.4c0.1,0.1,0.2,0.1,0.3,0.2c4.9,2.4,8.4,5.5,10.8,10.4L1114.6,515.3z"/>
	<path class="st3" d="M1073.4,531.7L1073.4,531.7L1073.4,531.7"/>
	<path class="st3" d="M1115,511L1115,511"/>
	<path class="st7" d="M1115,511c0.2,1.3,0,3-0.3,4.3l-0.5-1.5c-2.3-4.9-5.9-8-10.8-10.4c-0.1-0.1-0.2-0.1-0.3-0.2l0,0
		c0.9-0.7,2.4-0.9,3.5-0.9C1109.9,504.7,1112.7,507.7,1115,511L1115,511z"/>
</g>
<g>
	<path class="st7" d="M1095.2,522.1c-0.3,0.5-1,0.8-1.7,0.7c-0.6-0.1-1.2-0.4-1.7-0.8c-0.1-0.1-0.2-0.2-0.3-0.3
		c-2.4-1.8-4.3-4.3-6.1-6.8c-0.5-0.6-1-1.3-1.1-2.1c0-0.1,0-0.1,0-0.2c-0.1-0.7,0.2-1.6,0.9-1.8c0.4-0.2,0.9-0.1,1.4,0
		c0.8,0.3,2.4,0.9,2.9,1.5c0.7,1,1.5,1.9,2.4,2.8c0.1,0.1,0.1,0.1,0.2,0.2c1.2,1.2,2.5,3.1,3.1,4.6
		C1095.4,520.7,1095.6,521.5,1095.2,522.1z"/>
	<path class="st7" d="M1097,517.3c-0.1,0.7-0.6,1.3-1.3,1.2c-0.3,0-0.6-0.3-0.9-0.5c-1-0.8-2-1.7-2.9-2.6c-0.1-0.1-0.2-0.2-0.2-0.2
		c-0.9-0.9-1.7-1.8-2.4-2.8c-0.2-0.2-0.3-0.4-0.4-0.6c-0.4-0.5-0.7-1.1-0.8-1.7s0.1-1.3,0.7-1.6c0.5-0.3,1.1-0.1,1.7,0.1
		c0.2,0.1,0.3,0.1,0.4,0.2c0.6,0.2,1.1,0.5,1.6,0.8c0.6,0.3,1.1,0.8,1.5,1.3l1.3,1.5c1.2,1.5,1.3,1.7,1.5,2.5
		C1097.2,515.4,1097.1,516.6,1097,517.3z"/>
	<path class="st7" d="M1092,525.1c-0.3,0.6-1.1,0.5-1.7,0.2c-0.5-0.2-0.9-0.5-1.2-0.7c-0.9-0.7-1.7-1.5-2.4-2.4
		c-0.2-0.2-0.4-0.5-0.6-0.7c-0.1-0.1-0.1-0.1-0.2-0.2c-0.9-1-1.7-2-2.6-3.1c-0.8-1-1.7-2-2-3.2c-0.2-0.7-0.2-1.6,0.3-2.1
		c0.6-0.7,1.6-0.7,2.4-0.3c0.1,0,0.1,0.1,0.2,0.1c0,0.1,0,0.1,0,0.2c0.2,0.8,0.6,1.4,1.1,2.1c1.8,2.4,3.7,4.9,6.1,6.8
		c0.3,0.9,0.5,1.8,0.6,2.7C1092.1,524.6,1092.2,524.9,1092,525.1z"/>
	<path class="st7" d="M1089.1,524.5c-1.8-0.1-5,0-6.6-0.7c-0.7-0.3-1.3-0.7-1.8-1.3c-0.7-0.7-1.2-1.6-1.3-2.7c0-0.3,0-0.6,0.2-0.7
		c0.2-0.2,0.6-0.2,0.9-0.2c1.8,0.3,4,1.3,5.5,2.3c0.1,0.1,0.1,0.2,0.2,0.2c0.2,0.2,0.4,0.5,0.6,0.7
		C1087.4,523,1088.2,523.9,1089.1,524.5z"/>
</g>
<g>
	<path class="st7" d="M27.5,151C27.4,151,27.4,151,27.5,151C27.4,151,27.4,151,27.5,151z"/>
	<path class="st7" d="M28.7,152.9c-0.3-0.3-0.5-0.6-0.7-1C28.2,152.2,28.5,152.5,28.7,152.9z"/>
	<path class="st7" d="M30.9,151.6c-0.2,0.7-0.5,1.5-0.7,1.9C30.4,152.9,30.6,152.2,30.9,151.6z"/>
	<path class="st3" d="M28.3,149.8c-0.4-0.6-0.2-0.2-0.6-0.7l-0.1-0.1"/>
	<path class="st3" d="M29.2,155.1L29.2,155.1c0.2,0.3,0.6,0.7,1,1.3"/>
	<path class="st3" d="M31.6,151.9c-0.1-0.1-0.3-0.3-0.4-0.4"/>
	<path class="st3" d="M29.1,155L29.1,155C29.2,155,29.2,155.1,29.1,155C28.8,154.6,28.9,154.8,29.1,155z"/>
	<path class="st3" d="M31.7,151.9c0,0-0.1,0-0.1-0.1"/>
	<g>
		<path class="st8" d="M88.6,65c0,0.1,0,0.1,0,0.2c0.1,0,0.1-0.1,0.2-0.1C88.7,65,88.7,65,88.6,65z M88.6,65c0,0.1,0,0.1,0,0.2
			c0.1,0,0.1-0.1,0.2-0.1C88.7,65,88.7,65,88.6,65z M88.6,65c0,0.1,0,0.1,0,0.2c0.1,0,0.1-0.1,0.2-0.1C88.7,65,88.7,65,88.6,65z
			 M93.2,68.4c0,0.1-0.1,0.1-0.1,0.2C93.2,68.6,93.2,68.6,93.2,68.4C93.3,68.5,93.2,68.5,93.2,68.4z M93.2,68.4
			c0,0.1-0.1,0.1-0.1,0.2C93.2,68.6,93.2,68.6,93.2,68.4C93.3,68.5,93.2,68.5,93.2,68.4z M88.6,65c0,0.1,0,0.1,0,0.2
			c0.1,0,0.1-0.1,0.2-0.1C88.7,65,88.7,65,88.6,65z M88.6,65c0,0.1,0,0.1,0,0.2c0.1,0,0.1-0.1,0.2-0.1C88.7,65,88.7,65,88.6,65z
			 M85.2,80c-0.1,0-0.3,0-0.4,0.1C84.9,80.1,85.1,80.1,85.2,80L85.2,80z M93.2,68.4c0,0.1-0.1,0.1-0.1,0.2
			C93.2,68.6,93.2,68.6,93.2,68.4C93.3,68.5,93.2,68.5,93.2,68.4z M93.8,64c-0.1-0.2-0.3-0.3-0.6-0.3c0,0,0.1,0,0.1,0.1
			c0.3,0.3,0.6,0.6,0.8,1C94,64.4,93.9,64.2,93.8,64z M88.6,65c0,0.1,0,0.1,0,0.2c0.1,0,0.1-0.1,0.2-0.1C88.7,65,88.7,65,88.6,65z
			 M93.2,68.4c0,0.1-0.1,0.1-0.1,0.2C93.2,68.6,93.2,68.6,93.2,68.4C93.3,68.5,93.2,68.5,93.2,68.4z M93.2,68.4
			c0,0.1-0.1,0.1-0.1,0.2C93.2,68.6,93.2,68.6,93.2,68.4C93.3,68.5,93.2,68.5,93.2,68.4z M88.6,65c0,0.1,0,0.1,0,0.2
			c0.1,0,0.1-0.1,0.2-0.1C88.7,65,88.7,65,88.6,65z M88.6,65c0,0.1,0,0.1,0,0.2c0.1,0,0.1-0.1,0.2-0.1C88.7,65,88.7,65,88.6,65z
			 M93.2,68.4c0,0.1-0.1,0.1-0.1,0.2C93.2,68.6,93.2,68.6,93.2,68.4C93.3,68.5,93.2,68.5,93.2,68.4z M93.2,68.4
			c0,0.1-0.1,0.1-0.1,0.2C93.2,68.6,93.2,68.6,93.2,68.4C93.3,68.5,93.2,68.5,93.2,68.4z M88.6,65c0,0.1,0,0.1,0,0.2
			c0.1,0,0.1-0.1,0.2-0.1C88.7,65,88.7,65,88.6,65z"/>
		<path class="st9" d="M84.5,84.1l-0.3,0.2c-0.1,0.1-0.3,0.2-0.4,0.3c-0.1,0-0.2,0-0.3,0c-0.1,0-0.3,0-0.4,0.1
			c-0.2,0.1-0.3,0.2-0.5,0.2C82.4,85,82,85,81.7,85s-0.5-0.1-0.8-0.2s-0.6-0.1-0.8-0.3c-0.3-0.2-0.5-0.4-0.8-0.6
			c-0.2-0.1-0.4-0.3-0.5-0.4l-0.1-0.1c-0.1-0.1-0.1-0.2-0.2-0.2c-0.3-0.3-0.6-0.5-0.9-0.8c-0.2-0.2-0.4-0.4-0.6-0.6
			c-0.1-0.1-0.2-0.2-0.3-0.3c-0.1-0.1-0.2-0.3-0.2-0.4c-0.1-0.1-0.2-0.3-0.2-0.4c-0.1-0.1-0.2-0.2-0.2-0.4c-0.1-0.2-0.2-0.4-0.2-0.7
			c0-0.1,0-0.2-0.1-0.3c0-0.1-0.1-0.2-0.1-0.3c0-0.1,0-0.3,0-0.4s0.1-0.2,0.1-0.2c0.1-0.2,0-0.3,0-0.4v-0.1c0.2,0,0.4,0.1,0.5,0.1
			c0.2,0.1,0.3,0.1,0.5,0.1c0.1,0,0.1,0.1,0.2,0.1h0.1c0,0,0.1,0,0.1,0.1c0.1,0,0.2,0,0.3,0.1c0.1,0,0.2,0.1,0.3,0.1
			c0.1,0,0.2,0.1,0.3,0.1c0.2,0.1,0.3,0.1,0.5,0.2c0.3,0.1,0.5,0.3,0.8,0.4s0.5,0.4,0.8,0.5c0.1,0.1,0.2,0.1,0.3,0.2
			c0.1,0.1,0.2,0.1,0.3,0.1c0.2,0.1,0.5,0.2,0.7,0.4c0.3,0.2,0.6,0.5,0.9,0.8c0.2,0.2,0.3,0.3,0.5,0.5s0.3,0.5,0.5,0.6
			c0.2,0.2,0.4,0.4,0.5,0.6c0.2,0.2,0.3,0.4,0.4,0.6C84.3,83.7,84.4,83.9,84.5,84.1z"/>
		<path class="st9" d="M97.5,64.7c-0.1-0.2-0.2-0.4-0.3-0.6c-0.1-0.1-0.2-0.2-0.3-0.3c-0.1-0.1-0.1-0.2-0.2-0.3s-0.2-0.1-0.2-0.2
			c-0.1-0.1-0.1-0.1-0.2-0.2c-0.1,0-0.1-0.1-0.1-0.2c-0.1-0.1-0.1-0.1-0.2-0.1c-0.1-0.1-0.2-0.2-0.3-0.3c-0.1-0.1-0.2-0.2-0.3-0.3
			c-0.1-0.1-0.2-0.2-0.3-0.3c-0.4-0.3-0.9-0.5-1.3-0.9c-0.2-0.1-0.3-0.3-0.5-0.3c-0.1,0-0.2-0.1-0.3-0.1c-0.1,0-0.2,0-0.3-0.1
			c-0.1,0-0.1,0-0.2-0.1c-0.1,0-0.1,0-0.1,0c-0.1,0-0.2,0-0.2-0.1c-0.1,0-0.2,0-0.3,0h-0.3c0,0-0.1,0-0.2,0h-0.1
			c-0.1,0-0.2,0-0.2,0.1c-0.1,0-0.1,0.1-0.2,0.1s-0.2,0.1-0.2,0.1c-0.1,0.1-0.2,0.2-0.3,0.3c0,0-0.1,0.1-0.1,0.2
			c-0.1,0.1-0.2,0-0.3,0c-0.3,0-0.5,0.3-0.7,0.5s-0.4,0.4-0.6,0.6c-0.3,0.2-0.6,0.5-0.8,0.8c-0.3,0.4-0.6,0.7-0.9,1
			c-0.1,0.2-0.3,0.4-0.4,0.6s-0.2,0.4-0.4,0.5c-0.2,0.2-0.3,0.4-0.4,0.5c-0.2,0.2-0.4,0.3-0.6,0.5c-0.1,0.1-0.2,0.2-0.3,0.3
			c-0.1,0.1-0.2,0.2-0.2,0.3c-0.1,0.1-0.2,0.2-0.3,0.4c0.1,0.2,0.3,0.3,0.4,0.5c0.6-0.8,1.2-1.7,1.9-2.3c0.5-1.1,2.5-2.1,3.5-2.2
			c1.2-0.1,2.3-0.3,3.2,0.5c0.2,0,0.4,0.1,0.6,0.3c0.1,0.2,0.2,0.5,0.3,0.7c0.2,0.4,0.4,0.8,0.5,1.2c0.3,0.9,0.3,1.9,0.2,2.8
			c0,0.3-0.3,1.3-0.6,1.8c-0.2,0.2-0.3,0.3-0.5,0.2l-0.1-0.1c-0.1,0.1-0.2,0.3-0.2,0.4L93.5,71c-0.1,0.1-0.2,0.3-0.3,0.4
			c0,0.1-0.1,0.1-0.2,0.2c-0.2,0.2-0.3,0.4-0.6,0.7l0,0c0.4,0.3,0.7,0.6,1,0.9l0,0l0,0l0,0c0.1-0.1,0.1-0.2,0.2-0.3
			c0.1-0.1,0.2-0.2,0.2-0.2c0.1-0.1,0.1-0.1,0.2-0.2c0,0,0,0,0.1-0.1s0.1-0.1,0.1-0.2c0,0,0.1,0,0.1-0.1c0.1-0.1,0.1-0.2,0.2-0.3
			c0.1-0.1,0.2-0.2,0.3-0.3c0.1-0.2,0.3-0.4,0.5-0.5c0.1-0.1,0.1-0.1,0.2-0.2s0.1-0.1,0.2-0.2s0.1-0.2,0.2-0.3
			c0.1-0.1,0.1-0.1,0.2-0.2c0.1-0.2,0.2-0.3,0.4-0.5c0.2-0.2,0.3-0.5,0.5-0.7c0.1-0.2,0.3-0.4,0.4-0.6s0.2-0.3,0.2-0.5
			c0-0.1,0-0.2,0-0.2v-0.1v-0.1c0-0.2,0.1-0.4,0.1-0.5c0-0.2,0.1-0.2,0.1-0.4c0-0.1,0-0.2,0.1-0.3c0-0.1,0.1-0.2,0.1-0.3
			c0.1-0.2,0.1-0.4,0.1-0.6C97.7,65.1,97.6,64.8,97.5,64.7z M86.8,81.1c-0.5-0.3-1-0.6-1.4-0.9c-0.1,0-0.1-0.1-0.2-0.1s-0.3,0-0.4,0
			s-0.3,0-0.4,0l0,0c-1.9,0-4-0.9-4.7-2.7c-0.6-1.5,0-3,0.9-4.4c-0.1-0.2-0.2-0.4-0.2-0.7l-0.1,0.1c-0.1,0.1-0.2,0.2-0.2,0.4
			c-0.1,0.1-0.2,0.2-0.2,0.3c-0.1,0.2-0.2,0.3-0.4,0.5c-0.2,0.2-0.4,0.4-0.5,0.6c-0.2,0.2-0.3,0.3-0.5,0.6c-0.1,0.2-0.2,0.3-0.3,0.4
			c-0.2,0.3-0.5,0.5-0.7,0.8s-0.4,0.5-0.6,0.7c-0.2,0.1-0.4,0.3-0.5,0.5c-0.1,0.1-0.2,0.2-0.2,0.2c0,0.1-0.1,0.1-0.1,0.2
			C76,77.7,76,77.8,76,77.8c0.2,0,0.4,0.1,0.5,0.1C76.7,78,76.8,78,77,78c0.1,0,0.2,0.1,0.2,0.1h0.1c0,0,0.1,0,0.1,0.1
			c0.1,0,0.2,0,0.3,0.1c0.1,0,0.2,0.1,0.3,0.1c0.1,0,0.2,0.1,0.3,0.1c0.2,0.1,0.3,0.1,0.5,0.2c0.3,0.1,0.5,0.3,0.8,0.4
			s0.5,0.4,0.8,0.5c0.1,0.1,0.2,0.1,0.3,0.2c0.1,0.1,0.2,0.1,0.3,0.1c0.2,0.1,0.5,0.2,0.6,0.4c0.3,0.2,0.6,0.5,0.9,0.8
			c0.2,0.2,0.3,0.3,0.5,0.5s0.3,0.5,0.5,0.6c0.2,0.2,0.4,0.4,0.6,0.6s0.3,0.4,0.4,0.6s0.2,0.3,0.3,0.5h0.1c0.1-0.1,0.2-0.2,0.3-0.3
			c0.1-0.1,0.2-0.2,0.3-0.3c0.1-0.1,0.2-0.3,0.3-0.4c0.2-0.2,0.4-0.3,0.6-0.6c0.2-0.3,0.4-0.6,0.6-0.8c0.1-0.1,0.2-0.3,0.3-0.4l0,0
			C87,81.1,86.9,81.1,86.8,81.1z"/>
		<path class="st10" d="M93.1,70.1c-0.5-0.2-1-0.8-1.1-1.4c0,0,0,0,0.1,0c0.4,0.1,0.7,0,1.1-0.1C93.1,68.8,93,69,93,69.3
			C92.9,69.6,93,69.9,93.1,70.1z"/>
		<path class="st10" d="M88.8,66.3c-0.6,0.1-1.2,0-1.4-0.5c0.4-0.1,0.8-0.4,1.2-0.7C88.5,65.6,88.5,65.9,88.8,66.3z"/>
		<path class="st11" d="M93.1,68.6c-0.4,0.1-0.8,0.2-1.1,0.1c0,0,0,0-0.1,0c-0.5-0.2-0.9-0.7-1.4-1c-0.1-0.1-0.2-0.1-0.3-0.2
			c-0.4-0.3-0.8-0.5-1.1-0.8c-0.2-0.1-0.3-0.3-0.4-0.4c-0.3-0.4-0.3-0.7-0.2-1.2c0.1,0,0.1-0.1,0.2-0.1l0,0c0.6,0.1,1.2,0.5,1.7,0.8
			c1.1,0.6,2.1,1.5,2.7,2.6C93.2,68.5,93.1,68.6,93.1,68.6z"/>
		<path class="st11" d="M94.1,65.6c0,0.8-0.1,1.6-0.4,2.3c-0.1,0.2-0.1,0.3-0.2,0.5c-0.1-0.1-0.1-0.2-0.2-0.3
			c-0.6-1-1.5-1.8-2.5-2.3c-0.5-0.3-1.1-0.6-1.7-0.8c0.2-0.1,0.4-0.3,0.5-0.4c0.8-0.4,1.5-0.6,2.3-0.8c0.2-0.1,0.5-0.1,0.8-0.2
			c0.1,0,0.3,0,0.4,0c0.2,0,0.4,0.1,0.6,0.3c0.1,0.2,0.2,0.5,0.3,0.7C94.1,65,94.1,65.4,94.1,65.6z"/>
		<path class="st10" d="M94.7,68.8c0,0.3-0.3,1.3-0.7,1.7c-0.2-0.5-0.4-1.1-0.6-1.7c0-0.1-0.1-0.2-0.1-0.3c0,0,0-0.1-0.1-0.1
			c0.1-0.1,0.1-0.2,0.1-0.3c0-0.1,0.1-0.1,0.1-0.2c0.2-0.8,0.4-1.5,0.4-2.3c0-0.5-0.1-1.2-0.4-1.6c-0.1-0.2-0.4-0.3-0.6-0.3
			c-0.4,0-0.9,0.1-1.1,0.2c-0.8,0.3-1.6,0.4-2.3,0.8c-0.2,0.1-0.4,0.2-0.5,0.4l0,0h-0.1c0,0.1,0,0.1,0,0.2c-0.4,0.3-0.8,0.6-1.2,0.7
			c-0.3,0.1-0.6,0-1-0.2c0-0.1,0-0.2,0.1-0.2c0.5-1.1,2.5-2.1,3.5-2.2c1.2-0.1,2.3-0.3,3.2,0.5c0,0,0,0,0.1,0.1
			c0.3,0.3,0.6,0.6,0.8,1c0.2,0.4,0.4,0.8,0.5,1.2C94.8,66.8,94.8,67.8,94.7,68.8z"/>
		<path class="st10" d="M94,70.5L94,70.5c-0.1,0.2-0.3,0.3-0.5,0.2l-0.1-0.1c-0.1-0.1-0.3-0.3-0.3-0.5c-0.1-0.3-0.2-0.5-0.2-0.8
			s0.1-0.5,0.2-0.7c0.1,0,0.1,0,0.2-0.1c0,0.1,0.1,0.2,0.1,0.3C93.6,69.4,93.8,70,94,70.5z"/>
		<path class="st8" d="M94.1,70.7c0-0.1-0.1-0.1-0.1-0.2"/>
		<path class="st8" d="M86.9,65c0.5,0.1,1-0.1,1.5,0c0.1,0,0.2,0,0.3,0"/>
		<line class="st8" x1="88.6" y1="65" x2="88.6" y2="65"/>
		<path class="st12" d="M83.1,70.9c-0.2-0.1-0.5-0.1-0.7-0.2h-0.1c0.2-0.2,0.4-0.5,0.6-0.7C82.9,70.2,83,70.6,83.1,70.9
			C83.1,70.8,83.1,70.9,83.1,70.9z"/>
		<path class="st12" d="M90.3,67.6C90.2,67.7,90,67.9,90,68c-0.2,0.2-0.3,0.4-0.5,0.6c-0.4,0.4-0.7,0.9-1,1.4s-0.7,0.9-1.1,1.4
			c-1.1-1.1-1.9-2.4-2.8-3.6c0.6-0.8,1.2-1.7,1.9-2.3c0,0.1-0.1,0.2-0.1,0.2c0.3,0.2,0.7,0.2,1,0.2c0,0.1,0.1,0.2,0.2,0.2l0.1,0.1
			c0,0,0.1,0.1,0.2,0.1c0,0,0.1,0,0.2,0.1l0,0c0.1,0,0.1,0,0.2,0s0.1,0,0.2,0s0.3,0,0.4,0c0.1,0.1,0.2,0.3,0.4,0.4
			C89.5,67.1,89.9,67.3,90.3,67.6z"/>
		<path class="st8" d="M86.5,65.4C86.5,65.4,86.6,65.4,86.5,65.4"/>
		<path class="st12" d="M93.4,70.6c-0.1,0.1-0.2,0.3-0.2,0.4l-0.1,0.1c-0.1,0.1-0.2,0.3-0.3,0.4c0,0.1-0.1,0.1-0.2,0.2
			c-0.2,0.2-0.3,0.5-0.5,0.7c-0.1,0.1-0.1,0.2-0.2,0.2c-0.5-0.4-1.1-0.7-1.5-0.7c-0.7,0.1-0.4,0.8,0.1,1.6c-0.9-0.2-1.9-1.1-2.6-1.6
			c-0.2-0.2-0.4-0.4-0.6-0.6c0.4-0.5,0.8-0.9,1.1-1.4c0.3-0.5,0.7-0.9,1-1.4c0.2-0.2,0.3-0.4,0.5-0.6c0.1-0.1,0.2-0.3,0.3-0.4
			c0.1,0.1,0.2,0.1,0.3,0.2c0.4,0.3,0.8,0.8,1.4,1c0.2,0.6,0.6,1.2,1.1,1.4C93.2,70.3,93.3,70.5,93.4,70.6z"/>
		<path class="st13" d="M85.2,80c-0.1,0-0.3,0-0.4,0s-0.3,0-0.4,0l0,0c-1.8,0-3.8-0.9-4.5-2.7c-0.6-1.5,0-2.9,0.8-4.2
			c0,0.1,0.1,0.2,0.1,0.4c0.1,0.3,0.2,0.6,0.4,1l0,0c0.1,0.3,0.3,0.6,0.4,0.9l0,0c0.2,0.3,0.3,0.6,0.5,0.9s0.3,0.6,0.5,0.8
			c0.1,0.1,0.2,0.3,0.3,0.4c0.3,0.4,0.6,0.8,1,1.1c0.2,0.2,0.5,0.5,0.7,0.7c0.1,0.1,0.2,0.2,0.3,0.3C84.9,79.8,85,79.9,85.2,80
			L85.2,80z"/>
		<path class="st13" d="M83.1,70.9c-0.2-0.1-0.5-0.1-0.7-0.2l0,0C82.7,70.7,82.9,70.8,83.1,70.9C83.1,70.8,83.1,70.9,83.1,70.9z"/>
		<path class="st8" d="M85.5,73.6L85.5,73.6"/>
		<path class="st8" d="M90.4,67.4c0,0,0,0.1-0.1,0.2"/>
		<path class="st14" d="M153.5,87.6c0,0.1,0,0.1-0.1,0.2c0-0.2-0.1-0.3-0.1-0.5c-3.4,8.4-8.6,16-14.9,22.4l0,0
			c-0.7,0.8-1.5,1.5-2.2,2.2c-1.6,1.6-3.3,2.6-5.2,3.4s-3.8,1.4-5.7,2.2l0,0c0.2-0.3,0.5-0.6,0.7-0.9l0.1-0.1c2.5-2.9,4.8-5.9,7.1-9
			c0,0,0.1-0.1,0.1-0.2c0.1-0.1,0.1-0.2,0.2-0.2c0-0.1,0.1-0.1,0.1-0.2l0,0c2.5-3.3,4.9-6.7,7.3-10.1c0-0.1,0.1-0.1,0.1-0.2
			c2.7-3.4,5.4-6.7,8-10c0.2-0.2,0.4-0.4,0.5-0.6c1.2-1.2,1.8-1.8,2.1-2.3l0,0c0.2-0.2,0.3-0.4,0.5-0.5c0-0.1,0-0.2,0.1-0.2
			C152.7,84.5,153.4,86,153.5,87.6L153.5,87.6z"/>
		<path class="st4" d="M125.1,117.6c0.3-0.3,0.5-0.6,0.8-0.9c-0.2,0.3-0.5,0.6-0.7,0.9l0,0C125.2,117.6,125.2,117.6,125.1,117.6z"/>
		<path class="st4" d="M148.9,86.8c-2.6,3.4-5.3,6.7-8,10C143.5,93.4,146.1,90,148.9,86.8z"/>
		<path class="st4" d="M151.6,83.8c-0.3,0.6-0.9,1.1-2.1,2.3C150.2,85.4,150.9,84.6,151.6,83.8z"/>
		<path class="st4" d="M153.3,87.3c0,0.2,0.1,0.3,0.1,0.5c-1.8,4.6-4.3,8.8-7.2,12.7c-2.4,3.2-5.1,6.2-7.9,9.1l0,0
			C144.7,103.3,149.9,95.7,153.3,87.3z"/>
		<path class="st4" d="M153.7,87.2c-0.1,0.1-0.1,0.3-0.2,0.4c0,0,0,0,0-0.1c-0.1-1.6-0.8-3.1-1.3-4.6l0.1-0.1
			C153.1,84.1,153.5,85.7,153.7,87.2z"/>
		<path class="st15" d="M164.4,66.4c-1.6,2.3-3.3,4.6-4.9,6.9c-0.8,1.2-3.1,2.7-3.8,4.3c-0.1,0.2-0.2,0.5-0.2,0.7
			c-0.3-2-1.2-2.6-2.1-2.4l0,0c-1.1,0.2-2.2,1.7-1.9,3.5c0,0.3,0,0.6,0.1,0.8v0.1c0,0.2,0,0.4,0,0.6l0,0c0.1,1.5,0.2,2.2-0.1,2.8
			l0,0c-0.3,0.6-0.9,1.1-2.1,2.3l-0.1,0.1l-0.1,0.1c-0.1,0.1-0.1,0.1-0.1,0.2c0,0-0.1,0.1-0.1,0.2c-2.6,3.4-5.3,6.7-8,10
			c0,0.1-0.1,0.1-0.1,0.2c-2.6,3.3-5.1,6.6-7.3,10.1l0,0c0,0-0.1,0.1-0.1,0.2c-0.1,0.1-0.1,0.2-0.2,0.2c0,0.1-0.1,0.1-0.1,0.2
			c-2.4,3-4.7,6-7.1,9l-0.1,0.1c-0.2,0.3-0.5,0.6-0.7,0.9l0,0c-1.1,1.5-2.3,2.9-3.4,4.4c-0.9,1.2-1.8,2.3-2.6,3.5
			c-5,6.5-9.8,13.1-14.5,19.6s-9.3,12.8-13.7,19c-1.4,1.6-4.2,0.3-3.7-1.8c0.9-3,2.3-5.5,3.9-7.8c0,0,0-0.1,0.1-0.1l0.1-0.1
			c0.1-0.1,0.2-0.2,0.2-0.3c0.5-0.7,1-1.4,1.5-2.1c2.9-3.7,6.2-7.1,8.9-11.3c4-6.5,9.1-12.2,14.1-17.9l0,0l0,0l0,0
			c0.1-0.1,0.2-0.2,0.2-0.3c0.1-0.1,0.1-0.2,0.2-0.2l0,0c1.3-1.9,2.6-3.8,3.9-5.8c0-0.1,0.1-0.1,0.1-0.2c2-3,4-5.9,6.5-8.5l0,0
			c0.3-0.3,0.6-0.6,0.8-0.9c0.3-0.3,0.5-0.6,0.8-1l0,0c2.1-2.8,4.2-5.9,6.1-8.8c0.9-1.3,1.8-2.7,2.7-4c0.7-0.9,1.3-1.8,2-2.7
			c1.8-2.8,3.7-5.4,5.7-8.1c4.3-5.7,8.9-11.2,13-17c0.5-0.7,1-1.5,1.5-2.3c0.2-0.2,0.3-0.4,0.4-0.6c1.6-2,3-4,4.5-5.9
			c1.2-1.6,2.5-3.1,4-4.8l0.1-0.1c1.1-1.2,1.7-2.3,3.2-2.6C178.2,52.3,166.7,62.7,164.4,66.4z"/>
		<path class="st15" d="M166,125.2c-1.4,1-3.2-0.4-3.8-1.8c-0.8-3.1-1.6-6.2-2.3-9.4c0-0.1,0-0.2,0-0.2c-0.6-2.9-1.3-5.7-1.9-8.6
			c-1.3-5.9-2.7-11.8-4.4-17.5c0.1-0.1,0.1-0.3,0.2-0.4c-0.2-1.5-0.5-3.1-1.4-4.3c0,0.1-0.1,0.1-0.1,0.1c-0.2-0.7-0.4-1.3-0.5-2l0,0
			c0-0.2,0-0.4,0-0.7v-0.1c0-0.3,0-0.6,0.1-0.8c-0.2-1.6,0.7-3.1,1.8-3.5l0,0c0.9-0.2,1.8,0.5,2.1,2.4c0-0.2,0.1-0.5,0.1-0.7
			c0.1,0.2,0.1,0.4,0.1,0.6c2.8,13.9,6.5,27.8,9.1,41.6c0,0.1,0,0.1,0,0.2H165l1.2,3.4l0,0C166.2,124,166.2,124.7,166,125.2z"/>
		<path class="st15" d="M153.7,87.2c-0.1,0.1-0.1,0.3-0.2,0.4c0,0,0,0,0-0.1c-0.1-1.6-0.8-3.1-1.3-4.6l0.1-0.1
			C153.1,84.1,153.5,85.7,153.7,87.2z"/>
		<path class="st15" d="M155.8,77.5c-0.1,0.2-0.1,0.5-0.1,0.7c-0.3-2-1.2-2.6-2.1-2.4C154.4,75.5,155.4,75.9,155.8,77.5z"/>
		<path class="st15" d="M157.9,105.2c0.7,2.9,1.3,5.7,1.9,8.6c-0.6-2.8-1.3-5.5-1.9-8.3C157.9,105.4,157.9,105.3,157.9,105.2z"/>
		<path class="st15" d="M166.1,123.3L166.1,123.3l-1.2-3.4h0.1C165.3,120.9,165.8,122.2,166.1,123.3z"/>
		<path class="st15" d="M162,123.1c-14.5,0.9-29,3.5-43.6,3.9c0.2-0.5,0.5-1,0.8-1.5l0,0c0.9-1.2,1.7-2.3,2.6-3.5
			c11.8-0.3,23.5-1.4,35.3-1.7c0.2,0.1,0.4,0.1,0.6,0.2c1,0.1,2.2-0.1,3.3-0.3C161.1,121.2,161.4,122.2,162,123.1z"/>
		<path class="st15" d="M121.6,122c0.1,0,0.2,0,0.3,0c-0.9,1.2-1.8,2.3-2.6,3.5C119.9,124.2,120.7,123,121.6,122z"/>
		<path class="st15" d="M161,120.3L161,120.3c-1.1,0.2-2.2,0.3-3.3,0.3c-0.2-0.1-0.4-0.1-0.6-0.2C158.4,120.3,159.7,120.3,161,120.3
			z"/>
		<path class="st16" d="M172.8,122.8c-2,1.2-4.5,0.5-6.7,0.5l0,0l-1.2-3.4h0.1c2-0.1,4-0.3,6-0.7
			C172.6,119.2,174.7,121.7,172.8,122.8z"/>
		<path class="st17" d="M168.7,51.5l-0.1,0.1c-1.5,1.6-2.8,3.2-4,4.8c-1,0-2.2-0.1-3.3-0.1c0.4-1.7,1-3.3,1.7-4.8l0,0
			C164.8,51.1,166.6,51.3,168.7,51.5z"/>
		<path class="st3" d="M168.9,51.5c-0.1,0-0.1,0-0.2,0"/>
		<path class="st3" d="M163,51.4c-0.1,0-0.1,0-0.2,0"/>
		<path class="st3" d="M126,49.2L126,49.2"/>
		<path class="st3" d="M125.9,49.2L125.9,49.2"/>
		<path class="st3" d="M161.3,56.2h-0.1"/>
		<path class="st3" d="M165,56.4c-0.1,0-0.3,0-0.4,0"/>
		<path class="st17" d="M116,122.5c-1.3,1.5-2.5,3-3.9,4.4c-2.1,0.1-4.2,0.1-6.4,0.2c-1.6,0-3.2,0-4.8,0.1l0,0c-2.7,0-5.4,0.1-8,0.2
			c-2.6,0.3-6.9,0.7-8-2.4c0-0.1-0.1-0.2-0.1-0.4c0.1,0,0.2,0.1,0.3,0.1c-0.2-1-0.1-1.6,0.3-2l0,0l0,0c0.9-0.6,2.6-0.6,4.1-0.5l0,0
			h0.1c1,0,1.9,0.1,2.5,0c1.8-0.1,3.6-0.1,5.4,0c0.2,0,0.5,0,0.7,0s0.5,0,0.7,0c3.5,0.1,7.1,0.3,10.6,0.3c0.1,0,0.1,0,0.2,0
			c0.2,0,0.4,0,0.7,0c0.2,0,0.4,0,0.7,0c0.3,0,0.6,0,0.9,0h0.6c0.1,0,0.2,0,0.3,0c0.3,0,0.6,0,1,0h0.2c0.1,0,0.2,0,0.3,0
			C115,122.6,115.5,122.6,116,122.5z"/>
		<path class="st15" d="M85.1,124.8c-0.1,0-0.2-0.1-0.3-0.1c-0.2-1,0.1-1.6,0.6-1.9C85,123.2,84.9,123.8,85.1,124.8z"/>
		<path class="st15" d="M89.7,122.2L89.7,122.2L89.7,122.2L89.7,122.2C89.6,122.2,89.7,122.2,89.7,122.2z"/>
		<path class="st15" d="M109.7,122.6c-3.5,0-7.1-0.2-10.6-0.3c0.4,0,0.9,0,1.3,0s0.9,0,1.3,0c0.7,0,1.4,0.1,2,0.1
			c1.4,0.1,2.7,0.1,4.1,0.1C108.5,122.6,109.1,122.6,109.7,122.6z"/>
		<path class="st15" d="M111.9,122.6h-0.6c-0.2,0-0.4,0-0.7,0h0.4C111.3,122.6,111.6,122.6,111.9,122.6z"/>
		<path class="st15" d="M114,122.6c-0.3,0-0.6,0-1,0c-0.1,0-0.2,0-0.3,0h-0.6c0.2,0,0.3,0,0.5,0l0,0
			C113.1,122.6,113.5,122.6,114,122.6z"/>
		<path class="st15" d="M116,122.5L116,122.5c-0.5,0-1,0-1.5,0.1c-0.1,0-0.2,0-0.3,0C114.8,122.6,115.4,122.6,116,122.5z"/>
		<path class="st18" d="M91.3,122.2c-0.6,0-1.1,0-1.7,0.1h-0.1l0,0C90.2,122.2,90.8,122.2,91.3,122.2z"/>
		<path class="st18" d="M91.3,122.2c0.1,0,0.3,0,0.4,0C91.6,122.2,91.5,122.2,91.3,122.2z"/>
		<path class="st18" d="M97.6,122.2c0.2,0,0.5,0,0.7,0c-0.9,0-1.7,0-2.6-0.1C96.4,122.2,97,122.2,97.6,122.2z"/>
		<path class="st18" d="M107.9,122.5c0.6,0,1.2,0,1.8,0c-3.5,0-7.1-0.2-10.6-0.3c-0.2,0-0.5,0-0.7,0c0.7,0,1.4,0,2.1,0.1
			c0.4,0,0.9,0,1.3,0c0.7,0,1.4,0.1,2,0.1C105.1,122.5,106.5,122.5,107.9,122.5z"/>
		<path class="st18" d="M111,122.6h-0.4c-0.2,0-0.5,0-0.7,0c-0.1,0-0.1,0-0.2,0C110.2,122.6,110.6,122.6,111,122.6z"/>
		<path class="st18" d="M112.6,122.6L112.6,122.6h-0.5C112.3,122.6,112.5,122.6,112.6,122.6L112.6,122.6z"/>
		<path class="st18" d="M116.2,122.5L116.2,122.5L116.2,122.5L116.2,122.5z"/>
		<path class="st16" d="M64.4,108.4L64.4,108.4c-0.9,0.3-1.7,0.6-2.5,1l0,0c-1,0.5-1.9,1-2.9,1.5l0,0c-1.4,0.8-2.7,1.7-3.9,2.6
			c-0.3,0.2-0.5,0.4-0.8,0.6c-3.5,0-6-0.8-4.7-3.9C53,107,59,107.7,64.4,108.4z"/>
		<path class="st4" d="M59,110.9c-1.4,0.8-2.7,1.7-3.9,2.6c-1-0.4-1.9-0.9-2.7-1.6C52.2,110.3,57.3,110.9,59,110.9z"/>
		<path class="st3" d="M32.4,140.6c-0.2-0.4-0.4-0.7-0.7-1c0,0,0-0.1-0.1-0.1c-0.1-0.1-0.3-0.3-0.4-0.4c-0.4-0.6-0.6-1.4-1.3-1.8
			c-0.8-0.4-1.8,0.3-2.4,1s-1.1,1.5-1.5,2.3c-0.1,0.2-0.2,0.4-0.2,0.6c-0.8-0.1-1.7-0.4-2.3-0.9c-0.6-0.5-1-1.2-1.4-1.9
			c-0.3-0.5-0.6-1-0.8-1.6c-0.1-0.1-0.1-0.3-0.2-0.4c0,0.1-0.1,0.2-0.1,0.2c0.1,0.2,0.1,0.3,0.2,0.4c0.3,0.5,0.5,1.1,0.8,1.6
			c0.4,0.7,0.8,1.4,1.4,1.9s1.5,0.8,2.3,0.9l0,0c0-0.1,0.1-0.2,0.1-0.3s0.1-0.2,0.1-0.3s0.1-0.2,0.1-0.2c0.4-0.7,0.8-1.4,1.4-2.1
			c0.6-0.7,1.6-1.4,2.4-1c0.5,0.2,0.7,0.8,1,1.3c0.1,0.2,0.2,0.3,0.3,0.5c0.1,0.1,0.3,0.2,0.4,0.4c0,0,0.1,0,0.1,0.1
			c0.3,0.3,0.5,0.7,0.7,1C32.4,140.8,32.4,140.8,32.4,140.6C32.5,140.7,32.5,140.6,32.4,140.6z M55.3,126.7
			C55.3,126.7,55.3,126.6,55.3,126.7c-0.3,0.4-0.8,1-1.2,1.5c0.1,0,0.2-0.1,0.2-0.1c0.2-0.3,0.5-0.6,0.7-0.9
			c0.1-0.1,0.2-0.2,0.2-0.3l0,0l0,0C55.3,126.8,55.3,126.8,55.3,126.7L55.3,126.7z M76.1,110.8c-1.9,0.3-3.8,0.6-5.5,1.2
			c-2.6,0.9-4.9,2.3-7,4.1c-0.7,0.6-1.3,1.2-1.9,1.8l0,0l-0.5,0.7c0.1-0.1,0.3-0.3,0.4-0.4l0,0c0.6-0.6,1.3-1.3,1.9-1.8
			c2.1-1.8,4.4-3.3,7-4.1c1.8-0.6,3.8-1,5.8-1.2C76.3,111,76.2,110.9,76.1,110.8z"/>
		<path class="st15" d="M76.1,110.8c-1.9,0.3-3.8,0.6-5.5,1.2c-2.6,0.9-4.9,2.3-7,4.1c-0.7,0.6-1.3,1.2-1.9,1.8l0,0l-0.5,0.7l0,0
			c-2.3,2.5-4.3,5.3-5.8,8h-0.1c0,0,0-0.1,0.1-0.1c-0.4,0.5-0.9,1.1-1.3,1.6c0.1,0,0.2-0.1,0.2-0.1c-0.1,0.1-0.2,0.3-0.3,0.4
			c-0.2,0.1-0.4,0.2-0.6,0.4c-5,3.2-0.6,0.1-5.2,3.7c-4.1,2.3-8.4,5.9-12.3,7.2c-0.7,0.2-0.9,0.3-1,0.3l0,0l-1.5,0.4
			c-0.3,0.1-0.6,0.2-0.9,0.2c0-0.1-0.1-0.1-0.1-0.2c-0.2-0.4-0.4-0.7-0.7-1c0,0,0-0.1-0.1-0.1c-0.1-0.1-0.3-0.3-0.4-0.4
			c-0.4-0.6-0.6-1.4-1.3-1.8c-0.8-0.4-1.8,0.3-2.4,1s-1.1,1.5-1.5,2.3c-0.1,0.2-0.2,0.4-0.2,0.6c-0.8-0.1-1.7-0.4-2.3-0.9
			c-0.6-0.5-1-1.2-1.4-1.9c-0.3-0.5-0.6-1-0.8-1.6c-0.1-0.1-0.1-0.3-0.2-0.4c0.3-0.8,0.7-1.5,1.1-2.3c1.5-2.7,3.5-5.1,5.9-6.9
			c0.5,0.5,1.1,0.8,1.8,0.8c0.7,0,1.3-0.3,1.9-0.6c4.1-1.9,4.1-2,8.4-3.7c4.3-2.3,8.5-5.1,12.2-8.2c0.1-0.1,0.2-0.2,0.4-0.3
			c0.5-0.4,0.9-0.7,1.4-1.1c0.3-0.2,0.5-0.4,0.8-0.6c1.2-0.9,2.5-1.8,3.9-2.6l0,0c0.9-0.5,1.9-1.1,2.9-1.5l0,0
			c0.8-0.4,1.6-0.7,2.5-1l0,0c1.6-0.6,3.2-1,4.9-1.2l1.7,0.7l0,0c0.1,0.1,0.2,0.2,0.3,0.2l0.1,0.1c0.1,0.1,0.2,0.1,0.3,0.2
			c0.2,0.1,0.4,0.2,0.5,0.3c0.2,0.1,0.4,0.2,0.6,0.3l1.1,0.6c0.4,0.2,0.8,0.4,1.1,0.6c0.2,0.1,0.4,0.2,0.6,0.3
			c0.1,0,0.1,0.1,0.2,0.1C75.9,110.7,76,110.8,76.1,110.8z"/>
		<path class="st3" d="M92,89.8c0.4-0.5,0.8-1.1,1.3-1.6c-0.9-1.3-1.6-2.6-2.2-4c-0.2-0.1-0.3-0.3-0.4-0.4c-3.4,4.1-6.7,8.2-10,12.4
			l0,0l0,0c0,0.1-0.1,0.1-0.1,0.2"/>
		<path class="st3" d="M85.4,93.7c-0.1,0.1-0.2,0.1-0.3,0.2"/>
		<path class="st3" d="M86.1,93.2c-0.1,0.1-0.2,0.2-0.4,0.3"/>
		<path class="st3" d="M80.6,96.3c0.1,0,0.2,0,0.2,0c-0.1,0.1-0.2,0.1-0.3,0.2C80.5,96.4,80.6,96.3,80.6,96.3L80.6,96.3L80.6,96.3"
			/>
		<path class="st19" d="M125.1,104.5c-0.1,0-0.1,0-0.2,0.1C125,104.5,125,104.5,125.1,104.5L125.1,104.5
			C125.1,104.6,125.1,104.6,125.1,104.5c0,0.3-0.1,0.4-0.1,0.5c-0.1,0.2-0.1,0.4-0.2,0.5c-0.1,0.2-0.2,0.4-0.2,0.6
			c0,0.1-0.1,0.1-0.1,0.2s-0.1,0.1-0.1,0.2c-1.3,3.2-2.6,6.6-4.6,9.5c-1.6,2.3-4.2,4.2-6.7,6c-0.2,0-0.5,0-0.8,0
			c-6.6,0-13.2-0.6-19.7-0.4c-0.8,0.1-2.2,0-3.6-0.1l0,0c-0.8-0.4-1.6-0.8-2.4-1.2c-0.7-0.4-1.3-0.7-1.9-1.1c-3-2-4.8-5.2-7.3-7.7
			c-0.3-0.3-0.6-0.6-1-0.8c-0.2-0.1-0.4-0.3-0.6-0.4c0,0-0.1-0.1-0.2-0.1c-0.2-0.1-0.4-0.2-0.6-0.3c-0.4-0.2-0.7-0.4-1.1-0.6
			s-0.8-0.4-1.1-0.6c-0.2-0.1-0.4-0.2-0.6-0.3c-0.2-0.1-0.4-0.2-0.5-0.3c-0.1-0.1-0.2-0.1-0.3-0.2l-0.1-0.1
			c-0.1-0.1-0.2-0.1-0.3-0.2l0,0l-1.7-0.7c0.1-0.1,0.3-0.3,0.4-0.4c-0.2-0.2-0.3-0.4-0.5-0.6c-1-1.4-2.9-3.9-2.9-5.8
			c4.5,0,9.8-1.6,14.2-3.8c-0.1,0.1-0.1,0.1-0.2,0.2c1.6-0.8,3-1.6,4.4-2.5c0.1,0,0.1-0.1,0.2-0.1l0.1-0.1c0.1-0.1,0.2-0.1,0.3-0.2
			s0.2-0.2,0.4-0.2c0.1-0.1,0.2-0.2,0.4-0.3c0.1-0.1,0.2-0.1,0.2-0.2c1.7-1.2,2.5-1.6,4.3-2.4c0.1-0.1,1.2-0.7,1.3-0.8l0,0
			c0.7-0.3,1.4-0.6,2.1-0.9c0,0,0,0.1,0.1,0.1l0,0c0,0.1,0,0.1,0.1,0.1c-0.1,0.1,0,0.1,0.1,0.1l0.1,0.1c0.4,0.5,0.8,1,1.3,1.5
			c2.2,2.5,4.8,4.8,7.4,6.8c1.4,1,2.7,1.9,4,2.8c3.5,2.2,7.6,4.3,11.8,4.8c2,0.3,4.1-0.3,6.2-0.9c0.1,0,0.1,0,0.2,0
			C125.2,104.3,125.1,104.4,125.1,104.5z"/>
		<path class="st3" d="M94.1,89C94.1,89,94.2,89.1,94.1,89c0.1,0.1,0.1,0.1,0.1,0.2"/>
		<path class="st4" d="M89,121.9c-1.4,0-2.8,0.1-3.5,0.8l0,0l0,0c-0.4,0.4-0.6,1.1-0.3,2c-0.1,0-0.2-0.1-0.3-0.1
			c-1.9-0.6-3.7-1.2-5.5-1.8c0.4-0.2,0.9-0.4,1.3-0.6c1.5-0.6,3.6-1.1,5.9-1.6C87.3,121.1,88.1,121.5,89,121.9z"/>
		<path class="st20" d="M125.8,49.3c-0.3,0.7-0.8,1.2-1.5,1.7c-0.1,0-0.1,0.1-0.2,0.1c0,0,0,0,0-0.1c0,0,0,0,0-0.1
			c0,0,0-0.1,0.1-0.2l0,0l0.1-0.1l0,0l0,0l0,0l0.1-0.1l1.1-1L125.8,49.3L125.8,49.3C125.8,49.4,125.8,49.3,125.8,49.3z"/>
		<path class="st20" d="M135.2,50.5c-0.3,0.9-1,1.7-2.1,2.2c-2.9,1.2-5.1-1.2-5.5-3.8l0,0c0.4,2.6,2.6,4.9,5.5,3.7
			C134.1,52.2,134.8,51.4,135.2,50.5z"/>
		<path class="st20" d="M135.2,50.5c0-0.1,0.1-0.2,0.1-0.3C135.3,50.3,135.3,50.4,135.2,50.5L135.2,50.5z"/>
		<path class="st20" d="M135.4,49.8c0,0.1,0,0.2-0.1,0.3v0.1c0,0,0,0,0,0.1v-0.1C135.4,50,135.4,49.9,135.4,49.8z"/>
		<path class="st14" d="M163.1,51.2c0,0.1-0.1,0.2-0.1,0.2l0,0c-0.7,1.5-1.2,3.2-1.7,4.8c-0.5,2-0.9,4-1.2,6
			c-0.2,0.2-0.3,0.4-0.4,0.6c-0.5,0.8-1,1.5-1.5,2.3c-3.9,4.9-7.6,10-11.5,14.9c-0.5,0.7-1,1.4-1.4,2.1c-2,2.6-3.9,5.3-5.7,8.1
			c-0.7,0.9-1.3,1.8-2,2.7c0.1-0.2,0.2-0.3,0.3-0.5c1.6-2.6,3.5-6.2,4.7-9.8c0.1-0.3,0.2-0.6,0.3-0.9c0.8-2.4,1.2-4.8,1.1-6.9
			c-0.2-3.2-0.1-7.8-3-9.8c-0.1-0.1-0.2-0.1-0.3-0.2c-0.7-0.4-1.4-0.7-2.1-0.9c-0.4-0.1-0.8-0.2-1.2-0.3c-0.6-0.7-1.2-1.4-1.7-2
			c1.8-0.8,3.3-2.3,4.3-4c1,0.8,2.1,1.9,2.5,2c2.2,1,4.7,1.2,7.1,0.9c2-0.3,3.9-1.3,5.5-2.5c0.2-0.1,0.3-0.4,0.4-0.6
			c0.2-0.4,0.1-0.9-0.2-1.2c-1.6-1.4-2.6-2.6-3.5-5.1c-0.2-0.5-0.3-1-0.5-1.4C155,50.2,159,50.6,163.1,51.2z"/>
		<path class="st4" d="M130,76.7c-4.8-1-9.9-1.4-14.4-2.6c0.1-0.1,0.1-0.2,0.1-0.2c0.6-1.1,1.1-2.4,1.6-3.6c0.3-0.8,0.5-1.5,0.8-2.2
			c0.1-0.3,0.2-0.5,0.3-0.8c0-0.1,0.1-0.2,0.1-0.3v-0.1c0.1-0.3,0.3-0.8,0.5-1.3h-0.1c0-0.1,0.1-0.2,0.1-0.3
			c0.2-0.4,0.4-0.8,0.6-1.3c0.6-2.7,0.9-5.5,1.8-8.1l0,0c0.7,1.7,2.1,3.3,3.7,4.2c0.2,0.1,0.3,0.2,0.4,0.2l0,0l0,0
			c2.1,1.1,4.7,1.7,7,1.7c0.9,0,1.7-0.1,2.6-0.5c0.1,0,0.2-0.1,0.2-0.1c0.6,0.6,1.1,1.3,1.7,2c0.4,0.1,0.8,0.2,1.2,0.3
			c0.7,0.2,1.4,0.5,2.1,0.9c0.1,0.1,0.2,0.1,0.3,0.2c2.9,2,2.9,6.6,3,9.8c0.1,2.1-0.3,4.5-1.1,6.9c0.7-2.3,1.1-4.6,1-6.7
			c-0.2-3.2-0.1-7.8-3.1-9.8c-0.1-0.1-0.2-0.1-0.3-0.2c0,0,0,0-0.1,0c-0.6-0.4-1.3-0.7-2-0.9c-1,1.5-2,3.3-2.9,4.8
			c-1.5,2.3-3,4.5-4.6,6.7C130.5,76,130.2,76.4,130,76.7z"/>
		<path class="st4" d="M139.4,90.2c1.8-2.8,3.7-5.4,5.7-8.1c-5,7.2-10.2,14.2-14.7,21.6c-0.6,0.7-1.3,1.3-1.9,2l0,0
			c-0.6,0.6-1.1,1.2-1.6,1.8l0,0c-2.3,2.7-4.4,5.6-6.5,8.5c0,0.1-0.1,0.1-0.1,0.2c-1.3,1.9-2.6,3.8-3.9,5.8
			c-0.1,0.1-0.1,0.2-0.2,0.2h-0.1c-1.1,0-2.2,0.1-3.3,0.1c2.5-1.8,5.1-3.7,6.7-6c2-2.9,3.2-6.3,4.6-9.5c0-0.1,0.1-0.2,0.1-0.4
			c0-0.1,0.1-0.1,0.1-0.2c0-0.2,0.1-0.4,0.2-0.6s0.1-0.3,0.2-0.5c0-0.1,0.1-0.3,0.1-0.4c0,0,0,0,0-0.1c0,0,0,0,0-0.1l0,0
			c-0.1,0-0.1,0-0.2,0c0.1,0,0.1,0,0.2-0.1c0.4-0.1,0.8-0.2,1.2-0.3c3.2-1.2,6.1-4.3,8.4-7.3c0.9-1.3,1.8-2.7,2.7-4
			C138.1,92,138.8,91.1,139.4,90.2z"/>
		<path class="st4" d="M155,56.3c0.3,0.3,0.4,0.8,0.2,1.2c0.1-0.3-0.1-0.7-0.3-0.9c-1.6-1.4-2.6-2.6-3.5-5.1
			c-0.2-0.6-0.4-1.1-0.6-1.7c0.1,0,0.1,0,0.2,0c0.2,0.5,0.3,1,0.5,1.4C152.4,53.7,153.3,54.9,155,56.3z"/>
		<path class="st4" d="M160.1,62.3c0,0.2-0.1,0.3-0.1,0.5c-0.6,0.8-1.3,1.5-1.9,2.3c0.5-0.7,1-1.5,1.5-2.3
			C159.8,62.7,159.9,62.5,160.1,62.3z"/>
		<path class="st15" d="M93.2,151.8c-0.6,0.7-1.1,1.4-1.6,2.1c-0.1,0.1-0.2,0.2-0.2,0.3c-0.4,0.6-0.8,1.2-1.2,1.8
			c-10.3-5.1-20.6-10.5-30.9-15.7l0,0c1.1-1.4,2.1-2.8,3.3-4.1C72.8,141.1,82.7,146.8,93.2,151.8C93.1,151.7,93.1,151.8,93.2,151.8z
			"/>
		<path class="st3" d="M93.3,88.2c-0.4,0.5-0.9,1.1-1.3,1.6l0,0c-0.1,0.1-1.2,0.7-1.3,0.8c-1.9,0.8-2.6,1.2-4.3,2.4
			c-0.1,0.1-0.2,0.1-0.2,0.2c-0.1,0.1-0.2,0.2-0.4,0.3c-0.1,0.1-0.2,0.2-0.4,0.2c-0.1,0.1-0.2,0.1-0.3,0.2L85,94
			c-0.1,0.1-0.1,0.1-0.2,0.1c-0.5,0.3-1,0.5-2.2,1.1c0.1-0.1-1.8,1-1.9,1l0,0c3.3-4.2,6.6-8.3,10-12.4c0.1,0.1,0.3,0.2,0.4,0.4
			C91.6,85.6,92.4,86.9,93.3,88.2z"/>
		<path class="st15" d="M124.6,50.5C124.6,50.5,124.6,50.6,124.6,50.5L124.6,50.5c-0.1,0.1-0.1,0.1-0.1,0.2s-0.1,0.2-0.1,0.2l0,0
			c0,0,0,0,0,0.1c-0.1,0-0.1,0.1-0.2,0.1c-0.1,0.1-0.3,0.1-0.4,0.2c-0.9,0.4-1.8,0.4-2.6,0.2l0,0c-0.1,0.6-0.1,1.1-0.2,1.7
			c-5.3,6.2-10.3,12.6-15.3,19.1c-0.3,0.5-0.7,0.9-1,1.4c-1.6,2.1-3.3,4.2-4.9,6.4c0,0.1-0.1,0.1-0.1,0.2c-1.1-1.2-2.1-2.4-3.1-3.1
			c0.1-0.1,0.1-0.1,0.2-0.2c2-2.3,4-4.5,6.1-6.7c4.8-5.6,9.9-16.4,15.7-21.9c0.4,1.5,1.4,2.8,2.7,3.2c0,0,0,0,0.1,0
			c0.8,0.3,1.6,0.2,2.6-0.2c0.2-0.1,0.3-0.1,0.5-0.2c0,0,0,0,0-0.1c0,0,0-0.1,0.1-0.2l0,0l0.1-0.1l0,0l0,0l0,0
			C124.5,50.6,124.6,50.5,124.6,50.5z"/>
		<path class="st3" d="M101,71.5c-1.2-1.8,0.2-5.2,2.5-3.3l0,0"/>
		<path class="st15" d="M106.8,74.3c-0.7,1-1.4,2-2.1,2.9v-0.1c-0.3-0.6-0.6-1.1-0.9-1.7l0.8-1.9l0.8-1.8c0.1,0.2,0.2,0.3,0.2,0.5
			C106,72.9,106.4,73.5,106.8,74.3C106.8,74.2,106.8,74.2,106.8,74.3z"/>
		<path class="st15" d="M161.1,120.3C161.1,120.3,161,120.3,161.1,120.3c-1.2,0.2-2.3,0.3-3.3,0.3c-0.2-0.1-0.4-0.1-0.6-0.2
			c-6.7-2.5-15.1-5.6-21.1-8.1c0.8-0.8,1.5-1.7,2.3-2.5l0,0c6.7,2.4,15.5,5.7,22.2,8.1h0.1C160.9,118.6,160.9,119.4,161.1,120.3z"/>
		<path class="st3" d="M160.6,117.8L160.6,117.8c-6.7-2.4-15.5-5.7-22.2-8.1l0,0l0,0c6.4-6.3,11.6-13.9,14.9-22.4
			c0,0.2,0.1,0.3,0.1,0.5c1.5,5.8,3,11.6,4.4,17.4c0,0.1,0,0.1,0,0.1c0.7,2.8,1.3,5.6,1.9,8.4c0,0.1,0,0.1,0,0.2
			C160.1,115.2,160.4,116.5,160.6,117.8z"/>
		<line class="st3" x1="136.1" y1="112.2" x2="136.1" y2="112.2"/>
		<path class="st3" d="M22.8,120.6L22.8,120.6c0.1,0.3,0.3,0.8,0.5,1.6"/>
		<path class="st4" d="M28.2,126.9c-2.4,1.9-4.4,4.3-5.9,6.9c-0.5,0.8-0.9,1.6-1.2,2.5c-0.7-1.5-1.3-3-1.8-4.5
			c0.2-0.3,0.4-0.5,0.6-0.8l0,0c0.4-0.5,0.9-1,1.3-1.5c0.1-0.1,0.2-0.2,0.3-0.3c1.6-1.8,3.5-3.5,5.4-5
			C27.1,125.3,27.5,126.3,28.2,126.9z"/>
		<path class="st7" d="M26.9,124.3c-1.9,1.5-3.7,3.2-5.4,5c-0.1,0.1-0.2,0.2-0.3,0.3c-0.4,0.5-0.9,1-1.3,1.5l0,0
			c-0.2,0.1-0.3,0.2-0.4,0.1c-0.3-0.4-0.6-0.8-0.8-1.2l0,0l0,0c-0.1-0.4-0.2-0.8-0.3-1.2l0,0l0,0l0,0c0-0.6-0.1-0.8-0.2-0.9v-0.1
			l0,0c-0.1-0.5-0.1-0.9,0.1-1.3c0.1-0.2,0.4-0.4,0.7-0.4c-0.2-0.6-0.4-1.2-0.3-1.8c0.1-0.7,0.5-1.4,1.2-1.6c0.2-0.1,0.5-0.1,0.7,0
			l0,0c-0.2-0.8-0.2-1.7,0.5-2.2c0.5-0.3,1.2-0.2,1.7,0.1c0,0.2,0.1,0.3,0.1,0.1l0,0c0-0.3,0-0.7,0-1c0,0,0,0,0-0.1s0-0.1,0-0.2l0,0
			c0.2-0.9,0.8-1.8,1.6-2c0.1,0,0.2,0,0.2,0l0,0c0,0,0,0,0.1,0h0.1H25c0.1,0,0.1,0,0.2,0.1l0,0c0,0,0,0,0.1,0c0,0,0.1,0,0.1,0.1l0,0
			l0,0c0.1,0,0.1,0.1,0.1,0.1l0,0l0.1,0.1c0,0,0,0,0.1,0.1c0,0,0,0,0.1,0.1l0.1,0.1c0,0,0.1,0.1,0.1,0.2c0,0.2,0.1,0.3,0.2,0.5v0.1
			c0.6,1.7,0.3,3.6,0.5,5.4C26.8,124.1,26.8,124.2,26.9,124.3z"/>
		<path class="st7" d="M18.2,127.7L18.2,127.7C18.1,127.8,18.1,127.8,18.2,127.7z"/>
		<path class="st7" d="M18.4,128.8c0.1,0.4,0.2,0.8,0.3,1.2C18.5,129.6,18.4,129.2,18.4,128.8C18.4,128.7,18.4,128.8,18.4,128.8z"/>
		<path class="st7" d="M19.9,131.1c0.4-0.5,0.9-1,1.3-1.5C20.7,130.2,20.2,130.8,19.9,131.1z"/>
		<path class="st7" d="M24.3,117.2c0.2,0,0.3-0.1,0.4-0.1c-0.1,0-0.2,0-0.2,0c-0.8,0.2-1.4,1.1-1.6,2c0-0.2,0.1-0.4,0.1-0.6
			C23.2,118,23.6,117.4,24.3,117.2z"/>
		<path class="st7" d="M25.4,117.4c0.1,0,0.1,0.1,0.2,0.1l0,0C25.5,117.5,25.5,117.4,25.4,117.4z"/>
		<path class="st3" d="M26.2,118.5c-0.1-0.2-0.1-0.3-0.2-0.5"/>
		<path class="st3" d="M20.6,122.5C20.6,122.6,20.6,122.6,20.6,122.5c0.3,1.3,0.2,1.2,0.7,2.4"/>
		<path class="st3" d="M19.4,127c-0.1-0.7-0.1-0.2-0.3-0.9c0-0.1,0-0.1-0.1-0.2"/>
		<path class="st4" d="M28.6,141.2c-0.7,0.5-1.5,0.9-2.4,1c-0.3,0.1-0.6,0.1-0.9,0.1c-2.8,0-4.2-2.1-5.4-4.4
			c-0.1-0.2-0.2-0.4-0.3-0.7c-0.1-0.2-0.2-0.4-0.2-0.6c-0.1-0.2-0.2-0.4-0.2-0.5c-0.1-0.2-0.1-0.3-0.2-0.5c-0.6-1.3-1-2.5-1.3-3.8
			c-0.3-1.2-0.4-2.3-0.5-3.6c0-0.5-0.1-1-0.1-1.5c0-1.5,0-3,0.4-4.5c0.2-0.7,0.4-1.4,0.7-2c0.4-0.6,0.9-1.1,1.4-1.7
			c0.8-1.1,1.9-2,3.1-2.6c0.8-0.5,2-0.8,2.6-0.1c0.5,0.5,0.4,1.4,0.6,2.1c0-0.1-0.1-0.1-0.1-0.2c0,0,0-0.1-0.1-0.1c0,0,0,0-0.1-0.1
			c0,0,0,0-0.1-0.1l-0.1-0.1l0,0l-0.1-0.1l0,0l0,0c0,0-0.1,0-0.1-0.1c0,0,0,0-0.1,0l0,0c-0.1,0-0.1,0-0.2-0.1h-0.1h-0.1
			c0,0,0,0-0.1,0l0,0c-0.1,0-0.2,0-0.2,0c-0.8,0.2-1.4,1.1-1.6,2l0,0c0,0,0,0,0,0.1c0,0,0,0,0,0.1c0,0,0,0,0,0.1l0,0l0,0v0.1
			c0,0.3,0,0.7,0,1l0,0l0,0c0-0.1-0.1-0.2-0.1-0.3l0,0l0,0l0,0v0.1l0,0c0,0.1,0,0.1,0,0.2c-0.5-0.3-1.2-0.5-1.7-0.1
			c-0.6,0.4-0.6,1.4-0.5,2.2l0,0c-0.2-0.1-0.5-0.1-0.7,0c-0.7,0.2-1.1,0.9-1.2,1.6c-0.1,0.6,0.1,1.3,0.3,1.8c-0.3,0-0.6,0.2-0.7,0.4
			c-0.2,0.4-0.2,0.9-0.1,1.3l0,0v0.1c0,0.1,0,0.1,0,0.2c0.1,0.2,0.1,0.5,0.2,0.7l0,0l0,0c0.1,0.4,0.2,0.8,0.3,1.2l0,0l0,0
			c0.2,0.6,0.4,1.2,0.6,1.9c0.5,1.5,1.1,3.1,1.8,4.5l0,0c0.1,0.1,0.1,0.3,0.2,0.4c0.3,0.5,0.5,1.1,0.8,1.6c0.4,0.7,0.8,1.4,1.4,1.9
			c0.7,0.5,1.5,0.8,2.3,0.9l0,0c0.1,0,0.2,0,0.3,0C27,141.3,27.8,141.3,28.6,141.2z"/>
		<path class="st3" d="M22.7,120.5C22.8,120.5,22.8,120.5,22.7,120.5C22.8,120.6,22.8,120.6,22.7,120.5
			C22.6,120,22.7,120.3,22.7,120.5z"/>
		<path class="st3" d="M26.3,118.6C26.3,118.5,26.3,118.5,26.3,118.6"/>
		<path class="st7" d="M55.3,126.6C55.3,126.6,55.3,126.7,55.3,126.6c-0.2,0.2-0.2,0.3-0.3,0.4c0,0,0,0.1-0.1,0.1
			c-0.1,0.2-0.3,0.5-0.4,0.7c-0.1,0.1-0.2,0.1-0.3,0.2s-0.2,0.1-0.2,0.1C54.5,127.7,54.9,127.2,55.3,126.6z"/>
		<path class="st7" d="M31.2,139.1c-0.1,0-0.1-0.1-0.2-0.1c0,0-0.1,0-0.1-0.1c0,0-0.1,0-0.1-0.1l0,0c0,0-0.1,0-0.1-0.1l0,0l0,0h-0.1
			c-0.1,0-0.2,0-0.2,0c-0.1,0-0.1,0-0.2,0l0,0h-0.1H30l0,0c-0.1,0-0.1,0-0.2,0.1c0,0,0,0-0.1,0c-0.6,0.4-0.9,1.3-0.9,2.2l0,0
			c-0.3,0-0.7,0-1-0.1c-0.5-0.1-1.1-0.2-1.6-0.3l0,0c0.4-0.8,0.9-1.6,1.5-2.3s1.6-1.4,2.4-1C30.6,137.6,30.8,138.5,31.2,139.1z"/>
		<path class="st7" d="M31.6,139.4c-0.2-0.1-0.3-0.2-0.4-0.4C31.4,139.2,31.5,139.3,31.6,139.4z"/>
		<path class="st7" d="M55.5,126.7l-0.9,1.2c0.2-0.2,0.3-0.5,0.4-0.7c0,0,0-0.1,0.1-0.1c0.1-0.1,0.1-0.2,0.2-0.3h0.1L55.5,126.7
			L55.5,126.7z"/>
		<path class="st3" d="M18.4,132.2L18.4,132.2c0.1,0.3,0.3,0.8,0.5,1.6"/>
		<path class="st3" d="M21.8,130.1c-0.1-0.2-0.1-0.3-0.2-0.5"/>
		<path class="st3" d="M18.3,132.1C18.3,132.1,18.3,132.2,18.3,132.1C18.4,132.2,18.4,132.2,18.3,132.1
			C18.2,131.6,18.2,131.9,18.3,132.1z"/>
		<path class="st3" d="M21.9,130.2l-0.1-0.1"/>
		<path class="st21" d="M155.2,57.5c-0.1,0.1-0.1,0.2-0.3,0.3c-1.6,1.2-3.5,2.2-5.5,2.5c-2.4,0.4-4.9,0.1-7.1-0.9
			c-0.4-0.2-1.5-1.2-2.5-2c0.5-0.9,0.9-1.9,1.1-2.9c0.1-0.6,0.2-1.1,0.2-1.7c0-0.2,0-0.4,0.1-0.6c0.7,0.2,1.3-0.3,1.7-2.1
			c0.1-0.4,0.1-0.8,0.2-1.2c0.2-1.5,0.2-3.2-0.4-4.5c-1.6-3.7-3.7-0.4-6,0.2c-1.3-2.8,1.5-5-3-4.8c-1.1,0.1-2.9,0.8-3.8,0
			c-0.7-0.6-0.6-2.7-0.7-3.6c-1.5,1-1.2,3.5-2.6,4.3c0,0-0.1,0-0.1,0.1c-0.6,0.2-2.1,0.1-3,0c0,0.1-0.1,0.2-0.1,0.2
			c-0.7-0.1-1.3-0.2-1.7-0.3c-0.8-0.3-1.6-1.2-2.3-1.6c0.9-0.4,1.2-1.3,1.6-2.1c1.7-3.5,3.8-6.3,7.8-7.2c3.5-0.8,7.5-0.3,10.8,1
			c1.4,0.6,2.8,1.6,4,2.6c2.3,2.1,3.7,4.9,4.7,7.8c1,2.8,1.6,5.7,2.5,8.5c0,0.1,0.1,0.2,0.1,0.3c0.2,0.5,0.3,1,0.5,1.4
			c0.9,2.5,1.9,3.7,3.5,5.1C155.3,56.6,155.4,57.1,155.2,57.5z"/>
		<path class="st4" d="M126.5,40.6c-0.6,0.3-2,0.3-3.1,0.3c0-0.1,0.1-0.2,0.1-0.2C124.5,40.7,125.9,40.8,126.5,40.6z"/>
		<path class="st3" d="M138.3,50.1c1,0.8,2,1.9,2.9,2.1"/>
		<path class="st22" d="M135.6,48.6c0,0.1,0,0.2,0,0.3v0.3c0,0.1,0,0.2,0,0.2c0,0.2-0.1,0.4-0.2,0.6c0-0.1,0.1-0.2,0.1-0.3
			c0,0.1,0,0.2-0.1,0.4c-0.3,1-1.1,1.8-2.2,2.3c-2.9,1.2-5.1-1.2-5.5-3.7v-0.1v-0.1l0,0c-0.5-0.1-1-0.3-1.4-0.4
			c0,0.1-0.1,0.3-0.1,0.4c0,0.1-0.1,0.3-0.2,0.4c0,0.1-0.1,0.1-0.1,0.2l-1.2,1.1l-0.1,0.1c0,0-0.3,0.3-0.3,0.4c0,0,0,0,0,0.1
			c-0.1,0.1-0.3,0.2-0.5,0.2c-1,0.4-1.9,0.4-2.6,0.1c-1.3-0.5-2.3-1.8-2.7-3.2c-0.3-1.1-0.2-2.4,0.3-3.4c0.7-1.4,2.5-2.3,4-1.9l0,0
			l0,0c1.9,0.5,3.2,2.2,3.4,4c0,0.1,0,0.2,0,0.4c0.3,0,0.9,0.2,1.4,0.4c0.1-0.5,0.2-1,0.5-1.5c0.7-1.4,2.5-2.3,4-1.9
			c1.8,0.5,3,2,3.3,3.6c0,0.1,0,0.2,0.1,0.3c0,0.1,0,0.2,0,0.4C135.6,48.5,135.6,48.6,135.6,48.6z"/>
		<path class="st21" d="M135.4,49.8c0,0.1,0,0.2-0.1,0.3c0,0,0,0,0,0.1C135.4,50,135.4,49.9,135.4,49.8z"/>
		<path class="st4" d="M125.9,49.1c-0.1,0.1-0.1,0.2-0.2,0.4l0,0c-0.3,0.4-0.6,0.8-1.1,1.1l0,0c0,0-0.1,0-0.1,0.1l0,0l0,0l-0.1,0.1
			c0,0,0,0,0-0.1s0.2-0.3,0.3-0.4l0.1-0.1L125.9,49.1z"/>
		<path class="st4" d="M126.2,46.7c-0.2-1.8-1.5-3.5-3.4-4l0,0C124.8,43.2,126,44.9,126.2,46.7z"/>
		<path class="st4" d="M135.5,47.7c-0.4-1.6-1.6-3.1-3.3-3.6c-1.6-0.4-3.3,0.5-4,1.9c-0.3,0.5-0.4,1-0.5,1.5c-0.5-0.2-1-0.4-1.4-0.4
			c0-0.1,0-0.2,0-0.4c0,0.1,0,0.2,0,0.3c0.3,0.1,0.9,0.2,1.4,0.4c0.1-0.5,0.2-1,0.5-1.5c0.7-1.4,2.5-2.3,4-1.9
			C133.9,44.5,135.1,46,135.5,47.7z"/>
		<path class="st19" d="M140.3,65.1c-2.6,3.9-5.3,7.9-7.8,12c-1.7,2.8-2.9,5.7-4.1,8.7c-0.8,1.8-2.3,3.3-3.3,5
			c-0.5,0.7-0.9,1.7-1.3,2.6c-4.5-0.2-7.9-1.4-12-3.8c-0.9-0.5-1.8-1-2.7-1.5c-1.8-1.1-3.5-2.2-5.1-3.5c0.3-0.5,0.6-1,1-1.5l0,0
			c0.6-0.9,1.2-1.8,1.9-2.7c0.7-1,1.4-1.9,2.1-2.9c2.9-4,5.7-8.1,7.2-12.4c0.6-0.1,1.3,0,2,0.3c0.2,0,0.5,0,0.8,0l0,0
			c0,0.1-0.1,0.2-0.1,0.3h0.1c-0.2,0.6-0.4,1-0.5,1.3v0.1v0.1c0,0.1-0.1,0.2-0.1,0.2c-0.1,0.2-0.2,0.5-0.3,0.8
			c-0.7,1.9-1.4,4-2.4,5.8l0,0c0,0.1-0.1,0.2-0.1,0.2c4.6,1.1,9.6,1.5,14.4,2.6c0.3-0.4,0.5-0.8,0.8-1.1c1.6-2.2,3.1-4.4,4.6-6.7
			c0.9-1.4,2-3.2,2.9-4.8C139,64.4,139.7,64.7,140.3,65.1z"/>
		<path class="st3" d="M119.1,65.4c0,0.1-0.1,0.2-0.1,0.3h-0.1C119,65.6,119,65.5,119.1,65.4L119.1,65.4z"/>
		<path class="st3" d="M140.5,64.8c-0.1,0.1-0.1,0.1-0.1,0.2c-0.6-0.4-1.3-0.7-2-0.9c-1,1.5-2,3.3-2.9,4.8c-1.5,2.3-3,4.5-4.6,6.7
			c-0.3,0.4-0.5,0.8-0.8,1.1c-4.8-1-9.9-1.4-14.4-2.6c0.1-0.1,0.1-0.2,0.1-0.2c0.3,0.1,0.6,0.1,0.9,0.2c0.4,0.1,0.8,0.2,1.2,0.3
			c0.3,0.1,0.6,0.1,1,0.2c0.7,0.1,1.4,0.3,2.2,0.4c0.6,0.1,1.1,0.2,1.7,0.3c0.6,0.1,1.2,0.2,1.7,0.3c0.7,0.1,1.4,0.2,2.1,0.3
			c0.4,0.1,0.8,0.1,1.2,0.2c0.2,0,0.5,0.1,0.7,0.1c0.1,0,0.2,0,0.3,0.1l0.7,0.1c0.2,0,0.5,0.1,0.7,0.2c0.2-0.4,0.5-0.8,0.8-1.1
			c1.6-2.2,3.1-4.4,4.6-6.7c0.9-1.4,1.9-3.2,2.9-4.8C139.1,64.1,139.8,64.5,140.5,64.8z"/>
		<path class="st16" d="M138.4,63.9c-1,1.6-2,3.3-2.9,4.8c-1.5,2.3-3,4.5-4.6,6.7c-0.3,0.4-0.5,0.8-0.8,1.1
			c-0.2-0.1-0.5-0.1-0.7-0.2l-0.7-0.1c-0.1,0-0.2,0-0.3-0.1c-0.2,0-0.5-0.1-0.7-0.1c-0.4-0.1-0.8-0.1-1.2-0.2
			c-0.7-0.1-1.4-0.2-2.1-0.3c-0.6-0.1-1.2-0.2-1.7-0.3c-0.6-0.1-1.1-0.2-1.7-0.3c-0.7-0.1-1.5-0.2-2.2-0.4c-0.3-0.1-0.7-0.1-1-0.2
			c-0.4-0.1-0.8-0.2-1.2-0.3c-0.3-0.1-0.6-0.1-0.9-0.2l0,0c0.6-1.1,1.1-2.4,1.6-3.6c0.3-0.8,0.5-1.5,0.8-2.2
			c0.1-0.3,0.2-0.5,0.3-0.8c0-0.1,0.1-0.2,0.1-0.2v-0.1v-0.1c0.1-0.3,0.3-0.7,0.5-1.3c0-0.1,0.1-0.2,0.1-0.3c0.5,0,1,0,1.5,0
			c2.2-1.3,3.7-2.8,5-4.9l0,0c0-0.1,0.1-0.2,0.1-0.2c2.1,1.1,4.7,1.7,7,1.7c0.9,0,1.8-0.2,2.6-0.5c0,0.1,0.1,0.1,0.1,0.2
			c0.6,0.6,1.1,1.3,1.7,2C137.6,63.7,138,63.8,138.4,63.9z"/>
		<path class="st16" d="M137.5,92.6c-0.7,1.2-1.7,2.6-2.7,3.9C135.7,95.2,136.6,93.9,137.5,92.6z"/>
		<path class="st3" d="M94.7,88.6c-0.1,0.2-0.3,0.4-0.4,0.6l0,0c0,0,0-0.1-0.1-0.1l0,0c0,0,0-0.1-0.1-0.1c0,0,0,0-0.1-0.1l0,0
			c0,0,0-0.1-0.1-0.1c0,0,0,0,0.1,0C94.3,88.8,94.5,88.7,94.7,88.6z"/>
		<path class="st17" d="M116.3,65.1c-1.6,4.3-4.4,8.4-7.2,12.4c-0.7,1-1.4,2-2.1,2.9c-0.6,0.9-1.3,1.8-1.9,2.7l0,0
			c-0.4,0.4-1,0.7-1.6,0.9l0,0l-0.1-0.1c-0.8-0.7-1.6-1.7-2.5-2.7c1.2-1,2.5-2.5,3.8-4.2c0,0,0,0,0,0.1c0.7-1,1.4-2,2.1-2.9v-0.1
			c0-0.1,0.1-0.1,0.1-0.2c1.5-2.1,2.8-4.1,3.6-5C112.1,67,114,65.2,116.3,65.1z"/>
		<path class="st3" d="M106.8,74.3c-0.7,1-1.4,2-2.1,2.9v-0.1c0-0.1,0.1-0.1,0.1-0.2C105.5,76,106.1,75.1,106.8,74.3
			C106.8,74.2,106.8,74.2,106.8,74.3z"/>
		<path class="st3" d="M105,83.1c-0.3,0.5-0.7,1-1,1.5c-0.2-0.2-0.4-0.3-0.6-0.5C104,83.8,104.6,83.5,105,83.1z"/>
		<path class="st3" d="M91,83.8"/>
		<path class="st3" d="M126.4,103.9c-0.4,0.1-0.8,0.3-1.2,0.3"/>
		<path class="st17" d="M142.7,44.4c-1.6-3.7-3.7-0.4-6,0.2c-1.3-2.8,1.5-5-3-4.8c-1.1,0.1-2.9,0.8-3.8,0c-0.7-0.6-0.6-2.7-0.7-3.6
			c-1.5,1-1.2,3.5-2.6,4.3c0,0-0.1,0-0.1,0.1c-0.6,0.3-2,0.3-3.1,0.2c-0.3,0.6-0.5,1.2-0.6,1.8c1.9,0.5,3.2,2.3,3.4,4
			c0,0.1,0,0.2,0,0.3c0.3,0.1,0.9,0.2,1.4,0.4c0.1-0.5,0.2-1,0.5-1.5c0.7-1.4,2.5-2.3,4-1.9c1.8,0.5,3,2,3.3,3.6
			c0,0.1,0,0.2,0.1,0.3c0,0.1,0,0.2,0,0.4c0,0.1,0,0.2,0,0.3s0,0.2,0,0.3v0.3c0,0.1,0,0.2,0,0.2c0,0.2-0.1,0.4-0.2,0.6V50
			c0,0,0,0,0,0.1s-0.1,0.2-0.1,0.3c-0.4,0.8-1.1,1.6-2.1,2c-2.9,1.2-5.1-1.2-5.5-3.8v-0.1v-0.1c-0.5-0.1-1-0.3-1.4-0.4
			c0,0.1-0.1,0.3-0.1,0.4c0,0.1-0.1,0.3-0.1,0.4h0.1c-0.1,0.1-0.1,0.1-0.2,0.2c0,0.1-0.1,0.2-0.2,0.3l0.1-0.1l0,0
			c-0.3,0.7-0.8,1.2-1.5,1.7c-0.1,0-0.1,0.1-0.2,0.1c-0.1,0.1-0.3,0.1-0.4,0.2c-0.9,0.4-1.8,0.4-2.6,0.2c-0.1,0.5-0.1,0.9-0.1,1.4
			c0,1,0.1,2,0.5,2.8l0,0c0.7,1.7,2,3.3,3.6,4.2c0.2,0.1,0.3,0.2,0.5,0.3c2.1,1.1,4.7,1.7,7,1.7c0.9,0,1.8-0.2,2.6-0.5
			c1.9-0.7,3.5-2.3,4.6-4.2c0.5-0.9,0.9-1.9,1.1-2.9c0.1-0.6,0.2-1.1,0.2-1.7c0-0.2,0-0.4,0.1-0.6c0.7,0.2,1.3-0.3,1.7-2.1
			c0.1-0.4,0.1-0.8,0.2-1.2C143.3,47.4,143.3,45.7,142.7,44.4z M133,52.7c-2.9,1.2-5.1-1.2-5.5-3.8l0,0
			C128,51.5,130.2,53.9,133,52.7c1.1-0.5,1.8-1.3,2.1-2.2C134.8,51.4,134.2,52.2,133,52.7z"/>
		<path class="st3" d="M125.8,49.4C125.8,49.4,125.8,49.3,125.8,49.4c-0.3,0.6-0.7,1.2-1.4,1.6c-0.1,0-0.1,0.1-0.2,0.1
			c-0.1,0.1-0.3,0.1-0.4,0.2c-0.9,0.4-1.8,0.4-2.6,0.2l0,0c0-0.1,0-0.2,0-0.2c0.8,0.3,1.7,0.3,2.6-0.1c0.1-0.1,0.3-0.1,0.4-0.2
			c0,0,0.1,0,0.1-0.1l0,0c0,0,0,0,0.1,0c0,0,0.1,0,0.1-0.1C125,50.3,125.4,49.9,125.8,49.4L125.8,49.4z"/>
		<path class="st3" d="M135.3,50.1c-0.3,1.1-1,2-2.3,2.6c-2.9,1.2-5.1-1.2-5.5-3.8l0,0c0.4,2.6,2.6,5,5.5,3.7
			c1.1-0.5,1.8-1.3,2.2-2.3C135.3,50.3,135.3,50.3,135.3,50.1C135.3,50.2,135.3,50.2,135.3,50.1z"/>
		<path class="st16" d="M126.5,40.6c-0.6,0.3-2,0.3-3.1,0.3c0-0.1,0.1-0.2,0.1-0.2C124.5,40.7,125.9,40.8,126.5,40.6z"/>
		<path class="st16" d="M126.1,48.9c-0.1,0.1-0.1,0.1-0.2,0.2C125.9,49,126,49,126.1,48.9L126.1,48.9z"/>
		<path class="st16" d="M126.2,46.7c-0.2-1.8-1.5-3.5-3.4-4l0,0C124.8,43.2,126,44.9,126.2,46.7z"/>
		<path class="st16" d="M135.5,47.7c-0.4-1.6-1.6-3.1-3.3-3.6c-1.6-0.4-3.3,0.5-4,1.9c-0.3,0.5-0.4,1-0.5,1.5
			c-0.5-0.2-1-0.4-1.4-0.4c0-0.1,0-0.2,0-0.4c0,0.1,0,0.2,0,0.3c0.3,0.1,0.9,0.2,1.4,0.4c0.1-0.5,0.2-1,0.5-1.5
			c0.7-1.4,2.5-2.3,4-1.9C133.9,44.5,135.1,46,135.5,47.7z"/>
		<path class="st3" d="M125.7,60.2L125.7,60.2"/>
		<path class="st3" d="M29.2,142.6L29.2,142.6c0.2,0.3,0.6,0.7,1,1.3"/>
		<path class="st4" d="M36.5,146.6c-1.6,2.6-2.6,5.6-3.1,8.6c-0.1,0.9-0.2,1.8-0.2,2.8c-1.2-1.1-2.3-2.3-3.3-3.6
			c0.1-0.3,0.2-0.6,0.3-0.9c0.2-0.6,0.4-1.2,0.7-1.9c0.1-0.1,0.1-0.3,0.2-0.4c0.9-2.3,2-4.5,3.3-6.6
			C34.8,145.5,35.6,146.3,36.5,146.6z"/>
		<path class="st7" d="M34.3,144.7c-1.3,2.1-2.4,4.3-3.3,6.6c-0.1,0.1-0.1,0.3-0.2,0.4c-0.2,0.6-0.5,1.2-0.7,1.9
			c-0.1,0.2-0.2,0.3-0.3,0.2c-0.4-0.2-0.8-0.5-1.2-0.8l0,0c-0.2-0.3-0.5-0.7-0.7-1l0,0c0,0,0,0,0-0.1c-0.2-0.6-0.4-0.7-0.5-0.7
			c0,0,0-0.1-0.1-0.1l0,0c-0.2-0.4-0.4-0.8-0.3-1.3c0-0.3,0.3-0.5,0.5-0.7c-0.4-0.5-0.8-1-0.9-1.6c-0.2-0.7,0-1.5,0.5-1.9
			c0.2-0.1,0.4-0.2,0.6-0.2c-0.4-0.7-0.8-1.5-0.3-2.2c0.3-0.5,1-0.6,1.6-0.5c0.1,0.1,0.2,0.2,0.1,0.1l0,0c-0.2-0.3-0.3-0.7-0.4-1
			l0,0c0,0,0,0,0-0.1v-0.1c0-0.1,0-0.2,0-0.4c-0.1-0.9,0.2-1.8,0.9-2.2c0,0,0,0,0.1,0c0,0,0.1-0.1,0.2-0.1l0,0H30h0.1l0,0
			c0.1,0,0.1,0,0.2,0s0.2,0,0.2,0c0.1,0,0.1,0,0.1,0l0,0l0,0c0,0,0.1,0,0.1,0.1l0,0c0,0,0.1,0,0.1,0.1c0,0,0.1,0,0.1,0.1
			c0.1,0,0.1,0.1,0.2,0.1c0.1,0.2,0.2,0.3,0.4,0.4c0,0,0.1,0,0.1,0.1c0.3,0.3,0.5,0.7,0.7,1c0,0.1,0.1,0.1,0.1,0.2
			c0.6,1.1,1,2.4,1.6,3.6C34.2,144.5,34.2,144.6,34.3,144.7z"/>
		<path class="st7" d="M28.7,141c0,0.1,0,0.2,0,0.4C28.7,141.3,28.7,141.2,28.7,141c-0.1-0.1-0.1-0.2-0.1-0.3c0-0.7,0.2-1.3,0.7-1.7
			c0.1,0,0.1-0.1,0.2-0.1C28.9,139.3,28.6,140.2,28.7,141z"/>
		<path class="st3" d="M27.8,145.3L27.8,145.3c0.7,1.1,0.6,1.1,1.5,1.9"/>
		<path class="st4" d="M42,159.8c-0.5,0.7-1.1,1.4-1.8,1.8c-2.9,1.7-5.3,0.2-7.3-1.8c-0.2-0.2-0.4-0.3-0.5-0.5
			c-0.2-0.2-0.3-0.3-0.4-0.4c-0.1-0.1-0.3-0.3-0.4-0.4c-0.1-0.1-0.2-0.2-0.4-0.4c-1-1-1.8-2-2.5-3.1c-0.7-1-1.3-2-1.8-3.2
			c-0.2-0.4-0.4-0.9-0.6-1.3c-0.6-1.4-1-2.8-1.3-4.3c-0.1-0.7-0.2-1.5-0.1-2.2c0.1-0.6,0.4-1.1,0.6-1.7c0-0.1,0.1-0.2,0.1-0.4
			s0.1-0.3,0.2-0.5c0-0.1,0.1-0.2,0.1-0.3c0.1-0.2,0.1-0.4,0.2-0.6c0.4-0.8,0.9-1.6,1.5-2.3s1.6-1.4,2.4-1c0.6,0.3,0.8,1.2,1.3,1.8
			c-0.1,0-0.1-0.1-0.2-0.1c0,0-0.1,0-0.1-0.1c0,0-0.1,0-0.1-0.1l0,0c0,0-0.1,0-0.1-0.1l0,0l0,0h-0.1c-0.1,0-0.2,0-0.2,0
			c-0.1,0-0.1,0-0.2,0l0,0h-0.1h-0.1l0,0c-0.1,0-0.1,0-0.2,0.1c0,0,0,0-0.1,0c-0.6,0.4-0.9,1.3-0.9,2.2c0,0.1,0,0.2,0,0.4v0.1
			c0,0,0,0,0,0.1l0,0c0.1,0.3,0.2,0.7,0.4,1l0,0c-0.2-0.2-0.2-0.3-0.2-0.3l0,0c0,0,0,0.1,0.1,0.1l0.1,0.1c-0.6-0.1-1.3,0-1.6,0.5
			c-0.4,0.6-0.1,1.5,0.3,2.2c-0.2,0-0.5,0.1-0.6,0.2c-0.5,0.4-0.7,1.2-0.5,1.9c0.1,0.6,0.5,1.1,0.9,1.6c-0.2,0.1-0.5,0.4-0.5,0.7
			c-0.1,0.4,0.1,0.9,0.3,1.3l0,0c0,0,0,0.1,0.1,0.1c0,0.1,0.1,0.1,0.1,0.2c0.1,0.2,0.3,0.4,0.4,0.6l0,0c0.2,0.3,0.5,0.7,0.7,1l0,0
			c0.4,0.5,0.8,1,1.2,1.5c1,1.3,2.1,2.5,3.3,3.6c0.1,0.1,0.2,0.2,0.4,0.3c0.4,0.4,0.9,0.8,1.3,1.2c0.6,0.5,1.2,1,1.9,1.2
			c0.9,0.3,1.9,0.2,2.8-0.1C40.5,160.5,41.2,160.2,42,159.8z"/>
		<path class="st3" d="M29.1,142.6L29.1,142.6C29.2,142.6,29.2,142.6,29.1,142.6C28.8,142.1,28.9,142.4,29.1,142.6z"/>
		<path class="st3" d="M31.7,139.5c0,0-0.1,0-0.1-0.1"/>
		<path class="st3" d="M105.1,83C105.1,83.1,105,83.1,105.1,83"/>
		<path class="st3" d="M125.1,104.5L125.1,104.5L125.1,104.5c-0.1,0-0.1,0-0.2,0.1C125,104.5,125,104.5,125.1,104.5z"/>
		<path class="st3" d="M105.8,126.9c-1.6,0-3.2,0-4.8,0.1"/>
		<path class="st3" d="M125.2,104.2L125.2,104.2"/>
		<path class="st3" d="M76.1,110.8c-1.9,0.3-3.8,0.6-5.5,1.2c-2.6,0.9-4.9,2.3-7,4.1c-0.7,0.6-1.3,1.2-1.9,1.8l0,0l-0.5,0.7
			c0.1-0.1,0.3-0.3,0.4-0.4l0,0c0.6-0.6,1.3-1.3,1.9-1.8c2.1-1.8,4.4-3.3,7-4.1c1.8-0.6,3.8-1,5.8-1.2
			C76.3,111,76.2,110.9,76.1,110.8z"/>
		<path class="st17" d="M86.6,120.4c-2.3,0.5-4.3,1-5.9,1.6c-0.4,0.2-0.9,0.4-1.3,0.5c-6.8,3-12.2,7.7-16.9,13.2
			c-1.1,1.3-2.2,2.7-3.3,4.1c-1.8,2.4-1.9,2.4-2,2.6c-0.1,0.1-0.1,0.2-1.6,2.7c-3.1,3.6-5.7,8.5-8.9,11.1c-0.6,0.5-0.7,0.6-0.8,0.6
			l0,0l-1.2,0.9c-0.9,0.7-1.9,1.3-2.8,1.8c-0.7,0.4-1.5,0.7-2.3,0.9c-0.9,0.2-1.9,0.4-2.8,0.1c-0.7-0.2-1.3-0.7-1.9-1.2
			c-0.4-0.4-0.9-0.8-1.3-1.2c-0.1-0.1-0.2-0.2-0.4-0.3c0-0.9,0.1-1.9,0.2-2.8c0.4-3,1.5-6,3.1-8.6c0.6,0.3,1.3,0.3,2,0.1
			c0.6-0.2,1.1-0.8,1.6-1.2c2.7-2.8,3.1-3.3,5.1-5.2l0,0c0,0,0,0,0.1,0c0.4-0.3,0.8-0.7,1.3-1.2c3-3.4,5.8-7.2,8-11.2l0.9-1.2
			l0.7-0.9l0,0l1-1.4l0,0l4-5.6l0,0c0.1-0.1,0.3-0.3,0.4-0.4l0,0c0.6-0.6,1.3-1.2,2-1.8c2.1-1.8,4.4-3.3,7-4.1
			c1.8-0.6,3.8-1,5.8-1.2c-0.1-0.1-0.2-0.1-0.3-0.2c0.1,0,0.2,0,0.4,0c0.3,0.2,0.7,0.5,1,0.8c2.5,2.5,4.3,5.7,7.3,7.7
			C85.3,119.7,86,120.1,86.6,120.4z"/>
		<path class="st7" d="M50.5,79.2"/>
		<path class="st16" d="M83.7,78.7c-0.3-0.3-0.7-0.7-1-1.1C83,77.9,83.3,78.3,83.7,78.7z"/>
		<path class="st16" d="M87,81.2L87,81.2c-0.1,0-0.1-0.1-0.2-0.1C86.9,81.1,87,81.1,87,81.2z"/>
		<path class="st16" d="M87.9,79.9"/>
		<path class="st3" d="M82.4,69.9c0-0.1,0-0.2,0-0.2"/>
		<path class="st3" d="M84.2,67.2L84.2,67.2"/>
		<path class="st15" d="M82.4,70.7L82.4,70.7c0.1-0.2,0.3-0.5,0.5-0.7c0.1,0.3,0.1,0.7,0.2,0.9c0,0,0,0,0,0.1
			C82.9,70.8,82.7,70.7,82.4,70.7z"/>
		<path class="st15" d="M143.8,75.1c0.1,2-0.3,4.3-1,6.7c-0.1,0.3-0.2,0.6-0.3,0.9c-1.2,3.5-3,7-4.7,9.6c-0.1,0.2-0.2,0.3-0.3,0.5
			c-0.9,1.3-1.8,2.6-2.7,4c-2.3,3-5.2,6.1-8.4,7.3c-0.4,0.1-0.8,0.2-1.2,0.3l0,0c-0.1,0-0.1,0-0.2,0c-2.1,0.6-4.2,1.1-6.2,0.9
			c-4.2-0.6-8.2-2.6-11.8-4.8c-1.3-0.8-2.7-1.8-4-2.8c-2.6-2-5.2-4.2-7.4-6.8c-0.4-0.5-0.9-1-1.3-1.5l0,0c0-0.1,0-0.1-0.1-0.1l0,0
			c-0.1,0-0.1,0-0.1-0.1c-0.1,0.1-0.1,0-0.1-0.1l0,0c0-0.1,0-0.1,0-0.1s0,0-0.1,0c-0.2-0.3-2.8-4.8-3-5.1c-0.6-0.4-2.3-1.6-2.9-2
			c-0.4-0.2-0.7-0.4-1.1-0.6l0,0c-0.1,0-0.1-0.1-0.2-0.1c0,0-0.1,0-0.1-0.1s-0.1,0-0.1-0.1c-0.4-0.2-0.7-0.5-1.1-0.7
			c-0.3-0.2-0.5-0.4-0.8-0.6c-0.1-0.1-0.2-0.2-0.3-0.3c-0.2-0.2-0.5-0.5-0.7-0.7c-0.3-0.4-0.7-0.7-0.9-1.1c-0.1-0.1-0.2-0.3-0.3-0.4
			c-0.2-0.3-0.4-0.5-0.5-0.8c-0.2-0.3-0.3-0.6-0.5-0.9l0,0c-0.1-0.3-0.3-0.6-0.4-0.9l0,0c-0.1-0.3-0.2-0.6-0.4-1
			c0-0.1-0.1-0.2-0.1-0.4c0-0.1,0-0.1-0.1-0.2c-0.1-0.2-0.2-0.4-0.2-0.7c-0.2-0.8-0.3-1.5,0.1-2.1c0.3-0.4,1.8-1.6,2-0.6l0.1-0.1
			c0.1-0.1,0.2-0.2,0.3-0.3l0,0c-0.2-1.5,0-3.1,1.3-2.2c0,0,0.1,0.1,0.1,0.2c0.1,0.1,0.3,0.3,0.4,0.5c0.9,1.2,1.7,2.5,2.8,3.6
			c0.2,0.2,0.4,0.4,0.6,0.6c0.6,0.5,1.7,1.4,2.6,1.6c-0.4-0.7-0.8-1.4-0.1-1.6c0.4-0.1,0.9,0.2,1.5,0.7c0.4,0.3,0.7,0.6,1,0.9
			s0.6,0.6,0.8,0.8c0.9,0.8,1.7,1.8,2.7,2.4c0,0,0.1,0,0.1,0.1c-0.1,0.1-0.1,0.1-0.2,0.2c1,0.7,2.1,1.8,3.1,3c0-0.1,0.1-0.1,0.1-0.2
			c0.4,0.5,0.8,0.9,1.2,1.4c0.8,1,1.7,1.9,2.5,2.7l0.1,0.1l0,0c0.2,0.2,0.4,0.4,0.6,0.5c1.6,1.3,3.3,2.5,5.1,3.5
			c0.9,0.5,1.8,1,2.7,1.5c4.1,2.4,7.5,3.6,12,3.8c0.4-1,0.8-1.9,1.3-2.6c1-1.7,2.5-3.1,3.3-5c1.2-3,2.5-5.9,4.1-8.7
			c2.4-4.1,5.2-8.1,7.8-12c0,0,0,0,0.1,0c0.1,0.1,0.2,0.1,0.3,0.2C143.6,67.3,143.6,72,143.8,75.1z"/>
		<path class="st3" d="M96.6,76.8c1,0.7,2,1.8,3,3c0,0,0,0,0.1,0.1"/>
		<path class="st3" d="M140.5,64.8c-0.1,0.1-0.1,0.1-0.1,0.2"/>
		<path class="st3" d="M83.1,70.9c0,0.1,0.1,0.2,0.1,0.3c0.5,1,1.3,1.8,2.3,2.5"/>
		<path class="st3" d="M84.1,67.1c-0.1-0.1-0.2-0.3-0.3-0.4"/>
		<path class="st3" d="M125.4,51c0.3,0.4,0.8,0.5,1.3,0.4"/>
		<path class="st3" d="M125,56.3c1.4,1,4.4,0.7,5.3-0.6"/>
		<path class="st3" d="M129.5,55c0.8,0.1,1.8,0.8,2,1.6"/>
	</g>
</g>
</svg>
