<?xml version="1.0" encoding="utf-8"?>
<!-- Generator: Adobe Illustrator 27.5.0, SVG Export Plug-In . SVG Version: 6.00 Build 0)  -->
<svg version="1.1" id="Calque_1" xmlns="http://www.w3.org/2000/svg" xmlns:xlink="http://www.w3.org/1999/xlink" x="0px" y="0px"
	 viewBox="0 0 200 200" style="enable-background:new 0 0 200 200;" xml:space="preserve">
<path d="M23.8,70c-2.3,1.7-4.8,3.9-5.2,6.8c-0.4,2.4,0.8,4.8,1.9,7c5.5,10.9,11.1,21.8,16.6,32.7c3.1,6.1,6.3,12.3,11.6,16.5
	c4.7,3.8,10.6,5.5,16.4,6.9c19.3,4.8,40.5,6.8,58.4-2.2c12.7-6.4,16.9-4.5,30.3-9.3c9.1-3.3,24.1-17.7,26.9-27.2
	c1.9-6.4-0.8-9.2-0.8-9.2c-6.1-6.3-15.1-9.1-15.1-9.1c-16.5-4.7-21.3-5.3-34.9-7.9C95.3,68.7,51.8,49.1,23.8,70z"/>
</svg>
