<?xml version="1.0" encoding="utf-8"?>
<!-- Generator: Adobe Illustrator 23.0.3, SVG Export Plug-In . SVG Version: 6.00 Build 0)  -->
<svg version="1.1" id="Calque_1" xmlns="http://www.w3.org/2000/svg" xmlns:xlink="http://www.w3.org/1999/xlink" x="0px" y="0px"
	 viewBox="0 0 200 200" style="enable-background:new 0 0 200 200;" xml:space="preserve">
<style type="text/css">
	.st0{fill:none;stroke:#000000;stroke-width:2;stroke-miterlimit:10;}
	.st1{fill:#BDCCD4;stroke:#000000;stroke-width:2;stroke-linecap:round;stroke-linejoin:round;stroke-miterlimit:10;}
	.st2{fill:#FF868B;stroke:#000000;stroke-miterlimit:10;}
	.st3{fill:#FFC1C2;stroke:#000000;stroke-miterlimit:10;}
	.st4{fill:none;stroke:#000000;stroke-miterlimit:10;}
	.st5{fill:#83C2E1;stroke:#000000;stroke-miterlimit:10;}
	.st6{fill:#FFE6B4;stroke:#000000;stroke-miterlimit:10;}
</style>
<path class="st0" d="M118.8,12.7c-7.5,2-12.6,10.3-11,17.8c0.6,3,2.3,5.9,4.9,7.6c2.6,1.6,6.3,1.8,8.7-0.1c0.6-0.5,1.2-1.1,1.4-1.9
	c0.9-3-3.4-4.9-6.5-4.4c-10.1,1.8-15.8,13.3-15.6,23.5c0.2,8.3,4.4,17.6,12.4,19.6c1.1,0.3,2.4,0.4,3.4-0.2c2.1-1.3,1-5-1.3-5.8
	s-4.9,0.4-6.8,2c-4,3.4-6,8.7-6.3,13.9s1,10.4,2.9,15.3"/>
<g>
	<path class="st1" d="M126.1,128.8c-6.2-4.5-13.5-7.4-21-8.4c0.5-0.9,1.2-1.7,1.9-2.5c0.5-0.5,1.2-0.8,1.9-0.7
		c5.5,0.8,10.9,2.8,15.6,5.9c0.5,0.3,0.9,0.8,1,1.4C125.7,125.9,125.9,127.5,126.1,128.8z"/>
	<path class="st1" d="M118.1,137.8"/>
	<path class="st1" d="M104.5,121.4c0.2-0.3,0.3-0.6,0.5-0.9c7.6,1,14.9,3.9,21,8.4c-5.8,17.1-12.2,34.9-19.2,51.6
		c-0.2,0-0.3,0-0.5,0c-7.3-0.1-13.4-1.8-19-6.3l-1.5-1.5c3-8.3,6.1-16.7,9.1-25c0.7-1.9,1.4-3.7,2-5.6c0.6-1.5,1-3.2,1.7-4.6
		c1-2.3,1.7-4.7,2.6-7C102.4,127.3,103.4,124.3,104.5,121.4z"/>
	<path class="st1" d="M126.1,128.8L126.1,128.8L126.1,128.8L126.1,128.8z"/>
	<path class="st1" d="M106.9,180.4L106.9,180.4"/>
	<path class="st1" d="M106.9,180.4L106.9,180.4L106.9,180.4L106.9,180.4c-0.6,1.2-1.9,2.2-3.1,2.9c-0.4,0.2-0.8,0.2-1.2,0.2
		c-5.1-1.1-10-2.9-14.5-5.5l-0.5-0.6c-1-1.4-1.3-3-1.6-4.7l1.5,1.5c5.7,4.6,11.8,6.2,19,6.3C106.6,180.4,106.7,180.4,106.9,180.4z"
		/>
	<path class="st1" d="M88,177.9L88,177.9"/>
</g>
<path class="st2" d="M95.9,156.2c1,0.3,2.1,1.6,2.6,2.8c0,0-0.1,0-0.1,0c-0.7-0.1-1.4,0.2-2,0.6c0.1-0.5,0.2-1,0.1-1.6
	C96.4,157.4,96.2,156.7,95.9,156.2z"/>
<path class="st2" d="M105,163.5c1.1-0.4,2.2-0.3,2.8,0.7c-0.8,0.3-1.4,1.1-2,1.8C105.8,165,105.7,164.3,105,163.5z"/>
<path class="st3" d="M96.4,159.6c0.6-0.4,1.3-0.7,2-0.6c0,0,0.1,0,0.1,0c1,0.2,1.9,1.2,2.8,1.8c0.2,0.1,0.4,0.2,0.6,0.4
	c0.8,0.5,1.6,1,2.3,1.5c0.3,0.2,0.6,0.5,0.8,0.8c0.7,0.8,0.9,1.6,0.8,2.6c-0.1,0.1-0.2,0.2-0.3,0.4l0,0c-1.1-0.1-2.3-0.7-3.4-1.2
	c-2.3-1.1-4.4-2.8-5.9-5.1C96.3,159.9,96.4,159.8,96.4,159.6z"/>
<path class="st2" d="M93.5,159.7c0-0.6,0.1-3,0.6-4.1c0.6,1.1,1.1,2.4,1.7,3.6c0.1,0.2,0.2,0.4,0.3,0.5c0.1,0.1,0.1,0.2,0.2,0.3
	c0,0.2-0.1,0.5-0.2,0.7c0,0.2,0,0.3-0.1,0.5c-0.2,1.7-0.2,3.5,0.1,5.2c0.2,1.1,0.5,2.6,1.2,3.5c0.3,0.4,0.8,0.5,1.3,0.5
	c0.7-0.1,1.5-0.4,2-0.7c1.4-0.8,2.7-1.3,3.9-2.5c0.3-0.3,0.6-0.6,0.8-1l0,0c0.1,0,0.2,0,0.3,0c0-0.2,0-0.3,0-0.4
	c0.6-0.8,1.2-1.5,2-1.8c0.5-0.2,1.1-0.2,1.8,0.1c0,0.2,0,0.4-0.1,0.6c-0.5,2.5-3.7,5.3-5.5,5.9c-2.1,0.6-4,1.3-6-0.1
	c0,0-0.1-0.1-0.1-0.1c-0.7-0.5-1.2-1.2-1.7-1.9c-0.5-0.8-1-1.7-1.3-2.6C93.9,164.1,93.5,161.9,93.5,159.7z"/>
<path class="st2" d="M94.1,155.6L94.1,155.6c0.2-0.5,0.5-0.7,0.8-0.5c0.1,0,0.2,0.1,0.3,0.2c0.3,0.2,0.6,0.6,0.8,0.9
	c0.3,0.6,0.5,1.2,0.6,1.8c0.1,0.6,0,1.1-0.1,1.6c-0.1,0.1-0.2,0.1-0.3,0.2c-0.1-0.2-0.2-0.4-0.3-0.5
	C95.1,158.1,94.6,156.7,94.1,155.6z"/>
<path class="st4" d="M93.8,155.3c0.1,0.1,0.1,0.2,0.2,0.4"/>
<path class="st4" d="M109,165.9c-0.9-0.2-1.8,0.4-2.7,0.5c-0.2,0-0.3,0-0.5,0"/>
<path class="st4" d="M105.8,166.4C105.8,166.4,105.8,166.4,105.8,166.4"/>
<path class="st5" d="M101.8,161.2c0.1-0.4,0.3-0.9,0.4-1.1c0.2-0.5,0.4-1,0.6-1.5c0.5-1.1,0.9-2.3,1.3-3.4c0.8-2.3,1.9-4.4,2.9-6.6
	c0-0.1,0.1-0.1,0.1-0.2l0,0c0.6,0.4,1.2,0.8,1.8,1.2c1.3,0.8,2.7,1.5,4.1,1.9c0.5,0.2,1.1,0.2,1.6,0.3c0.1,0,0.2,0,0.3,0.1
	c-0.8,1.9-1.6,3.7-2.5,5.6c-1,2.3-1.8,5.2-3.2,7.2c0-0.2,0.1-0.4,0.1-0.6c-0.7-0.3-1.3-0.4-1.8-0.1c-0.6-1.1-1.7-1.1-2.7-0.7
	c-0.2-0.3-0.5-0.5-0.8-0.8C103.4,162.1,102.6,161.6,101.8,161.2z"/>
<path class="st4" d="M109.5,164.8c0,0.1-0.1,0.1-0.1,0.2"/>
<path class="st5" d="M94.7,155.4c0.7-2.7,2.3-5.3,3.4-7.7c0.9-1.8,1.2-3.7,1.9-5.7c0-0.1,0.4-0.3,0.5-0.4c0.2,0.2,0.4,0.4,0.5,0.6
	c0.4,0.6,0.8,1.1,1.4,1.6c1.2,1,2.2,2.2,3.4,3.1c0.6,0.6,1.3,1,2,1.5c0,0.1-0.4,0.3-0.4,0.4c-1.1,2.2-2,4.1-2.9,6.4
	c-0.5,1.1-0.9,2.3-1.5,3.4c-0.2,0.5-0.4,1-0.7,1.5c-0.1,0.2-0.3,0.7-0.5,1.1c-0.2-0.1-0.4-0.2-0.6-0.4c-1-0.5-1.9-1.5-3-1.7
	c-0.5-1.2-1.7-2.5-2.7-2.8C95.3,155.9,95,155.6,94.7,155.4z"/>
<path class="st6" d="M100.1,141.7c0.1-0.3,0.2-0.6,0.2-0.8c1-3.5,2.6-7.5,5.7-8.8c0.7-0.3,1.4-0.5,2.1-0.6c3.4-0.4,7.4,0.9,9.3,4.6
	c2.3,4.5,0.2,9.8-1.5,13.8c-0.3,0.7-0.6,1.4-0.9,2.1c0,0,0,0.1,0,0.1c-0.6-0.1-1.3-0.2-1.9-0.4c-1.5-0.5-2.8-1.2-4.2-1.9
	c-0.5-0.3-1.1-0.6-1.6-1c-0.1,0-0.1-0.1-0.2-0.1l0,0c-0.7-0.4-1.3-1-1.9-1.5c-1.1-1-2.1-2.2-3.2-3.1c-0.5-0.5-0.9-1-1.3-1.6
	c-0.1-0.1-0.2-0.2-0.3-0.3C100.2,141.8,100.2,141.7,100.1,141.7z"/>
<path class="st4" d="M107.4,148.5c0.1-0.2,0.2-0.3,0.2-0.4c0.3-0.6,0.8-1.6,0.9-2.1"/>
<path class="st4" d="M101.8,161.5c0,0,0-0.2,0.1-0.4"/>
<path class="st3" d="M105.5,166.5c0,0-4.5,4.1-7.6,4.1c0,0-2.7-1.8-1.6-10.4C96.3,160.2,102.7,164.5,105.5,166.5z"/>
</svg>
