<?xml version="1.0" encoding="utf-8"?>
<!-- Generator: Adobe Illustrator 23.0.3, SVG Export Plug-In . SVG Version: 6.00 Build 0)  -->
<svg version="1.1" id="Calque_1" xmlns="http://www.w3.org/2000/svg" xmlns:xlink="http://www.w3.org/1999/xlink" x="0px" y="0px"
	 viewBox="0 0 595.4 756" style="enable-background:new 0 0 595.4 756;" xml:space="preserve">
<style type="text/css">
	.st0{opacity:0.5;}
</style>
<title>OELP_umbrella_shadow_Fichier 3</title>
<g>
	<g id="Calque_1-2">
		<g class="st0">
			<path d="M60.5,448.3c-6,7.1-12.6,16.2-13.7,28.3c-1,10,2.1,20,5,29.1c14.4,45.3,29.2,90.7,43.6,136c8.1,25.3,16.5,51.2,30.5,68.6
				c12.3,15.8,27.8,22.9,43.1,28.7c50.7,20,106.4,28.3,153.4-9.1c33.4-26.6,44.4-18.7,79.6-38.7c23.9-13.7,63.3-73.6,70.7-113.2
				c5-26.6-2.1-38.3-2.1-38.3c-16-26.2-39.7-37.9-39.7-37.9c-43.4-19.5-56-22-91.7-32.9C248.3,442.9,134,361.4,60.5,448.3z"/>
		</g>
		<g id="Calque_1-2-2">
			
				<image style="overflow:visible;enable-background:new    ;" width="2482" height="2482" xlink:href="F250BFFD61AC3513.png"  transform="matrix(0.2399 0 0 0.2399 0 0)">
			</image>
		</g>
	</g>
</g>
</svg>
