<?xml version="1.0" encoding="utf-8"?>
<!-- Generator: Adobe Illustrator 27.5.0, SVG Export Plug-In . SVG Version: 6.00 Build 0)  -->
<svg version="1.1" id="Calque_1" xmlns="http://www.w3.org/2000/svg" xmlns:xlink="http://www.w3.org/1999/xlink" x="0px" y="0px"
	 viewBox="0 0 295.1 200" style="enable-background:new 0 0 295.1 200;" xml:space="preserve">
<style type="text/css">
	.st0{stroke:#000000;stroke-width:1.5062;stroke-linecap:round;stroke-linejoin:round;stroke-miterlimit:10;}
</style>
<path class="st0" d="M216.1,82.8c9.4-0.7,15.2-0.1,28.3-1.9c1.2-0.2,2.1,0.6,1.3,1.2c-9.1,6.8-16.4,8.2-24.9,13.2
	c-0.7,0.4-1.2,0.9-1.5,1.4c-1.2,2,1.6,3.1,4.1,4l4.9,1.7c2.7,0.9,1.8,3.2-1.3,3.4c-16.5,1-32.9,2.9-48.8,5.5c-7,1.2-14,2.5-21.1,3.3
	c-23.8,2.7-48.4-0.5-72-3.3c-4.6-0.5-8.9-1.6-12.5-3.3C48,96.5,105.2,86.3,117.7,84.6C149.8,80.1,183.3,85.1,216.1,82.8z"/>
</svg>
