<?xml version="1.0" encoding="utf-8"?>
<!-- Generator: Adobe Illustrator 23.0.3, SVG Export Plug-In . SVG Version: 6.00 Build 0)  -->
<svg version="1.1" id="Calque_1" xmlns="http://www.w3.org/2000/svg" xmlns:xlink="http://www.w3.org/1999/xlink" x="0px" y="0px"
	 viewBox="0 0 654.4 866" style="enable-background:new 0 0 654.4 866;" xml:space="preserve">
<style type="text/css">
	.st0{opacity:0.5;}
</style>
<title>OELP_umbrella_green_shadow_Fichier 6</title>
<g>
	<g id="Calque_1-2">
		<g class="st0">
			<path d="M65.1,475.6c-6.5,7.9-13.7,18.1-14.8,31.6c-1.1,11.1,2.3,22.3,5.4,32.5c15.7,50.6,31.7,101.2,47.4,151.8
				c8.8,28.3,18,57.1,33.1,76.6c13.4,17.7,30.3,25.5,46.8,32c55.1,22.3,115.6,31.6,166.7-10.2c36.3-29.7,48.2-20.9,86.5-43.2
				c26-15.3,68.8-82.2,76.8-126.3c5.4-29.7-2.3-42.7-2.3-42.7c-17.4-29.2-43.1-42.3-43.1-42.3c-47.1-21.8-60.9-24.6-99.6-36.7
				C269.2,469.6,145,378.6,65.1,475.6z"/>
		</g>
		<g id="Calque_1-2-2">
			
				<image style="overflow:visible;enable-background:new    ;" width="2482" height="2482" xlink:href="D48B63880CBF6163.png"  transform="matrix(0.2399 0 0 0.2399 59 0)">
			</image>
		</g>
	</g>
</g>
</svg>
