<?xml version="1.0" encoding="utf-8"?>
<!-- Generator: Adobe Illustrator 23.0.3, SVG Export Plug-In . SVG Version: 6.00 Build 0)  -->
<svg version="1.1" id="Calque_1" xmlns="http://www.w3.org/2000/svg" xmlns:xlink="http://www.w3.org/1999/xlink" x="0px" y="0px"
	 viewBox="0 0 200 200" style="enable-background:new 0 0 200 200;" xml:space="preserve">
<style type="text/css">
	.st0{fill:#FFC1C2;stroke:#000000;stroke-width:2;stroke-miterlimit:10;}
	.st1{stroke:#000000;stroke-width:2;stroke-miterlimit:10;}
	.st2{fill:none;stroke:#000000;stroke-width:2;stroke-miterlimit:10;}
	.st3{fill:#BDCCD4;stroke:#000000;stroke-width:2;stroke-miterlimit:10;}
</style>
<g>
	<path class="st0" d="M126.3,132.7c-0.3,1.4,0.7,2.6,1.4,3.8s1.1,3,0,3.8c-1,0.7-2.4,0-2.9-1c-0.5-1.1-0.3-2.3,0.1-3.4
		s1-2.2,1.2-3.3"/>
	<path class="st1" d="M114.4,58.6c-0.1,5.4-0.8,10.8-2.2,16c-0.8,3.1-1.9,6.2-4.1,8.5c-0.2,0.2-0.3,0.3-0.5,0.5
		c-1.4,1.3-3.3,3.3-5.3,3.4c-0.2,0-0.7-0.1-1-0.1c-0.1,0-0.1,0-0.2,0c0,0,0,0-0.1,0c-0.3-0.1-0.5-0.1-0.7-0.2
		c-0.1-0.1-0.3-0.1-0.5-0.3l0,0c-0.2-0.1-0.3-0.2-0.4-0.4c-1-0.9-1.6-2.9-2.2-4.2c-0.9-2.2-1.6-4.4-2.2-6.7c-0.8-3.5-1.2-7-1.2-10.6
		c0-3.3,0.4-6.6,1.2-9.7c0.5-2.3,1.3-4.5,2.2-6.7c0.3-0.7,0.7-1.5,1.1-2.2c0.7-1.2,1.5-2.3,2.6-3c0.3-0.2,0.6-0.4,1-0.5
		c0.3-0.1,0.6-0.3,1-0.3c1.4-0.4,3-0.1,4.4,0.5c0.1,0,0.2,0.1,0.3,0.1c0.2,0.1,0.4,0.2,0.5,0.3l0,0c1.2,0.7,2.3,1.6,3.1,2.7
		C113.9,49.2,114.4,54,114.4,58.6z"/>
	<path class="st2" d="M107.5,42.6c0.1,0,0.1,0.1,0.2,0.1c0.1,0.1,0.2,0.1,0.3,0.2"/>
	<path class="st1" d="M123.4,129.2c0,0.2,0,0.3,0.1,0.4c-0.3,0.9-0.7,1.8-1.2,2.6c-0.3,0.5-0.8,1-1.3,1.5c-0.3,0.2-0.6,0.5-0.9,0.6
		l0,0c-0.5,0.2-1,0.4-1.5,0.7l0,0c-0.4,0.1-0.8,0.2-1.2,0.2c-0.1,0-0.2,0-0.3,0c-0.1,0-0.2,0-0.3,0c-3.9-0.4-5.8-5.3-6.6-8.7
		c-0.1-0.2-0.1-0.4-0.1-0.6c-0.8-4-1.8-8-2.2-12c-0.2-1.6-0.2-3.1-0.2-4.7c0.1-3.3,0.3-7.2,1.3-10.6c0.3-0.9,0.6-1.7,0.9-2.5
		c0.6-1.4,1.7-2.6,2.9-3.3c0.6-0.3,1.2-0.6,1.8-0.7c0.5-0.1,1,0,1.5,0.1c2.6,0.9,4.8,4.9,5.6,6.9c1.6,4,2.2,8.8,2.7,13.1
		c0,0.2,0,0.5,0.1,0.7c-0.7-0.1-1.5-0.2-2.2-0.2c-0.4,0-0.8,0-1.2,0c-0.8,0-1.5,0.1-2.3,0.4c-0.8,0.2-1.2,0.8-1.2,1.5
		c-0.1,0.7,0.4,1.3,1.1,1.7c0.4,0.2,0.5,0.2,1,0.2c0.5-0.1,1,0.3,1,0.8c0.2,1.5,0.1,1.7-1.4,1.8c-0.1,1.6-0.2,3.3-0.3,4.9l0,0
		c0.2,0,0.4-0.1,0.8-0.1s0.8,0,1.2,0c1,0.1,1.6,0.6,1.8,1.6c0.1,0.4,0.1,0.8,0.2,1.3C123.3,127.4,123.3,128.3,123.4,129.2z"/>
	<path class="st2" d="M120.2,134.3c-0.5,0.3-1,0.5-1.5,0.7C119.3,134.7,119.7,134.5,120.2,134.3z"/>
	<path class="st2" d="M125,119.5c-0.1,0-0.2-0.1-0.3-0.1c-0.9-0.3-1.3-0.8-1.3-1.7c0-0.2-0.1-0.5-0.1-0.7c-0.1-0.9,0-1,0.9-1.1
		c0.3,0,0.5,0,0.8-0.1C125,117,125,118.3,125,119.5z"/>
	<path class="st2" d="M81.3,95.1c0.1,0,0.3,0.1,0.4,0.1s0.3,0.1,0.4,0.1"/>
	<path class="st1" d="M89.1,111.4c0,0.1,0,0.2,0,0.2c-0.2,4.3-0.7,8.7-1.5,13c-0.4,2.2-0.9,4.3-1.5,6.4c-0.3,1.1-0.7,2.3-1.3,3.4
		l0,0c-0.1,0.2-0.2,0.3-0.3,0.5c-0.4,0.7-1,1.3-1.6,1.7l0,0c-0.4,0.2-0.9,0.4-1.3,0.6c-0.5,0.1-1,0.2-1.5,0.1c-0.3,0-0.7-0.1-1-0.2
		c-1-0.3-1.9-0.9-2.7-1.7c-1.4-1.4-2.1-3.4-2.7-5.3c-0.2-0.7-0.4-1.5-0.6-2.2c-1.1-4.6-1.4-9.4-1.3-14.2c0-2.1,0.2-4.2,0.4-6.3
		c0.2-1.9,0.4-3.8,1-5.7c0.2-0.8,0.5-1.5,0.9-2.2c0.7-1.3,1.7-2.4,2.9-3.2c1-0.7,2.3-1.2,3.5-1.2c0.4,0,0.7,0,1.1,0.1
		c0.1,0,0.3,0.1,0.4,0.1v0.1c0.4,0.2,0.8,0.3,1.2,0.6l0,0c0.3,0.2,0.6,0.3,0.9,0.6c1.7,1.3,3,3.2,3.8,5.2
		C89.2,104.7,89.2,108.1,89.1,111.4z"/>
	<path class="st2" d="M81.6,137.2c0.1,0,0.2,0,0.3-0.1c0.4-0.1,0.7-0.3,1-0.5"/>
	<path class="st1" d="M80,76.6c0.6,2.8,1.5,5.6,2.5,8.3c-0.7,0-1.3,0-2,0.1c-0.6,0-1.2,0-1.7,0.1c-0.9-2.7-1.5-5.5-2.1-8.2
		c-0.7-3.6-1.1-7.4-1.2-11.1c-0.1-3.2,0-6.5,0.3-9.7c0.4-4.3,1.3-8.6,2.5-12.8c0.8-2.6,1.7-5.2,2.8-7.7c1.1,0.1,2.1,0.2,3.2,0.4
		c-1.2,2.4-2.2,4.9-3,7.5c-1.3,4.1-2.2,8.2-2.6,12.5c-0.3,3.2-0.4,6.5-0.3,9.7C78.6,69.3,79.1,73,80,76.6z"/>
	<path class="st3" d="M107.3,42.4c-1.4-0.6-2.9-0.8-4.4-0.5c-0.3,0.1-0.7,0.2-1,0.3c-0.3,0.2-0.7,0.3-1,0.5c-1.1,0.8-1.9,1.8-2.6,3
		c-5.6-1.3-11.3-2.1-17-2.5c0.8-2.6,1.8-5.1,3-7.5C90.5,36.9,101.2,39.6,107.3,42.4z"/>
	<path class="st3" d="M81.1,35.5c-1.1,2.5-2,5.1-2.8,7.7c-5.1-0.2-10.1,0-15.2,0.6c0.4-2.6,0.9-5.1,1.4-7.6
		c4.2-0.8,8.5-1.1,12.9-0.9C78.7,35.3,79.9,35.4,81.1,35.5z"/>
	<path class="st3" d="M61.5,36.8c-0.5,2.4-1,4.9-1.4,7.4c-5.8,0.8-11.5,2.1-17,3.8c0.6-1.6,1.3-3.2,2.2-4.8
		c4.8-2.7,9.9-4.8,15.2-6.2C60.9,37,61.2,36.9,61.5,36.8z"/>
	<path class="st3" d="M58.7,65.5c-5.8-0.3-11.7-0.8-17.4-1.4c-0.3-2.7-0.3-5.4,0-8.1c5.9,0.3,11.7,0.4,17.6,0.4
		C58.7,59.4,58.6,62.5,58.7,65.5z"/>
	<path class="st3" d="M60.2,44.2c-0.6,4-1.1,8.1-1.3,12.1c-5.9,0-11.7-0.1-17.6-0.4c0.3-2.7,0.9-5.4,1.9-7.9
		C48.7,46.3,54.4,45,60.2,44.2z"/>
	<path class="st3" d="M59.7,76.8c-5-0.2-9.9-0.6-14.9-1.2c-1.4-2.8-2.5-5.7-3.1-8.7C41.5,66,41.3,65,41.2,64
		c5.8,0.7,11.6,1.2,17.4,1.4C58.8,69.3,59.1,73.1,59.7,76.8z"/>
	<path class="st3" d="M61.9,87c-0.9,0.2-1.9,0.3-2.8,0.5c-0.1,0-0.3,0.1-0.4,0.1c-1.4-0.2-2.8-0.3-4.2-0.3c-4-3.1-7.3-7.1-9.7-11.7
		c4.9,0.6,9.9,1,14.9,1.2C60.2,80.3,60.9,83.7,61.9,87z"/>
	<path class="st2" d="M83.4,95.9c-0.1-0.1-0.1-0.1-0.1-0.2"/>
	<path class="st3" d="M59.1,87.7c-0.7,3.3-1.4,6.6-1.8,9.9c-5.4-0.9-10.9-1.2-16.3-1.1c0.6-3,1.4-5.9,2.3-8.8
		c3.7-0.4,7.5-0.6,11.3-0.4c1.4,0.1,2.8,0.2,4.2,0.3C58.8,87.6,58.9,87.7,59.1,87.7z"/>
	<path class="st3" d="M40.5,88.1c-0.9,2.8-1.8,5.6-2.5,8.5c-5.3,0.3-10.5,1-15.6,2.2c0.4-1.5,0.8-2.9,1.3-4.4
		c0.4-1.1,1.2-1.9,2.2-2.3C30.5,90.2,35.5,88.9,40.5,88.1z"/>
	<path class="st3" d="M38,96.6c-1.2,4.8-2,9.7-2.6,14.6c-4.9-0.6-9.9-1.4-14.8-2.3c0.3-3.4,0.9-6.8,1.8-10.1
		C27.5,97.6,32.7,96.9,38,96.6z"/>
	<path class="st3" d="M34.9,125.3c-4.8-1.1-9.5-2.4-14.2-4.1c-0.1-0.7-0.1-1.3-0.2-2c-0.3-3.4-0.3-6.9,0-10.3
		c4.9,0.9,9.9,1.7,14.8,2.3C35,115.9,34.8,120.6,34.9,125.3z"/>
	<path class="st3" d="M36,137.1c-3.4-1.1-6.8-2.4-10.2-3.8c-0.7-0.3-1.4-0.8-1.8-1.5s-0.7-1.4-1.1-2.1c-1.2-2.7-1.8-5.6-2.2-8.5
		c4.6,1.6,9.4,3,14.2,4.1C35.1,129.3,35.4,133.2,36,137.1z"/>
	<path class="st3" d="M81.6,137.2c-5.7,2.4-14.7,4-20.5,4.2c-1-4.3-1.7-8.6-2.1-13c4.7,0.1,9.5,0,14.2-0.4c0.2,0.7,0.4,1.5,0.6,2.2
		c0.6,1.9,1.3,3.8,2.7,5.3c0.7,0.8,1.7,1.4,2.7,1.7c0.3,0.1,0.7,0.2,1,0.2C80.6,137.3,81.1,137.3,81.6,137.2z"/>
	<path class="st3" d="M58.3,141.3c-2.4,0-4.8-0.2-7.2-0.6c-4-0.6-7.9-1.5-11.7-2.6c-0.6-4-0.9-8.1-1.1-12.2c6,1.2,12.1,1.9,18.2,2.2
		C56.8,132.6,57.5,137,58.3,141.3z"/>
	<path class="st1" d="M98.3,126.3c0.5,4.1,1.3,8.2,2.3,12.2c-1.2,0-2.4-0.1-3.6-0.3c-0.8-4.1-1.4-8.2-1.8-12.3
		c-0.4-4.5-0.5-9-0.4-13.5c0.2-5.6,0.8-11.3,1.8-16.8c0.6-3.2,1.3-6.3,2.1-9.4c0.5,0.1,1,0.2,1.5,0.3c0.2,0,0.5,0.1,0.7,0.2
		c0,0,0,0,0.1,0c0.2,0,0.5,0.1,0.7,0.2c-0.9,3-1.7,6.1-2.3,9.2c-1.1,5.5-1.7,11.1-1.8,16.7C97.6,117.3,97.8,121.8,98.3,126.3z"/>
	<path class="st2" d="M83.2,95.7c-0.2-0.1-0.4-0.2-0.5-0.3"/>
	<path class="st1" d="M59.1,128.3c0.4,4.4,1.1,8.8,2.1,13l0,0c-0.9,0-1.9,0-2.8,0c-0.8-4.3-1.5-8.7-1.9-13.1c-0.5-5-0.6-10-0.5-15.1
		c0.1-5.2,0.6-10.4,1.3-15.6c0.5-3.3,1.1-6.6,1.8-9.9c0.9,0.1,1.8,0.2,2.7,0.4c-0.6,3.2-1.4,6.9-1.8,10.1l0,0
		c-0.7,5-1.2,10.1-1.3,15.2C58.5,118.3,58.6,123.4,59.1,128.3z"/>
	<path class="st2" d="M82.7,95.5c-0.2-0.1-0.4-0.2-0.5-0.2c0,0,0,0,0-0.1C82.3,95.3,82.5,95.4,82.7,95.5z"/>
	<path class="st3" d="M98.8,86.3c-0.8,3.1-1.6,6.2-2.1,9.4c-4.8-0.7-9.7-1-14.6-0.8c-0.1-3.4,0.4-6.8,1.3-10c1.9,0,3.9,0,5.8,0.2
		C92.5,85.2,95.7,85.6,98.8,86.3z"/>
	<path class="st3" d="M82.2,95.3c-0.1,0-0.3-0.1-0.4-0.1c-0.4-0.1-0.7-0.1-1.1-0.1c-1.3,0-2.5,0.5-3.5,1.2c-1.2,0.8-2.2,2-2.9,3.2
		c-0.4,0.7-0.7,1.4-0.9,2.2c-4.3-1.6-8.8-2.8-13.3-3.6c0.4-3.2,1.2-6.9,1.8-10.1c0.1,0,0.3,0,0.4,0.1c5.3,0.8,11.3,3.1,16.6,5.6l0,0
		c0.9,0.4,1.8,0.8,2.6,1.2C81.7,95,81.9,95.1,82.2,95.3L82.2,95.3C82.1,95.2,82.1,95.3,82.2,95.3z"/>
	<path class="st1" d="M83.5,84.9c-0.9,3.2-1.4,6.6-1.3,10c-0.2,0-0.4,0-0.7,0c-0.9-0.4-1.7-0.8-2.6-1.2l0,0c0-3,0.5-6,1.7-8.7
		c0.7,0,1.3,0,2-0.1C82.6,84.9,83.5,84.9,83.5,84.9z"/>
	<path class="st3" d="M97,138.3c-4.3-0.5-8.4-1.8-12.2-3.9l0,0c0.6-1,1-2.3,1.3-3.4c0.6-2.1,1.1-4.3,1.5-6.4
		c2.6,0.6,5.1,1.1,7.7,1.4C95.6,130.1,96.2,134.2,97,138.3z"/>
	<path class="st2" d="M84.8,134.4c-0.1-0.1-0.3-0.1-0.4-0.2"/>
	<path class="st3" d="M118.7,134.9c-5.2,2.1-13,3.7-18.1,3.6c-1-4-1.8-8.1-2.3-12.2c4,0.4,8.1,0.4,12.1,0.1c0.8,3.4,2.7,8.3,6.6,8.7
		c0.1,0,0.2,0,0.3,0c0.1,0,0.2,0,0.3,0C117.9,135.1,118.3,135,118.7,134.9z"/>
	<line class="st2" x1="64.6" y1="36.2" x2="64.6" y2="36.2"/>
	<path class="st1" d="M64.7,86.6c-0.9,0.2-1.9,0.3-2.8,0.5c-1-3.3-1.7-6.7-2.2-10.2c-0.6-3.7-0.9-7.5-1-11.3c-0.1-3.1,0-6.1,0.1-9.2
		c0.2-4.1,0.7-8.2,1.3-12.1c0.4-2.5,0.9-5,1.4-7.4c0.5-0.1,1-0.2,1.5-0.3s1-0.2,1.6-0.3c-0.5,2.5-1,5.1-1.4,7.6
		c-0.6,4.1-1.1,8.3-1.4,12.5c-0.2,3.1-0.2,6.2-0.2,9.3c0.1,3.8,0.4,7.6,1,11.3C63.1,80.2,63.8,83.4,64.7,86.6z"/>
	<line class="st2" x1="61.5" y1="36.8" x2="61.5" y2="36.8"/>
	<path class="st2" d="M98.8,86.3"/>
	<path class="st1" d="M38.6,111.6c-0.4,4.8-0.5,9.6-0.4,14.4c0.2,4.1,0.5,8.1,1.1,12.2c-1.1-0.3-2.3-0.7-3.4-1.1
		c-0.6-3.9-0.9-7.9-1-11.8c-0.1-4.7,0-9.4,0.5-14.1c0.5-4.9,1.4-9.8,2.6-14.6c0.7-2.9,1.5-5.7,2.5-8.5l0,0c0.9-0.2,1.9-0.3,2.8-0.4
		c-0.9,2.9-1.7,5.8-2.3,8.8C39.8,101.5,39,106.5,38.6,111.6z"/>
	<path class="st3" d="M98.4,45.9c-0.4,0.7-0.8,1.5-1.1,2.2c-0.9,2.2-1.7,4.4-2.2,6.7c-5.4,0.5-10.9,0.8-16.4,1.1
		c0.4-4.2,1.3-8.4,2.6-12.5C87.1,43.7,92.8,44.6,98.4,45.9z"/>
	<path class="st3" d="M95.1,54.8c-0.8,3.2-1.2,6.5-1.2,9.7c-5.1,0.5-10.3,0.9-15.5,1.1c-0.2-3.2-0.1-6.5,0.3-9.7
		C84.2,55.6,89.6,55.2,95.1,54.8z"/>
	<path class="st3" d="M78.4,43.2c-1.2,4.2-2.1,8.4-2.5,12.8c-4.7,0.2-9.3,0.3-14,0.3c0.2-4.2,0.7-8.4,1.4-12.5
		C68.2,43.3,73.3,43.1,78.4,43.2z"/>
	<path class="st3" d="M75.5,65.7c-4.6,0.1-9.2,0.1-13.8-0.1c-0.1-3.1,0-6.2,0.2-9.3c4.7,0,9.3-0.1,14-0.3
		C75.5,59.2,75.4,62.5,75.5,65.7z"/>
	<path class="st3" d="M76.7,76.8c-4.7,0.2-9.4,0.2-14,0.1c-0.6-3.7-0.9-7.5-1-11.3c4.6,0.2,9.2,0.2,13.8,0.1
		C75.6,69.4,76,73.1,76.7,76.8z"/>
	<path class="st3" d="M78.7,85c-4.7,0.2-9.4,0.8-14,1.6c-0.9-3.1-1.6-6.4-2.1-9.7c4.7,0.1,9.4,0.1,14-0.1
		C77.2,79.5,77.9,82.3,78.7,85z"/>
	<path class="st3" d="M100.3,86.6c-0.5-0.1-1-0.2-1.5-0.3c-3.2-0.6-6.4-1-9.6-1.2c-1.9-0.1-3.9-0.2-5.8-0.2h-1
		c-1-2.7-1.9-5.5-2.5-8.3C85,76.3,90,75.8,95,75.1c0.5,2.3,1.3,4.5,2.2,6.7c0.5,1.3,1.2,3.3,2.2,4.2c0.1,0.1,0.3,0.3,0.4,0.4l0,0
		C100.1,86.5,100.2,86.5,100.3,86.6z"/>
	<path class="st3" d="M116.5,92c-0.5-0.2-1-0.2-1.5-0.1c-0.6,0.1-1.3,0.4-1.8,0.7c-1.3,0.7-2.3,2-2.9,3.3c-0.4,0.8-0.7,1.6-0.9,2.5
		c-3.2-1-6.5-1.7-9.8-2.3c0.6-3.1,1.4-6.2,2.3-9.2C106.4,88.1,112.3,89.8,116.5,92z"/>
	<path class="st3" d="M95.1,75.1c-5,0.7-10.1,1.2-15.1,1.5c-0.8-3.6-1.3-7.3-1.5-11c5.2-0.2,10.3-0.5,15.5-1.1
		C93.9,68.1,94.3,71.6,95.1,75.1z"/>
	<path class="st3" d="M57.2,97.6c-0.7,5.2-1.2,10.4-1.3,15.6c-5.8-0.3-11.6-0.8-17.3-1.5c0.4-5.1,1.2-10.2,2.3-15.2
		C46.4,96.4,51.9,96.7,57.2,97.6z"/>
	<path class="st3" d="M73.3,101.7c-0.6,1.8-0.8,3.8-1,5.7c-0.2,2.1-0.3,4.2-0.4,6.3c-4.4,0-8.9-0.1-13.3-0.4
		c0.2-5.1,0.6-10.2,1.3-15.2l0,0C64.5,98.9,69,100.1,73.3,101.7z"/>
	<path class="st3" d="M56.4,128.2c-6.1-0.3-12.2-1-18.2-2.2c-0.2-4.8-0.1-9.6,0.4-14.4c5.8,0.7,11.5,1.2,17.3,1.5
		C55.8,118.2,56,123.2,56.4,128.2z"/>
	<path class="st3" d="M73.2,127.9c-4.7,0.4-9.5,0.6-14.2,0.4c-0.5-4.9-0.6-10-0.4-15c4.4,0.2,8.9,0.3,13.3,0.4
		C71.8,118.5,72.2,123.2,73.2,127.9z"/>
	<path class="st3" d="M108.1,113.8c-3.5-0.2-7-0.5-10.4-0.9c0.1-5.6,0.7-11.2,1.8-16.7c3.3,0.6,6.6,1.3,9.8,2.3
		c-1,3.4-1.2,7.3-1.3,10.6C107.9,110.6,107.9,112.2,108.1,113.8z"/>
	<path class="st3" d="M95.3,126c-2.6-0.3-5.2-0.8-7.7-1.4c0.8-4.3,1.3-8.6,1.5-13c1.9,0.3,3.9,0.6,5.8,0.9
		C94.8,117,94.9,121.5,95.3,126z"/>
	<path class="st3" d="M110.4,126.4c-4,0.3-8.1,0.3-12.1-0.1c-0.5-4.5-0.8-8.9-0.7-13.4c3.5,0.4,6.9,0.7,10.4,0.9c0.4,4,1.3,8,2.2,12
		C110.3,126,110.3,126.2,110.4,126.4z"/>
	<path class="st3" d="M96.7,95.7c-1,5.6-1.6,11.2-1.8,16.8c-1.9-0.3-3.9-0.6-5.8-0.9c0-0.1,0-0.2,0-0.2c0.1-3.3,0.1-6.6-1-9.7
		c-0.8-2-2.1-3.9-3.8-5.2c-0.3-0.3-0.7-0.5-1-0.7l0,0c-0.2-0.1-0.3-0.2-0.5-0.3c-0.2-0.1-0.4-0.2-0.6-0.3l0,0c0-0.1,0-0.2,0-0.3
		C87,94.7,91.9,95,96.7,95.7z"/>
	<path class="st3" d="M80.5,84.9c-1.1,2.8-1.7,5.7-1.7,8.7c-5.3-2.4-11.3-4.7-16.6-5.6c-0.1,0-0.3,0-0.4-0.1
		c-0.9-0.1-1.8-0.3-2.7-0.4v-0.1c0.9-0.2,1.9-0.4,2.8-0.5c0.9-0.2,1.9-0.3,2.8-0.5c4.6-0.7,9.3-1.3,14-1.6
		C79.3,85,79.9,84.9,80.5,84.9z"/>
	<path class="st3" d="M128.4,128.3c0,0.3,0,0.5-0.1,0.8c-0.1,0.6-0.5,0.9-1.1,0.8c-0.9-0.1-1.8,0-2.7,0.1c-0.6,0.1-0.9-0.1-1.1-0.5
		c0-0.1-0.1-0.2-0.1-0.4c-0.1-0.9-0.1-1.8-0.2-2.7c0-0.4-0.1-0.9-0.2-1.3c-0.2-1-0.8-1.5-1.8-1.6c-0.4,0-0.8,0-1.2,0
		c-0.3,0-0.6,0.1-0.8,0.1l0,0c0.1-1.6,0.2-3.3,0.3-4.9c1.5-0.1,1.6-0.2,1.4-1.8c-0.1-0.5-0.5-0.9-1-0.8c-0.4,0.1-0.6,0-1-0.2
		c-0.7-0.3-1.2-1-1.1-1.7c0.1-0.8,0.5-1.3,1.2-1.5c0.9-0.3,1.5-0.4,2.3-0.4c0.4,0,0.8,0,1.2,0c0.7,0.1,1.5,0.2,2.2,0.2
		c0,0,0.1,0,0.2,0c1,0.1,1.5,0.8,1.5,1.8c0,0.6-0.3,1-0.8,1.1c-0.2,0.1-0.4,0.1-0.6,0.1c-0.3,0.1-0.5,0.1-0.8,0.1
		c-0.9,0-1,0.1-0.9,1.1c0,0.2,0.1,0.5,0.1,0.7c0,0.9,0.4,1.4,1.3,1.7c0.1,0,0.2,0.1,0.3,0.1c1.3,0.5,2.1,1.6,2.5,2.9
		C128,124.3,128.5,126.3,128.4,128.3z"/>
	<path class="st0" d="M151.1,166.9c-2.8,0-5.6,0-8.3-0.4c-1.2-0.2-2.5-0.5-3.7-0.5c-0.7-0.1-1.3,0.1-1.9,0.5
		c-0.5,0.3-0.8,0.8-0.8,1.4c0,0.2,0,0.5,0.1,0.7c0.2,1.1-0.4,1.8-1.6,1.9c-2.7,0.2-5.4,0.1-8.2-0.2c-2.1-0.3-4.3-0.1-6.4-0.4
		c-3-0.3-6-0.9-8.6-2.8c-1.4-1-1.8-2.4-2-3.9c-0.1-0.7,0.3-1.2,0.7-1.8c0.9-1.1,2.1-1.8,3.4-2.1c2-0.4,3.7-1.3,5.7-1.7
		c0.5-0.1,1-0.5,1.4-0.8c0.7-0.5,0.8-0.9,0.2-1.6c-0.6-0.6-1.1-1.2-1.9-1.6c-1.6-0.7-2-2.5-1-4c0.8-1.2,1.7-1.9,3.1-2.3
		c2.4-0.6,4.8-0.8,7.3-0.7c2.9,0.1,5.9,0,8.7-0.7c1.6-0.4,3.2-0.3,4.7,0.1c1,0.3,2.1,2,1.9,3c-0.1,0.6-0.6,0.9-1,1.2
		c-0.4,0.2-1,0.4-0.9,0.9s0.7,0.5,1.1,0.6c1.2,0.4,2.2,1,3.5,1.1c1.2,0.2,2.3-0.1,3.4-0.6c0.6-0.3,0.7-0.6,0.3-1.2
		c-0.2-0.3-0.5-0.5-0.7-0.7c-0.8-0.9-0.7-2.2,0.3-3c0.4-0.3,0.9-0.5,1.4-0.7c2.8-1,5.8-0.8,8.7-0.6c2.3,0.1,4.6,0.1,6.8-0.1
		c4-0.4,8-0.4,12-0.5c0.8,0,1.7,0,2.5,0.1c1.5,0.1,2.5,1,3.1,2.3c0.7,1.6,0.9,3.4,0.3,5.1c-0.4,1.1-1.1,1.9-2.1,2.2
		c-2.2,0.6-4.4,1.4-6.7,1.2c-1-0.1-2-0.1-3.1-0.3c-2.8-0.4-5.5-0.3-8.3-0.2c-1.8,0.1-3.6,0.7-5.3,1.2c-0.8,0.2-1,0.7-0.6,1.5
		c0.3,0.5,0.6,1.1,1,1.5c0.7,0.8,1,1.9,1.2,2.9c0.2,0.8-0.2,1.4-0.8,1.9c-1.2,1.2-2.6,1.8-4.3,1.8
		C154.2,166.9,152.6,166.9,151.1,166.9z"/>
</g>
</svg>
