<?xml version="1.0" encoding="utf-8"?>
<!-- Generator: Adobe Illustrator 23.0.3, SVG Export Plug-In . SVG Version: 6.00 Build 0)  -->
<svg version="1.1" id="Calque_1" xmlns="http://www.w3.org/2000/svg" xmlns:xlink="http://www.w3.org/1999/xlink" x="0px" y="0px"
	 viewBox="0 0 295.1 200" style="enable-background:new 0 0 295.1 200;" xml:space="preserve">
<style type="text/css">
	.st0{fill:#6ECC66;stroke:#000000;stroke-miterlimit:10;}
	.st1{fill:#F1F1F1;stroke:#000000;stroke-linecap:round;stroke-linejoin:round;stroke-miterlimit:10;}
	.st2{fill:#FFFFFF;stroke:#000000;stroke-linecap:round;stroke-linejoin:round;stroke-miterlimit:10;}
	.st3{fill:none;stroke:#000000;stroke-linecap:round;stroke-linejoin:round;stroke-miterlimit:10;}
	.st4{fill:#FF868B;stroke:#000000;stroke-linecap:round;stroke-linejoin:round;stroke-miterlimit:10;}
</style>
<g>
	<path class="st0" d="M185.8,116.8c-0.9-0.4-1.6-0.7-2.3-0.9c-0.9-0.2-1.8-0.7-2.7-1.1c-1.1-0.5-2.4-0.9-3.5-1.5
		c-1.3-0.6-2.5-1.6-3.7-2.8l0,0c-0.9-0.9-1.7-1.9-2.5-2.7c-1.6-2.2-4-3.8-5.8-6c-3.7-4.3-6.5-9.3-9.1-14.4c-0.6-1.1-1.1-2.2-1.6-3.4
		c-0.1-0.3-0.2-0.6-0.3-0.8l0,0c0.1-0.5,0.1-1,0.2-1.5c0.1-0.5,0.3-1.1,0.5-1.6c0.1-0.4,0.2-0.7,0.4-1.1c0.2-0.2,0.3-0.4,0.4-0.6
		c0.1,0.2,0.2,0.2,0.2,0.4c0.9,1.1,2,2,2.9,3.1c1.1,1.2,1.9,2.7,2.9,3.8c1,1.1,1.9,2.1,2.7,3.3c1.1,1.5,2.5,2.6,3.5,4.2
		c1.3,2.1,3,3.9,4.4,6c0.8,1.1,1.8,2.2,2.5,3.4c0.5,0.8,0.9,1.6,1.6,2.5c1.1,1.3,1.8,2.7,2.9,4c0.7,0.8,1.3,1.6,1.9,2.5
		c0.7,1.1,1.6,1.7,2.5,2.7C184.7,115.3,185.2,116.1,185.8,116.8z"/>
	<path class="st1" d="M182.8,104.7c1,1.2,2.1,2.4,3.1,3.5c1.9,2.1,3.5,4.3,5.1,6.7c0.7,1.1,1.3,2.5,2,3.6c0.3,0.7,0.8,1.2,1.2,1.7
		s0.8,1,1.1,1.4c0.1,0.2,0.2,0.3,0.4,0.5c1.4,1.7,2.8,3.3,4.3,4.9c0.3,0.3,0.7,0.7,0.9,1c3.9,4.3,7.3,9.2,10.5,14
		c3,4.5,6.4,8.3,9.7,12.4c1,1.1,1.3,1.6,2.8,3.7c0.2,0.3,0.4,0.6,0.6,0.9c0.4,0.7,2.7,5.5,3.1,7c0.6,2.3-2.5,3.7-4.1,2
		c-1.7-1.9-3.5-4.9-4.9-6.9c-3.4-5-7.8-10.1-11-15.1c-2-3-3.7-4.7-11.2-15.5c-3.6-5.2-5-6.5-6.9-8.8c-0.4-0.6-0.9-1.1-1.4-1.7
		c-0.7-1-1.4-2-2.2-3c-0.1-0.1-0.2-0.2-0.2-0.2c-0.7-0.7-1.1-1.6-1.7-2.3c-0.8-0.9-1.8-1.6-2.5-2.7c-0.6-0.9-1.2-1.7-1.9-2.5
		c-1.1-1.2-1.8-2.7-2.9-4c-0.7-0.8-1-1.6-1.6-2.5c-0.7-1.1-1.8-2.2-2.5-3.4c-1.4-1.8-3-3.7-4.3-5.8c-1-1.5-2.5-2.7-3.5-4.2
		c-0.8-1.1-1.7-2.2-2.7-3.3c-1.1-1.2-2-2.6-2.9-3.8c-0.9-1.1-2-2-2.9-3.1c-0.1-0.1-0.2-0.2-0.2-0.4c0.2-0.4,0.3-0.8,0.3-1.5
		c0.1-0.9,0-1.9,0.1-2.8s0.2-1.6-0.4-2.4c-0.4-0.5-1.1-1.5-1.7-1.6c-0.8-0.2-1.2,0.4-1.6,0.9c-0.4,0.6-0.7,1.2-0.7,1.9
		c0-2-3.3-4-4.3-5.5c-1.8-2.5-3.6-5.1-5.4-7.6c-1.6-2.3-3.5-4.2-5.2-6.3c-1.3-1.7-2.5-3.9-3.7-5.7c-0.5-0.7-0.8-1.3-1-2.1
		c-0.2-0.9-0.5-1.2-0.4-2.2c0.1-1.2,0.2-1.6,1.1-2.5c0.2-0.2,0.6-0.4,1-0.5c0.6,0,1.6,0.8,2,1.2c0.3,0.4,1,1.1,1.6,1.8
		c1.1,1.2,2.3,2.5,2.9,3.3s1.1,1.4,1.6,2.1c0.9,1.2,1.8,2.5,2.8,3.6c0.7,0.9,2,2.4,2.6,3.4c3.6,5.3,7.4,10.4,11.4,15.5
		c2,2.6,4.2,5.2,6.3,7.9c1.8,2.2,2.9,4.6,4.6,6.8c0.5,0.7,1.2,1.2,1.6,1.9c1.6,2.4,2.9,4.9,4.7,7.2
		C176.6,96.2,182.1,103.7,182.8,104.7z"/>
	<path class="st1" d="M156.4,74.5c-0.1,0.9,0,1.9-0.1,2.8c-0.1,0.6-0.2,1-0.3,1.5c-0.1,0.2-0.2,0.4-0.4,0.6
		c-0.2,0.3-0.3,0.7-0.4,1.1c-0.2,0.6-0.4,1.1-0.5,1.6s-0.2,1-0.2,1.5l0,0c-0.1,0.6-0.2,1.1-0.4,1.6c-0.3,0.7-0.3,1.5-0.6,2.3
		c-0.4,1.7-0.7,3.4-1.4,5c-0.5,1.2-0.7,2.7-1,4.1c-0.2,1-0.5,2-0.7,3c-0.3,2.3-1.1,4.6-1.6,6.9c-0.4,2.3-1.1,4.5-1.7,6.8
		c-0.3,1.3-0.5,2.6-0.7,4c-0.2,0.9-0.2,1.8-0.4,2.7c0,0.1,0,0.2,0,0.2c-0.2,1.1-0.5,2-1.1,2.9l0,0c-0.4,0.7-1,1.7-1.7,2
		c-0.6,0.3-2,0.6-2.5,0c-0.7-0.7,0.1-2.4,0.3-3.3v-0.1c0.1-0.4,0.5-1.6,0.7-2.3c0-0.1,0-0.2,0.1-0.2c0.2-0.7,0.5-1.3,0.7-2
		c0.3-0.8,0.2-1.7,0.2-2.7s0.2-2,0.4-3c0.5-2.1,0.9-4.3,1.5-6.5c0.3-1.2,0.7-2.5,1.1-3.7c0.2-0.8,0.3-1.6,0.5-2.5
		c0.3-2,0.6-4,1.3-5.9c0.3-1,0.8-2,0.9-3c0.1-0.8,0.2-1.7,0.3-2.5s0.2-1.7,0.4-2.5c0.2-1,0.7-1.9,0.9-2.9c0.2-0.9,0.3-1.9,0.5-2.9
		c0.2-0.9,0.4-1.8,0.7-2.7c0.2-1,0.4-1.8,0.5-2.9c0-0.1,0-0.2,0.1-0.3c0.1-0.7,0.3-1.3,0.7-1.9c0.4-0.5,0.9-1.1,1.6-0.9
		c0.7,0.2,1.4,1.1,1.7,1.6C156.6,72.9,156.5,73.6,156.4,74.5z"/>
	<path class="st1" d="M193.2,127.1c-5.1,0.1-10.1-0.6-15.2-1.1c-4.1-0.4-4.8-0.5-8.8-1c-1.9-0.2-7-0.5-8.8-0.7
		c-2-0.2-4.1-0.4-6.1-0.7c-0.9-0.1-1.7,0-2.6-0.2c-0.7-0.1-1.5-0.3-2.3-0.4c-1.4-0.2-2.8-0.2-4.3-0.2c0.6-0.9,0.9-1.9,1.1-2.9
		c0-0.1,0-0.2,0-0.2c0.4,0,0.8,0.2,1.2,0.2c0.8,0.1,1.6,0.1,2.5,0.1c1.1,0,2-0.1,3.1-0.1c8.1,0,16.3,0.4,24.3,1.3
		c1.8,0.2,3.6,0.1,5.4,0.2c1.9,0.2,3.8,0.2,5.8,0.2c0.4,0,0.8,0,1.2,0c0.4,0.5,0.8,1.1,1.2,1.6c0.6,0.7,1.1,1.6,1.6,2.5
		C192.7,126.3,193,126.7,193.2,127.1z"/>
	<path class="st2" d="M141.9,119.4c-1.6-0.1-3.1-0.1-4.7-0.4c-0.7-0.1-1.4-0.3-2.1-0.4c-0.9-0.1-2,0.8-2.5,1.6
		c-0.6,1-0.3,1.6,0.6,2.3c1.4,1,3.4,0.7,5,0.7c0.8,0,1.6,0,2.4-0.1"/>
	<path class="st3" d="M137.5,43.8c1.6-0.2,4-0.4,5.1-0.3c0.5,0,1,0.1,1.6,0.2"/>
	<path class="st3" d="M186.9,41.2c-0.7,0-1.5,0-2.1,0"/>
	<path class="st3" d="M146,49c-1.4,0.1-2.8,0.1-4.1,0.2h-0.1"/>
	<path class="st1" d="M230.2,125c-0.1,0.3-0.2,0.7-0.3,0.8c-0.5,0.7-1.2,1.2-2,1.5c-2,0.7-4.5,0.6-6.5,0.3
		c-4.1-0.5-8.2,0.1-12.3-0.2c-2.9-0.2-6-0.3-8.9-0.3c-1.5-1.6-2.9-3.2-4.3-4.9l0,0l0,0c0.7,0,1.2,0.1,1.9,0.1c1.1,0,2.1-0.1,3.2-0.1
		c0.2,0,0.4,0,0.6,0c1.3,0,2.7,0.1,4-0.1c0.6-0.1,1.2,0.2,1.9,0.1h2.1c1.2,0,2.4-0.2,3.5-0.2c1,0,2-0.1,3-0.2c2-0.3,4,0.1,6.1,0.1
		h4.6c0.8,0,1.7,0,2.5,0.3c0.1,0,0.2,0.1,0.2,0.1c0.2,0.2,0.5,0.3,0.7,0.6C230.4,123.4,230.4,124.3,230.2,125z"/>
	<path class="st4" d="M229.1,122.2c-0.7-0.3-1.6-0.3-2.5-0.3H222c-2,0-4-0.4-6.1-0.1c-1,0.2-2,0.2-3,0.2c-1.1,0-2.3,0.2-3.5,0.2
		h-2.1c-0.7,0-1.2-0.2-1.9-0.1c-1.3,0.2-2.7,0.2-4,0.1c-0.2,0-0.4,0-0.6,0c-1.1,0-2.1,0.1-3.2,0.1c-0.7,0-1.3,0-1.9-0.1l0,0
		c0.7,0,1.2,0.1,1.9,0.1c1.1,0,2.1-0.1,3.2-0.1c0.2,0,0.4,0,0.6,0c1.3,0,2.7,0.1,4-0.1c0.6-0.1,1.2,0.2,1.9,0.1h2.1
		c1.2,0,2.4-0.2,3.5-0.2c1,0,2-0.1,3-0.2c2-0.3,4,0.1,6.1,0.1h4.6C227.4,121.8,228.4,121.8,229.1,122.2z"/>
	<path class="st2" d="M246.6,107.2c4.9-0.4,9.7-1.2,14.6-1.1c2.1,0.1,4.3,0.3,6.3,1c0.4,0.2,0.8,0.2,1.1,0.6
		c0.3,0.2,0.5,0.6,0.7,0.9c0.6,1.2,0.3,2.9-0.7,3.8c-0.3,0.2-5.3,0.5-5.7,0.5l-12.8-1.6L246.6,107.2z"/>
	<path class="st0" d="M266.2,110.5C266.2,110.5,266.2,110.6,266.2,110.5C266.2,110.6,266.2,110.6,266.2,110.5
		c-0.1,0-0.2,0.2-0.2,0.2c-0.2,0.2-0.2,0.2-0.6,0.4c-0.2,0.2-0.6,0.3-0.8,0.5c-0.7,0.4-1.6,0.7-2.3,0.9c-0.5,0.2-2,0.8-2,0.8
		c-0.6,0.2-3.8,1.1-5.1,1.6c-0.5,0.2-1,0.3-1.5,0.6l0,0c-1.3,0.7-2.5,1.4-3.9,2l0,0c-0.1,0-0.2,0.1-0.2,0.1c-0.1,0-0.2,0.1-0.2,0.1
		c-1,0.4-1.9,0.9-2.9,1.1c-1.5,0.3-2.7,1-4.1,1.5c-1.6,0.6-3.3,1.2-4.8,1.9c-1.8,0.7-5,1.7-7.6,2.5c0.2-0.7,0.2-1.6-0.2-2.1
		c-0.2-0.2-0.4-0.5-0.7-0.6c-0.1,0-0.2-0.1-0.2-0.1c-0.7-0.3-1.6-0.3-2.5-0.3h-4.6c-2,0-4-0.4-6.1-0.1c-1,0.2-2,0.2-3,0.2
		c-1.1,0-2.3,0.2-3.5,0.2h-2.1c-0.7,0-1.2-0.2-1.9-0.1c-1.3,0.2-2.7,0.2-4,0.1c-0.2,0-0.4,0-0.6,0c-1.1,0-2.1,0.1-3.2,0.1
		c-0.7,0-1.3,0-1.9-0.1l0,0c-0.1-0.2-0.2-0.2-0.3-0.4c-0.4-0.5-0.8-1-1.1-1.4c-0.5-0.6-0.9-1.1-1.2-1.7c-0.7-1.2-1.2-2.5-2-3.6
		c-1.5-2.4-3.2-4.6-5.1-6.7c-1.1-1.2-2.1-2.3-3.1-3.5c-0.9-1.1-2-2-2.8-3.2c-0.7-1-1.1-2.2-1.8-3.3c-0.7-1.1-1.6-2-2.4-3.1
		c-1.7-2.3-3-4.8-4.7-7.2c-0.5-0.7-1.1-1.2-1.6-1.9s-0.9-1.4-1.4-2c-0.9-1.5-2-2.9-2.9-4.3s-1.8-2.9-3-4.3s-2.4-2.8-3.4-4.3
		c-1.6-2.4-3.1-4.7-5.2-6.9c-1.1-1.1-2-2.5-2.9-3.8c-0.7-1-1.6-1.9-2.3-2.8c-0.3-0.4-0.7-0.8-1-1.3c-0.1-0.9-0.2-1.6-0.4-2.5
		c-0.2-1.2-0.6-2.4-0.8-3.6c-0.1-0.4-0.2-0.9-0.3-1.3c-0.5-1.9-1.1-3.7-1.9-5.4c0.1,0,0.2,0,0.3,0c1.9,0,3.7-0.4,5.6-0.7
		c1.9-0.2,3.8-0.4,5.6-0.7c2.9-0.4,6.1-0.7,9-0.8c6.7-0.2,13.4-0.4,20.2-0.2c0.7,0.6,1.4,1.1,1.9,1.8c0,0,0,0,0.1,0.1
		s0.2,0.2,0.2,0.3c0.5,0.8,1,1.6,1.6,2.5l0,0l0,0c1.2,1.8,1.8,3.8,2.3,5.9c0.5,2,0.7,4.1,1.2,6.1c0.2,0.9,0.9,1.9,1.2,2.8
		c0.5,1.2,1.1,2.5,1.7,3.6c1.1,2,1.7,4.4,2.8,6.5s1.6,4.3,2.7,6.4c0.1,0.2,0.2,0.3,0.2,0.4v0.1c0.4,0.8,0.8,1.6,1.1,2.5
		c0.2,0.5,0.5,0.9,0.7,1.3v0.1c0.1,0.2,0.2,0.4,0.3,0.7c0.3,0.8,0.4,1.7,0.8,2.5c0.6,1.1,1.5,2,2.1,3c0.8,1.4,1.6,2.8,2.4,4.2
		c1,1.6,2.2,2.9,3.2,4.3c0.9,1.4,2.5,2.2,3.9,3c1.6,0.9,3.1,2,4.6,3.1s3.3,1.6,4.9,2.3c2,0.8,3.8,1.5,5.9,2c1.6,0.4,3.1,0.9,4.7,1.2
		c2.1,0.4,4.3,1.1,6.4,1.5c0.1,0,0.2,0,0.3,0c1.1,0.2,2.2,0.2,3.4,0.3c1.1,0.2,2.1,0.4,3.3,0.4c0.2,0,3.1-0.2,3.3-0.2
		c3.2-0.2,3.7-0.2,6.9-0.3c1.6-0.1,3.2-0.2,4.7-0.1c0.7,0.1,2.7,0.2,2.9,0.8C266.3,110.3,266.3,110.5,266.2,110.5z"/>
	<path class="st1" d="M272.4,146.5c-2.3,0.2-3.4-1-4.9-2.5c-0.7-0.7-1.7-1.3-2.3-2.1c-0.7-0.8-1.3-1.7-2-2.5
		c-0.7,0.5-1.4,0.9-2.1,1.3c-1.6,0.9-3.2,1.4-4.8,2.1c-0.8,0.4-1.6,0.8-2.5,1.3c-1.5,0.7-2.9,1.7-4.3,2.5c-2,1.1-4.3,1.8-6.5,2.9
		c-2,1.1-4.2,2-6.1,3.3c-1.5,1-3.1,1.6-4.6,2.4c-0.7,0.4-1.5,0.7-2.1,1.1c-0.9,0.6-1.7,1.3-2.8,1.7c-0.6,0.2-1.1,0.4-1.8,0.7
		c-0.4,0.2-0.7,0.3-1.1,0.4c-0.2-0.3-0.4-0.7-0.6-0.9c-0.8-1.2-1.8-2.5-2.8-3.7c0.7-0.3,1.5-0.7,2.2-1c0.7-0.2,1.6-0.7,2.3-1
		c2-1.1,3.8-2.4,5.8-3.3c2-0.9,4-1.6,5.9-2.8c1.8-1.2,3.6-2.2,5.6-3.1c1.7-0.8,3.5-1.6,5.2-2.5c2.5-1.2,4.7-2.9,7.3-4
		c1.7-0.8,3.8-1.2,5.4-2.4c0,0,0,0,0.1,0c-0.5-0.7-0.9-1.6-1.2-2.3c-0.3-0.6-0.7-1.1-1.1-1.7c-0.8-1.2-1.8-2.5-2.7-3.7
		c-1.3-1.7-2.2-3.7-3.6-5.3c-0.6-0.7-1.5-2.2-2.3-3.8l0,0c1.4-0.5,2.6-1.3,3.9-2c0.6,0.7,1.1,1.3,1.6,2c0.6,0.8,1.1,1.9,1.9,2.6
		c0.4,0.4,0.9,0.8,1.3,1.2c0.9,1,1.6,2.2,2.5,3.3c1.4,1.6,2.7,3.4,3.9,5.1c1.1,1.6,2.5,2.9,3.6,4.5c1.1,1.4,2.1,2.8,3.1,4.3
		c0.7,1.1,1.9,2.2,2.4,3.4C274.9,143.9,274.5,146.4,272.4,146.5z"/>
	<path class="st4" d="M254,115.9c-1.3,0.7-2.5,1.4-3.9,2l0,0c0,0,0,0,0-0.1C251.4,117.3,252.6,116.4,254,115.9L254,115.9z"/>
	<path class="st1" d="M248.9,109.8c-0.2,0-0.4,0-0.7,0c-1.1,0-2.1-0.3-3.3-0.4c-1.1-0.2-2.2-0.2-3.4-0.3c-1-1.1-2-2.1-2.9-3.2
		c-2.5-2.7-4.7-5.6-7.2-8.3c-0.7-0.8-1.4-1.9-2.1-2.7c-0.8-1-1.6-1.9-2.4-2.9c-1.1-1.3-1.7-2.9-2.8-4.2c-2.5-2.9-4.8-6-7.4-8.9
		c-1.1-1.3-2-2.9-3.1-4.3c-1.1-1.6-2.3-3.3-3.6-4.8c-0.1-0.1-0.2-0.2-0.2-0.2c-0.1-0.2-0.2-0.2-0.3-0.4c-0.8-1.1-1.8-2.5-2.6-3.4
		c-0.4-0.5-0.9-1-1.3-1.5c-1.7-1.9-2.9-4.3-4.7-6c-1.4-1.3-2.5-2.9-3.7-4.3c-1.1-1.4-2.4-2.7-3.5-4c-0.9-1.1-2.3-3.1-3.5-4.7
		c-0.7,0.1-1.2,0.2-2,0.3c-0.6-0.8-0.9-1.4-1.4-2.2c-0.1-0.1-0.6-1-0.6-1.1c0.1-0.3,0.1-0.3,0.2-0.7c0-0.1,0-0.4,0.1-0.7
		c0.1-0.7,0.2-1.3,0.3-1.9c0.2-1.2,1.4-2,2.5-1.8l0,0c0.9,0.2,1.4,0.2,2,0.9c0.8,0.7,1.6,1.4,2.3,2.2c0.8,0.9,1.6,1.9,2.2,2.8
		c2.7,3.6,5.4,7.3,7.8,11.1c1.7,2.7,3.6,5.2,5.4,7.9c0.5,0.7,1.1,1.5,1.6,2.2c0.4,0.6,0.8,1,1.2,1.4c0.4,0.3,0.8,0.7,1.1,1.1
		c1,1,1.9,2,2.9,2.9c0.6,0.7,1.1,1.3,1.6,2c1.6,2.3,3.7,4.3,5.4,6.5c1.1,1.5,2.3,2.8,3.5,4.2c1.1,1.2,2,2.6,2.9,3.9
		c1,1.3,2.2,2.5,3.3,3.7c0.6,0.7,1.1,1.2,1.7,1.9c0.5,0.7,1,1.3,1.5,2c0.9,1.1,1.5,2.5,2.5,3.5c0.8,0.9,1.6,1.9,2.3,2.9
		c0.6,0.8,1.2,1.6,1.9,2.4c0.3,0.3,0.6,0.7,0.9,0.9c0.5,0.5,0.7,1.1,1.1,1.6c0.5,0.7,1,1.3,1.6,2c0.1,0.1,0.2,0.2,0.2,0.3
		C247.2,108.1,248.1,108.9,248.9,109.8z"/>
	<path class="st3" d="M209.7,62.3L209.7,62.3c0.5-0.4,1.1-0.7,1.6-0.6c1,0.1,1.7,1.1,1.7,2c0,0.7-0.2,1.4-0.4,2
		c0,0.1-0.1,0.1-0.1,0.2"/>
	<path class="st4" d="M202.6,81.7L202.6,81.7c-0.2-0.4-0.6-0.9-0.7-1.4c-0.4-0.9-0.7-1.7-1.1-2.5l0,0v0.1c0.4,0.8,0.8,1.6,1.1,2.5
		C202.1,80.8,202.4,81.3,202.6,81.7z"/>
	<path class="st1" d="M209.4,70.2c-1,1.3-1.4,2.9-2.4,4.3c-1.6,2.3-3.1,4.7-4.4,7.1c-0.2-0.4-0.5-0.9-0.7-1.3
		c-0.4-0.9-0.7-1.7-1.1-2.5v-0.1c0.1-0.2,0.2-0.2,0.2-0.4c0.7-1.5,1.6-2.6,2.4-4c0.5-1,1-2,1.6-2.9c0.7-1,1.4-1.9,1.9-2.9
		c0.2-0.5,0.4-0.9,0.7-1.4"/>
	<path class="st1" d="M173.7,110.8c-6.8,2.9-16.4,6.4-23.9,9.2c-0.8,0-1.6,0-2.5-0.1c-0.4-0.1-0.8-0.2-1.2-0.2
		c0.2-0.9,0.2-1.8,0.4-2.7c7.4-2.7,17.2-6.3,24.6-9C172,108.9,172.8,109.9,173.7,110.8z"/>
	<path class="st3" d="M171.2,108c-7.4,2.7-17.2,6.3-24.6,9c0.2-1.3,0.4-2.7,0.7-4c0.5-2.3,1.3-4.5,1.7-6.8s1.2-4.6,1.6-6.9
		c0.2-1,0.4-2,0.7-3c0.2-1.3,0.5-2.8,1-4.1c0.7-1.6,0.9-3.4,1.4-5c0.2-0.8,0.2-1.6,0.6-2.3c0.2-0.6,0.3-1.1,0.4-1.6
		c0.1,0.3,0.2,0.6,0.3,0.8c0.5,1.2,1,2.3,1.6,3.4c2.5,5.1,5.4,10.1,9.1,14.4C167.2,104.2,169.6,105.9,171.2,108z"/>
	<line class="st3" x1="173.7" y1="110.8" x2="173.7" y2="110.8"/>
</g>
</svg>
