<?xml version="1.0" encoding="utf-8"?>
<!-- Generator: Adobe Illustrator 23.0.3, SVG Export Plug-In . SVG Version: 6.00 Build 0)  -->
<svg version="1.1" id="Calque_1" xmlns="http://www.w3.org/2000/svg" xmlns:xlink="http://www.w3.org/1999/xlink" x="0px" y="0px"
	 viewBox="0 0 200 200" style="enable-background:new 0 0 200 200;" xml:space="preserve">
<style type="text/css">
	.st0{fill:none;stroke:#000000;stroke-width:2;stroke-linecap:round;stroke-linejoin:round;stroke-miterlimit:10;}
	.st1{fill:#FFC1C2;stroke:#000000;stroke-width:2;stroke-linecap:round;stroke-linejoin:round;stroke-miterlimit:10;}
	.st2{fill:#FFC1C2;stroke:#000000;stroke-width:2;stroke-miterlimit:10;}
</style>
<path class="st0" d="M108.6,111.4c0.1,0.4,0.2,0.7,0.2,1.1c0.1,0.5,0.2,0.9,0.4,1.3C109,113,108.8,112.2,108.6,111.4z M108.3,110.3
	c-0.5-2-0.9-4.1-1.3-6.2C107.3,106.2,107.8,108.3,108.3,110.3c0,0.1,0,0.2,0,0.3c0.1,0.2,0.1,0.4,0.2,0.6
	C108.5,110.9,108.4,110.6,108.3,110.3z"/>
<path class="st0" d="M120,111.9c-1.3-0.1-2.7-0.2-4-0.5c-2.6-0.6-5.1-0.9-7.6-1.1c-0.5-2-0.9-4.1-1.3-6.2V104
	c-0.8-5.3-0.9-10.7-0.6-16c0.2-3.1,1-5.9,2.2-8.8c0.2-0.4,0.4-0.9,0.6-1.5c1.4,0.3,2.5,1.1,3.6,2.2c4.6,4.7,5.6,10.9,6.8,16.8
	c0.8,4,1.1,8.2,0.2,12.3C119.6,110.5,119.6,111.3,120,111.9z"/>
<path class="st1" d="M130.6,118.1c-0.2,1.6-1.7,1.9-2.8,1.9c-3.1,0.2-6.2-0.2-9.3-0.8c-1.4-0.3-2.6-0.2-3.9,0.1
	c-0.9,0.2-1.8,0.5-2.8,0.7c-0.4-0.6-0.7-1.2-1-1.8c-0.7-1.3-1.2-2.8-1.6-4.3v-0.1c-0.2-0.8-0.5-1.6-0.7-2.4l0,0v-0.1
	c-0.1-0.3-0.1-0.6-0.2-0.9c2.5,0.1,5,0.5,7.6,1.1c1.4,0.3,2.7,0.4,4,0.5l0,0c0.4,0.6,1.2,1,2.5,1.4c2,0.7,4,1.4,6,2.1
	C129.6,115.9,130.8,116.6,130.6,118.1z"/>
<path class="st1" d="M111.9,120c-9.5,2.4-17.8,4.4-27.5,1.1c-3.4-1.1-6.7-2.6-9.4-5.1c-0.6-0.6-5.7-8.2-5-8.3
	c2.1-0.2,4.4-0.2,6.3-0.2c4.2,0,8.4,0.5,12.6,1.4c5.2,1.1,10.5,1.6,15.8,1.4c1.2-0.1,2.4,0,3.6,0c0,0.1,0,0.2,0.1,0.3
	c0.1,0.2,0.1,0.4,0.2,0.6v0.1l0,0c0.1,0.4,0.2,0.7,0.2,1.1c0.1,0.5,0.2,0.9,0.4,1.3v0.1c0.4,1.5,0.9,3,1.6,4.3
	C111.2,118.9,111.5,119.4,111.9,120z"/>
<path class="st0" d="M40.6,93.7c1.8,0.1,3.5,0,4.5,0c7.6-0.2,15.1-0.3,22.7-0.7c2.6-0.1,2.6-2.3,2.7-4.5c0.3-8.1,8-11.2,15-12
	c6-0.7,13.7-0.1,19.6,0.6c3.1,0.4,4,0.1,3.4,2.2c-0.7,2.6-2,5.9-2.2,8.8c-0.3,5.4-0.2,10.7,0.6,16v0.1c0.3,2.1,0.7,4.1,1.3,6.2
	c-1.2,0-2.3-0.1-3.6,0c-5.3,0.2-10.6-0.3-15.8-1.4c-4.2-0.9-8.3-1.4-12.6-1.4c-1.9,0-4.2,0-6.3,0.2c-0.1-0.3-0.2-0.7-0.3-1.1
	c-1.1-5.3-1.3-5.1-6.7-5.9c-6.7-1-13.4-0.4-20-0.6h-0.1c-2.1-0.1-3.7-0.1-5.1-0.1"/>
<path class="st0" d="M40.6,93.7c-3.5-0.1-7.4-0.8-8.2-3.4"/>
<path class="st2" d="M183.2,128.8c-0.4,1.2-2.1,1.4-3.1,1.6c-5.7,1.4-11.5,1.5-18.3,1.3c-1.8,0-4.5,0.1-7.3,0
	c-3.9-0.2-7-1.6-8.1-5.7c-0.5-1.9-1.9-2.3-3.6-2.3c-2,0-4,0-6-0.5c-0.9-0.2-1.7-0.5-2.3-1.2c-1.2-1.4-0.9-3.1,0.8-3.8
	c1.7-0.7,3.4-1,5.2-1c2.8,0.1,5.5,0,8.3-0.3c3-0.3,5.8,0.7,7.3,3.7c1.1,2.1,2.7,2.8,4.9,2.8c3,0,6,0.1,9,0.1c3.1,0,6.3,1.2,9.1,2.5
	c0.9,0.4,2,0.6,2.9,1C182.8,127.3,183.6,127.9,183.2,128.8z"/>
<path class="st0" d="M108.3,110.3C108.3,110.4,108.3,110.4,108.3,110.3"/>
<path class="st0" d="M30.4,104.6c1.3-3.3,3-4.4,6.2-4.5c0.4,0,0.8,0,1.2,0"/>
<path class="st0" d="M36.4,100.1c0,3-0.6,6-1.7,8.8c-1,2.4-2.9,5-5.5,5.1c-2,0.1-3.9-1.4-4.8-3.2c-0.9-1.8-1.2-3.9-1.4-5.9
	c-0.8-7.4-1.5-15,0.5-22.1c0.7-2.4,2.1-5.1,4.5-5.6c2.2-0.5,4.4,0.9,5.6,2.8s1.4,4.2,1.6,6.4c0.2,2.2,0.2,4.5,1,6.6"/>
</svg>
