<?xml version="1.0" encoding="utf-8"?>
<!-- Generator: Adobe Illustrator 23.0.3, SVG Export Plug-In . SVG Version: 6.00 Build 0)  -->
<svg version="1.1" id="Calque_1" xmlns="http://www.w3.org/2000/svg" xmlns:xlink="http://www.w3.org/1999/xlink" x="0px" y="0px"
	 viewBox="0 0 200 200" style="enable-background:new 0 0 200 200;" xml:space="preserve">
<style type="text/css">
	.st0{fill:none;stroke:#000000;stroke-width:1.0883;stroke-linecap:round;stroke-linejoin:round;stroke-miterlimit:10;}
	.st1{stroke:#000000;stroke-width:1.0883;stroke-linecap:round;stroke-linejoin:round;stroke-miterlimit:10;}
	.st2{fill:#FFE6B4;stroke:#000000;stroke-linecap:round;stroke-linejoin:round;stroke-miterlimit:10;}
	.st3{fill:none;stroke:#000000;stroke-linecap:round;stroke-linejoin:round;stroke-miterlimit:10;}
	.st4{stroke:#000000;stroke-linecap:round;stroke-linejoin:round;stroke-miterlimit:10;}
	.st5{fill:#FFC1C2;stroke:#000000;stroke-linecap:round;stroke-linejoin:round;stroke-miterlimit:10;}
	.st6{fill:none;stroke:#000000;stroke-width:1.1166;stroke-linecap:round;stroke-linejoin:round;stroke-miterlimit:10;}
	.st7{fill:#F6F6F6;stroke:#000000;stroke-linecap:round;stroke-linejoin:round;stroke-miterlimit:10;}
	.st8{fill:#BDCCD4;stroke:#000000;stroke-width:2;stroke-miterlimit:10;}
	.st9{stroke:#000000;stroke-width:2;stroke-miterlimit:10;}
	.st10{fill:none;stroke:#000000;stroke-width:2;stroke-miterlimit:10;}
	.st11{fill:none;stroke:#000000;stroke-width:1.5;stroke-linecap:round;stroke-linejoin:round;stroke-miterlimit:10;}
	.st12{fill:#FFC1C2;stroke:#000000;stroke-width:1.5;stroke-linecap:round;stroke-linejoin:round;stroke-miterlimit:10;}
	.st13{fill:#FFC1C2;stroke:#000000;stroke-width:1.5;stroke-miterlimit:10;}
</style>
<path class="st0" d="M1256.6,684.6c-1.7-0.9-2.4-1.3-3.4-2.9"/>
<path class="st1" d="M1252.7,670.7c-6.2,5.4-11.3,11.9-15.1,19.3c-2.3-0.9-4.6-1.7-6.8-2.7c4.6-7.6,11.1-14.1,18-19.8
	C1250.1,668.6,1251.4,669.6,1252.7,670.7z"/>
<path class="st0" d="M1241.8,691.6L1241.8,691.6L1241.8,691.6L1241.8,691.6c-1.4-0.6-2.8-1.1-4.2-1.6"/>
<path class="st0" d="M1253.5,686.9c-1.5-0.9-2.1-1.3-3.3-2.6"/>
<path class="st0" d="M1241.9,691.7L1241.9,691.7c0.1,0,0.1,0.1,0.2,0.1c0.1,0.1,0.2,0.1,0.3,0.2c0.9,0.7,1.7,1.5,2.7,2
	c0.8,0.5,1.9,0.8,2.8,0.5"/>
<path class="st0" d="M1248.8,689.2c-0.5-0.6-1-1.2-1.6-1.7"/>
<path class="st1" d="M1265.1,684.4c-0.3,1.1-1,2-1.7,2.9c-3.6,4.5-9,8.2-14.7,7.4c-0.3,0-0.7-0.1-1-0.2c0.3-0.1,0.6-0.2,0.9-0.4
	c1.1-0.8,1.3-2.3,0.9-3.5c-0.2-0.5-0.5-1-0.8-1.4c0.9,0.5,1.8,0.7,2.8,0.6c0.4,0,0.9-0.2,1.2-0.4c0.7-0.5,0.9-1.4,0.7-2.3V687
	c0.1,0.1,0.2,0.1,0.2,0.2c0.4,0.2,0.8,0.5,1.3,0.5c1.3,0,2-1.5,1.7-2.7c0-0.1,0-0.1-0.1-0.2c0.4,0.2,0.8,0.4,1.2,0.6
	c0.7,0.3,1.4,0.5,2.1,0.3c1.8-0.4,2.1-2.9,1.5-4.6c-1.1-3.3-3.7-5.8-6.3-8.2c-0.7-0.7-1.5-1.4-2.3-2c-1.3-1.1-2.6-2.2-3.9-3.3
	c-1.9-1.7-3.9-3.4-5.5-5.2c2.4,1.1,4.8,2.4,7,3.9c1.4,0.9,2.8,1.9,4.2,3c2.8,2.2,5.3,4.6,7.6,7.3
	C1264.1,678.7,1265.9,681.6,1265.1,684.4z"/>
<path class="st0" d="M1241.7,691.6C1241.8,691.6,1241.8,691.6,1241.7,691.6C1241.8,691.6,1241.8,691.6,1241.7,691.6
	C1241.8,691.6,1241.8,691.6,1241.7,691.6c0.1,0.1,0.2,0.1,0.2,0.1l0.1,0.1c0.1,0.1,0.2,0.1,0.3,0.2c1.7,1.2,3.5,2.1,5.5,2.6"/>
<path class="st2" d="M1201.1,642.4c-0.2,2.3-0.4,4.3-0.7,5.9c-3.5,0-9.2,0-12.7-0.2c-11-0.5-22.8-0.9-33.8-1.1
	c0.9-4.6,2.3-11.2,2.5-14.1c1.4-14,0.6-28.2-2.3-42c-0.2-1-0.4-2-0.7-2.9c7.4-5.1,7.3-6.8,17.3-12.4c2.9-1.6,4.2-2.6,5.6-3.7
	c0.5,1,1,2.1,1.5,3.2c3.6,7.5,8.1,17.6,9.6,25.3c0.1,0.6,0.2,1.1,0.3,1.6c-4,1.7-10.7,7.6-14.4,9.8c-4.2,2.5-1.7,1.7-5.3,3.2
	c8.3,2.3,19.8-0.7,30.6-0.9c0.3,0.8,0.6,1.9,0.9,3.2c0.7,3.1,1.2,7,1.5,9.3C1201.5,630.2,1201.5,636.9,1201.1,642.4z"/>
<path class="st3" d="M1177.8,575.1c3.9-2.9,8.1-5.5,12.7-7.1c6.3-2.2,13.5-2.5,19.5,0.5c6.3,3.2,10.4,9.6,13.2,16.2
	c4.5,10.7,6.2,22.2,7.8,33.7"/>
<path class="st3" d="M1268.9,604.9L1268.9,604.9c0.1,0.3,0.1,0.1,0.1-0.2"/>
<path class="st3" d="M1268.9,604.8L1268.9,604.8c0,0.7,0,1.6,0,3.1"/>
<path class="st3" d="M1244.7,664L1244.7,664c-0.2-0.2-0.5-0.5-0.7-0.8c-2.5-3-4.1-7.4-5.6-11c-1-2.5-1.8-5.1-2.6-7.7
	c-1.7-6-2.8-12.1-3.7-18.2c-0.4-2.6-0.8-5.2-1.1-7.9"/>
<path class="st3" d="M1233.1,687c-3.2-1.4-6.2-3.1-8.6-5.7c-6.6-7-6.6-17.6-7.3-27.2c-0.3-3.8-0.7-7.6-1.3-11.3
	c-1.4-8.7-3.6-17.3-6.7-25.5"/>
<path class="st3" d="M1187.5,600.3c4.2-1.3,9-1.3,12.6,1.2c3.3,2.2,5.2,5.9,6.7,9.6c0.9,2,1.7,4.1,2.5,6.2c-2-0.1-4-0.1-6-0.1
	c-1.2,0-2.5,0-3.7,0c-0.3,0-0.6,0-0.8,0"/>
<path class="st4" d="M1281.1,623L1281.1,623c-0.1,3-0.3,6-0.8,9c-4.6-5.8-10.8-10.3-17.6-13c0.9-1.5,1.2-3.5,1-5.4
	C1269.8,616,1275.7,619.2,1281.1,623z"/>
<path class="st3" d="M1261.9,601.9c-0.1,0.3-0.1,0.7-0.2,1c0,0.1,0,0.1,0,0.2c-0.2,3.4,1.3,6.5,1.9,9.8c0,0.2,0.1,0.5,0.1,0.7"/>
<path class="st3" d="M1231,618.4c8.4,0.7,16.8,1.6,25.1,2.9c1.2,0.2,2.5,0.4,3.8,0s2.2-1.2,2.8-2.3"/>
<path class="st3" d="M1273.9,607.2c0,0,0,0.1,0,0.2c0.2,2.3,0.3,2.1,0,4.4"/>
<path class="st3" d="M1278.3,614.5c-0.1-1.3,0-0.5,0.1-1.7c0-0.1,0-0.2,0-0.3"/>
<path class="st3" d="M1235.8,644.5c7.7,0.1,15.4,0.3,23.2,0.5c3.5,0.1,7,0.1,10.4-0.5"/>
<path class="st4" d="M1282.9,632.8c0,0.8-0.1,1.7-0.2,2.5c-0.2,1.6-0.6,3.2-1.3,4.7c-1.4,2.7-4.2,4.7-7.3,5.1
	c-1.6,0.2-3.2,0-4.7-0.6c1.5-0.3,3-0.7,4.5-1.3c1.6-0.7,3.2-1.6,4.2-3.1c0.8-1.2,1.2-2.6,1.5-4s0.6-2.8,0.8-4.1c0.5-3,0.7-6,0.8-9
	l0,0c0.1-2.4,0-4.9-0.2-7.4c-0.1-1-0.2-2.2-1-2.9c-0.4-0.3-1-0.5-1.5-0.4c0.1-1.2,0-2.4-0.4-3.4c-0.5-1.2-1.6-2.1-2.9-2.2
	c-0.4,0-0.8,0.1-1.2,0.4c-0.1-1.5-0.6-3.1-2-3.6c-1-0.3-2.2,0.2-2.9,1.1c0-0.5-0.1-1-0.1,0.2l0,0c-0.1-0.7-0.3-1.3-0.5-2
	c-0.8-2.2-3.6-4.1-5.4-2.7c-0.5,0.4-0.8,1-1,1.6c0-1.3-0.7-2.8-0.1-4c0.8-1.6,3-1.6,4.7-1.2c3.8,0.9,7.5,2.8,9.9,5.9
	c1.5,2,2.5,4.4,3.2,6.8c1.6,4.8,2.6,9.8,3,14.9C1282.9,627,1283,629.9,1282.9,632.8z"/>
<path class="st3" d="M1269,604.7L1269,604.7L1269,604.7C1268.9,603.7,1269,604.2,1269,604.7z"/>
<path class="st3" d="M1261.9,601.9c0,0.4,0,0.7-0.2,1c0,0.1-0.1,0.2-0.1,0.2"/>
<path class="st2" d="M1053.4,557c0,0.3-0.2,0.7-0.6,0.9c-2.5,1.2-4.8,2.8-7,4.6c-0.4,0.3-0.5,0.9-0.2,1.3c1.7,2.5,1.7,5.8,1.1,9
	c-0.2,0.9-1.3,1.1-1.8,0.4c-0.2-0.3-0.5-0.6-0.8-0.9c-0.9-0.8-1.9-1.4-3-1.9c-0.6-0.3-1.3,0.1-1.4,0.8l-1.2,8.2
	c-0.1,0.7-0.2,1.4-0.2,2c-0.1,1-1.4,1.2-1.8,0.4c-0.6-1-1.2-2-1.8-2.9c-0.2-0.3-0.4-0.6-0.7-1c3.7-6.3,8.9-15.1,12.5-21.3
	c1.9-3.3,3.8-6.6,5.4-10c0.5-1,1-2,1.4-3.1c0.4-0.3,0.9-0.7,1.2-1c0.6-0.5,1.5-0.2,1.6,0.5c0.8,4.2-1,8.7-4.2,11.4
	c-0.7,0.5-0.3,1.7,0.6,1.7C1053.1,556,1053.4,556.5,1053.4,557z"/>
<path class="st4" d="M1053.8,542.3c-0.1,0.4-0.3,0.7-0.4,1.1c-0.4,1-0.9,2.1-1.4,3.1c-1.6,3.4-3.5,6.7-5.4,10
	c-3.6,6.2-8.7,15-12.5,21.3c-0.1,0.2-0.2,0.4-0.3,0.6c-1-0.2-1.9-0.5-2.9-0.8c0,0,0,0-0.1,0c-0.3-0.3-0.6-0.4-0.9-0.5
	c-0.1,0-0.2,0-0.3,0c-1.3-0.6-2.6-1.4-3.7-2.3c-0.1-0.1-0.3-0.2-0.4-0.4c-0.3-0.3-0.6-0.6-0.9-1c-0.7-0.8-1.2-1.8-1.6-2.8
	c-0.8-2.2-0.7-4.7-0.6-7c0.3-4,2.5-10.9,4.7-14.2s6-5.4,9.9-6.5c2.9-0.8,6-1.1,9.1-0.9c1.6-5.5,3.8-10.9,6.1-16.2
	c0.8-1.9,1.6-3.8,2.8-5.4c0.2-0.3,0.5-0.7,0.9-0.8c1-0.3,1.8,0.8,1.9,1.8C1058,528.4,1056.4,535.7,1053.8,542.3z"/>
<path class="st3" d="M1216,642.8c-5.2-0.4-10.3-0.4-15.5-0.5"/>
<path class="st3" d="M1096.7,530.8c5.9,4.3,11.6,18.7,9.9,27.1c-0.3,1.3-0.6,2.5-1,3.7"/>
<line class="st3" x1="1113.1" y1="589.3" x2="1113.1" y2="589.3"/>
<path class="st3" d="M1106,518.7c7.6,5.6,15.7,20.1,17.5,29c1,4.9,1.5,9.8,1.3,14.8"/>
<line class="st3" x1="1113.1" y1="589.3" x2="1113.1" y2="589.3"/>
<path class="st4" d="M1156.4,632.8c-0.3,2.9-1.6,9.5-2.5,14.1c-0.1,0.3-0.1,0.7-0.2,1l0,0c-27.1,0.7-54.2,1.5-81.3,2.2
	c-16.6,0.5-35.2,3.8-50.3-2.8c-0.2-0.1,0.9-3.2,0.7-3.3l-1.2,3c0.1-1,0.3-2.1,0.5-3.3l0,0c1.4-6.6,5.3-16.1,7.9-20.7
	c0.5,1.2,2.1,2.5,3.1,3.1c4,2.5,5.3,2.6,9.3,2.6c6.3,0.1,9.1-0.1,11.5-5.9c2.4-5.8,2.6-10.1,0.8-16.1c-1.2-4.3-2.5-11.8-4.4-15.8
	c-0.1-0.2,0.3-0.4,1.4,0.9c0.6,0.6,1.4,1,2.2,0.9c3-0.3,5.6,0.2,8-0.3c3.6-0.7,7.1-2.3,9.7-4.8c7.1-1,14-3.5,19.9-7.5
	c6.5-4.5,11.6-11,14.1-18.4c4,0.7,8,1.3,12,1.4c2.4,0,4.8-0.1,7.2-0.5c-0.1,2.9-0.4,5.8-1.1,8.6c-1.6,7-5.2,13.6-10.6,18.2
	c7.4-1,14.8-2.1,22.2-3.2c6-0.8,12.3-1.6,17.9,0.5l0,0c0.1,0.4,0.2,0.8,0.3,1.3c0.2,1,0.5,1.9,0.7,2.9
	C1157.1,604.6,1157.8,618.8,1156.4,632.8z"/>
<path class="st3" d="M1049.1,593.1"/>
<path class="st3" d="M1029.3,624.2c-0.4-0.8-0.7-1.6-0.9-2.3c-0.7-2-0.5-1.8-0.5-3.9c0-4,1.3-7.8,2.8-11.5c1.9-4.8,4.2-9.4,6.4-14"
	/>
<path class="st5" d="M1077.2,546.7c-0.3,1.5,0.8,2.9,1.6,4.2s1.2,3.3,0,4.1c-1,0.7-2.6,0-3.2-1.1s-0.3-2.5,0.2-3.7
	C1076.2,549,1076.9,547.9,1077.2,546.7"/>
<path class="st3" d="M1034.1,577.7c-0.9-1.3-1.7-2.8-1.4-4.3"/>
<path class="st3" d="M1047.5,548c1.2-1.4,3.7-3.1,5.8-4.6"/>
<path class="st6" d="M1056.8,550.6c3.8,1.4,7.2,3.9,9.7,7.1c0.7,0.9,1.2,1.8,1.8,2.7c4.8,7.4,9.4,15.1,5.4,23
	c-3.9,7.7-10.7,9.8-19.4,8.4c-2-0.3-2.1-0.3-3.9-2.1"/>
<path class="st3" d="M1066,586.1"/>
<path class="st3" d="M1067,563.4"/>
<path class="st6" d="M1047.3,579.2c-0.7-1.1-2.5-0.9-3.3,0.2s-0.5,2.6,0.2,3.7c0.5,0.8,1.2,1.5,2.2,1.8c0.9,0.3,2,0.2,2.7-0.4
	c0.2-0.1,0.3-0.3,0.5-0.3c0.9-0.2,1.2,1.4,2.1,1.5"/>
<path class="st6" d="M1057.3,565.1c-2.4,0.5-4.3,2.7-4.5,5.1"/>
<path class="st6" d="M1065.5,557.5c-2.2,0.6-3.8,2.9-3.7,5.2"/>
<path class="st6" d="M1064.7,566.8c0.2,1.8-1.4,3.6-3.2,3.7"/>
<path class="st6" d="M1068,574c-0.9,0.7-0.9,2.2,0,2.9s2.4,0.3,2.8-0.8"/>
<path class="st3" d="M1022.8,644c-0.2-0.1-0.4-0.2-0.7-0.3"/>
<path class="st3" d="M1027.9,588c-7.1,11.2-13,23.3-15.1,36.4c-0.8,5.3-0.8,11.3,2.8,15.3c1.4,1.5,3.2,2.5,5.1,3.5
	c0.4,0.2,0.9,0.4,1.3,0.6"/>
<path class="st3" d="M1028,573.8c-0.2-0.1-0.4-0.1-0.6-0.2c-0.2-0.1-0.4-0.2-0.7-0.3c0.1,0,0.2,0,0.3,0
	C1027.5,573.3,1027.8,573.5,1028,573.8z"/>
<path class="st3" d="M1028.9,589.5c-0.3-0.5-0.6-1-0.9-1.5c-2.5-4.3-4.7-8.9-4.3-13.8c0-0.3,0.1-0.6,0.3-0.8
	c0.5-0.5,1.2,0.1,1.7,0.7c0,0,0,0,0,0.1c1.2,1.8,2.3,3.6,3.5,5.5"/>
<path class="st3" d="M1028,573.8c0.2,0.2,0.5,0.5,0.7,0.8c2.2,2.9,4.3,5.8,6.5,8.7c1.3,1.8,2.9,3.7,5,4c1.2,0.2,2.4-0.1,3.5-0.4
	c1.9-0.4,3.9-0.8,5.9-0.9c0.8-0.1,1.9,0,2.3,0.7c0.7,1.1-0.6,2.3-1.7,2.9c0,0-0.1,0.1-0.2,0.1c-4,2.1-8.6,3.1-13.1,2.9"/>
<path class="st3" d="M1026.8,573.3c-0.5,0-0.9,0.4-1.2,0.8c-0.2,0.3-0.3,0.7-0.3,1.1c0,1,0.6,1.9,1.1,2.8"/>
<g>
	<path class="st7" d="M1084.8,544.1c-0.9,0.6-1.9,1-2.9,1.4c-4-2.5-7.3-6-9.6-10c0.2-1.1,0.6-2.6,1.1-3.8
		C1076.1,536.7,1080.1,541,1084.8,544.1z"/>
	<line class="st3" x1="1073.4" y1="531.7" x2="1073.4" y2="531.7"/>
	<path class="st7" d="M1114.6,515.3c-9.7,9.5-19.4,18.9-29.2,28.4c-0.2,0.2-0.4,0.3-0.7,0.5c-4.8-3.1-8.7-7.4-11.4-12.4l0,0l0,0
		c9.5-9.6,19.6-19.5,29.7-28.4c0.1,0.1,0.2,0.1,0.3,0.2c4.9,2.4,8.4,5.5,10.8,10.4L1114.6,515.3z"/>
	<path class="st3" d="M1073.4,531.7L1073.4,531.7L1073.4,531.7"/>
	<path class="st3" d="M1115,511L1115,511"/>
	<path class="st7" d="M1115,511c0.2,1.3,0,3-0.3,4.3l-0.5-1.5c-2.3-4.9-5.9-8-10.8-10.4c-0.1-0.1-0.2-0.1-0.3-0.2l0,0
		c0.9-0.7,2.4-0.9,3.5-0.9C1109.9,504.7,1112.7,507.7,1115,511L1115,511z"/>
</g>
<g>
	<path class="st7" d="M1095.2,522.1c-0.3,0.5-1,0.8-1.7,0.7c-0.6-0.1-1.2-0.4-1.7-0.8c-0.1-0.1-0.2-0.2-0.3-0.3
		c-2.4-1.8-4.3-4.3-6.1-6.8c-0.5-0.6-1-1.3-1.1-2.1c0-0.1,0-0.1,0-0.2c-0.1-0.7,0.2-1.6,0.9-1.8c0.4-0.2,0.9-0.1,1.4,0
		c0.8,0.3,2.4,0.9,2.9,1.5c0.7,1,1.5,1.9,2.4,2.8c0.1,0.1,0.1,0.1,0.2,0.2c1.2,1.2,2.5,3.1,3.1,4.6
		C1095.4,520.7,1095.6,521.5,1095.2,522.1z"/>
	<path class="st7" d="M1097,517.3c-0.1,0.7-0.6,1.3-1.3,1.2c-0.3,0-0.6-0.3-0.9-0.5c-1-0.8-2-1.7-2.9-2.6c-0.1-0.1-0.2-0.2-0.2-0.2
		c-0.9-0.9-1.7-1.8-2.4-2.8c-0.2-0.2-0.3-0.4-0.4-0.6c-0.4-0.5-0.7-1.1-0.8-1.7s0.1-1.3,0.7-1.6c0.5-0.3,1.1-0.1,1.7,0.1
		c0.2,0.1,0.3,0.1,0.4,0.2c0.6,0.2,1.1,0.5,1.6,0.8c0.6,0.3,1.1,0.8,1.5,1.3l1.3,1.5c1.2,1.5,1.3,1.7,1.5,2.5
		C1097.2,515.4,1097.1,516.6,1097,517.3z"/>
	<path class="st7" d="M1092,525.1c-0.3,0.6-1.1,0.5-1.7,0.2c-0.5-0.2-0.9-0.5-1.2-0.7c-0.9-0.7-1.7-1.5-2.4-2.4
		c-0.2-0.2-0.4-0.5-0.6-0.7c-0.1-0.1-0.1-0.1-0.2-0.2c-0.9-1-1.7-2-2.6-3.1c-0.8-1-1.7-2-2-3.2c-0.2-0.7-0.2-1.6,0.3-2.1
		c0.6-0.7,1.6-0.7,2.4-0.3c0.1,0,0.1,0.1,0.2,0.1c0,0.1,0,0.1,0,0.2c0.2,0.8,0.6,1.4,1.1,2.1c1.8,2.4,3.7,4.9,6.1,6.8
		c0.3,0.9,0.5,1.8,0.6,2.7C1092.1,524.6,1092.2,524.9,1092,525.1z"/>
	<path class="st7" d="M1089.1,524.5c-1.8-0.1-5,0-6.6-0.7c-0.7-0.3-1.3-0.7-1.8-1.3c-0.7-0.7-1.2-1.6-1.3-2.7c0-0.3,0-0.6,0.2-0.7
		c0.2-0.2,0.6-0.2,0.9-0.2c1.8,0.3,4,1.3,5.5,2.3c0.1,0.1,0.1,0.2,0.2,0.2c0.2,0.2,0.4,0.5,0.6,0.7
		C1087.4,523,1088.2,523.9,1089.1,524.5z"/>
</g>
<path class="st8" d="M83.7,60.5c-5.3,0-10.6-0.3-15.8-1c0.3-1.9,0.7-3.7,1.2-5.6c0.8,0.1,1.6,0.2,2.4,0.2c4.1,0.3,8.2,0.5,12.3,0.4
	C83.7,56.5,83.7,58.5,83.7,60.5z"/>
<path class="st8" d="M69,53.9c-0.5,1.9-0.9,3.7-1.2,5.6c-3.8-0.5-7.5-1.1-11.2-1.9c0.1-0.7,0.3-1.5,0.4-2.2c0.1-0.5,0.1-1.4,0-1.9
	c-0.3-1.3,0-2.6,0.7-3.7c1.2,1,2.5,1.8,3.9,2.4C63.9,53.2,66.5,53.6,69,53.9z"/>
<path class="st8" d="M122.1,54.6c-2.7,0.8-5.4,1.6-8.1,2.2c-4.6,1.1-9.2,2-14,2.6c-5.4,0.7-10.9,1-16.4,1.1c0-2,0-4,0-5.9
	c7.5-0.1,14.9-0.8,22.3-2.1c4.8-0.9,9.9-2.2,14-4.8c0.2,0.4,0.4,1,0.4,1.4C120.9,50.9,121.5,52.7,122.1,54.6z"/>
<path class="st8" d="M120,47.6c-4.1,2.6-9.2,3.9-14,4.8c-7.3,1.3-14.8,2-22.3,2.1c-4.1,0.1-8.2-0.1-12.3-0.4
	C70.6,54,69.8,54,69,53.9c-2.6-0.3-5.1-0.8-7.5-1.7c-1.4-0.6-2.8-1.4-3.9-2.4c0.1-0.1,0.1-0.2,0.2-0.3c1-1.5,2.2-2.7,3.8-3.6
	c5.2-2.7,10.7-4.8,16.5-6c1.8-0.4,3.6-0.4,5.4-0.5c3.1-0.1,6.2-0.3,9.3-0.2c4.8,0.1,9.6,0.6,14.3,1.6c2.3,0.5,4.6,0.9,6.9,1.6
	C116.6,43.3,118.7,44.9,120,47.6C120,47.5,120,47.5,120,47.6z"/>
<path class="st8" d="M75.6,150.2c-1.6-0.4-3.1-1.1-4.6-1.8c-2.2-1.1-3.5-3-4.7-5c-0.9-1.5-1.9-3-2.9-4.4c3.5,0.7,7,1.2,10.6,1.6
	C74.6,143.7,75.1,146.9,75.6,150.2z"/>
<path class="st8" d="M102.7,140.4c-0.5,4-1,8.1-1.4,12.1c-0.3,0-0.7,0-1.1,0.1c-3.4,0.2-6.7,0-10.1,0c-1.2,0-2.4-0.1-3.5-0.2
	c-2.6-0.3-5.2-0.9-7.7-1.6c-0.9-0.2-1.9-0.4-2.8-0.6c-0.1,0-0.3,0-0.4-0.1l0,0c-0.5-3.2-1-6.4-1.5-9.7c4.1,0.5,8.2,0.7,12.3,0.7
	C91.9,141.3,97.3,141,102.7,140.4z"/>
<path class="st8" d="M131.2,133.9c-0.1,0.4-0.1,0.9-0.2,1.3c-0.2,1.3-0.6,2.6-0.9,3.8c-0.2,0.6-0.4,1.2-0.8,1.8
	c-0.2,0.2-0.3,0.5-0.4,0.7c-0.5,1.7-1.6,3.1-2.3,4.7c-0.2,0.4-0.4,0.7-0.8,0.9c-1.3,0.8-2.6,1.7-4,2.3c-1,0.5-2,0.7-3,0.9
	c-0.6,0.1-1.2,0.2-1.8,0.3c-2.8,0.4-5.7,0.9-8.5,1.3c-2.4,0.4-4.8,0.5-7.2,0.6c0.5-4,1-8.1,1.4-12.1l0,0c6-0.7,12-1.8,17.9-3.3
	C124.2,136.2,127.7,135.1,131.2,133.9z"/>
<path class="st8" d="M145.5,126.1c0,0.3,0,0.6-0.1,0.9c-0.1,0.6-0.5,1-1.2,0.9c-1-0.1-2,0.1-3,0.1c-0.9,0.1-1.2-0.1-1.3-1
	c-0.1-1-0.2-2-0.3-3c0-0.5-0.1-1-0.2-1.4c-0.2-1.1-1-1.7-2-1.8c-0.4,0-0.9,0-1.3,0c-0.3,0-0.6,0.1-0.8,0.1c-0.8,0.1-0.8,0.4-1.1,1.7
	c-0.1,0.5-0.2,1-0.4,1.5s-0.4,0.9-0.9,1c-0.8,0.2-1.1,0.8-1.1,1.6c0,0.8,0,1.6-0.1,2.4c-3.6,1.3-7.2,2.4-10.9,3.4
	c-5.8,1.5-11.6,2.6-17.5,3.3c0.2-1.6,0.4-3.1,0.5-4.7c0.6-5,1.2-10.1,1.5-15.2c0-0.3,0-0.7,0-1c5.2-0.7,10.3-1.8,15.4-3.2
	c4-1.1,7.9-2.3,11.7-3.8l0,0c0,0.9,0.1,1.8,0.2,2.7c0,0.3,0,0.6,0.2,0.8c0.9,0.8,1,2,1.3,3.1c0.3,1,0.3,1,1.2,0.9c0,0,0.1,0,0.2,0
	c1.7-0.1,1.8-0.3,1.6-2c-0.1-0.6-0.6-1-1.2-0.9c-0.5,0.1-0.6,0-1.1-0.2c-0.8-0.4-1.3-1-1.2-1.8c0.1-0.9,0.5-1.5,1.4-1.7
	c1-0.3,1.7-0.4,2.6-0.4c0.4,0,0.9,0,1.3,0c0.9,0.1,1.8,0.2,2.7,0.3c1.1,0.1,1.7,0.9,1.6,2c0,0.6-0.3,1.1-0.9,1.3
	c-0.5,0.1-1,0.2-1.6,0.3c-1,0-1.1,0.2-1,1.2c0,0.3,0.1,0.5,0.1,0.8c0,1,0.4,1.6,1.5,1.9c1.6,0.5,2.7,1.8,3.1,3.3
	C145,121.5,145.6,123.8,145.5,126.1z"/>
<path class="st8" d="M73.3,135.8L73.3,135.8c-4.6-0.5-9.1-1.3-13.6-2.3l0,0c-1.3-2.2-2.3-4.6-3.2-7c-0.9-2.5-1-5.2-1.6-7.7
	c-0.6-2.3-1.1-4.6-1.3-7c5.4,1.5,10.9,2.6,16.4,3.3c0.2,1,0.3,2,0.5,3C71.5,124,72.4,129.9,73.3,135.8z"/>
<path class="st8" d="M132.4,102.8c0,0.2,0,0.4,0,0.7c-3.8,1.4-7.7,2.7-11.7,3.7l0,0c-5,1.3-10,2.4-15.2,3.1
	c0.2-7.7-0.3-15.3-1.1-22.9c5-0.8,10-2,14.9-3.4c3.1-0.9,6.3-2,9.3-3.1c0.3,0.9,0.5,1.7,0.8,2.6c1.1,3.9,1.5,7.9,2.1,11.9
	c0.2,1.3,0.4,2.6,0.7,3.9C132.5,100.3,132.5,101.6,132.4,102.8z"/>
<path class="st8" d="M86.8,111.6c-5.9,0-11.7-0.4-17.5-1.2l0,0c-1.1-7.4-2.1-14.8-2.6-22.2c6.1,0.8,12.3,1.1,18.5,1
	C85.9,96.6,86.5,104.1,86.8,111.6z"/>
<path class="st8" d="M69.3,110.3c-5.5-0.8-11-1.9-16.3-3.4c-0.1-2.9-0.2-5.8-0.1-8.7c0-1,0-2.1,0.1-3.1c0.1-3.1,0.1-6.3,0.4-9.4
	c4.4,1,8.9,1.9,13.4,2.4C67.2,95.5,68.2,103,69.3,110.3z"/>
<path class="st8" d="M127.6,76.6c-2.9,1.1-5.8,2-8.8,2.9c-4.9,1.4-9.9,2.5-14.9,3.3c-6.3,1-12.7,1.6-19,1.7
	C84.4,78,84,71.6,83.8,65.1l0,0c5.7,0,11.5-0.4,17.1-1.2c4.8-0.6,9.6-1.6,14.3-2.8c2.8-0.7,5.5-1.5,8.2-2.4c0,0,0,0,0,0.1
	c0.8,3.1,1.9,6.1,2.2,9.3c0.2,1.9,0.8,3.8,1.4,5.6C127.3,74.7,127.4,75.7,127.6,76.6z"/>
<path class="st8" d="M66.4,83.4c-4.3-0.6-8.5-1.3-12.7-2.3c0-0.1,0-0.1,0-0.2c0.3-2.6,0-5.2,0.6-7.7c0.5-1.9,0.7-3.9,1-5.8
	c0.2-1.6,0.4-3.1,0.5-4.7c0-0.2,0-0.4,0.1-0.6c3.7,0.8,7.5,1.5,11.2,1.9C66.3,70.5,66.2,76.9,66.4,83.4z"/>
<path class="st9" d="M131.7,129.1c-0.1,1.6-0.3,3.2-0.5,4.8c-3.5,1.2-7,2.3-10.5,3.2c-5.9,1.5-11.9,2.6-17.9,3.3l0,0
	c-5.4,0.6-10.9,0.9-16.3,0.8c-4.1,0-8.2-0.3-12.3-0.7c-3.5-0.4-7.1-0.9-10.6-1.6l0,0c-1-1.4-2-2.8-3-4.3c-0.3-0.4-0.5-0.8-0.8-1.2
	l0,0c4.5,1,9,1.8,13.6,2.3l0,0c4.4,0.5,8.9,0.8,13.3,0.8c5.6,0.1,11.1-0.2,16.6-0.9c5.9-0.7,11.8-1.8,17.5-3.3
	C124.5,131.5,128.1,130.4,131.7,129.1z"/>
<path class="st9" d="M132.5,108c-3.8,1.5-7.8,2.7-11.7,3.8c-5.1,1.4-10.2,2.4-15.4,3.2c-6.1,0.9-12.2,1.3-18.4,1.3
	c-5.7,0-11.3-0.4-17-1.1c-5.5-0.7-11-1.8-16.4-3.3c0-0.4-0.1-0.7-0.1-1.1c-0.1-1.2-0.5-2.3-0.5-3.5c0-0.1,0-0.2,0-0.3
	c5.4,1.5,10.8,2.6,16.3,3.4l0,0c5.8,0.8,11.7,1.2,17.5,1.2c6.3,0,12.5-0.4,18.7-1.3c5.1-0.7,10.2-1.8,15.2-3.1l0,0
	c4-1,7.9-2.3,11.7-3.7C132.4,105,132.4,106.5,132.5,108z"/>
<path class="st9" d="M128.7,80.8c-3.1,1.2-6.2,2.2-9.3,3.1c-4.9,1.4-9.9,2.6-14.9,3.4c-6.3,1.1-12.8,1.6-19.2,1.8
	c-6.2,0.1-12.4-0.2-18.5-1c-4.5-0.6-9-1.4-13.4-2.4c0.1-1.5,0.2-3.1,0.4-4.6c4.2,1,8.5,1.8,12.7,2.3c6.1,0.8,12.3,1.1,18.4,1.1
	c6.4-0.1,12.7-0.6,19-1.7c5-0.8,10-1.9,14.9-3.3c3-0.8,5.9-1.8,8.8-2.9c0,0.1,0,0.2,0.1,0.3C127.9,78.3,128.3,79.6,128.7,80.8z"/>
<line class="st10" x1="132.4" y1="103.5" x2="132.4" y2="103.5"/>
<line class="st10" x1="132.5" y1="108" x2="132.5" y2="108"/>
<line class="st10" x1="53.6" y1="111.8" x2="53.6" y2="111.8"/>
<line class="st10" x1="131.7" y1="129.1" x2="131.7" y2="129.1"/>
<path class="st10" d="M120,47.6L120,47.6"/>
<path class="st10" d="M135.4,115.4c0.1,1.8,0,3.7-0.1,5.5"/>
<path class="st10" d="M118.8,79.5c-0.8-6.2-2-12.3-3.6-18.3"/>
<path class="st10" d="M120.8,111.8c0.1,4.9,0.1,9.9,0,14.8c0,2,0,4,0,6"/>
<path class="st10" d="M118.8,150.3c0.7-3.2,1.3-6.5,1.6-9.7c0.1-1.1,0.2-2.3,0.3-3.4"/>
<path class="st10" d="M120.7,107.2c-0.2-7.8-0.5-15.6-1.4-23.3"/>
<path class="st10" d="M114,56.9c-0.6-2-1.3-3.9-2-5.8"/>
<path class="st10" d="M100.1,59.4c-0.4-2-0.8-4-1.1-5.9"/>
<path class="st8" d="M105.6,110.3c-6.2,0.9-12.5,1.3-18.7,1.3c-0.4-7.5-1-15-1.6-22.5c6.4-0.1,12.9-0.7,19.2-1.8
	C105.3,95,105.7,102.6,105.6,110.3z"/>
<path class="st8" d="M105.4,114.9c0,0.3,0,0.6,0,1c-0.3,5.1-0.9,10.1-1.5,15.2c-0.2,1.6-0.4,3.1-0.5,4.7c-5.5,0.6-11.1,0.9-16.6,0.9
	c-4.4,0-8.9-0.3-13.3-0.8c-0.9-5.9-1.9-11.8-2.8-17.6c-0.2-1-0.3-2-0.5-3c5.6,0.8,11.3,1.1,17,1.1
	C93.2,116.2,99.3,115.8,105.4,114.9z"/>
<line class="st10" x1="105.4" y1="114.9" x2="105.4" y2="114.9"/>
<path class="st10" d="M103.9,82.8c-0.8-6.3-1.8-12.6-3-18.9"/>
<path class="st10" d="M86.6,152.4c-0.3-3.7-0.3-7.4-0.1-11.2"/>
<path class="st10" d="M87,116.2c0.1,4.6,0.2,9.3,0,13.9c-0.1,2.2-0.2,4.3-0.3,6.5"/>
<path class="st8" d="M84.9,84.5c-6.2,0.1-12.3-0.3-18.4-1.1c-0.3-6.5-0.1-13,0.7-19.3c5.5,0.7,11,1,16.6,1
	C83.9,71.6,84.4,78,84.9,84.5z"/>
<path class="st9" d="M123.5,58.8c-2.7,0.9-5.4,1.7-8.2,2.4c-4.7,1.2-9.5,2.1-14.3,2.8c-5.7,0.8-11.4,1.2-17.1,1.2l0,0
	c-5.6,0-11.1-0.3-16.6-1c-3.8-0.5-7.5-1.1-11.2-1.9c0.2-1.5,0.4-3,0.7-4.5c3.7,0.8,7.5,1.4,11.2,1.9c5.2,0.7,10.5,1,15.8,1
	c5.5,0,11-0.4,16.4-1.1c4.7-0.6,9.4-1.4,14-2.6c2.7-0.7,5.4-1.4,8.1-2.2C122.6,56,123.1,57.4,123.5,58.8z"/>
<line class="st10" x1="69" y1="53.9" x2="69" y2="53.9"/>
<path class="st11" d="M146.3,143.8c0.1,0,0.2-0.1,0.3-0.1c0.1,0,0.3-0.1,0.4-0.1C146.8,143.7,146.6,143.8,146.3,143.8z M146,143.9
	c-0.6,0.2-1.2,0.3-1.8,0.4C144.8,144.2,145.4,144.1,146,143.9C146,143.9,146.1,143.9,146,143.9c0.1,0,0.2,0,0.3-0.1
	C146.2,143.9,146.1,143.9,146,143.9z"/>
<path class="st12" d="M144.2,144.3L144.2,144.3c-1.5,0.2-3.1,0.3-4.6,0.2c-0.9,0-1.7-0.2-2.5-0.5c-0.1-0.1-0.3-0.1-0.4-0.2
	c0.1-0.4,0.3-0.7,0.6-1c1.3-1.2,3.1-1.5,4.8-1.9c1.1-0.2,2.4-0.3,3.5-0.1c0,0,2.5,0.4,3,1.7C149.1,144,144.3,144.4,144.2,144.3"/>
<path class="st11" d="M145.1,155.1"/>
<path class="st11" d="M141.2,155.9L141.2,155.9C141.2,155.9,140.7,154,141.2,155.9s0.3,7.6,0.3,7.6c0,1-0.2,2.1-0.9,2.3"/>
<path class="st11" d="M146,143.9C146,143.9,146,143.9,146,143.9"/>
<path class="st11" d="M143.4,164.6c0.9,0,1.7,0.1,2.5,0.5c0.7,0.3,1.4,0.8,1.5,1.6c0,0.6-0.4,1.1-0.9,1.4c-0.5,0.3-1.1,0.4-1.7,0.4
	c-2.1,0.3-4.3,0.5-6.4-0.1c-0.7-0.2-1.5-0.6-1.6-1.3c-0.2-0.6,0.2-1.3,0.8-1.6c0.5-0.4,1.2-0.4,1.8-0.5s1.3-0.1,1.9-0.3"/>
<path class="st11" d="M143.4,164.6"/>
<path class="st12" d="M141.2,155.6c0-0.7-0.7-0.7-1.3-0.8c-2.3-0.1-3.3-2.3-3.5-4.3c-0.2-1.7-0.1-3.9,0.1-5.6c0.1-0.9,0-1.2,0.6-1
	c0.8,0.2,1.7,0.6,2.5,0.6c1.6,0.1,4.6-0.2,4.6-0.2l2.7-0.7l1.4-0.8c0.7-0.2,0.6,0.1,0.7,1.1c0.2,1.9,0.4,4.4,0.1,6.3
	c-0.3,2.3-1.4,4.7-4,4.8c-0.7,0-1.5,0-1.5,0.8L141.2,155.6z"/>
<path class="st3" d="M140.6,138.6"/>
<path class="st11" d="M144.3,166.3c-1-0.2-1.2-1.3-1.2-2.3c0,0-0.3-5.6,0.4-7.5c0.7-1.8,0,0,0,0l0,0"/>
<path class="st13" d="M141.8,129.9c-0.3,1.3,0.7,2.5,1.4,3.6c0.7,1.1,1.1,2.8,0,3.6c-0.9,0.7-2.3,0-2.7-1c-0.5-1-0.2-2.2,0.1-3.3
	c0.4-1,0.9-2.1,1.1-3.1"/>
</svg>
