<?xml version="1.0" encoding="utf-8"?>
<!-- Generator: Adobe Illustrator 27.5.0, SVG Export Plug-In . SVG Version: 6.00 Build 0)  -->
<svg version="1.1" id="Calque_1" xmlns="http://www.w3.org/2000/svg" xmlns:xlink="http://www.w3.org/1999/xlink" x="0px" y="0px"
	 viewBox="0 0 200 200" style="enable-background:new 0 0 200 200;" xml:space="preserve">
<style type="text/css">
	.st0{fill:none;stroke:#000000;stroke-width:1.0883;stroke-linecap:round;stroke-linejoin:round;stroke-miterlimit:10;}
	.st1{stroke:#000000;stroke-width:1.0883;stroke-linecap:round;stroke-linejoin:round;stroke-miterlimit:10;}
	.st2{fill:#FFE6B4;stroke:#000000;stroke-linecap:round;stroke-linejoin:round;stroke-miterlimit:10;}
	.st3{fill:none;stroke:#000000;stroke-linecap:round;stroke-linejoin:round;stroke-miterlimit:10;}
	.st4{stroke:#000000;stroke-linecap:round;stroke-linejoin:round;stroke-miterlimit:10;}
	.st5{fill:#FFC1C2;stroke:#000000;stroke-linecap:round;stroke-linejoin:round;stroke-miterlimit:10;}
	.st6{fill:none;stroke:#000000;stroke-width:1.1166;stroke-linecap:round;stroke-linejoin:round;stroke-miterlimit:10;}
	.st7{fill:#F6F6F6;stroke:#000000;stroke-linecap:round;stroke-linejoin:round;stroke-miterlimit:10;}
	.st8{fill:none;stroke:#000000;stroke-width:0.9265;stroke-miterlimit:10;}
	.st9{fill:#BDCCD4;stroke:#000000;stroke-width:0.9265;stroke-miterlimit:10;}
	.st10{fill:#FF868B;stroke:#000000;stroke-width:0.9265;stroke-miterlimit:10;}
	.st11{fill:#FFC1C2;stroke:#000000;stroke-width:0.9265;stroke-miterlimit:10;}
	.st12{fill:#83C2E1;stroke:#000000;stroke-width:0.9265;stroke-miterlimit:10;}
	.st13{fill:#FFE4B2;stroke:#000000;stroke-width:0.9265;stroke-miterlimit:10;}
	.st14{fill:none;stroke:#000000;stroke-width:0.9265;stroke-linecap:round;stroke-linejoin:round;stroke-miterlimit:10;}
	.st15{fill:#F0F0F0;stroke:#000000;stroke-width:0.9265;stroke-linecap:round;stroke-linejoin:round;stroke-miterlimit:10;}
	.st16{fill:#9CBCFC;stroke:#000000;stroke-width:0.9265;stroke-linecap:round;stroke-linejoin:round;stroke-miterlimit:10;}
	.st17{stroke:#000000;stroke-width:0.9265;stroke-linecap:round;stroke-linejoin:round;stroke-miterlimit:10;}
	.st18{fill:#F4F4F4;stroke:#000000;stroke-width:0.9265;stroke-linecap:round;stroke-linejoin:round;stroke-miterlimit:10;}
	.st19{fill:#FFBFC0;stroke:#000000;stroke-width:0.9265;stroke-linecap:round;stroke-linejoin:round;stroke-miterlimit:10;}
	.st20{fill:none;stroke:#000000;stroke-miterlimit:10;}
	.st21{fill:#9BBBFB;stroke:#000000;stroke-miterlimit:10;}
	.st22{fill:#81C0DF;stroke:#000000;stroke-miterlimit:10;}
	.st23{fill:#F0F0F0;stroke:#000000;stroke-miterlimit:10;}
	.st24{fill:#BDCCD4;stroke:#000000;stroke-width:1.2545;stroke-miterlimit:10;}
	.st25{fill:#FFBFC0;stroke:#000000;stroke-miterlimit:10;}
</style>
<path class="st0" d="M1256.6,684.6c-1.7-0.9-2.4-1.3-3.4-2.9"/>
<path class="st1" d="M1252.7,670.7c-6.2,5.4-11.3,11.9-15.1,19.3c-2.3-0.9-4.6-1.7-6.8-2.7c4.6-7.6,11.1-14.1,18-19.8
	C1250.1,668.6,1251.4,669.6,1252.7,670.7z"/>
<path class="st0" d="M1241.8,691.6L1241.8,691.6L1241.8,691.6L1241.8,691.6c-1.4-0.6-2.8-1.1-4.2-1.6"/>
<path class="st0" d="M1253.5,686.9c-1.5-0.9-2.1-1.3-3.3-2.6"/>
<path class="st0" d="M1241.9,691.7L1241.9,691.7c0.1,0,0.1,0.1,0.2,0.1c0.1,0.1,0.2,0.1,0.3,0.2c0.9,0.7,1.7,1.5,2.7,2
	c0.8,0.5,1.9,0.8,2.8,0.5"/>
<path class="st0" d="M1248.8,689.2c-0.5-0.6-1-1.2-1.6-1.7"/>
<path class="st1" d="M1265.1,684.4c-0.3,1.1-1,2-1.7,2.9c-3.6,4.5-9,8.2-14.7,7.4c-0.3,0-0.7-0.1-1-0.2c0.3-0.1,0.6-0.2,0.9-0.4
	c1.1-0.8,1.3-2.3,0.9-3.5c-0.2-0.5-0.5-1-0.8-1.4c0.9,0.5,1.8,0.7,2.8,0.6c0.4,0,0.9-0.2,1.2-0.4c0.7-0.5,0.9-1.4,0.7-2.3V687
	c0.1,0.1,0.2,0.1,0.2,0.2c0.4,0.2,0.8,0.5,1.3,0.5c1.3,0,2-1.5,1.7-2.7c0-0.1,0-0.1-0.1-0.2c0.4,0.2,0.8,0.4,1.2,0.6
	c0.7,0.3,1.4,0.5,2.1,0.3c1.8-0.4,2.1-2.9,1.5-4.6c-1.1-3.3-3.7-5.8-6.3-8.2c-0.7-0.7-1.5-1.4-2.3-2c-1.3-1.1-2.6-2.2-3.9-3.3
	c-1.9-1.7-3.9-3.4-5.5-5.2c2.4,1.1,4.8,2.4,7,3.9c1.4,0.9,2.8,1.9,4.2,3c2.8,2.2,5.3,4.6,7.6,7.3
	C1264.1,678.7,1265.9,681.6,1265.1,684.4z"/>
<path class="st0" d="M1241.7,691.6C1241.8,691.6,1241.8,691.6,1241.7,691.6C1241.8,691.6,1241.8,691.6,1241.7,691.6
	C1241.8,691.6,1241.8,691.6,1241.7,691.6c0.1,0.1,0.2,0.1,0.2,0.1l0.1,0.1c0.1,0.1,0.2,0.1,0.3,0.2c1.7,1.2,3.5,2.1,5.5,2.6"/>
<path class="st2" d="M1201.1,642.4c-0.2,2.3-0.4,4.3-0.7,5.9c-3.5,0-9.2,0-12.7-0.2c-11-0.5-22.8-0.9-33.8-1.1
	c0.9-4.6,2.3-11.2,2.5-14.1c1.4-14,0.6-28.2-2.3-42c-0.2-1-0.4-2-0.7-2.9c7.4-5.1,7.3-6.8,17.3-12.4c2.9-1.6,4.2-2.6,5.6-3.7
	c0.5,1,1,2.1,1.5,3.2c3.6,7.5,8.1,17.6,9.6,25.3c0.1,0.6,0.2,1.1,0.3,1.6c-4,1.7-10.7,7.6-14.4,9.8c-4.2,2.5-1.7,1.7-5.3,3.2
	c8.3,2.3,19.8-0.7,30.6-0.9c0.3,0.8,0.6,1.9,0.9,3.2c0.7,3.1,1.2,7,1.5,9.3C1201.5,630.2,1201.5,636.9,1201.1,642.4z"/>
<path class="st3" d="M1177.8,575.1c3.9-2.9,8.1-5.5,12.7-7.1c6.3-2.2,13.5-2.5,19.5,0.5c6.3,3.2,10.4,9.6,13.2,16.2
	c4.5,10.7,6.2,22.2,7.8,33.7"/>
<path class="st3" d="M1268.9,604.9L1268.9,604.9c0.1,0.3,0.1,0.1,0.1-0.2"/>
<path class="st3" d="M1268.9,604.8L1268.9,604.8c0,0.7,0,1.6,0,3.1"/>
<path class="st3" d="M1244.7,664L1244.7,664c-0.2-0.2-0.5-0.5-0.7-0.8c-2.5-3-4.1-7.4-5.6-11c-1-2.5-1.8-5.1-2.6-7.7
	c-1.7-6-2.8-12.1-3.7-18.2c-0.4-2.6-0.8-5.2-1.1-7.9"/>
<path class="st3" d="M1233.1,687c-3.2-1.4-6.2-3.1-8.6-5.7c-6.6-7-6.6-17.6-7.3-27.2c-0.3-3.8-0.7-7.6-1.3-11.3
	c-1.4-8.7-3.6-17.3-6.7-25.5"/>
<path class="st3" d="M1187.5,600.3c4.2-1.3,9-1.3,12.6,1.2c3.3,2.2,5.2,5.9,6.7,9.6c0.9,2,1.7,4.1,2.5,6.2c-2-0.1-4-0.1-6-0.1
	c-1.2,0-2.5,0-3.7,0c-0.3,0-0.6,0-0.8,0"/>
<path class="st4" d="M1281.1,623L1281.1,623c-0.1,3-0.3,6-0.8,9c-4.6-5.8-10.8-10.3-17.6-13c0.9-1.5,1.2-3.5,1-5.4
	C1269.8,616,1275.7,619.2,1281.1,623z"/>
<path class="st3" d="M1261.9,601.9c-0.1,0.3-0.1,0.7-0.2,1c0,0.1,0,0.1,0,0.2c-0.2,3.4,1.3,6.5,1.9,9.8c0,0.2,0.1,0.5,0.1,0.7"/>
<path class="st3" d="M1231,618.4c8.4,0.7,16.8,1.6,25.1,2.9c1.2,0.2,2.5,0.4,3.8,0s2.2-1.2,2.8-2.3"/>
<path class="st3" d="M1273.9,607.2c0,0,0,0.1,0,0.2c0.2,2.3,0.3,2.1,0,4.4"/>
<path class="st3" d="M1278.3,614.5c-0.1-1.3,0-0.5,0.1-1.7c0-0.1,0-0.2,0-0.3"/>
<path class="st3" d="M1235.8,644.5c7.7,0.1,15.4,0.3,23.2,0.5c3.5,0.1,7,0.1,10.4-0.5"/>
<path class="st4" d="M1282.9,632.8c0,0.8-0.1,1.7-0.2,2.5c-0.2,1.6-0.6,3.2-1.3,4.7c-1.4,2.7-4.2,4.7-7.3,5.1
	c-1.6,0.2-3.2,0-4.7-0.6c1.5-0.3,3-0.7,4.5-1.3c1.6-0.7,3.2-1.6,4.2-3.1c0.8-1.2,1.2-2.6,1.5-4s0.6-2.8,0.8-4.1c0.5-3,0.7-6,0.8-9
	l0,0c0.1-2.4,0-4.9-0.2-7.4c-0.1-1-0.2-2.2-1-2.9c-0.4-0.3-1-0.5-1.5-0.4c0.1-1.2,0-2.4-0.4-3.4c-0.5-1.2-1.6-2.1-2.9-2.2
	c-0.4,0-0.8,0.1-1.2,0.4c-0.1-1.5-0.6-3.1-2-3.6c-1-0.3-2.2,0.2-2.9,1.1c0-0.5-0.1-1-0.1,0.2l0,0c-0.1-0.7-0.3-1.3-0.5-2
	c-0.8-2.2-3.6-4.1-5.4-2.7c-0.5,0.4-0.8,1-1,1.6c0-1.3-0.7-2.8-0.1-4c0.8-1.6,3-1.6,4.7-1.2c3.8,0.9,7.5,2.8,9.9,5.9
	c1.5,2,2.5,4.4,3.2,6.8c1.6,4.8,2.6,9.8,3,14.9C1282.9,627,1283,629.9,1282.9,632.8z"/>
<path class="st3" d="M1269,604.7L1269,604.7L1269,604.7C1268.9,603.7,1269,604.2,1269,604.7z"/>
<path class="st3" d="M1261.9,601.9c0,0.4,0,0.7-0.2,1c0,0.1-0.1,0.2-0.1,0.2"/>
<path class="st2" d="M1053.4,557c0,0.3-0.2,0.7-0.6,0.9c-2.5,1.2-4.8,2.8-7,4.6c-0.4,0.3-0.5,0.9-0.2,1.3c1.7,2.5,1.7,5.8,1.1,9
	c-0.2,0.9-1.3,1.1-1.8,0.4c-0.2-0.3-0.5-0.6-0.8-0.9c-0.9-0.8-1.9-1.4-3-1.9c-0.6-0.3-1.3,0.1-1.4,0.8l-1.2,8.2
	c-0.1,0.7-0.2,1.4-0.2,2c-0.1,1-1.4,1.2-1.8,0.4c-0.6-1-1.2-2-1.8-2.9c-0.2-0.3-0.4-0.6-0.7-1c3.7-6.3,8.9-15.1,12.5-21.3
	c1.9-3.3,3.8-6.6,5.4-10c0.5-1,1-2,1.4-3.1c0.4-0.3,0.9-0.7,1.2-1c0.6-0.5,1.5-0.2,1.6,0.5c0.8,4.2-1,8.7-4.2,11.4
	c-0.7,0.5-0.3,1.7,0.6,1.7C1053.1,556,1053.4,556.5,1053.4,557z"/>
<path class="st4" d="M1053.8,542.3c-0.1,0.4-0.3,0.7-0.4,1.1c-0.4,1-0.9,2.1-1.4,3.1c-1.6,3.4-3.5,6.7-5.4,10
	c-3.6,6.2-8.7,15-12.5,21.3c-0.1,0.2-0.2,0.4-0.3,0.6c-1-0.2-1.9-0.5-2.9-0.8c0,0,0,0-0.1,0c-0.3-0.3-0.6-0.4-0.9-0.5
	c-0.1,0-0.2,0-0.3,0c-1.3-0.6-2.6-1.4-3.7-2.3c-0.1-0.1-0.3-0.2-0.4-0.4c-0.3-0.3-0.6-0.6-0.9-1c-0.7-0.8-1.2-1.8-1.6-2.8
	c-0.8-2.2-0.7-4.7-0.6-7c0.3-4,2.5-10.9,4.7-14.2s6-5.4,9.9-6.5c2.9-0.8,6-1.1,9.1-0.9c1.6-5.5,3.8-10.9,6.1-16.2
	c0.8-1.9,1.6-3.8,2.8-5.4c0.2-0.3,0.5-0.7,0.9-0.8c1-0.3,1.8,0.8,1.9,1.8C1058,528.4,1056.4,535.7,1053.8,542.3z"/>
<path class="st3" d="M1216,642.8c-5.2-0.4-10.3-0.4-15.5-0.5"/>
<path class="st3" d="M1096.7,530.8c5.9,4.3,11.6,18.7,9.9,27.1c-0.3,1.3-0.6,2.5-1,3.7"/>
<line class="st3" x1="1113.1" y1="589.3" x2="1113.1" y2="589.3"/>
<path class="st3" d="M1106,518.7c7.6,5.6,15.7,20.1,17.5,29c1,4.9,1.5,9.8,1.3,14.8"/>
<line class="st3" x1="1113.1" y1="589.3" x2="1113.1" y2="589.3"/>
<path class="st4" d="M1156.4,632.8c-0.3,2.9-1.6,9.5-2.5,14.1c-0.1,0.3-0.1,0.7-0.2,1l0,0c-27.1,0.7-54.2,1.5-81.3,2.2
	c-16.6,0.5-35.2,3.8-50.3-2.8c-0.2-0.1,0.9-3.2,0.7-3.3l-1.2,3c0.1-1,0.3-2.1,0.5-3.3l0,0c1.4-6.6,5.3-16.1,7.9-20.7
	c0.5,1.2,2.1,2.5,3.1,3.1c4,2.5,5.3,2.6,9.3,2.6c6.3,0.1,9.1-0.1,11.5-5.9c2.4-5.8,2.6-10.1,0.8-16.1c-1.2-4.3-2.5-11.8-4.4-15.8
	c-0.1-0.2,0.3-0.4,1.4,0.9c0.6,0.6,1.4,1,2.2,0.9c3-0.3,5.6,0.2,8-0.3c3.6-0.7,7.1-2.3,9.7-4.8c7.1-1,14-3.5,19.9-7.5
	c6.5-4.5,11.6-11,14.1-18.4c4,0.7,8,1.3,12,1.4c2.4,0,4.8-0.1,7.2-0.5c-0.1,2.9-0.4,5.8-1.1,8.6c-1.6,7-5.2,13.6-10.6,18.2
	c7.4-1,14.8-2.1,22.2-3.2c6-0.8,12.3-1.6,17.9,0.5l0,0c0.1,0.4,0.2,0.8,0.3,1.3c0.2,1,0.5,1.9,0.7,2.9
	C1157.1,604.6,1157.8,618.8,1156.4,632.8z"/>
<path class="st3" d="M1049.1,593.1"/>
<path class="st3" d="M1029.3,624.2c-0.4-0.8-0.7-1.6-0.9-2.3c-0.7-2-0.5-1.8-0.5-3.9c0-4,1.3-7.8,2.8-11.5c1.9-4.8,4.2-9.4,6.4-14"
	/>
<path class="st5" d="M1077.2,546.7c-0.3,1.5,0.8,2.9,1.6,4.2s1.2,3.3,0,4.1c-1,0.7-2.6,0-3.2-1.1s-0.3-2.5,0.2-3.7
	C1076.2,549,1076.9,547.9,1077.2,546.7"/>
<path class="st3" d="M1034.1,577.7c-0.9-1.3-1.7-2.8-1.4-4.3"/>
<path class="st3" d="M1047.5,548c1.2-1.4,3.7-3.1,5.8-4.6"/>
<path class="st6" d="M1056.8,550.6c3.8,1.4,7.2,3.9,9.7,7.1c0.7,0.9,1.2,1.8,1.8,2.7c4.8,7.4,9.4,15.1,5.4,23
	c-3.9,7.7-10.7,9.8-19.4,8.4c-2-0.3-2.1-0.3-3.9-2.1"/>
<path class="st3" d="M1066,586.1"/>
<path class="st3" d="M1067,563.4"/>
<path class="st6" d="M1047.3,579.2c-0.7-1.1-2.5-0.9-3.3,0.2s-0.5,2.6,0.2,3.7c0.5,0.8,1.2,1.5,2.2,1.8c0.9,0.3,2,0.2,2.7-0.4
	c0.2-0.1,0.3-0.3,0.5-0.3c0.9-0.2,1.2,1.4,2.1,1.5"/>
<path class="st6" d="M1057.3,565.1c-2.4,0.5-4.3,2.7-4.5,5.1"/>
<path class="st6" d="M1065.5,557.5c-2.2,0.6-3.8,2.9-3.7,5.2"/>
<path class="st6" d="M1064.7,566.8c0.2,1.8-1.4,3.6-3.2,3.7"/>
<path class="st6" d="M1068,574c-0.9,0.7-0.9,2.2,0,2.9s2.4,0.3,2.8-0.8"/>
<path class="st3" d="M1022.8,644c-0.2-0.1-0.4-0.2-0.7-0.3"/>
<path class="st3" d="M1027.9,588c-7.1,11.2-13,23.3-15.1,36.4c-0.8,5.3-0.8,11.3,2.8,15.3c1.4,1.5,3.2,2.5,5.1,3.5
	c0.4,0.2,0.9,0.4,1.3,0.6"/>
<path class="st3" d="M1028,573.8c-0.2-0.1-0.4-0.1-0.6-0.2c-0.2-0.1-0.4-0.2-0.7-0.3c0.1,0,0.2,0,0.3,0
	C1027.5,573.3,1027.8,573.5,1028,573.8z"/>
<path class="st3" d="M1028.9,589.5c-0.3-0.5-0.6-1-0.9-1.5c-2.5-4.3-4.7-8.9-4.3-13.8c0-0.3,0.1-0.6,0.3-0.8
	c0.5-0.5,1.2,0.1,1.7,0.7c0,0,0,0,0,0.1c1.2,1.8,2.3,3.6,3.5,5.5"/>
<path class="st3" d="M1028,573.8c0.2,0.2,0.5,0.5,0.7,0.8c2.2,2.9,4.3,5.8,6.5,8.7c1.3,1.8,2.9,3.7,5,4c1.2,0.2,2.4-0.1,3.5-0.4
	c1.9-0.4,3.9-0.8,5.9-0.9c0.8-0.1,1.9,0,2.3,0.7c0.7,1.1-0.6,2.3-1.7,2.9c0,0-0.1,0.1-0.2,0.1c-4,2.1-8.6,3.1-13.1,2.9"/>
<path class="st3" d="M1026.8,573.3c-0.5,0-0.9,0.4-1.2,0.8c-0.2,0.3-0.3,0.7-0.3,1.1c0,1,0.6,1.9,1.1,2.8"/>
<g>
	<path class="st7" d="M1084.8,544.1c-0.9,0.6-1.9,1-2.9,1.4c-4-2.5-7.3-6-9.6-10c0.2-1.1,0.6-2.6,1.1-3.8
		C1076.1,536.7,1080.1,541,1084.8,544.1z"/>
	<line class="st3" x1="1073.4" y1="531.7" x2="1073.4" y2="531.7"/>
	<path class="st7" d="M1114.6,515.3c-9.7,9.5-19.4,18.9-29.2,28.4c-0.2,0.2-0.4,0.3-0.7,0.5c-4.8-3.1-8.7-7.4-11.4-12.4l0,0l0,0
		c9.5-9.6,19.6-19.5,29.7-28.4c0.1,0.1,0.2,0.1,0.3,0.2c4.9,2.4,8.4,5.5,10.8,10.4L1114.6,515.3z"/>
	<path class="st3" d="M1073.4,531.7L1073.4,531.7L1073.4,531.7"/>
	<path class="st3" d="M1115,511L1115,511"/>
	<path class="st7" d="M1115,511c0.2,1.3,0,3-0.3,4.3l-0.5-1.5c-2.3-4.9-5.9-8-10.8-10.4c-0.1-0.1-0.2-0.1-0.3-0.2l0,0
		c0.9-0.7,2.4-0.9,3.5-0.9C1109.9,504.7,1112.7,507.7,1115,511L1115,511z"/>
</g>
<image style="overflow:visible;enable-background:new    ;" width="878" height="1580" xlink:href="../../../02-CROQUIS/V2/OELP Production File-1.png"  transform="matrix(-1.466386e-02 -1.517070e-02 1.517070e-02 -1.466386e-02 1088.6332 541.6234)">
</image>
<g>
	<path class="st7" d="M1095.2,522.1c-0.3,0.5-1,0.8-1.7,0.7c-0.6-0.1-1.2-0.4-1.7-0.8c-0.1-0.1-0.2-0.2-0.3-0.3
		c-2.4-1.8-4.3-4.3-6.1-6.8c-0.5-0.6-1-1.3-1.1-2.1c0-0.1,0-0.1,0-0.2c-0.1-0.7,0.2-1.6,0.9-1.8c0.4-0.2,0.9-0.1,1.4,0
		c0.8,0.3,2.4,0.9,2.9,1.5c0.7,1,1.5,1.9,2.4,2.8c0.1,0.1,0.1,0.1,0.2,0.2c1.2,1.2,2.5,3.1,3.1,4.6
		C1095.4,520.7,1095.6,521.5,1095.2,522.1z"/>
	<path class="st7" d="M1097,517.3c-0.1,0.7-0.6,1.3-1.3,1.2c-0.3,0-0.6-0.3-0.9-0.5c-1-0.8-2-1.7-2.9-2.6c-0.1-0.1-0.2-0.2-0.2-0.2
		c-0.9-0.9-1.7-1.8-2.4-2.8c-0.2-0.2-0.3-0.4-0.4-0.6c-0.4-0.5-0.7-1.1-0.8-1.7s0.1-1.3,0.7-1.6c0.5-0.3,1.1-0.1,1.7,0.1
		c0.2,0.1,0.3,0.1,0.4,0.2c0.6,0.2,1.1,0.5,1.6,0.8c0.6,0.3,1.1,0.8,1.5,1.3l1.3,1.5c1.2,1.5,1.3,1.7,1.5,2.5
		C1097.2,515.4,1097.1,516.6,1097,517.3z"/>
	<path class="st7" d="M1092,525.1c-0.3,0.6-1.1,0.5-1.7,0.2c-0.5-0.2-0.9-0.5-1.2-0.7c-0.9-0.7-1.7-1.5-2.4-2.4
		c-0.2-0.2-0.4-0.5-0.6-0.7c-0.1-0.1-0.1-0.1-0.2-0.2c-0.9-1-1.7-2-2.6-3.1c-0.8-1-1.7-2-2-3.2c-0.2-0.7-0.2-1.6,0.3-2.1
		c0.6-0.7,1.6-0.7,2.4-0.3c0.1,0,0.1,0.1,0.2,0.1c0,0.1,0,0.1,0,0.2c0.2,0.8,0.6,1.4,1.1,2.1c1.8,2.4,3.7,4.9,6.1,6.8
		c0.3,0.9,0.5,1.8,0.6,2.7C1092.1,524.6,1092.2,524.9,1092,525.1z"/>
	<path class="st7" d="M1089.1,524.5c-1.8-0.1-5,0-6.6-0.7c-0.7-0.3-1.3-0.7-1.8-1.3c-0.7-0.7-1.2-1.6-1.3-2.7c0-0.3,0-0.6,0.2-0.7
		c0.2-0.2,0.6-0.2,0.9-0.2c1.8,0.3,4,1.3,5.5,2.3c0.1,0.1,0.1,0.2,0.2,0.2c0.2,0.2,0.4,0.5,0.6,0.7
		C1087.4,523,1088.2,523.9,1089.1,524.5z"/>
</g>
<g>
	<g>
		<path class="st8" d="M79.8,513.4c0-0.1,0-0.1,0.1-0.2c-0.1,0-0.2,0.1-0.2,0.1C79.7,513.4,79.7,513.4,79.8,513.4z M79.8,513.4
			c0-0.1,0-0.1,0.1-0.2c-0.1,0-0.2,0.1-0.2,0.1C79.7,513.4,79.7,513.4,79.8,513.4z M79.8,513.4c0-0.1,0-0.1,0.1-0.2
			c-0.1,0-0.2,0.1-0.2,0.1C79.7,513.4,79.7,513.4,79.8,513.4z M74.9,509c0-0.1,0.1-0.1,0.1-0.2c-0.1,0-0.1,0-0.2,0
			C74.9,508.9,74.9,509,74.9,509z M74.9,509c0-0.1,0.1-0.1,0.1-0.2c-0.1,0-0.1,0-0.2,0C74.9,508.9,74.9,509,74.9,509z M79.8,513.4
			c0-0.1,0-0.1,0.1-0.2c-0.1,0-0.2,0.1-0.2,0.1C79.7,513.4,79.7,513.4,79.8,513.4z M79.8,513.4c0-0.1,0-0.1,0.1-0.2
			c-0.1,0-0.2,0.1-0.2,0.1C79.7,513.4,79.7,513.4,79.8,513.4z M80,500.7c0,0,0.1-0.1,0.1-0.1c0.1-0.1,0.2-0.3,0.3-0.4
			c1.1-1.6,2.7-3.3,4.7-3.5c0.4,0,0.8,0,1.2,0c-0.5-0.1-1-0.1-1.4,0c-2,0.2-3.6,2-4.7,3.5c-0.1,0.1-0.2,0.3-0.3,0.4
			C79.9,500.6,80,500.7,80,500.7z M74.9,509c0-0.1,0.1-0.1,0.1-0.2c-0.1,0-0.1,0-0.2,0C74.9,508.9,74.9,509,74.9,509z M73.8,514
			c0.1,0.2,0.3,0.3,0.6,0.4c0,0,0,0-0.1-0.1c-0.3-0.3-0.6-0.7-0.8-1.2C73.6,513.5,73.7,513.8,73.8,514z M79.8,513.4
			c0-0.1,0-0.1,0.1-0.2c-0.1,0-0.2,0.1-0.2,0.1C79.7,513.4,79.7,513.4,79.8,513.4z M74.9,509c0-0.1,0.1-0.1,0.1-0.2
			c-0.1,0-0.1,0-0.2,0C74.9,508.9,74.9,509,74.9,509z M74.9,509c0-0.1,0.1-0.1,0.1-0.2c-0.1,0-0.1,0-0.2,0
			C74.9,508.9,74.9,509,74.9,509z M79.8,513.4c0-0.1,0-0.1,0.1-0.2c-0.1,0-0.2,0.1-0.2,0.1C79.7,513.4,79.7,513.4,79.8,513.4z
			 M79.8,513.4c0-0.1,0-0.1,0.1-0.2c-0.1,0-0.2,0.1-0.2,0.1C79.7,513.4,79.7,513.4,79.8,513.4z M74.9,509c0-0.1,0.1-0.1,0.1-0.2
			c-0.1,0-0.1,0-0.2,0C74.9,508.9,74.9,509,74.9,509z M74.9,509c0-0.1,0.1-0.1,0.1-0.2c-0.1,0-0.1,0-0.2,0
			C74.9,508.9,74.9,509,74.9,509z M79.8,513.4c0-0.1,0-0.1,0.1-0.2c-0.1,0-0.2,0.1-0.2,0.1C79.7,513.4,79.7,513.4,79.8,513.4z"/>
		<path class="st9" d="M86.5,492.1l0.3-0.2c0.2-0.1,0.3-0.2,0.5-0.3c0.1,0,0.2,0,0.3,0c0.1,0,0.3,0,0.4,0c0.2-0.1,0.4-0.2,0.6-0.2
			c0.4-0.1,0.7,0,1.1,0c0.3,0,0.6,0.2,0.9,0.3c0.3,0.1,0.6,0.2,0.9,0.4c0.3,0.2,0.6,0.5,0.8,0.8c0.2,0.2,0.4,0.3,0.6,0.5
			c0,0,0.1,0.1,0.2,0.1c0.1,0.1,0.1,0.2,0.2,0.3c0.3,0.3,0.6,0.7,0.9,1c0.2,0.2,0.5,0.5,0.7,0.7c0.1,0.1,0.2,0.2,0.3,0.3
			c0.1,0.1,0.2,0.3,0.2,0.5c0.1,0.2,0.2,0.3,0.2,0.5c0.1,0.2,0.2,0.3,0.2,0.5c0.1,0.3,0.1,0.5,0.2,0.8c0,0.1,0,0.2,0,0.3
			c0,0.1,0.1,0.2,0.1,0.4c0,0.1,0,0.4,0,0.5c0,0.1-0.1,0.2-0.2,0.3c-0.1,0.2,0,0.3-0.1,0.5c0,0,0,0.1,0,0.1c-0.2,0-0.4-0.1-0.6-0.2
			c-0.2-0.1-0.4-0.1-0.6-0.2c-0.1,0-0.2-0.1-0.3-0.1c0,0-0.1,0-0.1,0c-0.1,0-0.1-0.1-0.2-0.1c-0.1,0-0.2,0-0.3-0.1
			c-0.1-0.1-0.2-0.1-0.4-0.2c-0.1,0-0.2-0.1-0.3-0.2c-0.2-0.1-0.3-0.2-0.5-0.3c-0.3-0.2-0.5-0.4-0.8-0.6c-0.3-0.2-0.6-0.5-0.9-0.7
			c-0.1-0.1-0.2-0.2-0.3-0.2c-0.1-0.1-0.2-0.1-0.3-0.2c-0.2-0.1-0.5-0.3-0.7-0.5c-0.3-0.3-0.6-0.6-0.9-1c-0.2-0.2-0.3-0.4-0.5-0.6
			c-0.2-0.2-0.3-0.5-0.5-0.8c-0.2-0.2-0.4-0.5-0.6-0.8c-0.2-0.2-0.3-0.5-0.4-0.7C86.6,492.5,86.6,492.3,86.5,492.1z"/>
		<path class="st9" d="M69.4,512.2c0,0.2,0.1,0.5,0.2,0.7c0.1,0.3,0.2,0.5,0.3,0.7c0.1,0.1,0.2,0.2,0.3,0.3c0.1,0.1,0.1,0.2,0.2,0.3
			c0.1,0.1,0.2,0.2,0.2,0.3c0.1,0.1,0.1,0.2,0.2,0.2c0.1,0.1,0.1,0.1,0.1,0.2c0.1,0.1,0.1,0.1,0.2,0.2c0.1,0.1,0.2,0.2,0.3,0.4
			c0.1,0.1,0.2,0.2,0.3,0.3c0.1,0.1,0.2,0.2,0.3,0.3c0.5,0.4,1,0.7,1.4,1.1c0.2,0.2,0.3,0.3,0.5,0.4c0.1,0.1,0.2,0.1,0.3,0.1
			c0.1,0.1,0.2,0.1,0.3,0.1c0.1,0,0.1,0.1,0.2,0.1c0.1,0,0.1,0,0.2,0c0.1,0,0.2,0.1,0.3,0.1c0.1,0,0.2,0,0.4,0c0.1,0,0.2,0,0.3,0
			c0,0,0.1,0,0.2,0c0,0,0.1,0,0.1,0c0.1,0,0.2,0,0.3-0.1c0.1,0,0.2,0,0.2-0.1c0.1,0,0.2-0.1,0.3-0.1c0.1-0.1,0.3-0.2,0.4-0.3
			c0,0,0.1-0.1,0.2-0.2c0.1,0,0.2,0.1,0.3,0.1c0.3,0.1,0.6-0.3,0.8-0.5c0.2-0.2,0.5-0.4,0.7-0.6c0.4-0.2,0.7-0.5,1-0.8
			c0.3-0.4,0.8-0.7,1.1-1.1c0.2-0.2,0.4-0.4,0.5-0.7c0.2-0.2,0.3-0.4,0.5-0.6c0.2-0.2,0.4-0.4,0.6-0.6c0.2-0.2,0.5-0.3,0.7-0.5
			c0.1-0.1,0.3-0.2,0.4-0.3c0.1-0.1,0.2-0.2,0.3-0.3c0.2-0.2,0.3-0.4,0.5-0.5c0.2-0.2,0.3-0.3,0.5-0.5c0.1-0.2,0.3-0.2,0.3-0.4
			c0.1-0.2,0.3-0.5,0.4-0.7c0.1-0.2,0.3-0.3,0.5-0.4c0.1-0.1,0.2-0.2,0.3-0.3c0.1-0.1,0.3-0.2,0.4-0.3c0.2-0.1,0.4-0.3,0.5-0.5
			c0.1-0.2,0.2-0.3,0.3-0.5c0.1-0.1,0.2-0.1,0.2-0.2c0.1-0.1,0.2-0.2,0.3-0.3c0.1-0.1,0.2-0.2,0.3-0.4c0.1-0.2,0.3-0.4,0.4-0.5
			c0.2-0.2,0.3-0.3,0.5-0.4c0.1-0.1,0.2-0.3,0.3-0.4c0.1-0.1,0.2-0.2,0.3-0.3c0.1-0.2,0.3-0.3,0.5-0.5c0.2-0.2,0.5-0.4,0.7-0.6
			c0.2-0.2,0.4-0.4,0.6-0.6c0.1-0.2,0.3-0.3,0.4-0.5c0.3-0.3,0.6-0.5,0.9-0.8c0.2-0.3,0.5-0.5,0.8-0.7c0.2-0.1,0.5-0.3,0.6-0.5
			c0.1-0.1,0.2-0.2,0.3-0.3c0.1-0.1,0.1-0.1,0.2-0.2c0.1-0.1,0.1-0.2,0.1-0.3c-0.2,0-0.4-0.1-0.6-0.2c-0.2-0.1-0.4-0.1-0.6-0.2
			c-0.1,0-0.2-0.1-0.3-0.1c0,0-0.1,0-0.1,0c-0.1,0-0.1-0.1-0.2-0.1c-0.1,0-0.2,0-0.3-0.1c-0.1-0.1-0.2-0.1-0.4-0.2
			c-0.1,0-0.2-0.1-0.3-0.2c-0.2-0.1-0.3-0.2-0.5-0.3c-0.3-0.2-0.5-0.4-0.8-0.6c-0.3-0.2-0.6-0.5-0.9-0.7c-0.1-0.1-0.2-0.2-0.3-0.2
			c-0.1-0.1-0.2-0.1-0.3-0.2c-0.2-0.1-0.5-0.3-0.7-0.5c-0.3-0.3-0.6-0.6-0.9-1c-0.2-0.2-0.3-0.4-0.5-0.6c-0.2-0.2-0.3-0.5-0.5-0.8
			c-0.2-0.2-0.4-0.5-0.6-0.8c-0.2-0.2-0.3-0.5-0.4-0.7c-0.1-0.2-0.2-0.4-0.3-0.6l-0.1,0c-0.1,0.1-0.2,0.2-0.4,0.3
			c-0.1,0.1-0.3,0.2-0.4,0.4c-0.1,0.1-0.3,0.3-0.4,0.4c-0.3,0.2-0.5,0.3-0.8,0.6c-0.3,0.3-0.5,0.6-0.8,0.9c-0.2,0.2-0.3,0.4-0.5,0.6
			c-0.2,0.2-0.3,0.4-0.5,0.6c-0.1,0.1-0.2,0.2-0.4,0.4c-0.1,0.1-0.1,0.2-0.2,0.2c-0.1,0.1-0.2,0.1-0.3,0.2c-0.5,0.5-1.1,1.1-1.5,1.6
			c-0.1,0.2-0.2,0.3-0.4,0.5c-0.1,0.1-0.2,0.3-0.3,0.5c-0.3,0.3-0.4,0.6-0.7,0.9c-0.2,0.2-0.5,0.5-0.7,0.7c-0.2,0.2-0.4,0.3-0.6,0.5
			c-0.1,0.1-0.2,0.1-0.3,0.2c-0.1,0.1-0.1,0.1-0.2,0.2c-0.2,0.2-0.3,0.3-0.5,0.5c-0.2,0.2-0.4,0.4-0.6,0.7c-0.1,0.1-0.2,0.2-0.3,0.3
			c-0.1,0.1-0.2,0.3-0.3,0.4c-0.1,0.1-0.2,0.3-0.3,0.4c-0.1,0.1-0.2,0.2-0.3,0.2c-0.1,0.1-0.1,0.1-0.2,0.2c0,0-0.1,0-0.1,0.1
			c-0.1,0.1-0.1,0.1-0.2,0.2c0,0-0.1,0-0.1,0.1c-0.1,0.1-0.1,0.2-0.2,0.3c-0.1,0.1-0.2,0.2-0.4,0.4c-0.2,0.2-0.4,0.4-0.6,0.6
			c-0.1,0.1-0.1,0.2-0.2,0.2c-0.1,0.1-0.1,0.1-0.2,0.2c-0.1,0.1-0.2,0.3-0.3,0.4c-0.1,0.1-0.1,0.1-0.2,0.3c-0.1,0.2-0.3,0.3-0.5,0.5
			c-0.2,0.2-0.4,0.5-0.7,0.7c-0.2,0.2-0.4,0.4-0.5,0.6c-0.1,0.2-0.2,0.3-0.3,0.5c0,0.1,0,0.2-0.1,0.2c0,0,0,0.1,0,0.1
			c0,0-0.1,0.1-0.1,0.1c-0.1,0.2-0.1,0.4-0.1,0.6c0,0.2-0.1,0.3-0.2,0.4c-0.1,0.1-0.1,0.2-0.1,0.4c0,0.1-0.1,0.2-0.1,0.3
			C69.5,511.7,69.4,512,69.4,512.2z M73.3,508.5c0.1-0.3,0.5-1.4,0.9-1.9c0,0,0,0,0,0c0.2-0.2,0.4-0.3,0.6-0.1c0,0,0.1,0.1,0.1,0.1
			c0.8-1.2,2-2.3,3-3.3c0.7-0.8,1.4-1.7,2.1-2.5c0-0.1-0.1-0.1-0.1-0.1c0.1-0.1,0.2-0.3,0.3-0.4c1.1-1.6,2.7-3.3,4.7-3.5
			c0.4,0,0.9,0,1.4,0c2.2,0.2,4.5,1.4,5.1,3.5c0.8,2.6-1.3,4.8-2.9,6.5c-0.3,0.3-0.6,0.6-0.9,1c-0.8,0.8-1.6,1.6-2.3,2.4
			c-1,1-1.9,2.3-3,3.1c-0.7,1.2-3,2.1-4.2,2.1c-1.4,0-2.6,0.1-3.6-0.9c-0.3-0.1-0.5-0.2-0.6-0.4c-0.1-0.2-0.2-0.5-0.2-0.8
			c-0.2-0.5-0.3-1-0.4-1.5C72.9,510.7,73,509.6,73.3,508.5z"/>
		<path class="st10" d="M75.2,507.1c0.6,0.3,1,1.1,1.2,1.7c0,0,0,0-0.1,0c-0.4-0.2-0.9-0.1-1.3,0c0.1-0.2,0.2-0.5,0.3-0.8
			C75.4,507.7,75.3,507.4,75.2,507.1z"/>
		<path class="st10" d="M79.7,511.9c0.7-0.1,1.4,0.1,1.6,0.7c-0.5,0.1-1,0.3-1.5,0.6C80,512.8,80,512.4,79.7,511.9z"/>
		<path class="st11" d="M75.1,508.8c0.4-0.1,0.9-0.2,1.3,0c0,0,0,0,0.1,0c0.6,0.3,1,0.8,1.5,1.2c0.1,0.1,0.2,0.2,0.3,0.2
			c0.4,0.3,0.8,0.7,1.2,1.1c0.2,0.2,0.3,0.3,0.4,0.5c0.3,0.5,0.3,0.9,0.1,1.4c-0.1,0-0.2,0.1-0.2,0.1l0,0c-0.7-0.2-1.3-0.7-1.9-1.1
			c-1.2-0.9-2.3-1.9-2.8-3.3C75,509,75,508.9,75.1,508.8z"/>
		<path class="st11" d="M73.6,512.2c0.1-0.9,0.3-1.8,0.7-2.6c0.1-0.2,0.2-0.4,0.3-0.6c0.1,0.1,0.1,0.2,0.2,0.4
			c0.6,1.2,1.5,2.2,2.7,2.9c0.6,0.4,1.2,0.8,1.9,1.1c-0.2,0.1-0.4,0.3-0.6,0.4c-0.9,0.4-1.8,0.5-2.7,0.7c-0.2,0.1-0.6,0.1-0.9,0.1
			c-0.2,0-0.3,0-0.5-0.1c-0.3-0.1-0.5-0.2-0.6-0.4c-0.1-0.2-0.2-0.5-0.2-0.8C73.6,512.8,73.6,512.5,73.6,512.2z"/>
		<path class="st10" d="M73.3,508.5c0.1-0.3,0.5-1.4,0.9-1.9c0.2,0.6,0.3,1.3,0.5,2c0,0.1,0.1,0.2,0.1,0.3c0,0.1,0,0.1,0.1,0.2
			c-0.1,0.1-0.1,0.2-0.2,0.3c0,0.1-0.1,0.1-0.1,0.2c-0.4,0.8-0.6,1.7-0.7,2.6c0,0.5-0.1,1.4,0.2,1.9c0.1,0.2,0.4,0.4,0.7,0.4
			c0.5,0.1,1,0,1.3-0.1c1-0.2,1.8-0.3,2.7-0.7c0.2-0.1,0.4-0.2,0.6-0.4l0,0c0.1,0,0.1,0,0.2,0.1c0-0.1,0-0.1,0.1-0.2
			c0.5-0.3,1-0.6,1.5-0.6c0.3,0,0.7,0,1.1,0.3c0,0.1-0.1,0.2-0.1,0.3c-0.7,1.2-3,2.1-4.2,2.1c-1.4,0-2.6,0.1-3.6-0.9
			c0,0,0,0-0.1-0.1c-0.3-0.3-0.6-0.7-0.8-1.2c-0.2-0.5-0.3-1-0.4-1.5C72.9,510.7,73,509.6,73.3,508.5z"/>
		<path class="st10" d="M74.2,506.6C74.2,506.6,74.2,506.6,74.2,506.6c0.2-0.2,0.4-0.3,0.6-0.2c0,0,0.1,0.1,0.1,0.1
			c0.2,0.2,0.3,0.3,0.3,0.6c0.1,0.3,0.1,0.6,0.1,1c0,0.3-0.1,0.5-0.3,0.8c-0.1,0-0.1,0-0.2,0c0-0.1-0.1-0.2-0.1-0.3
			C74.5,507.9,74.4,507.2,74.2,506.6z"/>
		<path class="st8" d="M74.1,506.4c0,0.1,0,0.1,0.1,0.2"/>
		<path class="st8" d="M81.8,513.6c-0.5-0.2-1.2,0-1.7-0.1c-0.1,0-0.2,0-0.3-0.1"/>
		<line class="st8" x1="79.8" y1="513.4" x2="79.8" y2="513.4"/>
		<path class="st12" d="M78.1,510.3c0.1-0.2,0.3-0.4,0.4-0.5c0.2-0.2,0.4-0.4,0.6-0.6c0.5-0.5,0.9-1,1.3-1.5c0.9-1,1.8-1.9,2.8-2.8
			c0,0,0.1-0.1,0.1-0.1l0,0c0.3,0.3,0.6,0.6,0.9,0.8c0.7,0.6,1.4,1.1,2.3,1.5c0.3,0.1,0.6,0.3,1,0.4c0,0,0.1,0,0.1,0.1
			c-0.8,0.8-1.6,1.6-2.3,2.4c-1,1-1.9,2.3-3,3.1c0.1-0.1,0.1-0.2,0.1-0.3c-0.4-0.3-0.7-0.3-1.1-0.3c-0.2-0.6-0.9-0.8-1.6-0.7
			c-0.1-0.2-0.2-0.3-0.4-0.5C79,511,78.6,510.7,78.1,510.3z"/>
		<path class="st8" d="M82.3,513.2c0,0-0.1,0.1-0.1,0.1"/>
		<path class="st12" d="M74.9,506.5c0.8-1.2,2-2.3,3-3.3c0.7-0.8,1.4-1.7,2.1-2.5c0,0,0.1-0.1,0.1-0.1c0.1,0.1,0.1,0.2,0.2,0.3
			c0.2,0.3,0.3,0.7,0.6,1c0.5,0.6,1,1.3,1.5,2c0.3,0.3,0.6,0.7,0.9,1c0,0-0.1,0.1-0.1,0.1c-0.9,0.9-1.9,1.8-2.8,2.8
			c-0.4,0.5-0.9,1-1.3,1.5c-0.2,0.2-0.4,0.4-0.6,0.6c-0.1,0.1-0.3,0.3-0.4,0.5c-0.1-0.1-0.2-0.2-0.3-0.2c-0.5-0.4-0.9-1-1.5-1.2
			c-0.1-0.7-0.6-1.4-1.1-1.7C75.2,506.9,75.1,506.7,74.9,506.5z"/>
		<path class="st13" d="M79.9,500.6c0.1-0.1,0.2-0.3,0.3-0.4c1.1-1.6,2.7-3.3,4.7-3.5c0.4,0,0.9,0,1.4,0c2.1,0.2,4.3,1.4,4.9,3.5
			c0.8,2.6-1.3,4.8-2.9,6.5c-0.3,0.3-0.6,0.6-0.9,0.9c0,0,0,0,0,0c-0.4-0.2-0.8-0.3-1.1-0.5c-0.8-0.4-1.5-1-2.3-1.5
			c-0.3-0.2-0.6-0.5-0.8-0.7c0,0-0.1-0.1-0.1-0.1l0,0c-0.3-0.3-0.7-0.7-0.9-1c-0.5-0.6-1-1.4-1.5-2c-0.2-0.3-0.4-0.6-0.6-1
			c0-0.1-0.1-0.1-0.1-0.2C80,500.7,79.9,500.6,79.9,500.6z"/>
		<path class="st8" d="M83.3,504.9c0.1-0.1,0.1-0.1,0.2-0.2c0.3-0.3,0.7-0.7,0.8-0.9"/>
		<path class="st8" d="M78,510.5c0,0,0-0.1,0.1-0.2"/>
	</g>
	<path class="st14" d="M181.1,605.3c-0.9-0.6-1.3-0.7-1.9-1.6"/>
	<path class="st15" d="M133.1,538.8c-2.3,1.8-4.8,3.6-6.9,5.5c-0.8,0.7-4,3.6-7.2,6l-0.4-2l-0.3-1.6c0,0,0,0,0,0
		c4.5-3.1,4.5-4.2,10.5-7.5c1.8-1,2.5-1.6,3.4-2.2C132.5,537.5,132.8,538.1,133.1,538.8z"/>
	<path class="st16" d="M133.9,540.4c-1.5,1.3-2.9,2.9-4.2,4.3c-2.9,3.3-6.4,6.4-10.2,8.6l-0.5-3c3.2-2.4,6.4-5.3,7.2-6
		c2.2-1.9,4.6-3.7,6.9-5.5c0,0,0,0,0,0.1C133.4,539.4,133.6,539.9,133.9,540.4z"/>
	<path class="st16" d="M137.2,548.1c-2.8,2.1-5.7,4.1-8.4,6.4c-1.9,1.6-5.1,5-8.4,7.1c-0.1-1.4-0.2-2.8-0.3-4.2
		c2.7-2.2,5.1-4.9,7.2-6.7c2.7-2.3,5.6-4.3,8.3-6.4C136.1,545.4,136.7,546.8,137.2,548.1z"/>
	<path class="st15" d="M147,567.6c0,0-0.1,0-0.1,0c-1.2,0.4-2.5,0.9-3.7,1.2c-3.5,1-7.5,1.3-11.1,1.5c-3.3,0.2-6.6,0-9.8,0
		c-0.6,0-1.2,0-1.9-0.1c0.1-1,0.1-1.9,0.1-2.9c5.1-0.3,10.3,0.1,15.3-0.7c3.6-0.5,7.2-0.9,10.6-1.8c0,0,0.1,0,0.1,0
		C146.7,565.6,146.8,566.6,147,567.6z"/>
	<path class="st16" d="M146.2,564.4c0,0.1,0.1,0.3,0.1,0.4c-3.4,0.9-7,1.3-10.6,1.8c-5,0.8-10.2,0.4-15.3,0.7c0-1,0-2,0-3
		c6.6-3.2,12.1-8.6,17.7-13.3c0.3,1,0.6,2,0.7,2.9c0,0,0,0,0,0c0,0,0,0.1,0,0.1c0,0.1,0,0.1,0,0.2c0.1,0.4,0.1,0.7,0.2,1
		c-2.4,1-6.5,4.6-8.7,5.9c-2.5,1.5-1,1-3.3,1.9c5.1,1.4,12-0.4,18.6-0.6c0.2,0.5,0.3,1.1,0.5,1.8H146.2z"/>
	<path class="st17" d="M138.2,551.1c0.3,1,0.6,2,0.8,2.9c0,0,0,0,0,0C138.7,553.1,138.5,552.1,138.2,551.1L138.2,551.1z"/>
	<path class="st17" d="M146.4,564.8c0,0-0.1,0-0.1,0c0-0.1-0.1-0.3-0.1-0.4h0.1c0,0.1,0,0.1,0,0.2
		C146.4,564.6,146.4,564.7,146.4,564.8z"/>
	<path class="st16" d="M147.4,574c0,0.6,0,1.1,0,1.7c0,0.4,0,0.9,0,1.3c0,0.2,0,0.4,0,0.6c-4.4,0.3-8.9,1.8-13.2,2.3
		c-3.8,0.4-7.6,0.8-11.5,0.8c-1.2,0-2.5-0.2-3.8-0.4c0.2-1.3,0.5-2.7,0.7-3.9c1.7-0.1,3.4-0.1,4.6-0.1c3-0.1,5.9-0.1,8.9-0.4
		C137.8,575.6,142.6,574.5,147.4,574z"/>
	<path class="st17" d="M147.4,574c0,0.5,0,1.1,0,1.7C147.4,575.2,147.4,574.6,147.4,574C147.4,574,147.4,574,147.4,574z"/>
	<path class="st16" d="M147.3,571.4c-1,0.2-2.1,0.6-2.7,0.7c-3.2,0.6-6.5,0.9-9.7,1.3c-5.1,0.6-9.9,0.3-14.8,0
		c0.1-1,0.2-2.1,0.2-3.1c0.7,0,1.3,0.1,1.9,0.1c3.3,0,6.5,0.1,9.8,0c3.6-0.2,7.6-0.5,11.1-1.5c1.2-0.3,2.4-0.8,3.7-1.2
		c0.1,0.9,0.2,1.8,0.3,2.5C147.2,570.4,147.2,570.9,147.3,571.4z"/>
	<path class="st17" d="M147.4,571.4C147.3,571.4,147.3,571.4,147.4,571.4c-0.1-0.5-0.2-1-0.2-1.4c-0.1-0.7-0.2-1.5-0.3-2.5
		c0,0,0.1,0,0.1,0h0c0.1,1,0.3,2,0.4,2.7C147.4,570.6,147.4,571,147.4,571.4z"/>
	<path class="st15" d="M135.6,544.1c-2.7,2.2-5.6,4.2-8.3,6.4c-2.1,1.8-4.6,4.6-7.2,6.7c-0.1-1.3-0.3-2.6-0.5-4
		c3.9-2.3,7.4-5.3,10.2-8.6c1.2-1.4,2.6-2.9,4.2-4.3C134.4,541.6,135,542.9,135.6,544.1z"/>
	<path class="st15" d="M138.2,551.1L138.2,551.1c-5.6,4.7-11.2,10.1-17.8,13.3c0-0.9,0-1.9-0.1-2.8c3.3-2.1,6.5-5.4,8.4-7.1
		c2.7-2.3,5.6-4.3,8.4-6.4c0.2,0.5,0.4,1,0.5,1.5c0.1,0.3,0.2,0.7,0.3,1c0,0,0,0,0,0.1C138.1,550.8,138.1,551,138.2,551.1z"/>
	<line class="st14" x1="147" y1="567.5" x2="147" y2="567.5"/>
	<path class="st15" d="M147.4,574C147.4,574,147.4,574,147.4,574c-4.7,0.4-9.6,1.5-14.2,2c-3,0.3-5.9,0.3-8.9,0.4
		c-1.2,0-2.9,0-4.6,0.1c0.2-1.1,0.3-2,0.4-2.7c0-0.2,0-0.3,0.1-0.5c4.9,0.3,9.8,0.6,14.8,0c3.2-0.4,6.5-0.7,9.7-1.3
		c0.6-0.1,1.7-0.5,2.7-0.7c0,0,0.1,0,0.1,0C147.4,572.2,147.4,573.1,147.4,574z"/>
	<path class="st15" d="M147.3,577.7c0,0.3,0,0.7,0,1c0,0.2,0,0.4,0,0.6c0,0.1,0,0.2,0,0.4c-0.1,1.4-0.3,2.6-0.4,3.6
		c-2.1,0-5.7,0-7.7-0.1c-6.7-0.4-13.9-0.6-20.6-0.7h-0.1c0,0,0-0.1,0-0.1c0.1-0.7,0.3-1.4,0.4-2.1c1.3,0.2,2.5,0.3,3.8,0.4
		c3.9,0,7.6-0.3,11.5-0.8C138.3,579.5,142.9,578,147.3,577.7z"/>
	<path class="st18" d="M176.7,595.7c-1,0.8-1.9,1.6-2.8,2.5c-0.5,0.4-0.9,0.9-1.4,1.3c-1.3,1.3-2.6,2.7-3.7,4.2c-0.8,1-1.4,2-2.1,3
		c0,0,0,0,0,0c-1.9-0.8-3.7-2-5.2-3.4c-4-4.3-4-10.8-4.5-16.5c-0.2-2.3-0.5-4.6-0.8-6.9c-0.8-5.3-2.2-10.5-4.1-15.6
		c-0.5-1.3-0.9-2.5-1.5-3.8c-0.9-2.2-2-4.4-4.1-5.8c-2.2-1.5-5.1-1.5-7.7-0.8c0,0,0,0,0,0c-0.2-0.9-0.4-1.9-0.7-2.9
		c0-0.1-0.1-0.3-0.1-0.4c0,0,0,0,0-0.1c-0.1-0.3-0.2-0.7-0.3-1c-1.2-3.7-3-7.8-4.6-11c2.4-1.8,4.9-3.2,7.7-4.3
		c3.8-1.3,8.2-1.5,11.9,0.3c3.9,1.9,6.3,5.8,8.1,9.8c2.7,6.5,3.8,13.5,4.7,20.5c0.2,1.6,0.5,3.2,0.7,4.8c0.5,3.7,1.2,7.4,2.3,11.1
		c0.5,1.6,0.9,3.2,1.6,4.7c0.8,2.2,1.9,4.8,3.3,6.7c0.1,0.2,0.3,0.3,0.4,0.5c0,0,0,0.1,0.1,0.1c0.4,0.5,0.8,1,1.3,1.4
		c0.3,0.2,0.5,0.5,0.8,0.7C176.1,595.2,176.4,595.4,176.7,595.7z"/>
	<path class="st14" d="M133.1,538.7L133.1,538.7"/>
	<path class="st14" d="M188.4,556.9L188.4,556.9c0,0.4,0,1,0,1.9"/>
	<path class="st17" d="M178.8,597.6c-3.4,3-6.3,6.7-8.4,10.7c-1.3-0.5-2.6-0.9-3.8-1.5c2.6-4.3,6.2-7.9,10-11
		C177.4,596.4,178.2,596.9,178.8,597.6z"/>
	<path class="st18" d="M182.8,605.8c-0.4,0.1-0.7,0-1.1-0.2c-0.2-0.1-0.5-0.2-0.6-0.3v0.1c0.2,0.6-0.2,1.6-0.9,1.6
		c-0.3,0-0.5-0.2-0.7-0.3l-0.1-0.1v0.1c0.1,0.5,0,1-0.4,1.3c-0.2,0.2-0.5,0.2-0.6,0.3c-0.6,0.1-1-0.1-1.6-0.4
		c0.2,0.3,0.4,0.5,0.5,0.8c0.3,0.6,0.1,1.6-0.5,1.9c-0.2,0.1-0.3,0.2-0.5,0.2c-1.1-0.3-2.1-0.7-3.1-1.4c-0.1,0-0.1-0.1-0.2-0.1
		c0,0,0,0-0.1,0c0,0,0,0-0.1-0.1l0,0l0,0l0,0c-0.7-0.3-1.6-0.6-2.3-0.8c2-4.1,4.9-7.8,8.4-10.7c0.5,0.4,0.9,0.7,1.3,1.1
		c1.4,1.3,2.9,2.7,3.5,4.5C184,604.2,183.8,605.6,182.8,605.8z"/>
	<path class="st14" d="M137.8,554.6c0.2-0.1,0.4-0.2,0.6-0.3c0.2-0.1,0.4-0.1,0.6-0.2"/>
	<path class="st14" d="M146.2,564.4c-0.2,0-0.4,0-0.6,0"/>
	<path class="st17" d="M195.8,567.9c-0.1,1.9-0.2,3.6-0.5,5.5c-2.8-3.5-6.6-6.3-10.7-8c0.6-0.9,0.7-2.1,0.6-3.2
		C188.9,563.6,192.6,565.6,195.8,567.9z"/>
	<path class="st18" d="M195.8,567.9c-3.2-2.3-6.9-4.3-10.7-5.7c0-0.2,0-0.3-0.1-0.4c-0.4-2-1.3-4-1.1-6v-0.1
		c0.1-0.2,0.1-0.4,0.1-0.6c0.1-0.4,0.3-0.7,0.6-1c1.1-0.9,2.8,0.3,3.3,1.7c0.2,0.4,0.3,0.7,0.3,1.2l0,0c0.1,0.2,0.1,0,0.1-0.2
		c0.4-0.6,1.1-0.8,1.8-0.6c0.8,0.3,1.1,1.3,1.2,2.1c0.2-0.1,0.5-0.2,0.7-0.2c0.7,0,1.5,0.6,1.8,1.3c0.3,0.6,0.3,1.4,0.3,2.1
		c0.3-0.1,0.6,0,0.9,0.2c0.5,0.5,0.6,1.1,0.6,1.8C195.8,564.9,195.9,566.4,195.8,567.9z"/>
	<path class="st14" d="M184.1,555c-0.1,0.2-0.1,0.4-0.1,0.6"/>
	<path class="st18" d="M195.3,573.4c-0.1,0.8-0.3,1.7-0.5,2.5c-0.2,0.8-0.4,1.8-0.9,2.4c-0.6,0.9-1.6,1.5-2.5,1.9s-1.8,0.6-2.7,0.7
		c-2,0.4-4.3,0.4-6.3,0.3c-4.7-0.1-9.4-0.2-14.1-0.3c-1-3.6-1.7-7.3-2.3-11.1c-0.3-1.6-0.5-3.2-0.6-4.8c5.1,0.4,10.2,1,15.3,1.8
		c0.7,0.1,1.6,0.2,2.3,0s1.3-0.7,1.7-1.4C188.8,567.1,192.6,569.9,195.3,573.4z"/>
	<path class="st14" d="M191.4,558.3L191.4,558.3c0.1,1.5,0.2,1.4,0,2.8"/>
	<path class="st14" d="M194.1,562.7c-0.1-0.7,0-0.3,0.1-1c0-0.1,0-0.1,0-0.2"/>
	<path class="st17" d="M197.3,571.9c-0.1,0.6-0.2,1.3-0.3,1.9c-0.5,3.4-1.4,6.9-5.5,7.4c-0.9,0.1-1.9,0-2.9-0.4
		c0.9-0.2,1.9-0.4,2.7-0.7c1-0.4,1.9-1,2.5-1.9c0.5-0.7,0.7-1.6,0.9-2.4c0.2-0.8,0.4-1.7,0.5-2.5c0.3-1.9,0.5-3.6,0.5-5.5
		c0-1.5,0-3-0.1-4.4c-0.1-0.6-0.2-1.3-0.6-1.8c-0.3-0.2-0.6-0.3-0.9-0.2c0-0.7,0-1.5-0.3-2.1c-0.3-0.7-1-1.3-1.8-1.3
		c-0.3,0-0.6,0.1-0.7,0.2c-0.1-0.9-0.4-1.9-1.2-2.1c-0.6-0.2-1.3,0.2-1.8,0.6c0-0.3,0-0.6-0.1,0.1l0,0c-0.1-0.4-0.2-0.8-0.3-1.2
		c-0.5-1.3-2.2-2.5-3.3-1.7c-0.3,0.3-0.5,0.6-0.6,1c0-0.8-0.4-1.7-0.1-2.4c0.5-0.9,1.8-1,2.9-0.7c1.5,0.4,3,0.9,4.3,1.9
		c0.6,0.5,1.5,0.7,2,1.4c0.6,0.6,1,1.3,1.4,1.9c0.8,1.5,1.4,3.1,1.9,4.7C197.4,565.3,197.7,568.4,197.3,571.9z"/>
	<path class="st14" d="M188.5,556.8C188.5,556.8,188.4,556.8,188.5,556.8C188.4,556.8,188.4,556.9,188.5,556.8
		C188.4,556.1,188.5,556.5,188.5,556.8z"/>
	<path class="st14" d="M184,555.7c0,0.1,0,0.1-0.1,0.2"/>
	<path class="st14" d="M179.3,606.6c-0.8-0.6-1.2-0.7-1.9-1.5"/>
	<path class="st14" d="M173.1,609.4c0.6,0.4,0.9,0.8,1.5,1.1c0.5,0.3,1,0.5,1.6,0.3"/>
	<path class="st14" d="M172.9,609.2C172.8,609.2,172.8,609.2,172.9,609.2"/>
	<path class="st14" d="M176.7,607.8c-0.3-0.4-0.6-0.6-0.8-0.9"/>
	<path class="st17" d="M185.8,605.2c-0.2,0.6-0.6,1.1-0.9,1.7c-1.9,2.5-5,4.5-8.2,4.1c-0.2,0-0.4-0.1-0.6-0.1c0.2,0,0.4-0.1,0.5-0.2
		c0.6-0.5,0.7-1.3,0.5-1.9c-0.1-0.3-0.3-0.6-0.5-0.8c0.5,0.3,1,0.4,1.6,0.4c0.3,0,0.5-0.1,0.6-0.3c0.4-0.3,0.5-0.8,0.4-1.3v-0.1
		l0.1,0.1c0.2,0.1,0.5,0.3,0.7,0.3c0.7,0,1.1-0.8,0.9-1.6v-0.1c0.2,0.1,0.5,0.2,0.6,0.3c0.4,0.2,0.7,0.3,1.1,0.2
		c1-0.2,1.1-1.6,0.8-2.6c-0.6-1.9-2-3.2-3.5-4.5c-0.4-0.4-0.8-0.7-1.3-1.1c-0.7-0.6-1.5-1.2-2.1-1.9c-1.1-0.9-2.1-1.9-3.1-2.9
		c1.4,0.6,2.7,1.4,3.9,2.2c0.8,0.6,1.6,1.1,2.3,1.7c1.6,1.2,3,2.6,4.3,4.1C185.2,602,186.3,603.6,185.8,605.2z"/>
	<path class="st17" d="M55.1,513.7c-0.1-0.7-0.7-1.3-1.2-1c-0.3,0.1-0.5,0.4-0.6,0.6c-0.5,1.1-1,2.2-1.4,3.4c-1.2,3.3-1.3,2.5-2,5.9
		c-1.9,0-3.7,0.3-5.5,0.9c-2.3,0.8-4.5,2.2-5.8,4.3c-1.2,2-2.2,6.4-2.2,8.8c0,1.5,0.1,3,0.6,4.3c0.3,0.6,0.7,1.2,1.1,1.7
		c0,0,0.1,0,0.1,0c0.1,0.1,0.2,0.2,0.4,0.3h0.2c0,0,0,0.1-0.1,0.1c0.1,0,0.1,0.1,0.2,0.1c0.6,0.6,1.5,0.9,2.3,1.3c0.1,0,0.1,0,0.2,0
		c0.2,0,0.4,0.1,0.6,0.3l0.2,0.2c0.5,0.2,1.1,0.3,1.7,0.4c0.1-0.1,0.1-0.3,0.2-0.4c0,0,0,0,0-0.1c0,0,0,0,0,0v0
		c1.9-4,4.7-9.5,6.7-13.4c1-2,1.9-4.2,2.9-6.3c0.3-0.7,0.5-1.3,0.7-1.9l0,0c0-0.2,0.1-0.4,0.2-0.6C55.8,518.4,55.5,518.1,55.1,513.7
		z M39.9,542.6c-0.1,0-0.3-0.1-0.5-0.2c0,0,0,0,0,0h0.2c0.3,0,0.5,0.2,0.7,0.3C40.1,542.7,40,542.6,39.9,542.6z"/>
	<path class="st17" d="M39.4,542.4C39.4,542.4,39.4,542.4,39.4,542.4l0.2,0c0.3,0,0.5,0.2,0.7,0.3c-0.1,0-0.2-0.1-0.4-0.1
		C39.8,542.6,39.6,542.5,39.4,542.4z"/>
	<path class="st17" d="M42,544.7l0.2,0.2c0,0-0.1,0-0.1,0c-0.2-0.2-0.4-0.3-0.6-0.3c-0.1,0-0.1,0-0.2,0c-0.8-0.3-1.7-0.7-2.3-1.3
		c-0.1-0.1-0.2-0.1-0.3-0.2c0,0,0,0,0,0c-0.1-0.1-0.2-0.1-0.2-0.2c0,0,0,0,0,0s0,0,0,0c0,0-0.1,0-0.1-0.1c0,0-0.1-0.1-0.1-0.1l0,0
		c0,0-0.1-0.1-0.1-0.1l0,0c0,0,0.1,0,0.1,0c0.1,0.1,0.2,0.2,0.4,0.3h0.2c0,0,0,0.1-0.1,0.1c0.1,0,0.1,0.1,0.2,0.1
		c0.6,0.6,1.5,0.9,2.3,1.3c0.1,0,0.1,0,0.2,0C41.6,544.4,41.8,544.5,42,544.7z"/>
	<path class="st17" d="M54.3,523.1C54.3,523.1,54.3,523.1,54.3,523.1c-0.2,0.8-0.5,1.4-0.8,2c-0.8,2.1-1.8,4.2-2.9,6.3
		c-1.8,3.9-4.6,9.4-6.6,13.4c0,0,0,0,0,0v0c1.9-4,4.7-9.5,6.7-13.4c1-2,1.9-4.2,2.9-6.3C53.9,524.4,54,523.7,54.3,523.1L54.3,523.1z
		"/>
	<path class="st18" d="M147.3,575.8c0-0.6,0-1.2,0-1.7c0-1,0-1.8-0.1-2.6c0-0.5-0.1-1-0.1-1.4c-0.1-0.7-0.2-1.5-0.3-2.5
		c-0.1-0.9-0.3-1.9-0.5-2.8c0-0.1-0.1-0.3-0.1-0.4h2.2c1.2,0,2.4,0,3.7,0.1c1.8,5,3.2,10.3,4.1,15.6c-3.1-0.4-6-0.4-9.1-0.4
		c0-0.1,0-0.2,0-0.4c0-0.2,0-0.4,0-0.6c0-0.3,0-0.7,0-1c0-0.2,0-0.4,0-0.6C147.3,576.6,147.3,576.2,147.3,575.8z"/>
	<path class="st14" d="M147.2,579.7c-0.1,0-0.3,0-0.4,0"/>
	<path class="st14" d="M84.4,512.4c-0.2-0.2-0.5-0.4-0.6-0.6"/>
	<line class="st14" x1="93.7" y1="547.4" x2="93.7" y2="547.4"/>
	<path class="st18" d="M100.8,531c-1.5,0.3-3,0.4-4.4,0.3c-2.4,0-4.9-0.4-7.3-0.8c0.3-0.7,0.5-1.5,0.6-2.2c0.9-4.7-2-12.7-5.4-15.8
		c2.2-2.1,4.4-4.4,6.7-6.5c4.1,4.1,8.1,11.4,9,16.1C100.6,525,100.9,528.1,100.8,531z"/>
	<line class="st14" x1="93.7" y1="547.4" x2="93.7" y2="547.4"/>
	<path class="st17" d="M56.6,553.1c0,0.1,0.1,0.1,0.1,0.2C56.5,553.5,56.6,553,56.6,553.1z"/>
	<path class="st17" d="M120.4,567.3c0,1,0,1.9-0.1,2.9c-0.1,1-0.1,2.1-0.2,3.1c0,0.2,0,0.4-0.1,0.5c-0.1,0.6-0.2,1.6-0.4,2.7
		c-0.2,1.2-0.5,2.6-0.7,3.9c-0.2,0.7-0.3,1.5-0.4,2.1c0,0,0,0.1,0,0.1c0,0.2-0.1,0.3-0.1,0.5c-16.5,0.5-33,0.9-49.4,1.3
		c-10.1,0.3-21.4,2.3-30.6-1.7c-0.1,0,0.6-1.9,0.5-1.9l-0.7,1.9c0.1-0.6,0.2-1.3,0.3-2c0.4-1.8,1.1-4,1.9-6c0.8-2.1,1.7-4.1,2.4-5.6
		c0.2-0.4,0.4-0.7,0.5-1c0.3,0.7,1.3,1.5,1.9,1.8c2.4,1.6,3.2,1.6,5.6,1.6c3.8,0.1,5.6-0.1,7-3.6c1.5-3.5,1.6-6.1,0.5-9.8
		c-0.7-2.6-0.5-2.4-1.5-4.7c0.1-0.1,0.1-0.2,0.2-0.3c0.1-0.2,0.2-0.3,0.3-0.3c0.2,0,0.3,0,0.5,0c0.1,0,0.1,0,0.1,0
		c1.3,0.1,2.5,0,3.7-0.3h0c0.1,0,0.1,0,0.2,0c0.1,0,0.2,0,0.4-0.1c0.1,0,0.2-0.1,0.4-0.1c0.9-0.2,1.7-0.6,2.3-1.1
		c0.1-0.1,0.2-0.2,0.3-0.2c1.5-1,2.6-2.5,3.3-4.2c0,0,0,0,0,0c0,0,0.1-0.1,0.1-0.2c0,0,0,0,0-0.1c0,0,0-0.1,0.1-0.1
		c2.2-0.3,4.3-0.8,6.3-1.5c2-0.7,4-1.7,5.7-2.9c3.9-2.7,7-6.7,8.5-11.2c2.4,0.5,4.8,0.8,7.3,0.8c1.5,0,3-0.1,4.3-0.3
		c-0.1,1.8-0.3,3.5-0.6,5.3c-0.9,4.3-3.2,8.2-6.5,11.1c4.5-0.7,9-1.3,13.5-2c3.6-0.6,7.5-1,10.8,0.3c0.1,0.3,0.1,0.6,0.2,0.7
		c0,0,0,0.1,0,0.1l0.3,1.6l0.4,2l0.5,3c0.2,1.3,0.4,2.6,0.5,4c0.2,1.4,0.3,2.8,0.3,4.2c0.1,0.9,0.1,1.9,0.1,2.8
		C120.5,565.3,120.5,566.3,120.4,567.3z"/>
	<path class="st17" d="M62.5,552.1c-0.1,0.1-0.2,0.1-0.4,0.1c-0.1,0-0.2,0.1-0.4,0.1c-0.1,0-0.1,0-0.2,0h0c-1.2,0.3-2.4,0.4-3.7,0.3
		c0,0,0,0-0.1,0c-0.2,0-0.4,0-0.5,0c0.2-0.1,0.3,0,0.6,0c0,0,0,0,0.1,0c1.1-0.1,2.7-0.1,4.1-0.3c0,0,0.1,0,0.1,0c0,0,0,0,0.1,0
		C62.3,552.2,62.4,552.1,62.5,552.1z"/>
	<path class="st17" d="M68.4,546.6c-0.7,1.8-1.8,3.2-3.3,4.2C66.5,549.6,67.4,548.5,68.4,546.6z"/>
	<path class="st17" d="M68.5,546.4c0,0.1-0.1,0.1-0.1,0.2C68.4,546.5,68.5,546.5,68.5,546.4z"/>
	<path class="st17" d="M118.6,548.4l-0.3-1.6C118.4,547.3,118.5,547.8,118.6,548.4z"/>
	<path class="st14" d="M54.9,549.8"/>
	<path class="st19" d="M71.9,521.5c-0.2,0.9,0.5,1.8,0.9,2.5c0.5,0.7,0.7,1.9,0,2.5c-0.6,0.5-1.6,0-1.9-0.6
		c-0.4-0.7-0.2-1.6,0.1-2.2C71.3,523,71.6,522.2,71.9,521.5"/>
	<path class="st14" d="M44.1,544.8c-0.6-0.7-1.2-1.6-1-2.6"/>
	<path class="st17" d="M55.9,526.9c0,0.1-0.1,0.2-0.1,0.2c-0.4,0.9-0.9,1.7-1.5,2.3c0,0,0,0,0,0l0,0l0,0l0,0c0,0,0,0-0.1,0.1
		c-0.1,0.1-0.2,0.2-0.3,0.3c-0.1,0.1-0.1,0.2-0.1,0.2l0,0c-0.1,0.4,0.2,0.8,0.6,0.8c0.4,0,0.6,0.3,0.6,0.6c0,0.1,0,0.3-0.1,0.4
		c0,0,0,0,0,0c0,0.1-0.1,0.1-0.2,0.2c-1.5,0.8-2.8,1.8-4.1,3.1c-0.1,0.1-0.1,0.2-0.1,0.2c-0.1,0.2-0.1,0.4,0.1,0.6
		c1.2,1.5,1.3,3.4,1,5.4c0,0.1,0,0.2-0.1,0.3c-0.2,0.3-0.7,0.4-0.9,0c-0.2-0.2-0.3-0.4-0.5-0.5c-0.6-0.5-1.2-0.7-1.9-1
		c-0.3-0.2-0.7,0.1-0.8,0.4l0,0c0,0,0,0.1,0,0.1l-0.4,5c0,0.5-0.1,0.8-0.1,1.2c0,0.1,0,0.2-0.1,0.3c0,0,0,0,0,0v0
		c-0.2,0.3-0.7,0.4-1,0c-0.4-0.6-0.8-1.1-1.2-1.7c-0.2-0.2-0.3-0.3-0.4-0.5c0,0,0,0,0,0v0c1.9-4,4.7-9.5,6.7-13.4
		c1-2,1.9-4.2,2.9-6.3c0.3-0.7,0.5-1.3,0.7-1.9l0,0c0.3-0.2,0.5-0.5,0.7-0.6c0.3-0.3,0.8-0.2,1,0.3
		C56.4,524.1,56.4,525.5,55.9,526.9z"/>
	<path class="st18" d="M68.5,546.2c-1,2-2,3.2-3.5,4.6c-0.8,0.5-1.6,0.9-2.5,1.3c-0.1,0.1-0.2,0.1-0.4,0.1c-0.1,0-0.2,0.1-0.4,0.1
		c-0.1,0-0.1,0-0.2,0h0c-1.3,0.2-2.7,0.2-3.7,0.3c0,0,0,0-0.1,0c-0.2,0-0.4,0-0.5,0c-0.3,0-0.6-0.1-0.9-0.1
		c-0.9-0.1-1.7-0.5-2.5-0.8c0,0,0,0-0.1,0c0.2-0.1,0.4-0.2,0.5-0.3c0,0,0.1,0,0.1-0.1c0.7-0.4,1.3-1.2,0.8-1.9
		c-0.1-0.2-0.5-0.3-0.8-0.4c0,0-0.1,0-0.1,0c-0.2,0-0.4,0-0.6,0.1c-1,0.2-2.1,0.4-3.2,0.7c-0.1,0-0.1-0.1-0.2-0.1
		c-1-0.6-2-1.2-2.9-1.9c-0.3-0.2-0.5-0.5-0.8-0.6c0.1-0.1,0.1-0.1,0.1-0.2v0c0,0,0-0.1,0-0.1c0-0.4,0-0.8,0.1-1.2l0.4-5
		c0-0.1,0-0.2,0.1-0.3l0,0c0.1-0.2,0.4-0.3,0.7-0.3c0.7,0.3,1.3,0.6,1.9,1c0.2,0.2,0.4,0.4,0.5,0.6c0.4,0.3,0.9,0.2,1-0.2
		c0,0,0-0.1,0-0.1c0.2-1.9,0.1-4-1-5.4c-0.2-0.2-0.2-0.5,0-0.8c0,0,0,0,0.1-0.1c1.2-1.2,2.6-2.2,4.1-3.1c0.2-0.1,0.2-0.2,0.3-0.3
		c0,0,0,0,0,0c0.1-0.3-0.2-0.8-0.6-0.8s-0.6-0.3-0.6-0.6c0-0.1,0-0.2,0.1-0.3l0,0c0,0,0,0,0,0c0.2-0.2,0.3-0.3,0.4-0.5
		c0,0,0.1,0,0.1-0.1l0,0l0,0l0,0c0,0,0,0,0,0c0.6-0.7,1-1.5,1.3-2.3c0.1,0,0.1,0,0.2,0.1c1.8,0.7,4.1,1.9,5.7,3.2c0,0,0,0,0,0
		c0.5,0.4,0.9,0.8,1.2,1.2c0.1,0.2,0.3,0.3,0.4,0.5c-0.7-0.7-1.4-1.4-2.1-1.7c-0.6,1-1.5,1.9-2.1,2.9c0,0,0,0,0,0
		c-0.2,0.3-0.2,0.6-0.1,0.8c-0.2,0.2-0.5,0.5-0.8,0.7c0,0-0.1,0.1-0.1,0.1c-0.1-0.1-0.2-0.2-0.2-0.3c-0.1-0.1-0.3-0.2-0.4,0
		l-5.5,5.6c0,0.1-0.1,0.2-0.1,0.2c0,0,0,0.1,0,0.1c-0.2,0.5-0.1,0.9,0.2,1.2c0.3,0.4,0.8,0.7,1.5,1.1c1.8,1,4.4,1,5.8-0.8
		c0.2-0.2,0.3-0.4,0.4-0.7c0,0,0-0.1,0-0.1c0.8-1.9-0.4-4.2-1.2-5.6c0,0,0.1-0.1,0.1-0.1c0.3-0.3,0.6-0.6,0.9-0.8
		c0.2,0.1,0.3,0.2,0.5,0.3c0.9,0.7,2.6,1.2,3.6,0.7c0.5-0.3,0.8-0.6,0.9-0.9c0.2-0.5,0.1-1.1-0.3-1.7c0.1,0.1,0.2,0.2,0.3,0.3
		C67.5,537.4,70.2,541.6,68.5,546.2z"/>
	<path class="st14" d="M62.1,552.2C62.1,552.2,62.1,552.2,62.1,552.2c-0.2,0.1-0.3,0.1-0.4,0.2"/>
	<path class="st14" d="M68.6,546.2c0,0-0.1,0.1-0.1,0.1"/>
	<path class="st14" d="M64.2,533.1L64.2,533.1c-0.4-0.5-0.6-0.7-0.8-1.1l-0.1-0.1"/>
	<path class="st14" d="M65.1,545.5"/>
	<path class="st14" d="M65.7,531.7"/>
	<path class="st14" d="M52.2,545.2c-0.5-0.6-1.6-0.5-1.9,0.3c-0.4,0.6-0.2,1.6,0.3,2.2c0.4,0.5,0.8,0.8,1.4,1c0.6,0.2,1.2,0,1.7-0.4
		c0.1-0.1,0.2-0.2,0.3-0.2c0.3-0.1,0.5,0.5,0.6,1"/>
	<path class="st14" d="M51.9,541.8c-1.3,0.4-2.3,1.8-2.2,3.2"/>
	<path class="st14" d="M62.2,537c0.2,1.1-0.7,2.2-1.8,2.4"/>
	<path class="st14" d="M64.5,541.1c-0.5,0.5-0.5,1.4,0.1,1.8s1.5,0.1,1.7-0.6"/>
	<path class="st14" d="M38.4,580.5L38.4,580.5c0.1,0.1,0.3,0.1,0.4,0.2"/>
	<path class="st14" d="M40.2,542.7c-0.1,0-0.2-0.1-0.4-0.1c-0.1,0-0.3-0.1-0.5-0.2c0,0,0,0,0,0h0.2C39.9,542.4,40,542.6,40.2,542.7z
		"/>
	<path class="st18" d="M54.4,551.3c-0.3,0.2-0.4,0.3-0.5,0.3c0,0,0,0,0,0c-2.1,1.1-5.7,1.7-8.4,1.9c-0.7,1.4-1.3,2.9-1.9,4.3
		c-0.9,2.2-1.7,4.5-1.7,6.9c0,1.3-0.2,1.1,0.3,2.3c0.2,0.5,0.3,1.2,0.5,1.7c-1.6,3-3.5,8-4.3,11.6c-0.3-0.1-0.5-0.3-0.8-0.4
		c-1.1-0.6-2.2-1.2-3.1-2.1c-2.2-2.4-2.2-6-1.8-9.3c1-6.7,3.8-12.9,7.1-18.8c-1.3-2.1-2.3-4.3-2.3-6.8c0-0.2,0-0.4,0.1-0.5
		c0,0,0.1,0,0.3,0.1h0c0,0,0.1,0,0.1,0c0,0,0.1,0,0.1,0c0,0,0.1,0,0.1,0c0.1,0.1,0.2,0.2,0.4,0.3c0,0,0.1,0.1,0.1,0.1
		c0.1,0,0.1,0.1,0.2,0.1c0.6,0.6,1.5,0.9,2.3,1.3c0.1,0,0.1,0,0.2,0c0.2,0,0.4,0.1,0.6,0.3l0.2,0.2c0.9,1.1,1.7,2.1,2.7,3
		c0.6,0.7,1.3,1.5,2.1,1.9c0.4,0.2,0.6,0.3,1,0.3c0.7,0.1,1.4-0.2,2.1-0.4c0,0,0.1,0,0.2,0c0.1,0,0.2-0.1,0.2-0.1
		c1-0.3,2-0.6,3.2-0.7c0.2,0,0.4-0.1,0.6-0.1c0,0,0.1,0,0.1,0c0.3,0,0.7,0.1,0.8,0.4C55.8,550,55.1,550.9,54.4,551.3z"/>
	<path class="st14" d="M37.7,542.7c0.1-0.1,0.3-0.2,0.4-0.1l0,0c0.1,0,0.3,0.1,0.4,0.3c0.1,0.1,0.2,0.2,0.2,0.2l0,0
		c0.1,0.1,0.1,0.2,0.2,0.3"/>
	<path class="st14" d="M41.2,546.2c-0.7-0.9-1.5-1.9-2.1-2.9"/>
	<path class="st14" d="M38.5,542.9C38.5,542.9,38.5,542.9,38.5,542.9c0.1,0,0.1,0,0.2,0"/>
	<path class="st14" d="M38.8,542.9c0,0,0.1,0,0.1,0c0.7,0.1,1.7,0.2,1.8,0.3c0.6,0.6,1,1.1,1.5,1.7"/>
	<path class="st14" d="M39.4,545.2c-0.4-0.5-0.8-0.9-0.8-1.6c0-0.1,0.1-0.3,0.1-0.5c0,0,0,0,0-0.1c0,0,0-0.1,0-0.1"/>
	<path class="st14" d="M38.8,542.9c0.2-0.2,0.4-0.4,0.6-0.4c0,0,0,0,0.1,0"/>
	<g>
		<path class="st18" d="M84,503.6c-0.1,0.4-0.4,0.7-0.7,0.7c-0.2,0-0.4-0.2-0.6-0.3c-0.6-0.5-1.2-1-1.8-1.6c0.7,0.7,1.5,1.9,1.9,2.8
			c0.2,0.4,0.3,0.9,0.1,1.3c-0.2,0.4-0.6,0.5-1,0.4s-0.7-0.3-1-0.5c-0.1-0.1-0.2-0.1-0.2-0.2c-0.9-0.6-1.7-1.6-2.4-2.4
			c-0.5-0.6-0.9-1.1-1.3-1.7c-0.3-0.4-0.6-0.7-0.6-1.3v-0.1c-0.1-0.5,0.1-0.9,0.6-1.1c0.3-0.1,0.6-0.1,0.8,0
			c0.5,0.2,1.5,0.6,1.8,0.9c-0.1-0.1-0.2-0.3-0.3-0.4c-0.2-0.3-0.5-0.6-0.5-1c-0.1-0.4,0.1-0.8,0.5-1c0.3-0.2,0.6-0.1,1,0.1
			c0.1,0,0.2,0.1,0.3,0.1c0.4,0.1,0.6,0.3,0.9,0.5c0.4,0.2,0.6,0.5,0.9,0.7l0.2,0.2l0.6,0.7c0.7,0.9,0.8,1,0.9,1.5
			C84.1,502.5,84,503.2,84,503.6z"/>
		<path class="st18" d="M80.9,508.4c-0.2,0.4-0.6,0.3-1,0.1c-0.3-0.1-0.6-0.3-0.7-0.5c-0.6-0.4-1-0.9-1.5-1.5
			c-0.1-0.1-0.2-0.3-0.4-0.4c0-0.1-0.1-0.1-0.1-0.2c-0.2-0.2-0.4-0.5-0.6-0.6c-0.4-0.4-0.6-0.8-1-1.2c-0.5-0.6-1-1.2-1.2-1.9
			c-0.1-0.5-0.1-0.9,0.2-1.3c0.4-0.4,1-0.4,1.5-0.2c0,0,0.1,0,0.1,0.1v0.1c0.1,0.5,0.4,0.8,0.6,1.3c0.5,0.6,0.8,1.1,1.3,1.7
			c0.7,0.9,1.5,1.8,2.4,2.4c0.2,0.6,0.4,1.1,0.4,1.7C81,508.2,81,508.2,80.9,508.4z"/>
		<path class="st18" d="M79.1,508.1c-1.1-0.1-3.1,0-4-0.5c-0.2-0.1-0.4-0.2-0.5-0.3c-0.2-0.2-0.5-0.3-0.6-0.5
			c-0.5-0.5-0.7-1-0.8-1.7c0-0.2,0-0.4,0.1-0.5c0.1-0.1,0.4-0.1,0.6-0.1c0.8,0.1,1.8,0.5,2.6,0.9c0.3,0.2,0.6,0.3,0.8,0.5
			c0,0.1,0.1,0.1,0.1,0.2c0.1,0.1,0.2,0.3,0.4,0.4C78.1,507.1,78.6,507.7,79.1,508.1z"/>
	</g>
	<path d="M63.6,535.6c-1,0.6-2.7,0-3.6-0.6c-0.2-0.1-0.3-0.2-0.5-0.3c-0.3-0.2-0.6-0.5-0.6-0.7c-0.1-0.3-0.1-0.5,0.1-0.8
		c0.6-1,1.5-1.9,2.1-3c0.7,0.3,1.5,0.9,2.1,1.7l0.1,0.1c0.2,0.2,0.4,0.5,0.6,0.6c0.1,0.2,0.2,0.3,0.3,0.5
		C64.8,534,64.8,534.9,63.6,535.6z"/>
	<path d="M59.2,541.9c-1.4,1.9-3.9,1.9-5.8,0.8c-1.3-0.7-2.3-1.3-1.5-2.7l5.5-5.6c0.1-0.1,0.3-0.1,0.4,0c0.1,0.1,0.1,0.2,0.2,0.3
		c0.2,0.2,0.3,0.5,0.5,0.7C59.5,537.2,60.7,539.9,59.2,541.9z"/>
	<path class="st8" d="M58,534.8c-0.2,0.2-0.4,0.5-0.5,0.6"/>
	<path class="st8" d="M58.9,533.9c0.4-0.3,0.6-0.5,0.8-0.4"/>
	<path class="st8" d="M60.1,534.1c-0.2,0.2-0.4,0.4-0.6,0.6"/>
	<path class="st8" d="M58.5,535.6c-0.2,0.2-0.4,0.3-0.6,0.5"/>
</g>
<g>
	<g>
		<path class="st8" d="M79.8,513.4c0-0.1,0-0.1,0.1-0.2c-0.1,0-0.2,0.1-0.2,0.1C79.7,513.4,79.7,513.4,79.8,513.4z M79.8,513.4
			c0-0.1,0-0.1,0.1-0.2c-0.1,0-0.2,0.1-0.2,0.1C79.7,513.4,79.7,513.4,79.8,513.4z M79.8,513.4c0-0.1,0-0.1,0.1-0.2
			c-0.1,0-0.2,0.1-0.2,0.1C79.7,513.4,79.7,513.4,79.8,513.4z M74.9,509c0-0.1,0.1-0.1,0.1-0.2c-0.1,0-0.1,0-0.2,0
			C74.9,508.9,74.9,509,74.9,509z M74.9,509c0-0.1,0.1-0.1,0.1-0.2c-0.1,0-0.1,0-0.2,0C74.9,508.9,74.9,509,74.9,509z M79.8,513.4
			c0-0.1,0-0.1,0.1-0.2c-0.1,0-0.2,0.1-0.2,0.1C79.7,513.4,79.7,513.4,79.8,513.4z M79.8,513.4c0-0.1,0-0.1,0.1-0.2
			c-0.1,0-0.2,0.1-0.2,0.1C79.7,513.4,79.7,513.4,79.8,513.4z M80,500.7c0,0,0.1-0.1,0.1-0.1c0.1-0.1,0.2-0.3,0.3-0.4
			c1.1-1.6,2.7-3.3,4.7-3.5c0.4,0,0.8,0,1.2,0c-0.5-0.1-1-0.1-1.4,0c-2,0.2-3.6,2-4.7,3.5c-0.1,0.1-0.2,0.3-0.3,0.4
			C79.9,500.6,80,500.7,80,500.7z M74.9,509c0-0.1,0.1-0.1,0.1-0.2c-0.1,0-0.1,0-0.2,0C74.9,508.9,74.9,509,74.9,509z M73.8,514
			c0.1,0.2,0.3,0.3,0.6,0.4c0,0,0,0-0.1-0.1c-0.3-0.3-0.6-0.7-0.8-1.2C73.6,513.5,73.7,513.8,73.8,514z M79.8,513.4
			c0-0.1,0-0.1,0.1-0.2c-0.1,0-0.2,0.1-0.2,0.1C79.7,513.4,79.7,513.4,79.8,513.4z M74.9,509c0-0.1,0.1-0.1,0.1-0.2
			c-0.1,0-0.1,0-0.2,0C74.9,508.9,74.9,509,74.9,509z M74.9,509c0-0.1,0.1-0.1,0.1-0.2c-0.1,0-0.1,0-0.2,0
			C74.9,508.9,74.9,509,74.9,509z M79.8,513.4c0-0.1,0-0.1,0.1-0.2c-0.1,0-0.2,0.1-0.2,0.1C79.7,513.4,79.7,513.4,79.8,513.4z
			 M79.8,513.4c0-0.1,0-0.1,0.1-0.2c-0.1,0-0.2,0.1-0.2,0.1C79.7,513.4,79.7,513.4,79.8,513.4z M74.9,509c0-0.1,0.1-0.1,0.1-0.2
			c-0.1,0-0.1,0-0.2,0C74.9,508.9,74.9,509,74.9,509z M74.9,509c0-0.1,0.1-0.1,0.1-0.2c-0.1,0-0.1,0-0.2,0
			C74.9,508.9,74.9,509,74.9,509z M79.8,513.4c0-0.1,0-0.1,0.1-0.2c-0.1,0-0.2,0.1-0.2,0.1C79.7,513.4,79.7,513.4,79.8,513.4z"/>
		<path class="st9" d="M86.5,492.1l0.3-0.2c0.2-0.1,0.3-0.2,0.5-0.3c0.1,0,0.2,0,0.3,0c0.1,0,0.3,0,0.4,0c0.2-0.1,0.4-0.2,0.6-0.2
			c0.4-0.1,0.7,0,1.1,0c0.3,0,0.6,0.2,0.9,0.3c0.3,0.1,0.6,0.2,0.9,0.4c0.3,0.2,0.6,0.5,0.8,0.8c0.2,0.2,0.4,0.3,0.6,0.5
			c0,0,0.1,0.1,0.2,0.1c0.1,0.1,0.1,0.2,0.2,0.3c0.3,0.3,0.6,0.7,0.9,1c0.2,0.2,0.5,0.5,0.7,0.7c0.1,0.1,0.2,0.2,0.3,0.3
			c0.1,0.1,0.2,0.3,0.2,0.5c0.1,0.2,0.2,0.3,0.2,0.5c0.1,0.2,0.2,0.3,0.2,0.5c0.1,0.3,0.1,0.5,0.2,0.8c0,0.1,0,0.2,0,0.3
			c0,0.1,0.1,0.2,0.1,0.4c0,0.1,0,0.4,0,0.5c0,0.1-0.1,0.2-0.2,0.3c-0.1,0.2,0,0.3-0.1,0.5c0,0,0,0.1,0,0.1c-0.2,0-0.4-0.1-0.6-0.2
			c-0.2-0.1-0.4-0.1-0.6-0.2c-0.1,0-0.2-0.1-0.3-0.1c0,0-0.1,0-0.1,0c-0.1,0-0.1-0.1-0.2-0.1c-0.1,0-0.2,0-0.3-0.1
			c-0.1-0.1-0.2-0.1-0.4-0.2c-0.1,0-0.2-0.1-0.3-0.2c-0.2-0.1-0.3-0.2-0.5-0.3c-0.3-0.2-0.5-0.4-0.8-0.6c-0.3-0.2-0.6-0.5-0.9-0.7
			c-0.1-0.1-0.2-0.2-0.3-0.2c-0.1-0.1-0.2-0.1-0.3-0.2c-0.2-0.1-0.5-0.3-0.7-0.5c-0.3-0.3-0.6-0.6-0.9-1c-0.2-0.2-0.3-0.4-0.5-0.6
			c-0.2-0.2-0.3-0.5-0.5-0.8c-0.2-0.2-0.4-0.5-0.6-0.8c-0.2-0.2-0.3-0.5-0.4-0.7C86.6,492.5,86.6,492.3,86.5,492.1z"/>
		<path class="st9" d="M69.4,512.2c0,0.2,0.1,0.5,0.2,0.7c0.1,0.3,0.2,0.5,0.3,0.7c0.1,0.1,0.2,0.2,0.3,0.3c0.1,0.1,0.1,0.2,0.2,0.3
			c0.1,0.1,0.2,0.2,0.2,0.3c0.1,0.1,0.1,0.2,0.2,0.2c0.1,0.1,0.1,0.1,0.1,0.2c0.1,0.1,0.1,0.1,0.2,0.2c0.1,0.1,0.2,0.2,0.3,0.4
			c0.1,0.1,0.2,0.2,0.3,0.3c0.1,0.1,0.2,0.2,0.3,0.3c0.5,0.4,1,0.7,1.4,1.1c0.2,0.2,0.3,0.3,0.5,0.4c0.1,0.1,0.2,0.1,0.3,0.1
			c0.1,0.1,0.2,0.1,0.3,0.1c0.1,0,0.1,0.1,0.2,0.1c0.1,0,0.1,0,0.2,0c0.1,0,0.2,0.1,0.3,0.1c0.1,0,0.2,0,0.4,0c0.1,0,0.2,0,0.3,0
			c0,0,0.1,0,0.2,0c0,0,0.1,0,0.1,0c0.1,0,0.2,0,0.3-0.1c0.1,0,0.2,0,0.2-0.1c0.1,0,0.2-0.1,0.3-0.1c0.1-0.1,0.3-0.2,0.4-0.3
			c0,0,0.1-0.1,0.2-0.2c0.1,0,0.2,0.1,0.3,0.1c0.3,0.1,0.6-0.3,0.8-0.5c0.2-0.2,0.5-0.4,0.7-0.6c0.4-0.2,0.7-0.5,1-0.8
			c0.3-0.4,0.8-0.7,1.1-1.1c0.2-0.2,0.4-0.4,0.5-0.7c0.2-0.2,0.3-0.4,0.5-0.6c0.2-0.2,0.4-0.4,0.6-0.6c0.2-0.2,0.5-0.3,0.7-0.5
			c0.1-0.1,0.3-0.2,0.4-0.3c0.1-0.1,0.2-0.2,0.3-0.3c0.2-0.2,0.3-0.4,0.5-0.5c0.2-0.2,0.3-0.3,0.5-0.5c0.1-0.2,0.3-0.2,0.3-0.4
			c0.1-0.2,0.3-0.5,0.4-0.7c0.1-0.2,0.3-0.3,0.5-0.4c0.1-0.1,0.2-0.2,0.3-0.3c0.1-0.1,0.3-0.2,0.4-0.3c0.2-0.1,0.4-0.3,0.5-0.5
			c0.1-0.2,0.2-0.3,0.3-0.5c0.1-0.1,0.2-0.1,0.2-0.2c0.1-0.1,0.2-0.2,0.3-0.3c0.1-0.1,0.2-0.2,0.3-0.4c0.1-0.2,0.3-0.4,0.4-0.5
			c0.2-0.2,0.3-0.3,0.5-0.4c0.1-0.1,0.2-0.3,0.3-0.4c0.1-0.1,0.2-0.2,0.3-0.3c0.1-0.2,0.3-0.3,0.5-0.5c0.2-0.2,0.5-0.4,0.7-0.6
			c0.2-0.2,0.4-0.4,0.6-0.6c0.1-0.2,0.3-0.3,0.4-0.5c0.3-0.3,0.6-0.5,0.9-0.8c0.2-0.3,0.5-0.5,0.8-0.7c0.2-0.1,0.5-0.3,0.6-0.5
			c0.1-0.1,0.2-0.2,0.3-0.3c0.1-0.1,0.1-0.1,0.2-0.2c0.1-0.1,0.1-0.2,0.1-0.3c-0.2,0-0.4-0.1-0.6-0.2c-0.2-0.1-0.4-0.1-0.6-0.2
			c-0.1,0-0.2-0.1-0.3-0.1c0,0-0.1,0-0.1,0c-0.1,0-0.1-0.1-0.2-0.1c-0.1,0-0.2,0-0.3-0.1c-0.1-0.1-0.2-0.1-0.4-0.2
			c-0.1,0-0.2-0.1-0.3-0.2c-0.2-0.1-0.3-0.2-0.5-0.3c-0.3-0.2-0.5-0.4-0.8-0.6c-0.3-0.2-0.6-0.5-0.9-0.7c-0.1-0.1-0.2-0.2-0.3-0.2
			c-0.1-0.1-0.2-0.1-0.3-0.2c-0.2-0.1-0.5-0.3-0.7-0.5c-0.3-0.3-0.6-0.6-0.9-1c-0.2-0.2-0.3-0.4-0.5-0.6c-0.2-0.2-0.3-0.5-0.5-0.8
			c-0.2-0.2-0.4-0.5-0.6-0.8c-0.2-0.2-0.3-0.5-0.4-0.7c-0.1-0.2-0.2-0.4-0.3-0.6l-0.1,0c-0.1,0.1-0.2,0.2-0.4,0.3
			c-0.1,0.1-0.3,0.2-0.4,0.4c-0.1,0.1-0.3,0.3-0.4,0.4c-0.3,0.2-0.5,0.3-0.8,0.6c-0.3,0.3-0.5,0.6-0.8,0.9c-0.2,0.2-0.3,0.4-0.5,0.6
			c-0.2,0.2-0.3,0.4-0.5,0.6c-0.1,0.1-0.2,0.2-0.4,0.4c-0.1,0.1-0.1,0.2-0.2,0.2c-0.1,0.1-0.2,0.1-0.3,0.2c-0.5,0.5-1.1,1.1-1.5,1.6
			c-0.1,0.2-0.2,0.3-0.4,0.5c-0.1,0.1-0.2,0.3-0.3,0.5c-0.3,0.3-0.4,0.6-0.7,0.9c-0.2,0.2-0.5,0.5-0.7,0.7c-0.2,0.2-0.4,0.3-0.6,0.5
			c-0.1,0.1-0.2,0.1-0.3,0.2c-0.1,0.1-0.1,0.1-0.2,0.2c-0.2,0.2-0.3,0.3-0.5,0.5c-0.2,0.2-0.4,0.4-0.6,0.7c-0.1,0.1-0.2,0.2-0.3,0.3
			c-0.1,0.1-0.2,0.3-0.3,0.4c-0.1,0.1-0.2,0.3-0.3,0.4c-0.1,0.1-0.2,0.2-0.3,0.2c-0.1,0.1-0.1,0.1-0.2,0.2c0,0-0.1,0-0.1,0.1
			c-0.1,0.1-0.1,0.1-0.2,0.2c0,0-0.1,0-0.1,0.1c-0.1,0.1-0.1,0.2-0.2,0.3c-0.1,0.1-0.2,0.2-0.4,0.4c-0.2,0.2-0.4,0.4-0.6,0.6
			c-0.1,0.1-0.1,0.2-0.2,0.2c-0.1,0.1-0.1,0.1-0.2,0.2c-0.1,0.1-0.2,0.3-0.3,0.4c-0.1,0.1-0.1,0.1-0.2,0.3c-0.1,0.2-0.3,0.3-0.5,0.5
			c-0.2,0.2-0.4,0.5-0.7,0.7c-0.2,0.2-0.4,0.4-0.5,0.6c-0.1,0.2-0.2,0.3-0.3,0.5c0,0.1,0,0.2-0.1,0.2c0,0,0,0.1,0,0.1
			c0,0-0.1,0.1-0.1,0.1c-0.1,0.2-0.1,0.4-0.1,0.6c0,0.2-0.1,0.3-0.2,0.4c-0.1,0.1-0.1,0.2-0.1,0.4c0,0.1-0.1,0.2-0.1,0.3
			C69.5,511.7,69.4,512,69.4,512.2z M73.3,508.5c0.1-0.3,0.5-1.4,0.9-1.9c0,0,0,0,0,0c0.2-0.2,0.4-0.3,0.6-0.1c0,0,0.1,0.1,0.1,0.1
			c0.8-1.2,2-2.3,3-3.3c0.7-0.8,1.4-1.7,2.1-2.5c0-0.1-0.1-0.1-0.1-0.1c0.1-0.1,0.2-0.3,0.3-0.4c1.1-1.6,2.7-3.3,4.7-3.5
			c0.4,0,0.9,0,1.4,0c2.2,0.2,4.5,1.4,5.1,3.5c0.8,2.6-1.3,4.8-2.9,6.5c-0.3,0.3-0.6,0.6-0.9,1c-0.8,0.8-1.6,1.6-2.3,2.4
			c-1,1-1.9,2.3-3,3.1c-0.7,1.2-3,2.1-4.2,2.1c-1.4,0-2.6,0.1-3.6-0.9c-0.3-0.1-0.5-0.2-0.6-0.4c-0.1-0.2-0.2-0.5-0.2-0.8
			c-0.2-0.5-0.3-1-0.4-1.5C72.9,510.7,73,509.6,73.3,508.5z"/>
		<path class="st10" d="M75.2,507.1c0.6,0.3,1,1.1,1.2,1.7c0,0,0,0-0.1,0c-0.4-0.2-0.9-0.1-1.3,0c0.1-0.2,0.2-0.5,0.3-0.8
			C75.4,507.7,75.3,507.4,75.2,507.1z"/>
		<path class="st10" d="M79.7,511.9c0.7-0.1,1.4,0.1,1.6,0.7c-0.5,0.1-1,0.3-1.5,0.6C80,512.8,80,512.4,79.7,511.9z"/>
		<path class="st11" d="M75.1,508.8c0.4-0.1,0.9-0.2,1.3,0c0,0,0,0,0.1,0c0.6,0.3,1,0.8,1.5,1.2c0.1,0.1,0.2,0.2,0.3,0.2
			c0.4,0.3,0.8,0.7,1.2,1.1c0.2,0.2,0.3,0.3,0.4,0.5c0.3,0.5,0.3,0.9,0.1,1.4c-0.1,0-0.2,0.1-0.2,0.1l0,0c-0.7-0.2-1.3-0.7-1.9-1.1
			c-1.2-0.9-2.3-1.9-2.8-3.3C75,509,75,508.9,75.1,508.8z"/>
		<path class="st11" d="M73.6,512.2c0.1-0.9,0.3-1.8,0.7-2.6c0.1-0.2,0.2-0.4,0.3-0.6c0.1,0.1,0.1,0.2,0.2,0.4
			c0.6,1.2,1.5,2.2,2.7,2.9c0.6,0.4,1.2,0.8,1.9,1.1c-0.2,0.1-0.4,0.3-0.6,0.4c-0.9,0.4-1.8,0.5-2.7,0.7c-0.2,0.1-0.6,0.1-0.9,0.1
			c-0.2,0-0.3,0-0.5-0.1c-0.3-0.1-0.5-0.2-0.6-0.4c-0.1-0.2-0.2-0.5-0.2-0.8C73.6,512.8,73.6,512.5,73.6,512.2z"/>
		<path class="st10" d="M73.3,508.5c0.1-0.3,0.5-1.4,0.9-1.9c0.2,0.6,0.3,1.3,0.5,2c0,0.1,0.1,0.2,0.1,0.3c0,0.1,0,0.1,0.1,0.2
			c-0.1,0.1-0.1,0.2-0.2,0.3c0,0.1-0.1,0.1-0.1,0.2c-0.4,0.8-0.6,1.7-0.7,2.6c0,0.5-0.1,1.4,0.2,1.9c0.1,0.2,0.4,0.4,0.7,0.4
			c0.5,0.1,1,0,1.3-0.1c1-0.2,1.8-0.3,2.7-0.7c0.2-0.1,0.4-0.2,0.6-0.4l0,0c0.1,0,0.1,0,0.2,0.1c0-0.1,0-0.1,0.1-0.2
			c0.5-0.3,1-0.6,1.5-0.6c0.3,0,0.7,0,1.1,0.3c0,0.1-0.1,0.2-0.1,0.3c-0.7,1.2-3,2.1-4.2,2.1c-1.4,0-2.6,0.1-3.6-0.9
			c0,0,0,0-0.1-0.1c-0.3-0.3-0.6-0.7-0.8-1.2c-0.2-0.5-0.3-1-0.4-1.5C72.9,510.7,73,509.6,73.3,508.5z"/>
		<path class="st10" d="M74.2,506.6C74.2,506.6,74.2,506.6,74.2,506.6c0.2-0.2,0.4-0.3,0.6-0.2c0,0,0.1,0.1,0.1,0.1
			c0.2,0.2,0.3,0.3,0.3,0.6c0.1,0.3,0.1,0.6,0.1,1c0,0.3-0.1,0.5-0.3,0.8c-0.1,0-0.1,0-0.2,0c0-0.1-0.1-0.2-0.1-0.3
			C74.5,507.9,74.4,507.2,74.2,506.6z"/>
		<path class="st8" d="M74.1,506.4c0,0.1,0,0.1,0.1,0.2"/>
		<path class="st8" d="M81.8,513.6c-0.5-0.2-1.2,0-1.7-0.1c-0.1,0-0.2,0-0.3-0.1"/>
		<line class="st8" x1="79.8" y1="513.4" x2="79.8" y2="513.4"/>
		<path class="st12" d="M78.1,510.3c0.1-0.2,0.3-0.4,0.4-0.5c0.2-0.2,0.4-0.4,0.6-0.6c0.5-0.5,0.9-1,1.3-1.5c0.9-1,1.8-1.9,2.8-2.8
			c0,0,0.1-0.1,0.1-0.1l0,0c0.3,0.3,0.6,0.6,0.9,0.8c0.7,0.6,1.4,1.1,2.3,1.5c0.3,0.1,0.6,0.3,1,0.4c0,0,0.1,0,0.1,0.1
			c-0.8,0.8-1.6,1.6-2.3,2.4c-1,1-1.9,2.3-3,3.1c0.1-0.1,0.1-0.2,0.1-0.3c-0.4-0.3-0.7-0.3-1.1-0.3c-0.2-0.6-0.9-0.8-1.6-0.7
			c-0.1-0.2-0.2-0.3-0.4-0.5C79,511,78.6,510.7,78.1,510.3z"/>
		<path class="st8" d="M82.3,513.2c0,0-0.1,0.1-0.1,0.1"/>
		<path class="st12" d="M74.9,506.5c0.8-1.2,2-2.3,3-3.3c0.7-0.8,1.4-1.7,2.1-2.5c0,0,0.1-0.1,0.1-0.1c0.1,0.1,0.1,0.2,0.2,0.3
			c0.2,0.3,0.3,0.7,0.6,1c0.5,0.6,1,1.3,1.5,2c0.3,0.3,0.6,0.7,0.9,1c0,0-0.1,0.1-0.1,0.1c-0.9,0.9-1.9,1.8-2.8,2.8
			c-0.4,0.5-0.9,1-1.3,1.5c-0.2,0.2-0.4,0.4-0.6,0.6c-0.1,0.1-0.3,0.3-0.4,0.5c-0.1-0.1-0.2-0.2-0.3-0.2c-0.5-0.4-0.9-1-1.5-1.2
			c-0.1-0.7-0.6-1.4-1.1-1.7C75.2,506.9,75.1,506.7,74.9,506.5z"/>
		<path class="st13" d="M79.9,500.6c0.1-0.1,0.2-0.3,0.3-0.4c1.1-1.6,2.7-3.3,4.7-3.5c0.4,0,0.9,0,1.4,0c2.1,0.2,4.3,1.4,4.9,3.5
			c0.8,2.6-1.3,4.8-2.9,6.5c-0.3,0.3-0.6,0.6-0.9,0.9c0,0,0,0,0,0c-0.4-0.2-0.8-0.3-1.1-0.5c-0.8-0.4-1.5-1-2.3-1.5
			c-0.3-0.2-0.6-0.5-0.8-0.7c0,0-0.1-0.1-0.1-0.1l0,0c-0.3-0.3-0.7-0.7-0.9-1c-0.5-0.6-1-1.4-1.5-2c-0.2-0.3-0.4-0.6-0.6-1
			c0-0.1-0.1-0.1-0.1-0.2C80,500.7,79.9,500.6,79.9,500.6z"/>
		<path class="st8" d="M83.3,504.9c0.1-0.1,0.1-0.1,0.2-0.2c0.3-0.3,0.7-0.7,0.8-0.9"/>
		<path class="st8" d="M78,510.5c0,0,0-0.1,0.1-0.2"/>
	</g>
	<path class="st14" d="M181.1,605.3c-0.9-0.6-1.3-0.7-1.9-1.6"/>
	<path class="st15" d="M133.1,538.8c-2.3,1.8-4.8,3.6-6.9,5.5c-0.8,0.7-4,3.6-7.2,6l-0.4-2l-0.3-1.6c0,0,0,0,0,0
		c4.5-3.1,4.5-4.2,10.5-7.5c1.8-1,2.5-1.6,3.4-2.2C132.5,537.5,132.8,538.1,133.1,538.8z"/>
	<path class="st16" d="M133.9,540.4c-1.5,1.3-2.9,2.9-4.2,4.3c-2.9,3.3-6.4,6.4-10.2,8.6l-0.5-3c3.2-2.4,6.4-5.3,7.2-6
		c2.2-1.9,4.6-3.7,6.9-5.5c0,0,0,0,0,0.1C133.4,539.4,133.6,539.9,133.9,540.4z"/>
	<path class="st16" d="M137.2,548.1c-2.8,2.1-5.7,4.1-8.4,6.4c-1.9,1.6-5.1,5-8.4,7.1c-0.1-1.4-0.2-2.8-0.3-4.2
		c2.7-2.2,5.1-4.9,7.2-6.7c2.7-2.3,5.6-4.3,8.3-6.4C136.1,545.4,136.7,546.8,137.2,548.1z"/>
	<path class="st15" d="M147,567.6c0,0-0.1,0-0.1,0c-1.2,0.4-2.5,0.9-3.7,1.2c-3.5,1-7.5,1.3-11.1,1.5c-3.3,0.2-6.6,0-9.8,0
		c-0.6,0-1.2,0-1.9-0.1c0.1-1,0.1-1.9,0.1-2.9c5.1-0.3,10.3,0.1,15.3-0.7c3.6-0.5,7.2-0.9,10.6-1.8c0,0,0.1,0,0.1,0
		C146.7,565.6,146.8,566.6,147,567.6z"/>
	<path class="st16" d="M146.2,564.4c0,0.1,0.1,0.3,0.1,0.4c-3.4,0.9-7,1.3-10.6,1.8c-5,0.8-10.2,0.4-15.3,0.7c0-1,0-2,0-3
		c6.6-3.2,12.1-8.6,17.7-13.3c0.3,1,0.6,2,0.7,2.9c0,0,0,0,0,0c0,0,0,0.1,0,0.1c0,0.1,0,0.1,0,0.2c0.1,0.4,0.1,0.7,0.2,1
		c-2.4,1-6.5,4.6-8.7,5.9c-2.5,1.5-1,1-3.3,1.9c5.1,1.4,12-0.4,18.6-0.6c0.2,0.5,0.3,1.1,0.5,1.8H146.2z"/>
	<path class="st17" d="M138.2,551.1c0.3,1,0.6,2,0.8,2.9c0,0,0,0,0,0C138.7,553.1,138.5,552.1,138.2,551.1L138.2,551.1z"/>
	<path class="st17" d="M146.4,564.8c0,0-0.1,0-0.1,0c0-0.1-0.1-0.3-0.1-0.4h0.1c0,0.1,0,0.1,0,0.2
		C146.4,564.6,146.4,564.7,146.4,564.8z"/>
	<path class="st16" d="M147.4,574c0,0.6,0,1.1,0,1.7c0,0.4,0,0.9,0,1.3c0,0.2,0,0.4,0,0.6c-4.4,0.3-8.9,1.8-13.2,2.3
		c-3.8,0.4-7.6,0.8-11.5,0.8c-1.2,0-2.5-0.2-3.8-0.4c0.2-1.3,0.5-2.7,0.7-3.9c1.7-0.1,3.4-0.1,4.6-0.1c3-0.1,5.9-0.1,8.9-0.4
		C137.8,575.6,142.6,574.5,147.4,574z"/>
	<path class="st17" d="M147.4,574c0,0.5,0,1.1,0,1.7C147.4,575.2,147.4,574.6,147.4,574C147.4,574,147.4,574,147.4,574z"/>
	<path class="st16" d="M147.3,571.4c-1,0.2-2.1,0.6-2.7,0.7c-3.2,0.6-6.5,0.9-9.7,1.3c-5.1,0.6-9.9,0.3-14.8,0
		c0.1-1,0.2-2.1,0.2-3.1c0.7,0,1.3,0.1,1.9,0.1c3.3,0,6.5,0.1,9.8,0c3.6-0.2,7.6-0.5,11.1-1.5c1.2-0.3,2.4-0.8,3.7-1.2
		c0.1,0.9,0.2,1.8,0.3,2.5C147.2,570.4,147.2,570.9,147.3,571.4z"/>
	<path class="st17" d="M147.4,571.4C147.3,571.4,147.3,571.4,147.4,571.4c-0.1-0.5-0.2-1-0.2-1.4c-0.1-0.7-0.2-1.5-0.3-2.5
		c0,0,0.1,0,0.1,0h0c0.1,1,0.3,2,0.4,2.7C147.4,570.6,147.4,571,147.4,571.4z"/>
	<path class="st15" d="M135.6,544.1c-2.7,2.2-5.6,4.2-8.3,6.4c-2.1,1.8-4.6,4.6-7.2,6.7c-0.1-1.3-0.3-2.6-0.5-4
		c3.9-2.3,7.4-5.3,10.2-8.6c1.2-1.4,2.6-2.9,4.2-4.3C134.4,541.6,135,542.9,135.6,544.1z"/>
	<path class="st15" d="M138.2,551.1L138.2,551.1c-5.6,4.7-11.2,10.1-17.8,13.3c0-0.9,0-1.9-0.1-2.8c3.3-2.1,6.5-5.4,8.4-7.1
		c2.7-2.3,5.6-4.3,8.4-6.4c0.2,0.5,0.4,1,0.5,1.5c0.1,0.3,0.2,0.7,0.3,1c0,0,0,0,0,0.1C138.1,550.8,138.1,551,138.2,551.1z"/>
	<line class="st14" x1="147" y1="567.5" x2="147" y2="567.5"/>
	<path class="st15" d="M147.4,574C147.4,574,147.4,574,147.4,574c-4.7,0.4-9.6,1.5-14.2,2c-3,0.3-5.9,0.3-8.9,0.4
		c-1.2,0-2.9,0-4.6,0.1c0.2-1.1,0.3-2,0.4-2.7c0-0.2,0-0.3,0.1-0.5c4.9,0.3,9.8,0.6,14.8,0c3.2-0.4,6.5-0.7,9.7-1.3
		c0.6-0.1,1.7-0.5,2.7-0.7c0,0,0.1,0,0.1,0C147.4,572.2,147.4,573.1,147.4,574z"/>
	<path class="st15" d="M147.3,577.7c0,0.3,0,0.7,0,1c0,0.2,0,0.4,0,0.6c0,0.1,0,0.2,0,0.4c-0.1,1.4-0.3,2.6-0.4,3.6
		c-2.1,0-5.7,0-7.7-0.1c-6.7-0.4-13.9-0.6-20.6-0.7h-0.1c0,0,0-0.1,0-0.1c0.1-0.7,0.3-1.4,0.4-2.1c1.3,0.2,2.5,0.3,3.8,0.4
		c3.9,0,7.6-0.3,11.5-0.8C138.3,579.5,142.9,578,147.3,577.7z"/>
	<path class="st18" d="M176.7,595.7c-1,0.8-1.9,1.6-2.8,2.5c-0.5,0.4-0.9,0.9-1.4,1.3c-1.3,1.3-2.6,2.7-3.7,4.2c-0.8,1-1.4,2-2.1,3
		c0,0,0,0,0,0c-1.9-0.8-3.7-2-5.2-3.4c-4-4.3-4-10.8-4.5-16.5c-0.2-2.3-0.5-4.6-0.8-6.9c-0.8-5.3-2.2-10.5-4.1-15.6
		c-0.5-1.3-0.9-2.5-1.5-3.8c-0.9-2.2-2-4.4-4.1-5.8c-2.2-1.5-5.1-1.5-7.7-0.8c0,0,0,0,0,0c-0.2-0.9-0.4-1.9-0.7-2.9
		c0-0.1-0.1-0.3-0.1-0.4c0,0,0,0,0-0.1c-0.1-0.3-0.2-0.7-0.3-1c-1.2-3.7-3-7.8-4.6-11c2.4-1.8,4.9-3.2,7.7-4.3
		c3.8-1.3,8.2-1.5,11.9,0.3c3.9,1.9,6.3,5.8,8.1,9.8c2.7,6.5,3.8,13.5,4.7,20.5c0.2,1.6,0.5,3.2,0.7,4.8c0.5,3.7,1.2,7.4,2.3,11.1
		c0.5,1.6,0.9,3.2,1.6,4.7c0.8,2.2,1.9,4.8,3.3,6.7c0.1,0.2,0.3,0.3,0.4,0.5c0,0,0,0.1,0.1,0.1c0.4,0.5,0.8,1,1.3,1.4
		c0.3,0.2,0.5,0.5,0.8,0.7C176.1,595.2,176.4,595.4,176.7,595.7z"/>
	<path class="st14" d="M133.1,538.7L133.1,538.7"/>
	<path class="st14" d="M188.4,556.9L188.4,556.9c0,0.4,0,1,0,1.9"/>
	<path class="st17" d="M178.8,597.6c-3.4,3-6.3,6.7-8.4,10.7c-1.3-0.5-2.6-0.9-3.8-1.5c2.6-4.3,6.2-7.9,10-11
		C177.4,596.4,178.2,596.9,178.8,597.6z"/>
	<path class="st18" d="M182.8,605.8c-0.4,0.1-0.7,0-1.1-0.2c-0.2-0.1-0.5-0.2-0.6-0.3v0.1c0.2,0.6-0.2,1.6-0.9,1.6
		c-0.3,0-0.5-0.2-0.7-0.3l-0.1-0.1v0.1c0.1,0.5,0,1-0.4,1.3c-0.2,0.2-0.5,0.2-0.6,0.3c-0.6,0.1-1-0.1-1.6-0.4
		c0.2,0.3,0.4,0.5,0.5,0.8c0.3,0.6,0.1,1.6-0.5,1.9c-0.2,0.1-0.3,0.2-0.5,0.2c-1.1-0.3-2.1-0.7-3.1-1.4c-0.1,0-0.1-0.1-0.2-0.1
		c0,0,0,0-0.1,0c0,0,0,0-0.1-0.1l0,0l0,0l0,0c-0.7-0.3-1.6-0.6-2.3-0.8c2-4.1,4.9-7.8,8.4-10.7c0.5,0.4,0.9,0.7,1.3,1.1
		c1.4,1.3,2.9,2.7,3.5,4.5C184,604.2,183.8,605.6,182.8,605.8z"/>
	<path class="st14" d="M137.8,554.6c0.2-0.1,0.4-0.2,0.6-0.3c0.2-0.1,0.4-0.1,0.6-0.2"/>
	<path class="st14" d="M146.2,564.4c-0.2,0-0.4,0-0.6,0"/>
	<path class="st17" d="M195.8,567.9c-0.1,1.9-0.2,3.6-0.5,5.5c-2.8-3.5-6.6-6.3-10.7-8c0.6-0.9,0.7-2.1,0.6-3.2
		C188.9,563.6,192.6,565.6,195.8,567.9z"/>
	<path class="st18" d="M195.8,567.9c-3.2-2.3-6.9-4.3-10.7-5.7c0-0.2,0-0.3-0.1-0.4c-0.4-2-1.3-4-1.1-6v-0.1
		c0.1-0.2,0.1-0.4,0.1-0.6c0.1-0.4,0.3-0.7,0.6-1c1.1-0.9,2.8,0.3,3.3,1.7c0.2,0.4,0.3,0.7,0.3,1.2l0,0c0.1,0.2,0.1,0,0.1-0.2
		c0.4-0.6,1.1-0.8,1.8-0.6c0.8,0.3,1.1,1.3,1.2,2.1c0.2-0.1,0.5-0.2,0.7-0.2c0.7,0,1.5,0.6,1.8,1.3c0.3,0.6,0.3,1.4,0.3,2.1
		c0.3-0.1,0.6,0,0.9,0.2c0.5,0.5,0.6,1.1,0.6,1.8C195.8,564.9,195.9,566.4,195.8,567.9z"/>
	<path class="st14" d="M184.1,555c-0.1,0.2-0.1,0.4-0.1,0.6"/>
	<path class="st18" d="M195.3,573.4c-0.1,0.8-0.3,1.7-0.5,2.5c-0.2,0.8-0.4,1.8-0.9,2.4c-0.6,0.9-1.6,1.5-2.5,1.9s-1.8,0.6-2.7,0.7
		c-2,0.4-4.3,0.4-6.3,0.3c-4.7-0.1-9.4-0.2-14.1-0.3c-1-3.6-1.7-7.3-2.3-11.1c-0.3-1.6-0.5-3.2-0.6-4.8c5.1,0.4,10.2,1,15.3,1.8
		c0.7,0.1,1.6,0.2,2.3,0s1.3-0.7,1.7-1.4C188.8,567.1,192.6,569.9,195.3,573.4z"/>
	<path class="st14" d="M191.4,558.3L191.4,558.3c0.1,1.5,0.2,1.4,0,2.8"/>
	<path class="st14" d="M194.1,562.7c-0.1-0.7,0-0.3,0.1-1c0-0.1,0-0.1,0-0.2"/>
	<path class="st17" d="M197.3,571.9c-0.1,0.6-0.2,1.3-0.3,1.9c-0.5,3.4-1.4,6.9-5.5,7.4c-0.9,0.1-1.9,0-2.9-0.4
		c0.9-0.2,1.9-0.4,2.7-0.7c1-0.4,1.9-1,2.5-1.9c0.5-0.7,0.7-1.6,0.9-2.4c0.2-0.8,0.4-1.7,0.5-2.5c0.3-1.9,0.5-3.6,0.5-5.5
		c0-1.5,0-3-0.1-4.4c-0.1-0.6-0.2-1.3-0.6-1.8c-0.3-0.2-0.6-0.3-0.9-0.2c0-0.7,0-1.5-0.3-2.1c-0.3-0.7-1-1.3-1.8-1.3
		c-0.3,0-0.6,0.1-0.7,0.2c-0.1-0.9-0.4-1.9-1.2-2.1c-0.6-0.2-1.3,0.2-1.8,0.6c0-0.3,0-0.6-0.1,0.1l0,0c-0.1-0.4-0.2-0.8-0.3-1.2
		c-0.5-1.3-2.2-2.5-3.3-1.7c-0.3,0.3-0.5,0.6-0.6,1c0-0.8-0.4-1.7-0.1-2.4c0.5-0.9,1.8-1,2.9-0.7c1.5,0.4,3,0.9,4.3,1.9
		c0.6,0.5,1.5,0.7,2,1.4c0.6,0.6,1,1.3,1.4,1.9c0.8,1.5,1.4,3.1,1.9,4.7C197.4,565.3,197.7,568.4,197.3,571.9z"/>
	<path class="st14" d="M188.5,556.8C188.5,556.8,188.4,556.8,188.5,556.8C188.4,556.8,188.4,556.9,188.5,556.8
		C188.4,556.1,188.5,556.5,188.5,556.8z"/>
	<path class="st14" d="M184,555.7c0,0.1,0,0.1-0.1,0.2"/>
	<path class="st14" d="M179.3,606.6c-0.8-0.6-1.2-0.7-1.9-1.5"/>
	<path class="st14" d="M173.1,609.4c0.6,0.4,0.9,0.8,1.5,1.1c0.5,0.3,1,0.5,1.6,0.3"/>
	<path class="st14" d="M172.9,609.2C172.8,609.2,172.8,609.2,172.9,609.2"/>
	<path class="st14" d="M176.7,607.8c-0.3-0.4-0.6-0.6-0.8-0.9"/>
	<path class="st17" d="M185.8,605.2c-0.2,0.6-0.6,1.1-0.9,1.7c-1.9,2.5-5,4.5-8.2,4.1c-0.2,0-0.4-0.1-0.6-0.1c0.2,0,0.4-0.1,0.5-0.2
		c0.6-0.5,0.7-1.3,0.5-1.9c-0.1-0.3-0.3-0.6-0.5-0.8c0.5,0.3,1,0.4,1.6,0.4c0.3,0,0.5-0.1,0.6-0.3c0.4-0.3,0.5-0.8,0.4-1.3v-0.1
		l0.1,0.1c0.2,0.1,0.5,0.3,0.7,0.3c0.7,0,1.1-0.8,0.9-1.6v-0.1c0.2,0.1,0.5,0.2,0.6,0.3c0.4,0.2,0.7,0.3,1.1,0.2
		c1-0.2,1.1-1.6,0.8-2.6c-0.6-1.9-2-3.2-3.5-4.5c-0.4-0.4-0.8-0.7-1.3-1.1c-0.7-0.6-1.5-1.2-2.1-1.9c-1.1-0.9-2.1-1.9-3.1-2.9
		c1.4,0.6,2.7,1.4,3.9,2.2c0.8,0.6,1.6,1.1,2.3,1.7c1.6,1.2,3,2.6,4.3,4.1C185.2,602,186.3,603.6,185.8,605.2z"/>
	<path class="st17" d="M55.1,513.7c-0.1-0.7-0.7-1.3-1.2-1c-0.3,0.1-0.5,0.4-0.6,0.6c-0.5,1.1-1,2.2-1.4,3.4c-1.2,3.3-1.3,2.5-2,5.9
		c-1.9,0-3.7,0.3-5.5,0.9c-2.3,0.8-4.5,2.2-5.8,4.3c-1.2,2-2.2,6.4-2.2,8.8c0,1.5,0.1,3,0.6,4.3c0.3,0.6,0.7,1.2,1.1,1.7
		c0,0,0.1,0,0.1,0c0.1,0.1,0.2,0.2,0.4,0.3h0.2c0,0,0,0.1-0.1,0.1c0.1,0,0.1,0.1,0.2,0.1c0.6,0.6,1.5,0.9,2.3,1.3c0.1,0,0.1,0,0.2,0
		c0.2,0,0.4,0.1,0.6,0.3l0.2,0.2c0.5,0.2,1.1,0.3,1.7,0.4c0.1-0.1,0.1-0.3,0.2-0.4c0,0,0,0,0-0.1c0,0,0,0,0,0v0
		c1.9-4,4.7-9.5,6.7-13.4c1-2,1.9-4.2,2.9-6.3c0.3-0.7,0.5-1.3,0.7-1.9l0,0c0-0.2,0.1-0.4,0.2-0.6C55.8,518.4,55.5,518.1,55.1,513.7
		z M39.9,542.6c-0.1,0-0.3-0.1-0.5-0.2c0,0,0,0,0,0h0.2c0.3,0,0.5,0.2,0.7,0.3C40.1,542.7,40,542.6,39.9,542.6z"/>
	<path class="st17" d="M39.4,542.4C39.4,542.4,39.4,542.4,39.4,542.4l0.2,0c0.3,0,0.5,0.2,0.7,0.3c-0.1,0-0.2-0.1-0.4-0.1
		C39.8,542.6,39.6,542.5,39.4,542.4z"/>
	<path class="st17" d="M42,544.7l0.2,0.2c0,0-0.1,0-0.1,0c-0.2-0.2-0.4-0.3-0.6-0.3c-0.1,0-0.1,0-0.2,0c-0.8-0.3-1.7-0.7-2.3-1.3
		c-0.1-0.1-0.2-0.1-0.3-0.2c0,0,0,0,0,0c-0.1-0.1-0.2-0.1-0.2-0.2c0,0,0,0,0,0s0,0,0,0c0,0-0.1,0-0.1-0.1c0,0-0.1-0.1-0.1-0.1l0,0
		c0,0-0.1-0.1-0.1-0.1l0,0c0,0,0.1,0,0.1,0c0.1,0.1,0.2,0.2,0.4,0.3h0.2c0,0,0,0.1-0.1,0.1c0.1,0,0.1,0.1,0.2,0.1
		c0.6,0.6,1.5,0.9,2.3,1.3c0.1,0,0.1,0,0.2,0C41.6,544.4,41.8,544.5,42,544.7z"/>
	<path class="st17" d="M54.3,523.1C54.3,523.1,54.3,523.1,54.3,523.1c-0.2,0.8-0.5,1.4-0.8,2c-0.8,2.1-1.8,4.2-2.9,6.3
		c-1.8,3.9-4.6,9.4-6.6,13.4c0,0,0,0,0,0v0c1.9-4,4.7-9.5,6.7-13.4c1-2,1.9-4.2,2.9-6.3C53.9,524.4,54,523.7,54.3,523.1L54.3,523.1z
		"/>
	<path class="st18" d="M147.3,575.8c0-0.6,0-1.2,0-1.7c0-1,0-1.8-0.1-2.6c0-0.5-0.1-1-0.1-1.4c-0.1-0.7-0.2-1.5-0.3-2.5
		c-0.1-0.9-0.3-1.9-0.5-2.8c0-0.1-0.1-0.3-0.1-0.4h2.2c1.2,0,2.4,0,3.7,0.1c1.8,5,3.2,10.3,4.1,15.6c-3.1-0.4-6-0.4-9.1-0.4
		c0-0.1,0-0.2,0-0.4c0-0.2,0-0.4,0-0.6c0-0.3,0-0.7,0-1c0-0.2,0-0.4,0-0.6C147.3,576.6,147.3,576.2,147.3,575.8z"/>
	<path class="st14" d="M147.2,579.7c-0.1,0-0.3,0-0.4,0"/>
	<path class="st14" d="M84.4,512.4c-0.2-0.2-0.5-0.4-0.6-0.6"/>
	<line class="st14" x1="93.7" y1="547.4" x2="93.7" y2="547.4"/>
	<path class="st18" d="M100.8,531c-1.5,0.3-3,0.4-4.4,0.3c-2.4,0-4.9-0.4-7.3-0.8c0.3-0.7,0.5-1.5,0.6-2.2c0.9-4.7-2-12.7-5.4-15.8
		c2.2-2.1,4.4-4.4,6.7-6.5c4.1,4.1,8.1,11.4,9,16.1C100.6,525,100.9,528.1,100.8,531z"/>
	<line class="st14" x1="93.7" y1="547.4" x2="93.7" y2="547.4"/>
	<path class="st17" d="M56.6,553.1c0,0.1,0.1,0.1,0.1,0.2C56.5,553.5,56.6,553,56.6,553.1z"/>
	<path class="st17" d="M120.4,567.3c0,1,0,1.9-0.1,2.9c-0.1,1-0.1,2.1-0.2,3.1c0,0.2,0,0.4-0.1,0.5c-0.1,0.6-0.2,1.6-0.4,2.7
		c-0.2,1.2-0.5,2.6-0.7,3.9c-0.2,0.7-0.3,1.5-0.4,2.1c0,0,0,0.1,0,0.1c0,0.2-0.1,0.3-0.1,0.5c-16.5,0.5-33,0.9-49.4,1.3
		c-10.1,0.3-21.4,2.3-30.6-1.7c-0.1,0,0.6-1.9,0.5-1.9l-0.7,1.9c0.1-0.6,0.2-1.3,0.3-2c0.4-1.8,1.1-4,1.9-6c0.8-2.1,1.7-4.1,2.4-5.6
		c0.2-0.4,0.4-0.7,0.5-1c0.3,0.7,1.3,1.5,1.9,1.8c2.4,1.6,3.2,1.6,5.6,1.6c3.8,0.1,5.6-0.1,7-3.6c1.5-3.5,1.6-6.1,0.5-9.8
		c-0.7-2.6-0.5-2.4-1.5-4.7c0.1-0.1,0.1-0.2,0.2-0.3c0.1-0.2,0.2-0.3,0.3-0.3c0.2,0,0.3,0,0.5,0c0.1,0,0.1,0,0.1,0
		c1.3,0.1,2.5,0,3.7-0.3h0c0.1,0,0.1,0,0.2,0c0.1,0,0.2,0,0.4-0.1c0.1,0,0.2-0.1,0.4-0.1c0.9-0.2,1.7-0.6,2.3-1.1
		c0.1-0.1,0.2-0.2,0.3-0.2c1.5-1,2.6-2.5,3.3-4.2c0,0,0,0,0,0c0,0,0.1-0.1,0.1-0.2c0,0,0,0,0-0.1c0,0,0-0.1,0.1-0.1
		c2.2-0.3,4.3-0.8,6.3-1.5c2-0.7,4-1.7,5.7-2.9c3.9-2.7,7-6.7,8.5-11.2c2.4,0.5,4.8,0.8,7.3,0.8c1.5,0,3-0.1,4.3-0.3
		c-0.1,1.8-0.3,3.5-0.6,5.3c-0.9,4.3-3.2,8.2-6.5,11.1c4.5-0.7,9-1.3,13.5-2c3.6-0.6,7.5-1,10.8,0.3c0.1,0.3,0.1,0.6,0.2,0.7
		c0,0,0,0.1,0,0.1l0.3,1.6l0.4,2l0.5,3c0.2,1.3,0.4,2.6,0.5,4c0.2,1.4,0.3,2.8,0.3,4.2c0.1,0.9,0.1,1.9,0.1,2.8
		C120.5,565.3,120.5,566.3,120.4,567.3z"/>
	<path class="st17" d="M62.5,552.1c-0.1,0.1-0.2,0.1-0.4,0.1c-0.1,0-0.2,0.1-0.4,0.1c-0.1,0-0.1,0-0.2,0h0c-1.2,0.3-2.4,0.4-3.7,0.3
		c0,0,0,0-0.1,0c-0.2,0-0.4,0-0.5,0c0.2-0.1,0.3,0,0.6,0c0,0,0,0,0.1,0c1.1-0.1,2.7-0.1,4.1-0.3c0,0,0.1,0,0.1,0c0,0,0,0,0.1,0
		C62.3,552.2,62.4,552.1,62.5,552.1z"/>
	<path class="st17" d="M68.4,546.6c-0.7,1.8-1.8,3.2-3.3,4.2C66.5,549.6,67.4,548.5,68.4,546.6z"/>
	<path class="st17" d="M68.5,546.4c0,0.1-0.1,0.1-0.1,0.2C68.4,546.5,68.5,546.5,68.5,546.4z"/>
	<path class="st17" d="M118.6,548.4l-0.3-1.6C118.4,547.3,118.5,547.8,118.6,548.4z"/>
	<path class="st14" d="M54.9,549.8"/>
	<path class="st19" d="M71.9,521.5c-0.2,0.9,0.5,1.8,0.9,2.5c0.5,0.7,0.7,1.9,0,2.5c-0.6,0.5-1.6,0-1.9-0.6
		c-0.4-0.7-0.2-1.6,0.1-2.2C71.3,523,71.6,522.2,71.9,521.5"/>
	<path class="st14" d="M44.1,544.8c-0.6-0.7-1.2-1.6-1-2.6"/>
	<path class="st17" d="M55.9,526.9c0,0.1-0.1,0.2-0.1,0.2c-0.4,0.9-0.9,1.7-1.5,2.3c0,0,0,0,0,0l0,0l0,0l0,0c0,0,0,0-0.1,0.1
		c-0.1,0.1-0.2,0.2-0.3,0.3c-0.1,0.1-0.1,0.2-0.1,0.2l0,0c-0.1,0.4,0.2,0.8,0.6,0.8c0.4,0,0.6,0.3,0.6,0.6c0,0.1,0,0.3-0.1,0.4
		c0,0,0,0,0,0c0,0.1-0.1,0.1-0.2,0.2c-1.5,0.8-2.8,1.8-4.1,3.1c-0.1,0.1-0.1,0.2-0.1,0.2c-0.1,0.2-0.1,0.4,0.1,0.6
		c1.2,1.5,1.3,3.4,1,5.4c0,0.1,0,0.2-0.1,0.3c-0.2,0.3-0.7,0.4-0.9,0c-0.2-0.2-0.3-0.4-0.5-0.5c-0.6-0.5-1.2-0.7-1.9-1
		c-0.3-0.2-0.7,0.1-0.8,0.4l0,0c0,0,0,0.1,0,0.1l-0.4,5c0,0.5-0.1,0.8-0.1,1.2c0,0.1,0,0.2-0.1,0.3c0,0,0,0,0,0v0
		c-0.2,0.3-0.7,0.4-1,0c-0.4-0.6-0.8-1.1-1.2-1.7c-0.2-0.2-0.3-0.3-0.4-0.5c0,0,0,0,0,0v0c1.9-4,4.7-9.5,6.7-13.4
		c1-2,1.9-4.2,2.9-6.3c0.3-0.7,0.5-1.3,0.7-1.9l0,0c0.3-0.2,0.5-0.5,0.7-0.6c0.3-0.3,0.8-0.2,1,0.3
		C56.4,524.1,56.4,525.5,55.9,526.9z"/>
	<path class="st18" d="M68.5,546.2c-1,2-2,3.2-3.5,4.6c-0.8,0.5-1.6,0.9-2.5,1.3c-0.1,0.1-0.2,0.1-0.4,0.1c-0.1,0-0.2,0.1-0.4,0.1
		c-0.1,0-0.1,0-0.2,0h0c-1.3,0.2-2.7,0.2-3.7,0.3c0,0,0,0-0.1,0c-0.2,0-0.4,0-0.5,0c-0.3,0-0.6-0.1-0.9-0.1
		c-0.9-0.1-1.7-0.5-2.5-0.8c0,0,0,0-0.1,0c0.2-0.1,0.4-0.2,0.5-0.3c0,0,0.1,0,0.1-0.1c0.7-0.4,1.3-1.2,0.8-1.9
		c-0.1-0.2-0.5-0.3-0.8-0.4c0,0-0.1,0-0.1,0c-0.2,0-0.4,0-0.6,0.1c-1,0.2-2.1,0.4-3.2,0.7c-0.1,0-0.1-0.1-0.2-0.1
		c-1-0.6-2-1.2-2.9-1.9c-0.3-0.2-0.5-0.5-0.8-0.6c0.1-0.1,0.1-0.1,0.1-0.2v0c0,0,0-0.1,0-0.1c0-0.4,0-0.8,0.1-1.2l0.4-5
		c0-0.1,0-0.2,0.1-0.3l0,0c0.1-0.2,0.4-0.3,0.7-0.3c0.7,0.3,1.3,0.6,1.9,1c0.2,0.2,0.4,0.4,0.5,0.6c0.4,0.3,0.9,0.2,1-0.2
		c0,0,0-0.1,0-0.1c0.2-1.9,0.1-4-1-5.4c-0.2-0.2-0.2-0.5,0-0.8c0,0,0,0,0.1-0.1c1.2-1.2,2.6-2.2,4.1-3.1c0.2-0.1,0.2-0.2,0.3-0.3
		c0,0,0,0,0,0c0.1-0.3-0.2-0.8-0.6-0.8s-0.6-0.3-0.6-0.6c0-0.1,0-0.2,0.1-0.3l0,0c0,0,0,0,0,0c0.2-0.2,0.3-0.3,0.4-0.5
		c0,0,0.1,0,0.1-0.1l0,0l0,0l0,0c0,0,0,0,0,0c0.6-0.7,1-1.5,1.3-2.3c0.1,0,0.1,0,0.2,0.1c1.8,0.7,4.1,1.9,5.7,3.2c0,0,0,0,0,0
		c0.5,0.4,0.9,0.8,1.2,1.2c0.1,0.2,0.3,0.3,0.4,0.5c-0.7-0.7-1.4-1.4-2.1-1.7c-0.6,1-1.5,1.9-2.1,2.9c0,0,0,0,0,0
		c-0.2,0.3-0.2,0.6-0.1,0.8c-0.2,0.2-0.5,0.5-0.8,0.7c0,0-0.1,0.1-0.1,0.1c-0.1-0.1-0.2-0.2-0.2-0.3c-0.1-0.1-0.3-0.2-0.4,0
		l-5.5,5.6c0,0.1-0.1,0.2-0.1,0.2c0,0,0,0.1,0,0.1c-0.2,0.5-0.1,0.9,0.2,1.2c0.3,0.4,0.8,0.7,1.5,1.1c1.8,1,4.4,1,5.8-0.8
		c0.2-0.2,0.3-0.4,0.4-0.7c0,0,0-0.1,0-0.1c0.8-1.9-0.4-4.2-1.2-5.6c0,0,0.1-0.1,0.1-0.1c0.3-0.3,0.6-0.6,0.9-0.8
		c0.2,0.1,0.3,0.2,0.5,0.3c0.9,0.7,2.6,1.2,3.6,0.7c0.5-0.3,0.8-0.6,0.9-0.9c0.2-0.5,0.1-1.1-0.3-1.7c0.1,0.1,0.2,0.2,0.3,0.3
		C67.5,537.4,70.2,541.6,68.5,546.2z"/>
	<path class="st14" d="M62.1,552.2C62.1,552.2,62.1,552.2,62.1,552.2c-0.2,0.1-0.3,0.1-0.4,0.2"/>
	<path class="st14" d="M68.6,546.2c0,0-0.1,0.1-0.1,0.1"/>
	<path class="st14" d="M64.2,533.1L64.2,533.1c-0.4-0.5-0.6-0.7-0.8-1.1l-0.1-0.1"/>
	<path class="st14" d="M65.1,545.5"/>
	<path class="st14" d="M65.7,531.7"/>
	<path class="st14" d="M52.2,545.2c-0.5-0.6-1.6-0.5-1.9,0.3c-0.4,0.6-0.2,1.6,0.3,2.2c0.4,0.5,0.8,0.8,1.4,1c0.6,0.2,1.2,0,1.7-0.4
		c0.1-0.1,0.2-0.2,0.3-0.2c0.3-0.1,0.5,0.5,0.6,1"/>
	<path class="st14" d="M51.9,541.8c-1.3,0.4-2.3,1.8-2.2,3.2"/>
	<path class="st14" d="M62.2,537c0.2,1.1-0.7,2.2-1.8,2.4"/>
	<path class="st14" d="M64.5,541.1c-0.5,0.5-0.5,1.4,0.1,1.8s1.5,0.1,1.7-0.6"/>
	<path class="st14" d="M38.4,580.5L38.4,580.5c0.1,0.1,0.3,0.1,0.4,0.2"/>
	<path class="st14" d="M40.2,542.7c-0.1,0-0.2-0.1-0.4-0.1c-0.1,0-0.3-0.1-0.5-0.2c0,0,0,0,0,0h0.2C39.9,542.4,40,542.6,40.2,542.7z
		"/>
	<path class="st18" d="M54.4,551.3c-0.3,0.2-0.4,0.3-0.5,0.3c0,0,0,0,0,0c-2.1,1.1-5.7,1.7-8.4,1.9c-0.7,1.4-1.3,2.9-1.9,4.3
		c-0.9,2.2-1.7,4.5-1.7,6.9c0,1.3-0.2,1.1,0.3,2.3c0.2,0.5,0.3,1.2,0.5,1.7c-1.6,3-3.5,8-4.3,11.6c-0.3-0.1-0.5-0.3-0.8-0.4
		c-1.1-0.6-2.2-1.2-3.1-2.1c-2.2-2.4-2.2-6-1.8-9.3c1-6.7,3.8-12.9,7.1-18.8c-1.3-2.1-2.3-4.3-2.3-6.8c0-0.2,0-0.4,0.1-0.5
		c0,0,0.1,0,0.3,0.1h0c0,0,0.1,0,0.1,0c0,0,0.1,0,0.1,0c0,0,0.1,0,0.1,0c0.1,0.1,0.2,0.2,0.4,0.3c0,0,0.1,0.1,0.1,0.1
		c0.1,0,0.1,0.1,0.2,0.1c0.6,0.6,1.5,0.9,2.3,1.3c0.1,0,0.1,0,0.2,0c0.2,0,0.4,0.1,0.6,0.3l0.2,0.2c0.9,1.1,1.7,2.1,2.7,3
		c0.6,0.7,1.3,1.5,2.1,1.9c0.4,0.2,0.6,0.3,1,0.3c0.7,0.1,1.4-0.2,2.1-0.4c0,0,0.1,0,0.2,0c0.1,0,0.2-0.1,0.2-0.1
		c1-0.3,2-0.6,3.2-0.7c0.2,0,0.4-0.1,0.6-0.1c0,0,0.1,0,0.1,0c0.3,0,0.7,0.1,0.8,0.4C55.8,550,55.1,550.9,54.4,551.3z"/>
	<path class="st14" d="M37.7,542.7c0.1-0.1,0.3-0.2,0.4-0.1l0,0c0.1,0,0.3,0.1,0.4,0.3c0.1,0.1,0.2,0.2,0.2,0.2l0,0
		c0.1,0.1,0.1,0.2,0.2,0.3"/>
	<path class="st14" d="M41.2,546.2c-0.7-0.9-1.5-1.9-2.1-2.9"/>
	<path class="st14" d="M38.5,542.9C38.5,542.9,38.5,542.9,38.5,542.9c0.1,0,0.1,0,0.2,0"/>
	<path class="st14" d="M38.8,542.9c0,0,0.1,0,0.1,0c0.7,0.1,1.7,0.2,1.8,0.3c0.6,0.6,1,1.1,1.5,1.7"/>
	<path class="st14" d="M39.4,545.2c-0.4-0.5-0.8-0.9-0.8-1.6c0-0.1,0.1-0.3,0.1-0.5c0,0,0,0,0-0.1c0,0,0-0.1,0-0.1"/>
	<path class="st14" d="M38.8,542.9c0.2-0.2,0.4-0.4,0.6-0.4c0,0,0,0,0.1,0"/>
	<g>
		<path class="st18" d="M84,503.6c-0.1,0.4-0.4,0.7-0.7,0.7c-0.2,0-0.4-0.2-0.6-0.3c-0.6-0.5-1.2-1-1.8-1.6c0.7,0.7,1.5,1.9,1.9,2.8
			c0.2,0.4,0.3,0.9,0.1,1.3c-0.2,0.4-0.6,0.5-1,0.4s-0.7-0.3-1-0.5c-0.1-0.1-0.2-0.1-0.2-0.2c-0.9-0.6-1.7-1.6-2.4-2.4
			c-0.5-0.6-0.9-1.1-1.3-1.7c-0.3-0.4-0.6-0.7-0.6-1.3v-0.1c-0.1-0.5,0.1-0.9,0.6-1.1c0.3-0.1,0.6-0.1,0.8,0
			c0.5,0.2,1.5,0.6,1.8,0.9c-0.1-0.1-0.2-0.3-0.3-0.4c-0.2-0.3-0.5-0.6-0.5-1c-0.1-0.4,0.1-0.8,0.5-1c0.3-0.2,0.6-0.1,1,0.1
			c0.1,0,0.2,0.1,0.3,0.1c0.4,0.1,0.6,0.3,0.9,0.5c0.4,0.2,0.6,0.5,0.9,0.7l0.2,0.2l0.6,0.7c0.7,0.9,0.8,1,0.9,1.5
			C84.1,502.5,84,503.2,84,503.6z"/>
		<path class="st18" d="M80.9,508.4c-0.2,0.4-0.6,0.3-1,0.1c-0.3-0.1-0.6-0.3-0.7-0.5c-0.6-0.4-1-0.9-1.5-1.5
			c-0.1-0.1-0.2-0.3-0.4-0.4c0-0.1-0.1-0.1-0.1-0.2c-0.2-0.2-0.4-0.5-0.6-0.6c-0.4-0.4-0.6-0.8-1-1.2c-0.5-0.6-1-1.2-1.2-1.9
			c-0.1-0.5-0.1-0.9,0.2-1.3c0.4-0.4,1-0.4,1.5-0.2c0,0,0.1,0,0.1,0.1v0.1c0.1,0.5,0.4,0.8,0.6,1.3c0.5,0.6,0.8,1.1,1.3,1.7
			c0.7,0.9,1.5,1.8,2.4,2.4c0.2,0.6,0.4,1.1,0.4,1.7C81,508.2,81,508.2,80.9,508.4z"/>
		<path class="st18" d="M79.1,508.1c-1.1-0.1-3.1,0-4-0.5c-0.2-0.1-0.4-0.2-0.5-0.3c-0.2-0.2-0.5-0.3-0.6-0.5
			c-0.5-0.5-0.7-1-0.8-1.7c0-0.2,0-0.4,0.1-0.5c0.1-0.1,0.4-0.1,0.6-0.1c0.8,0.1,1.8,0.5,2.6,0.9c0.3,0.2,0.6,0.3,0.8,0.5
			c0,0.1,0.1,0.1,0.1,0.2c0.1,0.1,0.2,0.3,0.4,0.4C78.1,507.1,78.6,507.7,79.1,508.1z"/>
	</g>
	<path d="M63.6,535.6c-1,0.6-2.7,0-3.6-0.6c-0.2-0.1-0.3-0.2-0.5-0.3c-0.3-0.2-0.6-0.5-0.6-0.7c-0.1-0.3-0.1-0.5,0.1-0.8
		c0.6-1,1.5-1.9,2.1-3c0.7,0.3,1.5,0.9,2.1,1.7l0.1,0.1c0.2,0.2,0.4,0.5,0.6,0.6c0.1,0.2,0.2,0.3,0.3,0.5
		C64.8,534,64.8,534.9,63.6,535.6z"/>
	<path d="M59.2,541.9c-1.4,1.9-3.9,1.9-5.8,0.8c-1.3-0.7-2.3-1.3-1.5-2.7l5.5-5.6c0.1-0.1,0.3-0.1,0.4,0c0.1,0.1,0.1,0.2,0.2,0.3
		c0.2,0.2,0.3,0.5,0.5,0.7C59.5,537.2,60.7,539.9,59.2,541.9z"/>
	<path class="st8" d="M58,534.8c-0.2,0.2-0.4,0.5-0.5,0.6"/>
	<path class="st8" d="M58.9,533.9c0.4-0.3,0.6-0.5,0.8-0.4"/>
	<path class="st8" d="M60.1,534.1c-0.2,0.2-0.4,0.4-0.6,0.6"/>
	<path class="st8" d="M58.5,535.6c-0.2,0.2-0.4,0.3-0.6,0.5"/>
</g>
<g>
	<path class="st20" d="M55,13.5c-0.6,0.2-1.1,0.5-1.7,0.8"/>
	<path class="st21" d="M174.7,28c0,0.2-0.1,0.3-0.1,0.5c-0.8,3.9-4,7.6-7,10.6c-6.4,6.4-13,13-21.5,16.4c-8.5,3.4-18,3.2-27.2,2.8
		c-24.1-1-48.1-2.9-72.1-5.7c-3.4-0.4-6.9-0.8-10.1-2.2c-2.8-1.2-5.3-3.1-6.7-5.7c-0.2-0.4-0.4-0.8-0.5-1.1
		c-0.4-1.1-0.6-2.3-0.6-3.4v-0.1c0-4.2,2.6-8.4,5.4-11.7c5.1-6,11.6-10.8,18.8-14.1c8.3-2.2,17.2-2.3,25.9-2.2
		c26.8,0.3,53.6,1.1,80.3,3.9c5.9,0.6,13,2.2,15,7.6C174.9,25.1,175,26.5,174.7,28z"/>
	<path class="st21" d="M178.8,115.7c-3.2-23-0.8-49.1-4-72.2c-0.9,2.6-3.1,3.6-5.3,4.9c3,7.2,3.3,15.6,0.7,23
		c-0.6,1.7-1.4,3.3-2.6,4.7c-1.1,1.2-2.7,2.1-4.4,2.2c-5.4,11.7-12,22.8-19.9,33c-2.9,3.7-6,7.4-10.3,9.3c-4.1,1.8-8.8,1.8-13.2,1.6
		c-27.4-0.7-54.8-1.4-82.2-3.4c0.3,8.9,0.4,17.7,0.2,26.3c-0.1,6.1,0.2,13.2,5,17c3.2,2.4,7.4,2.7,11.4,2.8
		c5.4,0.2,10.9,0.4,16.3,0.6c0-0.1,0.1-0.2,0.1-0.3c0.5-1.5,1.3-2.8,1.6-4.4l0.2,0.2c-0.3,1.6,0.7,3.1,1.6,4.6
		c17.6,0.7,35.1,1.4,52.7,2.1c6.8,0.3,13.8,0.5,20.3-1.7c6.4-2.2,11.9-6.6,17.1-10.9c5.1-4.2,10.4-8.6,13.2-14.6
		C181.1,132.9,180,124,178.8,115.7z M84.4,134.6c-0.7,0.3-0.9,0.3-1.6,0.2c-0.8-0.1-1.6,0.5-1.7,1.3c-0.3,2.6-0.2,2.8,2.3,3
		c0.1,2.7,0.3,5.4,0.4,8.2c0,0,0,0-0.1,0c-0.3-0.1-0.7-0.1-1.3-0.2c-0.6-0.1-1.3-0.1-1.9,0c-1.6,0.2-2.6,1.1-3,2.7
		c-0.1,0.7-0.2,1.4-0.3,2.1c-0.1,1.5-0.2,3-0.4,4.5c0,0.3-0.1,0.5-0.1,0.7c-0.2,0.8-0.7,0.9-1.8,0.8c-1.5-0.1-3-0.4-4.5-0.2
		c-1,0.1-1.6-0.5-1.8-1.4c-0.1-0.4-0.1-0.9-0.1-1.3c-0.1-3.4,0.6-6.8,1.5-10c0.6-2.2,2-3.9,4.2-4.8c0.1,0,0.3-0.1,0.5-0.2
		c1.5-0.4,2.2-1.3,2.2-2.8c0-0.4,0.1-0.8,0.2-1.2c0.2-1.6,0.1-1.7-1.5-1.8c-0.5,0-0.9-0.1-1.3-0.2c-0.3-0.1-0.6-0.1-1-0.2
		c-0.9-0.3-1.3-1-1.4-1.9c-0.1-1.6,0.8-2.8,2.4-2.9c0.1,0,0.2,0,0.2,0c1.2-0.1,2.5-0.3,3.7-0.4c0.6-0.1,1.3-0.1,1.9,0
		c1.4,0.1,2.4,0.2,3.9,0.6c1.3,0.4,1.9,1.3,2,2.6C86.3,133,85.6,134,84.4,134.6z"/>
	<path class="st22" d="M74.2,165.6c-1.2-0.1-2.3-0.1-3.5-0.1c0-0.1,0.1-0.2,0.1-0.3c0.5-1.5,1.3-2.8,1.6-4.4l0.2,0.2
		C72.3,162.7,73.3,164.2,74.2,165.6z"/>
	<path class="st22" d="M84.4,134.6c-0.7,0.3-0.9,0.3-1.6,0.2c-0.8-0.1-1.6,0.5-1.7,1.3c-0.3,2.6-0.2,2.8,2.3,3
		c0.1,2.7,0.3,5.4,0.4,8.2c0,0,0,0-0.1,0c-0.3-0.1-0.7-0.1-1.3-0.2c-0.6-0.1-1.3-0.1-1.9,0c-1.6,0.2-2.6,1.1-3,2.7
		c-0.1,0.7-0.2,1.4-0.3,2.1c-0.1,1.5-0.2,3-0.4,4.5c0,0.3-0.1,0.5-0.1,0.7c-0.2,0.8-0.7,0.9-1.8,0.8c-1.5-0.1-3-0.4-4.5-0.2
		c-1,0.1-1.6-0.5-1.8-1.4c-0.1-0.4-0.1-0.9-0.1-1.3c-0.1-3.4,0.6-6.8,1.5-10c0.6-2.2,2-3.9,4.2-4.8c0.1,0,0.3-0.1,0.5-0.2
		c1.5-0.4,2.2-1.3,2.2-2.8c0-0.4,0.1-0.8,0.2-1.2c0.2-1.6,0.1-1.7-1.5-1.8c-0.5,0-0.9-0.1-1.3-0.2c-0.3-0.1-0.6-0.1-1-0.2
		c-0.9-0.3-1.3-1-1.4-1.9c-0.1-1.6,0.8-2.8,2.4-2.9c0.1,0,0.2,0,0.2,0c1.2-0.1,2.5-0.3,3.7-0.4c0.6-0.1,1.3-0.1,1.9,0
		c1.4,0.1,2.4,0.2,3.9,0.6c1.3,0.4,1.9,1.3,2,2.6C86.3,133,85.6,134,84.4,134.6z"/>
	<path class="st21" d="M158,75c-6.3,10.1-12.5,20.2-18.8,30.3c-2.1,3.4-4.3,6.9-7.9,8.6c-3,1.5-6.4,1.5-9.8,1.5
		c-27.4-0.2-54.8-1.4-82-3.8c-0.7-0.1-1.3-0.1-2-0.2c-0.3-7.3-0.8-14.7-1.4-22c-0.2-2.5-0.4-4.9-0.6-7.3v0c0-0.3,0-0.6-0.1-0.9
		c-0.2-1.6-0.3-3.3-0.5-4.9c-0.1-1-0.2-2-0.3-2.9c-0.2-2.3-0.5-4.6-0.8-6.9c-0.2-1.7-0.4-3.3-0.6-4.9c1.7,0.6,4.1,0.1,6,0.1
		c3,0,5.9,0.4,8.8,0.7c6.5,0.5,13,1.1,19.4,1.6c2.8,0.2,5.7,0.5,8.5,0.7c21.1,1.8,42.3,3.5,63.5,2.1c3.2-0.2,6.4-0.5,9.2-1.9
		c1.6-0.8,3-1.8,4.4-2.8c0.9,2.7,1.8,5.5,2.8,8.2C156.4,71.8,157,73.5,158,75z"/>
	<path class="st20" d="M35.5,82c0,0.1-0.1,0.2-0.1,0.3"/>
	<path class="st20" d="M35.7,81.1c-0.1,0.3-0.2,0.6-0.3,0.9"/>
	<path class="st23" d="M163.3,78.2c-5.4,11.7-12,22.8-19.9,33c-2.9,3.7-6,7.4-10.3,9.3c-4.1,1.8-8.8,1.8-13.2,1.6
		c-27.4-0.7-54.8-1.4-82.2-3.4c0,0,0,0,0,0c-1.4-0.1-2.9-0.2-4.3-0.3c-4.8-0.4-10.5-1.4-12.6-5.8c-1.6-3.2-0.5-7.1,0.7-10.5
		c3.6-9.9,9.1-19,13.1-28.7c0.1,1,0.2,1.9,0.3,2.9c0.2,1.6,0.3,3.3,0.5,4.9c-0.6,1.7-1.1,3.4-1.7,4.8c-1.8,4.2-2.3,9.1-3.7,13.5
		c-0.7,2.4-1.5,4.9-0.6,7.2c1.2,3,4.6,4.2,8,4.7c0,0,0,0,0,0c0.7,0.1,1.4,0.2,2,0.2c27.3,2.4,54.7,3.7,82,3.8c3.3,0,6.8,0,9.8-1.5
		c3.5-1.8,5.8-5.3,7.9-8.6c6.3-10.1,12.5-20.2,18.8-30.3c0,0.1,0.1,0.2,0.2,0.2c1.1,1.6,2.8,2.8,4.8,2.9
		C163.1,78.2,163.2,78.2,163.3,78.2z"/>
	<path class="st23" d="M170.2,71.4c-0.6,1.7-1.4,3.3-2.6,4.7c-1.1,1.2-2.7,2.1-4.4,2.2c-0.1,0-0.2,0-0.4,0c-1.9-0.1-3.6-1.3-4.8-2.9
		c-0.1-0.1-0.1-0.2-0.2-0.2c-1-1.5-1.6-3.3-2.2-5c-0.9-2.7-1.8-5.5-2.8-8.2c3.4-2.6,6.3-5.8,10-8.3c1.1-0.8,3.6-3.1,4.4-3.8
		c0.7-0.5,1.5-1,2.2-1.4C172.6,55.6,172.9,64,170.2,71.4z"/>
	<path class="st21" d="M174.8,43.5c-0.9,2.6-3.1,3.6-5.3,4.9c-0.8,0.4-1.5,0.9-2.2,1.4c-0.8,0.6-3.2,3-4.4,3.8
		c-3.6,2.4-6.6,5.6-10,8.3c-1.4,1.1-2.8,2-4.4,2.8c-2.8,1.4-6.1,1.7-9.2,1.9C118.3,68,97.1,66.3,76,64.5c-2.8-0.2-5.7-0.5-8.5-0.7
		c-6.5-0.5-13-1.1-19.4-1.6c-3-0.2-5.9-0.6-8.8-0.7c-1.9,0-4.3,0.5-6-0.1c-0.5-0.2-1-0.5-1.4-1C27.6,55.7,29,48.7,29,40.2
		c0,1.1,0.2,2.3,0.6,3.4c0.1,0.4,0.3,0.8,0.5,1.1c1.4,2.6,4,4.5,6.7,5.7c3.2,1.3,6.6,1.8,10.1,2.2c23.9,2.8,48,4.7,72.1,5.7
		c9.2,0.4,18.7,0.6,27.2-2.8c8.5-3.4,15.1-10,21.5-16.4c3-3,6.1-6.7,7-10.6c0-0.2,0.1-0.3,0.1-0.5C175.8,32.5,176.2,39.9,174.8,43.5
		z"/>
	<path class="st20" d="M35.2,76.2c-0.1,0-0.2,0-0.3,0"/>
</g>
<path class="st24" d="M86.2,131.9c-0.1-1.3-0.8-2.2-2-2.6c-1.4-0.4-2.5-0.6-3.9-0.6c-0.6,0-1.3,0-1.9,0c-1.2,0.1-2.5,0.2-3.7,0.4
	c-0.1,0-0.2,0-0.2,0c-1.6,0.2-2.5,1.3-2.4,2.9c0.1,0.9,0.5,1.6,1.4,1.9c0.3,0.1,0.6,0.2,1,0.2c0.4,0.1,0.9,0.1,1.3,0.2
	c1.5,0.1,1.6,0.2,1.5,1.8c0,0.4-0.2,0.8-0.2,1.2c0,1.5-0.7,2.3-2.2,2.8c-0.2,0.1-0.3,0.1-0.5,0.2c-2.2,0.8-3.5,2.6-4.2,4.8
	c-0.9,3.2-1.7,6.5-1.5,10c0,0.4,0,0.9,0.1,1.3c0.2,0.9,0.8,1.5,1.8,1.4c1.5-0.2,3,0.1,4.5,0.2c1.1,0.1,1.6-0.1,1.8-0.8
	c0-0.2,0.1-0.4,0.1-0.7c0.2-1.5,0.2-3,0.4-4.5c0.1-0.7,0.2-1.4,0.3-2.1c0.4-1.6,1.4-2.4,3-2.7c0.6-0.1,1.3-0.1,1.9,0
	c0.5,0,0.9,0.1,1.3,0.2c0,0,0,0,0.1,0c-0.2-2.7-0.3-5.4-0.4-8.2c-2.5-0.2-2.7-0.4-2.3-3c0.1-0.8,0.9-1.4,1.7-1.3
	c0.7,0.1,0.9,0.1,1.6-0.2C85.6,134,86.3,133,86.2,131.9z"/>
<path class="st25" d="M74.5,171.2c-1.3,0.9-3.2,0-3.8-1.4c-0.6-1.3-0.4-2.9,0.1-4.3c0-0.1,0.1-0.2,0.1-0.3c0.5-1.5,1.3-2.8,1.6-4.4
	l0.2,0.2c-0.3,1.6,0.7,3.1,1.6,4.6c0.1,0.2,0.2,0.3,0.3,0.5C75.5,167.7,76,170.1,74.5,171.2z"/>
<path class="st25" d="M79.7,185c-0.4,1.2-2.1,1.4-3.1,1.6c-5.7,1.4-11.5,1.5-18.3,1.3c-1.8,0-4.5,0.1-7.3,0c-3.9-0.2-7-1.6-8.1-5.7
	c-0.5-1.9-1.9-2.3-3.6-2.3c-2,0-4,0-6-0.5c-0.9-0.2-1.7-0.5-2.3-1.2c-1.2-1.4-0.9-3.1,0.8-3.8c1.7-0.7,3.4-1,5.2-1
	c2.8,0.1,5.5,0,8.3-0.3c3-0.3,5.8,0.7,7.3,3.7c1.1,2.1,2.7,2.8,4.9,2.8c3,0,6,0.1,9,0.1c3.1,0,6.3,1.2,9.1,2.5c0.9,0.4,2,0.6,2.9,1
	C79.3,183.4,80,184.1,79.7,185z"/>
</svg>
