<?xml version="1.0" encoding="utf-8"?>
<!-- Generator: Adobe Illustrator 23.0.3, SVG Export Plug-In . SVG Version: 6.00 Build 0)  -->
<svg version="1.1" id="Calque_1" xmlns="http://www.w3.org/2000/svg" xmlns:xlink="http://www.w3.org/1999/xlink" x="0px" y="0px"
	 viewBox="0 0 200 200" style="enable-background:new 0 0 200 200;" xml:space="preserve">
<style type="text/css">
	.st0{fill:none;stroke:#000000;stroke-linecap:round;stroke-linejoin:round;stroke-miterlimit:10;}
	.st1{stroke:#000000;stroke-linecap:round;stroke-linejoin:round;stroke-miterlimit:10;}
	.st2{fill:#F6F6F6;stroke:#000000;stroke-linecap:round;stroke-linejoin:round;stroke-miterlimit:10;}
	.st3{fill:#FFC1C2;stroke:#000000;stroke-linecap:round;stroke-linejoin:round;stroke-miterlimit:10;}
	.st4{fill:none;stroke:#000000;stroke-miterlimit:10;}
</style>
<path class="st0" d="M173,159c-1-0.6-1.4-0.8-2-1.7"/>
<path class="st1" d="M136.4,131.3c-0.1,1.5-0.3,2.8-0.4,3.9c-2.3,0-6.1,0-8.3-0.1c-7.2-0.4-15-0.6-22.2-0.7c-0.1,0-0.3,0-0.4,0
	c0.9-9.2,0.7-28.8-1.2-37.8c0.5-0.3,1-0.6,1.4-0.9c4.8-3.3,4.8-4.5,11.3-8.1c1.9-1.1,2.7-1.7,3.7-2.4c0.3,0.6,0.6,1.3,1,2.1
	c2.4,4.9,5.3,11.5,6.3,16.6c0.1,0.4,0.1,0.7,0.2,1.1c-2.6,1.1-7,5-9.4,6.4c-2.7,1.6-1.1,1.1-3.5,2.1c5.5,1.5,13-0.4,20.1-0.6
	c0.2,0.6,0.4,1.3,0.6,2.1c0.5,2,0.8,4.6,1,6.1C136.7,123.3,136.7,127.7,136.4,131.3z"/>
<path class="st2" d="M168.3,148.6c-4.2,3.5-8.1,7.4-10.8,11.9c-2.1-0.9-4-2.1-5.6-3.7c-4.3-4.6-4.3-11.6-4.8-17.8
	c-0.2-2.5-0.5-5-0.9-7.4c-0.9-5.7-2.4-11.3-4.4-16.8c-0.5-1.4-1-2.7-1.6-4.1c-1-2.4-2.2-4.8-4.4-6.3c-2.4-1.6-5.5-1.6-8.3-0.8
	c-1-5.1-3.9-11.7-6.3-16.6c2.6-1.9,5.3-3.5,8.3-4.6c4.1-1.4,8.9-1.6,12.8,0.3c4.2,2.1,6.8,6.3,8.7,10.6c2.9,7,4.1,14.6,5.1,22.1
	c0.2,1.7,0.5,3.5,0.7,5.2c0.6,4,1.3,8,2.5,12c0.5,1.7,1,3.4,1.7,5.1c0.9,2.4,2,5.2,3.6,7.2c0.1,0.2,0.3,0.3,0.4,0.5l0,0
	C166,146.6,167.1,147.6,168.3,148.6z"/>
<path class="st0" d="M121.2,87.1L121.2,87.1"/>
<path class="st0" d="M180.9,106.7L180.9,106.7c0,0.4,0,1.1,0,2.1"/>
<path class="st1" d="M170.6,150.6c-3.7,3.2-6.8,7.2-9.1,11.6c-1.4-0.5-2.8-1-4.1-1.6c2.8-4.6,6.7-8.5,10.8-11.9
	C169.1,149.3,169.9,149.9,170.6,150.6z"/>
<path class="st2" d="M174.9,159.5c-0.4,0.1-0.8,0-1.2-0.2c-0.2-0.1-0.5-0.2-0.7-0.3v0.1c0.2,0.7-0.2,1.7-1,1.7
	c-0.3,0-0.5-0.2-0.8-0.3l-0.1-0.1v0.1c0.1,0.5,0,1.1-0.4,1.4c-0.2,0.2-0.5,0.2-0.7,0.3c-0.6,0.1-1.1-0.1-1.7-0.4
	c0.2,0.3,0.4,0.5,0.5,0.9c0.3,0.7,0.1,1.7-0.5,2.1c-0.2,0.1-0.3,0.2-0.5,0.2c-1.2-0.3-2.3-0.8-3.3-1.5c-0.1,0-0.1-0.1-0.2-0.1
	c0,0,0,0-0.1,0c0,0,0,0-0.1-0.1l0,0l0,0l0,0c-0.8-0.3-1.7-0.6-2.5-0.9c2.2-4.4,5.3-8.4,9.1-11.6c0.5,0.4,1,0.8,1.4,1.2
	c1.5,1.4,3.1,2.9,3.8,4.9C176.2,157.8,176,159.3,174.9,159.5z"/>
<path class="st0" d="M126.3,104.2c0.2-0.1,0.4-0.2,0.7-0.3c0.2-0.1,0.4-0.1,0.6-0.2"/>
<path class="st0" d="M135.4,114.8c-0.2,0-0.4,0-0.6,0"/>
<path class="st1" d="M188.9,118.6c-0.1,2-0.2,3.9-0.5,5.9c-3-3.8-7.1-6.8-11.6-8.6c0.6-1,0.8-2.3,0.6-3.5
	C181.5,114,185.4,116.1,188.9,118.6z"/>
<path class="st2" d="M188.9,118.6c-3.5-2.5-7.4-4.6-11.5-6.2c0-0.2,0-0.3-0.1-0.4c-0.4-2.2-1.4-4.3-1.2-6.5v-0.1
	c0.1-0.2,0.1-0.4,0.1-0.7c0.1-0.4,0.3-0.8,0.7-1.1c1.2-1,3,0.3,3.6,1.8c0.2,0.4,0.3,0.8,0.3,1.3l0,0c0.1,0.2,0.1,0,0.1-0.2
	c0.4-0.6,1.2-0.9,1.9-0.7c0.9,0.3,1.2,1.4,1.3,2.3c0.2-0.1,0.5-0.2,0.8-0.2c0.8,0,1.6,0.6,1.9,1.4c0.3,0.7,0.3,1.5,0.3,2.3
	c0.3-0.1,0.7,0,1,0.2c0.5,0.5,0.6,1.2,0.7,1.9C188.9,115.4,189,117,188.9,118.6z"/>
<path class="st0" d="M176.3,104.7c-0.1,0.2-0.1,0.4-0.1,0.7"/>
<path class="st2" d="M188.4,124.5c-0.1,0.9-0.3,1.8-0.5,2.7s-0.4,1.9-1,2.6c-0.6,1-1.7,1.6-2.7,2s-1.9,0.7-2.9,0.8
	c-2.2,0.4-4.6,0.4-6.8,0.3c-5.1-0.1-10.1-0.2-15.2-0.3c-1.1-3.9-1.8-7.9-2.5-12c-0.3-1.7-0.5-3.4-0.7-5.2c5.5,0.4,11,1.1,16.5,1.9
	c0.8,0.1,1.7,0.2,2.5,0s1.4-0.8,1.8-1.5C181.3,117.7,185.4,120.7,188.4,124.5z"/>
<path class="st0" d="M184.2,108.2L184.2,108.2c0.1,1.6,0.2,1.5,0,3"/>
<path class="st0" d="M187.1,113c-0.1-0.8,0-0.3,0.1-1.1c0-0.1,0-0.1,0-0.2"/>
<path class="st1" d="M190.5,122.9c-0.1,0.7-0.2,1.4-0.3,2.1c-0.5,3.7-1.5,7.5-5.9,8c-1,0.1-2.1,0-3.1-0.4c1-0.2,2-0.4,2.9-0.8
	c1.1-0.4,2.1-1.1,2.7-2c0.5-0.8,0.8-1.7,1-2.6s0.4-1.8,0.5-2.7c0.3-2,0.5-3.9,0.5-5.9c0-1.6,0-3.2-0.1-4.8c-0.1-0.7-0.2-1.4-0.7-1.9
	c-0.3-0.2-0.6-0.3-1-0.2c0-0.8,0-1.6-0.3-2.3c-0.3-0.8-1.1-1.4-1.9-1.4c-0.3,0-0.6,0.1-0.8,0.2c-0.1-1-0.4-2.1-1.3-2.3
	c-0.7-0.2-1.4,0.2-1.9,0.7c0-0.3,0-0.6-0.1,0.1l0,0c-0.1-0.4-0.2-0.9-0.3-1.3c-0.5-1.4-2.4-2.7-3.6-1.8c-0.3,0.3-0.5,0.7-0.7,1.1
	c0-0.9-0.4-1.8-0.1-2.6c0.5-1,1.9-1.1,3.1-0.8c1.6,0.4,3.2,1,4.6,2c0.7,0.5,1.6,0.8,2.2,1.5c0.6,0.6,1.1,1.4,1.5,2.1
	c0.9,1.6,1.5,3.3,2,5.1C190.6,115.8,191,119.1,190.5,122.9z"/>
<path class="st0" d="M181,106.6C181,106.6,180.9,106.6,181,106.6C180.9,106.6,180.9,106.7,181,106.6
	C180.9,105.9,181,106.3,181,106.6z"/>
<path class="st0" d="M176.2,105.4c0,0.1,0,0.1-0.1,0.2"/>
<path class="st0" d="M171.1,160.4c-0.9-0.6-1.3-0.8-2-1.6"/>
<path class="st0" d="M164.4,163.4c0.6,0.4,1,0.9,1.6,1.2c0.5,0.3,1.1,0.5,1.7,0.3"/>
<path class="st0" d="M164.2,163.2C164.1,163.2,164.1,163.2,164.2,163.2"/>
<path class="st0" d="M168.3,161.7c-0.3-0.4-0.6-0.7-0.9-1"/>
<path class="st1" d="M178.1,158.8c-0.2,0.7-0.6,1.2-1,1.8c-2.1,2.7-5.4,4.9-8.8,4.4c-0.2,0-0.4-0.1-0.6-0.1c0.2,0,0.4-0.1,0.5-0.2
	c0.6-0.5,0.8-1.4,0.5-2.1c-0.1-0.3-0.3-0.6-0.5-0.9c0.5,0.3,1.1,0.4,1.7,0.4c0.3,0,0.5-0.1,0.7-0.3c0.4-0.3,0.5-0.9,0.4-1.4v-0.1
	l0.1,0.1c0.2,0.1,0.5,0.3,0.8,0.3c0.8,0,1.2-0.9,1-1.7v-0.1c0.2,0.1,0.5,0.2,0.7,0.3c0.4,0.2,0.8,0.3,1.2,0.2
	c1.1-0.2,1.2-1.7,0.9-2.8c-0.6-2-2.2-3.5-3.8-4.9c-0.4-0.4-0.9-0.8-1.4-1.2c-0.8-0.6-1.6-1.3-2.3-2c-1.2-1-2.3-2-3.3-3.1
	c1.5,0.7,2.9,1.5,4.2,2.4c0.9,0.6,1.7,1.2,2.5,1.8c1.7,1.3,3.2,2.8,4.6,4.4C177.5,155.4,178.6,157.1,178.1,158.8z"/>
<path class="st1" d="M36.4,69.6c-0.1,0.2-0.2,0.5-0.2,0.7c-0.2,0.7-0.5,1.4-0.8,2.1c-0.9,2.3-2,4.5-3.1,6.8c-2,4.2-5,10.2-7.2,14.5
	C25,93.8,25,94,24.9,94.1c-0.6-0.1-1.3-0.2-1.9-0.4l0,0c-0.2-0.2-0.4-0.3-0.6-0.3c-0.1,0-0.1,0-0.2,0c-0.9-0.3-1.8-0.8-2.5-1.4l0,0
	c-0.1-0.1-0.2-0.1-0.3-0.2c-0.1-0.1-0.3-0.2-0.4-0.3l0,0c-0.1-0.1-0.2-0.2-0.2-0.2l0,0c-0.5-0.5-0.9-1.1-1.2-1.8
	c-0.6-1.4-0.7-3-0.7-4.6c0-2.6,1.1-7.3,2.4-9.5c1.3-2.3,3.7-3.8,6.2-4.7c1.9-0.7,3.9-1,5.9-1c0.8-3.7,0.9-2.8,2.2-6.4
	c0.4-1.3,0.9-2.5,1.5-3.7c0.1-0.2,0.3-0.5,0.6-0.6c0.6-0.3,1.2,0.4,1.3,1.1C37.5,64.8,37.8,65.2,36.4,69.6z"/>
<path class="st2" d="M136.4,131.3c0.3-3.6,0.3-8,0-10.4c-0.2-1.5-0.5-4.1-1-6.1c0.8,0,1.6,0,2.4,0c1.3,0,2.6,0,4,0.1
	c2,5.4,3.5,11.1,4.4,16.8C142.9,131.3,139.7,131.3,136.4,131.3z"/>
<path class="st0" d="M136.4,131.3c-0.1,0-0.3,0-0.4,0"/>
<path class="st0" d="M68.7,58.7c-0.2-0.2-0.5-0.4-0.7-0.6"/>
<line class="st0" x1="78.7" y1="96.5" x2="78.7" y2="96.5"/>
<path class="st2" d="M86.4,78.8c-1.6,0.3-3.2,0.4-4.7,0.3c-2.6,0-5.3-0.4-7.9-0.9c0.3-0.8,0.5-1.6,0.7-2.4c1-5.1-2.2-13.7-5.8-17.1
	c2.4-2.3,4.8-4.7,7.2-7c4.4,4.4,8.7,12.3,9.7,17.4C86.2,72.3,86.5,75.6,86.4,78.8z"/>
<path class="st0" d="M75.8,51.7c-0.6-0.6-1.2-1.1-1.8-1.6"/>
<line class="st0" x1="78.7" y1="96.5" x2="78.7" y2="96.5"/>
<path class="st1" d="M38.7,102.6c0,0.1,0.1,0.1,0.1,0.2C38.6,103,38.7,102.5,38.7,102.6z"/>
<path class="st1" d="M107.1,125c-0.2,1.9-1.1,6.3-1.7,9.3c0,0.2-0.1,0.4-0.1,0.6l0,0c-17.8,0.5-35.6,1-53.3,1.4
	c-10.9,0.3-23.1,2.5-33-1.8c-0.1,0,0.6-2.1,0.5-2.1l-0.8,2c0.1-0.6,0.2-1.4,0.3-2.2l0,0c0.8-3.9,3-9.3,4.6-12.5
	c0.2-0.4,0.4-0.7,0.6-1.1c0.3,0.8,1.4,1.6,2,2c2.6,1.7,3.5,1.7,6.1,1.7c4.1,0.1,6-0.1,7.6-3.9s1.7-6.6,0.5-10.6
	c-0.8-2.8-0.5-2.6-1.6-5.1c0.1-0.1,0.1-0.2,0.2-0.3c0.3-0.5,0.5-0.4,1-0.4c0,0,0,0,0.1,0l0,0c1.2-0.1,3-0.1,4.6-0.4l0,0
	c0,0,0,0,0.1,0c1-0.2,2-0.6,2.7-1.2l0,0c0.1-0.1,0.2-0.2,0.3-0.2c1.6-1.5,2.6-2.7,3.8-5l0,0c4.7-0.6,9.2-2.2,13-4.8
	c4.2-2.9,7.6-7.2,9.2-12.1c2.6,0.5,5.2,0.9,7.9,0.9c1.6,0,3.2-0.1,4.7-0.3c-0.1,1.9-0.3,3.8-0.7,5.7c-1,4.6-3.4,8.9-7,12
	c4.9-0.7,9.7-1.4,14.6-2.1c3.9-0.6,8.1-1.1,11.7,0.3l0,0c0.1,0.3,0.1,0.6,0.2,0.8c0.2,0.6,0.3,1.3,0.4,1.9
	C107.5,106.5,108.1,115.8,107.1,125z"/>
<path class="st0" d="M36.8,99"/>
<path class="st0" d="M55.2,68.5c-0.2,1,0.5,1.9,1,2.7c0.5,0.8,0.8,2.1,0,2.7c-0.7,0.5-1.7,0-2.1-0.7c-0.4-0.8-0.2-1.7,0.1-2.4
	s0.7-1.5,0.9-2.4"/>
<path class="st0" d="M25.2,93.7c-0.7-0.8-1.3-1.7-1.1-2.8"/>
<path class="st2" d="M35.7,77.5c-0.4,0.4-0.1,1.1,0.5,1.1l0,0c0.7,0,0.9,0.9,0.3,1.2c-1.6,0.9-3,2-4.4,3.3c-0.2,0.2-0.3,0.6-0.1,0.9
	c1.3,1.6,1.4,3.7,1.1,5.8c-0.1,0.6-0.8,0.8-1.1,0.3c-0.2-0.2-0.3-0.4-0.5-0.6c-0.6-0.5-1.3-0.8-2-1.1c-0.4-0.2-0.8,0.1-0.9,0.6
	l-0.4,5.4c0,0.5-0.1,0.9-0.1,1.3c0,0.1,0,0.2-0.1,0.3c-0.2,0.4-0.8,0.5-1.1,0c-0.4-0.6-0.9-1.2-1.3-1.8c-0.2-0.2-0.3-0.4-0.5-0.6
	c2.1-4.3,5.1-10.3,7.2-14.5c1.1-2.2,2.1-4.5,3.1-6.8c0.3-0.7,0.5-1.4,0.8-2.1c0.3-0.2,0.5-0.5,0.8-0.7c0.3-0.3,0.9-0.2,1.1,0.3
	c0.4,1.5,0.3,3-0.2,4.5C37.4,75.6,36.7,76.7,35.7,77.5z"/>
<path class="st2" d="M51.5,95.2L51.5,95.2c-1.1,2.2-2.1,3.5-3.8,5c-0.9,0.6-1.9,1.1-3.1,1.5c-1.6,0.3-3.4,0.3-4.6,0.4l0,0
	c0,0,0,0-0.1,0c-0.5,0-1-0.1-1.5-0.2c-1-0.1-1.9-0.5-2.8-0.9c0.2-0.1,0.4-0.2,0.5-0.3c0,0,0.1,0,0.1-0.1c0.7-0.4,1.4-1.3,0.9-2
	c-0.2-0.3-0.6-0.4-1-0.4c-0.2,0-0.4,0-0.6,0.1c-1.1,0.2-2.3,0.4-3.4,0.8c-1.2-0.7-2.3-1.4-3.3-2.2c-0.3-0.2-0.6-0.5-0.9-0.7
	C28,96.1,28,96,28,95.9c0-0.4,0-0.9,0.1-1.3l0.4-5.4c0-0.4,0.5-0.7,0.9-0.6c0.7,0.3,1.4,0.6,2,1.1c0.2,0.2,0.4,0.4,0.5,0.6
	c0.4,0.4,1.1,0.2,1.1-0.3c0.2-2.1,0.1-4.3-1.1-5.8c-0.2-0.2-0.2-0.6,0.1-0.9c1.3-1.3,2.8-2.4,4.4-3.3c0.6-0.3,0.3-1.2-0.3-1.2l0,0
	c-0.6,0-0.9-0.7-0.5-1.1c0.9-0.9,1.6-2,2-3.2c2.6,0.9,6.1,2.9,7.7,4.8c0.1,0.2,0.3,0.3,0.4,0.5C45,79,44.2,78.3,43.4,78
	c-0.7,1.1-1.7,2.1-2.3,3.2c-0.2,0.3-0.2,0.6-0.1,0.9c-0.3,0.3-0.7,0.6-1,0.9c-0.1-0.1-0.2-0.2-0.2-0.3c-0.1-0.1-0.3-0.2-0.4,0
	l-5.9,6c-0.8,1.5,0.2,2.1,1.6,2.9c2,1.1,4.7,1.1,6.3-0.9c1.6-2.1,0.2-5.1-0.8-6.8c0.4-0.3,0.7-0.7,1.1-1c0.2,0.1,0.3,0.2,0.5,0.3
	c1,0.7,2.8,1.3,3.9,0.7c1.3-0.7,1.3-1.7,0.7-2.8C50.3,85.4,53.4,90.1,51.5,95.2z"/>
<path class="st0" d="M40,102.1c1.4,0.1,2.7,0,4-0.3c0.2,0,0.4-0.1,0.6-0.2"/>
<path class="st0" d="M47.8,100.2c1.6-1.1,2.8-2.7,3.6-4.6c0.1-0.1,0.1-0.3,0.2-0.4"/>
<path class="st0" d="M46.9,81L46.9,81c-0.4-0.5-0.7-0.8-0.9-1.2l-0.1-0.1"/>
<path class="st0" d="M47.8,94.4"/>
<path class="st0" d="M48.5,79.5"/>
<path class="st0" d="M33.9,94.1c-0.5-0.7-1.7-0.5-2.1,0.3c-0.4,0.7-0.2,1.7,0.3,2.4c0.4,0.5,0.9,0.9,1.5,1.1s1.3,0,1.8-0.4
	c0.1-0.1,0.2-0.2,0.3-0.2c0.3-0.1,0.5,0.5,0.6,1.1"/>
<path class="st0" d="M33.6,90.4c-1.4,0.4-2.5,1.9-2.4,3.4"/>
<path class="st0" d="M44.7,85.2c0.2,1.2-0.8,2.4-1.9,2.6"/>
<path class="st0" d="M47.2,89.7c-0.5,0.5-0.5,1.5,0.1,1.9s1.6,0.1,1.8-0.6"/>
<path class="st0" d="M19,132.2L19,132.2c0.1,0.1,0.3,0.1,0.4,0.2"/>
<path class="st0" d="M21,91.4c-0.1,0-0.2-0.1-0.4-0.1c-0.1,0-0.3-0.1-0.5-0.2c0.1,0,0.1,0,0.2,0C20.6,91.1,20.8,91.3,21,91.4z"/>
<path class="st2" d="M36.3,100.7L36.3,100.7c-0.3,0.2-0.4,0.3-0.6,0.3c-2.3,1.2-6.2,1.9-9.1,2.1c-0.7,1.5-1.4,3.1-2,4.6
	c-1,2.4-1.8,4.9-1.8,7.5c0,1.4-0.2,1.2,0.3,2.5c0.2,0.5,0.3,1.3,0.5,1.8c-1.7,3.2-3.8,8.6-4.6,12.5c-0.3-0.1-0.6-0.3-0.9-0.4
	c-1.2-0.6-2.4-1.3-3.3-2.3c-2.4-2.6-2.4-6.5-1.9-10c1.1-7.2,4.1-13.9,7.7-20.3c-1.4-2.3-2.5-4.7-2.5-7.3c0-0.2,0-0.4,0.1-0.5
	c0,0,0.3,0.1,0.7,0.1l0,0c0.1,0.1,0.2,0.2,0.4,0.3c0.1,0.1,0.2,0.2,0.3,0.2l0,0c0.7,0.6,1.6,1,2.5,1.4c0.1,0,0.1,0,0.2,0
	c0.2,0,0.4,0.1,0.6,0.3l0,0c1,1.2,2,2.4,3.1,3.5c0.7,0.8,1.4,1.6,2.3,2.1c0.4,0.2,0.7,0.3,1.1,0.3c0.8,0.1,1.5-0.2,2.3-0.4
	c0.1,0,0.3-0.1,0.4-0.1c1.1-0.3,2.2-0.6,3.4-0.8c0.2,0,0.4-0.1,0.6-0.1c0.4,0,0.8,0.1,1,0.4C37.8,99.3,37,100.2,36.3,100.7z"/>
<path class="st0" d="M18.3,91.4c0.1-0.1,0.3-0.2,0.4-0.1l0,0c0.1,0,0.3,0.1,0.4,0.3c0.1,0.1,0.2,0.2,0.2,0.2l0,0
	c0.1,0.1,0.1,0.2,0.2,0.3"/>
<path class="st0" d="M22,95.2c-0.8-1-1.6-2.1-2.3-3.1"/>
<path class="st0" d="M23.1,93.7c-0.5-0.6-1-1.2-1.6-1.8c-0.1-0.1-1.1-0.2-1.9-0.3c-0.1,0-0.2,0-0.3,0c-0.1,0-0.1,0-0.2,0"/>
<path class="st0" d="M20.2,91.1c-0.3,0-0.6,0.3-0.8,0.6c-0.1,0.2-0.2,0.5-0.2,0.7c0,0.7,0.5,1.2,0.9,1.7"/>
<g>
	<path class="st2" d="M60.2,66.8c-0.6,0.4-1.2,0.7-1.9,0.9c-2.6-1.6-4.8-3.9-6.3-6.6c0.1-0.7,0.4-1.7,0.7-2.5
		C54.4,62,57,64.8,60.2,66.8z"/>
	<path class="st2" d="M60.9,51.8c-0.3-0.2-0.6-0.3-0.9-0.5c0.1-0.1,0.2-0.2,0.2-0.2C60.5,51.4,60.7,51.6,60.9,51.8z"/>
	<path class="st3" d="M79.7,47.9c-1.3,1.3-2.6,2.5-3.9,3.8c-2.4,2.3-4.8,4.7-7.2,7c-2.7,2.6-5.4,5.2-8,7.8c-0.1,0.1-0.3,0.2-0.4,0.3
		c-3.1-2-5.7-4.9-7.5-8.2l0,0l0,0c1.8-1.8,3.6-3.6,5.4-5.4c0.2,0.1,0.3,0.2,0.5,0.3c1.1,0.5,3.2,0.4,4.3,0.5
		c0.3,0.2,0.5,0.4,0.8,0.5c0.4,0.2,0.9,0.2,1.1-0.1c0.1-0.1,0.1-0.3,0.1-0.5c-0.1-0.6-0.2-1.2-0.4-1.8c0.1,0.1,0.2,0.1,0.2,0.2
		c0.3,0.2,0.7,0.5,1.1,0.5c0.4,0.1,0.9-0.1,1.1-0.4c0.2-0.4,0.1-0.9-0.1-1.4c-0.4-0.9-1.3-2.2-2-3c0.6,0.6,1.2,1.2,1.9,1.7
		c0.2,0.1,0.4,0.3,0.6,0.3c0.4,0,0.8-0.4,0.8-0.8c0.1-0.4,0.1-1.2-0.1-1.6c-0.1-0.5-0.2-0.6-1-1.6l-0.7-0.8c1.9-1.8,3.8-3.5,5.7-5.2
		c0.1,0,0.1,0.1,0.2,0.1c3.2,1.6,5.5,3.6,7.1,6.9L79.7,47.9z"/>
	<path class="st0" d="M79.9,45.1L79.9,45.1"/>
	<path class="st2" d="M79.7,47.9l-0.3-1c-1.5-3.2-3.9-5.3-7.1-6.9c-0.1,0-0.1-0.1-0.2-0.1l0,0c0.6-0.5,1.5-0.6,2.3-0.6
		c2.1,1.6,4,3.5,5.5,5.7l0,0C80.1,46,80,47.1,79.7,47.9z"/>
</g>
<g>
	<path class="st2" d="M68.2,49.2c-0.1,0.4-0.4,0.8-0.8,0.8c-0.2,0-0.4-0.2-0.6-0.3c-0.7-0.5-1.3-1.1-1.9-1.7c0.8,0.8,1.6,2.1,2,3
		c0.2,0.4,0.3,1,0.1,1.4c-0.2,0.4-0.7,0.5-1.1,0.4s-0.8-0.3-1.1-0.5c-0.1-0.1-0.2-0.1-0.2-0.2c-1-0.7-1.8-1.7-2.6-2.6
		c-0.5-0.6-1-1.2-1.4-1.8c-0.3-0.4-0.6-0.8-0.7-1.4v-0.1c-0.1-0.5,0.1-1,0.6-1.2c0.3-0.1,0.6-0.1,0.9,0c0.5,0.2,1.6,0.6,1.9,1
		c-0.1-0.1-0.2-0.3-0.3-0.4c-0.2-0.3-0.5-0.7-0.5-1.1c-0.1-0.4,0.1-0.9,0.5-1.1c0.3-0.2,0.7-0.1,1.1,0.1c0.1,0,0.2,0.1,0.3,0.1
		c0.4,0.1,0.7,0.3,1,0.5c0.4,0.2,0.7,0.5,1,0.8l0.2,0.2l0.7,0.8c0.8,1,0.9,1.1,1,1.6C68.3,48,68.2,48.8,68.2,49.2z"/>
	<path class="st2" d="M64.9,54.4c-0.2,0.4-0.7,0.3-1.1,0.1c-0.3-0.1-0.6-0.3-0.8-0.5c-0.6-0.4-1.1-1-1.6-1.6
		c-0.1-0.1-0.2-0.3-0.4-0.4c0-0.1-0.1-0.1-0.1-0.2c-0.2-0.2-0.4-0.5-0.6-0.7c-0.4-0.4-0.7-0.9-1.1-1.3c-0.5-0.6-1.1-1.3-1.3-2.1
		c-0.1-0.5-0.1-1,0.2-1.4c0.4-0.4,1.1-0.4,1.6-0.2c0,0,0.1,0,0.1,0.1v0.1c0.1,0.5,0.4,0.9,0.7,1.4c0.5,0.6,0.9,1.2,1.4,1.8
		c0.8,1,1.6,1.9,2.6,2.6c0.2,0.6,0.4,1.2,0.4,1.8C65,54.1,65,54.2,64.9,54.4z"/>
	<path class="st2" d="M63,54c-1.2-0.1-3.3,0-4.3-0.5c-0.2-0.1-0.4-0.2-0.5-0.3c-0.2-0.2-0.5-0.3-0.7-0.5c-0.5-0.5-0.8-1.1-0.9-1.8
		c0-0.2,0-0.4,0.1-0.5s0.4-0.1,0.6-0.1c0.9,0.1,1.9,0.5,2.8,1c0.3,0.2,0.6,0.3,0.9,0.5c0,0.1,0.1,0.1,0.1,0.2
		c0.1,0.1,0.2,0.3,0.4,0.4C61.9,53,62.4,53.6,63,54z"/>
</g>
<path d="M46.2,83.7c-1.1,0.6-2.9,0-3.9-0.7c-0.2-0.1-0.3-0.2-0.5-0.3c-0.3-0.2-0.6-0.5-0.7-0.8C41,81.6,41,81.4,41.2,81
	c0.6-1.1,1.6-2.1,2.3-3.2c0.8,0.3,1.6,1,2.3,1.8l0.1,0.1c0.2,0.2,0.4,0.5,0.6,0.7c0.1,0.2,0.2,0.3,0.3,0.5
	C47.5,82,47.5,83,46.2,83.7z"/>
<path d="M41.5,90.5c-1.5,2-4.2,2-6.3,0.9c-1.4-0.8-2.5-1.4-1.6-2.9l5.9-6c0.1-0.1,0.3-0.1,0.4,0c0.1,0.1,0.1,0.2,0.2,0.3
	c0.2,0.2,0.3,0.5,0.5,0.8C41.8,85.4,43.1,88.4,41.5,90.5z"/>
<path class="st4" d="M40.2,82.9c-0.2,0.2-0.4,0.5-0.5,0.6"/>
<path class="st4" d="M41.1,81.9c0.4-0.3,0.7-0.5,0.9-0.4"/>
<path class="st4" d="M42.4,82.1c-0.2,0.2-0.4,0.4-0.6,0.6"/>
<path class="st4" d="M40.7,83.7c-0.2,0.2-0.4,0.3-0.6,0.5"/>
</svg>
