<?xml version="1.0" encoding="utf-8"?>
<!-- Generator: Adobe Illustrator 23.0.3, SVG Export Plug-In . SVG Version: 6.00 Build 0)  -->
<svg version="1.1" id="Calque_1" xmlns="http://www.w3.org/2000/svg" xmlns:xlink="http://www.w3.org/1999/xlink" x="0px" y="0px"
	 viewBox="0 0 41.8 136.8" style="enable-background:new 0 0 41.8 136.8;" xml:space="preserve">
<style type="text/css">
	.st0{fill:#FFC1C2;stroke:#000000;stroke-linecap:round;stroke-linejoin:round;}
	.st1{fill:none;stroke:#000000;stroke-linecap:round;stroke-linejoin:round;}
	.st2{fill:#E5E5E5;stroke:#000000;stroke-linecap:round;stroke-linejoin:round;}
	.st3{fill:none;stroke:#000000;stroke-miterlimit:10;}
	.st4{fill:#E5E5E5;stroke:#000000;stroke-miterlimit:10;}
	.st5{fill:#FF868B;stroke:#000000;stroke-linecap:round;stroke-linejoin:round;}
</style>
<title>OELP_bouteille_roseFichier 2</title>
<g>
	<g id="Calque_1-2">
		<path class="st0" d="M39.4,127.2c-0.1,1.4,0,4.7-0.9,5.8c-1.5,1.9-7.4,2-9.6,2.3c-3.7,0.5-7.5,0.6-11.2,0.4
			c-3-0.1-16.7-0.6-16.7-4.7c0-6.5,0.4-19.7,0.8-31.3c2.5,0.8,9.9,3.2,13.7,3.9c3,0.7,6.1,1,9.2,1.1c4.9,0,10.7-1.9,15.5-3.7
			c-0.2,6.7-0.4,13.5-0.7,20.2C39.3,123.4,39.5,125.1,39.4,127.2z"/>
		<path class="st0" d="M40.8,67.5L40.8,67.5c-7.5,2.9-16.5,2.6-24.7,2c-4.3-0.3-9.3-0.9-13.1-2.7c0.2-2.6,0.4-5.1,0.6-7.6
			c0-0.5,0.1-0.9,0.1-1.4c0.2-1.9,0.5-3.8,0.9-5.7c3.7,2,10.3,2.1,13.4,2.4c7.4,0.8,14.9,1.1,22.3,0.7c0.1,1.2,0.2,2.4,0.3,3.5
			c0,0.4,0,0.8,0.1,1.2C40.7,62.4,40.7,64.9,40.8,67.5z"/>
		<path class="st1" d="M39.2,50.1c-2.4-0.4-4.9-0.7-7.3-0.8c-5.2-0.3-10.4-0.6-15.6-0.6c-2.9,0-7.3-0.4-10.8,0.3
			c0.5-1.2,1.2-2.4,2-3.5c2.1-2.5,5.1-4.1,7.1-6.6c2.7-3.5,2.9-8.3,3.1-12.7c0.2-6.2,0.4-11.7,0.5-17.6c0.1-2,0.1-4,0.2-6V2.3
			c0-0.4,0.4-0.8,0.8-0.9c2.9-0.5,5.8-0.5,8.7,0c0.5,0.1,0.9,0.6,0.9,1.1v0.6c-0.2,8.3-0.4,15.1-0.6,23.4v0.2l0,0
			c-0.1,4.4-0.1,9.1,2.4,12.7c1.8,2.7,4.8,4.4,6.7,7C38.2,47.5,38.8,48.7,39.2,50.1z"/>
		<path class="st2" d="M40.7,79.9c-0.1,3.8-0.2,7.5-0.3,11.3l-0.3,9.9c-4.8,1.8-10.6,3.7-15.5,3.7c-3.1-0.1-6.2-0.4-9.2-1.1
			c-4.6-1-9.2-2.3-13.7-3.9C2,90.1,2.3,81.4,2.4,78.7c0.1-4,0.3-8,0.6-12c3.8,1.8,8.8,2.4,13.1,2.7c8.2,0.6,17.2,0.9,24.7-2
			C40.9,71.6,40.8,75.8,40.7,79.9z"/>
		<line class="st3" x1="40.8" y1="67.5" x2="40.8" y2="67.5"/>
		<line class="st3" x1="3" y1="66.7" x2="3" y2="66.7"/>
		<path class="st4" d="M17.7,25.6c1.5,0.5,3,0.8,4.6,0.8c2,0.1,3.9,0.2,5.9,0.1l0.4-17.3c-1.6,0.4-3.3,0.6-5,0.6
			c-1.9,0-3.7-0.4-5.4-1.2L17.7,25.6z"/>
		<path class="st5" d="M40.2,55.1c-7.4,0.3-14.9,0.1-22.3-0.7C14.8,54.1,8.2,54,4.5,52c0.2-1,0.5-2,0.9-3c3.4-0.7,7.9-0.3,10.8-0.3
			c5.2,0,10.4,0.3,15.6,0.6c2.5,0.1,4.9,0.3,7.3,0.8C39.8,51.7,40.1,53.4,40.2,55.1z"/>
	</g>
</g>
</svg>
