<?xml version="1.0" encoding="utf-8"?>
<!-- Generator: Adobe Illustrator 23.0.3, SVG Export Plug-In . SVG Version: 6.00 Build 0)  -->
<svg version="1.1" id="Calque_1" xmlns="http://www.w3.org/2000/svg" xmlns:xlink="http://www.w3.org/1999/xlink" x="0px" y="0px"
	 viewBox="0 0 200 200" style="enable-background:new 0 0 200 200;" xml:space="preserve">
<style type="text/css">
	.st0{fill:none;stroke:#000000;stroke-width:2;stroke-miterlimit:10;}
	.st1{fill:#83C2E1;stroke:#000000;stroke-width:2;stroke-miterlimit:10;}
	.st2{fill:#F2F2F2;stroke:#000000;stroke-width:2;stroke-miterlimit:10;}
	.st3{fill:#BDCCD4;stroke:#000000;stroke-width:2;stroke-miterlimit:10;}
	.st4{fill:#FFC1C2;stroke:#000000;stroke-width:2;stroke-miterlimit:10;}
</style>
<g>
	<path class="st0" d="M54.8,25.6c-0.5,0.2-1,0.4-1.5,0.6"/>
	<path class="st1" d="M157.8,38c0,0.1-0.1,0.3-0.1,0.4c-0.7,3.3-3.4,6.5-6,9.1c-5.5,5.5-11.2,11.2-18.5,14.1
		c-7.3,2.9-15.5,2.7-23.4,2.4c-20.7-0.9-41.4-2.5-62-4.9c-2.9-0.3-5.9-0.7-8.6-1.9c-2.4-1-4.6-2.6-5.8-4.9c-0.2-0.3-0.3-0.6-0.4-1
		c-0.4-1-0.5-2-0.5-2.9v-0.1c0-3.6,2.2-7.2,4.7-10.1c4.4-5.1,10-9.3,16.2-12.1c7.1-1.9,14.8-2,22.2-1.9c23,0.2,46.1,1,69,3.4
		c5.1,0.5,11.1,1.9,12.9,6.6C157.9,35.6,158,36.8,157.8,38z"/>
	<path class="st1" d="M160.2,134.9c-2.4,5.2-6.9,9-11.4,12.6c-4.5,3.7-9.2,7.5-14.7,9.3c-5.6,1.9-11.6,1.7-17.5,1.4
		c-20.8-0.8-41.5-1.7-62.3-2.5c-3.4-0.1-7.1-0.4-9.8-2.4c-4.2-3.2-4.4-9.3-4.3-14.6c0.1-7.4,0-15-0.2-22.6
		c23.5,1.7,47.1,2.3,70.7,2.9c3.8,0.1,7.8,0.2,11.4-1.4c3.7-1.6,6.4-4.8,8.9-8c6.7-8.7,12.5-18.3,17.1-28.3c1.4,0,2.8-0.8,3.8-1.8
		c1-1.1,1.7-2.6,2.2-4c2.3-6.4,2-13.6-0.6-19.8c1.9-1.1,3.7-2,4.5-4.2c2.8,19.8,0.6,42.3,3.4,62.1
		C162.3,120.7,163.3,128.3,160.2,134.9z"/>
	<path class="st1" d="M143.4,78.5c-5.4,8.7-10.8,17.4-16.2,26c-1.8,2.9-3.7,5.9-6.8,7.4c-2.6,1.3-5.5,1.3-8.4,1.3
		c-23.6-0.1-47.1-1.2-70.6-3.3c-0.6-0.1-1.2-0.1-1.7-0.2c-0.4-8.4-0.9-16.9-1.7-25.2l0,0c-0.4-4.5-0.9-9-1.5-13.4
		c-0.2-1.4-0.4-2.8-0.5-4.2c1.5,0.5,3.5,0.1,5.2,0.1c2.6,0,5.1,0.4,7.6,0.6c5.6,0.5,11.1,0.9,16.7,1.4c2.4,0.2,4.9,0.4,7.3,0.6
		c18.2,1.5,36.4,3,54.6,1.8c2.7-0.2,5.5-0.4,7.9-1.7c1.4-0.7,2.6-1.5,3.8-2.4c0.8,2.3,1.6,4.7,2.4,7.1
		C142,75.7,142.5,77.2,143.4,78.5z"/>
	<path class="st0" d="M38,84.5c0,0.1-0.1,0.2-0.1,0.3"/>
	<path class="st0" d="M38.2,83.8C38.1,84,38,84.3,38,84.5"/>
	<path class="st2" d="M147.9,81.3c-4.6,10.1-10.3,19.6-17.1,28.3c-2.5,3.2-5.2,6.4-8.9,8c-3.5,1.6-7.5,1.5-11.4,1.4
		c-23.6-0.6-47.1-1.2-70.7-2.9l0,0c-1.2-0.1-2.5-0.2-3.7-0.3c-4.2-0.3-9-1.2-10.9-5c-1.3-2.8-0.4-6.1,0.6-9
		c1.7-4.7,3.8-9.2,6.3-13.5c1,1.1,2.3,2,3.7,2.6c-0.9,2.9-1.8,5.7-2.7,8.6c-0.6,2-1.3,4.2-0.5,6.2c1,2.6,4,3.6,6.9,4l0,0
		c0.6,0.1,1.2,0.1,1.7,0.2c23.5,2.1,47,3.2,70.6,3.3c2.8,0,5.8,0,8.4-1.3c3-1.5,5-4.5,6.8-7.4c5.4-8.7,10.8-17.3,16.2-26
		c0,0.1,0.1,0.1,0.1,0.2c1,1.4,2.4,2.4,4.1,2.5C147.7,81.3,147.8,81.3,147.9,81.3z"/>
	<path class="st0" d="M36.9,71c-0.1,0-0.2,0.1-0.3,0.1s-0.1,0-0.2,0.1c-4.5,1.7-7.6,6.7-6.9,11.5c0.3,2.1,1.3,4,2.8,5.6"/>
	<path class="st0" d="M38.5,91.7c-0.9-0.1-1.7-0.4-2.5-0.7"/>
	<path class="st2" d="M153.9,75.4c-0.5,1.5-1.2,2.9-2.2,4c-1,1-2.3,1.8-3.8,1.8c-0.1,0-0.2,0-0.3,0c-1.7-0.1-3.1-1.2-4.1-2.5
		c-0.1-0.1-0.1-0.1-0.1-0.2c-0.9-1.3-1.4-2.8-1.9-4.3c-0.8-2.3-1.6-4.7-2.4-7.1c2.9-2.3,5.5-5,8.6-7.1c1-0.7,3.1-2.7,3.7-3.2
		c0.6-0.5,1.2-0.9,1.9-1.2C156,61.8,156.2,69,153.9,75.4z"/>
	<path class="st1" d="M157.9,51.4c-0.8,2.2-2.7,3.1-4.5,4.2c-0.6,0.4-1.3,0.7-1.9,1.2c-0.7,0.5-2.8,2.6-3.7,3.2
		c-3.1,2.1-5.7,4.8-8.6,7.1c-1.2,0.9-2.4,1.8-3.8,2.4c-2.4,1.2-5.2,1.5-7.9,1.7C109.2,72.5,91,71,72.8,69.5
		c-2.4-0.2-4.9-0.4-7.3-0.6c-5.6-0.5-11.2-0.9-16.7-1.4c-2.5-0.2-5.1-0.6-7.6-0.6c-1.7,0-3.7,0.5-5.2-0.1c-0.5-0.2-0.9-0.4-1.2-0.8
		c-3.6-4.1-2.4-10.1-2.3-17.5c0,1,0.2,2,0.5,2.9c0.1,0.3,0.3,0.7,0.4,1c1.2,2.2,3.4,3.9,5.8,4.9c2.7,1.1,5.7,1.5,8.6,1.9
		c20.6,2.4,41.3,4.1,62,4.9c7.9,0.3,16,0.5,23.4-2.4c7.3-2.9,13-8.6,18.5-14.1c2.6-2.6,5.3-5.8,6-9.1c0-0.1,0.1-0.3,0.1-0.4
		C158.7,42,159,48.3,157.9,51.4z"/>
</g>
<path class="st3" d="M67.9,138.7c0.5-1.9,1.7-3.4,3.6-4.1c0.1,0,0.3-0.1,0.4-0.1c1.3-0.4,1.9-1.1,1.9-2.4c0-0.3,0.1-0.7,0.1-1
	c0.2-1.3,0.1-1.5-1.3-1.5c-0.4,0-0.8-0.1-1.1-0.1c-0.3-0.1-0.6-0.1-0.8-0.2c-0.8-0.2-1.1-0.8-1.2-1.6c-0.1-1.4,0.7-2.4,2.1-2.5
	c0.1,0,0.2,0,0.2,0c1.1-0.1,2.1-0.2,3.2-0.3c0.6-0.1,1.1-0.1,1.7,0c1.2,0.1,2.1,0.2,3.3,0.6c1.1,0.3,1.7,1.1,1.7,2.2
	c0.1,1-0.5,1.9-1.6,2.4c-0.6,0.3-0.8,0.3-1.4,0.2c-0.7-0.1-1.4,0.4-1.5,1.2c-0.3,2.2-0.2,2.4,2,2.5c0.1,2.3,0.2,4.7,0.4,7l0,0
	c-0.3-0.1-0.6-0.1-1.1-0.2c-0.6-0.1-1.1-0.1-1.7,0c-1.4,0.2-2.3,0.9-2.6,2.3c-0.1,0.6-0.2,1.2-0.3,1.8c-0.1,1.3-0.2,2.6-0.3,3.8
	c0,0.2-0.1,0.4-0.1,0.6c-0.2,0.7-0.6,0.8-1.5,0.7c-1.3-0.1-2.5-0.3-3.8-0.2c-0.9,0.1-1.4-0.4-1.5-1.2c-0.1-0.4-0.1-0.8-0.1-1.2
	C66.4,144.3,67.1,141.5,67.9,138.7z"/>
<path class="st4" d="M70,152.5c-0.3,1.6,0.8,3,1.6,4.3c0.8,1.4,1.3,3.4,0,4.3c-1.1,0.8-2.8,0-3.3-1.2c-0.6-1.2-0.3-2.7,0.2-3.9
	c0.5-1.3,1.1-2.5,1.4-3.8"/>
<path class="st4" d="M76,173.1c-0.4,1-1.8,1.2-2.7,1.4c-4.9,1.2-9.9,1.3-15.8,1.1c-1.5,0-3.9,0.1-6.3,0c-3.3-0.1-6-1.4-7-4.9
	c-0.5-1.6-1.6-2-3.1-2c-1.7,0-3.5,0-5.2-0.4c-0.7-0.2-1.5-0.4-2-1.1c-1-1.2-0.7-2.6,0.7-3.3c1.4-0.6,2.9-0.8,4.5-0.8
	c2.4,0,4.8,0,7.2-0.2c2.6-0.3,5,0.6,6.3,3.2c0.9,1.8,2.3,2.4,4.2,2.4c2.6,0,5.2,0.1,7.8,0.1c2.7,0,5.4,1,7.8,2.1
	c0.8,0.4,1.7,0.5,2.5,0.9C75.7,171.8,76.3,172.3,76,173.1z"/>
</svg>
